<svg xmlns="http://www.w3.org/2000/svg" height="auto" viewBox="0 0 230.892 230.621"><path fill="#FFF" d="M230.79 230.426l-22.463-164.17-38.306 38.845L116.237 0 63.124 106.066 22.296 66.771l-.201-.341-.018.13-.344 2.51L0 228.548l85.14-51.392 30.397 51.817 30.238-51.653 85.034 53.25.082.051-.101-.195zM116.257 4.428l52.268 102.139-33.497 32.778-18.517 18.089-51.742-50.186 51.488-102.82zM23.253 71.66l31.049 52.928-.125.238-36.174 68.464-15.417 29.414L23.253 71.66zm60.875 103.771l-79.76 48.232 51.399-96.571.001-.003 16.272 27.738 12.09 20.603-.002.001zm31.407 49.588L26.19 73.38l90.338 86.864 86.445-84.591-87.438 149.366zm31.251-49.425l27.961-47.765 24.03 45.129 26.972 52.083-78.963-49.447zm29.506-50.404l30.711-52.459 20.081 150.537-50.792-98.078z"/></svg>