<svg xmlns="http://www.w3.org/2000/svg" width="140.469" height="139.47" viewBox="0 0 140.469 139.47"><path fill="#FFF" d="M71.235 138.47C33.059 138.47 2 107.41 2 69.235 2 31.059 33.059 0 71.235 0s69.234 31.059 69.234 69.235c.001 38.175-31.058 69.235-69.234 69.235zm0-131.47C36.918 7 9 34.918 9 69.235s27.918 62.235 62.235 62.235c34.316 0 62.234-27.918 62.234-62.235C133.47 34.919 105.552 7 71.235 7z"/><path d="M46.076 74.055h-.009l-.598-1.279s-3.314-7.081-3.304-7.087L31.582 42.981c-.198-.396-.593-.658-1.12-.658H29.41c-.725 0-1.119.461-1.186.989L20.39 87.551c-.131.923.396 1.514 1.251 1.514h5.926c.593 0 1.119-.523 1.185-.985l3.819-24.952h.196L44.42 89.001c.197.396.526.724 1.119.724h1.185c.593 0 .988-.328 1.119-.724l2.569-5.771-4.336-9.175zm25.799 13.496l-7.77-44.239c-.064-.528-.461-.989-1.185-.989h-1.053c-.593 0-.922.263-1.12.658L50.56 64.835l4.241 8.538 4.562-10.246h.196l3.886 24.952c.131.462.657.985 1.25.985h5.99c.86 0 1.388-.59 1.19-1.513zm29.247-22.481l-.001-.008-1.185-.559s-6.559-3.084-6.564-3.073l-21.026-9.856c-.365-.184-.606-.552-.607-1.041l.003-.975c.001-.67.428-1.036.917-1.097l41.021-7.175c.855-.119 1.402.372 1.401 1.164l-.012 5.492c-.002.549-.489 1.035-.918 1.095l-23.136 3.49c-.002.062-.002.186-.002.186l23.961 10.852c.363.184.67.49.668 1.039l-.002 1.099c-.002.549-.305.914-.676 1.035l-5.352 2.368-8.49-4.036zm12.459 23.94l-40.995-7.288c-.487-.062-.913-.43-.915-1.1l.006-.979c0-.55.247-.854.611-1.035l20.273-9.397 7.904 3.948-9.502 4.205s-.004.125 0 .185l23.118 3.651c.429.123.915.611.912 1.16l-.012 5.556c.003.792-.546 1.279-1.4 1.094z" fill="#FFF"/></svg>