<svg xmlns="http://www.w3.org/2000/svg" width="700" height="192.017" viewBox="0 0 700 192.017"><path fill="#000010" stroke="#191919" stroke-miterlimit="10" d="M156.533 49.506l-28.502 28.162L88.797 1 49.886 78.704 20.457 50.379l-1.113-1.071-.23 1.683L3 168.726l62.907-37.97L88.224 168.8l22.133-37.971 63.009 38.626-16.833-119.949zm13.665 113.943l-37.459-71.02 22.815-39.143 14.644 110.163zM88.812 4.25l38.123 74.5-37.996 37.542-37.927-36.558 37.8-75.484zM20.316 53.04l22.946 39.119-7.416 13.89-30.61 57.334L20.316 53.04zM5.858 165.334l35.208-65.945 3.067-5.745 11.62 19.804 9.411 16.041-59.306 35.845zm82.361.557l-21.056-35.894.001-.001-9.726-16.577-34.234-58.358 65.241 62.793.508.49.973-.961 62.651-61.903-3.61 6.194L131.931 90.9l-.836 1.435-.035.06-7.985 13.698-34.856 59.798zm22.878-36.331l20.771-35.635 19.616 37.19 18.086 34.291-58.473-35.846zm144.079-49.597l-27.328 38.045c-.322.322-.75.536-1.178.536h-.215c-.536 0-.964-.214-1.179-.536l-27.435-38.152v68.267c0 .751-.536 1.393-1.286 1.393s-1.393-.642-1.393-1.393V75.998c0-.643.643-1.393 1.393-1.393.107 0 .214 0 .321.107.322 0 .644.214.965.429l28.721 39.867 28.722-39.867c.213-.215.536-.429.857-.429.107-.107.213-.107.321-.107.857 0 1.393.75 1.393 1.393v72.125c0 .751-.536 1.393-1.393 1.393-.643 0-1.286-.642-1.286-1.393v-68.16zm70.302 18.433v49.726c0 .857-.535 1.393-1.285 1.393-.857 0-1.393-.536-1.393-1.393v-13.074c-4.073 8.574-12.432 14.467-22.077 14.467-13.717 0-24.756-11.895-24.756-26.256s11.039-26.257 24.756-26.257c9.646 0 18.004 6.002 22.077 14.468V98.396c0-.644.536-1.394 1.393-1.394.749 0 1.285.75 1.285 1.394zm-2.679 24.863c0-12.968-9.967-23.471-22.077-23.471s-22.077 10.503-22.077 23.471c0 13.075 9.966 23.578 22.077 23.578s22.077-10.503 22.077-23.578zm22.397-47.368c0-.75.537-1.394 1.394-1.394.642 0 1.285.644 1.285 1.394v55.621l34.508-34.509c.536-.536 1.286-.536 1.93 0a1.361 1.361 0 0 1 0 1.93l-21.756 21.755 21.756 26.471c.535.75.321 1.5-.215 2.036a1.158 1.158 0 0 1-.75.321c-.429 0-.857-.107-1.071-.536l-21.755-26.256-12.324 12.325c-.108.107-.215.214-.322.214v12.86c0 .751-.643 1.393-1.285 1.393-.857 0-1.394-.642-1.394-1.393V75.891zm50.798 47.368c.214-14.575 11.467-26.257 25.506-26.257 13.396 0 24.221 10.61 25.186 24.221v.428c-.107.643-.645 1.286-1.286 1.286h-46.727v.321c0 12.86 10.182 23.47 22.827 23.578 7.931 0 14.897-4.287 18.862-10.717.429-.643 1.179-.643 1.929-.322.536.322.751 1.18.322 1.823-4.502 6.965-12.325 11.895-21.113 11.895-14.039-.213-25.292-11.895-25.506-26.256zm2.786-2.893h45.226c-1.393-11.682-11.038-20.577-22.506-20.577-11.681 0-21.326 8.895-22.72 20.577zm124.638-40.403l-27.328 38.045c-.321.322-.75.536-1.179.536h-.215c-.536 0-.965-.214-1.179-.536l-27.436-38.152v68.267c0 .751-.536 1.393-1.286 1.393s-1.394-.642-1.394-1.393V75.998c0-.643.644-1.393 1.394-1.393.107 0 .216 0 .321.107.323 0 .644.214.965.429l28.722 39.867 28.722-39.867c.214-.215.536-.429.857-.429.106-.107.214-.107.321-.107.857 0 1.394.75 1.394 1.393v72.125c0 .751-.536 1.393-1.394 1.393-.643 0-1.286-.642-1.286-1.393v-68.16zm70.302 18.433v49.726c0 .857-.535 1.393-1.286 1.393-.857 0-1.393-.536-1.393-1.393v-13.074c-4.072 8.574-12.432 14.467-22.077 14.467-13.718 0-24.757-11.895-24.757-26.256s11.039-26.257 24.757-26.257c9.646 0 18.005 6.002 22.077 14.468V98.396c0-.644.535-1.394 1.393-1.394.751 0 1.286.75 1.286 1.394zm-2.679 24.863c0-12.968-9.967-23.471-22.077-23.471s-22.077 10.503-22.077 23.471c0 13.075 9.967 23.578 22.077 23.578s22.077-10.503 22.077-23.578zm22.504.322c-.107-.214-.107-.321 0-.643V98.396c0-.751.643-1.394 1.286-1.394.857 0 1.286.643 1.286 1.394v17.79c.857-1.929 1.929-4.072 3.322-6.216 4.072-6.109 10.824-12.968 20.898-12.968.856 0 1.393.643 1.393 1.394 0 .75-.536 1.392-1.393 1.392-6.645 0-11.682 3.216-15.219 7.181-3.751 4.287-6.323 9.646-7.716 12.968-.857 2.357-1.286 3.644-1.286 3.644v24.542c0 .857-.429 1.393-1.286 1.393-.644 0-1.286-.536-1.286-1.393v-24.542zm44.152-47.69c0-.75.537-1.394 1.395-1.394.642 0 1.286.644 1.286 1.394v55.621l34.508-34.509c.536-.536 1.286-.536 1.929 0a1.36 1.36 0 0 1 0 1.93l-21.754 21.755 21.754 26.471c.536.75.321 1.5-.214 2.036a1.16 1.16 0 0 1-.751.321c-.428 0-.856-.107-1.071-.536l-21.756-26.256-12.323 12.325c-.108.107-.214.214-.321.214v12.86c0 .751-.645 1.393-1.286 1.393-.857 0-1.395-.642-1.395-1.393V75.891zm-360.23 88.503l-6.743 9.361a.696.696 0 0 1-.602.331h-.06c-.271 0-.482-.09-.632-.331l-6.743-9.331v17.307a.732.732 0 0 1-.722.722.739.739 0 0 1-.752-.722v-19.505c0-.241.121-.452.301-.571 0-.03.03-.03.06-.06a.758.758 0 0 1 1.023.18l7.496 10.385 7.464-10.385c.211-.33.692-.391 1.023-.18.09.09.15.15.21.24.061.12.121.271.121.391v19.505a.732.732 0 0 1-.723.722.713.713 0 0 1-.722-.722v-17.337zm21.19 4.033v13.304a.732.732 0 0 1-.723.722.733.733 0 0 1-.722-.722v-2.197c-1.264 1.746-3.282 2.919-5.539 2.919-3.883 0-6.983-3.341-6.983-7.375s3.101-7.375 6.983-7.375c2.257 0 4.274 1.145 5.539 2.89v-2.167c0-.421.331-.723.722-.723a.715.715 0 0 1 .723.724zm-1.445 6.652c0-3.311-2.499-5.959-5.539-5.959-3.01 0-5.538 2.648-5.538 5.959s2.528 5.93 5.538 5.93c3.041-.001 5.539-2.62 5.539-5.93zm7.705-6.622c0-.421.331-.723.753-.723.361 0 .692.301.692.723v3.25c.061-.12.12-.241.21-.361 1.114-1.746 3.071-3.612 5.9-3.612.391 0 .723.301.723.723a.733.733 0 0 1-.723.723c-1.926 0-3.25 1.083-4.274 2.408-.993 1.325-1.565 2.829-1.775 3.431-.061.12-.061.181-.061.241v6.472a.707.707 0 0 1-.692.722c-.422 0-.753-.301-.753-.722v-13.275zm13.214-6.351c0-.391.331-.722.722-.722.422 0 .753.332.753.722v14.177l8.729-8.699c.301-.301.723-.301 1.023 0 .301.271.301.723 0 1.023l-5.689 5.688 5.719 6.953c.271.332.241.752-.06 1.053a.753.753 0 0 1-.481.151c-.211 0-.452-.061-.572-.271l-5.659-6.833-3.01 3.01v3.372c0 .391-.331.722-.753.722a.733.733 0 0 1-.722-.722v-19.624zm15.05 13.003c0-4.094 3.19-7.405 7.164-7.405 3.792 0 6.802 3.01 7.104 6.863v.12c0 .392-.331.663-.723.663h-12.101c.15 3.22 2.679 5.659 5.72 5.659a5.541 5.541 0 0 0 4.755-2.679c.211-.36.662-.421.963-.24.332.24.452.662.241 1.023-1.264 2.017-3.461 3.341-5.959 3.341-3.974-.001-7.164-3.312-7.164-7.345zm1.534-1.174h11.167c-.48-2.77-2.829-4.786-5.537-4.786-2.77 0-5.087 1.987-5.63 4.786zm21.793-5.508c0 .361-.361.723-.723.723h-1.896v10.746c0 .723.723 1.084 1.084 1.084s.753.391.753.752-.392.722-.753.722c-1.476 0-2.589-1.083-2.589-2.558V169.15h-1.836c-.723 0-.723-.361-.723-.723s0-.723.723-.723h1.836v-5.478c0-.361.361-.722.722-.722.392 0 .783.36.783.722v5.478h1.896c.361 0 .723.361.723.723zm6.923-4.816c0-.392.331-.723.722-.723a.74.74 0 0 1 .753.723v.692c0 .421-.331.783-.753.783-.391 0-.722-.361-.722-.783v-.692zm0 4.816c0-.421.331-.723.722-.723.422 0 .753.301.753.723v13.304c0 .391-.331.722-.753.722a.733.733 0 0 1-.722-.722v-13.304zm18.962 5.297a4.54 4.54 0 0 0-4.545-4.544c-2.498 0-4.515 2.046-4.574 4.544v8.128c-.03.12-.061.24-.151.331a.642.642 0 0 1-.542.271h-.181a.789.789 0 0 1-.481-.392c-.03-.03-.03-.06-.03-.09s-.03-.06-.03-.06v-13.455c0-.392.302-.723.723-.723.392 0 .693.331.693.723v1.415a5.975 5.975 0 0 1 4.574-2.137c3.311 0 5.99 2.708 5.99 5.99v8.007a.714.714 0 0 1-.723.722.713.713 0 0 1-.723-.722v-8.008zm20.798 7.555c0 3.823-3.101 6.923-6.953 6.923-1.083 0-2.107-.271-3.07-.692-.302-.211-.481-.632-.302-.964.181-.391.603-.542.964-.331a5.346 5.346 0 0 0 2.408.542c3.07 0 5.508-2.438 5.508-5.478v-1.806a6.678 6.678 0 0 1-5.508 2.89c-3.853 0-6.924-3.281-6.924-7.344 0-3.973 3.071-7.314 6.924-7.314 2.258 0 4.274 1.145 5.508 2.89v-2.167a.74.74 0 0 1 .753-.723c.361 0 .692.332.692.723v12.851zm-1.445-6.26c0-3.281-2.468-5.869-5.508-5.869-3.011 0-5.479 2.588-5.479 5.869 0 3.311 2.468 5.93 5.479 5.93 3.04 0 5.508-2.62 5.508-5.93zm26.817-12.913c0-.391.331-.722.723-.722h5.959c3.311 0 5.991 2.708 5.991 6.02a5.988 5.988 0 0 1-5.991 5.99l-5.207.06v8.278a.738.738 0 0 1-1.475 0v-19.626zm6.682 9.873c2.499-.03 4.546-2.077 4.546-4.575a4.56 4.56 0 0 0-4.546-4.545h-5.207v9.121h5.207zm10.384-3.582c0-.422.332-.723.723-.723.392 0 .723.301.723.723v8.037a4.56 4.56 0 0 0 4.515 4.575c2.528-.029 4.575-2.047 4.575-4.575v-8.037c0-.422.361-.723.723-.723.421 0 .753.301.753.723v8.037c0 3.311-2.679 6.02-6.051 6.02-3.311 0-5.96-2.709-5.96-6.02v-8.037zm18.752 7.013v-13.304c0-.391.332-.722.723-.722.422 0 .753.332.753.722v8.488c1.294-1.745 3.341-2.89 5.658-2.89 3.973 0 7.134 3.311 7.134 7.405 0 4.033-3.161 7.344-7.134 7.344a7.013 7.013 0 0 1-5.658-2.859v2.137c0 .391-.331.722-.753.722a.734.734 0 0 1-.723-.722v-6.321zm1.475-.301c0 3.25 2.559 5.87 5.658 5.87 3.13 0 5.659-2.62 5.659-5.87 0-3.281-2.529-5.929-5.659-5.929-3.04 0-5.538 2.528-5.658 5.688v.241zm18.601-13.003c0-.391.331-.722.722-.722.422 0 .753.332.753.722v19.625c0 .391-.331.722-.753.722a.733.733 0 0 1-.722-.722v-19.625zm7.314 1.505a.74.74 0 0 1 1.476 0v.692c0 .421-.331.783-.753.783-.392 0-.723-.361-.723-.783v-.692zm0 4.816c0-.421.331-.723.723-.723.422 0 .753.301.753.723v13.304c0 .391-.331.722-.753.722a.733.733 0 0 1-.723-.722v-13.304zm7.374 6.621c0-4.093 3.371-7.344 7.585-7.344 1.746 0 3.401.603 4.696 1.626.301.21.361.662.09.993a.74.74 0 0 1-.993.12 6.054 6.054 0 0 0-3.793-1.323c-3.431 0-6.14 2.678-6.14 5.929 0 3.311 2.709 5.96 6.14 5.96a6.205 6.205 0 0 0 3.793-1.294.74.74 0 0 1 .993.12c.271.332.211.783-.15 1.054-1.234.963-2.89 1.564-4.636 1.564-4.214 0-7.585-3.251-7.585-7.405zm18.27-11.437a.74.74 0 0 1 1.476 0v.692c0 .421-.331.783-.753.783-.392 0-.723-.361-.723-.783v-.692zm0 4.816c0-.421.331-.723.723-.723.422 0 .753.301.753.723v13.304c0 .391-.331.722-.753.722a.733.733 0 0 1-.723-.722v-13.304zm20.228 11.167a7.014 7.014 0 0 1-5.66 2.859c-3.973 0-7.133-3.311-7.133-7.344 0-4.094 3.16-7.405 7.133-7.405 2.318 0 4.365 1.145 5.66 2.89v-8.488a.738.738 0 0 1 1.474 0v19.625c0 .391-.33.722-.722.722a.739.739 0 0 1-.752-.722v-2.137zm0-4.244v-.482c-.121-3.16-2.619-5.688-5.66-5.688-3.1 0-5.657 2.648-5.657 5.929 0 3.25 2.558 5.87 5.657 5.87 3.04 0 5.538-2.5 5.66-5.629zm20.436-6.923v13.304c0 .391-.331.722-.723.722s-.722-.332-.722-.722v-2.197c-1.265 1.746-3.282 2.919-5.539 2.919-3.883 0-6.982-3.341-6.982-7.375s3.1-7.375 6.982-7.375c2.257 0 4.274 1.145 5.539 2.89v-2.167c0-.421.33-.723.722-.723s.723.302.723.724zm-1.444 6.652c0-3.311-2.499-5.959-5.539-5.959-3.01 0-5.539 2.648-5.539 5.959s2.529 5.93 5.539 5.93c3.04-.001 5.539-2.62 5.539-5.93zm19.504 4.515a7.013 7.013 0 0 1-5.659 2.859c-3.974 0-7.134-3.311-7.134-7.344 0-4.094 3.16-7.405 7.134-7.405 2.317 0 4.364 1.145 5.659 2.89v-8.488c0-.391.331-.722.752-.722.392 0 .723.332.723.722v19.625a.732.732 0 0 1-.723.722c-.421 0-.752-.332-.752-.722v-2.137zm0-4.244v-.482c-.121-3.16-2.619-5.688-5.659-5.688-3.101 0-5.658 2.648-5.658 5.929 0 3.25 2.558 5.87 5.658 5.87 3.04 0 5.538-2.5 5.659-5.629zm-161.318-13.966h1.469v22.758h-1.469z"/></svg>