<svg xmlns="http://www.w3.org/2000/svg" width="326" height="257" viewBox="0 0 326 257"><path fill="#FFF" d="M160.076 169.671c-38.176 0-69.235-31.059-69.235-69.235s31.059-69.235 69.235-69.235 69.234 31.059 69.234 69.235-31.058 69.235-69.234 69.235zm0-131.47c-34.317 0-62.235 27.918-62.235 62.235s27.918 62.235 62.235 62.235c34.316 0 62.234-27.918 62.234-62.235.001-34.316-27.917-62.235-62.234-62.235z"/><path d="M134.917 105.256h-.009l-.598-1.28s-3.314-7.08-3.304-7.087l-10.583-22.707c-.198-.396-.593-.658-1.12-.658h-1.052c-.725 0-1.119.461-1.186.989l-7.834 44.239c-.131.923.396 1.514 1.251 1.514h5.926c.593 0 1.119-.524 1.185-.986l3.819-24.952h.196l11.653 25.874c.197.395.526.724 1.119.724h1.185c.593 0 .988-.329 1.119-.724l2.569-5.77-4.336-9.176zm25.799 13.496l-7.77-44.239c-.064-.528-.461-.989-1.185-.989h-1.053c-.593 0-.922.263-1.12.658l-10.187 21.854 4.241 8.538 4.562-10.246h.196l3.886 24.952c.131.462.657.986 1.25.986h5.99c.86 0 1.388-.591 1.19-1.514zm29.247-22.481l-.001-.008-1.185-.559s-6.558-3.084-6.564-3.073l-21.026-9.856c-.365-.184-.606-.552-.607-1.041l.003-.975c.001-.67.428-1.036.917-1.097l41.021-7.175c.856-.119 1.403.372 1.402 1.164l-.012 5.492c-.002.549-.489 1.035-.918 1.095l-23.135 3.49c-.002.062-.002.186-.002.186l23.96 10.852c.364.184.671.49.669 1.039l-.002 1.099c-.003.549-.306.914-.676 1.035l-5.352 2.368-8.492-4.036zm12.459 23.94l-40.995-7.288c-.487-.062-.913-.43-.915-1.1l.006-.979c0-.55.247-.854.611-1.035l20.273-9.398 7.905 3.948-9.503 4.206s-.003.124 0 .184l23.119 3.651c.428.123.915.612.912 1.161l-.012 5.555c.002.793-.547 1.28-1.401 1.095zM59.223 218.673l16.88-36.526c.163-.326.435-.599.923-.599h.542c.543 0 .761.272.922.599l16.718 36.526c.326.705-.108 1.411-.923 1.411h-4.723c-.813 0-1.193-.325-1.574-1.085l-2.658-5.863H69.101l-2.659 5.863c-.218.542-.706 1.085-1.573 1.085h-4.724c-.813 0-1.248-.706-.922-1.411zm23.447-11.562l-5.428-11.939h-.162l-5.319 11.939H82.67zm17.312-23.716c0-.705.542-1.303 1.304-1.303h4.775a1.32 1.32 0 0 1 1.302 1.303v14.653l13.679-15.414c.217-.271.542-.542 1.032-.542h5.427c1.03 0 1.574 1.141.868 1.953l-14.166 15.957 15.196 18.184c.543.705.109 1.898-.977 1.898h-5.917c-.542 0-.868-.217-.978-.38l-14.167-17.478v16.555a1.32 1.32 0 0 1-1.302 1.303h-4.775a1.287 1.287 0 0 1-1.304-1.303v-35.387h.003zm34.843-.272a1.03 1.03 0 0 1 1.03-1.031h22.091a1.03 1.03 0 0 1 1.031 1.031v4.45a1.03 1.03 0 0 1-1.031 1.03h-16.064v8.901h13.405c.543 0 1.031.487 1.031 1.03v4.505c0 .599-.488 1.031-1.031 1.031h-13.405v9.499h16.064a1.03 1.03 0 0 1 1.031 1.031v4.45a1.03 1.03 0 0 1-1.031 1.03h-22.091c-.597 0-1.03-.488-1.03-1.03v-35.927zm74.297 35.55l16.879-36.526c.163-.326.436-.599.923-.599h.543c.543 0 .76.272.924.599l16.717 36.526c.325.705-.108 1.411-.924 1.411h-4.722c-.814 0-1.194-.325-1.573-1.085l-2.66-5.863H219l-2.659 5.863c-.218.542-.706 1.085-1.574 1.085h-4.722c-.815 0-1.248-.706-.923-1.411zm23.447-11.562l-5.427-11.939h-.164l-5.317 11.939h10.908zm17.312-23.988a1.03 1.03 0 0 1 1.03-1.031h15.523c6.512 0 11.832 5.21 11.832 11.669 0 4.992-3.312 9.063-8.033 10.964l7.437 13.786c.379.704 0 1.573-.924 1.573h-5.699c-.488 0-.758-.271-.867-.488l-7.219-14.383h-6.024v13.842c0 .541-.486 1.029-1.032 1.029h-4.992c-.598 0-1.03-.488-1.03-1.029l-.002-35.932zm15.957 16.282c2.877 0 5.373-2.497 5.373-5.536 0-2.877-2.496-5.266-5.373-5.266h-8.848v10.802h8.848zm19.861-16.01c0-.705.543-1.303 1.303-1.303h4.776c.705 0 1.304.598 1.304 1.303v14.653l13.676-15.414c.219-.271.543-.542 1.03-.542h5.431c1.028 0 1.572 1.141.867 1.953l-14.166 15.957 15.196 18.184c.543.705.109 1.898-.979 1.898h-5.914c-.543 0-.869-.217-.979-.38l-14.163-17.478v16.555c0 .705-.599 1.303-1.304 1.303h-4.776c-.76 0-1.304-.598-1.304-1.303v-35.387h.002zM35.344 207.71h-.053l-5.785-12.412-.89-1.891.007-.003-5.273-11.312c-.163-.326-.488-.544-.922-.544h-.868c-.597 0-.923.381-.977.815l-6.459 36.473c-.108.76.326 1.248 1.03 1.248h4.886c.488 0 .923-.434.977-.814l3.148-20.568h.163l9.605 21.329c.163.325.436.598.924.598h.978c.488 0 .813-.271.922-.598l2.131-4.786-3.544-7.535zm21.222 11.126l-6.403-36.473c-.055-.436-.38-.815-.978-.815h-.869c-.487 0-.76.218-.922.544l-8.347 17.907 3.405 7.239 3.802-8.538h.163l3.202 20.569c.107.381.543.813 1.03.813h4.939c.707.002 1.141-.486.978-1.246zm128.676-11.126h-.054l-5.784-12.412-.89-1.891.006-.003-5.271-11.312c-.163-.326-.488-.544-.923-.544h-.868c-.598 0-.923.381-.979.815l-6.458 36.473c-.107.76.325 1.248 1.03 1.248h4.885c.489 0 .924-.434.979-.814l3.146-20.568h.164l9.605 21.329c.164.325.436.598.924.598h.977c.488 0 .814-.271.923-.598l2.132-4.786-3.544-7.535zm21.224 11.126l-6.404-36.473c-.054-.436-.381-.815-.978-.815h-.868c-.489 0-.76.218-.923.544l-8.349 17.907 3.406 7.239 3.803-8.538h.162l3.201 20.569c.109.381.544.813 1.032.813h4.938c.708.002 1.143-.486.98-1.246z" fill="#FFF"/></svg>