<svg id="Capa_1" xmlns="http://www.w3.org/2000/svg" xmlns:xlink="http://www.w3.org/1999/xlink" viewBox="105 78.9 806 647"><style>.st0,.st1{enable-background:new}.st1{clip-path:url(#SVGID_2_)}.st2{fill:#7e8f9a}.st3,.st4{clip-path:url(#SVGID_4_);enable-background:new}.st4{clip-path:url(#SVGID_6_)}.st5{fill:#3e4950}.st6{fill:#bfdeda}.st7{fill:#77b5ab}.st8{fill:#5d6e79}.st9{fill:#4d5a64}.st10{fill:#fff}.st11{fill:#73c5d8}.st12{fill:#60aabf}.st13{fill:#5596a5}.st14{fill:#e6f7fa}.st15{fill:#e58967}.st16{fill:#e16f47}.st17{fill:#d55227}.st18{fill:#f1c93e}.st19{fill:#f4d45a}.st20{fill:#ecb22a}.st21{fill:#8db14c}.st22{fill:#aacb6c}.st23{fill:#7a9e43}.st24{clip-path:url(#SVGID_8_);enable-background:new}.st25{fill:#95a2ac}.st26{clip-path:url(#SVGID_10_);enable-background:new}</style><g class="st0"><defs><path id="SVGID_1_" d="M620.3 688.4l-16.9 9.8c2.8-1.7 4.6-5.2 4.6-10.2l16.9-9.8c0 5-1.8 8.5-4.6 10.2z"/></defs><use xlink:href="#SVGID_1_" overflow="visible" fill="#7e8f9a"/><clipPath id="SVGID_2_"><use xlink:href="#SVGID_1_" overflow="visible"/></clipPath><g class="st1"><path class="st2" d="M608 688l16.9-9.8L608 688c0 .1 0 0 0 0m0 .1l16.9-9.8v.8l-16.9 9.8v-.8"/><path class="st2" d="M608 688.8l16.9-9.8v.7l-16.9 9.8v-.7m0 .8l16.9-9.8c0 .3 0 .5-.1.8l-16.9 9.8c0-.3 0-.6.1-.8"/><path class="st2" d="M607.9 690.3l16.9-9.8c0 .3-.1.5-.1.8l-16.9 9.8c0-.3 0-.5.1-.8m-.1.8l16.9-9.8c0 .3-.1.5-.2.8l-16.9 9.8c.1-.3.1-.5.2-.8m-.2.8l16.9-9.8c-.1.3-.1.5-.2.8l-16.9 9.8c.1-.3.1-.6.2-.8m-.2.8l16.9-9.8c-.1.3-.2.6-.3.8l-16.9 9.8c.1-.3.2-.5.3-.8m-.3.8l16.9-9.8c-.1.3-.2.6-.4.9l-16.9 9.8c.2-.3.3-.6.4-.9m-.4.9l16.9-9.8c-.2.4-.4.7-.6 1.1l-16.9 9.8c.3-.3.5-.7.6-1.1m-.6 1.1l16.9-9.8c-.7 1.1-1.7 2-2.7 2.7l-16.9 9.8c1.1-.7 2-1.6 2.7-2.7"/></g><defs><path id="SVGID_3_" d="M386.1 115.3l16.9-9.8c2.9-1.7 6.9-1.4 11.3 1.1l-16.9 9.8c-4.4-2.5-8.4-2.8-11.3-1.1z"/></defs><use xlink:href="#SVGID_3_" overflow="visible" fill="#7e8f9a"/><clipPath id="SVGID_4_"><use xlink:href="#SVGID_3_" overflow="visible"/></clipPath><g class="st3"><path class="st2" d="M386.1 115.3l16.9-9.8c.4-.2.8-.4 1.3-.6l-16.9 9.8c-.4.2-.9.4-1.3.6"/><path class="st2" d="M387.4 114.7l16.9-9.8c.4-.1.7-.2 1.1-.3l-16.9 9.8c-.4.1-.7.2-1.1.3"/><path class="st2" d="M388.5 114.4l16.9-9.8c.3-.1.6-.1.9-.1l-16.9 9.8c-.3 0-.6 0-.9.1"/><path class="st2" d="M389.4 114.3l16.9-9.8h.8l-16.9 9.8c-.2-.1-.5-.1-.8 0"/><path class="st2" d="M390.3 114.2l16.9-9.8h.7l-16.9 9.8h-.7m.7.1l16.9-9.8c.2 0 .5 0 .7.1l-16.9 9.8c-.2-.1-.5-.1-.7-.1"/><path class="st2" d="M391.7 114.3l16.9-9.8c.2 0 .5.1.7.1l-16.9 9.8c-.2 0-.5 0-.7-.1m.7.1l16.9-9.8c.2 0 .4.1.6.1l-16.9 9.8c-.2 0-.4 0-.6-.1m.6.2l16.9-9.8c.2.1.4.1.7.2l-16.9 9.8c-.2-.1-.4-.2-.7-.2"/><path class="st2" d="M393.7 114.8l16.9-9.8c.2.1.4.1.6.2l-16.9 9.8c-.2-.1-.4-.2-.6-.2"/><path class="st2" d="M394.3 115l16.9-9.8c.2.1.4.2.6.2l-16.9 9.8c-.1-.1-.4-.2-.6-.2m.7.2l16.9-9.8.6.3-16.9 9.8-.6-.3"/><path class="st2" d="M395.6 115.5l16.9-9.8.6.3-16.9 9.8-.6-.3"/><path class="st2" d="M396.2 115.8l16.9-9.8.6.3-16.9 9.8c-.1-.1-.3-.2-.6-.3m.7.3l16.9-9.8c.2.1.3.2.5.3l-16.9 9.8c-.2-.1-.3-.2-.5-.3"/></g><path class="st2" d="M609.2 256.9l16.9-9.8-1.2 431.1L608 688zM397.4 116.4l16.9-9.8 196 113.2-16.8 9.8z"/><defs><path id="SVGID_5_" d="M593.5 229.6l16.9-9.8c8.7 5 15.8 17.3 15.8 27.3l-16.9 9.8c0-10-7.1-22.3-15.8-27.3z"/></defs><use xlink:href="#SVGID_5_" overflow="visible" fill="#7e8f9a"/><clipPath id="SVGID_6_"><use xlink:href="#SVGID_5_" overflow="visible"/></clipPath><g class="st4"><path class="st2" d="M593.5 229.6l16.9-9.8c.1 0 .1.1.2.1l-16.9 9.8c-.1 0-.2-.1-.2-.1"/><path class="st2" d="M593.6 229.7l16.9-9.8c.2.1.4.3.7.4l-16.9 9.8c-.2-.1-.5-.3-.7-.4"/><path class="st2" d="M594.3 230.1l16.9-9.8c.2.1.4.3.7.4l-16.9 9.8c-.3-.1-.5-.3-.7-.4"/><path class="st2" d="M595 230.5l16.9-9.8c.2.2.5.3.7.5l-16.9 9.8c-.3-.1-.5-.3-.7-.5"/><path class="st2" d="M595.6 231l16.9-9.8c.2.2.5.3.7.5l-16.9 9.8c-.2-.1-.4-.3-.7-.5m.7.6l16.9-9.8c.2.2.5.4.7.6l-16.9 9.8c-.2-.3-.4-.4-.7-.6"/><path class="st2" d="M597 232.1l16.9-9.8c.2.2.5.4.7.6l-16.9 9.8c-.2-.2-.4-.4-.7-.6m.8.7l16.9-9.8c.2.2.5.4.7.6l-16.9 9.8c-.3-.2-.5-.4-.7-.6"/><path class="st2" d="M598.4 233.4l16.9-9.8.7.7-16.9 9.8c-.2-.3-.4-.5-.7-.7"/><path class="st2" d="M599.1 234.1l16.9-9.8c.2.2.4.4.6.7l-16.9 9.8c-.2-.3-.4-.5-.6-.7"/><path class="st2" d="M599.8 234.7l16.9-9.8c.2.2.4.5.6.7l-16.9 9.8c-.2-.2-.4-.4-.6-.7m.6.7l16.9-9.8c.2.2.4.5.6.7l-16.9 9.8c-.2-.2-.4-.4-.6-.7m.6.7l16.9-9.8c.2.2.4.5.6.8l-16.9 9.8c-.2-.3-.4-.5-.6-.8m.6.8l16.9-9.8c.2.3.5.6.7.9l-16.9 9.8c-.2-.3-.5-.6-.7-.9"/><path class="st2" d="M602.3 237.8l16.9-9.8c.3.5.7.9 1 1.4l-16.9 9.8c-.3-.4-.7-.9-1-1.4"/><path class="st2" d="M603.3 239.2l16.9-9.8c.4.6.8 1.2 1.2 1.9l-16.9 9.8c-.4-.6-.8-1.2-1.2-1.9"/><path class="st2" d="M604.5 241.1l16.9-9.8c.3.5.5.9.8 1.4l-16.9 9.8c-.3-.5-.6-.9-.8-1.4"/><path class="st2" d="M605.3 242.5l16.9-9.8c.2.3.3.6.5.9l-16.9 9.8c-.2-.3-.4-.6-.5-.9m.4 1l16.9-9.8c.1.3.3.6.4.8l-16.9 9.8c-.1-.3-.2-.6-.4-.8m.5.8l16.9-9.8c.1.3.2.5.3.8l-16.9 9.8c-.1-.3-.2-.6-.3-.8m.3.8l16.9-9.8c.1.3.2.5.3.8l-16.9 9.8c-.1-.3-.2-.6-.3-.8"/><path class="st2" d="M606.8 245.8l16.9-9.8c.1.3.2.5.3.8l-16.9 9.8c-.1-.3-.2-.5-.3-.8m.3.8l16.9-9.8c.1.3.2.5.3.8l-16.9 9.8c-.1-.3-.2-.6-.3-.8m.3.8l16.9-9.8c.1.3.2.5.3.8l-16.9 9.8c-.1-.3-.2-.6-.3-.8m.3.8l16.9-9.8c.1.3.2.5.3.8L608 249c-.1-.3-.2-.6-.3-.8m.3.8l16.9-9.8c.1.3.2.6.2.8l-16.9 9.8c-.1-.3-.1-.5-.2-.8m.2.8l16.9-9.8c.1.3.2.6.2.8l-16.9 9.8c0-.2-.1-.5-.2-.8m.2.9l16.9-9.8c.1.3.1.6.2.8l-16.9 9.8c0-.3-.1-.6-.2-.8m.2.8l16.9-9.8c.1.3.1.6.2.8l-16.9 9.8c-.1-.3-.1-.5-.2-.8"/><path class="st2" d="M608.8 252.3l16.9-9.8c.1.3.1.5.1.8l-16.9 9.8c0-.3-.1-.5-.1-.8"/><path class="st2" d="M608.9 253.1l16.9-9.8c0 .3.1.5.1.8l-16.9 9.8c0-.3 0-.5-.1-.8m.1.8l16.9-9.8c0 .3.1.5.1.8l-16.9 9.8c0-.3 0-.5-.1-.8"/><path class="st2" d="M609.1 254.7l16.9-9.8c0 .3 0 .5.1.8l-16.9 9.8c0-.3 0-.6-.1-.8"/><path class="st2" d="M609.2 255.4l16.9-9.8v.8l-16.9 9.8v-.8"/><path class="st2" d="M609.2 256.2l16.9-9.8v.7l-16.9 9.8v-.7"/></g><path class="st5" d="M593.5 229.6c8.7 5 15.8 17.3 15.8 27.3L608 688c0 10-7.1 14.1-15.9 9l-196-113.1c-8.7-5-15.8-17.3-15.8-27.3l1.2-431.1c0-10 7.1-14.1 15.9-9l196.1 113.1z"/></g><path class="st6" d="M590.2 266.4l-1 357.1L397.7 513l1-357.2z"/><path class="st7" d="M576.1 312.7l.1-34.1-163.6-94.4-.1 34z"/><g class="st0"><path class="st2" d="M560.6 521.7l9.9-5.7.1-44.4-9.8 5.7z"/><path class="st8" d="M560.8 477.3l9.8-5.7-38.7-22.3-9.8 5.7z"/><path class="st9" d="M522.1 455l-.1 44.4 38.6 22.3.2-44.4z"/></g><path class="st10" d="M548.3 488.9c0 6.2-7.6 15.3-8 15.8-.4-.9-7.9-18.8-7.9-25 0-6.2 3.6-8.2 8-5.7 4.4 2.6 7.9 8.7 7.9 14.9zm-8-.4c2.2 1.3 4 .3 4.1-2.3 0-2.6-1.8-5.7-4-7-2.2-1.3-4-.3-4.1 2.3 0 2.6 1.8 5.8 4 7"/><g class="st0"><path class="st11" d="M560.6 458.7l9.9-5.7.1-44.4-9.8 5.7z"/><path class="st12" d="M560.8 414.3l9.8-5.7-38.7-22.3-9.8 5.7z"/><path class="st13" d="M522.1 392l-.1 44.4 38.6 22.3.2-44.4z"/></g><path class="st10" d="M548.3 425.9c0 6.2-7.6 15.3-8 15.8-.4-.9-7.9-18.8-7.9-25 0-6.2 3.6-8.2 8-5.7 4.4 2.6 7.9 8.7 7.9 14.9zm-8-.4c2.2 1.3 4 .3 4.1-2.3 0-2.6-1.8-5.7-4-7-2.2-1.3-4-.3-4.1 2.3 0 2.6 1.8 5.7 4 7"/><path class="st8" d="M532.1 210.2c1.7 1 3.1 3.4 3.1 5.3 0 2-1.4 2.7-3.1 1.8l-66.5-38.4c-1.7-1-3.1-3.4-3.1-5.3 0-2 1.4-2.8 3.1-1.8l66.5 38.4z"/><g class="st0"><path class="st14" d="M571.5 333.3l-.1 48.9-42.5-24.6.1-48.9z"/></g><g class="st0"><path class="st2" d="M481.6 366.7l4.6-2.7-.4 155.2-4.7 2.7z"/><path class="st8" d="M284.4 252.8l4.6-2.7L486.2 364l-4.6 2.7z"/><path class="st9" d="M481.6 366.7l-.5 155.2L283.9 408l.5-155.2z"/></g><g class="st0"><path class="st15" d="M495.5 486.6l3.2-1.8-.1 31.5-3.2 1.9z"/><path class="st16" d="M273.7 358.6l3.2-1.9 221.8 128.1-3.2 1.8z"/><path class="st17" d="M495.5 486.6l-.1 31.6-221.8-128.1.1-31.5z"/></g><path class="st10" d="M378.3 351l18.8 21.4-18.8-.3z"/><path class="st10" d="M384.8 335.4c14.3 8.3 25.9 28.4 25.9 44.8 0 16.5-11.7 23.1-26.1 14.9-14.3-8.3-25.9-28.4-25.9-44.8.1-16.5 11.8-23.1 26.1-14.9zm-.2 57.1c13.1 7.5 23.7 1.5 23.8-13.6 0-15-10.6-33.4-23.6-40.9-13.1-7.6-23.7-1.5-23.8 13.6-.1 15 10.5 33.4 23.6 40.9m-95.5-18.3l11.7 14-11.8.5zm165 98.1l25.6 14.8v11.7L454.1 484v-11.7zm23.5 23.4v-8l-15.8-9.1v8l15.8 9.1M313.1 390v14.6l-2.7-1.6v-14.5zm7.3 4.2v14.6l-2.8-1.6.1-14.5zm99.2 61.6v6.2l-3.8-2.2v-6.1z"/><path class="st10" d="M424.7 453v17.2l-5.1-8.2v-6.2zm10.7 4.6c4.4 7.7 4.4 16-.1 18.5l-.8-1.4c4-2.3 4-9.7 0-16.6l.9-.5z"/><path class="st10" d="M433.3 458.8c1.6 2.8 2.5 5.7 2.5 8.4 0 2.6-.9 4.6-2.5 5.5l-.8-1.4c1.4-.8 2.2-2.5 2.2-4.7 0-2.3-.8-4.8-2.1-7.2l.7-.6z"/><path class="st10" d="M431.1 460c2.1 3.7 2.1 7.7 0 8.9l-.8-1.4c1.7-1 1.7-4.1 0-7l.8-.5z"/><g class="st0"><path class="st18" d="M450.7 272l9.2-5.4-.1 48.9-9.3 5.4z"/><path class="st19" d="M408.1 247.4l9.3-5.4 42.5 24.6-9.2 5.4z"/><path class="st20" d="M450.7 272l-.2 48.9-42.5-24.6.1-48.9z"/></g><path class="st10" d="M443.6 281.6s-.4-.1-.9-.1c-.5-.1-1.2-.1-1.9-.1-.3-.7-.7-1.3-1.1-2-.4-.7-.9-1.3-1.3-1.9.3-.5.6-1.1.8-1.5.2-.4.4-.7.4-.7.1-.1.1-.3 0-.5s-.2-.4-.4-.6l-.2-.2c-.1-.1-.3-.2-.4-.4-.2-.2-.4-.3-.6-.5-.2-.2-.5-.4-.7-.6-.3-.2-.5-.4-.8-.5-.2-.2-.5-.3-.7-.4-.2-.1-.4-.2-.5-.3-.1 0-.1-.1-.1-.1-.2-.1-.5-.2-.7-.2-.2 0-.3.1-.4.2 0 0-.2.3-.5.6-.3.4-.6.9-.9 1.4-1.3-.6-2.7-1-4.1-1.1-.3-.7-.5-1.4-.8-1.9-.2-.5-.4-.9-.4-.9-.1-.2-.2-.3-.4-.4-.1-.1-.2-.1-.3-.1h-1c-.2 0-.4 0-.7.1-.1 0-.3 0-.4.1-.1 0-.3.1-.4.1-.5.1-1 .3-1.4.4-.2.1-.3.1-.4.2-.1 0-.2.1-.2.1-.2.1-.4.2-.4.4-.1.2-.1.3 0 .5 0 0 .1.4.3.9.2.5.4 1.2.7 1.9-1.1.6-2 1.5-2.7 2.5-.7-.3-1.3-.6-1.8-.9-.5-.2-.9-.4-.9-.4-.2-.1-.3-.1-.5 0-.1 0-.2.1-.2.2-.1.1-.1.2-.2.3 0 0 0 .1-.1.2s-.1.3-.2.4c0 .1-.1.2-.1.3 0 .1-.1.2-.1.3 0 .1-.1.2-.1.4 0 .1-.1.3-.1.4-.1.3-.1.5-.2.8-.1.2-.1.5-.1.7 0 .2-.1.4-.1.5v.2c-.1.5.2 1 .5 1.1 0 0 .3.2.8.5.3.1.5.3.9.5.3.2.6.3.9.5 0 1.4.3 2.8.7 4.2-.3.1-.5.3-.8.4-.3.1-.5.3-.7.4-.4.2-.7.4-.7.4-.1.1-.2.2-.3.4 0 .2 0 .4.1.7 0 0 .1.3.3.7.1.2.2.5.4.7.1.3.3.5.5.8.2.3.3.5.5.8.2.2.3.5.5.7.3.4.5.6.5.6.2.2.4.4.6.5.2.1.4.1.5 0 0 0 .3-.1.8-.3.2-.1.5-.2.8-.3.3-.1.5-.3.8-.4 1.1 1.1 2.3 2 3.6 2.7v2.8c0 .3.3.7.8 1 0 0 .1 0 .2.1.1 0 .3.1.5.2s.5.2.7.3c.3.1.6.2.8.3.1 0 .3.1.4.1.1 0 .3.1.4.1.1 0 .3.1.4.1.1 0 .2 0 .3.1.2 0 .4.1.5.1h.5c.1 0 .2-.1.3-.1.2-.1.2-.2.2-.4 0 0 .1-.3.1-.9.1-.5.1-1.2.1-1.8 1.3 0 2.6-.3 3.7-.8.5.6 1 1.1 1.4 1.5l.7.7c.1.1.3.2.5.3.2 0 .4 0 .6-.1 0 0 .1 0 .1-.1.1-.1.2-.1.4-.3.3-.2.7-.5 1.1-.9l.3-.3.3-.3c.2-.2.3-.3.4-.5.1-.1.2-.3.3-.4l.1-.1c.1-.1.1-.2.1-.3v-.3c0-.2-.1-.4-.2-.5 0 0-.2-.3-.6-.8-.4-.4-.9-1-1.4-1.6.6-1.1.9-2.4 1.1-3.7.7 0 1.3.1 1.8 0h.9c.2 0 .3-.1.4-.2.1-.1.2-.4.2-.6v-.7c0-.2 0-.5-.1-.8 0-.3-.1-.6-.1-.9-.1-.3-.1-.6-.2-.9-.1-.3-.1-.5-.2-.8-.1-.2-.1-.4-.2-.5 0-.1-.1-.2-.1-.2-.1-.2-.2-.5-.4-.6.2-.6 0-.7-.1-.7zm-8.8 10.4c-3.6 1.8-8.8-.1-11.4-4.4-2.7-4.3-1.9-9.2 1.8-11 3.6-1.8 8.8.1 11.4 4.4 2.7 4.2 1.9 9.2-1.8 11z"/><g class="st0"><path class="st21" d="M509.7 305.4l9.3-5.4-.2 48.8-9.2 5.4z"/><path class="st22" d="M467.2 280.8l9.2-5.4L519 300l-9.3 5.4z"/><path class="st23" d="M509.7 305.4l-.1 48.8-42.6-24.5.2-48.9z"/></g><path class="st10" d="M476.5 309.4c0 2.4.4 4.9 1.3 7.5 2.4 6.5 7.7 14 7.7 14s-3.4-10.1 1.1-6.8c.8.6 1.7.9 2.6 1.2 7 2.7 12.7-.1 12.8-6.2 0-6.1-5.7-13.3-12.7-16-7.1-2.6-12.8.2-12.8 6.3zm16.5 7.3c0-1.1.9-1.6 1.9-1.2 1.1.4 1.9 1.6 1.9 2.7s-.9 1.6-1.9 1.2c-1.1-.4-1.9-1.6-1.9-2.7zm-5.7-2.2c0-1.1.9-1.6 1.9-1.2 1.1.4 1.9 1.6 1.9 2.7s-.9 1.6-1.9 1.2c-1-.4-1.9-1.6-1.9-2.7zm-5.6-2.1c0-1.1.9-1.6 1.9-1.2 1.1.4 1.9 1.6 1.9 2.7s-.9 1.6-1.9 1.2c-1-.5-1.9-1.7-1.9-2.7zm38.9-57.6v17.9l-2-1.1.1-15.5-3.5-.8.1-1.6h3.4zm8.9 4.8c3.1 1.8 4.4 5.2 4.4 7.8 0 4.6-5.7 6.3-7.2 6.6l7.1 4.1v2.2l-10.7-6.2v-2c2.2-.5 8.8-2.1 8.8-5.9 0-1.7-.8-3.5-2.7-4.6L523 258v-1.7c2.1 1 4 1.9 6.5 3.3zm8.9 10.3c.4.2.5.5.5.9v1.6c0 .4-.2.4-.5.3l-1.3-.8c-.3-.2-.5-.5-.5-.9v-1.6c0-.4.2-.5.5-.3l1.3.8zm0 10.3c.4.2.5.5.5.9v1.6c0 .4-.2.4-.5.3l-1.3-.8c-.3-.2-.5-.5-.5-.9v-1.6c0-.4.2-.5.5-.3l1.3.8zm8-10.6c.5.3 1.1.6 1.6 1 2.3 1.4 3.7 3.9 3.7 6.3v1.6c0 1.8-.6 2.6-1.5 2.5.9 1.2 1.5 2.5 1.5 4.4v1.3c0 2.7-1.3 3.5-3.9 2-.4-.2-.8-.4-1.2-.7-2-1.1-3.8-2.2-5.4-3.8v-1.5l6.1 3.5c1.2.7 2.3 1.1 2.3-.8v-1.3c0-1.8-1-2.9-2.1-3.6l-4.9-3v-1.8l4.9 2.6c1.5.8 2.2.5 2.2-1v-1.5c0-1.5-1.1-2.7-2.2-3.3l-6.4-3.7v-1.5c1.6.2 3.4 1.2 5.3 2.3zm15.4 9c2.7 1.5 3.6 4 3.6 6.2v9.8c0 2.9-1.5 3.2-3.6 2l-3.5-2c-2.1-1.2-3.7-3.3-3.7-6.2v-9.7c0-2.7 1.6-3.2 3.7-2l3.5 1.9zm1.6 14.6v-9.5c0-1.1-.4-2.3-1.8-3.1l-3.2-1.8c-1.4-.8-1.9-.1-1.9.9v9.5c0 1.6 1 2.6 2 3.2l3.1 1.8c1.2.7 1.8.3 1.8-1"/><g class="st0"><path class="st18" d="M699.4 407.1l5-2.9-.2 55.1-4.9 2.9z"/><path class="st19" d="M528.2 308.2l4.9-2.9 171.3 98.9-5 2.9z"/><path class="st20" d="M699.4 407.1l-.1 55.1L528 363.3l.2-55.1z"/></g><path class="st10" d="M635.1 383.4v5.6c0 4.4-1.8 3.4-3.2 2.6-.1 0-.2-.1-.2-.1-1.5-.9-3-1.8-3-6.2v-5.6l1.1.6v5.6c0 3.2.8 3.7 2.2 4.5 1.2.7 2.1 1.1 2.1-2v-5.6l1 .6zm3.8 2.1c.8.5 2.5 1.7 3 2.1v1c-.8-.5-2.8-1.8-3-1.8-.1 0-.2-.1-.2-.1-.7-.4-1.2-.5-1.2.6v.8c0 1.1.4 1.5 1.1 1.9l1.6.9c1.6.9 1.9 2.4 1.9 3.5v.9c0 2-1.2 1.7-2.4 1-.8-.5-2.4-1.6-3.1-2.1v-1c.5.3 1.9 1.2 3 1.9.5.3 1.4.8 1.4-.3v-.8c0-.7-.2-1.3-.9-1.8l-1.6-.9c-2-1.1-2.1-2.6-2.1-3.7v-.9c.1-2.1 1.1-2 2.5-1.2 0-.1 0-.1 0 0zm6.2 3.6s.1.1 0 0c.3.2 3.7 2.3 3.9 2.4v1l-3.7-2.1c-.6-.4-.6 0-.6.4v2.4l3.8 2.3v1l-3.8-2.1v2.4c0 .7.4.9.7 1.1l3.5 2v1c-.2-.1-3.5-1.8-3.7-1.9-.1 0-.1-.1-.2-.1-.7-.4-1.5-1.2-1.5-2.7v-6.4c.1-1.1.8-1.1 1.6-.7zm9.4 11.4l1.8 5.1-1.2-.7-1.7-5-2.1-1.4v4.2l-1.1-.6v-10l3.7 2.2c1.2.7 2.1 1.9 2.1 4.2 0 2.5-1.1 2.1-1.5 2zm-3.3-3.1l2.6 1.5c.6.3 1 .6 1-1.1 0-1.6-.5-2.1-1-2.4l-2.6-1.5v3.5m12.7 2.6v10l-1.1-.6-4.3-10.2v7.7l-1.1-.7v-10l1.1.7 4.3 10.1v-7.6zm5.5 3.1l3 11.7-1.2-.7-.7-3-3.3-1.9-.7 2.2-1.3-.7 3.2-8.2 1 .6zm-2 5.1l2.6 1.5-1.3-5.1-1.3 3.6m13.6 1.6l.7 10.4-1.1-.6-.6-8.1-2 6.6-1.1-.6-2.1-9-.5 7.5-1.1-.6.7-9.7 1.5.9 2 9.1 2.1-6.7zm3.4 2c.1 0 .1.1 0 0 .3.2 3.7 2.3 3.9 2.4v1l-3.7-2.1c-.6-.4-.6 0-.6.4v2.4l3.8 2.3v1l-3.8-2.1v2.4c0 .7.4.9.7 1.1l3.5 2v1c-.2-.1-3.5-1.8-3.7-1.9-.1 0-.1-.1-.2-.1-.7-.4-1.5-1.2-1.5-2.7v-6.4c.1-1.1.9-1.1 1.6-.7zm-52.1-8.8c1 .6 2.2 1.7 2.2 4.2 0 2.8-1.2 2.4-2.1 1.9h-.1c-.5-.3-2.5-1.7-2.5-1.7v4.2l-1.1-.6v-10l3.6 2zm-.1 4.8c.6.3 1.1.4 1.1-1.2s-.7-2.1-1.1-2.4l-2.5-1.4v3.6l2.5 1.4m6.5-1.1l3 11.7-1.2-.7-.7-3-3.3-1.9-.7 2.2-1.3-.7 3.2-8.2 1 .6zm-2 5l2.6 1.5-1.3-5.1-1.3 3.6m7.9-1.7c.8.5 2.5 1.7 3 2.1v1c-.8-.5-2.8-1.8-3-1.8-.1-.1-.2-.1-.2-.1-.7-.4-1.1-.5-1.1.6v.8c0 1.1.4 1.5 1.1 1.9l1.6.9c1.6.9 1.9 2.4 1.9 3.5v.9c0 2-1.2 1.7-2.4 1-.8-.5-2.4-1.6-3.1-2.1v-1c.5.3 1.9 1.2 3 1.9.5.3 1.4.8 1.4-.3v-.8c0-.7-.2-1.3-.9-1.8l-1.6-.9c-2-1.1-2.1-2.6-2.1-3.7v-.9c0-2.1 1-2 2.4-1.2zm6.8 3.9c.8.5 2.5 1.7 3 2.1v1c-.8-.5-2.8-1.8-3-1.8-.1-.1-.2-.1-.2-.1-.7-.4-1.1-.5-1.1.6v.8c0 1.1.4 1.5 1.1 1.9l1.6.9c1.6.9 1.9 2.4 1.9 3.5v.9c0 2-1.2 1.7-2.4 1-.8-.5-2.4-1.6-3.1-2.1v-1c.5.3 1.9 1.2 3 1.9.5.3 1.4.8 1.4-.3v-.8c0-.7-.2-1.3-.9-1.8l-1.6-.9c-2-1.1-2.1-2.6-2.1-3.7v-.9c0-2.1 1-2 2.4-1.2zm15.2 8.9l-2.7 8.5-1.1-.7-1.5-5.7-1.4 4.1-1.1-.7-3-11.7 1.2.7 2.4 9.3 2-6.8 1.2.7-.8 2.6 1.5 5.9 2.1-6.9zm4 2.2c2.1 1.2 3.4 2.4 3.4 7.1 0 4.4-1.3 4.3-3.4 3-2.1-1.2-3.4-2.4-3.4-6.9 0-4.7 1.4-4.3 3.4-3.2zm-.1 8.9c1.7 1 2.3.8 2.3-2.4 0-3.8-.8-4.4-2.3-5.2-1.5-.9-2.3-1.3-2.3 2.6 0 3.2.6 4 2.3 5m9 2.3l1.8 5.1-1.2-.7-1.7-5-2.1-1.4v4.2l-1.1-.6v-10l3.7 2.2c1.2.7 2.1 2 2.1 4.2-.1 2.5-1.2 2.1-1.5 2zm-3.3-3.1l2.6 1.5c.6.3 1 .5 1-1.1s-.5-2.1-1-2.4l-2.6-1.5v3.5m9.6.8c2.6 1.5 3.1 4.6 3.1 6.8 0 2.5-.8 4.5-3.1 3.2l-3.4-1.9v-10l3.4 1.9zm-.1 8.7c1.4.8 2-.5 2-2.6 0-2.9-.7-4.3-2-5l-2.2-1.3v7.6l2.2 1.3M612.6 367c1.7 1 3.1 3.4 3.1 5.4 0 2-1.4 2.8-3.2 1.8-1.7-1-3.1-3.4-3.1-5.4 0-2 1.4-2.8 3.2-1.8z"/><path class="st10" d="M615.5 375.3c1.4.8 2.6 2.8 2.6 4.5v4.4l-1.9-1.1v-2.4c0-.2-.1-.4-.3-.5-.2-.1-.3 0-.3.2v2.4l-6.1-3.5v-2.4c0-.2-.1-.4-.3-.5-.2-.1-.3 0-.3.2v2.4l-1.9-1.1v-4.4c0-1.6 1.2-2.3 2.6-1.5h.1c.7 1.3 1.7 2.5 2.9 3.2 1.1.6 2.1.6 2.9.1z"/><g class="st0"><path class="st10" d="M616.1 393.3l1.8 1v9.5l-10.7-6.2v-9.5l1.8 1 1.4.8 4.3 2.5 1.4.9zm-3.6 6c.8.4 1.4.1 1.4-.8 0-.7-.4-1.5-.9-2.1v-2.8l-.9-.5v2.8c-.5-.1-.9.3-.9 1-.1.9.5 2 1.3 2.4"/><path class="st10" d="M612.5 387.2c1.9 1.1 3.5 3.9 3.5 6.1l-1.4-.8c0-1.3-.9-3-2.1-3.7-1.2-.7-2.1-.1-2.1 1.2l-1.4-.8c0-2.2 1.6-3.1 3.5-2z"/></g><path class="st19" d="M599.7 360.4L537 324.2l-.1 32.6 62.8 36.2z"/><path class="st10" d="M544.3 336.2V350c0 1.2.6 1.6 1.2 1.9h.1l5.9 3.4v2.1l-6.2-3.6c-1.4-.8-2.8-2-2.8-4.7v-14l1.8 1.1zm14.2 8.1c3.5 2 5.8 4.1 5.7 12.1 0 7.5-2.2 7.3-5.8 5.2-3.6-2.1-5.8-4.1-5.8-11.8.1-8.1 2.5-7.5 5.9-5.5zm0 15.2c2.9 1.7 3.9 1.3 3.9-4.2 0-6.5-1.3-7.4-3.9-8.9-2.6-1.5-3.9-2.1-4 4.4 0 5.6 1 6.9 4 8.7m12-8.4c1.4.8 3.7 2.4 5.3 3.7v1.7c-.1-.1-3-2.1-5.1-3.3-2.6-1.5-3.1.3-3.1 4.8 0 5 .7 7 3.1 8.4 1.5.9 3.4 1 3.5 1v-4.2l-3-1.8V360c.8.2 1.9.5 3.5 1.5.4.2.9.5 1.4.9v9.2l-1.4-.8-.4-1.4c-.7.1-1.9.1-3.7-.9l-.1-.1c-4.1-2.3-4.7-6.6-4.7-11.4 0-4.7.7-8.2 4.7-5.9zm10 6v17l-1.9-1 .1-17.1zm13.8 7.9l-.1 17.1-1.8-1.1-7.4-17.3v13l-1.9-1 .1-17.1 1.9 1.1 7.3 17.3v-13z"/><g class="st0"><g class="st0"><defs><path id="SVGID_7_" class="st0" d="M466.5 577.2l4.1-2.4c3.1-1.8 7.4-1.5 12.1 1.2l-4.1 2.4c-4.8-2.7-9-3-12.1-1.2z"/></defs><use xlink:href="#SVGID_7_" overflow="visible" fill="#95a2ac"/><clipPath id="SVGID_8_"><use xlink:href="#SVGID_7_" overflow="visible"/></clipPath><g class="st24"><path class="st25" d="M466.5 577.2l4.1-2.4c.4-.3.9-.5 1.4-.6l-4.1 2.4c-.5.1-1 .3-1.4.6"/><path class="st25" d="M467.8 576.6l4.1-2.4 1.2-.3-4.1 2.4c-.4 0-.8.1-1.2.3"/><path class="st25" d="M469 576.2l4.1-2.4c.3-.1.6-.1 1-.1l-4.1 2.4c-.3 0-.6.1-1 .1"/><path class="st25" d="M470 576.1l4.1-2.4h.9l-4.1 2.4c-.3-.1-.6 0-.9 0"/><path class="st25" d="M470.9 576l4.1-2.4h.8l-4.1 2.4c-.3.1-.5 0-.8 0m.8.1l4.1-2.4c.2 0 .5 0 .8.1l-4.1 2.4c-.3-.1-.6-.1-.8-.1"/><path class="st25" d="M472.5 576.2l4.1-2.4c.2 0 .5.1.7.1l-4.1 2.4c-.3-.1-.5-.1-.7-.1"/><path class="st25" d="M473.2 576.3l4.1-2.4c.2 0 .5.1.7.2l-4.1 2.4c-.2-.1-.5-.2-.7-.2"/><path class="st25" d="M473.9 576.4l4.1-2.4c.2.1.5.1.7.2l-4.1 2.4c-.2 0-.5-.1-.7-.2m.7.2l4.1-2.4c.2.1.5.1.7.2l-4.1 2.4c-.2 0-.5-.1-.7-.2"/><path class="st25" d="M475.3 576.8l4.1-2.4c.2.1.5.2.7.3l-4.1 2.4c-.3-.1-.5-.2-.7-.3m.7.3l4.1-2.4c.2.1.5.2.7.3l-4.1 2.4c-.3-.1-.5-.2-.7-.3"/><path class="st25" d="M476.6 577.4l4.1-2.4c.2.1.5.2.7.3l-4.1 2.4c-.2-.1-.4-.2-.7-.3m.7.3l4.1-2.4c.2.1.5.2.7.4l-4.1 2.4c-.2-.1-.4-.3-.7-.4m.7.4l4.1-2.4c.2.1.4.2.5.3l-4.1 2.4c-.1-.1-.3-.2-.5-.3"/></g></g><g class="st0"><defs><path id="SVGID_9_" class="st0" d="M494.7 616.3l-4.1 2.4c3.1-1.8 5-5.6 5-10.9 0-10.8-7.6-24-17-29.4l4.1-2.4c9.4 5.4 17 18.6 17 29.4-.1 5.4-2 9.1-5 10.9z"/></defs><use xlink:href="#SVGID_9_" overflow="visible" fill="#95a2ac"/><clipPath id="SVGID_10_"><use xlink:href="#SVGID_9_" overflow="visible"/></clipPath><g class="st26"><path class="st25" d="M478.6 578.4l4.1-2.4c.1 0 .1.1.2.1l-4.1 2.4c-.1-.1-.2-.1-.2-.1"/><path class="st25" d="M478.7 578.5l4.1-2.4c.2.1.5.3.7.4l-4.1 2.4c-.2-.1-.4-.3-.7-.4m.8.4l4.1-2.4c.2.2.5.3.7.5l-4.1 2.4c-.3-.2-.5-.3-.7-.5"/><path class="st25" d="M480.2 579.4l4.1-2.4c.2.2.5.3.7.5l-4.1 2.4c-.2-.2-.5-.3-.7-.5"/><path class="st25" d="M480.9 579.9l4.1-2.4c.3.2.5.4.7.6l-4.1 2.4c-.2-.2-.4-.4-.7-.6m.8.6l4.1-2.4c.3.2.5.4.8.6l-4.1 2.4c-.3-.2-.6-.4-.8-.6"/><path class="st25" d="M482.4 581.1l4.1-2.4c.3.2.5.4.8.7l-4.1 2.4c-.3-.3-.5-.5-.8-.7"/><path class="st25" d="M483.2 581.8l4.1-2.4c.3.2.5.5.7.7l-4.1 2.4c-.2-.3-.5-.5-.7-.7"/><path class="st25" d="M483.9 582.5l4.1-2.4.7.7-4.1 2.4c-.2-.3-.4-.5-.7-.7m.8.7l4.1-2.4.7.7-4.1 2.4c-.3-.2-.5-.5-.7-.7"/><path class="st25" d="M485.4 583.9l4.1-2.4c.2.2.4.5.7.7l-4.1 2.4c-.3-.2-.5-.4-.7-.7"/><path class="st25" d="M486 584.6l4.1-2.4c.2.3.4.5.7.8l-4.1 2.4c-.2-.2-.5-.5-.7-.8"/><path class="st25" d="M486.7 585.4l4.1-2.4c.2.3.4.5.7.8l-4.1 2.4c-.3-.2-.5-.5-.7-.8"/><path class="st25" d="M487.3 586.2l4.1-2.4c.3.3.5.7.8 1l-4.1 2.4c-.3-.3-.5-.6-.8-1"/><path class="st25" d="M488.1 587.2l4.1-2.4c.4.5.7 1 1.1 1.5l-4.1 2.4c-.4-.5-.7-1-1.1-1.5m1.1 1.6l4.1-2.4c.4.7.9 1.3 1.3 2l-4.1 2.4c-.5-.7-.9-1.4-1.3-2"/><path class="st25" d="M490.4 590.8l4.1-2.4c.3.5.6 1 .8 1.5l-4.1 2.4c-.2-.5-.5-1-.8-1.5m.9 1.5l4.1-2.4c.2.3.4.7.5 1l-4.1 2.4c-.2-.4-.4-.7-.5-1m.5 1l4.1-2.4c.1.3.3.6.4.9l-4.1 2.4c-.1-.3-.3-.6-.4-.9m.4.9l4.1-2.4c.1.3.3.5.4.8l-4.1 2.4c-.1-.3-.2-.5-.4-.8m.4.8l4.1-2.4c.1.3.2.5.3.8l-4.1 2.4c-.1-.3-.2-.5-.3-.8m.4.8l4.1-2.4c.1.3.2.6.3.8l-4.1 2.4c-.1-.2-.2-.5-.3-.8m.3.8l4.1-2.4c.1.3.2.6.3.8l-4.1 2.4c-.1-.2-.2-.5-.3-.8m.3.9l4.1-2.4.3.9-4.1 2.4-.3-.9"/><path class="st25" d="M493.9 598.3l4.1-2.4.3.9-4.1 2.4-.3-.9m.3.9l4.1-2.4.3.9-4.1 2.4-.3-.9"/><path class="st25" d="M494.4 600.1l4.1-2.4c.1.3.2.6.2.9l-4.1 2.4c0-.3-.1-.6-.2-.9m.3.9l4.1-2.4c.1.3.1.6.2.9l-4.1 2.4c-.1-.3-.1-.6-.2-.9m.2.9l4.1-2.4c.1.3.1.6.2.9l-4.1 2.4c-.1-.3-.1-.6-.2-.9m.2.9l4.1-2.4c.1.3.1.6.1.9l-4.1 2.4c0-.3-.1-.6-.1-.9m.1.9l4.1-2.4c0 .3.1.6.1.9l-4.1 2.4c0-.4 0-.6-.1-.9"/><path class="st25" d="M495.3 604.5l4.1-2.4c0 .3.1.6.1.8l-4.1 2.4c0-.2 0-.5-.1-.8m.1.9l4.1-2.4c0 .3 0 .6.1.8l-4.1 2.4c0-.3 0-.6-.1-.8m.1.8l4.1-2.4v.8l-4.1 2.4v-.8m0 .8l4.1-2.4v.8l-4.1 2.4v-.8m0 .8l4.1-2.4v.8l-4.1 2.4v-.8m0 .8l4.1-2.4v.8l-4.1 2.4v-.8m0 .8l4.1-2.4c0 .3-.1.6-.1.8l-4.1 2.4c0-.2.1-.5.1-.8m-.1.9l4.1-2.4c0 .3-.1.5-.1.8l-4.1 2.4c0-.3.1-.6.1-.8m-.1.8l4.1-2.4c0 .3-.1.6-.2.8l-4.1 2.4c.1-.3.1-.5.2-.8m-.2.8l4.1-2.4c-.1.3-.1.6-.2.9l-4.1 2.4c.1-.3.1-.6.2-.9m-.2.9l4.1-2.4-.3.9-4.1 2.4.3-.9m-.3.9l4.1-2.4c-.1.3-.3.7-.4 1l-4.1 2.4c.1-.4.3-.7.4-1"/><path class="st25" d="M494.2 614.6l4.1-2.4-.6 1.2-4.1 2.4c.2-.4.4-.7.6-1.2"/><path class="st25" d="M493.5 615.8l4.1-2.4c-.8 1.2-1.8 2.2-2.9 2.9l-4.1 2.4c1.1-.7 2.1-1.7 2.9-2.9"/></g></g><path class="st8" d="M478.6 578.4c9.4 5.4 17 18.6 17 29.4 0 10.8-7.7 15.2-17.1 9.7-9.4-5.4-17-18.6-17-29.4 0-10.8 7.7-15.1 17.1-9.7z"/></g></svg>