<svg id="Capa_1" xmlns="http://www.w3.org/2000/svg" viewBox="0 0 395 347.3"><style>.st0{fill:#54a9bf}.st1{fill:#e3e2e1}.st2{fill:#fefefe}</style><path class="st0" d="M78.4 310.9l3.2-5c.2-.3.3-.7.2-1-.1-.4-.3-.7-.6-.9l-.7-.4 3-4.6 7.4-1.6c.6-.1 1-.6 1.1-1.2l2.3-25.1c0-.5-.2-1-.6-1.3-.4-.3-1-.3-1.4 0l-21.9 12.4c-.5.3-.8.9-.7 1.5l1.6 7.4-3 4.6-.7-.4c-.3-.2-.7-.3-1-.2-.4.1-.7.3-.9.6l-3.2 5c-.2.3-.3.7-.2 1 .1.3.3.7.6.9l13.5 8.7c.8.4 1.6.2 2-.4zm-4.2-19.8l-1.5-7 16.2-9.1-6.1 9.4c-.7-.2-1.4-.2-2.1-.1-1.2.3-2.2.9-2.8 2-.7 1-.9 2.3-.6 3.4.2 1.1.9 2.2 2 2.8 2.1 1.4 4.9.8 6.2-1.3 1.1-1.7.9-3.8-.3-5.3l6.1-9.4-1.7 18.5-7 1.5c-.4.1-.7.3-.9.6l-3.3 5.1-7.6-4.9 3.3-5.1c.1-.4.2-.8.1-1.1zm9.2-2.8c.1.4 0 .9-.2 1.3-.5.8-1.6 1.1-2.5.5-.8-.5-1.1-1.6-.5-2.5.5-.8 1.6-1.1 2.5-.5.3.4.6.8.7 1.2zM65.7 301l1.7-2.7 11.2 7.2-1.7 2.7-11.2-7.2zm0 0" id="cursor"/><g id="lgo"><path class="st1" d="M206.4 76.9h.2c6.1 0 11.9-2.5 16.2-6.8 4.3-4.4 6.7-10.1 6.6-16.3C229.3 41.2 219 31 206.3 31c-6.1 0-11.9 2.5-16.2 6.8-4.3 4.4-6.7 10.1-6.6 16.3.1 12.6 10.4 22.8 22.9 22.8zm-11.8-34.6c3.1-3.2 7.3-4.9 11.8-4.9 9.1 0 16.5 7.4 16.6 16.5 0 4.4-1.7 8.6-4.8 11.8-3.1 3.2-7.3 4.9-11.7 4.9l-.1 3.2v-3.2c-9.1 0-16.5-7.4-16.6-16.5 0-4.5 1.7-8.7 4.8-11.8zm1.1 80.8c33.4 14.8 45 38.8 48.9 56.3 5.9 26.3-1.8 56.5-19.5 77l4.8 4.2c19-21.9 27.2-54.3 20.9-82.5-4.2-18.9-16.8-44.8-52.6-60.7-60.2-26.8-56.2-72.6-56-74.5l-6.3-.7c-.1.5-1.4 13.4 5.4 29.9 6.3 15 20.7 36.1 54.4 51zm29.6-10.9l2.7 5.8c.6-.3 57.9-27.8 45.3-77.1l-6.2 1.6c11.3 44.2-41.3 69.5-41.8 69.7zM100.7 257c-27.3-24.6-41-65.5-40.7-121.7 7.2 8.2 18.5 16.4 21.7 18 10.5 5.4 21.9 5.2 32.9 4.9 13.2-.3 25.7-.6 34.9 9.4l4.7-4.3c-11.1-12.2-25.7-11.8-39.7-11.5-10.2.3-20.7.5-29.8-4.2-7-3.6-24.5-18.9-24.4-23.9l-6.3-.2c-2.4 64.2 11.9 110.8 42.6 138.3 25.7 23 55.8 26.5 71.7 26.5 6.4 0 10.5-.6 11-.6l-.9-6.3c-.6 0-44 5.9-77.7-24.4z"/><path class="st1" d="M363.7 121.1l-6.3.2c.2 5.1-17.4 20.3-24.4 23.9-9.1 4.7-19.6 4.4-29.8 4.2-14-.3-28.6-.7-39.7 11.5l4.7 4.3c9.2-10.1 21.7-9.8 34.9-9.4 11 .3 22.4.5 32.9-4.9 3.2-1.6 14.5-9.8 21.6-18-.2 45.9-11.6 129.7-90.9 145.4-33.5 6.7-69.1-9.8-88.4-41-17.2-27.8-13.6-64.6 9.2-93.7l-5-3.9c-24.4 31.3-28.2 70.9-9.6 100.9 17.6 28.4 47.9 45.4 78.8 45.4 5.4 0 10.8-.5 16.2-1.6 91.4-17.9 97.5-120.2 95.8-163.3zM90.2 88.4c18.4 2.7 23.7 15 23.9 15.5l5.9-2.4c-.3-.7-6.7-16.2-28.9-19.4-17.5-2.6-17-21.2-17-22l-6.3-.3c-.3 8.7 3.9 25.9 22.4 28.6zm231.6 0c18.6-2.7 22.8-19.8 22.4-28.5l-6.3.3c0 .8.6 19.4-17 22-22.2 3.3-28.6 18.8-28.9 19.4l5.9 2.3c0-.2 5.3-12.8 23.9-15.5z"/></g><circle class="st2" cx="100" cy="262.5" r="4.6"/><path class="st1" d="M93.9 260c-.9 2.6-.2 5.5 2.1 7.3 2.3 1.8 5.3 1.8 7.6.3l.5-.4 8.8 7 9.2 7.2-.8 1c-.5.7-.4 1.6.3 2.2l4.4 3.4c.7.5 1.6.4 2.2-.3l3.4-4.4c.5-.7.4-1.6-.3-2.2l-4.4-3.4c-.7-.5-1.6-.4-2.2.3l-.8 1-18.2-14.2c1.1-2.6.4-5.8-2-7.6-2.3-1.8-5.6-1.8-7.8-.1L78 242.9l.8-1c.5-.7.4-1.6-.3-2.2l-4.4-3.4c-.7-.5-1.6-.4-2.2.3l-3.4 4.4c-.5.7-.4 1.6.3 2.2l4.4 3.4c.7.5 1.6.4 2.2-.3l.8-1 9.2 7.2 8.9 6.9-.4.6zm8.1-.4c1.5 1.1 1.7 3.3.6 4.7-1.1 1.5-3.3 1.7-4.7.6-1.5-1.1-1.7-3.3-.6-4.7 1.2-1.5 3.3-1.8 4.7-.6z"/></svg>