<svg id="Capa_2" xmlns="http://www.w3.org/2000/svg" viewBox="132 93.9 860 654"><style>.st0{enable-background:new}.st1{fill:#d5e5ef}.st2{fill:#fff}.st3{fill:#a5cdd6}.st4{fill:#ebf1f8}.st5{fill:#6cb1c6}.st6{fill:#b1d1e0}.st7{fill:#70b3c2}.st8{fill:#e9f2f8}.st9{fill:#d5e5f0}.st10{fill:#3a3a3a}.st11{fill:#233b51}.st12{fill:#5a99a7}.st13{fill:#9bc2a9}.st14{fill:#588f8e}.st15{fill:#f5edde}.st16{fill:#80a08f}.st17{fill:#f1e2cc}.st18{opacity:.61;fill:#e0e0e0}</style><g id="XMLID_442_"><g id="XMLID_427_"><g id="XMLID_439_" class="st0"><path id="XMLID_447_" class="st1" d="M888.9 366.7L505.4 589.3c-8.5 4.9-22.2 4.9-30.8 0l-263-151.8c-4.3-2.5-6.4-5.7-6.4-9l-.1 21.9c0 3.2 2.1 6.5 6.4 9l263 151.8c8.5 4.9 22.3 4.9 30.8 0l383.6-222.6c4.2-2.4 6.3-5.6 6.3-8.9l.1-21.9c-.1 3.2-2.2 6.4-6.4 8.9z"/><g id="XMLID_440_"><path id="XMLID_441_" class="st2" d="M888.8 348.8c8.5 4.9 8.6 12.9.1 17.8L505.4 589.3c-8.5 4.9-22.2 4.9-30.8 0l-263-151.8c-8.5-4.9-8.6-12.9-.1-17.8L595 197c8.5-4.9 22.2-4.9 30.8 0l263 151.8z"/></g></g></g><g id="XMLID_438_"><path id="XMLID_523_" class="st1" d="M861.8 361.2c-.8 1.9-2.5 3.7-5.1 5.2L507.2 569.3c-7.5 4.4-19.8 4.4-27.4 0L246.2 434.4c-2.6-1.5-4.3-3.3-5.1-5.3-1.6-3.7.1-7.7 5.1-10.6l349.4-202.8c7.5-4.4 19.8-4.4 27.3 0l233.7 134.9c5 2.8 6.7 6.9 5.2 10.6z"/></g><g id="XMLID_479_"><path id="XMLID_515_" class="st3" d="M861.8 361.2c-.8 1.9-2.5 3.7-5.1 5.2L507.2 569.3c-7.5 4.4-19.8 4.4-27.4 0L246.2 434.4c-2.6-1.5-4.3-3.3-5.1-5.3.8-1.9 2.5-3.7 5.1-5.2L595.6 221c7.5-4.4 19.8-4.4 27.3 0l233.7 134.9c2.6 1.5 4.3 3.4 5.2 5.3z"/></g><g id="XMLID_444_"><g id="XMLID_443_"><path id="XMLID_456_" class="st4" d="M823.5 416.6c0 3.1-2.1 6.8-4.8 8.3-2.3 1.3-4.2.6-4.7-1.5-.1-.4-.1-.8-.1-1.2 0-3 2.1-6.8 4.8-8.3.3-.2.6-.3.9-.4 2.1-.9 3.9.4 3.9 3.1z"/></g><g id="XMLID_445_"><path id="XMLID_454_" class="st5" d="M819.6 414.7c0 3.1-2.1 6.8-4.8 8.3-.3.2-.6.3-.8.4-.1-.4-.1-.8-.1-1.2 0-3 2.1-6.8 4.8-8.3.3-.2.6-.3.9-.4v1.2z"/></g></g><g id="XMLID_448_"><g id="XMLID_446_"><g id="XMLID_449_" class="st0"><g id="XMLID_455_"><path id="XMLID_457_" class="st5" d="M779.1 446.6l-3.1-1.8V439l3 1.7z"/></g><g id="XMLID_452_"><path id="XMLID_453_" class="st2" d="M779 440.7l-3-1.7 24.7-14.3 3 1.8z"/></g><g id="XMLID_450_"><path id="XMLID_451_" class="st4" d="M803.7 426.5v5.8l-24.6 14.3-.1-5.9z"/></g></g></g><g id="XMLID_458_"><g id="XMLID_459_" class="st0"><g id="XMLID_465_"><path id="XMLID_466_" class="st5" d="M751.3 462.6l-3-1.8V455l3 1.7z"/></g><g id="XMLID_463_"><path id="XMLID_464_" class="st2" d="M751.3 456.7l-3-1.7 24.7-14.3 3 1.8z"/></g><g id="XMLID_460_"><path id="XMLID_461_" class="st4" d="M776 442.5v5.8l-24.7 14.3v-5.9z"/></g></g></g></g><g id="XMLID_467_"><g id="XMLID_468_"><g id="XMLID_469_"><g id="XMLID_471_" class="st0"><g id="XMLID_472_"><path id="XMLID_473_" class="st6" d="M320.6 510.8v5.8l38.2 22.1v-5.9z"/></g></g></g></g><path id="XMLID_474_" class="st5" d="M320.6 516.6l5-2.9-5-2.9z"/></g><g id="XMLID_556_"><path id="XMLID_557_" class="st7" d="M831 359.1L617.4 483.3 402.5 359.1 616.1 235z"/></g></g><g id="XMLID_1158_"><g id="XMLID_1159_"><g id="XMLID_1160_" class="st0"><g id="XMLID_1165_"><path id="XMLID_1166_" class="st8" d="M743.8 305.1v46.5L637.7 413v-46.5z"/></g><g id="XMLID_1163_"><path id="XMLID_1164_" class="st9" d="M637.7 366.5V413l-84.5-48.8v-46.6z"/></g><g id="XMLID_1161_"><path id="XMLID_1162_" class="st2" d="M743.8 305.1l-106.1 61.4-84.7-48.9 106-61.4z"/></g></g></g></g><g id="XMLID_565_"><g id="XMLID_568_"><g id="XMLID_569_" class="st0"><g id="XMLID_574_"><path id="XMLID_575_" class="st8" d="M746.5 293.2v10.2l-108.7 63.2v-10.2z"/></g><g id="XMLID_572_"><path id="XMLID_573_" class="st9" d="M637.8 356.4v10.2l-87.6-50.4v-10.3z"/></g><g id="XMLID_570_"><path id="XMLID_571_" class="st2" d="M746.5 293.2l-108.8 63.2-87.5-50.5 109-63.2z"/></g></g></g></g><g id="XMLID_555_"><path id="XMLID_585_" class="st10" d="M736.2 293.2l-98.6 57.1-76.9-44.4 98.5-57.1z"/></g><g id="XMLID_1_"><g id="XMLID_4_"><path id="XMLID_5_" class="st11" d="M585.2 351.4c0 5.4 3.9 12.2 8.5 14.9 3.2 2 6.1 1.5 7.6-.7.7-1 1.2-2.4 1.2-4.1 0-5.4-3.9-12.2-8.5-14.9-1.5-1-2.7-1.2-3.9-1.2-2.9-.1-4.9 2.1-4.9 6z"/></g><g id="XMLID_2_"><path id="XMLID_3_" class="st12" d="M588.9 349.4c0 5.4 3.9 12 8.5 14.9 1.5.7 2.7 1.2 3.9 1.2.7-1 1.2-2.4 1.2-4.1 0-5.4-3.9-12.2-8.5-14.9-1.5-1-2.7-1.2-3.9-1.2-.7 1-1.2 2.4-1.2 4.1z"/></g></g><g id="_x30_RiqJS.tif"><path class="st13" d="M393.1 433.2c-.2-13 .6-26 4.5-38.5 1.4-4.6 3.5-8.9 5.7-13.1 3-5.7 5.8-11.5 7.4-17.7 2-7.3 2.9-14.8 3.3-22.4.2-5.1.3-10.1.5-15.2 1.1.1 1 1 1 1.7.1 2.1 1.3 3.4 3.1 4.1 5.3 2.1 10.5 2.2 15.2-1.7.3-.3.7-.6 1.2-.5.9 2.5.7 5.2.8 7.8.2 6.9.9 13.7 2.1 20.5 1.6 9 5.4 17.1 9.6 25.1 4.8 9.1 7.3 18.9 8.4 29.2 1.5 13.6.7 27.2.9 40.9.1 11.1-.2 22.3.1 33.4.2 6.2-2.5 10.5-7.4 13.9-5.4 3.7-11.4 5.4-17.8 6.3-8.3 1.1-16.5.3-24.3-2.7-4.4-1.7-8.5-4-11.5-7.8-1.8-2.3-2.9-4.8-2.9-7.7v-9.6c.2 0 .4-.1.4 0 1.2 2.5 3.1 4.6 4.2 7.1-.5 5.8 3 8.9 7.5 11.3 4.7 2.6 9.9 3.7 15.3 4.1 7.1.5 14.1-.2 20.7-2.9 1.8-.8 3.5-1.7 5.1-2.9 3.2-2.3 4.9-5.3 4.9-9.4-.1-19.3.1-38.7-.1-58-.1-9.7-.7-19.4-3.3-28.8-1.5-5.4-3.7-10.6-6.3-15.5-2.6-4.7-4.9-9.6-6.6-14.7-.6-3.4-2.7-5.3-5.9-6.1-3.1-.8-6.3-.9-9.4 0-3 .9-5 2.7-5.6 5.9-1.6 4.7-3.6 9.3-6.1 13.7-5.1 9.1-8 18.9-9.2 29.2-.9 7.9-.9 15.8-.9 23.8 0 1.1.1 2.3-.3 3.4-.7.9-1.2.2-1.6-.3-1.4-1.8-2.7-3.6-2.7-5.9z"/><path class="st14" d="M434.9 329.9c-3.9 5.3-14 5-18.4 1.6-1.1-.8-2.2-1-2.1-2.3 0-.6.1-2 .1-2.9v-28.2c.2 0 1.1 2 1.2 2.1 4.4 4.4 10.8 1.3 15.1 3.2-2 .3-3.5.9-5.2.8-1.7-.1-3.5 0-5.2-.6-1.5-.5-2.9-1.2-4.2-2.2-1.8-1.5-2.2-3.1-1.2-5.1 3.5-4.9 12.9-5.5 18.2-1.8 1.7 1.2 2 2.9 2 5.1.3 7.5.1 15 .1 22.5.1 2.6.7 5.3-.4 7.8z"/><path class="st15" d="M397.1 486c-1.7-2.1-3.1-4.3-4.1-6.8-.2-2.6.3-5.2-.6-7.8-.4-1.2.7-2.5.6-4-.3-3.6 0-7.3-.2-10.9-.2-2.9.4-5.8.1-8.6-.4-3.5.1-7 .1-10.4 0-1.4-1.4-2.8 0-4.3 1.1 2.3 2 4.7 4 6.4 1.8.9 3.5 1.9 4.6 3.7 1.9 2.8 2.1 5.8.6 8.8-.3.6-.2 1.1.1 1.7 1.3 2.2 1.1 4.5.2 6.8-.4.9-.6 1.6-.1 2.6 1.2 2 1 4.2.1 6.3-.5 1.1-.5 2 .1 3.2 1 1.9.8 4-.1 5.9-.5 1.1-.5 2 .1 3.2 1.2 2.2.6 5.2-1.2 7.1-2.2.3-3.3-1.3-4.3-2.9z"/><path class="st14" d="M401.3 443.1c-1.3-1.3-3-2.1-4.2-3.5 0-5.9-.2-11.8.1-17.7.6-14.3 3.3-28 10.8-40.5 2.3-3.9 3.8-8.2 5.5-12.4.7-.2.9.4 1.3.8 1.9 2.5 4.6 3.6 7.7 3.7 2.2.1 4.4.2 6.5-.4 1.8-.5 3.3-1.4 4.6-2.8.5-.5.8-1.3 1.8-1.1 1.8 5.3 4.2 10.3 6.9 15.3 3.9 7.2 6.5 14.7 7.7 22.8 2.9 19.9 1.5 39.9 1.8 59.9.1 6.7-.1 13.4.1 20 .1 4.2-1.8 7.1-5 9.4-5.6 3.9-11.9 5.6-18.7 6-6.9.5-13.7-.3-20.2-2.7-2.9-1.1-5.6-2.7-7.9-4.8-2.7-2.4-3.2-5.5-2.9-8.9 1.4 1 2.4 2.3 4 2.9.6-.1 1.2.2 1.7.5 11.3 6 23.2 6.3 35.4 3.5 2.1-.5 2.8-1.6 2.8-3.7-.1-13.1 0-26.2 0-39.3 0-2.5-.2-2.6-2.7-2-11.1 2.7-22.1 2.4-32.8-2.1-1.6-.8-3.3-1.3-4.3-2.9z"/><path class="st16" d="M435.3 369.1c-4.1 5.5-9.8 5.6-15.7 4.5-2.8-.5-4.7-2.2-6.1-4.6.2-3.6 2.6-5.2 5.6-6.2 3.9-1.2 7.9-1.1 11.7.5 2.5 1.1 4.1 3 4.5 5.8z"/><path class="st17" d="M401.3 443.1c5 2.5 10.2 4.4 15.8 5.2 7.6 1.1 15.1.7 22.4-1.5 1.8-.5 2.3-.2 2.2 1.7-.1 13.9-.1 27.9 0 41.8 0 1.5-.3 2.4-1.9 2.8-11.6 3-23.1 2.9-34.4-1.8-1.5-.6-3-1.4-4.3-2.5 1.6-2.6 2.6-5.3.1-8-.5-.5.1-1 .3-1.4 1.2-2.6 2.1-5.2-.3-7.7-.5-.5.1-1 .3-1.4 1.2-2.6 2.1-5.2-.3-7.7-.5-.5.1-1 .3-1.4 1.2-2.6 2.1-5.2-.3-7.7-.5-.5.1-1 .3-1.4 1.2-2.7 2.2-5.4-.4-8-.1 0 .1-.6.2-1z"/><path class="st14" d="M434.9 329.9c-3.9 5.3-14 4.7-18.4 1.6-1.1-.8-2.2-1-2.1-2.3"/><path class="st14" d="M434.9 330.1c-3.9 5.3-14 4.7-18.4 1.6-1.1-.8-2.2-1-2.1-2.3"/></g><path class="st18" d="M438.6 315.9c0 2.6.6 5.3-.5 7.9.9 2.5.7 5.2.8 7.8.2 6.9.9 13.7 2.1 20.5 1.6 9 5.4 17.1 9.6 25.1 4.8 9.1 7.3 18.9 8.4 29.2 1.5 13.6.7 27.2.9 40.9.1 11.1-.2 22.3.1 33.4 0 1.4-.1 2.6-.3 3.8l118.7-114.7-2.8-20.5-137-51.4c.1 6 0 12 0 18z"/></svg>