<svg id="DESIGNED_BY_FREEPIK" xmlns="http://www.w3.org/2000/svg" xmlns:xlink="http://www.w3.org/1999/xlink" viewBox="0 0 765 540.9"><style>.st0{fill:#007785}.st1{enable-background:new}.st2{clip-path:url(#SVGID_2_)}.st3{clip-path:url(#SVGID_4_)}.st4{fill:#d2d2d2}.st5{clip-path:url(#SVGID_6_)}.st6{fill:#ea5642}.st7{clip-path:url(#SVGID_8_)}.st8{fill:#4c4c4c}.st9{fill:#00d4da}.st10{fill:#fff}.st11{clip-path:url(#SVGID_10_)}.st12{fill:#c04935}.st13{clip-path:url(#SVGID_12_)}.st14{clip-path:url(#SVGID_14_)}.st15{fill:#fa6248}.st16{clip-path:url(#SVGID_16_)}.st17{fill:#e4e4e4}.st18{fill:silver}.st19{fill:#c9c9c9}.st20{clip-path:url(#SVGID_18_)}.st21{fill:#ffc101}.st22{clip-path:url(#SVGID_20_)}.st23{clip-path:url(#SVGID_22_)}.st24{clip-path:url(#SVGID_24_)}.st25{fill:#009aae}.st26{fill:#e7e7e7}.st27{fill:#e85b42}.st28{clip-path:url(#SVGID_26_)}</style><path class="st0" d="M647.6 203.8l-5.7 7 7-3.5 1.5-1.9z"/><g class="st1"><defs><path id="SVGID_1_" d="M593.6 175.4l.2-68.2 70.9 41-.2 68.2z"/></defs><clipPath id="SVGID_2_"><use xlink:href="#SVGID_1_" overflow="visible"/></clipPath><g class="st2"><path class="st0" d="M661.9 146.5l-65.3-37.7c-1.6-.9-2.8-.2-2.8 1.6l-.1 51.5c0 1.8 1.3 4 2.8 4.9l46.8 27 5.7 13.5 5.7-6.9 7 4.1c1.6.9 2.8.2 2.8-1.6l.1-51.5c.1-1.8-1.2-4-2.7-4.9"/></g></g><g class="st1"><defs><path id="SVGID_3_" d="M99.5 378.8l211.4-122.9L577 409.5 365.5 532.4z"/></defs><clipPath id="SVGID_4_"><use xlink:href="#SVGID_3_" overflow="visible"/></clipPath><g class="st3"><path class="st4" d="M566.3 403.4L321.6 262.1c-5.9-3.4-15.4-3.4-21.2 0L110.1 372.7c-5.8 3.4-5.8 8.9.1 12.3l244.7 141.3c5.9 3.4 15.4 3.4 21.2 0l190.3-110.6c5.8-3.4 5.8-8.9-.1-12.3"/></g></g><g class="st1"><defs><path id="SVGID_5_" d="M116.5 226.6l.3-106.4 46.2 26.6-.3 106.5z"/></defs><clipPath id="SVGID_6_"><use xlink:href="#SVGID_5_" overflow="visible"/></clipPath><g class="st5"><path class="st6" d="M126.7 146.8v-17.6l26.2 15.2-.1 17.6-26.1-15.2m29.2-4.1l-2.8-1.6-26.3-15.1-2.8-1.6v3.3l-.1 17.6-7.1-4.1-.2 85.6 46.1 26.6.2-85.6-7.1-4.1v-17.6l.1-3.4"/></g></g><g class="st1"><defs><path id="SVGID_7_" d="M314.6 251.6l.6-244.5 266.1 153.6-.7 244.5z"/></defs><clipPath id="SVGID_8_"><use xlink:href="#SVGID_7_" overflow="visible"/></clipPath><g class="st7"><path class="st8" d="M326.6 247.5l.6-222.5 242.1 139.8-.6 222.5-242.1-139.8m244-93L325.9 13.2c-5.9-3.4-10.7-.7-10.7 6.1l-.6 220.1c0 6.8 4.7 15 10.6 18.4L570 399.1c5.9 3.4 10.7.7 10.7-6.1l.6-220.1c0-6.7-4.8-15-10.7-18.4"/><path class="st9" d="M332.8 240.5l.2-81.5 73.2 42.3-.2 81.5-73.2-42.3m77.8 44.9l.2-81.5 73.2 42.3-.2 81.5-73.2-42.3m78.1 45.1l.3-81.5 73.2 42.3-.2 81.5-73.3-42.3M333.1 148.8v-8.2L562.2 273v8.2L333.1 148.8m0-14.3v-8.2l229.1 132.3v8.1L333.1 134.5m.1-17.4l.2-81.5 152.5 88.1-.2 81.5-152.5-88.1m159.6 92.2l.2-81.5 69.5 40.1-.2 81.5-69.5-40.1m76.5-44.5L327.2 25l-.6 222.5 242.1 139.8.6-222.5"/><path class="st10" d="M485.9 123.7L333.4 35.6l-.2 81.5 152.5 88.1.2-81.5m-79.7 77.6L333 159l-.2 81.5 73.2 42.3.2-81.5m77.8 44.8l-73.2-42.2-.2 81.5 73.1 42.3.3-81.6m78.2 45.2L489 249l-.3 81.5 73.2 42.3.3-81.5m.3-123.4L493 127.8l-.2 81.5 69.5 40.1.2-81.5m-.2 90.8L333.1 126.4v8.1l229.1 132.3.1-8.1m-.1 14.3L333.1 140.7v8.1l229.1 132.3V273"/></g></g><g class="st1"><defs><path id="SVGID_9_" d="M146 263.2l-.2-85.6 17.7-10.2.2 85.6z"/></defs><clipPath id="SVGID_10_"><use xlink:href="#SVGID_9_" overflow="visible"/></clipPath><g class="st11"><path class="st12" d="M163.5 167.4l-17.7 10.2.2 85.6 17.7-10.2-.2-85.6"/></g></g><g class="st1"><defs><path id="SVGID_11_" d="M100.4 236.6l-.3-85.6 17.8-10.2.2 85.6z"/></defs><clipPath id="SVGID_12_"><use xlink:href="#SVGID_11_" overflow="visible"/></clipPath><g class="st13"><path class="st12" d="M117.9 140.8L100.1 151l.3 85.6 17.7-10.2-.2-85.6"/></g></g><g class="st1"><defs><path id="SVGID_13_" d="M100 236.6l.3-106.4 46.2 26.6-.3 106.4z"/></defs><clipPath id="SVGID_14_"><use xlink:href="#SVGID_13_" overflow="visible"/></clipPath><g class="st14"><path class="st15" d="M129.5 198.9l-1.3 7.8 5.4 9.2-7.5-3.1-3.4 5.9-3.3-9.7-7.5-5.6 5.4-2.9-1.3-9.3 6.7 7.9 6.8-.2m-19.3-42.1v-17.6l26.2 15.2-.1 17.6-26.1-15.2m29.2-4.1l-2.8-1.6-26.3-15.1-2.8-1.6v3.3l-.1 17.6-7.1-4.1-.2 85.6 46.1 26.6.2-85.6-7.1-4.1.1-17.6v-3.4"/><path class="st10" d="M129.5 198.9l-6.7.2-6.7-8 1.2 9.4-5.4 2.9 7.5 5.6 3.3 9.7 3.4-5.8 7.5 3-5.4-9.2 1.3-7.8"/></g></g><g class="st1"><defs><path id="SVGID_15_" d="M98.5 371.4L310 248.6l266 153.6L364.5 525z"/></defs><clipPath id="SVGID_16_"><use xlink:href="#SVGID_15_" overflow="visible"/></clipPath><g class="st16"><path class="st17" d="M212.7 408.7c-1.1-.6-1.1-1.6 0-2.3l51.4-29.9c1.1-.6 2.8-.6 3.9 0l87.8 50.7c1.1.6 1.1 1.6 0 2.3l-51.4 29.9c-1.1.6-2.8.6-3.9 0l-87.8-50.7m4.6-94.4c-.8-.4-.8-1.2 0-1.6l11.3-6.6c.8-.5 2-.4 2.8 0l29.3 16.9c.8.5.8 1.2 0 1.6l-11.3 6.6c-.8.5-2 .5-2.8 0l-29.3-16.9m37.8 21.9c-.8-.4-.8-1.2 0-1.6l11.3-6.6c.8-.5 2-.5 2.8 0l11.4 6.6c.8.5.8 1.2 0 1.6l-11.3 6.6c-.8.5-2 .5-2.8 0l-11.4-6.6m18 10.4c-.8-.5-.8-1.2 0-1.6l11.3-6.6c.8-.5 2-.5 2.8 0l11.4 6.6c.8.5.8 1.2 0 1.6l-11.3 6.6c-.8.5-2 .5-2.8 0l-11.4-6.6m18 10.3c-.8-.5-.8-1.2 0-1.6l11.3-6.6c.8-.5 2-.5 2.8 0l11.4 6.6c.8.5.8 1.2 0 1.6l-11.3 6.6c-.8.5-2 .4-2.8 0l-11.4-6.6m17.9 10.4c-.8-.5-.8-1.2 0-1.6l11.3-6.6c.8-.5 2-.5 2.8 0l63.4 36.6c.8.4.8 1.2 0 1.6l-11.3 6.6c-.8.5-2 .5-2.8 0L309 367.3m70 40.4c-.8-.5-.8-1.2 0-1.6l11.3-6.6c.8-.5 2-.5 2.8 0l11.4 6.6c.8.4.8 1.2 0 1.6l-11.3 6.6c-.8.5-2 .4-2.8 0l-11.4-6.6m18 10.4c-.8-.5-.8-1.2 0-1.6l11.3-6.6c.8-.5 2-.4 2.8 0l11.3 6.5c.8.5.8 1.2 0 1.6l-11.3 6.6c-.8.5-2 .5-2.8 0l-11.3-6.5m18 10.4c-.8-.4-.8-1.2 0-1.6l11.3-6.6c.8-.5 2-.5 2.8 0l11.4 6.6c.8.5.8 1.2 0 1.6l-11.3 6.6c-.8.5-2 .5-2.8 0l-11.4-6.6m17.9 10.4c-.8-.5-.8-1.2 0-1.6l11.3-6.6c.8-.5 2-.4 2.8 0l29.3 16.9c.8.5.8 1.2 0 1.6l-11.3 6.6c-.8.5-2 .5-2.8 0l-29.3-16.9M237.4 302.6c-.8-.5-.8-1.2 0-1.6l11.3-6.6c.8-.5 2-.4 2.8 0l29.3 16.9c.8.5.8 1.2 0 1.6l-11.3 6.6c-.8.5-2 .5-2.8 0l-29.3-16.9m37.9 21.9c-.8-.4-.8-1.2 0-1.6l11.3-6.6c.8-.5 2-.5 2.8 0l11.4 6.6c.8.5.8 1.2 0 1.6l-11.3 6.6c-.8.5-2 .5-2.8 0l-11.4-6.6m17.9 10.4c-.8-.5-.8-1.2 0-1.6l11.3-6.6c.8-.5 2-.5 2.8 0l11.4 6.6c.8.5.8 1.2 0 1.6l-11.3 6.6c-.8.5-2 .5-2.8 0l-11.4-6.6m18 10.3c-.8-.5-.8-1.2 0-1.6l11.3-6.6c.8-.5 2-.5 2.8 0l11.4 6.6c.8.5.8 1.2 0 1.6l-11.3 6.6c-.8.5-2 .4-2.8 0l-11.4-6.6m18 10.4c-.8-.5-.8-1.2 0-1.6l11.3-6.6c.8-.5 2-.5 2.8 0l11.4 6.6c.8.4.8 1.2 0 1.6l-11.3 6.6c-.8.5-2 .4-2.8 0l-11.4-6.6m16.8 9.7c-.8-.5-.8-1.2 0-1.6l11.3-6.6c.8-.4 2-.4 2.8 0l11.4 6.6c.8.5.8 1.2 0 1.6l-11.3 6.6c-.8.5-2 .5-2.8 0l-11.4-6.6m17.2 10c-.8-.5-.8-1.2 0-1.6l11.3-6.6c.8-.5 2-.5 2.8 0l11.4 6.6c.8.5.8 1.2 0 1.6l-11.3 6.6c-.8.5-2 .5-2.8 0l-11.4-6.6m18 10.3c-.8-.5-.8-1.2 0-1.6l11.3-6.6c.8-.5 2-.5 2.8 0l11.4 6.6c.8.4.8 1.2 0 1.6l-11.3 6.6c-.8.5-2 .5-2.8 0l-11.4-6.6m18 10.4c-.8-.5-.8-1.2 0-1.6l11.3-6.6c.8-.4 2-.5 2.8 0l11.4 6.6c.8.4.8 1.2 0 1.6l-11.3 6.6c-.8.5-2 .5-2.8 0l-11.4-6.6m18 10.4c-.8-.5-.8-1.2 0-1.6l11.3-6.6c.8-.5 2-.4 2.8 0l11.3 6.5c.8.5.8 1.2 0 1.6l-11.3 6.6c-.8.5-2 .4-2.8 0l-11.3-6.5m17.9 10.4c-.8-.4-.8-1.2 0-1.6l11.3-6.6c.8-.5 2-.5 2.8 0l11.4 6.6c.8.5.8 1.2 0 1.6l-11.3 6.6c-.8.5-2 .5-2.8 0l-11.4-6.6m18 10.3c-.8-.5-.8-1.2 0-1.6l11.3-6.6c.8-.5 2-.4 2.8 0l29.3 16.9c.8.5.8 1.2 0 1.6l-11.3 6.6c-.8.5-2 .5-2.8 0l-29.3-16.9M256.4 291.6c-.8-.4-.8-1.2 0-1.6l11.3-6.6c.8-.5 2-.4 2.8 0l29.3 16.9c.8.5.8 1.2 0 1.6l-11.3 6.6c-.8.5-2 .5-2.8 0l-29.3-16.9m37.8 21.9c-.8-.4-.8-1.2 0-1.6l11.3-6.6c.8-.5 2-.4 2.8 0l11.4 6.6c.8.5.8 1.2 0 1.6l-11.3 6.6c-.8.5-2 .5-2.8 0l-11.4-6.6m18 10.3c-.8-.5-.8-1.2 0-1.6l11.3-6.6c.8-.5 2-.5 2.8 0l11.4 6.6c.8.5.8 1.2 0 1.6l-11.3 6.6c-.8.4-2 .5-2.8 0l-11.4-6.6m17.9 10.4c-.8-.5-.8-1.2 0-1.6l11.3-6.6c.8-.5 2-.5 2.8 0l11.4 6.6c.8.5.8 1.2 0 1.6l-11.3 6.6c-.8.5-2 .5-2.8 0l-11.4-6.6m18 10.4c-.8-.5-.8-1.2 0-1.6l11.3-6.6c.8-.5 2-.5 2.8 0l11.4 6.6c.8.4.8 1.2 0 1.6l-11.3 6.6c-.8.5-2 .5-2.8 0l-11.4-6.6m16.8 9.7c-.8-.4-.8-1.2 0-1.6l11.3-6.6c.8-.5 2-.4 2.8 0l11.4 6.6c.8.5.8 1.2 0 1.6l-11.3 6.6c-.8.4-2 .5-2.8 0l-11.4-6.6m17.3 10c-.8-.5-.8-1.2 0-1.6l11.3-6.6c.8-.5 2-.5 2.8 0l11.4 6.6c.8.5.8 1.2 0 1.6l-11.3 6.6c-.8.5-2 .5-2.8 0l-11.4-6.6m17.9 10.3c-.8-.5-.8-1.2 0-1.6l11.3-6.6c.8-.5 2-.5 2.8 0l11.4 6.6c.8.4.8 1.2 0 1.6l-11.3 6.6c-.8.4-2 .4-2.8 0l-11.4-6.6m18 10.4c-.8-.5-.8-1.2 0-1.6l11.3-6.6c.8-.5 2-.5 2.8 0l11.4 6.6c.8.5.8 1.2 0 1.6l-11.3 6.6c-.8.4-2 .4-2.8 0l-11.4-6.6m18 10.4c-.8-.5-.8-1.2 0-1.6l11.3-6.6c.8-.5 2-.5 2.8 0l11.3 6.5c.8.5.8 1.2 0 1.6l-11.3 6.6c-.8.5-2 .5-2.8 0l-11.3-6.5m18 10.4c-.8-.4-.8-1.2 0-1.6l11.3-6.6c.8-.5 2-.4 2.8 0l11.4 6.6c.8.5.8 1.2 0 1.6l-11.3 6.6c-.8.5-2 .5-2.8 0l-11.4-6.6m17.9 10.3c-.8-.5-.8-1.2 0-1.6l11.3-6.6c.8-.5 2-.4 2.8 0l29.3 16.9c.8.5.8 1.2 0 1.6l-11.3 6.6c-.8.5-2 .5-2.8 0L472 416.1M275.9 280.3c-.8-.4-.8-1.2 0-1.6l11.3-6.6c.8-.5 2-.4 2.8 0l11.4 6.6c.8.5.8 1.2 0 1.6l-11.3 6.6c-.8.5-2 .5-2.8 0l-11.4-6.6m17.9 10.4c-.8-.5-.8-1.2 0-1.6l11.3-6.6c.8-.5 2-.5 2.8 0l11.4 6.6c.8.5.8 1.2 0 1.6l-11.3 6.6c-.8.4-2 .5-2.8 0l-11.4-6.6m19.9 11.4c-.8-.4-.8-1.2 0-1.6l11.3-6.6c.8-.5 2-.4 2.8 0l11.4 6.6c.8.5.8 1.2 0 1.6l-11.3 6.6c-.8.4-2 .5-2.8 0l-11.4-6.6m18 10.4c-.8-.5-.8-1.2 0-1.6l11.3-6.6c.8-.5 2-.5 2.8 0l11.4 6.6c.8.5.8 1.2 0 1.6l-11.3 6.6c-.8.5-2 .5-2.8 0l-11.4-6.6m17.9 10.4c-.8-.5-.8-1.2 0-1.6l11.3-6.6c.8-.5 2-.5 2.8 0l11.4 6.6c.8.4.8 1.2 0 1.6l-11.3 6.6c-.8.4-2 .5-2.8 0l-11.4-6.6m18 10.4c-.8-.5-.8-1.2 0-1.6l11.3-6.6c.8-.5 2-.5 2.8 0l11.4 6.6c.8.5.8 1.2 0 1.6l-11.3 6.6c-.8.4-2 .4-2.8 0l-11.4-6.6m16.8 9.7c-.8-.5-.8-1.2 0-1.6l11.3-6.6c.8-.5 2-.5 2.8 0l11.4 6.6c.8.5.8 1.2 0 1.6l-11.3 6.6c-.8.4-2 .5-2.8 0l-11.4-6.6m17.3 9.9c-.8-.5-.8-1.2 0-1.6l11.3-6.6c.8-.5 2-.5 2.8 0l11.4 6.6c.8.5.8 1.2 0 1.6l-11.3 6.6c-.8.4-2 .5-2.8 0l-11.4-6.6m17.9 10.4c-.8-.5-.8-1.2 0-1.6l11.3-6.6c.8-.5 2-.5 2.8 0l11.4 6.6c.8.5.8 1.2 0 1.6l-11.3 6.6c-.8.5-2 .5-2.8 0l-11.4-6.6m18 10.4c-.8-.5-.8-1.2 0-1.6l11.3-6.6c.8-.5 2-.5 2.8 0l11.4 6.6c.8.4.8 1.2 0 1.6l-11.3 6.6c-.8.5-2 .5-2.8 0l-11.4-6.6m18 10.4c-.8-.5-.8-1.2 0-1.6l11.3-6.6c.8-.5 2-.4 2.8 0l11.3 6.6c.8.5.8 1.2 0 1.6l-11.3 6.6c-.8.4-2 .4-2.8 0l-11.3-6.6m18 10.3c-.8-.4-.8-1.2 0-1.6l11.3-6.6c.8-.5 2-.4 2.8 0l11.4 6.6c.8.5.8 1.2 0 1.6l-11.3 6.6c-.8.4-2 .5-2.8 0l-11.4-6.6m17.9 10.4c-.8-.4-.8-1.2 0-1.6l11.3-6.6c.8-.5 2-.5 2.8 0l11.4 6.6c.8.5.8 1.2 0 1.6l-11.3 6.6c-.8.5-2 .5-2.8 0l-11.4-6.6m18 10.4c-.8-.5-.8-1.2 0-1.6l11.3-6.6c.8-.5 2-.5 2.8 0l11.4 6.6c.8.5.8 1.2 0 1.6l-11.3 6.6c-.8.4-2 .5-2.8 0l-11.4-6.6M301 265.7c-.8-.4-.8-1.2 0-1.6l4.2-2.5c.8-.5 2-.5 2.8 0l245.5 141.7c.8.5.8 1.2 0 1.6l-4.2 2.5c-.8.5-2 .5-2.8 0L301 265.7M565.3 396L320.6 254.7c-5.9-3.4-15.4-3.4-21.2 0L109.1 365.3c-5.8 3.4-5.8 8.9.1 12.3l244.7 141.3c5.9 3.4 15.4 3.4 21.2 0l190.3-110.6c5.8-3.4 5.8-8.9-.1-12.3"/><path class="st18" d="M553.5 403.3L308 261.6c-.8-.5-2-.5-2.8 0l-4.2 2.5c-.8.5-.8 1.2 0 1.6l245.5 141.7c.8.5 2.1.5 2.8 0l4.2-2.5c.7-.4.7-1.1 0-1.6"/><path class="st8" d="M301.3 278.7l-11.4-6.6c-.8-.4-2-.5-2.8 0l-11.3 6.6c-.8.4-.8 1.2 0 1.6l11.4 6.6c.8.5 2.1.5 2.8 0l11.3-6.6c.8-.5.8-1.2 0-1.6m18 10.3l-11.4-6.6c-.8-.5-2-.5-2.8 0l-11.3 6.6c-.8.4-.8 1.2 0 1.6l11.4 6.6c.8.5 2.1.4 2.8 0l11.3-6.6c.8-.4.8-1.1 0-1.6m19.8 11.5l-11.4-6.6c-.8-.4-2-.5-2.8 0l-11.3 6.6c-.8.5-.8 1.2 0 1.6l11.4 6.6c.8.5 2.1.4 2.8 0l11.3-6.6c.8-.4.8-1.1 0-1.6m18 10.4l-11.4-6.6c-.8-.5-2-.5-2.8 0l-11.3 6.6c-.8.4-.8 1.2 0 1.6l11.4 6.6c.8.5 2.1.5 2.8 0l11.3-6.6c.8-.4.8-1.2 0-1.6m18 10.4l-11.4-6.6c-.8-.5-2-.5-2.8 0l-11.3 6.6c-.8.4-.8 1.2 0 1.6l11.4 6.6c.8.5 2.1.4 2.8 0l11.3-6.6c.8-.5.8-1.2 0-1.6m18 10.3l-11.4-6.6c-.8-.5-2-.5-2.8 0l-11.3 6.6c-.8.4-.8 1.2 0 1.6l11.4 6.6c.8.4 2.1.4 2.8 0l11.3-6.6c.8-.4.7-1.1 0-1.6m16.8 9.7l-11.4-6.6c-.8-.5-2-.5-2.8 0l-11.3 6.6c-.8.4-.8 1.2 0 1.6l11.4 6.6c.8.5 2.1.4 2.8 0l11.3-6.6c.7-.4.7-1.1 0-1.6m17.2 10l-11.4-6.6c-.8-.5-2-.5-2.8 0l-11.3 6.6c-.8.4-.8 1.2 0 1.6l11.4 6.6c.8.5 2.1.4 2.8 0l11.3-6.6c.8-.4.8-1.2 0-1.6m18 10.4l-11.4-6.6c-.8-.5-2-.5-2.8 0l-11.3 6.6c-.8.5-.8 1.2 0 1.6l11.4 6.6c.8.4 2.1.4 2.8 0l11.3-6.6c.8-.5.8-1.2 0-1.6m18 10.3l-11.4-6.6c-.8-.5-2-.5-2.8 0l-11.3 6.6c-.8.4-.8 1.2 0 1.6l11.4 6.6c.8.5 2.1.5 2.8 0l11.3-6.6c.8-.4.7-1.1 0-1.6m17.9 10.4l-11.3-6.6c-.8-.5-2.1-.5-2.8 0l-11.3 6.6c-.8.4-.8 1.2 0 1.6l11.3 6.5c.8.5 2.1.5 2.8 0l11.3-6.6c.8-.3.8-1 0-1.5m18 10.4l-11.4-6.6c-.8-.4-2-.5-2.8 0l-11.3 6.6c-.8.5-.8 1.2 0 1.6l11.4 6.6c.8.5 2.1.4 2.8 0l11.3-6.6c.8-.4.8-1.2 0-1.6m18 10.4l-11.4-6.6c-.8-.5-2-.5-2.8 0l-11.3 6.6c-.8.4-.8 1.2 0 1.6l11.4 6.6c.8.5 2.1.5 2.8 0l11.3-6.6c.8-.4.8-1.2 0-1.6m17.9 10.3l-11.4-6.6c-.8-.5-2-.5-2.8 0l-11.3 6.6c-.8.4-.8 1.2 0 1.6l11.4 6.6c.8.5 2.1.4 2.8 0l11.3-6.6c.8-.4.8-1.1 0-1.6M319.7 311.8l-11.4-6.6c-.8-.4-2-.5-2.8 0l-11.3 6.6c-.8.4-.8 1.2 0 1.6l11.4 6.6c.8.5 2.1.5 2.8 0l11.3-6.6c.7-.4.7-1.1 0-1.6m17.9 10.4l-11.4-6.6c-.8-.5-2-.5-2.8 0l-11.3 6.6c-.8.4-.8 1.2 0 1.6l11.4 6.6c.8.5 2.1.4 2.8 0l11.3-6.6c.8-.4.8-1.1 0-1.6m18 10.4l-11.4-6.6c-.8-.5-2-.5-2.8 0l-11.3 6.6c-.8.5-.8 1.2 0 1.6l11.4 6.6c.8.5 2.1.5 2.8 0l11.3-6.6c.8-.4.8-1.2 0-1.6m18 10.4l-11.4-6.6c-.8-.5-2-.5-2.8 0l-11.3 6.6c-.8.4-.8 1.2 0 1.6l11.4 6.6c.8.5 2.1.5 2.8 0l11.3-6.6c.8-.5.7-1.2 0-1.6m16.8 9.7l-11.4-6.6c-.8-.4-2-.5-2.8 0l-11.3 6.6c-.8.5-.8 1.2 0 1.6l11.4 6.6c.8.5 2.1.4 2.8 0l11.3-6.6c.7-.5.7-1.2 0-1.6m17.2 9.9l-11.4-6.6c-.8-.5-2-.5-2.8 0l-11.3 6.6c-.8.4-.8 1.2 0 1.6l11.4 6.6c.8.5 2.1.5 2.8 0l11.3-6.6c.8-.4.8-1.1 0-1.6m18 10.4l-11.4-6.6c-.8-.5-2-.5-2.8 0l-11.3 6.6c-.8.4-.8 1.2 0 1.6l11.4 6.6c.8.4 2.1.4 2.8 0l11.3-6.6c.8-.4.8-1.2 0-1.6m18 10.4l-11.4-6.6c-.8-.5-2-.5-2.8 0l-11.3 6.6c-.8.5-.8 1.2 0 1.6l11.4 6.6c.8.4 2.1.4 2.8 0l11.3-6.6c.8-.4.7-1.2 0-1.6m17.9 10.3l-11.3-6.5c-.8-.5-2.1-.5-2.8 0l-11.3 6.6c-.8.5-.8 1.2 0 1.6l11.3 6.6c.8.5 2.1.5 2.8 0l11.3-6.6c.8-.5.8-1.2 0-1.7m18 10.4l-11.4-6.6c-.8-.4-2-.5-2.8 0l-11.3 6.6c-.8.4-.8 1.2 0 1.6l11.4 6.6c.8.5 2.1.5 2.8 0l11.3-6.6c.8-.4.8-1.1 0-1.6M299.8 300.4l-29.3-16.9c-.8-.4-2-.5-2.8 0l-11.3 6.6c-.8.5-.8 1.2 0 1.6l29.3 16.9c.8.5 2.1.5 2.8 0l11.3-6.6c.8-.5.8-1.2 0-1.6m215.6 124.5L486.1 408c-.8-.4-2-.5-2.8 0l-11.3 6.6c-.8.4-.8 1.2 0 1.6l29.3 16.9c.8.5 2.1.4 2.8 0l11.3-6.6c.8-.4.8-1.2 0-1.6M300.7 322.8l-11.4-6.6c-.8-.5-2.1-.5-2.8 0l-11.3 6.6c-.8.5-.8 1.2 0 1.6l11.4 6.6c.8.5 2 .5 2.8 0l11.3-6.6c.8-.4.8-1.1 0-1.6m18 10.4l-11.4-6.6c-.8-.5-2.1-.4-2.8 0l-11.3 6.6c-.8.5-.8 1.2 0 1.6l11.4 6.6c.8.5 2 .5 2.8 0l11.3-6.6c.8-.4.8-1.1 0-1.6m18 10.4l-11.4-6.6c-.8-.5-2.1-.5-2.8 0l-11.3 6.6c-.8.5-.8 1.2 0 1.6l11.4 6.6c.8.4 2 .5 2.8 0l11.3-6.6c.7-.4.7-1.2 0-1.6m17.9 10.4l-11.4-6.6c-.8-.5-2.1-.5-2.8 0l-11.3 6.6c-.8.5-.8 1.2 0 1.6l11.4 6.6c.8.4 2 .5 2.8 0l11.3-6.6c.8-.4.8-1.2 0-1.6m16.8 9.7l-11.4-6.6c-.8-.4-2.1-.4-2.8 0l-11.3 6.6c-.8.5-.8 1.2 0 1.6l11.4 6.6c.8.5 2 .5 2.8 0l11.3-6.6c.8-.5.8-1.2 0-1.6m17.3 9.9l-11.4-6.6c-.8-.5-2.1-.5-2.8 0l-11.3 6.6c-.8.5-.8 1.2 0 1.6l11.4 6.6c.8.5 2 .5 2.8 0l11.3-6.6c.8-.4.8-1.1 0-1.6m18 10.4l-11.4-6.6c-.8-.5-2.1-.4-2.8 0l-11.3 6.6c-.8.5-.8 1.2 0 1.6l11.4 6.6c.8.4 2 .5 2.8 0l11.3-6.6c.7-.4.7-1.1 0-1.6m17.9 10.4l-11.4-6.6c-.8-.5-2.1-.4-2.8 0l-11.3 6.6c-.8.5-.8 1.2 0 1.6l11.4 6.6c.8.5 2 .5 2.8 0l11.3-6.6c.8-.4.8-1.2 0-1.6m18 10.4l-11.3-6.5c-.8-.5-2.1-.5-2.8 0l-11.3 6.6c-.8.5-.8 1.2 0 1.6l11.3 6.5c.8.5 2.1.5 2.8 0l11.3-6.6c.8-.5.8-1.2 0-1.6m18 10.3l-11.4-6.6c-.8-.5-2.1-.5-2.8 0l-11.3 6.6c-.8.5-.8 1.2 0 1.6l11.4 6.6c.8.5 2 .5 2.8 0l11.3-6.6c.7-.4.7-1.1 0-1.6M280.8 311.4l-29.3-16.9c-.8-.4-2.1-.5-2.8 0l-11.3 6.6c-.8.5-.8 1.2 0 1.6l29.3 16.9c.8.5 2 .5 2.8 0l11.3-6.6c.8-.4.8-1.2 0-1.6m215.7 124.5L467.2 419c-.8-.4-2.1-.5-2.8 0l-11.3 6.6c-.8.5-.8 1.2 0 1.6l29.3 16.9c.8.5 2 .5 2.8 0l11.3-6.6c.8-.4.8-1.2 0-1.6M280.6 334.6l-11.4-6.6c-.8-.5-2-.5-2.8 0l-11.3 6.6c-.8.5-.8 1.2 0 1.6l11.4 6.6c.8.5 2 .5 2.8 0l11.3-6.6c.7-.5.7-1.2 0-1.6m17.9 10.3l-11.4-6.6c-.8-.5-2-.5-2.8 0l-11.3 6.6c-.8.5-.8 1.2 0 1.6l11.4 6.6c.8.5 2 .5 2.8 0l11.3-6.6c.8-.4.8-1.1 0-1.6m18 10.4l-11.4-6.6c-.8-.5-2-.5-2.8 0l-11.3 6.6c-.8.5-.8 1.2 0 1.6l11.4 6.6c.8.4 2 .5 2.8 0l11.3-6.6c.8-.4.8-1.1 0-1.6m88 50.8l-11.4-6.6c-.8-.5-2-.5-2.8 0l-11.3 6.6c-.8.5-.8 1.2 0 1.6l11.4 6.6c.8.4 2 .5 2.8 0l11.3-6.6c.8-.4.7-1.2 0-1.6m17.9 10.4l-11.3-6.5c-.8-.5-2.1-.5-2.8 0l-11.3 6.6c-.8.5-.8 1.2 0 1.6l11.3 6.6c.8.5 2.1.5 2.8 0l11.3-6.6c.8-.5.8-1.3 0-1.7m18 10.3l-11.4-6.6c-.8-.5-2-.5-2.8 0l-11.3 6.6c-.8.5-.8 1.2 0 1.6l11.4 6.6c.8.5 2 .5 2.8 0l11.3-6.6c.8-.4.8-1.1 0-1.6M260.7 323.1l-29.3-16.9c-.8-.4-2-.5-2.8 0l-11.3 6.6c-.8.5-.8 1.2 0 1.6l29.3 16.9c.8.5 2 .5 2.8 0l11.3-6.6c.8-.4.8-1.2 0-1.6m215.7 124.5L447 430.7c-.8-.4-2-.5-2.8 0l-11.3 6.6c-.8.5-.8 1.2 0 1.6l29.3 16.9c.8.5 2 .5 2.8 0l11.3-6.6c.8-.4.8-1.1.1-1.6m-89.9-51.9l-63.4-36.6c-.8-.5-2-.5-2.8 0l-11.3 6.6c-.8.5-.8 1.2 0 1.6l63.4 36.6c.8.5 2 .5 2.8 0l11.3-6.6c.8-.4.8-1.1 0-1.6"/><path class="st19" d="M355.8 427.2L268 376.5c-1.1-.6-2.8-.6-3.9 0l-51.4 29.9c-1.1.6-1.1 1.6 0 2.3l87.8 50.7c1.1.6 2.8.6 3.9 0l51.4-29.9c1.1-.6 1.1-1.7 0-2.3"/></g></g><g class="st1"><defs><path id="SVGID_17_" d="M607 298.7v-16.1l14.1 8.1-.1 16.1z"/></defs><clipPath id="SVGID_18_"><use xlink:href="#SVGID_17_" overflow="visible"/></clipPath><g class="st20"><path class="st21" d="M614 286.6c-1.2-.7-2.1-.1-2.1 1.2v3.2l-2.8-1.6c-1.2-.7-2.1-.1-2.1 1.2s.9 3 2.1 3.6l2.8 1.6v3.2c0 1.3.9 3 2.1 3.6 1.2.7 2.1.1 2.1-1.2v-3.2l2.8 1.6c1.2.7 2.1.1 2.1-1.2s-.9-3-2.1-3.6l-2.8-1.6v-3.2c.1-1.3-.9-2.9-2.1-3.6"/></g></g><g class="st1"><defs><path id="SVGID_19_" d="M671.2 264.7l.1-16.1 14 8.1v16.1z"/></defs><clipPath id="SVGID_20_"><use xlink:href="#SVGID_19_" overflow="visible"/></clipPath><g class="st22"><path class="st21" d="M678.3 252.6c-1.2-.7-2.1-.1-2.1 1.2v3.2l-2.8-1.6c-1.2-.7-2.1-.1-2.1 1.2s.9 3 2.1 3.6l2.8 1.6v3.2c0 1.3.9 3 2.1 3.6 1.2.7 2.1.1 2.1-1.2v-3.2l2.8 1.6c1.2.7 2.1.1 2.1-1.2s-.9-3-2.1-3.6l-2.8-1.6v-3.2c0-1.3-.9-2.9-2.1-3.6"/></g></g><g class="st1"><defs><path id="SVGID_21_" d="M661.3 334.5l.1-16.1 14 8.1v16.1z"/></defs><clipPath id="SVGID_22_"><use xlink:href="#SVGID_21_" overflow="visible"/></clipPath><g class="st23"><path class="st21" d="M668.4 322.4c-1.2-.7-2.1-.1-2.1 1.2v3.2l-2.8-1.6c-1.2-.7-2.1-.1-2.1 1.2s.9 3 2.1 3.6l2.8 1.6v3.2c0 1.3.9 3 2.1 3.6 1.2.7 2.1.1 2.1-1.2V334l2.8 1.6c1.2.7 2.1.1 2.1-1.2s-.9-3-2.1-3.6l-2.8-1.6V326c0-1.3-.9-2.9-2.1-3.6"/></g></g><g class="st1"><defs><path id="SVGID_23_" d="M586.6 178.8l.1-68.2 71 41-.2 68.2z"/></defs><clipPath id="SVGID_24_"><use xlink:href="#SVGID_23_" overflow="visible"/></clipPath><g class="st24"><path class="st25" d="M599 161.6v-4.9l46.1 26.6v4.9L599 161.6m.1-12.4v-4.9l46.1 26.6v4.9l-46.1-26.6m0-12.3V132l46.1 26.6v4.9l-46.1-26.6m55.8 13l-65.3-37.7c-1.6-.9-2.8-.2-2.8 1.6l-.1 51.5c0 1.8 1.3 4 2.8 4.9l46.8 27 5.7 13.5 5.7-6.9 7 4.1c1.6.9 2.8.2 2.8-1.6l.1-51.5c.1-1.8-1.2-4-2.7-4.9"/><path class="st10" d="M645.2 158.6L599.1 132v4.9l46.1 26.6v-4.9m0 12.4l-46.1-26.7v4.9l46.1 26.6V171m0 12.3l-46.1-26.6-.1 4.9 46.2 26.6v-4.9"/></g></g><path class="st0" d="M587.9 111.9s6.4-3.2 6.9-3.4c.8-.6 4.2 1.7 4.2 1.7l-3.8 5.2s-5-2.9-5.9-3.4c-.8-.3-1.4-.1-1.4-.1zm69.7 89.9l7-3s-.4 5.4-.5 5.7c-.2.4-7.6 3.8-7.6 3.8s1.1-.4 1.2-1.6c-.2-1.3-.1-4.9-.1-4.9z"/><path class="st10" d="M331.6 81.6l-19.5-10.8 34.2-35 18.6 10.7z"/><path class="st26" d="M312.1 70.8s.7 19.3 9.6 21.3c9.3 2.1 9.8-10.5 9.8-10.5l-19.4-10.8z"/><path class="st15" d="M350.3 92.2l-19.4-10.7 34.1-35 18.7 10.7z"/><path class="st27" d="M330.9 81.5s.7 19.3 9.6 21.3c9.3 2.1 9.8-10.5 9.8-10.5l-19.4-10.8z"/><path class="st15" d="M313.2 70.8L293.7 60l34.1-35 18.7 10.8z"/><path class="st27" d="M293.7 60s.7 19.3 9.6 21.3c9.3 2.1 9.8-10.5 9.8-10.5L293.7 60z"/><path class="st10" d="M368.8 103.1l-19.4-10.8 34.1-35 18.7 10.8z"/><path class="st26" d="M349.4 92.3s.7 19.3 9.6 21.3c9.3 2.1 9.8-10.5 9.8-10.5l-19.4-10.8z"/><path class="st15" d="M387.6 114l-19.5-10.8 34.2-35L420.9 79z"/><path class="st27" d="M368.1 103.2s.7 19.3 9.6 21.3c9.3 2.1 9.8-10.5 9.8-10.5l-19.4-10.8z"/><path class="st10" d="M406.2 124.9l-19.5-10.8 34.2-35 18.6 10.7z"/><path class="st26" d="M386.7 114.1s.7 19.3 9.6 21.3c9.3 2.1 9.8-10.5 9.8-10.5l-19.4-10.8z"/><path class="st15" d="M424.6 135.5l-19.5-10.8 34.2-35 18.6 10.8z"/><path class="st27" d="M405.1 124.7s.7 19.3 9.6 21.3c9.3 2.1 9.8-10.5 9.8-10.5l-19.4-10.8z"/><path class="st10" d="M443.3 146.3l-19.4-10.8 34.1-35 18.6 10.7z"/><path class="st26" d="M423.9 135.5s.7 19.3 9.6 21.3c9.3 2.1 9.8-10.5 9.8-10.5l-19.4-10.8z"/><path class="st15" d="M461.6 157l-19.4-10.8 34.1-35 18.7 10.7z"/><path class="st27" d="M442.2 146.2s.7 19.3 9.6 21.3c9.3 2.1 9.8-10.5 9.8-10.5l-19.4-10.8z"/><path class="st10" d="M480.4 167.7L460.9 157l34.2-35 18.6 10.7z"/><path class="st26" d="M460.9 157s.7 19.3 9.6 21.3c9.3 2.1 9.8-10.5 9.8-10.5L460.9 157z"/><path class="st15" d="M499.1 178.5l-19.4-10.8 34.1-35 18.6 10.7z"/><path class="st27" d="M479.7 167.7s.7 19.3 9.6 21.3c9.3 2.1 9.8-10.5 9.8-10.5l-19.4-10.8z"/><path class="st10" d="M517.8 189.2l-19.4-10.7 34.1-35.1 18.6 10.8z"/><path class="st26" d="M498.4 178.5s.7 19.3 9.6 21.3c9.3 2.1 9.8-10.5 9.8-10.5l-19.4-10.8z"/><path class="st15" d="M536.2 200l-19.4-10.8 34.1-35 18.6 10.8z"/><path class="st27" d="M516.8 189.2s.7 19.3 9.6 21.3c9.3 2.1 9.8-10.5 9.8-10.5l-19.4-10.8z"/><g class="st1"><defs><path id="SVGID_25_" d="M526.6 410.2l.2-95.9 84.9 49.1-.2 95.9z"/></defs><clipPath id="SVGID_26_"><use xlink:href="#SVGID_25_" overflow="visible"/></clipPath><g class="st28"><path class="st15" d="M544.4 367.9l-.9-.5v4.4l.3.2c1.1.6 1.9 1.1 2.4 1.4.5.3.9.4 1.3.5.4 0 .7-.1.8-.3.2-.2.2-.6.2-1 0-.6-.1-1-.3-1.5-.2-.4-.5-.8-1-1.2-.3-.3-.7-.6-1.3-.9-.4-.5-.9-.8-1.5-1.1m-.5-7.1l-.4-.2v3.7l.6.4c.6.4 1.2.7 1.6.9.4.2.8.4 1 .4.4 0 .6-.1.7-.3s.2-.5.2-.9c0-.3-.1-.6-.2-1s-.3-.7-.7-1c-.3-.3-.6-.6-1.1-.8s-.9-.7-1.7-1.2m-4.3 11.9v-17.6l5.9 3.4c1.2.7 2.1 1.3 2.7 1.7.6.4 1.1 1 1.7 1.6.6.7 1 1.4 1.3 2.1.3.7.4 1.5.4 2.2 0 .9-.2 1.5-.6 1.9-.4.4-.9.6-1.7.6v.1c1 .8 1.8 1.7 2.4 2.8.6 1.1.9 2.2.9 3.3 0 .9-.2 1.5-.5 2s-.7.8-1.2 1c-.6.2-1.3.2-2 0s-1.6-.6-2.8-1.3l-6.5-3.8m22.6 10.1c1 .6 1.7.7 2.2.4.5-.3.7-1.1.7-2.4v-11l4 2.3v11.2c0 2.2-.6 3.5-1.7 4-1.2.5-2.9.1-5.1-1.2-2.2-1.3-3.9-2.9-5.1-4.7s-1.7-3.8-1.7-6v-11.2l4 2.3v11c0 1.2.2 2.3.7 3.1.3.9 1 1.6 2 2.2m16.5 1.7l3.2-4.9 4.3 2.5-5.7 7.5v6.8l-4-2.3v-6.6l-5.7-14.3 4.5 2.6 3.4 8.7m-18.1-50.7c-18.6-10.8-33.8-2.1-33.8 19.3-.1 21.4 15 47.5 33.6 58.2 7.5 4.4 14.5 5.5 20.1 4l-3.8-12.9 10.5 9.2c4.4-4 7-10.7 7-19.5.1-21.4-15-47.5-33.6-58.3"/><path class="st10" d="M543.5 371.7v-4.4l.9.5c.6.3 1.2.7 1.7 1 .5.3 1 .6 1.3.9.5.4.8.8 1 1.2.2.4.3.9.3 1.5 0 .4-.1.8-.2 1-.2.2-.4.3-.8.3s-.8-.2-1.3-.5-1.3-.7-2.4-1.4l-.5-.1m0-7.4v-3.7l.4.2c.8.5 1.4.8 1.8 1.1.4.3.8.5 1.1.8.3.3.5.7.7 1 .1.4.2.7.2 1 0 .4-.1.7-.2.9s-.3.3-.7.3c-.2 0-.6-.1-1-.4-.4-.2-1-.5-1.6-.9l-.7-.3m2.1-5.8l-5.9-3.4v17.6l6.7 3.9c1.1.6 2 1.1 2.8 1.3.7.2 1.4.2 2 0 .5-.1.9-.5 1.2-1 .3-.5.5-1.2.5-2 0-1.2-.3-2.3-.9-3.3-.6-1.1-1.4-2-2.4-2.8v-.1c.7 0 1.3-.1 1.7-.6.4-.4.6-1.1.6-1.9 0-.7-.1-1.5-.4-2.2-.3-.7-.7-1.4-1.3-2.1-.6-.6-1.1-1.2-1.7-1.6-.8-.5-1.7-1-2.9-1.8m23.5 13.6l-4-2.3v11c0 1.3-.2 2.1-.7 2.4-.5.3-1.2.2-2.2-.4-1-.6-1.7-1.3-2.2-2.1-.4-.9-.7-1.9-.7-3.1v-11l-4-2.3v11.2c0 2.2.6 4.2 1.7 6 1.1 1.8 2.8 3.4 5.1 4.7 2.2 1.3 3.9 1.7 5.1 1.2 1.2-.5 1.7-1.8 1.7-4l.2-11.3m17.1 9.9l-4.3-2.5-3.2 5-3.3-8.7-4.5-2.6 5.7 14.3v6.6l3.9 2.3v-6.9l5.7-7.5m-9.5 20.4l3.8 12.9 7.6 26.1 3.5-8.4 13.5 22.6 6.4-4-13.7-22.9 8.3-.4-18.9-16.7-10.5-9.2"/></g></g></svg>