<svg id="Capa_1" xmlns="http://www.w3.org/2000/svg" xmlns:xlink="http://www.w3.org/1999/xlink" viewBox="-46.4 0 721.5 550"><style>.st0{fill:#d8d6d4}.st1{enable-background:new}.st2{clip-path:url(#SVGID_2_)}.st3{fill:#c4c4c4}.st4{fill:#474747}.st5{fill:#fff}.st6{clip-path:url(#SVGID_4_)}.st7{fill:gray}.st8{fill:#ff8066}.st9{fill:#ffb944}.st10{fill:#d2d3d5}.st11{fill:#b8da1b}.st12{fill:#00c4ef}.st13{clip-path:url(#SVGID_6_)}.st14{fill:#333}.st15{fill:#e09717}.st16{clip-path:url(#SVGID_8_)}.st17{fill:#1e1e1e}.st18{fill:#686868}.st19{fill:#282828}.st20{fill:#c6c6c6}.st21{fill:#e1e2e0}.st22{fill:none}.st23{clip-path:url(#SVGID_10_)}.st24{fill:#d2d3d1}.st25{clip-path:url(#SVGID_12_)}.st26{fill:#ededed}</style><g id="DESIGNED_BY_FREEPIK"><path class="st0" d="M141.8 529.1c-1.2.7-2.6.6-2.6.6s-.8 0-2-.6c0 0-119.5-68.9-120.2-69.4-1.2-1-1.3-1.8-1.3-1.8v5.1c0 .9.3 1.5.8 1.8 10.7 6.1 120.4 68.5 120.7 68.7 1.1.6 2 .6 2 .6s1.6 0 2.6-.6c.3-.2 167.1-95.8 177-101.8.7-.4.7-1.2.7-1.2v-6L141.8 529.1z"/><g class="st1"><defs><path id="SVGID_1_" d="M13.6 457.9L195.9 352l125.7 72.6-182.3 105.9z"/></defs><clipPath id="SVGID_2_"><use xlink:href="#SVGID_1_" overflow="visible"/></clipPath><g class="st2"><path class="st3" d="M27.7 458.4c-1.9-1.1-1.9-2.8 0-3.9l163.7-95.1c1.9-1.1 4.9-1.1 6.8 0l110.8 64c1.9 1.1 1.9 2.8 0 3.9l-163.7 95.1c-1.9 1.1-4.9 1.1-6.8 0l-110.8-64M318 422.5l-118.5-68.4c-2-1.2-5.2-1.2-7.2 0L17.2 455.8c-2 1.2-2 3 0 4.2l118.5 68.4c2 1.2 5.2 1.2 7.2 0L318 426.7c2-1.2 2-3 0-4.2"/><path class="st4" d="M33 456.9l162-94.1 108.7 62.8-162 94.1L33 456.9m275.9-33.6l-110.8-64c-1.9-1.1-4.9-1.1-6.8 0L27.7 454.5c-1.9 1.1-1.9 2.8 0 3.9l110.8 64c1.9 1.1 4.9 1.1 6.8 0L309 427.2c1.8-1.1 1.8-2.8-.1-3.9"/><path class="st5" d="M303.7 425.5L195 362.8 33 456.9l108.7 62.8 162-94.2"/></g></g><g class="st1"><defs><path id="SVGID_3_" d="M46 457.9l147.5-85.7 93.9 54.2-147.5 85.7z"/></defs><clipPath id="SVGID_4_"><use xlink:href="#SVGID_3_" overflow="visible"/></clipPath><g class="st6"><path class="st7" d="M105.9 429.8l-5.8-3.3L46 457.9l5.8 3.4 54.1-31.5"/><path class="st8" d="M224.2 389.9l-22.5-13-147.5 85.8 22.4 12.9 147.6-85.7"/><path class="st9" d="M148.4 463L126 450l-46.7 27.1 22.4 13 46.7-27.1"/><path class="st7" d="M116 487.7l-2-1.1-9.2 5.3 2.1 1.2 9.1-5.4"/><path class="st10" d="M138.7 478.3l-2-1.2-28.6 16.6 2 1.2 28.6-16.6m13.3-4l-2-1.2-38.7 22.5 2 1.2 38.7-22.5m-.5 4l-2-1.2-35 20.3 2 1.2 35-20.3m8.3-1.2l-2-1.1-40.1 23.3 2 1.2 40.1-23.4m7.2-.4l-2-1.2-44.1 25.6 2 1.2 44.1-25.6m3.2 1.8l-2-1.2-44.1 25.7 2 1.2 44.1-25.7M134.3 505l-2-1.2-3.4 2 2 1.2 3.4-2m4.1-2.4l-2-1.2-3.4 2 2 1.2 3.4-2m4.1-2.4l-2-1.1-3.4 1.9 2 1.2 3.4-2m4.1-2.3l-2.1-1.2-3.4 2 2.1 1.2 3.4-2m8.1-4.8l-2-1.1-3.4 1.9 2 1.2 3.4-2m4.1-2.3l-2.1-1.2-3.4 2 2.1 1.2 3.4-2m4-2.4l-2-1.2-3.4 2 2 1.2 3.4-2m4.1-2.4l-2-1.1-3.4 1.9 2 1.2 3.4-2m4.1-2.3l-2-1.2-3.4 2 2 1.1 3.4-1.9m4.1-2.4l-2.1-1.2-3.4 2 2.1 1.2 3.4-2m-31.2 28.4l-2-1.1-4.1 2.3 2.1 1.2 4-2.4m4.9-2.8l-2.1-1.1-4 2.3 2 1.2 4.1-2.4m4.6-2.7l-2-1.2-4.1 2.4 2.1 1.2 4-2.4m4.7-2.7l-2-1.2-4.1 2.4 2.1 1.2 4-2.4m4.7-2.7l-2-1.2-4.1 2.4 2 1.1 4.1-2.3m4.7-2.8l-2-1.1-4.1 2.3 2 1.2 4.1-2.4m4.7-2.7l-2.1-1.1-4 2.3 2 1.2 4.1-2.4m4.7-2.7l-2.1-1.2-4 2.4 2 1.2 4.1-2.4m4.6-2.7l-2-1.2-4.1 2.4 2.1 1.1 4-2.3m2.5-1.4l-2-1.2-2 1.1 2 1.2 2-1.1m-43 19.6l-2-1.2-5.8 3.4 2.1 1.2 5.7-3.4m6.5-3.7l-2-1.2-5.8 3.3 2 1.2 5.8-3.3m6.4-3.8l-2-1.2-5.8 3.4 2 1.2 5.8-3.4m6.5-3.7l-2.1-1.2-5.7 3.4 2 1.1 5.8-3.3m6.4-3.8l-2-1.1-5.8 3.3 2 1.2 5.8-3.4m6.5-3.7l-2.1-1.2-5.7 3.4 2 1.1 5.8-3.3m6.1-3.6l-2-1.2-5.5 3.2 2 1.2 5.5-3.2"/><path class="st7" d="M164.7 459.5l-2.1-1.2-9.1 5.3 2 1.2 9.2-5.3"/><path class="st10" d="M187.3 450l-2-1.1-28.6 16.6 2 1.2 28.6-16.7m13.3-4l-2-1.2-38.7 22.5 2 1.2 38.7-22.5m-.5 4l-2-1.2-35 20.4 2 1.2 35-20.4m8.3-1.1l-2-1.2-40.1 23.3 2 1.2 40.1-23.3m7.3-.5l-2.1-1.2-44.1 25.7 2 1.2 44.2-25.7m3.2 1.9l-2.1-1.2-44.1 25.6 2 1.2 44.2-25.6M183 476.7l-2.1-1.2-3.4 2 2.1 1.2 3.4-2m4-2.4l-2-1.1-3.4 2 2 1.1 3.4-2m4.1-2.3l-2-1.2-3.4 2 2 1.2 3.4-2m4.1-2.4l-2-1.2-3.5 2 2.1 1.2 3.4-2m8.1-4.7l-2-1.2-3.4 2 2 1.2 3.4-2m4.1-2.4l-2-1.2-3.4 2 2 1.2 3.4-2m4.1-2.4l-2.1-1.1-3.4 2 2.1 1.1 3.4-2m4-2.3l-2-1.2-3.4 2 2 1.2 3.4-2m4.1-2.4l-2-1.2-3.4 2 2 1.2 3.4-2m4.1-2.4l-2-1.1-3.4 2 2 1.1 3.4-2m-31.1 28.5l-2.1-1.2-4 2.4 2 1.1 4.1-2.3m4.8-2.8l-2-1.2-4.1 2.4 2 1.1 4.1-2.3m4.7-2.7l-2.1-1.2-4 2.3 2 1.2 4.1-2.3m4.7-2.8l-2.1-1.1-4 2.3 2 1.2 4.1-2.4m4.6-2.7l-2-1.2-4.1 2.4 2.1 1.2 4-2.4m4.7-2.7l-2-1.2-4.1 2.4 2 1.2 4.1-2.4m4.7-2.7l-2-1.2-4.1 2.4 2 1.1 4.1-2.3m4.7-2.8l-2-1.1-4.1 2.3 2 1.2 4.1-2.4m4.7-2.7l-2.1-1.1-4 2.3 2 1.2 4.1-2.4m2.4-1.4l-2-1.2-2 1.2 2 1.2 2-1.2m-42.9 19.6l-2.1-1.1-5.7 3.3 2 1.2 5.8-3.4m6.4-3.7l-2-1.2-5.8 3.4 2 1.1 5.8-3.3m6.5-3.8l-2.1-1.1-5.7 3.3 2 1.2 5.8-3.4m6.4-3.7l-2-1.2-5.8 3.4 2 1.2 5.8-3.4m6.4-3.7l-2-1.2-5.8 3.3 2.1 1.2 5.7-3.3m6.5-3.8l-2-1.2-5.8 3.4 2 1.2 5.8-3.4m6.1-3.6l-2-1.1-5.5 3.2 2.1 1.1 5.4-3.2"/><path class="st7" d="M217.3 428.9l-2-1.2-9.2 5.3 2.1 1.2 9.1-5.3"/><path class="st10" d="M240 419.4l-2.1-1.1-28.6 16.6 2.1 1.2 28.6-16.7m13.3-4l-2.1-1.1-38.7 22.4 2.1 1.2 38.7-22.5m-.5 4l-2-1.2-35.1 20.4 2.1 1.2 35-20.4m8.3-1.1l-2-1.2-40.2 23.3 2.1 1.2 40.1-23.3m7.2-.5l-2-1.2-44.1 25.7 2 1.2 44.1-25.7m3.2 1.9l-2-1.2-44.2 25.6 2.1 1.2 44.1-25.6m-35.9 26.4l-2-1.2-3.4 2 2 1.2 3.4-2m4.1-2.3l-2-1.2-3.4 2 2 1.1 3.4-1.9m4.1-2.4l-2.1-1.2-3.4 2 2.1 1.2 3.4-2m4-2.4l-2-1.2-3.4 2 2 1.2 3.4-2m8.2-4.7l-2.1-1.2-3.4 2 2.1 1.2 3.4-2m4-2.4l-2-1.2-3.4 2 2 1.2 3.4-2m4.1-2.4l-2-1.1-3.4 2 2 1.1 3.4-2m4.1-2.3l-2-1.2-3.4 2 2 1.2 3.4-2m4.1-2.4l-2.1-1.2-3.4 2 2.1 1.2 3.4-2m4-2.4l-2-1.1-3.4 2 2 1.1 3.4-2m-31.1 28.5l-2-1.2-4.1 2.4 2 1.1 4.1-2.3m4.8-2.8l-2-1.2-4.1 2.4 2.1 1.1 4-2.3m4.7-2.7l-2-1.2-4.1 2.3 2.1 1.2 4-2.3m4.7-2.8l-2-1.1-4.1 2.3 2 1.2 4.1-2.4m4.7-2.7l-2-1.2-4.1 2.4 2 1.2 4.1-2.4m4.7-2.7l-2.1-1.2-4 2.4 2 1.2 4.1-2.4m4.7-2.7l-2.1-1.2-4.1 2.4 2.1 1.1 4.1-2.3m4.6-2.8l-2-1.1-4.1 2.3 2.1 1.2 4-2.4m4.7-2.7l-2-1.1-4.1 2.3 2 1.2 4.1-2.4m2.5-1.4l-2.1-1.2-1.9 1.2 2 1.2 2-1.2m-43 19.6l-2-1.1-5.8 3.3 2 1.2 5.8-3.4m6.5-3.7l-2.1-1.2-5.7 3.4 2 1.2 5.8-3.4m6.4-3.7l-2-1.2-5.8 3.3 2 1.2 5.8-3.3m6.4-3.8l-2-1.2-5.8 3.4 2.1 1.2 5.7-3.4m6.5-3.7l-2-1.2-5.8 3.3 2 1.2 5.8-3.3m6.4-3.8l-2-1.1-5.8 3.3 2.1 1.2 5.7-3.4m6.2-3.6l-2-1.1-5.5 3.2 2 1.1 5.5-3.2"/><path class="st11" d="M249.3 404.3l-22.5-12.9-46.1 26.8 22.4 13 46.2-26.9"/><path class="st12" d="M200.4 432.7L178 419.8l-49.2 28.5 22.5 13 49.1-28.6"/></g></g><g class="st1"><defs><path id="SVGID_5_" d="M225.3 352.6l52.8-30.7 107.3 62-52.9 30.7z"/></defs><clipPath id="SVGID_6_"><use xlink:href="#SVGID_5_" overflow="visible"/></clipPath><g class="st13"><path class="st14" d="M287 327c-4.7-2.7-12.4-2.7-17.2 0l-35.4 20.3c-4.8 2.7-4.8 7.2 0 10l89.2 52.2h.1c4.7 2.7 12.4 2.7 17.2 0l35.4-20.3c4.8-2.7 4.8-7.2.1-10L287 327c0 .1 0 0 0 0"/></g></g><g class="st1"><defs><path id="SVGID_7_" d="M225.1 348.2l52.9-30.8 107.2 62-52.8 30.7z"/></defs><clipPath id="SVGID_8_"><use xlink:href="#SVGID_7_" overflow="visible"/></clipPath><g class="st16"><path class="st4" d="M356 388.5c-2.4-1.4-6.2-1.4-8.6 0-1.1.7-1.8 1.5-1.8 2.5 0 .9.6 1.8 1.8 2.5l-.3.2.4-.2c2.4 1.4 6.2 1.4 8.6 0 1.1-.7 1.8-1.5 1.8-2.5-.1-.9-.8-1.8-1.9-2.5m-98.8-52.2c-.3-.2-.3-.4 0-.6.3-.2.8-.2 1 0 .3.2.3.4 0 .6-.3.2-.7.2-1 0m89.5 57.6c-1.3-.8-2.1-1.8-2.1-2.9 0-1.1.7-2.1 2.1-2.9 2.8-1.6 7.2-1.6 10 0 1.4.8 2.1 1.8 2.1 2.9 0 1.1-.8 2.1-2.1 2.9-2.8 1.6-7.3 1.6-10 0m-94.1-51.2c-.1 0-.1 0 0 0-1.4-.8-1.4-2.1 0-2.9l11.7-6.7c1.4-.8 3.6-.8 4.9 0 1.4.8 1.3 2.1 0 2.9l-11.7 6.7c-1.4.8-3.6.8-4.9 0m67.4 58.4l-79.4-46.4 49.4-28.3 79.4 46.4-49.4 28.3m-33.2-78.5c-4.7-2.7-12.4-2.7-17.2 0l-35.4 20.3c-4.8 2.7-4.8 7.2-.1 10l89.2 52.2c4.7 2.7 12.5 2.8 17.2 0l35.4-20.3c4.8-2.7 4.8-7.2.1-10l-89.2-52.2c.1 0 0 0 0 0"/><path class="st5" d="M314.2 395.1l-1.8-1 23.7-13.6 1.7 1-23.6 13.6m-3.2-1.9l-1.8-1 26.8-15.4 1.8 1-26.8 15.4m-62.1-36.3l-2.9-1.7 27-15.5 2.9 1.7-27 15.5m70.8 41.4l-1.8-1 29-16.7 1.8 1-29 16.7m-2.7-1.6l-1.8-1 32.1-18.4 1.8 1-32.1 18.4m-10.3-6l-12.4-7.2 44.8-25.7 12.4 7.3-44.8 25.6m-14.2-8.3l-12.4-7.3 44.8-25.7 12.4 7.2-44.8 25.8m-14.3-8.4l-12.4-7.2 44.8-25.7 12.4 7.2-44.8 25.7m-14.1-8.2l-12.4-7.3 44.8-25.7 12.4 7.3-44.8 25.7m25.9-39.5l-49.4 28.3L320 401l49.4-28.3-79.4-46.4"/><path class="st17" d="M347 393.7l.3-.2c-1.1-.7-1.8-1.6-1.8-2.5 0-.9.6-1.8 1.8-2.5 2.4-1.4 6.2-1.3 8.6 0 1.1.7 1.8 1.6 1.8 2.5 0 .9-.6 1.8-1.8 2.5-2.4 1.4-6.2 1.4-8.6 0l-.3.2m9.7-5.6c-2.8-1.6-7.2-1.6-10 0-1.3.8-2.1 1.8-2.1 2.9 0 1.1.7 2.1 2.1 2.9 2.8 1.6 7.2 1.6 10 0 1.3-.8 2.1-1.8 2.1-2.9 0-1.1-.8-2.1-2.1-2.9"/><path class="st18" d="M269.2 333.1c-1.4-.8-3.6-.8-4.9 0l-11.7 6.7c-1.4.8-1.4 2.1 0 2.9 1.4.8 3.6.8 4.9 0l11.7-6.7c1.3-.8 1.4-2.1 0-2.9m-11 2.6c-.3-.2-.8-.2-1 0-.3.2-.3.4 0 .6.3.2.8.2 1 0 .3-.1.3-.4 0-.6"/><path class="st7" d="M273 339.8l-26.9 15.5 2.8 1.6 27-15.5-2.9-1.6"/><path class="st8" d="M296.4 332.8l-44.7 25.7 12.4 7.3 44.7-25.7-12.4-7.3"/><path class="st9" d="M310.5 341.1l-44.7 25.7 12.4 7.2 44.7-25.7-12.4-7.2"/><path class="st12" d="M324.9 349.4l-44.8 25.7 12.4 7.3 44.8-25.7-12.4-7.3"/><path class="st11" d="M339.1 357.8l-44.8 25.7 12.4 7.2 44.8-25.7-12.4-7.2"/><path class="st7" d="M336 376.8l-26.8 15.4 1.8 1 26.8-15.4-1.8-1"/><path class="st10" d="M336.2 380.4L312.4 394l1.8 1.1 23.7-13.6-1.7-1.1m11.1-3.1l-32.1 18.4 1.8 1 32.1-18.4-1.8-1m-.3 3.3l-29 16.7 1.7 1 29.1-16.7-1.8-1"/></g></g><path class="st14" d="M230.7 347.9c.1-.2-.1 2.3 2.6 4.1 2.4 1.6 2.7 1.7 2.7 1.7l-.2 4.3s-2.1-1-3.2-2.1c-.3-.4-1.4-1.1-1.7-3.4 0-.7-.2-4.6-.2-4.6zm148.9 31.4c-.1-.2 0 3-3 4.9l-2.8 1.7.7 4.4s2.3-1 3.5-2.1c.4-.4 1.5-1.2 1.9-3.6 0-.8-.3-5.3-.3-5.3z"/><path class="st19" d="M332.5 411.5s3.1 0 4.9-.6c2.7-.7 5.7-2.7 5.7-2.7s.1-4.1 0-4.5c0 0-3.4 2-5.3 2.6-2 .6-4.6.7-4.6.7h-1.7s-1.6-.1-4-.5c-2.3-.4-5.9-2.7-5.9-2.7-.1.4-.6 4-.6 4s3.5 2.4 6.2 3c1.6.5 4.3.6 4.3.6h1z"/><path class="st20" d="M447.7 324c-1.5-11.8-6.2-47.3-6.2-47.3l-33.2-20.3 6.3 46s.2 5.8-2.2 6.8c-1.7.7-34.8 5.4-50.5 8.1-3 .5-3.9 1.2-4.4 2-1.3 2 1.4 3.6 1.4 3.6l45.1 26s2.5 1.8 4.9 2.1c2.5.3 3.8-.9 3.8-.9 8.3-5.9 30.9-16.2 33.2-18.4 1.6-1.6 1.8-5.3 1.8-7.7z"/><path class="st21" d="M446.7 323.3l-6.2-47.3-33.2-20.3 6.3 46s.2 5.8-2.2 6.8c-1.7.7-34.8 5.4-50.5 8.1-3 .5-3.9 1.2-4.4 2-1.3 2 1.4 3.6 1.4 3.6l45.1 26s2.5 1.8 4.9 2.1c2.5.3 3.8-.9 3.8-.9 8.3-5.9 30.9-16.2 33.2-18.4 1.6-1.6 1.8-5.3 1.8-7.7z"/><path class="st22" d="M413.6 301.7l-6.3-46 39.7 23-.5 42.1z"/><g class="st1"><defs><path id="SVGID_9_" d="M305.7 212.8l.6-195.9L557 161.6l-.6 195.9z"/></defs><clipPath id="SVGID_10_"><use xlink:href="#SVGID_9_" overflow="visible"/></clipPath><g class="st23"><path class="st24" d="M547 155.9L316.3 22.7c-5.5-3.2-10-.6-10 5.7l-.5 172.9c0 6.4 4.4 14.1 10 17.3l230.7 133.2c5.5 3.2 10 .6 10-5.7l.5-172.9c0-6.4-4.5-14.1-10-17.3"/></g></g><g class="st1"><defs><path id="SVGID_11_" d="M299.1 218.9l.5-195.9 250.7 144.7-.5 196z"/></defs><clipPath id="SVGID_12_"><use xlink:href="#SVGID_11_" overflow="visible"/></clipPath><g class="st25"><path class="st26" d="M301.9 179.8l.4-141.9c0-6.2 4.4-8.7 9.8-5.6l225.7 130.3c5.4 3.1 9.8 10.7 9.8 16.9l-.4 141.9-245.3-141.6M540.3 162L309.6 28.8c-5.5-3.2-10-.6-10 5.7l-.5 172.9c0 6.4 4.4 14.1 10 17.3l230.7 133.2c5.5 3.2 10 .6 10-5.7l.5-172.9c0-6.4-4.5-14.1-10-17.3"/><path class="st4" d="M310.5 180.1l.4-137.7L539 174.1l-.4 137.7-228.1-131.7m227.3-17.5L312.1 32.3c-5.4-3.1-9.8-.6-9.8 5.6l-.4 141.9 245.3 141.6.4-141.9c0-6.2-4.4-13.7-9.8-16.9"/><path class="st5" d="M316.4 176.9v-3.4l59 34v3.4l-59-34m71.5 41.3v-3.4l59 34v3.4l-59-34m77.3 44.6v-3.4l59 34v3.4l-59-34m-148.8-91.2v-3.4l51.5 29.7v3.4l-51.5-29.7m71.5 41.2v-3.4l51.5 29.7v3.4l-51.5-29.7m77.3 44.7v-3.4l51.5 29.7v3.4l-51.5-29.7m-148.8-91.3v-3.4l56.8 32.8v3.4l-56.8-32.8m71.5 41.2V204l56.8 32.8v3.4l-56.8-32.8m77.3 44.7v-3.4l56.8 32.8v3.4l-56.8-32.8m-148.7-91.3v-3.4l42 24.3v3.4l-42-24.3m71.4 41.3v-3.4l42 24.3v3.4l-42-24.3m77.3 44.6v-3.4l42 24.3v3.4l-42-24.3m-148.7-91.3V152l13.5 7.8v3.4l-13.5-7.8m71.4 41.3v-3.4l13.5 7.8v3.4l-13.5-7.8m77.4 44.6v-3.4l13.5 7.8v3.4l-13.5-7.8m-148.8-94.5l.1-37.6 68.6 39.6-.1 37.6-68.6-39.6m72.8 42l.1-37.6 72.2 41.7-.1 37.6-72.2-41.7m76.2 44l.1-37.6 67.8 39.1-.1 37.6-67.8-39.1M316.6 104.7l.1-37.6 216.8 125.2-.1 37.6-216.8-125.2m.1-41.7v-9.7l79.5 45.9v9.7L316.7 63M539 174.1L310.9 42.4l-.4 137.7 228.1 131.7.4-137.7"/><path class="st7" d="M396.2 99.2l-79.4-45.9-.1 9.7 79.5 45.9v-9.7"/><path class="st8" d="M533.5 192.3L316.7 67.1l-.1 37.6 216.8 125.2.1-37.6"/><path class="st9" d="M385.2 148.8l-68.6-39.6-.1 37.6 68.6 39.6.1-37.6"/><path class="st7" d="M329.9 159.8l-13.4-7.8v3.4l13.4 7.8v-3.4"/><path class="st10" d="M358.5 181.7l-42-24.3v3.4l42 24.3v-3.4m14.8 13.9l-56.8-32.8-.1 3.4 56.9 32.8v-3.4m-5.4 2.3l-51.5-29.7v3.4l51.5 29.7v-3.4m7.5 9.7l-59-34.1v3.4l59 34.1v-3.4"/><path class="st7" d="M401.4 201.1l-13.5-7.8v3.4l13.5 7.8v-3.4"/><path class="st10" d="M429.9 222.9l-42-24.2v3.4l42 24.2v-3.4m14.8 14L387.9 204v3.4l56.8 32.9v-3.4m-5.4 2.2l-51.4-29.7v3.4l51.4 29.7v-3.4m7.5 9.7l-58.9-34v3.4l58.9 34v-3.4"/><path class="st7" d="M478.7 245.7l-13.4-7.7v3.3l13.4 7.8v-3.4"/><path class="st10" d="M507.3 267.6l-42-24.3-.1 3.4 42.1 24.3v-3.4m14.8 13.9l-56.9-32.8v3.4l56.9 32.8v-3.4m-5.4 2.3l-51.5-29.7v3.4l51.5 29.7v-3.4m7.5 9.7l-59-34.1v3.4l59 34.1v-3.4"/><path class="st11" d="M533.4 234.3l-67.8-39.1-.1 37.6 67.8 39.1.1-37.6"/><path class="st12" d="M461.6 192.9l-72.2-41.7-.1 37.6 72.2 41.7.1-37.6"/></g></g><path class="st24" d="M302 28.5l5.6-5.1s1.4-1.6 3.5-2c1.6-.2 2.8.2 3.7.6 1.5.6 9.9 5.6 9.9 5.6l-6.3 6.2L310 29s-2.4-1.4-4.7-1.4c-2.2-.1-3.3.9-3.3.9zm247.9 313.8l6.6-3.7v8.3c0 2.8-1.9 5.1-2.3 5.5-.4.4-5.6 4.6-5.6 4.6s.7-.8 1.1-3.5c.2-2.6.2-11.2.2-11.2z"/></g></svg>