<svg id="Capa_2" xmlns="http://www.w3.org/2000/svg" viewBox="-141.2 362.2 246.8 117.7"><style>.st0{fill:none;stroke:#262828;stroke-linecap:round;stroke-linejoin:round;stroke-miterlimit:10}.st1{fill:#51a9bf}.st2{fill:none;stroke:#879191;stroke-width:1.5;stroke-miterlimit:10}.st2,.st3,.st4{stroke-linecap:round;stroke-linejoin:round}.st3{fill:none;stroke-miterlimit:10;stroke:#879191}.st4{stroke:#adbaba}.st4,.st5,.st6{fill:none;stroke-miterlimit:10}.st5{stroke-width:1.5;stroke-linecap:round;stroke-linejoin:round;stroke:#adbaba}.st6{stroke:#879191}.st7,.st8{fill:none;stroke-linecap:round}.st7{stroke-miterlimit:10;stroke:#0a0a0a}.st8{stroke:#879191;stroke-width:.75;stroke-linejoin:round}.st10,.st8,.st9{stroke-miterlimit:10}.st9{stroke-linecap:round;stroke-linejoin:round;fill:#51a9bf;stroke:#262828}.st10{fill:none;stroke:#b2bfbf;stroke-width:1.5}.st11{fill:#879191}.st12{fill:#262828}.st13{fill:#51a9bf;stroke:#000;stroke-width:.75;stroke-linecap:round;stroke-linejoin:round}.st13,.st14,.st15,.st16{stroke-miterlimit:10}.st14{stroke-linecap:round;stroke-linejoin:round;fill:none;stroke:#0a0a0a}.st15,.st16{fill:#51a9bf;stroke:#262828}.st16{stroke:#000;stroke-linecap:round;stroke-linejoin:round}</style><g id="lupa"><path class="st0" d="M-20.1 412.2l1.6 1.5"/><circle class="st1" cx="-32.8" cy="401.3" r="13.2"/><circle class="st0" cx="-32.6" cy="401.3" r="16.6"/><circle class="st0" cx="-32.8" cy="401.3" r="11.6"/><path class="st0" d="M-22.1 414.2l1.6 1.5m14.8 13.9c-.9.9-2.3.9-3.2.1l-11-10.7c-.9-.9-.9-2.3-.1-3.2l1.1-1.1c.9-.9 2.3-.9 3.2-.1l11 10.7c.9.9.9 2.3.1 3.2l-1.1 1.1zM-19 420l4.4-4.4m4.1 12.5l4.2-4.2"/></g><path class="st2" d="M-5.9 406.1v5.9m2.9-3h-5.8"/><path class="st3" d="M6.6 379.6l-4.2 4.1m4.2 0l-4.1-4.1m15.5-8.7l-4.2 4.1"/><path class="st3" d="M17.9 375l-4.1-4.1" id="cruz"/><path class="st0" d="M58.8 406.6l-4.2 4.1m4.2.1l-4.1-4.2"/><path class="st4" d="M66.4 460.3l-4.2 4.1m4.2.1l-4.2-4.2"/><path class="st0" d="M27.8 404.9v5.9m3-3h-5.9m-7.7 39.7v5.9m2.9-2.9h-5.9"/><path class="st2" d="M-44 423.1v5.9m3-2.9h-5.9m21 28.5v5.9m2.9-2.9h-5.8"/><path class="st5" d="M-116.4 443.4v5.9m3-3h-5.9m48.8 12v5.9m3-2.9h-5.9m26.3-23.1l-4.2 4m4.1.1l-4-4.3"/><path class="st2" d="M-110.6 457.6l-4.2 4.1m4.2 0l-4.2-4.1"/><path class="st3" d="M-91.5 393.6v5.9m3-2.9h-5.9m71.9-22.8v5.9m3-3h-5.9"/><path class="st6" d="M-6.4 387.9v1.9m1.8.5l1.5-1.3m-1 3.2l1.9-.1m-4.2 4.2v-2m1.8-.4l1.5 1.2m-4.9-4.8l-1.4-1.3m.9 3.2l-1.9-.1m2.4 1.8l-1.4 1.2"/><path class="st7" d="M43.7 385.2l1.5-1.3m-1.5 4.9l1.5 1.3m-4.8-4.9l-1.5-1.3m1.5 4.9l-1.5 1.3"/><path class="st3" d="M-17.9 439.4l1.5-1.3m-1.5 4.9l1.5 1.2m-4.8-4.8l-1.5-1.3m1.5 4.9l-1.5 1.2"/><path class="st2" d="M-71.6 424.3l1.4-1.3m-1.4 4.9l1.4 1.2m-4.8-4.8l-1.5-1.3m1.5 4.9l-1.5 1.2"/><path class="st3" d="M-93.9 460.3l1.4-1.3m-1.4 4.9l1.4 1.2m-4.8-4.8l-1.5-1.3m1.5 4.9l-1.5 1.2"/><path class="st0" d="M75.8 413.8l1.5-1.3m-1.5 4.9l1.5 1.3m-4.9-4.9l-1.4-1.3m1.4 4.9l-1.4 1.3" id="giro"/><path class="st3" d="M18.2 381.6v2m1.8.5l1.5-1.3m-1 3.1h1.9m-4.2 4.2v-2m1.8-.5l1.5 1.3m-4.9-4.8l-1.5-1.3m1 3.1h-1.9m2.4 1.7l-1.5 1.3"/><path class="st0" d="M19.9 425.6v2m1.8.5l1.5-1.3m-1 3.1h1.9m-4.2 4.2v-2m1.8-.5l1.5 1.3m-4.9-4.8l-1.5-1.3m1 3.1h-1.9m2.4 1.7l-1.5 1.3"/><path class="st3" d="M-34.5 436.9v1.9m1.8.5l1.5-1.3m-1 3.2h1.9m-4.2 4.1v-1.9m1.8-.5l1.5 1.3m-4.9-4.9l-1.4-1.3m.9 3.2h-1.9m2.4 1.7l-1.4 1.3m-22.4-43.9v1.9m1.8.5l1.5-1.3m-1 3.2l2-.1m-4.3 4.2v-2m1.8-.4l1.5 1.2m-4.8-4.8l-1.5-1.3m.9 3.2l-1.9-.1m2.5 1.8l-1.5 1.2"/><path class="st8" d="M5.3 405.4h9.4m-1.7-1.8l1.7 1.7m-1.7 1.8l1.7-1.7m0 3.6H5.3m1.7-1.8l-1.7 1.7m1.7 1.8L5.3 409"/><path class="st3" d="M15.1 396.8h29.4"/><g id="lineas"><path class="st4" d="M-8.5 439.2c1.5 0 1.5 2 2.9 2 1.5 0 1.5-2 2.9-2 1.5 0 1.5 2 2.9 2 1.5 0 1.5-2 2.9-2 1.5 0 1.5 2 2.9 2 1.5 0 1.5-2 2.9-2 1.5 0 1.5 2 2.9 2 1.5 0 1.5-2 2.9-2 1.5 0 1.5 2 2.9 2 1.5 0 1.5-2 2.9-2"/><path class="st3" d="M-119.6 407.1c1.5 0 1.5 2 2.9 2 1.5 0 1.5-2 2.9-2 1.5 0 1.5 2 2.9 2s1.5-2 2.9-2c1.5 0 1.5 2 2.9 2 1.5 0 1.5-2 2.9-2 1.5 0 1.5 2 2.9 2 1.5 0 1.5-2 2.9-2 1.5 0 1.5 2 2.9 2 1.5 0 1.5-2 2.9-2"/></g><g id="grafico"><path class="st0" d="M53.4 378.9v14.3m0 0h21.8m-19.1-7.3h4v7.3h-4zm6.8-3.6h4v10.9h-4z"/><path class="st9" d="M69 378.2h4v15h-4z"/></g><circle class="st10" cx="-8" cy="375.8" r="2.9"/><circle class="st3" cx="-91.4" cy="384.6" r="2.9" id="circulo"/><circle class="st2" cx="-59.7" cy="425.8" r="2.6"/><circle class="st2" cx="-26.4" cy="470.5" r="2.6"/><circle class="st2" cx="-83.2" cy="461.3" r="2.6"/><circle class="st0" cx="42.2" cy="408.8" r="2.6"/><path transform="rotate(45.571 -77.561 376.718)" class="st4" d="M-79.3 375h3.5v3.5h-3.5z"/><path transform="matrix(.7 .7141 -.7141 .7 263.38 206.343)" class="st3" d="M-115.7 414.9h3.5v3.5h-3.5z"/><path transform="rotate(45.587 6.871 393.916)" class="st4" d="M5.2 392.2h3.4v3.4H5.2z"/><path transform="rotate(45.587 30.672 386.992)" class="st4" d="M29 385.3h3.4v3.4H29z"/><path transform="rotate(47.87 20.65 416.207)" class="st4" d="M19.1 414.6h3.1v3.1h-3.1z"/><path transform="rotate(47.87 29.341 450.452)" class="st4" d="M27.8 448.9h3.1v3.1h-3.1z"/><path transform="rotate(45.587 61.137 419.25)" class="st4" d="M59.4 417.5h3.4v3.4h-3.4z"/><path transform="rotate(45.587 70.88 404.579)" class="st4" d="M69.2 402.9h3.4v3.4h-3.4z"/><path id="cuadrado" transform="rotate(45.587 83.812 431.76)" class="st4" d="M82.1 430h3.4v3.4h-3.4z"/><path class="st4" d="M-69.5 384.6h6.6"/><path class="st3" d="M-77 404.6h8.6m-8.6 3.6h8.6m-14.9-3.6h3.2m-3.2 3.6h3.2m11.3 6.8h8.7m-14.9 0h3.2"/><path class="st4" d="M-69.5 391h6.6m-6.6 3.3h10.6m-10.6-6.7h11.4"/><g id="puntos"><circle class="st11" cx="-62.9" cy="375.9" r=".9"/><circle class="st11" cx="-59.7" cy="375.9" r=".9"/><circle class="st11" cx="-56.5" cy="375.9" r=".9"/><circle class="st11" cx="-53.2" cy="375.9" r=".9"/><circle class="st11" cx="-50" cy="375.9" r=".9"/><circle class="st11" cx="-46.8" cy="375.9" r=".9"/><circle class="st11" cx="-43.5" cy="375.9" r=".9"/><circle class="st11" cx="-40.3" cy="375.9" r=".9"/><circle class="st11" cx="-37" cy="375.9" r=".9"/><circle class="st11" cx="-33.8" cy="375.9" r=".9"/></g><circle class="st12" cx="39.6" cy="451.3" r=".9"/><circle class="st12" cx="42.8" cy="451.3" r=".9"/><circle class="st12" cx="46.1" cy="451.3" r=".9"/><circle class="st12" cx="49.3" cy="451.3" r=".9"/><circle class="st12" cx="52.5" cy="451.3" r=".9"/><circle class="st12" cx="55.8" cy="451.3" r=".9"/><circle class="st12" cx="59" cy="451.3" r=".9"/><circle class="st12" cx="62.2" cy="451.3" r=".9"/><circle class="st12" cx="65.5" cy="451.3" r=".9"/><circle class="st12" cx="68.7" cy="451.3" r=".9"/><path class="st5" d="M-89.7 370.9l2 1.9m4-3.8l-4 3.8"/><path class="st4" d="M-78 385.7l2 1.9m3.9-3.8l-3.9 3.8m-2 4.5l2 2m3.9-3.9l-3.9 3.9"/><path class="st3" d="M-124.3 423h6.6m-6.6 6.4h6.6m-6.6 3.3h10.7m-10.7-6.7h11.5m-20-2l2 2m4-3.8l-4 3.8m-2 4.5l2 2m4-3.9l-4 3.9"/><g id="play"><circle class="st0" cx="-4" cy="461.9" r="10.5"/><circle class="st0" cx="-4" cy="461.9" r="7.9"/><path class="st13" d="M-5.8 465.1v-6.8l5.2 3.6z"/></g><g id="hoja"><path class="st3" d="M-53.6 454.6h7m-7 3.7h9.1m-9.1 3.6h9.1m-9.1 3.6h9.1m-9.1 3.6h9.1" id="lineas_1_"/><path class="st13" d="M-41.4 456.3h-5.2v-5.4z"/><path class="st14" d="M-41.4 472.5h-15.7v-21.6h10.9l4.8 5.2z"/></g><g id="pc"><path class="st0" d="M-82.9 434.8c0 1.1-.9 1.9-1.9 1.9H-103c-1.1 0-1.9-.9-1.9-1.9v-13.7c0-1.1.9-1.9 1.9-1.9h18.2c1.1 0 1.9.9 1.9 1.9v13.7z"/><path class="st15" d="M-104.9 422.2h22v11.6h-22z"/><path class="st0" d="M-96.7 436.7v4.1m6.1-4.1v4.1m-11.5 0h16.4"/></g><g id="regalo"><path class="st16" d="M40.3 426.3h2.9v14.9h-2.9z"/><path class="st14" d="M30.8 426.3h21.8v3.2H30.8zm20.7 3.4v9.7c0 1.1-.9 2-2 2H33.9c-1.1 0-2-.9-2-2v-9.7"/><path class="st7" d="M41.5 426.1v-4.8c-3.3-5.3-10.5.5-5.6 4.8h5.6zm.1.2h4.8c5.3-3.3-.4-10.5-4.8-5v5z"/></g><g id="pesos"><path class="st0" d="M98.5 452.2c0 5.8-4.7 10.5-10.5 10.5s-10.5-4.7-10.5-10.5 4.7-10.5 10.5-10.5c5.8-.1 10.5 4.7 10.5 10.5z"/><circle class="st15" cx="88" cy="452.2" r="7.9"/><path class="st0" d="M90.6 450.2s0-2.3-2.3-2.3c-1.5 0-2.2 1.8-2.1 2.6 0 .8.6 2.2 2.2 2.2 2.1 0 2.2 2.1 2.2 2.1s.1 2.3-2.2 2.3c-1.9 0-2.2-1.8-2.2-2.7m2.2-7.7v1.2m0 9.1v.9"/></g></svg>