<svg id="Capa_1" xmlns="http://www.w3.org/2000/svg" viewBox="105 78.9 806 647"><style>.st0{enable-background:new}.st1{fill:#cfd1d2}.st2{fill:#fff}.st3{fill:#e5e5e6}.st4{fill:#d4585b}.st5{fill:#b23b3d}.st6{fill:#fbfbfb}.st7{fill:#ebc580}.st8{fill:#d9a242}.st9{fill:#e7bd6f}.st10{fill:#9e154e}.st11{fill:#7b3d53}.st12{fill:url(#XMLID_3_)}.st13{fill:#d0a7bd}.st14{fill:#b592a4}.st15{fill:#e2ecf6}.st16{fill:#b78c8e}.st17{fill:#5e3141}.st18{fill:#7c3e54}.st19{fill:#bac0e2}.st20{fill:#77a53a}.st21{fill:#6d648b}.st22{fill:#7388b2}.st23{fill:#aeaeae}.st24{opacity:.73}.st25{fill:#d5d4ee}.st26{fill:#f3f3f3}.st27{fill:#c4c4c3}.st28{fill:#524155}.st29{fill:#3f3342}.st30{fill:#bf9ba8}.st31{fill:#383738}.st32{fill:#835973}.st33{fill:#e9d6d0}.st34{fill:#e2797d}.st35{fill:#b1373b}.st36{fill:#ebf1fd}.st37{fill:#7a8662}.st38{fill:#bacf94}.st39{fill:#586147}.st40{fill:#636e50}.st41{fill:#5f76a2}.st42{fill:#879cc1}.st43{fill:#adc2db}.st44{fill:#d69a53}.st45{fill:#f9ec80}.st46{fill:#f1cb60}.st47{fill:#f9ec39}.st48{fill:#d34949}.st49{fill:#852d87}.st50{fill:#6d6e70}.st51{fill:#434244}.st52{fill:#8c67c4}.st53{fill:#9b71db}.st54{fill:#7456a1}.st55{fill:#db7b2c}.st56{fill:#b52227}.st57{fill:#9e2629}.st58{fill:#df922f}.st59{fill:#d57f3a}.st60{fill:#ab1e23}.st61{fill:#b55050}.st62{fill:#9dbc54}.st63{fill:#b5d960}.st64{fill:#d19f3c}.st65{fill:#f2cf52}.st66{fill:#f9ea6a}.st67{fill:#b9d047}.st68{fill:#753587}.st69{fill:#ae1e24}.st70{fill:#da232b}.st71{fill:#fdf9c0}.st72{fill:#f3d46b}.st73{fill:#becad2}.st74{fill:#f0f1f1}.st75{fill:url(#XMLID_4_)}</style><g id="XMLID_1_"><g id="XMLID_2946_"><g id="XMLID_2947_"><g id="XMLID_2948_" class="st0"><g id="XMLID_2996_"><path id="XMLID_3037_" class="st1" d="M326.8 402.6l-1.7-1-.1-30.7 1.7 1.1z"/></g><g id="XMLID_2966_"><path id="XMLID_2967_" class="st1" d="M291.7 422.9l-1.7-1-.1-34.1 1.7 1z"/></g><g id="XMLID_2962_"><path id="XMLID_2965_" class="st2" d="M291.6 388.8l-1.7-1 38-22 1.8 1.1z"/></g><g id="XMLID_2949_"><path id="XMLID_2956_" class="st3" d="M329.7 366.9l.1 34-3 1.7-.1-30.6-32.1 18.5.1 30.7-3 1.7-.1-34.1z"/></g></g></g><g id="XMLID_2941_"><g id="XMLID_2957_"><path id="XMLID_2961_" class="st4" d="M371.2 397.1L301 437.7v114.8l70.2-40.5z"/><path id="XMLID_2960_" class="st4" d="M295.5 427.4l-17.9-3.2v116.4l17.9-8.3z"/><path id="XMLID_2959_" class="st5" d="M295.5 532.3V427.4l5.5 10.3v114.8z"/><path id="XMLID_2958_" class="st5" d="M277.6 540.6l17.9-8.3 5.5 20.2z"/></g><g id="XMLID_2950_"><path id="XMLID_2955_" class="st6" d="M295.5 427.4l5.5 10.3 70.2-40.6-18.5-2.8-4.9-10.7-70.2 40.6z"/><g id="XMLID_2951_"><path id="XMLID_2954_" class="st7" d="M297.9 425.9l4.9 9 63.8-36.8-16.2-2.5-4.2-9.3-63.8 36.8z"/><path id="XMLID_2953_" class="st8" d="M350.4 395.6v11.8l16.2-9.3z"/><path id="XMLID_2952_" class="st9" d="M346.2 386.3v23.6l4.2-2.5v-11.8z"/></g></g></g><g id="XMLID_3038_"><path id="XMLID_3041_" class="st10" d="M323.8 434.9c1.8-1.1 3.3-.2 3.3 1.9s-1.5 4.6-3.3 5.7c-1.8 1.1-3.3.2-3.3-1.9s1.4-4.6 3.3-5.7z"/></g><g id="XMLID_3040_"><path id="XMLID_3042_" class="st10" d="M358.5 414.9c1.8-1.1 3.3-.2 3.3 1.9s-1.5 4.6-3.3 5.7c-1.8 1.1-3.3.2-3.3-1.9s1.5-4.7 3.3-5.7z"/></g><g id="XMLID_2994_"><g id="XMLID_3002_" class="st0"><g id="XMLID_3035_"><path id="XMLID_3036_" class="st1" d="M358.1 420.7l-1.7-1-.1-30.7 1.8 1z"/></g><g id="XMLID_3013_"><path id="XMLID_3034_" class="st1" d="M323 441l-1.7-1.1-.1-34 1.8 1z"/></g><g id="XMLID_3009_"><path id="XMLID_3011_" class="st2" d="M323 406.9l-1.8-1 38-22 1.8 1z"/></g><g id="XMLID_3004_"><path id="XMLID_3006_" class="st3" d="M361 384.9l.1 34.1-3 1.7V390l-32.2 18.6.1 30.7-3 1.7v-34.1z"/></g></g></g></g><g id="XMLID_1561_"><g id="XMLID_386_"><path id="XMLID_387_" class="st11" d="M564.8 201.3l-141.1-81.5c-6.9-4-13.1-4.3-17.6-1.7l-13.9 8.1c4.5-2.6 10.7-2.2 17.6 1.7l141.1 81.5c13.7 7.9 24.7 27 24.7 42.8l-1 356.4c0 7.8-2.8 13.3-7.2 15.9l13.9-8.1c4.4-2.6 7.2-8.1 7.2-15.9l1-356.4c0-15.8-11-34.9-24.7-42.8z"/><linearGradient id="XMLID_3_" gradientUnits="userSpaceOnUse" x1="418.59" y1="377.87" x2="601.729" y2="358.621"><stop offset=".005" stop-color="#fff" stop-opacity="0"/><stop offset=".307" stop-color="#fcfdfe" stop-opacity=".304"/><stop offset=".548" stop-color="#f2f5f9" stop-opacity=".546"/><stop offset=".768" stop-color="#e1e8f2" stop-opacity=".767"/><stop offset=".974" stop-color="#cad6e8" stop-opacity=".974"/><stop offset="1" stop-color="#c6d3e6"/></linearGradient><path id="XMLID_2487_" class="st12" d="M564.8 201.3l-141.1-81.5c-6.9-4-13.1-4.3-17.6-1.7l-13.9 8.1c4.5-2.6 10.7-2.2 17.6 1.7l141.1 81.5c13.7 7.9 24.7 27 24.7 42.8l-1 356.4c0 7.8-2.8 13.3-7.2 15.9l13.9-8.1c4.4-2.6 7.2-8.1 7.2-15.9l1-356.4c0-15.8-11-34.9-24.7-42.8z"/><g id="XMLID_388_"><g id="XMLID_389_" class="st0"><path id="XMLID_396_" class="st13" d="M551.2 209.2l-141.1-81.5c-6.9-4-13.1-4.3-17.6-1.7l-5.1 3c4.5-2.6 10.7-2.2 17.6 1.7l141.1 81.5c13.7 7.9 24.7 27 24.7 42.8l-1 356.4c0 7.8-2.8 13.3-7.2 15.9l5.1-3c4.4-2.6 7.2-8.1 7.2-15.9l1-356.4c0-15.7-11-34.9-24.7-42.8z"/><g id="XMLID_390_"><path id="XMLID_391_" class="st14" d="M547.9 210.5c13.7 7.9 24.7 27 24.7 42.8l-1 356.4c0 15.7-11.2 22.1-24.9 14.2l-141.1-81.5c-13.7-7.9-24.7-27-24.7-42.8l1-356.4c0-15.7 11.2-22.1 24.9-14.2l141.1 81.5z"/></g></g></g><g id="XMLID_392_"><path id="XMLID_394_" class="st2" d="M540.9 216c12.4 7.2 22.5 24.6 22.4 38.9l-.9 344.9c0 14.3-10.1 20-22.6 12.9l-130-75c-12.4-7.2-22.5-24.6-22.4-38.9l.9-344.9c0-14.3 10.1-20 22.6-12.9l130 75z"/></g></g><g id="XMLID_395_"><path id="XMLID_399_" class="st15" d="M556.8 267.9v305.9l-162.8-94V173.9z"/></g><g id="XMLID_397_"><g id="XMLID_398_"><path id="XMLID_409_" class="st16" d="M586.2 315.2v36.2l-4.5 2.6v-36.2l2.9-1.7z"/></g><g id="XMLID_400_"><path id="XMLID_407_" class="st17" d="M584.6 316.1v34.8l-2.9 1.7v-34.8z"/></g></g><g id="XMLID_401_"><g id="XMLID_404_"><path id="XMLID_405_" class="st16" d="M586.2 368.4v142.8l-7 4V372.5l4.5-2.6z"/></g><g id="XMLID_402_"><path id="XMLID_403_" class="st17" d="M583.7 369.9v140.4l-4.5 2.7V372.5z"/></g></g><g id="XMLID_406_"><g id="XMLID_408_"><path id="XMLID_419_" class="st16" d="M550.8 199.9c-.1.3-.4.6-.8.8-1.2.7-3.2.7-4.4 0-.4-.2-.7-.5-.8-.8-.3-.6 0-1.3.8-1.7 1.2-.7 3.2-.7 4.4 0 .9.5 1.1 1.1.8 1.7z"/></g><g id="XMLID_410_"><path id="XMLID_417_" class="st17" d="M550.8 199.9c-.1.3-.4.6-.8.8-1.2.7-3.2.7-4.4 0-.4-.2-.7-.5-.8-.8.1-.3.4-.6.8-.8 1.2-.7 3.2-.7 4.4 0 .4.3.7.5.8.8z"/></g></g><g id="XMLID_416_"><g id="XMLID_421_"><path id="XMLID_422_" class="st16" d="M441.6 136.9c-.1.3-.4.6-.8.8-1.2.7-3.2.7-4.4 0-.4-.2-.7-.5-.8-.8-.3-.6 0-1.3.8-1.8 1.2-.7 3.2-.7 4.4 0 .8.5 1.1 1.2.8 1.8z"/></g><g id="XMLID_418_"><path id="XMLID_420_" class="st17" d="M441.6 136.9c-.1.3-.4.6-.8.8-1.2.7-3.2.7-4.4 0-.4-.2-.7-.5-.8-.8.1-.3.4-.6.8-.8 1.2-.7 3.2-.7 4.4 0 .4.2.7.5.8.8z"/></g></g><g id="XMLID_411_"><g id="XMLID_414_"><path id="XMLID_415_" class="st16" d="M461.9 147.5c-.3.5-.8 1.1-1.5 1.5-2.3 1.3-6 1.3-8.3 0-.7-.4-1.3-.9-1.5-1.5-.6-1.1-.1-2.4 1.5-3.3 2.3-1.3 6-1.3 8.3 0 1.6.9 2.1 2.1 1.5 3.3z"/></g><g id="XMLID_412_"><path id="XMLID_413_" class="st17" d="M461.9 147.5c-.3.5-.8 1.1-1.5 1.5-2.3 1.3-6 1.3-8.3 0-.7-.4-1.3-.9-1.5-1.5.3-.5.7-1.1 1.5-1.5 2.3-1.3 6-1.3 8.3 0 .7.4 1.2.9 1.5 1.5z"/></g></g><g id="XMLID_423_"><g id="XMLID_424_"><path id="XMLID_425_" class="st16" d="M490.4 205.4c1.5.9 2.8 3 2.8 4.8 0 1.8-1.3 2.5-2.8 1.6l-30-17.3c-1.5-.9-2.8-3-2.8-4.8 0-1.8 1.3-2.5 2.8-1.6l30 17.3z"/></g><g id="XMLID_426_"><path id="XMLID_427_" class="st16" d="M507.2 215.1c1.5.9 2.8 3 2.8 4.8 0 1.8-1.3 2.5-2.8 1.6l-6.3-3.7c-1.5-.9-2.8-3-2.8-4.8 0-1.8 1.3-2.5 2.8-1.6l6.3 3.7z"/></g><g id="XMLID_428_"><g id="XMLID_429_"><path id="XMLID_430_" class="st16" d="M444.7 175.9c2.9 1.7 5.2 5.7 5.2 9s-2.4 4.6-5.2 3c-2.9-1.7-5.2-5.7-5.2-9s2.3-4.6 5.2-3z"/></g><g id="XMLID_431_"><path id="XMLID_432_" class="st18" d="M444.7 178.2c1.8 1 3.2 3.5 3.2 5.6 0 2.1-1.5 2.9-3.3 1.9-1.8-1-3.2-3.5-3.2-5.6.1-2.1 1.5-2.9 3.3-1.9z"/></g></g></g><g id="XMLID_433_"><g id="XMLID_434_"><path id="XMLID_435_" class="st16" d="M473.3 537.2c4.6 2.7 8.3 9.1 8.3 14.4v8.6c0 5.3-3.8 7.4-8.4 4.8l-17.6-10.1c-4.6-2.7-8.3-9.1-8.3-14.4v-8.6c0-5.3 3.8-7.4 8.4-4.8l17.6 10.1z"/></g><g id="XMLID_436_"><path id="XMLID_437_" class="st2" d="M471.2 539.2c3.5 2 6.4 7 6.4 11v6.6c0 4.1-2.9 5.7-6.4 3.7l-13.5-7.8c-3.5-2-6.4-7-6.4-11v-6.6c0-4.1 2.9-5.7 6.4-3.7l13.5 7.8z"/></g></g><path id="XMLID_2850_" class="st19" d="M394 479.8l162.8-211.9v305.9z"/></g><g id="XMLID_385_"><g id="XMLID_1562_" class="st0"><g id="XMLID_2003_"><path id="XMLID_2004_" class="st20" d="M550 530.7v4.5l-29.7 17.2v-4.5z"/></g><g id="XMLID_1603_"><path id="XMLID_2000_" class="st21" d="M520.3 547.9v4.5L365 462.8v-4.5z"/></g><g id="XMLID_1563_"><path id="XMLID_1567_" class="st22" d="M550 530.7l-29.7 17.2L365 458.3l29.7-17.2z"/></g></g></g><g id="XMLID_438_"><g id="XMLID_461_"><path id="XMLID_1560_" class="st23" d="M655.3 669.5v7.9l-37-21.5-5.7-10.5.6.2 30.2 17.1z"/><g id="XMLID_1543_" class="st24"><path id="XMLID_1558_" class="st25" d="M535.5 519.9l-7.4-10.9-3.1-11.2 1.7-5.7 3.9-2.7 8.7 1.5 21.9 11.8 11.3 16.7 54.9 100.4 23.2 14.3 8 7.9 4.3 15-4.3 7.4-5.1 1.4-15.2-7.8-23.9-14.9-21.3-38.4-41.7-76.1z"/><g id="XMLID_1544_"><path id="XMLID_1557_" class="st26" d="M546.7 526l-3.4-1.8v-31.1l3.4 1.8z"/><path id="XMLID_1556_" class="st26" d="M621.3 647.4l-3.4-2.1v-43l3.4 6.2z"/><path id="XMLID_1555_" class="st26" d="M585.3 590.5l-2.2-4.1v-47.8l2.2 4.1z"/><path id="XMLID_1551_" class="st26" d="M532.8 515.9l-2.3-3.3v-23.2h.1l2.2.4z"/><path id="XMLID_1550_" class="st26" d="M576.8 527.2V575L564 551.6v-44.8l8.5 12.6z"/><path id="XMLID_1549_" class="st26" d="M651.6 664.8l-12.8-6.6v-31.4l11.8 7.3 1 .9z"/><path id="XMLID_1545_" class="st26" d="M609.3 634l-5.6-10.1v-47.5l5.6 10.1z"/></g></g><g id="XMLID_1520_"><g id="XMLID_1521_" class="st0"><path id="XMLID_1539_" class="st27" d="M528.5 491.2l2.4-1.4c-2.4 1.4-3.8 4.3-3.8 8.4 0 8.3 5.8 18.4 13 22.6l12.9 7.4-2.4 1.4-13-7.4c-7.2-4.2-13.1-14.3-13-22.6 0-4.2 1.5-7.1 3.9-8.4z"/><path id="XMLID_1538_" class="st23" d="M553 528.1c.2.1.3.3.4.5l62.2 114.5-2.4 1.4L551.1 530c-.1-.2-.3-.4-.4-.5l2.3-1.4z"/><path id="XMLID_1537_" class="st28" d="M530 488.3c2.6-1.5 6.2-1.3 10.2 1l19.2 11.1c4.5 2.6 8.7 7.4 11.3 13l57.4 105.5-2.4 1.4-57.4-105.5c-2.7-5.7-6.8-10.4-11.3-13l-19.2-11.1c-4-2.3-7.6-2.5-10.2-1l2.4-1.4z"/><path id="XMLID_1533_" class="st27" d="M615.6 643.1l33.7 19.5c3.6 2.1 6.9 2.3 9.3.9l-2.4 1.4c-2.4 1.4-5.7 1.2-9.3-.9l-33.7-19.5 2.4-1.4z"/><g id="XMLID_1526_"><path id="XMLID_1527_" class="st29" d="M556.9 501.8c4.5 2.6 8.7 7.4 11.3 13l57.4 105.5c.3.1.5.3.8.4l20.5 11.8c7.9 4.5 14.3 15.6 14.2 24.7 0 9.1-6.5 12.7-14.3 8.2l-34-19.6c-.2-.1-.3-.3-.4-.5l-62.2-114.5-12.7-7.2c-7.9-4.5-14.3-15.6-14.2-24.7 0-9.1 6.5-12.7 14.3-8.2l19.3 11.1zm-19.2 20.4l13 7.4c.2.1.3.3.4.5l62.2 114.5 33.7 19.5c7.2 4.2 13.1.8 13.1-7.5s-5.8-18.4-13-22.6l-20.5-11.8c-.3-.2-.7-.4-1-.5-.2-.1-.4-.3-.5-.5l-57.6-105.8c-2.5-5.3-6.3-9.6-10.4-12l-19.2-11.1c-7.2-4.2-13.1-.8-13.1 7.5-.2 8.1 5.7 18.2 12.9 22.4z"/></g><path id="XMLID_1525_" class="st28" d="M628.1 618.9c.3.1.5.3.8.4l20.5 11.8c7.9 4.5 14.3 15.6 14.2 24.7 0 4.5-1.6 7.7-4.2 9.2l-2.4 1.4c2.6-1.5 4.2-4.7 4.2-9.2 0-9.1-6.4-20.1-14.2-24.7l-20.5-11.8c-.3-.2-.5-.3-.8-.4l2.4-1.4z"/></g></g><g id="XMLID_1515_"><path id="XMLID_1519_" class="st28" d="M526.9 551.1l29.8-17.3-30.5-17.6-29.7 17.2z"/></g><g id="XMLID_1261_"><g id="XMLID_1299_" class="st0"><g id="XMLID_1513_"><path id="XMLID_1514_" class="st30" d="M625.5 686.8l29.9-17.2-30.6-17.7-29.7 17.3z"/></g><g id="XMLID_1508_"><path id="XMLID_1509_" class="st28" d="M595.2 661.3l29.7-17.2-6.9-4-29.7 17.3z"/></g><g id="XMLID_1503_"><path id="XMLID_1507_" class="st29" d="M595.1 669.2l29.7-17.3.1-7.8-29.7 17.2z"/></g><g id="XMLID_1501_"><path id="XMLID_1502_" class="st29" d="M588.3 657.4l29.7-17.3v-7.8l-29.7 17.2z"/></g><g id="XMLID_1496_"><path id="XMLID_1497_" class="st28" d="M588.3 649.5l29.7-17.2-6.8-4-29.7 17.3z"/></g><g id="XMLID_1491_"><path id="XMLID_1495_" class="st28" d="M581.5 637.7l29.7-17.3-6.8-3.9-29.7 17.3z"/></g><g id="XMLID_1489_"><path id="XMLID_1490_" class="st29" d="M581.5 645.6l29.7-17.3v-7.9l-29.7 17.3z"/></g><g id="XMLID_1484_"><path id="XMLID_1485_" class="st28" d="M574.7 625.9l29.7-17.3-6.8-3.9-29.7 17.2z"/></g><g id="XMLID_1479_"><path id="XMLID_1483_" class="st29" d="M574.7 633.8l29.7-17.3v-7.9l-29.7 17.3z"/></g><g id="XMLID_1477_"><path id="XMLID_1478_" class="st29" d="M567.9 621.9l29.7-17.2v-7.9l-29.7 17.3z"/></g><g id="XMLID_1472_"><path id="XMLID_1473_" class="st28" d="M567.9 614.1l29.7-17.3-6.9-3.9-29.7 17.2z"/></g><g id="XMLID_1467_"><path id="XMLID_1471_" class="st28" d="M561.1 602.3l29.7-17.3-6.9-3.9-29.7 17.2z"/></g><g id="XMLID_1465_"><path id="XMLID_1466_" class="st29" d="M561 610.1l29.7-17.2.1-7.9-29.7 17.3z"/></g><g id="XMLID_1460_"><path id="XMLID_1461_" class="st28" d="M554.2 590.4l29.7-17.2-6.8-4-29.7 17.3z"/></g><g id="XMLID_1458_"><path id="XMLID_1459_" class="st29" d="M554.2 598.3l29.7-17.2v-7.9l-29.7 17.2z"/></g><g id="XMLID_1345_"><path id="XMLID_1346_" class="st29" d="M547.4 586.5l29.7-17.3v-7.8l-29.7 17.2z"/></g><g id="XMLID_1315_"><path id="XMLID_1316_" class="st28" d="M547.4 578.6l29.7-17.2-6.8-4-29.7 17.3z"/></g><g id="XMLID_1313_"><path id="XMLID_1314_" class="st28" d="M540.6 566.8l29.7-17.2-6.9-4-29.6 17.3z"/></g><g id="XMLID_1311_"><path id="XMLID_1312_" class="st31" d="M524.7 549.8l2.2 9.9 61.6 113.5 37 21.5v-7.9l-30.4-17.6.1-7.9-6.9-3.9v-7.9l-6.8-3.9v-7.9l-6.8-3.9v-7.9l-6.8-4v-7.8l-6.9-4 .1-7.8-6.9-4v-7.9l-6.8-3.9v-7.9l-6.8-3.9v-7.9l-6.8-3.9V555z"/></g><g id="XMLID_1309_"><path id="XMLID_1310_" class="st29" d="M540.6 574.7l29.7-17.3v-7.8l-29.7 17.2z"/></g><g id="XMLID_1304_"><path id="XMLID_1305_" class="st28" d="M533.8 555l29.6-17.3-6.8-3.9-29.7 17.3z"/></g><g id="XMLID_1302_"><path id="XMLID_1303_" class="st29" d="M533.7 562.9l29.7-17.3v-7.9L533.8 555z"/></g></g></g><g id="XMLID_1163_"><path id="XMLID_1244_" class="st29" d="M562.9 545.9l6.8 4-.2.1-6.8-3.9z"/><path id="XMLID_1217_" class="st29" d="M562 546.5l6.8 3.9-.2.2-6.8-4z"/><path id="XMLID_1216_" class="st29" d="M561.1 547l6.8 4-.2.1-6.8-4z"/><path id="XMLID_1192_" class="st29" d="M560.2 547.5l6.8 4-.3.1-6.7-4z"/><path id="XMLID_1191_" class="st29" d="M559.3 548l6.7 4-.2.2-6.8-4z"/><path id="XMLID_1190_" class="st29" d="M558.3 548.6l6.8 4-.2.1-6.8-4z"/><path id="XMLID_1189_" class="st29" d="M557.4 549.1l6.8 4-.2.1-6.8-4z"/><path id="XMLID_1188_" class="st29" d="M556.5 549.6l6.8 4-.2.1-6.8-3.9z"/><path id="XMLID_1187_" class="st29" d="M555.6 550.2l6.8 3.9-.2.2-6.8-4z"/><path id="XMLID_1186_" class="st29" d="M554.7 550.7l6.8 4-.2.1-6.8-4z"/><path id="XMLID_1185_" class="st29" d="M553.8 551.2l6.8 4-.2.1-6.8-4z"/><path id="XMLID_1184_" class="st29" d="M552.9 551.7l6.8 4-.2.1-6.8-3.9z"/><path id="XMLID_1183_" class="st29" d="M552 552.3l6.8 4-.2.1-6.8-4z"/><path id="XMLID_1182_" class="st29" d="M551.1 552.8l6.8 4-.2.1-6.8-4z"/><path id="XMLID_1181_" class="st29" d="M550.2 553.3l6.8 4-.2.1-6.8-4z"/><path id="XMLID_1180_" class="st29" d="M549.3 553.9l6.8 3.9-.3.2-6.7-4z"/><path id="XMLID_1179_" class="st29" d="M548.4 554.4l6.7 4-.2.1-6.8-4z"/><path id="XMLID_1178_" class="st29" d="M547.4 554.9l6.8 4-.2.1-6.8-4z"/><path id="XMLID_1177_" class="st29" d="M546.5 555.4l6.8 4-.2.1-6.8-3.9z"/><path id="XMLID_1176_" class="st29" d="M545.6 556l6.8 3.9-.2.2-6.8-4z"/><path id="XMLID_1175_" class="st29" d="M544.7 556.5l6.8 4-.2.1-6.8-4z"/><path id="XMLID_1174_" class="st29" d="M543.8 557l6.8 4-.2.1-6.8-4z"/><path id="XMLID_1173_" class="st29" d="M542.9 557.5l6.8 4-.2.1-6.8-3.9z"/><path id="XMLID_1172_" class="st29" d="M542 558.1l6.8 4-.2.1-6.8-4z"/><path id="XMLID_1171_" class="st29" d="M541.1 558.6l6.8 4-.2.1-6.8-4z"/><path id="XMLID_1170_" class="st29" d="M540.2 559.1l6.8 4-.2.1-6.8-3.9z"/><path id="XMLID_1169_" class="st29" d="M539.3 559.7l6.8 3.9-.2.2-6.8-4z"/><path id="XMLID_1168_" class="st29" d="M538.4 560.2l6.8 4-.2.1-6.8-4z"/><path id="XMLID_1167_" class="st29" d="M537.5 560.7l6.8 4-.3.1-6.7-4z"/><path id="XMLID_1166_" class="st29" d="M536.6 561.2l6.7 4-.2.1-6.8-3.9z"/><path id="XMLID_1165_" class="st29" d="M535.6 561.8l6.8 3.9-.2.2-6.8-4z"/><path id="XMLID_1164_" class="st29" d="M534.7 562.3l6.8 4-.2.1-6.8-4z"/></g><g id="XMLID_759_"><path id="XMLID_1161_" class="st29" d="M569.6 557.8l6.8 4-.3.1-6.7-4z"/><path id="XMLID_1160_" class="st29" d="M568.7 558.3l6.7 4-.2.1-6.8-3.9z"/><path id="XMLID_1159_" class="st29" d="M567.7 558.9l6.8 4-.2.1-6.8-4z"/><path id="XMLID_1158_" class="st29" d="M566.8 559.4l6.8 4-.2.1-6.8-4z"/><path id="XMLID_1157_" class="st29" d="M565.9 559.9l6.8 4-.2.1-6.8-3.9z"/><path id="XMLID_1156_" class="st29" d="M565 560.5l6.8 3.9-.2.2-6.8-4z"/><path id="XMLID_1155_" class="st29" d="M564.1 561l6.8 4-.2.1-6.8-4z"/><path id="XMLID_1133_" class="st29" d="M563.2 561.5l6.8 4-.2.1-6.8-4z"/><path id="XMLID_1132_" class="st29" d="M562.3 562l6.8 4-.2.1-6.8-3.9z"/><path id="XMLID_1131_" class="st29" d="M561.4 562.6l6.8 3.9-.2.2-6.8-4z"/><path id="XMLID_1129_" class="st29" d="M560.5 563.1l6.8 4-.2.1-6.8-4z"/><path id="XMLID_1126_" class="st29" d="M559.6 563.6l6.8 4-.2.1-6.8-4z"/><path id="XMLID_1125_" class="st29" d="M558.7 564.2l6.8 3.9-.3.2-6.7-4z"/><path id="XMLID_1124_" class="st29" d="M557.8 564.7l6.8 4-.3.1-6.8-4z"/><path id="XMLID_1123_" class="st29" d="M556.9 565.2l6.7 4-.2.1-6.8-4z"/><path id="XMLID_1122_" class="st29" d="M555.9 565.7l6.8 4-.2.1-6.8-3.9z"/><path id="XMLID_1080_" class="st29" d="M555 566.3l6.8 3.9-.2.2-6.8-4z"/><path id="XMLID_994_" class="st29" d="M554.1 566.8l6.8 4-.2.1-6.8-4z"/><path id="XMLID_859_" class="st29" d="M553.2 567.3l6.8 4-.2.1-6.8-4z"/><path id="XMLID_785_" class="st29" d="M552.3 567.8l6.8 4-.2.1-6.8-3.9z"/><path id="XMLID_783_" class="st29" d="M551.4 568.4l6.8 4-.2.1-6.8-4z"/><path id="XMLID_781_" class="st29" d="M550.5 568.9l6.8 4-.2.1-6.8-4z"/><path id="XMLID_769_" class="st29" d="M549.6 569.4l6.8 4-.2.1-6.8-4z"/><path id="XMLID_768_" class="st29" d="M548.7 570l6.8 3.9-.2.2-6.8-4z"/><path id="XMLID_767_" class="st29" d="M547.8 570.5l6.8 4-.2.1-6.8-4z"/><path id="XMLID_766_" class="st29" d="M546.9 571l6.8 4-.3.1-6.7-4z"/><path id="XMLID_765_" class="st29" d="M546 571.5l6.7 4-.2.1-6.8-3.9z"/><path id="XMLID_764_" class="st29" d="M545 572.1l6.8 3.9-.2.2-6.8-4z"/><path id="XMLID_763_" class="st29" d="M544.1 572.6l6.8 4-.2.1-6.8-4z"/><path id="XMLID_762_" class="st29" d="M543.2 573.1l6.8 4-.2.1-6.8-4z"/><path id="XMLID_761_" class="st29" d="M542.3 573.6l6.8 4-.2.2-6.8-4z"/><path id="XMLID_760_" class="st29" d="M541.4 574.2l6.8 4-.2.1-6.8-4z"/></g><g id="XMLID_715_"><path id="XMLID_758_" class="st29" d="M576.4 569.6l6.8 4-.2.1-6.8-3.9z"/><path id="XMLID_757_" class="st29" d="M575.5 570.2l6.8 3.9-.2.2-6.8-4z"/><path id="XMLID_755_" class="st29" d="M574.6 570.7l6.8 4-.2.1-6.8-4z"/><path id="XMLID_754_" class="st29" d="M573.7 571.2l6.8 4-.3.1-6.7-4z"/><path id="XMLID_753_" class="st29" d="M572.8 571.7l6.7 4-.2.1-6.8-3.9z"/><path id="XMLID_752_" class="st29" d="M571.8 572.3l6.8 4-.2.1-6.8-4z"/><path id="XMLID_748_" class="st29" d="M570.9 572.8l6.8 4-.2.1-6.8-4z"/><path id="XMLID_747_" class="st29" d="M570 573.3l6.8 4-.2.1-6.8-4z"/><path id="XMLID_745_" class="st29" d="M569.1 573.9l6.8 3.9-.2.2-6.8-4z"/><path id="XMLID_742_" class="st29" d="M568.2 574.4l6.8 4-.2.1-6.8-4z"/><path id="XMLID_739_" class="st29" d="M567.3 574.9l6.8 4-.2.1-6.8-4z"/><path id="XMLID_738_" class="st29" d="M566.4 575.4l6.8 4-.2.1-6.8-3.9z"/><path id="XMLID_737_" class="st29" d="M565.5 576l6.8 3.9-.2.2-6.8-4z"/><path id="XMLID_736_" class="st29" d="M564.6 576.5l6.8 4-.2.1-6.8-4z"/><path id="XMLID_735_" class="st29" d="M563.7 577l6.8 4-.2.1-6.8-4z"/><path id="XMLID_734_" class="st29" d="M562.8 577.5l6.8 4-.2.2-6.8-4z"/><path id="XMLID_733_" class="st29" d="M561.9 578.1l6.8 4-.3.1-6.7-4z"/><path id="XMLID_732_" class="st29" d="M561 578.6l6.7 4-.2.1-6.8-4z"/><path id="XMLID_731_" class="st29" d="M560 579.1l6.8 4-.2.1-6.8-3.9z"/><path id="XMLID_730_" class="st29" d="M559.1 579.7l6.8 3.9-.2.2-6.8-4z"/><path id="XMLID_728_" class="st29" d="M558.2 580.2l6.8 4-.2.1-6.8-4z"/><path id="XMLID_727_" class="st29" d="M557.3 580.7l6.8 4-.2.1-6.8-4z"/><path id="XMLID_726_" class="st29" d="M556.4 581.2l6.8 4-.2.1-6.8-3.9z"/><path id="XMLID_725_" class="st29" d="M555.5 581.8l6.8 4-.2.1-6.8-4z"/><path id="XMLID_724_" class="st29" d="M554.6 582.3l6.8 4-.2.1-6.8-4z"/><path id="XMLID_723_" class="st29" d="M553.7 582.8l6.8 4-.2.1-6.8-4z"/><path id="XMLID_722_" class="st29" d="M552.8 583.4l6.8 3.9-.2.2-6.8-4z"/><path id="XMLID_721_" class="st29" d="M551.9 583.9l6.8 4-.2.1-6.8-4z"/><path id="XMLID_719_" class="st29" d="M551 584.4l6.8 4-.3.1-6.7-4z"/><path id="XMLID_718_" class="st29" d="M550.1 584.9l6.7 4-.2.1-6.8-3.9z"/><path id="XMLID_717_" class="st29" d="M549.1 585.5l6.8 3.9-.2.2-6.8-4z"/><path id="XMLID_716_" class="st29" d="M548.2 586l6.8 4-.2.1-6.8-4z"/></g><g id="XMLID_677_"><path id="XMLID_714_" class="st29" d="M583.4 581.3l6.8 4-.2.1-6.8-4z"/><path id="XMLID_713_" class="st29" d="M582.5 581.8l6.8 4-.2.2-6.8-4z"/><path id="XMLID_712_" class="st29" d="M581.6 582.4l6.8 4-.2.1-6.8-4z"/><path id="XMLID_711_" class="st29" d="M580.7 582.9l6.8 4-.2.1-6.8-4z"/><path id="XMLID_710_" class="st29" d="M579.8 583.4l6.8 4-.2.1-6.8-3.9z"/><path id="XMLID_709_" class="st29" d="M578.9 584l6.8 3.9-.2.2-6.8-4z"/><path id="XMLID_707_" class="st29" d="M578 584.5l6.8 4-.2.1-6.8-4z"/><path id="XMLID_706_" class="st29" d="M577.1 585l6.8 4-.2.1-6.8-4z"/><path id="XMLID_705_" class="st29" d="M576.2 585.5l6.8 4-.3.1-6.7-3.9z"/><path id="XMLID_704_" class="st29" d="M575.3 586.1l6.8 3.9-.3.2-6.8-4z"/><path id="XMLID_703_" class="st29" d="M574.4 586.6l6.7 4-.2.1-6.8-4z"/><path id="XMLID_702_" class="st29" d="M573.4 587.1l6.8 4-.2.1-6.8-4z"/><path id="XMLID_701_" class="st29" d="M572.5 587.7l6.8 3.9-.2.2-6.8-4z"/><path id="XMLID_700_" class="st29" d="M571.6 588.2l6.8 4-.2.1-6.8-4z"/><path id="XMLID_699_" class="st29" d="M570.7 588.7l6.8 4-.2.1-6.8-4z"/><path id="XMLID_698_" class="st29" d="M569.8 589.2l6.8 4-.2.1-6.8-3.9z"/><path id="XMLID_695_" class="st29" d="M568.9 589.8l6.8 3.9-.2.2-6.8-4z"/><path id="XMLID_694_" class="st29" d="M568 590.3l6.8 4-.2.1-6.8-4z"/><path id="XMLID_693_" class="st29" d="M567.1 590.8l6.8 4-.2.1-6.8-4z"/><path id="XMLID_692_" class="st29" d="M566.2 591.3l6.8 4-.2.1-6.8-3.9z"/><path id="XMLID_691_" class="st29" d="M565.3 591.9l6.8 4-.2.1-6.8-4z"/><path id="XMLID_690_" class="st29" d="M564.4 592.4l6.8 4-.3.1-6.7-4z"/><path id="XMLID_689_" class="st29" d="M563.5 592.9l6.7 4-.2.1-6.8-4z"/><path id="XMLID_688_" class="st29" d="M562.5 593.5l6.8 3.9-.2.2-6.8-4z"/><path id="XMLID_687_" class="st29" d="M561.6 594l6.8 4-.2.1-6.8-4z"/><path id="XMLID_686_" class="st29" d="M560.7 594.5l6.8 4-.2.1-6.8-4z"/><path id="XMLID_683_" class="st29" d="M559.8 595l6.8 4-.2.1-6.8-3.9z"/><path id="XMLID_682_" class="st29" d="M558.9 595.6l6.8 3.9-.2.2-6.8-4z"/><path id="XMLID_681_" class="st29" d="M558 596.1l6.8 4-.2.1-6.8-4z"/><path id="XMLID_680_" class="st29" d="M557.1 596.6l6.8 4-.2.1-6.8-4z"/><path id="XMLID_679_" class="st29" d="M556.2 597.2l6.8 3.9-.2.2-6.8-4z"/><path id="XMLID_678_" class="st29" d="M555.3 597.7l6.8 4-.2.1-6.8-4z"/></g><g id="XMLID_642_"><path id="XMLID_676_" class="st29" d="M590.3 593.1l6.7 4-.2.1-6.8-3.9z"/><path id="XMLID_675_" class="st29" d="M589.3 593.7l6.8 3.9-.2.2-6.8-4z"/><path id="XMLID_674_" class="st29" d="M588.4 594.2l6.8 4-.2.1-6.8-4z"/><path id="XMLID_672_" class="st29" d="M587.5 594.7l6.8 4-.2.1-6.8-4z"/><path id="XMLID_671_" class="st29" d="M586.6 595.2l6.8 4-.2.1-6.8-3.9z"/><path id="XMLID_670_" class="st29" d="M585.7 595.8l6.8 4-.2.1-6.8-4z"/><path id="XMLID_669_" class="st29" d="M584.8 596.3l6.8 4-.2.1-6.8-4z"/><path id="XMLID_668_" class="st29" d="M583.9 596.8l6.8 4-.2.1-6.8-4z"/><path id="XMLID_667_" class="st29" d="M583 597.4l6.8 3.9-.2.2-6.8-4z"/><path id="XMLID_666_" class="st29" d="M582.1 597.9l6.8 4-.2.1-6.8-4z"/><path id="XMLID_664_" class="st29" d="M581.2 598.4l6.8 4-.2.1-6.8-4z"/><path id="XMLID_663_" class="st29" d="M580.3 598.9l6.8 4-.3.1-6.7-3.9z"/><path id="XMLID_662_" class="st29" d="M579.4 599.5l6.7 3.9-.2.2-6.8-4z"/><path id="XMLID_661_" class="st29" d="M578.4 600l6.8 4-.2.1-6.8-4z"/><path id="XMLID_660_" class="st29" d="M577.5 600.5l6.8 4-.2.1-6.8-4z"/><path id="XMLID_659_" class="st29" d="M576.6 601l6.8 4-.2.1-6.8-3.9z"/><path id="XMLID_658_" class="st29" d="M575.7 601.6l6.8 4-.2.1-6.8-4z"/><path id="XMLID_657_" class="st29" d="M574.8 602.1l6.8 4-.2.1-6.8-4z"/><path id="XMLID_656_" class="st29" d="M573.9 602.6l6.8 4-.2.1-6.8-3.9z"/><path id="XMLID_655_" class="st29" d="M573 603.2l6.8 3.9-.2.2-6.8-4z"/><path id="XMLID_654_" class="st29" d="M572.1 603.7l6.8 4-.2.1-6.8-4z"/><path id="XMLID_653_" class="st29" d="M571.2 604.2l6.8 4-.2.1-6.8-4z"/><path id="XMLID_652_" class="st29" d="M570.3 604.7l6.8 4-.2.1-6.8-3.9z"/><path id="XMLID_651_" class="st29" d="M569.4 605.3l6.8 3.9-.2.2-6.8-4z"/><path id="XMLID_650_" class="st29" d="M568.5 605.8l6.8 4-.3.1-6.7-4z"/><path id="XMLID_649_" class="st29" d="M567.6 606.3l6.7 4-.2.1-6.8-4z"/><path id="XMLID_648_" class="st29" d="M566.6 606.9l6.8 3.9-.2.2-6.8-4z"/><path id="XMLID_647_" class="st29" d="M565.7 607.4l6.8 4-.2.1-6.8-4z"/><path id="XMLID_646_" class="st29" d="M564.8 607.9l6.8 4-.2.1-6.8-4z"/><path id="XMLID_645_" class="st29" d="M563.9 608.4l6.8 4-.2.1-6.8-3.9z"/><path id="XMLID_644_" class="st29" d="M563 609l6.8 3.9-.2.2-6.8-4z"/><path id="XMLID_643_" class="st29" d="M562.1 609.5l6.8 4-.2.1-6.8-4z"/></g><g id="XMLID_608_"><path id="XMLID_641_" class="st29" d="M597.1 605l6.8 3.9-.3.2-6.7-4z"/><path id="XMLID_640_" class="st29" d="M596.2 605.5l6.7 4-.2.1-6.8-4z"/><path id="XMLID_639_" class="st29" d="M595.2 606l6.8 4-.2.1-6.8-4z"/><path id="XMLID_638_" class="st29" d="M594.3 606.5l6.8 4-.2.1-6.8-3.9z"/><path id="XMLID_637_" class="st29" d="M593.4 607.1l6.8 3.9-.2.2-6.8-4z"/><path id="XMLID_636_" class="st29" d="M592.5 607.6l6.8 4-.2.1-6.8-4z"/><path id="XMLID_635_" class="st29" d="M591.6 608.1l6.8 4-.2.1-6.8-4z"/><path id="XMLID_634_" class="st29" d="M590.7 608.6l6.8 4-.2.1-6.8-3.9z"/><path id="XMLID_633_" class="st29" d="M589.8 609.2l6.8 4-.2.1-6.8-4z"/><path id="XMLID_632_" class="st29" d="M588.9 609.7l6.8 4-.2.1-6.8-4z"/><path id="XMLID_631_" class="st29" d="M588 610.2l6.8 4-.2.1-6.8-3.9z"/><path id="XMLID_630_" class="st29" d="M587.1 610.8l6.8 3.9-.2.2-6.8-4z"/><path id="XMLID_629_" class="st29" d="M586.2 611.3l6.8 4-.3.1-6.7-4z"/><path id="XMLID_628_" class="st29" d="M585.3 611.8l6.7 4-.2.1-6.8-4z"/><path id="XMLID_627_" class="st29" d="M584.3 612.3l6.8 4-.2.1-6.8-3.9z"/><path id="XMLID_626_" class="st29" d="M583.4 612.9l6.8 3.9-.2.2-6.8-4z"/><path id="XMLID_625_" class="st29" d="M582.5 613.4l6.8 4-.2.1-6.8-4z"/><path id="XMLID_624_" class="st29" d="M581.6 613.9l6.8 4-.2.1-6.8-4z"/><path id="XMLID_623_" class="st29" d="M580.7 614.5l6.8 3.9-.2.2-6.8-4z"/><path id="XMLID_622_" class="st29" d="M579.8 615l6.8 4-.2.1-6.8-4z"/><path id="XMLID_621_" class="st29" d="M578.9 615.5l6.8 4-.2.1-6.8-4z"/><path id="XMLID_620_" class="st29" d="M578 616l6.8 4-.2.1-6.8-3.9z"/><path id="XMLID_618_" class="st29" d="M577.1 616.6l6.8 3.9-.2.2-6.8-4z"/><path id="XMLID_617_" class="st29" d="M576.2 617.1l6.8 4-.2.1-6.8-4z"/><path id="XMLID_616_" class="st29" d="M575.3 617.6l6.8 4-.2.1-6.8-4z"/><path id="XMLID_615_" class="st29" d="M574.4 618.1l6.8 4-.3.1-6.7-3.9z"/><path id="XMLID_614_" class="st29" d="M573.5 618.7l6.7 4-.2.1-6.8-4z"/><path id="XMLID_613_" class="st29" d="M572.5 619.2l6.8 4-.2.1-6.8-4z"/><path id="XMLID_612_" class="st29" d="M571.6 619.7l6.8 4-.2.1-6.8-4z"/><path id="XMLID_611_" class="st29" d="M570.7 620.3l6.8 3.9-.2.2-6.8-4z"/><path id="XMLID_610_" class="st29" d="M569.8 620.8l6.8 4-.2.1-6.8-4z"/><path id="XMLID_609_" class="st29" d="M568.9 621.3l6.8 4-.2.1-6.8-4z"/></g><g id="XMLID_570_"><path id="XMLID_607_" class="st29" d="M603.7 616.9l6.8 3.9-.2.2-6.8-4z"/><path id="XMLID_603_" class="st29" d="M602.8 617.4l6.8 4-.2.1-6.8-4z"/><path id="XMLID_601_" class="st29" d="M601.9 617.9l6.8 4-.2.1-6.8-4z"/><path id="XMLID_600_" class="st29" d="M601 618.4l6.8 4-.2.1-6.8-3.9z"/><path id="XMLID_599_" class="st29" d="M600.1 619l6.8 3.9-.2.2-6.8-4z"/><path id="XMLID_597_" class="st29" d="M599.2 619.5l6.8 4-.2.1-6.8-4z"/><path id="XMLID_596_" class="st29" d="M598.3 620l6.8 4-.2.1-6.8-4z"/><path id="XMLID_595_" class="st29" d="M597.4 620.5l6.8 4-.2.2-6.8-4z"/><path id="XMLID_594_" class="st29" d="M596.5 621.1l6.8 4-.2.1-6.8-4z"/><path id="XMLID_593_" class="st29" d="M595.6 621.6l6.8 4-.2.1-6.8-4z"/><path id="XMLID_592_" class="st29" d="M594.7 622.1l6.8 4-.2.1-6.8-3.9z"/><path id="XMLID_591_" class="st29" d="M593.8 622.7l6.8 3.9-.3.2-6.7-4z"/><path id="XMLID_590_" class="st29" d="M592.9 623.2l6.7 4-.2.1-6.8-4z"/><path id="XMLID_589_" class="st29" d="M591.9 623.7l6.8 4-.2.1-6.8-4z"/><path id="XMLID_588_" class="st29" d="M591 624.2l6.8 4-.2.1-6.8-3.9z"/><path id="XMLID_587_" class="st29" d="M590.1 624.8l6.8 4-.2.1-6.8-4z"/><path id="XMLID_586_" class="st29" d="M589.2 625.3l6.8 4-.2.1-6.8-4z"/><path id="XMLID_585_" class="st29" d="M588.3 625.8l6.8 4-.2.1-6.8-4z"/><path id="XMLID_584_" class="st29" d="M587.4 626.4l6.8 3.9-.2.2-6.8-4z"/><path id="XMLID_583_" class="st29" d="M586.5 626.9l6.8 4-.2.1-6.8-4z"/><path id="XMLID_582_" class="st29" d="M585.6 627.4l6.8 4-.2.1-6.8-4z"/><path id="XMLID_581_" class="st29" d="M584.7 627.9l6.8 4-.2.1-6.8-3.9z"/><path id="XMLID_580_" class="st29" d="M583.8 628.5l6.8 3.9-.2.2-6.8-4z"/><path id="XMLID_579_" class="st29" d="M582.9 629l6.8 4-.3.1-6.7-4z"/><path id="XMLID_578_" class="st29" d="M582 629.5l6.7 4-.2.1-6.8-4z"/><path id="XMLID_577_" class="st29" d="M581 630l6.8 4-.2.1-6.8-3.9z"/><path id="XMLID_576_" class="st29" d="M580.1 630.6l6.8 4-.2.1-6.8-4z"/><path id="XMLID_575_" class="st29" d="M579.2 631.1l6.8 4-.2.1-6.8-4z"/><path id="XMLID_574_" class="st29" d="M578.3 631.6l6.8 4-.2.1-6.8-3.9z"/><path id="XMLID_573_" class="st29" d="M577.4 632.2l6.8 3.9-.2.2-6.8-4z"/><path id="XMLID_572_" class="st29" d="M576.5 632.7l6.8 4-.2.1-6.8-4z"/><path id="XMLID_571_" class="st29" d="M575.6 633.2l6.8 4-.2.1-6.8-4z"/></g><g id="XMLID_537_"><path id="XMLID_569_" class="st29" d="M610.6 628.7l6.7 4-.2.1-6.8-4z"/><path id="XMLID_568_" class="st29" d="M609.6 629.2l6.8 4-.2.1-6.8-4z"/><path id="XMLID_567_" class="st29" d="M608.7 629.7l6.8 4-.2.1-6.8-3.9z"/><path id="XMLID_566_" class="st29" d="M607.8 630.3l6.8 4-.2.1-6.8-4z"/><path id="XMLID_565_" class="st29" d="M606.9 630.8l6.8 4-.2.1-6.8-4z"/><path id="XMLID_564_" class="st29" d="M606 631.3l6.8 4-.2.1-6.8-4z"/><path id="XMLID_563_" class="st29" d="M605.1 631.9l6.8 3.9-.2.2-6.8-4z"/><path id="XMLID_562_" class="st29" d="M604.2 632.4l6.8 4-.2.1-6.8-4z"/><path id="XMLID_561_" class="st29" d="M603.3 632.9l6.8 4-.2.1-6.8-4z"/><path id="XMLID_560_" class="st29" d="M602.4 633.4l6.8 4-.2.1-6.8-3.9z"/><path id="XMLID_559_" class="st29" d="M601.5 634l6.8 3.9-.2.2-6.8-4z"/><path id="XMLID_558_" class="st29" d="M600.6 634.5l6.8 4-.2.1-6.8-4z"/><path id="XMLID_557_" class="st29" d="M599.7 635l6.8 4-.3.1-6.7-4z"/><path id="XMLID_556_" class="st29" d="M598.8 635.5l6.7 4-.2.1-6.8-3.9z"/><path id="XMLID_555_" class="st29" d="M597.8 636.1l6.8 4-.2.1-6.8-4z"/><path id="XMLID_554_" class="st29" d="M596.9 636.6l6.8 4-.2.1-6.8-4z"/><path id="XMLID_553_" class="st29" d="M596 637.1l6.8 4-.2.1-6.8-3.9z"/><path id="XMLID_552_" class="st29" d="M595.1 637.7l6.8 3.9-.2.2-6.8-4z"/><path id="XMLID_551_" class="st29" d="M594.2 638.2l6.8 4-.2.1-6.8-4z"/><path id="XMLID_550_" class="st29" d="M593.3 638.7l6.8 4-.2.1-6.8-4z"/><path id="XMLID_549_" class="st29" d="M592.4 639.2l6.8 4-.2.1-6.8-3.9z"/><path id="XMLID_548_" class="st29" d="M591.5 639.8l6.8 3.9-.2.2-6.8-4z"/><path id="XMLID_547_" class="st29" d="M590.6 640.3l6.8 4-.2.1-6.8-4z"/><path id="XMLID_546_" class="st29" d="M589.7 640.8l6.8 4-.2.1-6.8-4z"/><path id="XMLID_545_" class="st29" d="M588.8 641.4l6.8 3.9-.3.2-6.7-4z"/><path id="XMLID_544_" class="st29" d="M587.9 641.9l6.8 4-.3.1-6.8-4z"/><path id="XMLID_543_" class="st29" d="M587 642.4l6.7 4-.2.1-6.8-4z"/><path id="XMLID_542_" class="st29" d="M586 642.9l6.8 4-.2.1-6.8-3.9z"/><path id="XMLID_541_" class="st29" d="M585.1 643.5l6.8 3.9-.2.2-6.8-4z"/><path id="XMLID_540_" class="st29" d="M584.2 644l6.8 4-.2.1-6.8-4z"/><path id="XMLID_539_" class="st29" d="M583.3 644.5l6.8 4-.2.1-6.8-4z"/><path id="XMLID_538_" class="st29" d="M582.4 645l6.8 4-.2.1-6.8-3.9z"/></g><g id="XMLID_465_"><path id="XMLID_536_" class="st29" d="M617.5 640.4l6.8 4-.2.1-6.8-4z"/><path id="XMLID_535_" class="st29" d="M616.6 641l6.8 3.9-.2.2-6.8-4z"/><path id="XMLID_534_" class="st29" d="M615.7 641.5l6.8 4-.2.1-6.8-4z"/><path id="XMLID_533_" class="st29" d="M614.8 642l6.8 4-.2.1-6.8-4z"/><path id="XMLID_532_" class="st29" d="M613.9 642.5l6.8 4-.3.1-6.7-3.9z"/><path id="XMLID_531_" class="st29" d="M613 643.1l6.8 3.9-.3.2-6.7-4z"/><path id="XMLID_530_" class="st29" d="M612.1 643.6l6.7 4-.2.1-6.8-4z"/><path id="XMLID_529_" class="st29" d="M611.1 644.1l6.8 4-.2.1-6.8-4z"/><path id="XMLID_528_" class="st29" d="M610.2 644.6l6.8 4-.2.1-6.8-3.9z"/><path id="XMLID_527_" class="st29" d="M609.3 645.2l6.8 4-.2.1-6.8-4z"/><path id="XMLID_526_" class="st29" d="M608.4 645.7l6.8 4-.2.1-6.8-4z"/><path id="XMLID_525_" class="st29" d="M607.5 646.2l6.8 4-.2.1-6.8-4z"/><path id="XMLID_524_" class="st29" d="M606.6 646.8l6.8 3.9-.2.2-6.8-4z"/><path id="XMLID_523_" class="st29" d="M605.7 647.3l6.8 4-.2.1-6.8-4z"/><path id="XMLID_522_" class="st29" d="M604.8 647.8l6.8 4-.2.1-6.8-4z"/><path id="XMLID_515_" class="st29" d="M603.9 648.3l6.8 4-.2.1-6.8-3.9z"/><path id="XMLID_495_" class="st29" d="M603 648.9l6.8 3.9-.2.2-6.8-4z"/><path id="XMLID_490_" class="st29" d="M602.1 649.4l6.8 4-.3.1-6.7-4z"/><path id="XMLID_489_" class="st29" d="M601.2 649.9l6.7 4-.2.1-6.8-4z"/><path id="XMLID_486_" class="st29" d="M600.2 650.4l6.8 4-.2.2-6.8-4z"/><path id="XMLID_482_" class="st29" d="M599.3 651l6.8 4-.2.1-6.8-4z"/><path id="XMLID_480_" class="st29" d="M598.4 651.5l6.8 4-.2.1-6.8-4z"/><path id="XMLID_479_" class="st29" d="M597.5 652l6.8 4-.2.1-6.8-3.9z"/><path id="XMLID_475_" class="st29" d="M596.6 652.6l6.8 3.9-.2.2-6.8-4z"/><path id="XMLID_474_" class="st29" d="M595.7 653.1l6.8 4-.2.1-6.8-4z"/><path id="XMLID_473_" class="st29" d="M594.8 653.6l6.8 4-.2.1-6.8-4z"/><path id="XMLID_472_" class="st29" d="M593.9 654.1l6.8 4-.2.1-6.8-3.9z"/><path id="XMLID_471_" class="st29" d="M593 654.7l6.8 4-.2.1-6.8-4z"/><path id="XMLID_469_" class="st29" d="M592.1 655.2l6.8 4-.2.1-6.8-4z"/><path id="XMLID_468_" class="st29" d="M591.2 655.7l6.8 4-.2.1-6.8-4z"/><path id="XMLID_467_" class="st29" d="M590.3 656.3l6.8 3.9-.3.2-6.7-4z"/><path id="XMLID_466_" class="st29" d="M589.4 656.8l6.7 4-.2.1-6.8-4z"/></g><path id="XMLID_464_" class="st32" d="M583.4 663l30.2 17 11.9 6.8 23.5 21.5-23.5-13.6-37-21.5-5.7-10.4z"/><path id="XMLID_463_" class="st33" d="M678.9 690.9L649 708.3l-23.5-21.5 29.8-17.3z"/></g><g id="XMLID_439_"><g id="XMLID_451_" class="st24"><path id="XMLID_460_" class="st25" d="M505.7 537.2l-7.4-10.9-3.1-11.2 1.7-5.7 3.9-2.7 8.6 1.5 22 11.8 11.3 16.7 54.9 100.4 23.2 14.3 8 7.9 4.2 15-4.2 7.4-5.1 1.4-15.2-7.8-23.9-14.8-21.4-38.5-41.6-76.1z"/><g id="XMLID_452_"><path id="XMLID_459_" class="st26" d="M516.9 543.3l-3.4-1.8v-31.1l3.4 1.8z"/><path id="XMLID_458_" class="st26" d="M591.5 664.7l-3.4-2v-43.1l3.4 6.2z"/><path id="XMLID_457_" class="st26" d="M555.5 607.8l-2.2-4V556l2.2 4z"/><path id="XMLID_456_" class="st26" d="M503 533.2l-2.3-3.3v-23.1l.1-.1 2.2.4z"/><path id="XMLID_455_" class="st26" d="M547 544.5v47.8l-12.8-23.4v-44.8l8.5 12.6z"/><path id="XMLID_454_" class="st26" d="M621.7 682.1l-12.8-6.6v-31.4l11.9 7.3.9.9z"/><path id="XMLID_453_" class="st26" d="M579.5 651.3l-5.6-10.1v-47.5l5.6 10.2z"/></g></g><g id="XMLID_440_"><g id="XMLID_441_" class="st0"><path id="XMLID_450_" class="st27" d="M498.6 508.5l2.4-1.4c-2.4 1.4-3.8 4.3-3.8 8.4 0 8.3 5.8 18.4 13 22.6l12.9 7.4-2.4 1.4-12.9-7.4c-7.2-4.2-13.1-14.3-13-22.6 0-4.2 1.5-7.1 3.8-8.4z"/><path id="XMLID_449_" class="st23" d="M523.2 545.4c.2.1.3.3.4.5l62.2 114.5-2.4 1.4-62.2-114.5c-.1-.2-.3-.4-.4-.5l2.4-1.4z"/><path id="XMLID_448_" class="st28" d="M500.2 505.6c2.6-1.5 6.2-1.3 10.2 1l19.2 11.1c4.5 2.6 8.7 7.4 11.3 13l57.4 105.5-2.4 1.4-57.4-105.5c-2.7-5.7-6.8-10.4-11.3-13L508 508c-4-2.3-7.6-2.5-10.2-1l2.4-1.4z"/><path id="XMLID_447_" class="st27" d="M585.8 660.5l33.7 19.5c3.6 2.1 6.9 2.3 9.3.9l-2.4 1.4c-2.4 1.4-5.7 1.2-9.3-.9l-33.7-19.5 2.4-1.4z"/><g id="XMLID_443_"><path id="XMLID_444_" class="st29" d="M527.1 519.1c4.5 2.6 8.7 7.4 11.3 13l57.4 105.5c.3.1.5.3.8.4l20.5 11.8c7.9 4.5 14.3 15.6 14.2 24.7 0 9.1-6.5 12.7-14.3 8.2l-34-19.6c-.2-.1-.3-.3-.4-.5L520.5 548l-12.7-7.2c-7.9-4.5-14.3-15.6-14.2-24.7 0-9.1 6.5-12.7 14.3-8.2l19.2 11.2zm-19.2 20.4l12.9 7.4c.2.1.3.3.4.5l62.2 114.5 33.7 19.5c7.2 4.2 13.1.8 13.1-7.5s-5.8-18.4-13-22.6l-20.5-11.8c-.3-.2-.7-.4-1-.5-.2-.1-.4-.3-.5-.5l-57.6-105.8c-2.5-5.3-6.3-9.6-10.4-12L508 509.4c-7.2-4.2-13.1-.8-13.1 7.5-.1 8.3 5.7 18.4 13 22.6z"/></g><path id="XMLID_442_" class="st28" d="M598.3 636.2c.3.1.5.3.8.4l20.5 11.8c7.9 4.5 14.3 15.6 14.2 24.7 0 4.5-1.6 7.7-4.2 9.2l-2.4 1.4c2.6-1.5 4.2-4.7 4.2-9.2 0-9.1-6.4-20.1-14.2-24.7L596.7 638c-.3-.2-.5-.3-.8-.4l2.4-1.4z"/></g></g></g></g><g id="XMLID_2082_"><g id="XMLID_2005_"><g id="XMLID_2015_" class="st0"><g id="XMLID_2080_"><path id="XMLID_2081_" class="st4" d="M522.7 339l-161.8-93.7 24.2-48.2 161.8 93.7z"/></g><g id="XMLID_2018_"><path id="XMLID_2019_" class="st34" d="M546.9 290.8l-161.8-93.7 9.5-5.5 161.8 93.7z"/></g><g id="XMLID_2016_"><path id="XMLID_2017_" class="st35" d="M556.4 285.3l.1 34.2-33.8 19.5 24.2-48.2z"/></g></g><g id="XMLID_2007_"><g id="XMLID_2296_"><path id="XMLID_2297_" class="st36" d="M384.7 259.3l-11.9-7.1L397 204l12 6.9z"/></g><path id="XMLID_2295_" class="st36" d="M410 273.9l-11.9-7 24.2-48.2 12 6.9z"/><path id="XMLID_2294_" class="st36" d="M435.4 288.5l-12-7 24.2-48.2 12 6.9z"/><path id="XMLID_2293_" class="st36" d="M460.7 303.2l-12-7 24.2-48.3 12 7z"/><path id="XMLID_2292_" class="st36" d="M486 317.8l-12-7 24.2-48.2 12 6.9z"/><g id="XMLID_2290_"><path id="XMLID_2291_" class="st36" d="M511.3 332.4l-11.9-6.9 24.1-48.3 12 7z"/></g></g></g><path id="XMLID_2083_" class="st2" d="M533.1 271.8l-9.6 5.4 12 7 9.5-5.5z"/><path id="XMLID_2084_" class="st2" d="M507.7 257.1l-9.5 5.5 12 7 9.5-5.5z"/><path id="XMLID_2085_" class="st2" d="M482.4 242.5l-9.5 5.4 12 7 9.5-5.5z"/><path id="XMLID_2089_" class="st2" d="M457.1 227.8l-9.5 5.5 12 6.9 9.5-5.5z"/><path id="XMLID_2091_" class="st2" d="M431.8 213.2l-9.5 5.5 12 6.9 9.5-5.5z"/><path id="XMLID_2096_" class="st2" d="M406.5 198.5L397 204l12 6.9 9.5-5.4z"/></g><g id="XMLID_2287_"><g id="XMLID_2284_"><g id="XMLID_2315_"><g id="XMLID_2384_"><path id="XMLID_2385_" class="st37" d="M414.3 599.1c1.7 1 1.7 2.6 0 3.6s-4.5 1-6.2 0c-1.7-1-1.7-2.6 0-3.6s4.5-1 6.2 0z"/></g><g id="XMLID_2349_" class="st0"><g id="XMLID_2380_"><path id="XMLID_2381_" class="st38" d="M449.4 607c7.7 4.4 7.7 11.6.1 16-7.6 4.4-20 4.4-27.6 0-7.7-4.4-7.7-11.6-.1-16 7.6-4.4 20-4.4 27.6 0zm-25.7 14.9c6.6 3.8 17.4 3.8 23.9 0 6.6-3.8 6.5-10-.1-13.9-6.6-3.8-17.4-3.8-23.9 0-6.6 3.9-6.5 10.1.1 13.9"/></g><g id="XMLID_2378_"><path id="XMLID_2379_" class="st37" d="M467.1 638.1l-.8.4c1 .8.6 1.6-.6 2.4l-.3.2-1-.6.3-.2c.8-.5 1-1 .3-1.4-.8-.4-1.6-.3-2.5.2-2.2 1.3 1.1 3.1-1.6 4.7-1.3.7-2.8 1-4.1.4l-.7.4-.9-.5.7-.4c-1-.8-.7-1.6.6-2.4l.6-.3 1 .6-.7.4c-.9.5-1 1-.2 1.4.8.5 1.6.4 2.5-.1 2.1-1.2-1.1-3.1 1.6-4.7 1.3-.8 2.7-1 4.1-.4l.8-.4.9.3z"/></g><g id="XMLID_2368_"><path id="XMLID_2370_" class="st38" d="M492.6 625.4c-3.1 1.8-3.1 4.7 0 6.5l-27.6 16c-3.1-1.8-8.1-1.8-11.2 0l-75.1-43.4c3.1-1.8 3.1-4.7 0-6.5l27.6-16c3.1 1.8 8.1 1.8 11.2 0l75.1 43.4zm-71.9-1.7c8.3 4.8 21.7 4.8 29.9 0s8.2-12.5-.1-17.3c-8.3-4.8-21.7-4.8-29.9 0-8.2 4.7-8.2 12.5.1 17.3m-14.1-32.4c1.3.6 2.8.4 4.1-.4 2.7-1.6-.5-3.4 1.6-4.7.8-.5 1.7-.6 2.5-.2.8.4.6.9-.3 1.4l-.3.2 1 .6.3-.2c1.3-.7 1.7-1.6.6-2.4l.8-.4-.9-.5-.8.4c-1.3-.6-2.7-.4-4 .4-2.7 1.6.5 3.4-1.6 4.7-.9.5-1.7.6-2.5.1-.8-.4-.6-.9.2-1.4l.7-.4-1-.6-.6.3c-1.3.8-1.7 1.6-.6 2.4l-.7.4.9.5.6-.2m50.2 52.8c1.3.6 2.8.4 4.1-.4 2.7-1.6-.5-3.4 1.6-4.7.8-.5 1.7-.6 2.5-.2.8.4.6.9-.3 1.4l-.3.2 1 .6.3-.2c1.3-.7 1.7-1.6.6-2.4l.8-.4-.9-.5-.8.4c-1.3-.6-2.7-.4-4.1.4-2.7 1.6.5 3.4-1.6 4.7-.9.5-1.7.6-2.5.1-.8-.4-.6-.9.2-1.4l.7-.4-1-.6-.6.3c-1.3.8-1.7 1.6-.6 2.4l-.7.4.9.5.7-.2m-48.6-41.4c1.7 1 4.5 1 6.2 0 1.7-1 1.7-2.6 0-3.6s-4.5-1-6.2 0c-1.8 1-1.8 2.6 0 3.6m48.7 28.2c1.7 1 4.5 1 6.2 0 1.7-1 1.7-2.6 0-3.6s-4.5-1-6.2 0c-1.7 1-1.7 2.6 0 3.6"/></g><g id="XMLID_2366_"><path id="XMLID_2367_" class="st37" d="M416.8 585.3l-.8.4c1 .8.6 1.6-.6 2.4l-.3.2-1-.6.3-.2c.8-.5 1-1 .3-1.4-.8-.4-1.6-.3-2.5.2-2.2 1.3 1.1 3.1-1.6 4.7-1.3.7-2.8 1-4.1.4l-.7.4-.9-.5.7-.4c-1-.8-.7-1.6.6-2.4l.6-.3 1 .6-.7.4c-.9.5-1 1-.2 1.4.8.5 1.6.4 2.5-.1 2.1-1.2-1.1-3.1 1.6-4.7 1.3-.8 2.7-1 4-.4l.8-.4 1 .3z"/></g><g id="XMLID_2364_"><path id="XMLID_2365_" class="st38" d="M447 609.7l-1.3.8c1.6 1.4 1.1 2.8-1.3 4.2l-.6.3-2.6-1.5.7-.4c1.3-.7 1.2-1.3.3-1.8-.9-.5-1.9-.5-3.1.2-3.6 2.1 1.6 5.3-3.4 8.2-2.4 1.4-4.9 1.7-7.3.8l-1.3.7-2.3-1.3 1.3-.7c-1.6-1.4-1.1-2.9 1.3-4.2l1.2-.7 2.6 1.5-1.4.8c-1.3.7-1.1 1.3-.3 1.8.9.5 1.9.6 3.1-.2 3.6-2.1-1.6-5.3 3.4-8.2 2.4-1.4 4.8-1.7 7.2-.8l1.3-.8 2.5 1.3z"/></g><g id="XMLID_2359_"><path id="XMLID_2361_" class="st37" d="M447.6 608.1c6.6 3.8 6.7 10 .1 13.9-6.6 3.8-17.3 3.8-23.9 0-6.6-3.8-6.7-10-.1-13.9 6.5-3.9 17.2-3.9 23.9 0zm-19.1 12.4c2.4.9 4.9.6 7.3-.8 5-2.9-.2-6.1 3.4-8.2 1.3-.7 2.2-.7 3.1-.2.9.5.9 1.1-.3 1.8l-.7.4 2.6 1.5.6-.3c2.4-1.4 2.9-2.8 1.3-4.2l1.3-.8-2.3-1.3-1.3.8c-2.4-.9-4.9-.6-7.2.8-5 2.9.2 6.1-3.4 8.2-1.3.7-2.3.7-3.1.2-.9-.5-1-1.1.3-1.8l1.4-.8-2.6-1.5-1.2.7c-2.4 1.4-2.9 2.9-1.3 4.2l-1.3.7 2.3 1.3 1.1-.7"/></g><g id="XMLID_2353_"><path id="XMLID_2354_" class="st37" d="M411.3 575.7l92.3 53.3-43.6 25.3-92.3-53.3 43.6-25.3zm53.8 72.2l27.6-16c-3.1-1.8-3.1-4.7 0-6.5L417.6 582c-3.1 1.8-8.1 1.8-11.2 0l-27.6 16c3.1 1.8 3.1 4.7 0 6.5l75.1 43.4c3-1.7 8-1.7 11.2 0"/></g><g id="XMLID_2351_"><path id="XMLID_2352_" class="st37" d="M463.1 627.3c1.7 1 1.7 2.6 0 3.6s-4.5 1-6.2 0c-1.7-1-1.7-2.6 0-3.6s4.5-1 6.2 0z"/></g></g><g id="XMLID_2344_"><path id="XMLID_2345_" class="st37" d="M450.6 606.3c8.3 4.8 8.3 12.5.1 17.3-8.2 4.8-21.6 4.8-29.9 0-8.3-4.8-8.3-12.6-.1-17.3 8.2-4.8 21.6-4.8 29.9 0zM421.9 623c7.7 4.4 20 4.4 27.6 0 7.6-4.4 7.6-11.6-.1-16-7.7-4.4-20-4.4-27.6 0-7.6 4.4-7.6 11.6.1 16"/></g></g><path id="XMLID_2263_" class="st39" d="M460 654.3v1.4l43.4-25.1.2-1.6z"/><path id="XMLID_2271_" class="st40" d="M367.8 601l92.2 53.3v1.4l-92.2-53.2z"/></g><g id="XMLID_3336_"><g id="XMLID_3339_"><g id="XMLID_3373_"><path id="XMLID_3374_" class="st37" d="M414.3 594.6c1.7 1 1.7 2.6 0 3.6s-4.5 1-6.2 0c-1.7-1-1.7-2.6 0-3.6s4.5-1 6.2 0z"/></g><g id="XMLID_3344_" class="st0"><g id="XMLID_3369_"><path id="XMLID_3370_" class="st38" d="M449.4 602.5c7.7 4.4 7.7 11.6.1 16-7.6 4.4-20 4.4-27.6 0-7.7-4.4-7.7-11.6-.1-16 7.6-4.4 20-4.4 27.6 0zm-25.7 15c6.6 3.8 17.4 3.8 23.9 0 6.6-3.8 6.5-10-.1-13.9-6.6-3.8-17.4-3.8-23.9 0-6.6 3.8-6.5 10 .1 13.9"/></g><g id="XMLID_3367_"><path id="XMLID_3368_" class="st37" d="M467.1 633.7l-.8.4c1 .8.6 1.6-.6 2.4l-.3.2-1-.6.3-.2c.8-.5 1-1 .3-1.4-.8-.4-1.6-.3-2.5.2-2.2 1.3 1.1 3.1-1.6 4.7-1.3.7-2.8 1-4.1.4l-.7.4-.9-.5.7-.4c-1-.8-.7-1.6.6-2.4l.6-.3 1 .6-.7.4c-.9.5-1 1-.2 1.4.8.5 1.6.4 2.5-.1 2.1-1.2-1.1-3.1 1.6-4.7 1.3-.8 2.7-1 4.1-.4l.8-.4.9.3z"/></g><g id="XMLID_3359_"><path id="XMLID_3360_" class="st38" d="M492.6 621c-3.1 1.8-3.1 4.7 0 6.5l-27.6 16c-3.1-1.8-8.1-1.8-11.2 0l-75.1-43.4c3.1-1.8 3.1-4.7 0-6.5l27.6-16c3.1 1.8 8.1 1.8 11.2 0l75.1 43.4zm-71.9-1.8c8.3 4.8 21.7 4.8 29.9 0s8.2-12.5-.1-17.3c-8.3-4.8-21.7-4.8-29.9 0-8.2 4.7-8.2 12.5.1 17.3m-14.1-32.4c1.3.6 2.8.4 4.1-.4 2.7-1.6-.5-3.4 1.6-4.7.8-.5 1.7-.6 2.5-.2.8.4.6.9-.3 1.4l-.3.2 1 .6.3-.2c1.3-.7 1.7-1.6.6-2.4l.8-.4-.9-.5-.8.4c-1.3-.6-2.7-.4-4 .4-2.7 1.6.5 3.4-1.6 4.7-.9.5-1.7.6-2.5.1-.8-.4-.6-.9.2-1.4l.7-.4-1-.6-.6.3c-1.3.8-1.7 1.6-.6 2.4l-.7.4.9.5.6-.2m50.2 52.8c1.3.6 2.8.4 4.1-.4 2.7-1.6-.5-3.4 1.6-4.7.8-.5 1.7-.6 2.5-.2.8.4.6.9-.3 1.4l-.3.2 1 .6.3-.2c1.3-.7 1.7-1.6.6-2.4l.8-.4-.9-.5-.8.4c-1.3-.6-2.7-.4-4.1.4-2.7 1.6.5 3.4-1.6 4.7-.9.5-1.7.6-2.5.1-.8-.4-.6-.9.2-1.4l.7-.4-1-.6-.6.3c-1.3.8-1.7 1.6-.6 2.4l-.7.4.9.5.7-.2m-48.6-41.4c1.7 1 4.5 1 6.2 0 1.7-1 1.7-2.6 0-3.6s-4.5-1-6.2 0c-1.8 1-1.8 2.6 0 3.6m48.7 28.2c1.7 1 4.5 1 6.2 0 1.7-1 1.7-2.6 0-3.6s-4.5-1-6.2 0c-1.7 1-1.7 2.6 0 3.6"/></g><g id="XMLID_3357_"><path id="XMLID_3358_" class="st37" d="M416.8 580.8l-.8.4c1 .8.6 1.6-.6 2.4l-.3.2-1-.6.3-.2c.8-.5 1-1 .3-1.4-.8-.4-1.6-.3-2.5.2-2.2 1.3 1.1 3.1-1.6 4.7-1.3.7-2.8 1-4.1.4l-.7.4-.9-.5.7-.4c-1-.8-.7-1.6.6-2.4l.6-.3 1 .6-.7.4c-.9.5-1 1-.2 1.4.8.5 1.6.4 2.5-.1 2.1-1.2-1.1-3.1 1.6-4.7 1.3-.8 2.7-1 4-.4l.8-.4 1 .3z"/></g><g id="XMLID_3355_"><path id="XMLID_3356_" class="st38" d="M447 605.2l-1.3.8c1.6 1.4 1.1 2.8-1.3 4.2l-.6.3-2.6-1.5.7-.4c1.3-.7 1.2-1.3.3-1.8-.9-.5-1.9-.5-3.1.2-3.6 2.1 1.6 5.3-3.4 8.2-2.4 1.4-4.9 1.7-7.3.8l-1.3.7-2.3-1.3 1.3-.7c-1.6-1.4-1.1-2.9 1.3-4.2l1.2-.7 2.6 1.5-1.2.7c-1.3.7-1.1 1.3-.3 1.8.9.5 1.9.6 3.1-.2 3.6-2.1-1.6-5.3 3.4-8.2 2.4-1.4 4.8-1.7 7.2-.8l1.3-.8 2.3 1.4z"/></g><g id="XMLID_3351_"><path id="XMLID_3352_" class="st37" d="M447.6 603.6c6.6 3.8 6.7 10 .1 13.9-6.6 3.8-17.3 3.8-23.9 0-6.6-3.8-6.7-10-.1-13.9 6.5-3.9 17.2-3.9 23.9 0zM428.5 616c2.4.9 4.9.6 7.3-.8 5-2.9-.2-6.1 3.4-8.2 1.3-.7 2.2-.7 3.1-.2.9.5.9 1.1-.3 1.8l-.7.4 2.6 1.5.6-.3c2.4-1.4 2.9-2.8 1.3-4.2l1.3-.8-2.3-1.3-1.3.8c-2.4-.9-4.9-.6-7.2.8-5 2.9.2 6.1-3.4 8.2-1.3.7-2.3.7-3.1.2-.9-.5-1-1.1.3-1.8l1.4-.8-2.6-1.5-1.2.7c-2.4 1.4-2.9 2.9-1.3 4.2l-1.3.7 2.3 1.3 1.1-.7"/></g><g id="XMLID_3347_"><path id="XMLID_3348_" class="st37" d="M411.3 571.2l92.3 53.3-43.6 25.3-92.3-53.3 43.6-25.3zm53.8 72.3l27.6-16c-3.1-1.8-3.1-4.7 0-6.5l-75.1-43.4c-3.1 1.8-8.1 1.8-11.2 0l-27.6 16c3.1 1.8 3.1 4.7 0 6.5l75.1 43.4c3-1.8 8-1.8 11.2 0"/></g><g id="XMLID_3345_"><path id="XMLID_3346_" class="st37" d="M463.1 622.8c1.7 1 1.7 2.6 0 3.6s-4.5 1-6.2 0c-1.7-1-1.7-2.6 0-3.6s4.5-1 6.2 0z"/></g></g><g id="XMLID_3340_"><path id="XMLID_3341_" class="st37" d="M450.6 601.8c8.3 4.8 8.3 12.5.1 17.3-8.2 4.8-21.6 4.8-29.9 0-8.3-4.8-8.3-12.6-.1-17.3 8.2-4.7 21.6-4.7 29.9 0zm-28.7 16.7c7.7 4.4 20 4.4 27.6 0 7.6-4.4 7.6-11.6-.1-16-7.7-4.4-20-4.4-27.6 0-7.6 4.4-7.6 11.6.1 16"/></g></g><path id="XMLID_3338_" class="st39" d="M460 649.8v1.4l43.4-25.1.2-1.6z"/><path id="XMLID_3337_" class="st40" d="M367.8 596.6l92.2 53.2v1.4L367.8 598z"/></g><g id="XMLID_3375_"><g id="XMLID_3378_"><g id="XMLID_3466_"><path id="XMLID_3467_" class="st37" d="M414.3 590.1c1.7 1 1.7 2.6 0 3.6s-4.5 1-6.2 0c-1.7-1-1.7-2.6 0-3.6 1.7-.9 4.5-.9 6.2 0z"/></g><g id="XMLID_3383_" class="st0"><g id="XMLID_3462_"><path id="XMLID_3463_" class="st38" d="M449.4 598c7.7 4.4 7.7 11.6.1 16-7.6 4.4-20 4.4-27.6 0-7.7-4.4-7.7-11.6-.1-16 7.6-4.4 20-4.4 27.6 0zm-25.7 15c6.6 3.8 17.4 3.8 23.9 0 6.6-3.8 6.5-10-.1-13.9-6.6-3.8-17.4-3.8-23.9 0-6.6 3.8-6.5 10 .1 13.9"/></g><g id="XMLID_3406_"><path id="XMLID_3407_" class="st37" d="M467.1 629.2l-.8.4c1 .8.6 1.6-.6 2.4l-.3.2-1-.6.3-.2c.8-.5 1-1 .3-1.4-.8-.4-1.6-.3-2.5.2-2.2 1.3 1.1 3.1-1.6 4.7-1.3.7-2.8 1-4.1.4l-.7.4-.9-.5.7-.4c-1-.8-.7-1.6.6-2.4l.6-.3 1 .6-.7.4c-.9.5-1 1-.2 1.4.8.5 1.6.4 2.5-.1 2.1-1.2-1.1-3.1 1.6-4.7 1.3-.8 2.7-1 4.1-.4l.8-.4.9.3z"/></g><g id="XMLID_3398_"><path id="XMLID_3399_" class="st38" d="M492.6 616.5c-3.1 1.8-3.1 4.7 0 6.5L465 639c-3.1-1.8-8.1-1.8-11.2 0l-75.1-43.4c3.1-1.8 3.1-4.7 0-6.5l27.6-16c3.1 1.8 8.1 1.8 11.2 0l75.1 43.4zm-71.9-1.8c8.3 4.8 21.7 4.8 29.9 0s8.2-12.5-.1-17.3c-8.3-4.8-21.7-4.8-29.9 0-8.2 4.7-8.2 12.5.1 17.3m-14.1-32.4c1.3.6 2.8.4 4.1-.4 2.7-1.6-.5-3.4 1.6-4.7.8-.5 1.7-.6 2.5-.2.8.4.6.9-.3 1.4l-.3.2 1 .6.3-.2c1.3-.7 1.7-1.6.6-2.4l.8-.4-.9-.5-.8.4c-1.3-.6-2.7-.4-4 .4-2.7 1.6.5 3.4-1.6 4.7-.9.5-1.7.6-2.5.1-.8-.4-.6-.9.2-1.4l.7-.4-1-.6-.6.3c-1.3.8-1.7 1.6-.6 2.4l-.7.4.9.5.6-.2m50.2 52.8c1.3.6 2.8.4 4.1-.4 2.7-1.6-.5-3.4 1.6-4.7.8-.5 1.7-.6 2.5-.2.8.4.6.9-.3 1.4l-.3.2 1 .6.3-.2c1.3-.7 1.7-1.6.6-2.4l.8-.4-.9-.5-.8.4c-1.3-.6-2.7-.4-4.1.4-2.7 1.6.5 3.4-1.6 4.7-.9.5-1.7.6-2.5.1-.8-.4-.6-.9.2-1.4l.7-.4-1-.6-.6.3c-1.3.8-1.7 1.6-.6 2.4l-.7.4.9.5.7-.2m-48.6-41.4c1.7 1 4.5 1 6.2 0 1.7-1 1.7-2.6 0-3.6s-4.5-1-6.2 0c-1.8 1-1.8 2.6 0 3.6m48.7 28.2c1.7 1 4.5 1 6.2 0 1.7-1 1.7-2.6 0-3.6s-4.5-1-6.2 0c-1.7 1-1.7 2.6 0 3.6"/></g><g id="XMLID_3396_"><path id="XMLID_3397_" class="st37" d="M416.8 576.3l-.8.4c1 .8.6 1.6-.6 2.4l-.3.2-1-.6.3-.2c.8-.5 1-1 .3-1.4-.8-.4-1.6-.3-2.5.2-2.2 1.3 1.1 3.1-1.6 4.7-1.3.7-2.8 1-4.1.4l-.7.4-.9-.5.7-.4c-1-.8-.7-1.6.6-2.4l.6-.3 1 .6-.7.4c-.9.5-1 1-.2 1.4.8.5 1.6.4 2.5-.1 2.1-1.2-1.1-3.1 1.6-4.7 1.3-.8 2.7-1 4-.4l.8-.4 1 .3z"/></g><g id="XMLID_3394_"><path id="XMLID_3395_" class="st38" d="M447 600.7l-1.3.8c1.6 1.4 1.1 2.8-1.3 4.2l-.6.3-2.6-1.5.7-.4c1.3-.7 1.2-1.3.3-1.8-.9-.5-1.9-.5-3.1.2-3.6 2.1 1.6 5.3-3.4 8.2-2.4 1.4-4.9 1.7-7.3.8l-1.3.7-2.3-1.3 1.3-.7c-1.6-1.4-1.1-2.9 1.3-4.2l1.2-.7 2.6 1.5-1.4.8c-1.3.7-1.1 1.3-.3 1.8.9.5 1.9.6 3.1-.2 3.6-2.1-1.6-5.3 3.4-8.2 2.4-1.4 4.8-1.7 7.2-.8l1.3-.8 2.5 1.3z"/></g><g id="XMLID_3390_"><path id="XMLID_3391_" class="st37" d="M447.6 599.1c6.6 3.8 6.7 10 .1 13.9-6.6 3.8-17.3 3.8-23.9 0-6.6-3.8-6.7-10-.1-13.9 6.5-3.8 17.2-3.8 23.9 0zm-19.1 12.4c2.4.9 4.9.6 7.3-.8 5-2.9-.2-6.1 3.4-8.2 1.3-.7 2.2-.7 3.1-.2.9.5.9 1.1-.3 1.8l-.7.4 2.6 1.5.6-.3c2.4-1.4 2.9-2.8 1.3-4.2l1.3-.8-2.3-1.3-1.3.8c-2.4-.9-4.9-.6-7.2.8-5 2.9.2 6.1-3.4 8.2-1.3.7-2.3.7-3.1.2-.9-.5-1-1.1.3-1.8l1.4-.8-2.6-1.5-1.2.7c-2.4 1.4-2.9 2.9-1.3 4.2l-1.3.7 2.3 1.3 1.1-.7"/></g><g id="XMLID_3386_"><path id="XMLID_3387_" class="st37" d="M411.3 566.7l92.3 53.3-43.6 25.3-92.3-53.3 43.6-25.3zm53.8 72.3l27.6-16c-3.1-1.8-3.1-4.7 0-6.5l-75.1-43.4c-3.1 1.8-8.1 1.8-11.2 0l-27.6 16c3.1 1.8 3.1 4.7 0 6.5l75.1 43.4c3-1.8 8-1.8 11.2 0"/></g><g id="XMLID_3384_"><path id="XMLID_3385_" class="st37" d="M463.1 618.3c1.7 1 1.7 2.6 0 3.6s-4.5 1-6.2 0c-1.7-1-1.7-2.6 0-3.6s4.5-1 6.2 0z"/></g></g><g id="XMLID_3379_"><path id="XMLID_3380_" class="st37" d="M450.6 597.4c8.3 4.8 8.3 12.5.1 17.3-8.2 4.8-21.6 4.8-29.9 0-8.3-4.8-8.3-12.6-.1-17.3 8.2-4.8 21.6-4.8 29.9 0zM421.9 614c7.7 4.4 20 4.4 27.6 0 7.6-4.4 7.6-11.6-.1-16-7.7-4.4-20-4.4-27.6 0-7.6 4.4-7.6 11.6.1 16"/></g></g><path id="XMLID_3377_" class="st39" d="M460 645.3v1.4l43.4-25.1.2-1.6z"/><path id="XMLID_3376_" class="st40" d="M367.8 592.1l92.2 53.2v1.4l-92.2-53.2z"/></g></g><g id="XMLID_2670_"><g id="XMLID_2503_"><g id="XMLID_2508_" class="st0"><path id="XMLID_2520_" class="st41" d="M730.6 470.5L587 387.6c-.8-.5-1.5-.5-2-.2l-4.8 2.8c.5-.3 1.2-.3 2 .2l143.6 82.9c1.6.9 2.8 3.1 2.8 4.9l-.3 102.6c0 .9-.3 1.5-.8 1.8l4.8-2.8c.5-.3.8-.9.8-1.8l.3-102.6c.1-1.8-1.2-4-2.8-4.9z"/><g id="XMLID_2509_"><path id="XMLID_2519_" class="st42" d="M725.8 473.3c1.6.9 2.8 3.1 2.8 4.9l-.3 102.6c0 1.8-1.3 2.5-2.8 1.6l-143.6-82.9c-1.6-.9-2.8-3.1-2.8-4.9l.3-102.6c0-1.8 1.3-2.5 2.8-1.6l143.6 82.9z"/></g></g></g><g id="XMLID_2506_"><g id="XMLID_2597_" class="st0"><g id="XMLID_2507_"><path id="XMLID_2984_" class="st43" d="M595 479c0-.6.1-.9.3-1l-1.3.7c-.2.1-.3.4-.3 1v1.7l1.3-.7V479z"/><path id="XMLID_3029_" class="st43" d="M701.1 546.9c-.1.2-.3.4-.4.5l1.3-.7c.2-.1.3-.3.4-.5l-1.3.7z"/><g id="XMLID_2601_"><path id="XMLID_3032_" class="st43" d="M707.9 544.2c0-.6.1-.9.3-1l-1.3.7c-.2.1-.3.4-.3 1v1.7l1.3-.7v-1.7z"/><path id="XMLID_3033_" class="st43" d="M708 553.6c0-2.5 4.2-1.9 4.2-6.8 0-2.5-1.1-4.5-3.2-5.7-1-.6-1.8-.7-2.3-.4l-1.3.7c.5-.3 1.3-.2 2.3.4 2.1 1.2 3.2 3.2 3.2 5.7 0 4.9-4.2 4.3-4.2 6.8v.3l4 2.3v2.2l1.3-.7v-2.2l-4-2.3v-.3z"/></g><g id="XMLID_2583_"><path id="XMLID_3017_" class="st43" d="M634.5 499.7l6.4 3.7v2.1l-3.2 11.6 1.3-.8 3.1-11.5v-2.2l-6.3-3.6z"/><g id="XMLID_2881_"><path id="XMLID_2882_" class="st2" d="M640.9 503.4v2.1l-3.2 11.6-2.1-1.2 3.1-11.5-4.2-2.5v-2.2z"/></g></g><g id="XMLID_2594_"><path id="XMLID_3024_" class="st43" d="M669.2 519.8l6.4 3.6v2.1l-3.2 11.6 1.3-.7 3.1-11.6.1-2.1-6.4-3.7z"/><g id="XMLID_2785_"><path id="XMLID_2790_" class="st2" d="M675.6 523.4v2.1l-3.2 11.6-2.1-1.2 3.1-11.5-4.2-2.4v-2.2z"/></g></g><g id="XMLID_2598_"><path id="XMLID_2599_" class="st2" d="M707.8 541.9c2.1 1.2 3.2 3.2 3.2 5.7 0 4.9-4.2 4.3-4.2 6.8v.3l4 2.3v2.2l-6.1-3.5v-1.9c0-4.6 4.2-2.9 4.2-7.4 0-1.4-.4-2-1.1-2.4-.7-.4-1.1-.2-1.1.9v1.7l-2-1.2v-1.5c-.1-2.5 1-3.2 3.1-2z"/></g><g id="XMLID_2595_"><path id="XMLID_3025_" class="st43" d="M681.3 538.7c-.7-.4-1.1-1.1-1.1-2.2v-8.4c0-.6.1-.9.3-1l-1.3.7c-.2.1-.3.4-.3 1v8.4c0 1.1.4 1.8 1.1 2.2.3.2.6.2.8.1l1.3-.7c-.2.2-.5.1-.8-.1z"/><path id="XMLID_3026_" class="st43" d="M681.3 525.1c-1-.6-1.8-.7-2.4-.4l-1.3.7c.5-.3 1.3-.2 2.4.4 2.1 1.2 3.2 3.3 3.2 5.8v8.1c0 1.3-.3 2.1-.9 2.4l1.3-.7c.6-.3.9-1.2.9-2.4v-8.1c0-2.6-1.1-4.6-3.2-5.8z"/><g id="XMLID_2732_"><path id="XMLID_2733_" class="st2" d="M680 525.8c2.1 1.2 3.2 3.3 3.2 5.8v8.1c0 2.5-1.1 3.2-3.2 2-2.1-1.2-3.2-3.3-3.2-5.8v-8.1c0-2.4 1.1-3.2 3.2-2zm1.1 12.8v-8.4c0-1.1-.4-1.8-1.1-2.2-.7-.4-1.1-.2-1.1.9v8.4c0 1.1.4 1.8 1.1 2.2.7.4 1.1.2 1.1-.9"/></g></g><g id="XMLID_2596_"><path id="XMLID_3027_" class="st43" d="M693.7 545.9c-.7-.4-1.1-1.1-1.1-2.2v-8.4c0-.6.1-.9.3-1l-1.3.7c-.2.1-.3.4-.3 1v8.4c0 1.1.4 1.8 1.1 2.2.3.2.6.2.8.1l1.3-.7c-.3.1-.5.1-.8-.1z"/><path id="XMLID_3028_" class="st43" d="M701.2 550.2c-.7-.4-1.1-1.1-1.1-2.2v-.6l-2-1.2-1.3.7c.1-.3.1-.6.1-1v-8.1c0-2.5-1.1-4.6-3.2-5.8-1-.6-1.8-.7-2.4-.4l-1.3.7c.5-.3 1.3-.2 2.4.4 2.1 1.2 3.2 3.3 3.2 5.8v8.1c0 1.3-.3 2.1-.9 2.4l1.3-.7c.4-.2.7-.7.8-1.4l2 1.2v.6c0 1.1.4 1.8 1.1 2.2.3.2.6.3.8.2l1.3-.7c-.2.1-.5 0-.8-.2z"/><g id="XMLID_2685_"><path id="XMLID_2686_" class="st2" d="M692.4 533c2.1 1.2 3.2 3.3 3.2 5.8v8.1c0 2.5-1.1 3.2-3.2 2-2.1-1.2-3.2-3.3-3.2-5.8V535c0-2.5 1.1-3.2 3.2-2zm1.1 12.7v-8.4c0-1.1-.4-1.8-1.1-2.2-.7-.4-1.1-.2-1.1.9v8.4c0 1.1.4 1.8 1.1 2.2.6.4 1.1.2 1.1-.9"/></g></g><g id="XMLID_2593_"><path id="XMLID_3023_" class="st43" d="M665.3 517.5l.5.3c-.3.1-.8 0-1.5-.4l-1.3.7c.9.5 1.4.5 1.7.3l1.1-.7.9.5v15.5l1.3-.7v-15.5l-1.4-.8-1.3.8z"/><g id="XMLID_2812_"><path id="XMLID_2813_" class="st2" d="M666.8 518.3v15.5l-2.1-1.2v-11.8l-1.6-.9v-1.7c1.6.9 2 .2 2.3-.6l1.4.7z"/></g></g><g id="XMLID_2592_"><path id="XMLID_3021_" class="st43" d="M658.4 525.5c-.7-.4-1.1-1.1-1.1-2.2v-8.4c0-.6.1-.9.3-1l-1.3.7c-.2.1-.3.4-.3 1v8.4c0 1.1.4 1.8 1.1 2.2.3.2.6.2.8.1l1.3-.7c-.3.1-.5.1-.8-.1z"/><path id="XMLID_3022_" class="st43" d="M658.4 511.8c-1-.6-1.8-.7-2.3-.4l-1.3.7c.5-.3 1.3-.2 2.3.4 2.1 1.2 3.2 3.3 3.2 5.8v8.1c0 1.3-.3 2.1-.9 2.4l1.3-.7c.6-.3.9-1.2.9-2.4v-8.1c0-2.5-1.1-4.6-3.2-5.8z"/><g id="XMLID_2830_"><path id="XMLID_2831_" class="st2" d="M657.1 512.6c2.1 1.2 3.2 3.3 3.2 5.8v8.1c0 2.5-1.1 3.2-3.2 2-2.1-1.2-3.2-3.3-3.2-5.8v-8.1c0-2.4 1.1-3.2 3.2-2zm1.1 12.7v-8.4c0-1.1-.4-1.8-1.1-2.2-.7-.4-1.1-.2-1.1.9v8.4c0 1.1.4 1.8 1.1 2.2.6.4 1.1.3 1.1-.9"/></g></g><g id="XMLID_2584_"><path id="XMLID_3018_" class="st43" d="M646.6 518.7c-.7-.4-1.2-1.1-1.2-2.4v-1.4c0-.7.1-1 .4-1.2l-1.3.7c-.2.1-.4.5-.4 1.2v1.4c0 1.4.5 2.1 1.2 2.4.3.2.6.3.8.1l1.3-.7c-.2.1-.5.1-.8-.1z"/><path id="XMLID_3019_" class="st43" d="M645.3 512.3c.3.2.6.3.8.1l1.3-.7c-.2.1-.5.1-.8-.1-.7-.4-1.2-1.1-1.2-2.3v-.9c0-.7.1-1.1.4-1.2l-1.3.7c-.2.1-.4.5-.4 1.2v.9c0 .6.1 1.1.3 1.5-.1 0-.3.1-.4.1l-1.3.7c.1-.1.3-.1.5-.1l1.2-.7c.3.3.6.6.9.8z"/><path id="XMLID_3020_" class="st43" d="M646.6 505c-1.1-.6-1.9-.7-2.4-.4l-1.3.7c.6-.3 1.4-.2 2.4.4 2.1 1.2 3.3 3.3 3.3 5.8v.5c0 .8-.1 1.4-.4 1.8l-.9.5c.9 1.1 1.3 2.5 1.3 4v1.2c0 1.3-.3 2.1-.9 2.4l1.3-.7c.6-.3.9-1.1.9-2.4v-1.2c0-1.4-.4-2.8-1.2-3.9l.5-.3c.5-.3.8-1 .8-2.2v-.5c-.1-2.3-1.3-4.4-3.4-5.7z"/><g id="XMLID_2851_"><path id="XMLID_2852_" class="st2" d="M648.6 512.1c0 1.5-.5 2.3-1.3 2.4.9 1.1 1.3 2.5 1.3 4v1.2c0 2.5-1.2 3.2-3.3 2-2.1-1.2-3.3-3.3-3.3-5.8v-1.2c0-1.5.4-2.4 1.3-2.5-.9-1.1-1.3-2.4-1.3-3.9v-.5c0-2.5 1.2-3.2 3.3-2 2.1 1.2 3.3 3.3 3.3 5.8v.5zm-2.1 6.3V517c0-1.2-.4-2-1.2-2.4-.8-.4-1.2-.2-1.2 1.1v1.4c0 1.4.5 2.1 1.2 2.4.6.3 1.1.2 1.2-1.1m0-7.1v-.9c0-1.4-.5-2.1-1.2-2.5-.7-.4-1.2-.3-1.2 1.1v.9c0 1.2.5 1.9 1.2 2.3.7.5 1.2.4 1.2-.9"/></g></g><g id="XMLID_2582_"><path id="XMLID_3014_" class="st43" d="M631.3 509.9c-.7-.4-1.1-1-1.1-2.1V505c0-.6.1-.9.3-1l-1.3.7c-.2.1-.3.4-.3 1v2.8c0 1.1.4 1.8 1.1 2.1.3.2.6.2.8.1l1.3-.7c-.2.1-.4 0-.8-.1z"/><path id="XMLID_3015_" class="st43" d="M632.2 502.3c-.7-.4-1.2-.4-1.5-.2l-.4.2v-2.6c0-.8.1-1.2.4-1.4l-1.3.7c-.2.1-.4.6-.4 1.4v2.8l1-.6c.3 0 .6.1 1 .3 1.6.9 2.3 2.6 2.3 4.9v2.8c0 1.3-.3 2.1-.9 2.4l1.3-.7c.6-.3.9-1.2.9-2.4v-2.8c0-2.2-.8-3.9-2.4-4.8z"/><path id="XMLID_3016_" class="st43" d="M633.2 502.7v.4l1.3-.7v-.4c0-2.5-1.1-4.5-3.2-5.7-1-.6-1.8-.7-2.4-.4l-1.3.7c.5-.3 1.3-.2 2.4.4 2.2 1.2 3.3 3.2 3.2 5.7z"/><g id="XMLID_2892_"><path id="XMLID_2893_" class="st2" d="M630.9 503.1c1.6.9 2.3 2.6 2.3 4.9v2.8c0 2.5-1.1 3.2-3.2 2-2.1-1.2-3.2-3.3-3.2-5.8v-7.9c0-2.6 1.1-3.4 3.2-2.2 2.1 1.2 3.2 3.2 3.2 5.7v.4l-2-1.2v-.6c0-1.1-.4-1.8-1.1-2.2-.8-.4-1.2-.3-1.2 1.2v2.8c.4-.4 1.1-.5 2 .1zm.2 6.6v-2.8c0-1.1-.4-1.8-1.1-2.2-.7-.4-1.1-.2-1.1.9v2.8c0 1.1.4 1.8 1.1 2.1.7.5 1.1.3 1.1-.8"/></g></g><g id="XMLID_2574_"><path id="XMLID_2986_" class="st43" d="M595 488.4c0-2.5 4.2-1.9 4.2-6.8 0-2.5-1.1-4.5-3.1-5.7-1-.6-1.8-.7-2.3-.4l-1.3.7c.5-.3 1.3-.2 2.3.4 2.1 1.2 3.2 3.2 3.1 5.7 0 4.9-4.2 4.3-4.2 6.8v.3l4 2.3v2.2l1.3-.7V491l-4-2.3v-.3z"/><g id="XMLID_2992_"><path id="XMLID_2993_" class="st2" d="M594.9 476.6c2.1 1.2 3.2 3.2 3.1 5.7 0 4.9-4.2 4.3-4.2 6.8v.3l4 2.3v2.2l-6.1-3.5v-1.9c0-4.6 4.2-2.9 4.2-7.4 0-1.4-.4-2-1.1-2.4-.7-.4-1.1-.2-1.1.9v1.7l-2-1.2v-1.5c0-2.4 1.1-3.2 3.2-2z"/></g></g><g id="XMLID_2577_"><path id="XMLID_2988_" class="st43" d="M603.6 493.9c-.7-.4-1.1-1.1-1.1-2.2v-1.4l-2-1.2-1.3.7 2 1.2v1.4c0 1.1.4 1.8 1.1 2.2.3.2.6.2.8.1l1.3-.7c-.3.1-.5 0-.8-.1z"/><path id="XMLID_2990_" class="st43" d="M601.3 486.9l.8.5c.4.2.7.3.9.2l1.3-.7c-.2.1-.5 0-.9-.2l-.8-.5-1.3.7z"/><path id="XMLID_2995_" class="st43" d="M601.2 484.1v1l1.3-.7v-1c0-.6.1-.9.3-1l-1.3.7c-.2.1-.3.4-.3 1z"/><path id="XMLID_2997_" class="st43" d="M603.7 480.2c-1-.6-1.8-.7-2.3-.4l-1.3.7c.5-.3 1.3-.2 2.3.4 2.1 1.2 3.2 3.2 3.2 5.7v.4c0 .7-.1 1.2-.3 1.6l-1.2.7c1.1 1.1 1.5 2.5 1.5 4.1v1.2c0 1.3-.3 2.1-.9 2.5l1.3-.7c.6-.3.9-1.2.9-2.5v-1.2c0-1.5-.4-2.8-1.3-3.9l.6-.3c.5-.3.7-1 .7-2.2v-.4c-.1-2.4-1.2-4.5-3.2-5.7z"/><g id="XMLID_2963_"><path id="XMLID_2964_" class="st2" d="M602.4 481c2.1 1.2 3.2 3.2 3.2 5.7v.4c0 1.7-.5 2.4-1.5 2.3 1.1 1.1 1.5 2.5 1.5 4.1v1.2c0 2.5-1.1 3.3-3.2 2.1-2.1-1.2-3.2-3.2-3.1-5.7v-1.3l2 1.2v1.4c0 1.1.4 1.8 1.1 2.2.7.4 1.1.3 1.1-1.1v-1.2c0-1.4-.4-2.2-1.4-2.8l-.7-.4v-2.2l.8.5c.8.5 1.3.3 1.3-.9v-.9c0-1.4-.4-2-1.1-2.4-.7-.4-1.1-.2-1.1.9v1l-2-1.2v-.8c-.1-2.5 1-3.3 3.1-2.1z"/></g></g><g id="XMLID_2580_"><path id="XMLID_2999_" class="st43" d="M610.5 490.5l-2.1 4.6 2.1 1.3 1.3-.8-2.1-1.2 2.1-4.6z"/><path id="XMLID_3001_" class="st43" d="M613.9 486.3l-2.3-1.3-1.3.8 2.3 1.3v10.5l1 .5v1.1l-1 .6v2.8l1.3-.7v-1.7l1-.6v-2.2l-1-.6z"/><g id="XMLID_2942_"><path id="XMLID_2943_" class="st2" d="M612.6 497.6l1 .6v2.2l-1-.6v2.8l-2.1-1.2v-2.8l-4.1-2.4V494l3.9-8.3 2.3 1.3v10.6zm-2.1-1.2v-5.8l-2.2 4.6 2.2 1.2"/></g></g><g id="XMLID_2581_"><path id="XMLID_3003_" class="st43" d="M623.6 505.4c-.7-.4-1.1-1-1.1-2.1v-1.4l-2-1.2-1.3.7 2 1.2v1.4c0 1.1.4 1.8 1.1 2.1.3.2.6.3.8.1l1.3-.7c-.2.2-.5.1-.8-.1z"/><path id="XMLID_3005_" class="st43" d="M622.5 499.9c0-.6.1-.9.3-1l-1.3.7c-.2.1-.3.4-.3 1v.5l1.3-.7v-.5z"/><path id="XMLID_3010_" class="st43" d="M624.5 497.2c-.7-.4-1.2-.4-1.5-.2l-.3.2.2-3.5-1.3.7-.2 3.6.7-.4c.3 0 .7.1 1.2.3 1.6.9 2.4 2.6 2.3 4.9v3.5c0 1.3-.3 2.1-.9 2.5l1.3-.7c.6-.3.9-1.2.9-2.5v-3.5c0-2.2-.8-4-2.4-4.9z"/><path id="XMLID_3012_" class="st43" d="M625.2 496.6l1.3-.8v-2.2l-5.6-3.2-1.3.7 5.6 3.3z"/><g id="XMLID_2919_"><path id="XMLID_2920_" class="st2" d="M625.2 494.4v2.2l-3.7-2.1-.2 3.6c.4-.5 1-.5 1.9-.1 1.6.9 2.4 2.6 2.3 4.9v3.5c0 2.5-1.1 3.3-3.2 2.1-2.1-1.2-3.2-3.2-3.1-5.7v-1.3l2 1.2v1.4c0 1.1.4 1.8 1.1 2.1.7.4 1.1.2 1.1-.9v-3.4c0-1.1-.4-1.8-1.1-2.2-.7-.4-1.1-.2-1.1.9v.5l-2-1.2.4-8.8 5.6 3.3z"/></g></g><g id="XMLID_2573_"><path id="XMLID_2572_" class="st43" d="M587.7 472.7l.5.3c-.3.1-.8 0-1.5-.4l-1.3.7c.9.5 1.4.5 1.7.3l1.1-.7.9.5v15.5l1.3-.7v-15.5l-1.4-.8-1.3.8z"/><g id="XMLID_3007_"><path id="XMLID_3008_" class="st2" d="M589.1 473.5V489l-2.1-1.2V476l-1.6-.9v-1.7c1.6.9 2 .3 2.3-.6l1.4.7z"/></g></g><g id="XMLID_2600_"><path id="XMLID_3030_" class="st43" d="M700.5 538.7l-1.3.7c-.2.1-.3.4-.3 1v2.8c0 1.1.4 1.8 1.1 2.2.3.2.6.2.8.1l1.3-.7c-.2.1-.5.1-.8-.1-.7-.4-1.1-1.1-1.1-2.2v-2.8c0-.6.1-.9.3-1z"/><path id="XMLID_3031_" class="st43" d="M701.3 536.6c-1-.6-1.8-.7-2.3-.4l-1.3.7c.5-.3 1.3-.2 2.3.4 2.1 1.2 3.2 3.3 3.2 5.8v7.9c0 1.4-.3 2.2-.9 2.6l1.3-.7c.6-.3.9-1.2.9-2.6v-7.9c0-2.5-1.1-4.6-3.2-5.8z"/><g id="XMLID_2649_"><path id="XMLID_2650_" class="st2" d="M700 537.4c2.1 1.2 3.2 3.3 3.2 5.8v7.9c0 2.6-1.1 3.4-3.2 2.2-2.1-1.2-3.2-3.2-3.2-5.7v-.4l2 1.2v.6c0 1.1.4 1.8 1.1 2.2.8.4 1.2.3 1.2-1.2v-2.8c-.4.7-1 .8-2 .2-1.6-.9-2.3-2.6-2.3-4.9v-2.8c0-2.8 1.1-3.5 3.2-2.3zm1.1 7.1v-2.8c0-1.1-.4-1.8-1.1-2.1-.7-.4-1.1-.2-1.1.9v2.8c0 1.1.4 1.8 1.1 2.2.7.3 1.1.1 1.1-1"/></g></g><g id="XMLID_2608_"><g id="XMLID_2559_" class="st0"><path id="XMLID_2571_" class="st43" d="M716.6 559.1c-.7-.4-1.1-1.1-1.1-2.2v-8.4c0-.6.1-.9.3-1l-1.3.7c-.2.1-.3.4-.3 1v8.4c0 1.1.4 1.8 1.1 2.2.3.2.6.2.8.1l1.3-.7c-.2.1-.5.1-.8-.1z"/><path id="XMLID_2578_" class="st43" d="M716.6 545.4c-1-.6-1.8-.7-2.4-.4l-1.3.7c.5-.3 1.3-.2 2.4.4 2.1 1.2 3.2 3.3 3.2 5.8v8.1c0 1.3-.3 2.1-.9 2.4l1.3-.7c.6-.3.9-1.2.9-2.4v-8.1c0-2.5-1.1-4.6-3.2-5.8z"/></g><g id="XMLID_2560_"><path id="XMLID_2561_" class="st2" d="M715.3 546.2c2.1 1.2 3.2 3.3 3.2 5.8v8.1c0 2.5-1.1 3.2-3.2 2-2.1-1.2-3.2-3.3-3.2-5.8v-8.1c0-2.4 1.1-3.2 3.2-2zm1.1 12.7v-8.4c0-1.1-.4-1.8-1.1-2.2-.7-.4-1.1-.2-1.1.9v8.4c0 1.1.4 1.8 1.1 2.2.7.4 1.1.3 1.1-.9"/></g></g></g></g></g><g id="XMLID_2613_"><g id="XMLID_2826_" class="st0"><g id="XMLID_2835_"><path id="XMLID_2836_" class="st44" d="M591 439.6l2.6-1.5v6.7l-2.6 1.5z"/></g><g id="XMLID_2829_"><path id="XMLID_2834_" class="st45" d="M585.4 436.4l2.5-1.5 5.7 3.2-2.6 1.5z"/></g><g id="XMLID_2827_"><path id="XMLID_2828_" class="st46" d="M591 439.6v6.7l-.9-.5c-2.6-1.5-4.8-5.2-4.8-8.3v-1.2l5.7 3.3z"/></g></g><g id="XMLID_2795_" class="st0"><g id="XMLID_2824_"><path id="XMLID_2825_" class="st44" d="M591.1 432.1l2.5-1.5v5.2l-2.6 1.5z"/></g><g id="XMLID_2811_"><path id="XMLID_2814_" class="st45" d="M585.4 428.9l2.6-1.5 5.6 3.2-2.5 1.5z"/></g><g id="XMLID_2798_"><path id="XMLID_2799_" class="st46" d="M591.1 432.1l-.1 5.2-5.6-3.3v-5.1z"/></g></g><g id="XMLID_2779_" class="st0"><g id="XMLID_2792_"><path id="XMLID_2793_" class="st44" d="M591.1 424.7l2.6-1.5-.1 5.1-2.5 1.5z"/></g><g id="XMLID_2784_"><path id="XMLID_2791_" class="st45" d="M585.4 421.4l2.6-1.5 5.7 3.3-2.6 1.5z"/></g><g id="XMLID_2782_"><path id="XMLID_2783_" class="st46" d="M591.1 424.7v5.1l-5.7-3.3v-5.1z"/></g></g><g id="XMLID_2738_" class="st0"><g id="XMLID_2775_"><path id="XMLID_2776_" class="st44" d="M591.1 415.6l2.6-1.5v6.7l-2.6 1.5z"/></g><path id="XMLID_2647_" class="st45" d="M592.8 413.6c-1.3-.8-2.5-.8-3.4-.3l-2.6 1.5c.9-.5 2.1-.4 3.4.3l.9.5 2.6-1.5-.9-.5z"/><g id="XMLID_2739_"><path id="XMLID_2741_" class="st46" d="M591.1 415.6v6.7l-5.7-3.3v-1.2c0-3 2.2-4.3 4.8-2.7l.9.5z"/></g></g><g id="XMLID_2722_" class="st0"><g id="XMLID_2736_"><path id="XMLID_2737_" class="st44" d="M608.8 425.8l2.5-1.5V455l-2.6 1.5z"/></g><g id="XMLID_2725_"><path id="XMLID_2726_" class="st45" d="M592.7 416.5l2.6-1.5 16 9.3-2.5 1.5z"/></g><g id="XMLID_2723_"><path id="XMLID_2724_" class="st46" d="M608.8 425.8l-.1 30.7-16.1-9.3.1-30.7z"/></g></g><g id="XMLID_2707_" class="st0"><path id="XMLID_2615_" class="st44" d="M615.9 454v1.2c0 1.5-.5 2.6-1.4 3.1l2.6-1.5c.9-.5 1.4-1.6 1.4-3.1v-1.2l-2.6 1.5z"/><g id="XMLID_2714_"><path id="XMLID_2715_" class="st45" d="M610.3 450.7l2.5-1.5 5.7 3.3-2.6 1.5z"/></g><g id="XMLID_2708_"><path id="XMLID_2709_" class="st46" d="M615.9 454v1.2c0 3-2.2 4.3-4.8 2.7l-.9-.5v-6.7l5.7 3.3z"/></g></g><g id="XMLID_2676_" class="st0"><g id="XMLID_2684_"><path id="XMLID_2706_" class="st44" d="M616 446.5l2.5-1.5v5.1l-2.6 1.5z"/></g><g id="XMLID_2679_"><path id="XMLID_2683_" class="st45" d="M610.3 443.2l2.6-1.5 5.6 3.3-2.5 1.5z"/></g><g id="XMLID_2677_"><path id="XMLID_2678_" class="st46" d="M616 446.5l-.1 5.1-5.6-3.2v-5.2z"/></g></g><g id="XMLID_2655_" class="st0"><g id="XMLID_2674_"><path id="XMLID_2675_" class="st44" d="M616 439l2.6-1.5v5.2l-2.6 1.5z"/></g><g id="XMLID_2672_"><path id="XMLID_2673_" class="st45" d="M610.3 435.8l2.6-1.5 5.7 3.2-2.6 1.5z"/></g><g id="XMLID_2667_"><path id="XMLID_2671_" class="st46" d="M616 439v5.2l-5.7-3.3v-5.1z"/></g></g><g id="XMLID_2610_" class="st0"><path id="XMLID_2653_" class="st45" d="M613.8 425.8l-.9-.5-2.6 1.5.9.5c2.6 1.5 4.8 5.2 4.8 8.3v1.2l2.6-1.5v-1.2c0-3.1-2.2-6.8-4.8-8.3z"/><g id="XMLID_2612_"><path id="XMLID_2614_" class="st46" d="M611.2 427.3c2.6 1.5 4.8 5.2 4.8 8.3v1.2l-5.7-3.3v-6.7l.9.5z"/></g></g></g><g id="XMLID_2646_"><path id="XMLID_2669_" class="st46" d="M720.8 532.7v6.7l-135.4-78.2v-6.7z"/></g><g id="XMLID_2716_"><g id="XMLID_2721_" class="st0"><g id="XMLID_2845_"><path id="XMLID_2846_" class="st46" d="M707.4 501.3c.6-.1 1.2-.2 1.7-.5l-1.5.9c-.5.3-1.1.5-1.7.5.4-.2 1-.7 1.5-.9z"/></g><g id="XMLID_2841_"><path id="XMLID_2842_" class="st4" d="M701.8 482.2c1.5.9 2.9 2.1 4.1 3.6 2.5 3.1 4.1 7.1 4.1 10.6s-1.7 5.6-4.1 5.8c-1.2.1-2.6-.2-4.1-1.1-4.6-2.6-8.2-9-8.2-14.2 0-5.2 3.7-7.4 8.2-4.7z"/></g><path id="XMLID_2719_" class="st5" d="M707.5 484.9c-1.2-1.5-2.6-2.8-4.1-3.6-2.3-1.3-4.4-1.4-5.9-.6l-1.5.9c1.5-.9 3.6-.7 5.9.6 1.5.9 2.9 2.1 4.1 3.6 2.5 3.1 4.1 7.1 4.1 10.6 0 2.6-.9 4.4-2.4 5.3l1.5-.9c1.5-.9 2.4-2.7 2.4-5.3 0-3.5-1.7-7.5-4.1-10.6z"/><path id="XMLID_2720_" class="st47" d="M711.6 486l-.8.4.8-.4c-1.5-.9-2.9-1.2-4.1-1.1-.5.2-1.1.6-1.5.9 1.2-.1 2.6.2 4.1 1.1 4.6 2.6 8.2 9 8.2 14.2 0 2.6-.9 4.4-2.4 5.3l1.5-.9c1.5-.9 2.4-2.7 2.4-5.3 0-5.2-3.7-11.5-8.2-14.2z"/><g id="XMLID_2742_"><path id="XMLID_2743_" class="st46" d="M710.1 486.9c4.6 2.6 8.2 9 8.2 14.2 0 5.2-3.7 7.3-8.3 4.7-1.5-.9-2.9-2.1-4.1-3.6 2.5-.2 4.1-2.3 4.1-5.8s-1.6-7.5-4.1-10.6c1.3-.1 2.7.3 4.2 1.1z"/></g></g></g></g><g id="XMLID_1162_"><g id="XMLID_2777_"><g id="XMLID_2012_"><g id="XMLID_2013_"><path id="XMLID_2014_" class="st34" d="M392.8 294.5l-55.3 32.1-8.6-5.2 55.7-31.7z"/><path id="XMLID_2286_" class="st4" d="M392.8 294.5l-55.3 32.1.1 42.8 55.2-31.9z"/><path id="XMLID_2483_" class="st48" d="M328.9 321.4l8.6 5.2.1 42.8-8.6-5z"/></g></g><g id="XMLID_2484_"><g id="XMLID_2543_" class="st0"><g id="XMLID_2554_"><path id="XMLID_2555_" class="st44" d="M385.8 335.8l-2.6-1.5L379 319l2.6 1.5z"/></g><g id="XMLID_2552_"><path id="XMLID_2553_" class="st44" d="M386.2 325.7l-2.6-1.5v-14.6l2.6 1.5z"/></g><g id="XMLID_2550_"><path id="XMLID_2551_" class="st45" d="M386.2 311.1l-2.6-1.5 3-1.7 2.6 1.5z"/></g><g id="XMLID_2548_"><path id="XMLID_2549_" class="st45" d="M378.6 315.5L376 314l4.2-2.4 2.6 1.5z"/></g><g id="XMLID_2546_"><path id="XMLID_2547_" class="st44" d="M378.6 339.9l-2.5-1.5-.1-24.4 2.6 1.5z"/></g><g id="XMLID_2544_"><path id="XMLID_2545_" class="st46" d="M389.2 309.4v24.4l-3.4 2-4.2-15.3v17.7l-3 1.7v-24.4l4.2-2.4 3.4 12.6v-14.6z"/></g></g><g id="XMLID_2532_" class="st0"><g id="XMLID_2541_"><path id="XMLID_2542_" class="st45" d="M370.8 340.9l-2.6-1.5 5.8-3.3 2.6 1.5z"/></g><g id="XMLID_2539_"><path id="XMLID_2540_" class="st45" d="M370.8 330.3l-2.6-1.5 4.6-2.7 2.6 1.5z"/></g><g id="XMLID_2537_"><path id="XMLID_2538_" class="st44" d="M367.5 346.3l-2.6-1.5-.1-24.4 2.6 1.5z"/></g><g id="XMLID_2535_"><path id="XMLID_2536_" class="st45" d="M367.4 321.9l-2.6-1.5 9.1-5.2 2.6 1.5z"/></g><g id="XMLID_2533_"><path id="XMLID_2534_" class="st46" d="M376.5 316.7v3.5l-5.7 3.3v6.8l4.6-2.7v3.5l-4.6 2.7v7.1l5.8-3.3v3.5l-9.1 5.2-.1-24.4z"/></g></g><g id="XMLID_2511_" class="st0"><path id="XMLID_2486_" class="st44" d="M362.6 330.5c0-.9-.2-1.4-.5-1.6l-2.6-1.5c.3.2.5.7.5 1.6v3.7c0 1.7-.6 2.6-1.6 3.2l-1.6.9 2.6 1.5 1.6-.9c1.1-.6 1.6-1.5 1.6-3.2v-3.7z"/><path id="XMLID_2492_" class="st45" d="M362 323.5c-.8-.5-2-.3-3.7.7l-4.9 2.8 2.6 1.5 4.9-2.8c1.6-.9 2.8-1.1 3.7-.7l-2.6-1.5z"/><g id="XMLID_2516_"><path id="XMLID_2517_" class="st44" d="M356.1 352.9l-2.6-1.5-.1-24.4 2.6 1.5z"/></g><g id="XMLID_2512_"><path id="XMLID_2513_" class="st46" d="M360.9 325.7c3.3-1.9 5-.7 5 3.2v3.2c0 3.9-1.6 7-5 8.9l-1.6.9v9.2L356 353l-.1-24.4 5-2.9zm1.7 8.5v-3.7c0-1.7-.6-2-1.6-1.4l-1.6.9v8.3l1.6-.9c1-.6 1.6-1.5 1.6-3.2"/></g></g><g id="XMLID_2485_" class="st0"><path id="XMLID_2493_" class="st44" d="M350.5 337.3c0-.9-.2-1.4-.5-1.6l-2.6-1.5c.3.2.5.7.5 1.6V349c0 1.7-.7 2.8-1.7 3.4-.5.3-.9.4-1.2.2l2.6 1.5c.3.2.7.1 1.2-.2 1.1-.6 1.7-1.7 1.7-3.4v-13.2z"/><path id="XMLID_2494_" class="st45" d="M349.9 330.3c-.9-.5-2.1-.3-3.7.6-3.3 1.9-5.1 5.2-5.1 9.1v12.7c0 2 .5 3.3 1.4 3.8l2.6 1.5c-.9-.5-1.4-1.8-1.4-3.8v-12.7c0-3.9 1.8-7.2 5.1-9.1 1.6-.9 2.8-1.1 3.7-.6l-2.6-1.5z"/><g id="XMLID_2495_"><path id="XMLID_2496_" class="st46" d="M348.8 332.4c3.3-1.9 5.1-.7 5.1 3.2v12.7c0 3.9-1.8 7.2-5 9.1-3.3 1.9-5.1.7-5.1-3.2v-12.7c-.1-3.9 1.7-7.2 5-9.1zm1.8 18.1v-13.2c0-1.7-.7-2-1.7-1.4-1.1.6-1.7 1.7-1.7 3.4v13.2c0 1.7.7 2 1.7 1.4 1-.6 1.7-1.7 1.7-3.4"/></g></g></g></g><g id="XMLID_2778_"><g id="XMLID_2839_" class="st0"><g id="XMLID_2848_"><path id="XMLID_2849_" class="st49" d="M363.1 287.4l-1.2-.6 16.9 9.6 1.2.6z"/></g><g id="XMLID_2844_"><path id="XMLID_2847_" class="st50" d="M345.7 317.6l-1.2-.7 17.4-30.1 1.2.6z"/></g><g id="XMLID_2840_"><path id="XMLID_2843_" class="st51" d="M363.1 287.4L380 297l-.9 1.5-16-9.1-16.5 28.6-.9-.4z"/></g></g></g><g id="XMLID_2008_"><g id="XMLID_2617_"><path id="XMLID_2618_" class="st52" d="M337.7 298.6v6.9l53.8-31v-7z"/></g><path id="XMLID_2645_" class="st53" d="M332.8 295.8l53.8-31 4.9 2.7-53.8 31.1z"/><path id="XMLID_2837_" class="st54" d="M337.7 305.5l-4.9-2.7v-7l4.9 2.8z"/></g></g><g id="XMLID_2838_"><g id="XMLID_2856_"><g id="XMLID_2875_"><g id="XMLID_2891_"><g id="XMLID_2896_" class="st0"><g id="XMLID_2897_"><path id="XMLID_2898_" class="st55" d="M469.1 465.5v-66.4l48.2-27.9v66.5z"/></g></g></g><g id="XMLID_2887_"><g id="XMLID_2888_" class="st0"><g id="XMLID_2889_"><path id="XMLID_2890_" class="st46" d="M410.4 431.6v-66.4l58.7 33.9v66.4z"/></g></g></g><path id="XMLID_2886_" class="st56" d="M410.4 365.2l48.2-27.8 58.7 33.8-48.2 27.9z"/><g id="XMLID_2911_"><g id="XMLID_2923_" class="st0"><g id="XMLID_2926_"><path id="XMLID_2937_" class="st44" d="M469.1 465.5v-66.4l48.2-27.9v66.5z"/></g></g></g><g id="XMLID_2880_"><g id="XMLID_2883_" class="st0"><g id="XMLID_2884_"><path id="XMLID_2885_" class="st57" d="M493.5 451.4V385l10-5.8v66.5z"/></g></g></g><g id="XMLID_2876_"><g id="XMLID_2877_" class="st0"><g id="XMLID_2878_"><path id="XMLID_2879_" class="st5" d="M444.7 451.4V385l-9.9-5.8v66.5z"/></g></g></g></g><g id="XMLID_2857_"><g id="XMLID_2871_"><g id="XMLID_2872_" class="st0"><g id="XMLID_2873_"><path id="XMLID_2874_" class="st44" d="M469.1 409.4v-13.5l48.2-27.8v13.4z"/></g></g></g><g id="XMLID_2867_"><g id="XMLID_2868_" class="st0"><g id="XMLID_2869_"><path id="XMLID_2870_" class="st46" d="M404.3 371.9v-13.4l64.8 37.4v13.5z"/></g></g></g><path id="XMLID_2866_" class="st45" d="M404.3 358.5l48.2-27.8 64.8 37.4-48.2 27.8z"/><g id="XMLID_2862_"><g id="XMLID_2863_" class="st0"><g id="XMLID_2864_"><path id="XMLID_2865_" class="st5" d="M497 393.3v-13.5l9.9-5.7v13.4z"/></g></g></g><g id="XMLID_2858_"><g id="XMLID_2859_" class="st0"><g id="XMLID_2860_"><path id="XMLID_2861_" class="st5" d="M440.6 392.9v-13.4l-10-5.8v13.4z"/></g></g></g><path id="XMLID_2899_" class="st4" d="M478.9 345.9l-48.3 27.8 10 5.8 48.2-27.9z"/><path id="XMLID_2900_" class="st48" d="M441.9 336.6l65 37.5-9.9 5.7-65-37.5z"/></g><path id="XMLID_2901_" class="st58" d="M410.4 375.4l58.7 34v2.8l-58.8-34z"/><path id="XMLID_2902_" class="st59" d="M517.3 381.5l-48.2 27.9v2.8l48.2-27.9z"/></g><g id="XMLID_2903_"><g id="XMLID_2912_" class="st0"><path id="XMLID_2905_" class="st57" d="M460.8 344c-10.1-5.8-15.3-12-16.8-16.3-1.2-3.4-.2-6.3 2.6-8l-10.5 6.1c-2.9 1.7-3.8 4.5-2.6 8 1.5 4.3 6.7 10.5 16.8 16.3 2.8 1.6 5.9 3.2 9.4 4.6l10.5-6.1c-3.5-1.5-6.6-3.1-9.4-4.6z"/><g id="XMLID_2935_"><path id="XMLID_2936_" class="st59" d="M464.5 357.9l10.5-6.1 1.7 3.7-10.6 6.1z"/></g><g id="XMLID_2933_"><path id="XMLID_2934_" class="st59" d="M463.9 360.7l10.5-6.1 2.3.9-10.6 6.1z"/></g><g id="XMLID_2929_"><path id="XMLID_2930_" class="st4" d="M464.5 357.9l1.7 3.7-2.3-.9-.6-.2c-4.7-1.8-9.1-3.9-13-6.2-10.4-6-17.6-13.3-20.2-20.6-2-5.7-.6-10.4 3.7-12.7 1.8-.9 3.9-.7 6.3.7.3.2.7.4 1 .7 8.3 5.7 17.6 23.6 21.4 31.6 1.2 2.2 1.9 3.6 2 3.9zm-14.2-7.8c2.8 1.6 5.9 3.2 9.4 4.6-4.3-8.8-12.5-24-18.8-28.3-.2-.2-.4-.3-.6-.4-1.4-.8-2.7-1-3.8-.4-3.1 1.6-4.2 4.6-3 8.2 1.4 4.2 6.7 10.4 16.8 16.3"/></g><g id="XMLID_2927_"><path id="XMLID_2928_" class="st5" d="M433.5 321.3l10.5-6.1c.1-.1.3-.2.4-.2 1.8-.9 3.9-.7 6.3.7.3.2.7.4 1 .7 8.3 5.7 17.6 23.6 21.4 31.6 1.1 2.2 1.7 3.6 1.8 3.9l-10.5 6.1c-.1-.2-.8-1.7-1.8-3.9-3.9-8-13.2-25.9-21.4-31.6-.3-.2-.7-.5-1-.7-2.4-1.4-4.5-1.6-6.3-.7-.2 0-.3.1-.4.2z"/></g><path id="XMLID_2906_" class="st57" d="M487.4 359.1c-3.2-1.9-6.8-4.2-10.9-7.2l-7.4 4.3 7.4-4.3c1.8-1.6 4.3-3.6 7.1-5.2l-10.5 6.1c-2.8 1.6-5.3 3.6-7.1 5.2 4.1 3 7.7 5.4 10.9 7.2 9.5 5.5 15.3 6.3 17.9 4.8l10.5-6.1c-2.6 1.5-8.4.7-17.9-4.8z"/><g id="XMLID_2921_"><path id="XMLID_2922_" class="st5" d="M470.4 348.2l10.5-6.1c4.9-2.9 11.1-4.9 16.8-2.2.4.2.8.4 1.1.6 2.6 1.5 5 4 6.9 7.3l-10.5 6.1c-2-3.3-4.3-5.7-6.9-7.3-.4-.2-.8-.4-1.1-.6-5.7-2.7-11.8-.7-16.8 2.2z"/></g><g id="XMLID_2915_"><path id="XMLID_2916_" class="st4" d="M495.3 353.8c4.8 8.1 6.3 14.9 4.1 18.7-2.8 4.8-10.9 3.6-22.5-3.1-3.9-2.3-8.3-5.2-13-8.7l2.3.9-1.7-3.7c-.1-.2-.8-1.7-1.8-3.9 4-3.7 15-12.5 24.6-8.1.4.2.8.4 1.1.6 2.6 1.5 4.9 4 6.9 7.3zm.8 14.9c1.5-2.5.2-7.4-3.3-13.3-1.3-2.1-2.7-3.6-4.4-4.6-.2-.1-.5-.3-.8-.4-7.3-3.4-16.9 3.2-21.7 7.6 4.1 3 7.7 5.4 10.9 7.2 11.6 6.6 17.5 6.4 19.3 3.5"/></g><g id="XMLID_2913_"><path id="XMLID_2914_" class="st5" d="M507.9 368.4l-10.5 6.1c.8-.5 1.5-1.1 2-2 2.2-3.8.7-10.6-4.1-18.7l10.5-6.1c4.8 8.1 6.3 14.9 4.1 18.7-.5.9-1.2 1.5-2 2z"/></g></g><g id="XMLID_2904_"><g id="XMLID_2907_" class="st0"><g id="XMLID_2938_"><path id="XMLID_2939_" class="st60" d="M458.8 358.4l11 6.4c.9.5 1.5 1 1.5 1.1l-11-6.4c-.1-.1-.6-.6-1.5-1.1z"/></g><g id="XMLID_2924_"><path id="XMLID_2925_" class="st61" d="M447.6 372.4l-11-6.3-.6-2.1 11 6.4z"/></g><path id="XMLID_2908_" class="st48" d="M460.2 355.7c-2.4-1.4-7.3-3-13.8.8-.5.3-1 .6-1.5 1-4 2.7-7 4.9-8.8 6.5l11 6.4c1.8-1.6 4.8-3.8 8.8-6.5.5-.4 1-.7 1.5-1 6.6-3.8 11.4-2.2 13.8-.8l-11-6.4z"/><g id="XMLID_2909_"><path id="XMLID_2910_" class="st57" d="M457.4 362.9c9.5-5.5 15.4.2 15.6.5l-1.7 2.4c-.1-.1-5.5-5.3-13.9-.4-.4.2-.9.5-1.3.8-4.9 3.3-7.3 5.2-8.5 6.2l-.5-2.1c1.8-1.6 4.8-3.8 8.8-6.5l1.5-.9z"/></g></g></g></g></g><g id="XMLID_2940_"><g id="XMLID_3058_"><g id="XMLID_3065_"><path id="XMLID_3069_" class="st42" d="M382 488.7l-70.2 40.6 9.3 76.7 70.2-40.6z"/><path id="XMLID_3068_" class="st42" d="M306.2 519l-17.8-3.3-7.4 68.7 25.2-4.1z"/><path id="XMLID_3067_" class="st41" d="M306.2 580.3V519l5.6 10.3 9.3 76.7z"/><path id="XMLID_3066_" class="st41" d="M281 584.4l25.2-4.1 14.9 25.7z"/></g><g id="XMLID_3059_"><path id="XMLID_3064_" class="st6" d="M306.2 519l5.6 10.3 70.2-40.6-18.5-2.8-4.9-10.7-70.2 40.5z"/><g id="XMLID_3060_"><path id="XMLID_3063_" class="st7" d="M308.7 517.5l4.9 9 63.7-36.8-16.1-2.5-4.2-9.3-63.8 36.8z"/><path id="XMLID_3062_" class="st8" d="M361.2 487.2V499l16.1-9.3z"/><path id="XMLID_3061_" class="st9" d="M357 477.9v23.5l4.2-2.4v-11.8z"/></g></g></g><g id="XMLID_3045_"><g id="XMLID_3056_"><path id="XMLID_3057_" class="st62" d="M334.5 526.5c1.8-1.1 3.3-.2 3.3 1.9s-1.5 4.6-3.3 5.7c-1.8 1.1-3.3.2-3.3-1.9s1.5-4.6 3.3-5.7z"/></g><g id="XMLID_3043_"><path id="XMLID_3044_" class="st63" d="M334.5 528.6c.8-.5 1.5-.1 1.5.9s-.7 2.1-1.5 2.6-1.5.1-1.5-.9.7-2.1 1.5-2.6z"/></g></g><g id="XMLID_3048_"><g id="XMLID_3054_"><path id="XMLID_3055_" class="st62" d="M369.3 506.5c1.8-1.1 3.3-.2 3.3 1.9s-1.5 4.6-3.3 5.7c-1.8 1.1-3.3.2-3.3-1.9s1.5-4.7 3.3-5.7z"/></g><g id="XMLID_3046_"><path id="XMLID_3047_" class="st63" d="M369.3 508.5c.8-.5 1.5-.1 1.5.9s-.7 2.1-1.5 2.6-1.5.1-1.5-.9c0-.9.7-2.1 1.5-2.6z"/></g></g><g id="XMLID_3050_"><g id="XMLID_3052_" class="st0"><g id="XMLID_3079_"><path id="XMLID_3080_" class="st1" d="M370 533l-1.8-1v-20.8l1.7 1z"/></g><g id="XMLID_3077_"><path id="XMLID_3078_" class="st2" d="M369.9 512.2l-1.7-1 2.9-1.7 1.8 1z"/></g><g id="XMLID_3075_"><path id="XMLID_3076_" class="st2" d="M337.9 551.6l-1.8-1 32.1-18.6 1.8 1z"/></g><g id="XMLID_3073_"><path id="XMLID_3074_" class="st2" d="M334.9 532.5l-1.8-1.1 2.9-1.7 1.8 1.1z"/></g><g id="XMLID_3071_"><path id="XMLID_3072_" class="st1" d="M334.9 556.7l-1.7-1-.1-24.3 1.8 1.1z"/></g><g id="XMLID_3053_"><path id="XMLID_3070_" class="st3" d="M372.9 510.5l.1 24.2-38.1 22v-24.2l2.9-1.7.1 20.8L370 533l-.1-20.8z"/></g></g></g></g><g id="XMLID_3508_"><g id="XMLID_3318_"><g id="XMLID_3330_"><g id="XMLID_3331_" class="st0"><g id="XMLID_3334_"><path id="XMLID_3335_" class="st64" d="M364.6 607.6v3.9c0 2.5-1.6 4.9-4.9 6.8-6.5 3.8-17.1 3.8-23.6 0-3.3-1.9-4.9-4.4-4.9-6.9v-3.9c0 2.5 1.6 5 4.9 6.9 6.5 3.8 17.1 3.8 23.6 0 3.3-1.9 4.9-4.3 4.9-6.8z"/></g><g id="XMLID_3332_"><path id="XMLID_3333_" class="st58" d="M359.7 600.7c6.5 3.8 6.6 9.9.1 13.7-6.5 3.8-17.1 3.8-23.6 0s-6.6-9.9-.1-13.7c6.5-3.7 17.1-3.7 23.6 0z"/></g></g></g><g id="XMLID_3319_"><g id="XMLID_3326_"><path id="XMLID_3327_" class="st65" d="M359.7 600.7c6.5 3.8 6.6 9.9.1 13.7-6.5 3.8-17.1 3.8-23.6 0s-6.6-9.9-.1-13.7c6.5-3.7 17.1-3.7 23.6 0zm-21.2 12.4c5.3 3 13.8 3 19 0 5.2-3 5.2-8-.1-11s-13.8-3-19 0c-5.2 3-5.2 7.9.1 11"/></g><g id="XMLID_3324_"><path id="XMLID_3325_" class="st58" d="M356.9 603.4l-1 .6c1.2 1.1.8 2.2-1 3.3l-.4.3-2.1-1.2.6-.3c1-.6 1-1 .3-1.4-.7-.4-1.5-.4-2.5.2-2.8 1.7 1.3 4.2-2.7 6.5-1.9 1.1-3.9 1.3-5.8.6l-1 .6-1.8-1 1-.6c-1.3-1.1-.8-2.3 1-3.3l1-.6 2.1 1.2-1.1.6c-1 .6-.9 1-.2 1.4.7.4 1.5.4 2.5-.1 2.8-1.7-1.3-4.2 2.7-6.5 1.9-1.1 3.8-1.3 5.7-.6l1-.6 1.7.9z"/></g><g id="XMLID_3320_"><path id="XMLID_3321_" class="st45" d="M357.4 602.1c5.3 3 5.3 8 .1 11s-13.7 3-19 0c-5.3-3-5.3-8-.1-11 5.2-3.1 13.8-3.1 19 0zm-15.1 9.8c1.9.7 3.9.5 5.8-.6 4-2.3-.2-4.8 2.7-6.5 1-.6 1.8-.6 2.5-.2.7.4.7.8-.3 1.4l-.6.3 2.1 1.2.4-.3c1.9-1.1 2.3-2.2 1-3.3l1-.6-1.8-1-1 .6c-1.9-.7-3.8-.4-5.7.6-4 2.3.2 4.8-2.7 6.5-1 .6-1.8.5-2.5.1s-.8-.9.2-1.4l1.1-.6-2.1-1.2-1 .6c-1.9 1.1-2.3 2.3-1 3.3l-1 .6 1.8 1 1.1-.5"/></g></g></g><g id="XMLID_3300_"><g id="XMLID_3312_"><g id="XMLID_3313_" class="st0"><g id="XMLID_3316_"><path id="XMLID_3317_" class="st64" d="M364.6 602.4v3.9c0 2.5-1.6 4.9-4.9 6.8-6.5 3.8-17.1 3.8-23.6 0-3.3-1.9-4.9-4.4-4.9-6.9v-3.9c0 2.5 1.6 5 4.9 6.9 6.5 3.8 17.1 3.8 23.6 0 3.3-1.9 4.9-4.3 4.9-6.8z"/></g><g id="XMLID_3314_"><path id="XMLID_3315_" class="st58" d="M359.7 595.5c6.5 3.8 6.6 9.9.1 13.7-6.5 3.8-17.1 3.8-23.6 0s-6.6-9.9-.1-13.7c6.5-3.7 17.1-3.7 23.6 0z"/></g></g></g><g id="XMLID_3301_"><g id="XMLID_3308_"><path id="XMLID_3309_" class="st65" d="M359.7 595.5c6.5 3.8 6.6 9.9.1 13.7-6.5 3.8-17.1 3.8-23.6 0s-6.6-9.9-.1-13.7c6.5-3.7 17.1-3.7 23.6 0zm-21.2 12.4c5.3 3 13.8 3 19 0 5.2-3 5.2-8-.1-11s-13.8-3-19 0c-5.2 3-5.2 7.9.1 11"/></g><g id="XMLID_3306_"><path id="XMLID_3307_" class="st58" d="M356.9 598.2l-1 .6c1.2 1.1.8 2.2-1 3.3l-.4.3-2.1-1.2.6-.3c1-.6 1-1 .3-1.4-.7-.4-1.5-.4-2.5.2-2.8 1.7 1.3 4.2-2.7 6.5-1.9 1.1-3.9 1.3-5.8.6l-1 .6-1.8-1 1-.6c-1.3-1.1-.8-2.3 1-3.3l1-.6 2.1 1.2-1.1.6c-1 .6-.9 1-.2 1.4.7.4 1.5.4 2.5-.1 2.8-1.7-1.3-4.2 2.7-6.5 1.9-1.1 3.8-1.3 5.7-.6l1-.6 1.7.9z"/></g><g id="XMLID_3302_"><path id="XMLID_3303_" class="st45" d="M357.4 596.9c5.3 3 5.3 8 .1 11s-13.7 3-19 0c-5.3-3-5.3-8-.1-11 5.2-3.1 13.8-3.1 19 0zm-15.1 9.8c1.9.7 3.9.5 5.8-.6 4-2.3-.2-4.8 2.7-6.5 1-.6 1.8-.6 2.5-.2.7.4.7.8-.3 1.4l-.6.3 2.1 1.2.4-.3c1.9-1.1 2.3-2.2 1-3.3l1-.6-1.8-1-1 .6c-1.9-.7-3.8-.4-5.7.6-4 2.3.2 4.8-2.7 6.5-1 .6-1.8.5-2.5.1s-.8-.9.2-1.4l1.1-.6-2.1-1.2-1 .6c-1.9 1.1-2.3 2.3-1 3.3l-1 .6 1.8 1 1.1-.5"/></g></g></g><g id="XMLID_3282_"><g id="XMLID_3294_"><g id="XMLID_3295_" class="st0"><g id="XMLID_3298_"><path id="XMLID_3299_" class="st64" d="M364.6 597.2v3.9c0 2.5-1.6 4.9-4.9 6.8-6.5 3.8-17.1 3.8-23.6 0-3.3-1.9-4.9-4.4-4.9-6.9v-3.9c0 2.5 1.6 5 4.9 6.9 6.5 3.8 17.1 3.8 23.6 0 3.3-1.9 4.9-4.3 4.9-6.8z"/></g><g id="XMLID_3296_"><path id="XMLID_3297_" class="st58" d="M359.7 590.3c6.5 3.8 6.6 9.9.1 13.7-6.5 3.8-17.1 3.8-23.6 0s-6.6-9.9-.1-13.7c6.5-3.7 17.1-3.7 23.6 0z"/></g></g></g><g id="XMLID_3283_"><g id="XMLID_3290_"><path id="XMLID_3291_" class="st65" d="M359.7 590.3c6.5 3.8 6.6 9.9.1 13.7-6.5 3.8-17.1 3.8-23.6 0s-6.6-9.9-.1-13.7c6.5-3.7 17.1-3.7 23.6 0zm-21.2 12.4c5.3 3 13.8 3 19 0 5.2-3 5.2-8-.1-11s-13.8-3-19 0c-5.2 3-5.2 7.9.1 11"/></g><g id="XMLID_3288_"><path id="XMLID_3289_" class="st65" d="M356.9 593l-1 .6c1.2 1.1.8 2.2-1 3.3l-.4.3-2.1-1.2.6-.3c1-.6 1-1 .3-1.4-.7-.4-1.5-.4-2.5.2-2.8 1.7 1.3 4.2-2.7 6.5-1.9 1.1-3.9 1.3-5.8.6l-1 .6-1.8-1 1-.6c-1.3-1.1-.8-2.3 1-3.3l1-.6 2.1 1.2-1.1.6c-1 .6-.9 1-.2 1.4.7.4 1.5.4 2.5-.1 2.8-1.7-1.3-4.2 2.7-6.5 1.9-1.1 3.8-1.3 5.7-.6l1-.6 1.7.9z"/></g><g id="XMLID_3284_"><path id="XMLID_3285_" class="st45" d="M357.4 591.7c5.3 3 5.3 8 .1 11s-13.7 3-19 0c-5.3-3-5.3-8-.1-11 5.2-3.1 13.8-3.1 19 0zm-15.1 9.8c1.9.7 3.9.5 5.8-.6 4-2.3-.2-4.8 2.7-6.5 1-.6 1.8-.6 2.5-.2.7.4.7.8-.3 1.4l-.6.3 2.1 1.2.4-.3c1.9-1.1 2.3-2.2 1-3.3l1-.6-1.8-1-1 .6c-1.9-.7-3.8-.4-5.7.6-4 2.3.2 4.8-2.7 6.5-1 .6-1.8.5-2.5.1s-.8-.9.2-1.4l1.1-.6-2.1-1.2-1 .6c-1.9 1.1-2.3 2.3-1 3.3l-1 .6 1.8 1 1.1-.5"/></g></g></g></g><g id="XMLID_3507_"><g id="XMLID_3444_"><g id="XMLID_3456_"><g id="XMLID_3457_" class="st0"><g id="XMLID_3460_"><path id="XMLID_3461_" class="st64" d="M395.4 622v3.9c0 2.5-1.6 4.9-4.9 6.8-6.5 3.8-17.1 3.8-23.6 0-3.3-1.9-4.9-4.4-4.9-6.9v-3.9c0 2.5 1.6 5 4.9 6.9 6.5 3.8 17.1 3.8 23.6 0 3.2-1.8 4.9-4.3 4.9-6.8z"/></g><g id="XMLID_3458_"><path id="XMLID_3459_" class="st58" d="M390.4 615.2c6.5 3.8 6.6 9.9.1 13.7-6.5 3.8-17.1 3.8-23.6 0s-6.6-9.9-.1-13.7c6.5-3.8 17.1-3.8 23.6 0z"/></g></g></g><g id="XMLID_3445_"><g id="XMLID_3452_"><path id="XMLID_3453_" class="st65" d="M390.4 615.2c6.5 3.8 6.6 9.9.1 13.7-6.5 3.8-17.1 3.8-23.6 0s-6.6-9.9-.1-13.7c6.5-3.8 17.1-3.8 23.6 0zm-21.2 12.3c5.3 3 13.8 3 19 0 5.2-3 5.2-8-.1-11s-13.8-3-19 0c-5.2 3-5.2 8 .1 11"/></g><g id="XMLID_3450_"><path id="XMLID_3451_" class="st58" d="M387.7 617.8l-1 .6c1.2 1.1.8 2.2-1 3.3l-.4.3-2.1-1.2.6-.3c1-.6 1-1 .3-1.4-.7-.4-1.5-.4-2.5.2-2.8 1.7 1.3 4.2-2.7 6.5-1.9 1.1-3.9 1.3-5.8.6l-1 .6-1.8-1 1-.6c-1.3-1.1-.8-2.3 1-3.3l1-.6 2.1 1.2-1.1.6c-1 .6-.9 1-.2 1.4.7.4 1.5.4 2.5-.1 2.8-1.7-1.3-4.2 2.7-6.5 1.9-1.1 3.8-1.3 5.7-.6l1-.6 1.7.9z"/></g><g id="XMLID_3446_"><path id="XMLID_3447_" class="st45" d="M388.1 616.5c5.3 3 5.3 8 .1 11s-13.7 3-19 0-5.3-8-.1-11c5.3-3 13.8-3 19 0zm-15 9.8c1.9.7 3.9.5 5.8-.6 4-2.3-.2-4.8 2.7-6.5 1-.6 1.8-.6 2.5-.2.7.4.7.8-.3 1.4l-.6.3 2.1 1.2.4-.3c1.9-1.1 2.3-2.2 1-3.3l1-.6-1.8-1-1 .6c-1.9-.7-3.8-.4-5.7.6-4 2.3.2 4.8-2.7 6.5-1 .6-1.8.5-2.5.1s-.8-.9.2-1.4l1.1-.6-2.1-1.2-1 .6c-1.9 1.1-2.3 2.3-1 3.3l-1 .6 1.8 1 1.1-.5"/></g></g></g><g id="XMLID_3426_"><g id="XMLID_3438_"><g id="XMLID_3439_" class="st0"><g id="XMLID_3442_"><path id="XMLID_3443_" class="st64" d="M395.4 616.8v3.9c0 2.5-1.6 4.9-4.9 6.8-6.5 3.8-17.1 3.8-23.6 0-3.3-1.9-4.9-4.4-4.9-6.9v-3.9c0 2.5 1.6 5 4.9 6.9 6.5 3.8 17.1 3.8 23.6 0 3.2-1.8 4.9-4.3 4.9-6.8z"/></g><g id="XMLID_3440_"><path id="XMLID_3441_" class="st58" d="M390.4 610c6.5 3.8 6.6 9.9.1 13.7-6.5 3.8-17.1 3.8-23.6 0s-6.6-9.9-.1-13.7c6.5-3.8 17.1-3.8 23.6 0z"/></g></g></g><g id="XMLID_3427_"><g id="XMLID_3434_"><path id="XMLID_3435_" class="st65" d="M390.4 610c6.5 3.8 6.6 9.9.1 13.7-6.5 3.8-17.1 3.8-23.6 0s-6.6-9.9-.1-13.7c6.5-3.8 17.1-3.8 23.6 0zm-21.2 12.3c5.3 3 13.8 3 19 0 5.2-3 5.2-8-.1-11s-13.8-3-19 0c-5.2 3-5.2 8 .1 11"/></g><g id="XMLID_3432_"><path id="XMLID_3433_" class="st65" d="M387.7 612.6l-1 .6c1.2 1.1.8 2.2-1 3.3l-.4.3-2.1-1.2.6-.3c1-.6 1-1 .3-1.4-.7-.4-1.5-.4-2.5.2-2.8 1.7 1.3 4.2-2.7 6.5-1.9 1.1-3.9 1.3-5.8.6l-1 .6-1.8-1 1-.6c-1.3-1.1-.8-2.3 1-3.3l1-.6 2.1 1.2-1.1.6c-1 .6-.9 1-.2 1.4.7.4 1.5.4 2.5-.1 2.8-1.7-1.3-4.2 2.7-6.5 1.9-1.1 3.8-1.3 5.7-.6l1-.6 1.7.9z"/></g><g id="XMLID_3428_"><path id="XMLID_3429_" class="st45" d="M388.1 611.3c5.3 3 5.3 8 .1 11s-13.7 3-19 0c-5.3-3-5.3-8-.1-11 5.3-3.1 13.8-3.1 19 0zm-15 9.8c1.9.7 3.9.5 5.8-.6 4-2.3-.2-4.8 2.7-6.5 1-.6 1.8-.6 2.5-.2.7.4.7.8-.3 1.4l-.6.3 2.1 1.2.4-.3c1.9-1.1 2.3-2.2 1-3.3l1-.6-1.8-1-1 .6c-1.9-.7-3.8-.4-5.7.6-4 2.3.2 4.8-2.7 6.5-1 .6-1.8.5-2.5.1s-.8-.9.2-1.4l1.1-.6-2.1-1.2-1 .6c-1.9 1.1-2.3 2.3-1 3.3l-1 .6 1.8 1 1.1-.5"/></g></g></g></g><path id="XMLID_3210_" class="st66" d="M390 563.8c-8.1 0-14.6-6.5-14.6-14.6 0 8.1-6.5 14.6-14.6 14.6 8.1 0 14.6 6.5 14.6 14.6 0-8 6.5-14.6 14.6-14.6z"/><path id="XMLID_3212_" class="st66" d="M336.3 572.4c-5.2 0-9.4-4.2-9.4-9.4 0 5.2-4.2 9.4-9.4 9.4 5.2 0 9.4 4.2 9.4 9.4-.1-5.2 4.1-9.4 9.4-9.4z"/><g id="XMLID_3039_"><g id="XMLID_3214_"><g id="XMLID_3220_" class="st0"><g id="XMLID_3239_"><path id="XMLID_3240_" class="st67" d="M696 421.1l-10 5.8.3-.3 10-5.8-.3.3z"/></g><g id="XMLID_3236_"><path id="XMLID_3238_" class="st68" d="M691 418.6l10-5.8-4.7 8-10 5.8z"/></g><path id="XMLID_3228_" class="st52" d="M712.2 367l-34.1-19.7c-1.6-.9-3-1-4-.4l-10 5.8c1-.6 2.4-.5 4 .4l34.1 19.7c3.1 1.8 5.6 6.1 5.6 9.7l-.1 39.2c0 1.8-.6 3-1.6 3.6l10-5.8c1-.6 1.6-1.8 1.6-3.6l.1-39.2c0-3.5-2.5-7.9-5.6-9.7z"/><g id="XMLID_3221_"><path id="XMLID_3222_" class="st53" d="M702.2 372.8c3.1 1.8 5.6 6.1 5.6 9.7l-.1 39.2c0 3.6-2.5 5-5.6 3.2l-11-6.4-4.7 8c-.3.5-.8.5-1.4.2-.5-.3-1.1-.9-1.3-1.7l-4.7-13.5-11-6.4c-3.1-1.8-5.6-6.1-5.6-9.7l.1-39.2c0-3.6 2.5-5 5.6-3.2l34.1 19.8z"/></g></g></g><g id="XMLID_3211_"><g id="XMLID_3223_" class="st0"><path id="XMLID_3215_" class="st58" d="M677.6 386.6c-.9-.5-1.5-1.5-1.5-2.9v-11.4c0-.8.2-1.2.4-1.4l-2.4 1.4c-.3.2-.4.6-.4 1.4v11.4c0 1.5.5 2.4 1.5 2.9.4.2.8.3 1 .2l2.4-1.4c-.2.1-.6 0-1-.2z"/><path id="XMLID_3216_" class="st58" d="M691.9 407c-1-.6-1.5-1.5-1.5-2.9v-11.4c0-.8.2-1.2.4-1.4l-2.4 1.4c-.3.2-.4.6-.4 1.4v11.4c0 1.5.5 2.4 1.5 2.9.4.2.8.3 1 .2l2.4-1.4c-.2.1-.6 0-1-.2z"/><path id="XMLID_3217_" class="st45" d="M677.6 368c-1.4-.8-2.5-1-3.2-.5l-2.4 1.4c.7-.4 1.8-.3 3.2.5 2.8 1.6 4.4 4.4 4.4 7.8v10.9c0 1.8-.4 2.9-1.2 3.3l2.4-1.4c.8-.5 1.2-1.6 1.2-3.3v-10.9c0-3.4-1.5-6.1-4.4-7.8z"/><g id="XMLID_3245_"><path id="XMLID_3509_" class="st46" d="M679.6 388.1c0 3.4-1.5 4.4-4.4 2.8-2.8-1.6-4.4-4.4-4.4-7.8v-10.9c0-3.4 1.5-4.4 4.4-2.8 2.8 1.6 4.4 4.4 4.4 7.8v10.9zm-5.8-3.1c0 1.5.5 2.4 1.5 2.9.9.5 1.5.2 1.5-1.2v-11.4c0-1.5-.6-2.4-1.5-2.9s-1.5-.2-1.5 1.2V385"/></g><path id="XMLID_3218_" class="st45" d="M691.9 388.4c-1.4-.8-2.5-1-3.2-.5l-2.4 1.4c.7-.4 1.8-.3 3.2.5 2.8 1.6 4.4 4.4 4.4 7.8v10.9c0 1.8-.4 2.9-1.2 3.3l2.4-1.4c.8-.5 1.2-1.6 1.2-3.3v-10.9c0-3.3-1.5-6.1-4.4-7.8z"/><g id="XMLID_3233_"><path id="XMLID_3234_" class="st58" d="M689.4 377.8l2.3-1.4-11.5 26.6-2.3 1.4z"/></g><g id="XMLID_3229_"><path id="XMLID_3230_" class="st46" d="M689.6 389.8c2.8 1.6 4.4 4.4 4.4 7.8v10.9c0 3.4-1.5 4.4-4.4 2.8-2.8-1.6-4.4-4.4-4.4-7.8v-10.9c0-3.4 1.5-4.4 4.4-2.8zm1.4 17.3v-11.4c0-1.5-.6-2.4-1.5-2.9-1-.6-1.5-.2-1.5 1.2v11.4c0 1.5.5 2.4 1.5 2.9.9.6 1.5.3 1.5-1.2"/></g><g id="XMLID_3226_"><path id="XMLID_3227_" class="st46" d="M686.7 376.2l2.7 1.6-11.5 26.6-2.7-1.6z"/></g><g id="XMLID_3224_"><path id="XMLID_3225_" class="st45" d="M686.7 376.2l2.3-1.4 2.7 1.6-2.3 1.4z"/></g></g></g></g><g id="XMLID_3524_"><g id="XMLID_3513_"><g id="XMLID_3515_" class="st0"><g id="XMLID_3520_"><path id="XMLID_3521_" class="st69" d="M642.3 320.8l8.5-4.9-.2 48.9-8.5 4.9z"/></g><g id="XMLID_3518_"><path id="XMLID_3519_" class="st70" d="M572 280.3l8.6-4.9 70.2 40.5-8.5 4.9z"/></g><g id="XMLID_3516_"><path id="XMLID_3517_" class="st48" d="M642.3 320.8l-.2 48.9-70.2-40.5.1-48.9z"/></g></g></g><g id="XMLID_3514_"><path id="XMLID_3522_" class="st71" d="M638.7 322.9l-.1 40.7-63.1-36.4.1-40.8z"/></g><g id="XMLID_3523_"><g id="XMLID_3579_" class="st0"><g id="XMLID_3592_"><path id="XMLID_3593_" class="st72" d="M581.8 318.4l3.8-2.3 3.4 2-3.9 2.2z"/></g><path id="XMLID_3525_" class="st58" d="M590.8 323.5c-1.1-.6-1.8-1.7-1.8-3.6v-1.8l-3.9 2.3v1.8c0 1.8.7 2.9 1.8 3.6.5.3 1 .4 1.3.2l3.9-2.3c-.3.2-.8.1-1.3-.2z"/><g id="XMLID_3588_"><path id="XMLID_3589_" class="st58" d="M586 306.6l3.9-2.3c-.3.2-.5.8-.5 1.7 0 5.3 6.9 10.3 6.9 17.7 0 2.1-.5 3.5-1.5 4.1l-3.9 2.3c1-.6 1.4-1.9 1.5-4.1 0-7.4-6.9-12.4-6.9-17.7-.1-.9.1-1.5.5-1.7z"/></g><path id="XMLID_3526_" class="st45" d="M591 300.9c-1.6-.9-2.9-1.1-3.8-.6l-3.9 2.3c.9-.5 2.1-.3 3.8.6 3.4 2 5.2 5.4 5.2 9.5v.8l3.9-2.3v-.8c0-4.2-1.8-7.5-5.2-9.5z"/><g id="XMLID_3580_"><path id="XMLID_3581_" class="st46" d="M587.1 303.1c3.4 2 5.2 5.4 5.2 9.5v.8l-3.3-1.9v-1.1c0-1.8-.6-2.9-1.8-3.6-1.1-.6-1.8-.3-1.8 1.5 0 5.3 6.9 10.3 6.9 17.7 0 4.1-1.8 5.4-5.3 3.4-3.5-2-5.3-5.4-5.2-9.5v-1.6l3.3 1.9v1.8c0 1.8.7 2.9 1.8 3.6 1.1.6 1.8.4 1.8-1.4 0-5.3-6.9-10.3-6.9-17.7.1-4 1.9-5.4 5.3-3.4z"/></g></g><g id="XMLID_3564_" class="st0"><g id="XMLID_3577_"><path id="XMLID_3578_" class="st58" d="M597.2 330.4l3.9-2.2-.6 4.3-3.9 2.2z"/></g><g id="XMLID_3575_"><path id="XMLID_3576_" class="st72" d="M597.7 327.2l3.8-2.3 3.4 2-3.8 2.2z"/></g><g id="XMLID_3573_"><path id="XMLID_3574_" class="st58" d="M599.4 315.1l3.9-2.3-1.8 12.1-3.8 2.3z"/></g><g id="XMLID_3571_"><path id="XMLID_3572_" class="st45" d="M597 309.1l3.9-2.2 5.2 3-3.9 2.2z"/></g><g id="XMLID_3569_"><path id="XMLID_3570_" class="st58" d="M602.2 312.1l3.9-2.2 3.5 27.9-3.9 2.2z"/></g><g id="XMLID_3565_"><path id="XMLID_3566_" class="st46" d="M602.2 312.1l3.5 27.9-3.6-2.1-.6-5-4.3-2.5-.6 4.3-3.2-1.9 3.7-23.7 5.1 3zm-4.5 15.1l3.4 2-1.7-14-1.7 12"/></g></g><g id="XMLID_3553_" class="st0"><g id="XMLID_3562_"><path id="XMLID_3563_" class="st72" d="M610.9 339.3l3.9-2.2 5.8 3.3-3.9 2.3z"/></g><g id="XMLID_3560_"><path id="XMLID_3561_" class="st58" d="M616.7 342.7l3.9-2.3-.1 3.7-3.8 2.2z"/></g><g id="XMLID_3558_"><path id="XMLID_3559_" class="st58" d="M610.9 317.2l3.9-2.3v22.2l-3.9 2.2z"/></g><g id="XMLID_3556_"><path id="XMLID_3557_" class="st45" d="M607.4 315.1l3.9-2.2 3.5 2-3.9 2.3z"/></g><g id="XMLID_3554_"><path id="XMLID_3555_" class="st46" d="M610.9 317.2v22.1l5.8 3.4v3.6l-9.4-5.3.1-25.9z"/></g></g><g id="XMLID_3534_" class="st0"><g id="XMLID_3551_"><path id="XMLID_3552_" class="st58" d="M627.8 349.1l3.9-2.3v3.7l-3.9 2.3z"/></g><g id="XMLID_3549_"><path id="XMLID_3550_" class="st72" d="M621.8 345.6l3.8-2.3 6.1 3.5-3.9 2.3z"/></g><g id="XMLID_3547_"><path id="XMLID_3548_" class="st58" d="M621.8 338l3.8-2.2v7.5l-3.8 2.3z"/></g><g id="XMLID_3545_"><path id="XMLID_3546_" class="st72" d="M621.8 334.3l3.9-2.2 4.8 2.8-3.9 2.2z"/></g><g id="XMLID_3543_"><path id="XMLID_3544_" class="st58" d="M626.6 337.1l3.9-2.2v3.7l-3.9 2.2z"/></g><g id="XMLID_3541_"><path id="XMLID_3542_" class="st58" d="M621.8 327.1l3.9-2.2v7.2l-3.9 2.2z"/></g><g id="XMLID_3539_"><path id="XMLID_3540_" class="st46" d="M627.9 327v3.7l-6.1-3.6v7.2l4.8 2.8v3.7l-4.8-2.8v7.6l6 3.5v3.7l-9.6-5.6.1-25.8z"/></g><g id="XMLID_3537_"><path id="XMLID_3538_" class="st58" d="M627.9 327l3.9-2.3v3.7l-3.9 2.3z"/></g><g id="XMLID_3535_"><path id="XMLID_3536_" class="st45" d="M618.3 321.4l3.9-2.2 9.6 5.5-3.9 2.3z"/></g></g></g></g><g id="XMLID_3529_"><g id="XMLID_3219_"><g id="XMLID_3235_" class="st0"><g id="XMLID_3244_"><path id="XMLID_3512_" class="st67" d="M271.9 370.1l10 5.8-.3-.3-10-5.8.3.3z"/></g><g id="XMLID_3242_"><path id="XMLID_3243_" class="st72" d="M276.9 367.6l-10-5.8 4.7 8 10 5.8z"/></g><path id="XMLID_3241_" class="st45" d="M255.7 316l34.1-19.7c1.6-.9 3-1 4-.4l10 5.8c-1-.6-2.4-.5-4 .4l-34.1 19.7c-3.1 1.8-5.6 6.1-5.6 9.7l.1 39.2c0 1.8.6 3 1.6 3.6l-10-5.8c-1-.6-1.6-1.8-1.6-3.6l-.1-39.2c0-3.6 2.5-7.9 5.6-9.7z"/><g id="XMLID_3237_"><path id="XMLID_3246_" class="st46" d="M265.7 321.8c-3.1 1.8-5.6 6.1-5.6 9.7l.1 39.2c0 3.6 2.5 5 5.6 3.2l11-6.4 4.7 8c.3.5.8.5 1.4.2.5-.3 1.1-.9 1.3-1.7l4.7-13.5 11-6.4c3.1-1.8 5.6-6.1 5.6-9.7l-.1-39.2c0-3.6-2.5-5-5.6-3.2l-34.1 19.8z"/></g></g></g><g id="XMLID_3528_"><g id="XMLID_3612_" class="st0"><g id="XMLID_3627_"><path id="XMLID_3628_" class="st73" d="M297.1 344.6l-2.4-1.4-1-10.4 2.3 1.4z"/></g><g id="XMLID_3625_"><path id="XMLID_3626_" class="st73" d="M298.9 339.3l-2.4-1.4 1.5-17.3 2.3 1.4z"/></g><g id="XMLID_3623_"><path id="XMLID_3624_" class="st2" d="M300.3 322l-2.3-1.4 2.4-1.4 2.4 1.4z"/></g><g id="XMLID_3621_"><path id="XMLID_3622_" class="st73" d="M293.4 342.3L291 341l1.4-17.1 2.3 1.3z"/></g><g id="XMLID_3619_"><path id="XMLID_3620_" class="st2" d="M294.7 325.2l-2.3-1.3 2.7-1.6 2.3 1.4z"/></g><g id="XMLID_3617_"><path id="XMLID_3618_" class="st2" d="M289.1 328.5l-2.4-1.4 2.8-1.6 2.3 1.4z"/></g><g id="XMLID_3615_"><path id="XMLID_3616_" class="st73" d="M291.1 348l-2.3-1.3-2.1-19.6 2.4 1.4z"/></g><g id="XMLID_3613_"><path id="XMLID_3614_" class="st74" d="M302.8 320.6l-2 21.8-3.7 2.2-1.1-10.4-1 11.6-3.9 2.2-2-19.5 2.7-1.6 1.6 15.4 1.3-17.1 2.7-1.5 1.5 15.6 1.4-17.3z"/></g></g><g id="XMLID_3601_" class="st0"><g id="XMLID_3610_"><path id="XMLID_3611_" class="st2" d="M283.1 349.7l-2.3-1.4 4.9-2.8 2.3 1.4z"/></g><g id="XMLID_3608_"><path id="XMLID_3609_" class="st2" d="M283.1 340.7l-2.3-1.4 3.8-2.2 2.4 1.3z"/></g><g id="XMLID_3606_"><path id="XMLID_3607_" class="st73" d="M280.3 354.3l-2.3-1.4-.1-20.7 2.3 1.4z"/></g><g id="XMLID_3604_"><path id="XMLID_3605_" class="st2" d="M280.2 333.6l-2.3-1.4 7.7-4.4 2.4 1.3z"/></g><g id="XMLID_3602_"><path id="XMLID_3603_" class="st74" d="M288 329.1v3l-4.9 2.8v5.8l3.9-2.3v3l-3.9 2.2v6.1l4.9-2.8v2.9l-7.7 4.5-.1-20.7z"/></g></g><g id="XMLID_3584_" class="st0"><g id="XMLID_3599_"><path id="XMLID_3600_" class="st73" d="M275.4 357.1l-2.4-1.3-3.6-13 2.4 1.4z"/></g><g id="XMLID_3597_"><path id="XMLID_3598_" class="st73" d="M275.7 348.6l-2.3-1.4-.1-12.4 2.4 1.4z"/></g><g id="XMLID_3595_"><path id="XMLID_3596_" class="st2" d="M275.7 336.2l-2.4-1.4 2.6-1.4 2.3 1.4z"/></g><g id="XMLID_3591_"><path id="XMLID_3594_" class="st2" d="M269.2 339.9l-2.3-1.3 3.5-2.1 2.4 1.4z"/></g><g id="XMLID_3587_"><path id="XMLID_3590_" class="st73" d="M269.3 360.6l-2.4-1.3v-20.7l2.3 1.3z"/></g><g id="XMLID_3585_"><path id="XMLID_3586_" class="st74" d="M278.2 334.8l.1 20.7-2.9 1.6-3.6-12.9v15l-2.5 1.4-.1-20.7 3.6-2 2.9 10.7v-12.4z"/></g></g></g></g><g id="XMLID_2481_"><linearGradient id="XMLID_4_" gradientUnits="userSpaceOnUse" x1="532.144" y1="299.279" x2="546.974" y2="324.966"><stop offset=".005" stop-color="#fff" stop-opacity="0"/><stop offset=".156" stop-color="#fefdfb" stop-opacity=".151"/><stop offset=".304" stop-color="#fdf8ef" stop-opacity=".301"/><stop offset=".452" stop-color="#faefdb" stop-opacity=".449"/><stop offset=".6" stop-color="#f7e2c0" stop-opacity=".598"/><stop offset=".747" stop-color="#f2d29c" stop-opacity=".745"/><stop offset=".891" stop-color="#ecbe71" stop-opacity=".891"/><stop offset="1" stop-color="#e7ad4b"/></linearGradient><path id="XMLID_2482_" class="st75" d="M556.4 285.3l.1 34.2-33.8 19.5 24.2-48.2z"/></g></g></svg>