<svg id="Capa_1" xmlns="http://www.w3.org/2000/svg" viewBox="-140 0 806 499.9"><mask id="mask"><circle r="10" cx="100" cy="100" class="c-mask-circle"/></mask><clipPath id="clip-path"><circle r="10" cx="100" cy="100" class="c-cp-circle"/></clipPath><style>.st0{fill:#ededed}.st1{enable-background:new}.st2{fill:#92a4b0}.st3{fill:#d5d7cd}.st4{fill:#fff}.st5{fill:url(#XMLID_7_)}.st6{fill:#415460}.st7{fill:#2f3154}.st8{fill:#3e6985}.st9{fill:#617c8c}.st10{fill:#dedede}.st11{fill:#b4b7de}.st12{fill:#d7d8de}.st13{fill:#d64128}.st14{fill:#f26b54}.st15{fill:#e8533a}.st16{fill:url(#XMLID_8_)}.st17{fill:#1b9971}.st18{fill:#60d4af}.st19{fill:#36c295}.st20{fill:url(#XMLID_9_)}.st21{fill:#de2a48}.st22{fill:#ff617b}.st23{fill:#de3551}.st24{fill:url(#XMLID_10_)}.st25{fill:#f9ff3d}.st26{fill:#f29b06}.st27{fill:#ffd006}.st28{fill:#ffb406}.st29{fill:url(#XMLID_11_)}.st30{fill:#329fba}.st31{fill:#5bcacc}.st32{fill:#45bacc}.st33{fill:url(#XMLID_12_)}.st34{fill:#3382e0}.st35{fill:#60bcf5}.st36{fill:#35a4e8}.st37{fill:url(#XMLID_13_)}.st38{fill:url(#XMLID_26_)}.st39{fill:#3b5998}.st40{fill:#274a87}</style><g id="XMLID_470_"><path id="XMLID_578_" class="st0" d="M585.5 203.7L197.8 429c-19.4 11.2-50.9 11.2-70.3 0L-58 321.9c-9.8-5.7-14.7-13.1-14.7-20.5l-.1 36.4c0 7.4 4.9 14.9 14.7 20.5l185.5 107.1c19.5 11.2 51 11.2 70.3 0l387.7-225.3c9.6-5.6 14.4-12.9 14.5-20.2l.1-36.4c0 7.3-4.9 14.6-14.5 20.2z"/><g id="XMLID_559_"><g id="XMLID_574_" class="st1"><path id="XMLID_577_" class="st2" d="M585.5 196.6L197.8 421.9c-19.4 11.2-50.9 11.2-70.3 0L-58 314.8c-9.8-5.7-14.7-13.1-14.7-20.5l-.1 36.4c0 7.4 4.9 14.9 14.7 20.5l185.5 107.1c19.5 11.2 51 11.2 70.3 0L585.4 233c9.6-5.6 14.4-12.9 14.5-20.2l.1-36.4c0 7.3-4.9 14.6-14.5 20.2z"/><g id="XMLID_575_"><path id="XMLID_576_" class="st3" d="M585.3 155.8c19.5 11.2 19.6 29.5.2 40.7L197.8 421.9c-19.4 11.2-50.9 11.2-70.3 0L-58 314.8c-19.5-11.2-19.6-29.5-.2-40.7L329.5 48.8c19.4-11.3 50.9-11.2 70.3 0l185.5 107z"/></g></g></g><g id="XMLID_555_"><path id="XMLID_557_" class="st4" d="M574.4 157.2c18.6 10.7 18.7 28.1.2 38.9L198.9 414.5c-18.5 10.7-48.5 10.7-67.1 0l-177-102.2c-18.6-10.7-18.7-28.1-.2-38.9L330.3 55.1c18.5-10.7 48.5-10.7 67.1 0l177 102.1z"/></g><linearGradient id="XMLID_7_" gradientUnits="userSpaceOnUse" x1="596.154" y1="302.78" x2="744.986" y2="44.995" gradientTransform="matrix(1 0 0 -1 -400 441.89)"><stop offset="0" stop-color="#fff" stop-opacity="0"/><stop offset=".453" stop-color="#fdfeff" stop-opacity=".453"/><stop offset=".616" stop-color="#f6f9fd" stop-opacity=".616"/><stop offset=".732" stop-color="#ebf0fa" stop-opacity=".732"/><stop offset=".826" stop-color="#dae4f6" stop-opacity=".826"/><stop offset=".906" stop-color="#c4d4f1" stop-opacity=".906"/><stop offset=".976" stop-color="#a9c0eb" stop-opacity=".976"/><stop offset="1" stop-color="#9eb8e8"/></linearGradient><path id="XMLID_554_" class="st5" d="M585.5 196.6L197.8 421.9c-19.4 11.2-50.9 11.2-70.3 0L-58 314.8c-9.8-5.7-14.7-13.1-14.7-20.5l-.1 36.4c0 7.4 4.9 14.9 14.7 20.5l185.5 107.1c19.5 11.2 51 11.2 70.3 0L585.4 233c9.6-5.6 14.4-12.9 14.5-20.2l.1-36.4c0 7.3-4.9 14.6-14.5 20.2z"/><g id="XMLID_550_"><path id="XMLID_553_" class="st6" d="M562 197.4L219.4 396.1-14.1 261.2 328.4 62.5z"/><g id="XMLID_551_"><path id="XMLID_552_" class="st7" d="M562 197.4l-20.2 11.8L308.1 74.3l20.3-11.8z"/></g></g><g id="XMLID_520_"><g id="XMLID_548_"><path id="XMLID_549_" class="st8" d="M552.9 235.6c0 4.4-3.1 9.8-6.9 12l-60.4 34.9c-2.8 1.6-5.3 1.1-6.4-1-.4-.8-.6-1.8-.6-2.9 0-4.4 3.1-9.8 7-12.1l60.4-34.9c1-.6 1.9-.8 2.7-.9 2.4-.3 4.2 1.6 4.2 4.9z"/></g><g id="XMLID_521_"><path id="XMLID_539_" class="st9" d="M549.3 233.6c0 4.4-3.1 9.8-6.9 12L482 280.5c-1 .6-1.9.9-2.8.9-.4-.8-.6-1.8-.6-2.9 0-4.4 3.1-9.8 7-12.1l60.4-34.9c1-.6 1.9-.8 2.7-.9.3.8.6 1.8.6 3z"/></g></g><g id="XMLID_514_"><g id="XMLID_518_"><path id="XMLID_519_" class="st10" d="M489.9 131.7c-.2.4-.7.8-1.2 1.1-2.1 1.2-5.4 1.2-7.5 0l-41.4-23.9c-.6-.3-1-.7-1.2-1.1-.7-1.1-.3-2.4 1.2-3.3 2.1-1.2 5.5-1.2 7.5 0l41.4 23.9c1.5.9 1.9 2.2 1.2 3.3z"/></g><g id="XMLID_516_"><path id="XMLID_517_" class="st11" d="M489.9 131.7c-.2.4-.7.8-1.2 1.1-2.1 1.2-5.4 1.2-7.5 0l-41.4-23.9c-.6-.3-1-.7-1.2-1.1.2-.4.6-.8 1.2-1.1 2.1-1.2 5.5-1.2 7.5 0l41.4 23.9c.5.3 1 .7 1.2 1.1z"/></g></g><g id="XMLID_505_"><g id="XMLID_510_"><path id="XMLID_513_" class="st12" d="M96.5 340.5c4.4 2.5 4.4 6.6.1 9.1L80 359.3c-4.3 2.5-11.4 2.5-15.8 0l-16.6-9.6c-4.4-2.5-4.4-6.6-.1-9.1L64 331c4.3-2.5 11.4-2.5 15.8 0l16.7 9.5z"/><g id="XMLID_511_"><path id="XMLID_512_" class="st11" d="M91.8 341.4c3.5 2 3.6 5.3.1 7.4l-13.3 7.7c-3.5 2-9.2 2-12.7 0l-13.4-7.7c-3.5-2-3.5-5.3 0-7.4l13.3-7.7c3.5-2 9.2-2 12.7 0l13.3 7.7z"/></g></g><g id="XMLID_508_"><path id="XMLID_509_" class="st10" d="M158.2 389.8c2.4 1.4 2.4 3.7 0 5.1-2.4 1.4-6.3 1.4-8.7 0l-24.8-14.3c-2.4-1.4-2.4-3.7 0-5.1 2.4-1.4 6.3-1.4 8.7 0l24.8 14.3z"/></g><g id="XMLID_506_"><path id="XMLID_507_" class="st10" d="M18.9 309.4c2.4 1.4 2.4 3.7 0 5.1-2.4 1.4-6.3 1.4-8.7 0l-24.8-14.3c-2.4-1.4-2.4-3.7 0-5.1 2.4-1.4 6.3-1.4 8.7 0l24.8 14.3z"/></g></g><g id="XMLID_500_"><g id="XMLID_503_"><path id="XMLID_504_" class="st8" d="M14.3 375.1c0 2.4 1.7 5.4 3.9 6.7l33.5 19.4c1.6.9 2.9.6 3.5-.6.2-.4.3-1 .3-1.6 0-2.5-1.7-5.5-3.9-6.7l-33.5-19.4c-.5-.3-1.1-.5-1.5-.5-1.4-.1-2.3.9-2.3 2.7z"/></g><g id="XMLID_501_"><path id="XMLID_502_" class="st9" d="M16.3 374.1c0 2.5 1.7 5.4 3.9 6.7l33.5 19.4c.5.3 1.1.5 1.5.5.2-.4.3-1 .3-1.6 0-2.5-1.7-5.5-3.9-6.7L18.1 373c-.5-.3-1.1-.5-1.5-.5-.2.3-.3.9-.3 1.6z"/></g></g><g id="XMLID_494_"><g id="XMLID_498_"><path id="XMLID_499_" class="st8" d="M69.6 406.7c0 .9-.2 1.6-.5 2.1-.7 1.1-2.2 1.4-3.9.4-2.4-1.4-4.4-4.8-4.4-7.6 0-1.9.9-3 2.2-3.1.6 0 1.4.1 2.2.6 2.4 1.5 4.4 4.9 4.4 7.6z"/></g><g id="XMLID_496_"><path id="XMLID_497_" class="st9" d="M69.6 406.7c0 .9-.2 1.6-.5 2.1-.6.1-1.4-.1-2.2-.6-2.4-1.4-4.4-4.8-4.4-7.6 0-.9.2-1.6.6-2.1.6 0 1.4.1 2.2.6 2.3 1.5 4.3 4.9 4.3 7.6z"/></g></g><path id="XMLID_493_" class="st7" d="M163.2 297.4l-42.9 24.9-60.5-35 43.2-24.6z"/><path id="XMLID_492_" class="st7" d="M392.4 135.5l-54.6 31.7-84.8-49.1 54.9-31.4z"/><path id="XMLID_491_" class="st7" d="M96.2 258.8l-42.8 24.9-43.5-25.2 43.2-24.7z"/><path id="XMLID_488_" class="st7" d="M265.5 356.5l-42.9 24.9-43.4-25.2 43.1-24.6z"/><path id="XMLID_487_" class="st7" d="M519.8 210.1l-54.2 31.5-54.8-31.9 54.5-31.1z"/><path id="XMLID_485_" class="st7" d="M456.6 173.7l-54.1 31.4-54.8-31.8 54.5-31.1z"/><path id="XMLID_484_" class="st7" d="M337.4 187.2L308.7 204l-102-59.1 29.1-16.4z"/><path id="XMLID_483_" class="st7" d="M405.7 276.2l-120 69.6L72.5 222.4l120.4-69.1z"/><path id="XMLID_481_" class="st7" d="M448.7 251.4L420 268.3l-29.6-17.4 29.1-16.3z"/><path id="XMLID_478_" class="st7" d="M411 229.7l-28.7 16.8-29.6-17.3 29.2-16.4z"/><path id="XMLID_477_" class="st7" d="M374.7 208.7L346 225.5l-29.6-17.3 29.2-16.4z"/><path id="XMLID_476_" class="st7" d="M215.1 326.8l-42.6 24.8-43.7-25.5 43-24.4z"/></g><g id="XMLID_450_"><g id="XMLID_462_"><g id="XMLID_464_"><path id="XMLID_467_" class="st13" d="M519.8 56.3l-54.2 31.5.1 16.4 54-31.3z"/><path id="XMLID_466_" class="st14" d="M519.8 56.3l-54.2 31.5-54.8-31.9 54.5-31.1z"/><path id="XMLID_465_" class="st15" d="M410.8 55.9l54.8 31.9.1 16.4-54.9-31.7z"/></g><linearGradient id="XMLID_8_" gradientUnits="userSpaceOnUse" x1="889.115" y1="367.864" x2="896.298" y2="355.423" gradientTransform="matrix(1 0 0 -1 -400 441.89)"><stop offset="0" stop-color="#fff" stop-opacity="0"/><stop offset=".1" stop-color="#fef9f8" stop-opacity=".1"/><stop offset=".242" stop-color="#fae9e6" stop-opacity=".242"/><stop offset=".409" stop-color="#f4cec7" stop-opacity=".409"/><stop offset=".595" stop-color="#eca89d" stop-opacity=".595"/><stop offset=".796" stop-color="#e27867" stop-opacity=".796"/><stop offset="1" stop-color="#d64128"/></linearGradient><path id="XMLID_463_" class="st16" d="M519.8 56.3l-54.2 31.5.1 16.4 54-31.3z"/></g><g id="XMLID_451_"><g id="XMLID_452_" class="st1"><g id="XMLID_460_"><path id="XMLID_461_" class="st4" d="M470.6 50.3c2.2 1.3 2.2 3.3 0 4.6-2.2 1.3-5.7 1.3-7.9 0s-2.2-3.3 0-4.6c2.2-1.3 5.8-1.3 7.9 0z"/></g><g id="XMLID_453_"><path id="XMLID_457_" class="st4" d="M482.9 59.5c-3.3 2.5-8.1 4.1-13.6 4.5l-21.6 1.5c-.9.1-1.8-.1-2.4-.5-.6-.4-1-.9-.9-1.4l2.5-12.5c.6-3.2 3.4-6 7.8-7.9s9.8-2.7 15.2-2.2c4.3.4 8.2 1.6 11.1 3.3 2.9 1.7 5 3.9 5.7 6.4.8 3.2-.5 6.3-3.8 8.8zm-14.3 1.2c3.9-.3 7.3-1.4 9.6-3.2 2.3-1.8 3.3-4 2.7-6.2-.5-1.8-1.9-3.4-4-4.6s-4.8-2-7.9-2.3c-3.8-.3-7.7.2-10.8 1.6-3.1 1.4-5 3.3-5.5 5.6L450.6 62l18-1.3"/></g></g></g></g><g id="XMLID_422_"><g id="XMLID_442_"><g id="XMLID_444_"><path id="XMLID_449_" class="st17" d="M391.9 61.5l-54.1 31.4v16.4l54.1-31.2z"/><path id="XMLID_447_" class="st18" d="M391.9 61.5l-54.1 31.4L253 43.6l54.5-31.1z"/><path id="XMLID_445_" class="st19" d="M253 43.6l84.8 49.3v16.4l-84.7-49.1z"/></g><linearGradient id="XMLID_9_" gradientUnits="userSpaceOnUse" x1="761.296" y1="362.702" x2="768.479" y2="350.26" gradientTransform="matrix(1 0 0 -1 -400 441.89)"><stop offset="0" stop-color="#fff" stop-opacity="0"/><stop offset=".093" stop-color="#f8fdfc" stop-opacity=".093"/><stop offset=".224" stop-color="#e6f7f5" stop-opacity=".224"/><stop offset=".379" stop-color="#c7eee8" stop-opacity=".379"/><stop offset=".55" stop-color="#9de1d7" stop-opacity=".55"/><stop offset=".737" stop-color="#67d0c1" stop-opacity=".737"/><stop offset=".932" stop-color="#25bca6" stop-opacity=".932"/><stop offset="1" stop-color="#0db59c"/></linearGradient><path id="XMLID_443_" class="st20" d="M391.9 61.5l-54.1 31.4v16.4l54.1-31.2z"/></g><g id="XMLID_423_"><g id="XMLID_436_"><path id="XMLID_441_" class="st4" d="M326 49.4c4.6 2.7 6.5 6.6 4.8 10.2-.4.9-2 1.4-3.5 1.2-.5-.1-.9-.2-1.3-.4-.7-.4-1-1-.8-1.6 1.1-2.5-.1-5.2-3.3-7.1-3.2-1.8-7.8-2.6-12.2-1.9-1 .2-2.1 0-2.8-.4-.3-.2-.6-.5-.7-.7-.4-.9.5-1.8 2-2 6.4-1.1 13.2 0 17.8 2.7z"/></g><g id="XMLID_434_"><path id="XMLID_435_" class="st4" d="M315.5 55.5c2 1.1 2 3 0 4.1-2 1.1-5.1 1.1-7.1 0s-2-3 0-4.1c2-1.2 5.2-1.2 7.1 0z"/></g><g id="XMLID_432_"><path id="XMLID_433_" class="st4" d="M336.4 43.3c7.4 4.3 10.3 10.5 7.7 16.4-.4.9-2 1.4-3.5 1.2-.5-.1-.9-.2-1.3-.4-.7-.4-1-1-.8-1.6 2.1-4.7-.2-9.7-6.2-13.2-5.9-3.4-14.6-4.8-22.7-3.5-1 .2-2.1 0-2.8-.4-.3-.2-.6-.5-.7-.7-.4-.9.5-1.8 2-2 10.1-1.7 20.9 0 28.3 4.2z"/></g></g></g><g id="XMLID_374_"><g id="XMLID_382_"><g id="XMLID_384_"><path id="XMLID_387_" class="st21" d="M215.1 248.5l-42.6 24.8.1 16.4 42.5-24.6z"/><path id="XMLID_386_" class="st22" d="M215.1 248.5l-42.6 24.8-43.7-25.4 43-24.4z"/><path id="XMLID_385_" class="st23" d="M128.8 247.9l43.7 25.4.1 16.4-43.7-25.2z"/></g><linearGradient id="XMLID_10_" gradientUnits="userSpaceOnUse" x1="590.248" y1="179.029" x2="597.431" y2="166.587" gradientTransform="matrix(1 0 0 -1 -400 441.89)"><stop offset="0" stop-color="#fff" stop-opacity="0"/><stop offset=".101" stop-color="#fef8f9" stop-opacity=".101"/><stop offset=".244" stop-color="#fbe6e9" stop-opacity=".244"/><stop offset=".412" stop-color="#f6c7cf" stop-opacity=".412"/><stop offset=".599" stop-color="#f09dab" stop-opacity=".599"/><stop offset=".799" stop-color="#e7677d" stop-opacity=".799"/><stop offset="1" stop-color="#de2a48"/></linearGradient><path id="XMLID_383_" class="st24" d="M215.1 248.5l-42.6 24.8.1 16.4 42.5-24.6z"/></g><g id="XMLID_375_"><g id="XMLID_378_"><path id="XMLID_379_" class="st4" d="M190.1 249.7c.9.5.9 1.4 0 1.9l-15 8.7c-.9.5-2.4.5-3.3 0l-23-13.3c-.9-.5-.9-1.4 0-1.9l15-8.7c.9-.5 2.4-.5 3.3 0l5.4 3.1 2.7-1.6c.4-.3 1-.4 1.7-.4.6 0 1.2.1 1.7.4l8.8 5.1c.9.5.9 1.4 0 1.9l-2.8 1.6 5.5 3.2zm-16.6 7.7l11.6-6.8-5.5-3.2c-.9-.5-.9-1.4 0-1.9l2.8-1.6-5.4-3.1-2.7 1.6c-.4.3-1 .4-1.7.4-.6 0-1.2-.1-1.7-.4l-5.5-3.2-11.6 6.8 19.7 11.4"/></g><g id="XMLID_376_"><path id="XMLID_377_" class="st4" d="M172.9 246.4c1.7 1 1.7 2.6 0 3.5-1.7 1-4.4 1-6.1 0-1.7-1-1.7-2.6 0-3.5 1.7-1 4.4-1 6.1 0z"/></g></g></g><g id="XMLID_255_"><g id="XMLID_267_"><path id="XMLID_268_" class="st25" d="M214.1 324.8h2v2h-2z"/></g><g id="XMLID_258_"><path id="XMLID_259_" class="st25" d="M214.1 320.9v-3.8h2v3.8h-2zm0-7.7v-3.8h2v3.8h-2zm0-7.6v-3.8h2v3.8h-2zm0-7.7v-3.8h2v3.8h-2zm0-7.7v-3.8h2v3.8h-2zm0-7.7v-3.8h2v3.8h-2zm0-7.7V271h2v3.8h-2z"/></g><g id="XMLID_256_"><path id="XMLID_257_" class="st25" d="M214.1 265.1h2v2h-2z"/></g></g><g id="XMLID_242_"><g id="XMLID_249_"><g id="XMLID_251_"><path id="XMLID_254_" class="st26" d="M265.2 296.7l-42.5 24.8v16.4l42.5-24.6z"/><path id="XMLID_253_" class="st27" d="M265.2 296.7l-42.5 24.8-43.7-25.4 42.9-24.4z"/><path id="XMLID_252_" class="st28" d="M179 296.1l43.7 25.4v16.4L179 312.7z"/></g><linearGradient id="XMLID_11_" gradientUnits="userSpaceOnUse" x1="640.395" y1="130.81" x2="647.578" y2="118.368" gradientTransform="matrix(1 0 0 -1 -400 441.89)"><stop offset="0" stop-color="#fff" stop-opacity="0"/><stop offset=".1" stop-color="#fef9f8" stop-opacity=".1"/><stop offset=".242" stop-color="#fae9e6" stop-opacity=".242"/><stop offset=".409" stop-color="#f4cec7" stop-opacity=".409"/><stop offset=".595" stop-color="#eca89d" stop-opacity=".595"/><stop offset=".796" stop-color="#e27867" stop-opacity=".796"/><stop offset="1" stop-color="#d64128"/></linearGradient><path id="XMLID_250_" class="st29" d="M265.2 296.7l-42.5 24.8v16.4l42.5-24.6z"/></g><g id="XMLID_243_"><path id="XMLID_244_" class="st4" d="M243.8 297.6c.8.5.8 1.2 0 1.6l-15.5 9c-.8.5-2 .5-2.8 0l-23.8-13.8c-.8-.5-.8-1.2 0-1.6l15.5-9c.8-.5 2-.5 2.8 0l23.8 13.8zm-7.5 2.8l3.3-1.9-21-12.1-3.3 1.9 1.3 11.4 19.7.7m-9.4 5.4l6.2-3.6-13.4-.5 7.2 4.1m-21-12.1l7.1 4.1-.9-7.7-6.2 3.6"/></g></g><g id="XMLID_220_"><g id="XMLID_221_"><g id="XMLID_223_"><path id="XMLID_226_" class="st30" d="M96.2 215.4l-42.5 24.8v16.4L96.2 232z"/><path id="XMLID_225_" class="st31" d="M96.2 215.4l-42.5 24.8L10 214.8l42.9-24.4z"/><path id="XMLID_224_" class="st32" d="M10 214.8l43.7 25.4v16.4L10 231.4z"/></g><linearGradient id="XMLID_12_" gradientUnits="userSpaceOnUse" x1="471.353" y1="212.129" x2="478.536" y2="199.686" gradientTransform="matrix(1 0 0 -1 -400 441.89)"><stop offset="0" stop-color="#fff" stop-opacity="0"/><stop offset=".103" stop-color="#f8fcfd" stop-opacity=".103"/><stop offset=".25" stop-color="#e6f3f7" stop-opacity=".25"/><stop offset=".422" stop-color="#c7e5ec" stop-opacity=".422"/><stop offset=".614" stop-color="#9dd1de" stop-opacity=".614"/><stop offset=".819" stop-color="#68b8cc" stop-opacity=".819"/><stop offset="1" stop-color="#329fba"/></linearGradient><path id="XMLID_222_" class="st33" d="M96.2 215.4l-42.5 24.8v16.4L96.2 232z"/></g></g><g id="XMLID_118_"><g id="XMLID_129_"><path id="XMLID_130_" transform="matrix(-.0093 -1 1 -.0093 316.422 471.765)" class="st25" d="M390.9 78.1h2v2h-2z"/></g><g id="XMLID_121_"><path id="XMLID_122_" class="st25" d="M391.4 129.4v-4.1h2v4.1h-2zm-.1-8.2v-4.1h2v4.1h-2zm-.1-8.2v-4.1h2v4.1h-2zm0-8.2v-4.1h2v4.1h-2zm-.1-8.2v-4.1h2v4.1h-2zm-.1-8.3v-4.1h2v4.1h-2z"/></g><g id="XMLID_119_"><path id="XMLID_120_" transform="matrix(-.0093 -1 1 -.0093 261.52 528.241)" class="st25" d="M391.4 133.6h2v2h-2z"/></g></g><g id="XMLID_78_"><g id="XMLID_80_"><path id="XMLID_83_" class="st34" d="M405.7 186.8l-120 69.8V273l120-69.6z"/><path id="XMLID_82_" class="st35" d="M405.7 186.8l-120 69.8L72.5 133.3l120.3-69.4z"/><path id="XMLID_81_" class="st36" d="M72.5 133.3l213.2 123.3V273L72.5 150z"/></g><linearGradient id="XMLID_13_" gradientUnits="userSpaceOnUse" x1="742.055" y1="218.331" x2="749.366" y2="205.668" gradientTransform="matrix(1 0 0 -1 -400 441.89)"><stop offset="0" stop-color="#fff" stop-opacity="0"/><stop offset=".1" stop-color="#f8fcfe" stop-opacity=".1"/><stop offset=".242" stop-color="#e6f5fc" stop-opacity=".242"/><stop offset=".408" stop-color="#c7e9f7" stop-opacity=".408"/><stop offset=".593" stop-color="#9dd8f1" stop-opacity=".593"/><stop offset=".794" stop-color="#67c3ea" stop-opacity=".794"/><stop offset="1" stop-color="#27aae1"/></linearGradient><path id="XMLID_79_" class="st37" d="M405.7 186.8l-120 69.8V273l120-69.6z"/></g><path id="XMLID_77_" class="st4" d="M318.4 237.6l-.4.2-213.1-123.1.2-.2z"/><g id="XMLID_58_"><g id="XMLID_75_"><path id="XMLID_76_" class="st4" d="M316.2 204l-10.8 2.7-5.2 3-.4-.2 5.2-3 4.6-6.3.5.3-4.3 5.8 9.9-2.5z"/></g><g id="XMLID_73_"><path id="XMLID_74_" class="st4" d="M301.2 195.4l-12.9 7.5-.5-.3 7.7-9.8-12.3 7.1-.4-.2 12.9-7.5.6.3-7.6 9.7 12.1-7z"/></g><g id="XMLID_71_"><path id="XMLID_72_" class="st4" d="M308.2 199.4l-12.9 7.5-.5-.3 7.7-9.8-12.3 7.2-.4-.3 12.9-7.5.6.4-7.5 9.6 12-7z"/></g><g id="XMLID_69_"><path id="XMLID_70_" class="st4" d="M354.3 181.7l-2 1.2-41.3 12.9-2.2-1.3 41.2-12.9-12.5-7.2 2.1-1.2z"/></g><g id="XMLID_67_"><path id="XMLID_68_" class="st4" d="M294.2 191.3l-9.7 5.6c-1.8 1-4 1.5-6 .4s-1.2-2.4.6-3.5l9.7-5.6.4.2-9.7 5.7c-1.5.9-2.3 2-.6 3 1.7 1 3.6.5 5.2-.4l9.7-5.7.4.3z"/></g><g id="XMLID_65_"><path id="XMLID_66_" class="st4" d="M329 166.8c5.3 3 3.6 6.3-1.3 9.2-9.7 5.6-25.3.5-35.4 6.2l-.4.2 12.1 7-2 1.2-14.3-8.3 1.6-1c11.9-6.9 26.8-1.2 36.1-6.6 3.9-2.3 5.3-4.6 1.5-6.9-3.7-2.1-8-1.3-11.6.8l-2.3 1.3-2.1-1.2 2.2-1.3c4.8-2.6 10.7-3.6 15.9-.6z"/></g><g id="XMLID_61_"><path id="XMLID_62_" class="st4" d="M365.2 184.6c1.9 1.1 1.9 2.9 0 4s-4.9 1.1-6.8 0c-1.9-1.1-1.9-2.9 0-4 1.8-1.1 4.9-1.1 6.8 0zm-5.4 3.1c1.1.6 2.8.6 3.9 0s1-1.6 0-2.2c-1.1-.6-2.8-.6-3.9 0-1 .6-1 1.6 0 2.2"/></g><g id="XMLID_59_"><path id="XMLID_60_" class="st4" d="M284.8 185.8c2 1.1 1.3 2.4-.5 3.4l-.2.1-.4-.2.3-.1c1.5-.9 2.3-2 .6-2.9-1.7-1-3.6-.6-5.1.3-3.3 1.9 1.8 4.7-1.7 6.8-1.8 1-4 1.4-5.9.3-2-1.1-1.3-2.4.5-3.4l.6-.4.4.2-.6.4c-1.6.9-2.2 2-.5 3 1.7 1 3.6.6 5.1-.3 3.3-1.9-1.8-4.7 1.7-6.8 1.7-1.2 3.8-1.5 5.7-.4z"/></g></g><g id="XMLID_44_"><g id="XMLID_52_"><g id="XMLID_54_"><path id="XMLID_57_" class="st13" d="M456.6 126.4l-54.1 31.5.1 16.4 54-31.2z"/><path id="XMLID_56_" class="st14" d="M456.6 126.4l-54.1 31.5-54.8-31.9 54.5-31z"/><path id="XMLID_55_" class="st15" d="M347.7 126l54.8 31.9.1 16.4-54.9-31.7z"/></g><linearGradient id="XMLID_26_" gradientUnits="userSpaceOnUse" x1="826.004" y1="297.756" x2="833.188" y2="285.313" gradientTransform="matrix(1 0 0 -1 -400 441.89)"><stop offset="0" stop-color="#fff" stop-opacity="0"/><stop offset=".1" stop-color="#fef9f8" stop-opacity=".1"/><stop offset=".242" stop-color="#fae9e6" stop-opacity=".242"/><stop offset=".409" stop-color="#f4cec7" stop-opacity=".409"/><stop offset=".595" stop-color="#eca89d" stop-opacity=".595"/><stop offset=".796" stop-color="#e27867" stop-opacity=".796"/><stop offset="1" stop-color="#d64128"/></linearGradient><path id="XMLID_53_" class="st38" d="M456.6 126.4l-54.1 31.5.1 16.4 54-31.2z"/></g><g id="XMLID_45_"><g id="XMLID_48_"><path id="XMLID_49_" class="st4" d="M419.4 115c9.6 5.5 9.6 14.5.1 20.1-9.5 5.5-25.1 5.5-34.6 0-9.6-5.5-9.6-14.5-.1-20.1 9.5-5.6 25-5.6 34.6 0zm-30.5 17.7c7.4 4.2 19.3 4.2 26.6 0 7.3-4.2 7.3-11.2-.1-15.4-7.4-4.2-19.3-4.2-26.6 0-7.3 4.3-7.3 11.2.1 15.4"/></g><g id="XMLID_46_"><path id="XMLID_47_" class="st4" d="M405.1 119.3c.2.1.4.3.5.5l3.5 7.8c.4.9-1 1.7-2.5 1.4l-13.4-2c-.4-.1-.7-.2-.9-.3-.8-.4-.9-1.2 0-1.7l9.9-5.7c.9-.5 2.2-.4 2.9 0z"/></g></g></g><g id="XMLID_16_"><g id="XMLID_17_"><path id="XMLID_20_" class="st39" d="M448.7 221.2l-28.8 17.1v16.4l28.8-16.9z"/><path id="XMLID_19_" class="st39" d="M448.7 221.2l-28.8 17.1-29.5-17.6 29.1-16.7z"/><path id="XMLID_18_" class="st40" d="M390.4 220.7l29.5 17.6v16.4l-29.5-17.4z"/></g></g><g id="patas"><g id="XMLID_357_"><g id="XMLID_372_"><path id="XMLID_373_" class="st25" d="M284.7 343.8h2v2h-2z"/></g><g id="XMLID_360_"><path id="XMLID_361_" class="st25" d="M286.7 339.7h-2v-4.1h2v4.1zm0-8.1h-2v-4.1h2v4.1zm0-8.1h-2v-4.1h2v4.1zm0-8.1h-2v-4.1h2v4.1zm0-8.1h-2v-4.1h2v4.1zm0-8.1h-2v-4.1h2v4.1zm0-8.2h-2v-4h2v4zm0-8.1h-2v-4.1h2v4.1zm0-8.1h-2v-4.1h2v4.1zm0-8.1h-2v-4.1h2v4.1z"/></g><g id="XMLID_358_"><path id="XMLID_359_" class="st25" d="M284.7 256.6h2v2h-2z"/></g></g><g id="XMLID_348_"><g id="XMLID_355_"><path id="XMLID_356_" transform="rotate(-179.322 53.672 257.536) scale(.99997)" class="st25" d="M52.7 256.5h2v2h-2z"/></g><g id="XMLID_351_"><path id="XMLID_352_" class="st25" d="M54.4 277.1h-2l.1-4.6h2l-.1 4.6zm.2-9.3h-2l.1-4.6h2l-.1 4.6z"/></g><g id="XMLID_349_"><path id="XMLID_350_" transform="rotate(-179.322 53.377 282.667) scale(.99997)" class="st25" d="M52.4 281.7h2v2h-2z"/></g></g><g id="XMLID_339_"><g id="XMLID_346_"><path id="XMLID_347_" class="st25" d="M9 231.4h2v2H9z"/></g><g id="XMLID_342_"><path id="XMLID_343_" class="st25" d="M10.9 251.8h-2v-4.6h2v4.6zm.1-9.2H9V238h2v4.6z"/></g><g id="XMLID_340_"><path id="XMLID_341_" class="st25" d="M8.9 256.5h2v2h-2z"/></g></g><g id="XMLID_330_"><g id="XMLID_337_"><path id="XMLID_338_" class="st25" d="M95.2 232h2v2h-2z"/></g><g id="XMLID_333_"><path id="XMLID_334_" class="st25" d="M95.2 252.2v-4.6h2v4.6h-2zm0-9.1v-4.6h2v4.6h-2z"/></g><g id="XMLID_331_"><path id="XMLID_332_" class="st25" d="M95.2 256.8h2v2h-2z"/></g></g><g id="XMLID_319_"><g id="XMLID_328_"><path id="XMLID_329_" class="st25" d="M221.6 379.4h2v2h-2z"/></g><g id="XMLID_322_"><path id="XMLID_323_" class="st25" d="M223.6 375h-2v-4.4h2v4.4zm.1-8.8h-2v-4.4h2v4.4zm0-8.8h-2V353h2v4.4zm0-8.7h-2v-4.4h2v4.4z"/></g><g id="XMLID_320_"><path id="XMLID_321_" class="st25" d="M221.7 337.9h2v2h-2z"/></g></g><g id="XMLID_308_"><g id="XMLID_317_"><path id="XMLID_318_" transform="rotate(-90.361 265.444 355.472)" class="st25" d="M264.4 354.5h2v2h-2z"/></g><g id="XMLID_311_"><path id="XMLID_312_" class="st25" d="M264.4 350.2v-4.4h2v4.3l-2 .1zm0-8.8V337h2v4.4h-2zm-.1-8.7v-4.4h2v4.4h-2zm0-8.7v-4.4h2v4.4h-2z"/></g><g id="XMLID_309_"><path id="XMLID_310_" transform="rotate(-90.361 265.194 314.318)" class="st25" d="M264.2 313.3h2v2h-2z"/></g></g><g id="XMLID_297_"><g id="XMLID_306_"><path id="XMLID_307_" transform="rotate(-90.195 179.173 355.163)" class="st25" d="M178.2 354.2h2v2h-2z"/></g><g id="XMLID_300_"><path id="XMLID_301_" class="st25" d="M178.2 349.8v-4.4h2v4.4h-2zm-.1-8.8v-4.4h2v4.4h-2zm0-8.8v-4.4h2v4.4h-2zm0-8.7v-4.4h2v4.4h-2z"/></g><g id="XMLID_298_"><path id="XMLID_299_" transform="rotate(-90.195 179.02 313.68)" class="st25" d="M178 312.7h2v2h-2z"/></g></g><g id="XMLID_283_"><g id="XMLID_295_"><path id="XMLID_296_" class="st25" d="M171.5 349.6h2v2h-2z"/></g><g id="XMLID_286_"><path id="XMLID_287_" class="st25" d="M173.5 345.7h-2v-3.9h2v3.9zm.1-7.7h-2v-3.9h2v3.9zm0-7.7h-2v-3.9h2v3.9zm0-7.8h-2v-3.9h2v3.9zm0-7.7h-2v-3.9h2v3.9zm0-7.7h-2v-3.9h2v3.9zm0-7.7h-2v-3.9h2v3.9z"/></g><g id="XMLID_284_"><path id="XMLID_285_" class="st25" d="M171.6 289.7h2v2h-2z"/></g></g><g id="XMLID_269_"><g id="XMLID_281_"><path id="XMLID_282_" class="st25" d="M127.9 264.5h2v2h-2z"/></g><g id="XMLID_272_"><path id="XMLID_273_" class="st25" d="M129.8 320.3h-2v-3.8h2v3.8zm.1-7.7h-2v-3.8h2v3.8zm0-7.7h-2v-3.8h2v3.8zm0-7.7h-2v-3.8h2v3.8zm0-7.7h-2v-3.8h2v3.8zm0-7.7h-2V278h2v3.8zm0-7.6h-2v-3.8h2v3.8z"/></g><g id="XMLID_270_"><path id="XMLID_271_" class="st25" d="M127.8 324.1h2v2h-2z"/></g></g><g id="XMLID_227_"><g id="XMLID_240_"><path id="XMLID_241_" class="st25" d="M71.5 150h2v2h-2z"/></g><g id="XMLID_230_"><path id="XMLID_231_" class="st25" d="M73.5 216.4h-2v-4h2v4zm0-8.1h-2v-4h2v4zm0-8h-2v-4h2v4zm0-8.1h-2v-4h2v4zm0-8h-2v-4h2v4zm0-8.1h-2v-4h2v4zm0-8h-2v-4h2v4zm0-8.1h-2v-4h2v4z"/></g><g id="XMLID_228_"><path id="XMLID_229_" class="st25" d="M71.5 220.4h2v2h-2z"/></g></g><g id="XMLID_197_"><g id="XMLID_218_"><path id="XMLID_219_" class="st25" d="M464.7 104.2h2v2h-2z"/></g><g id="XMLID_200_"><path id="XMLID_201_" class="st25" d="M466.6 235.5h-2v-4h2v4zm0-8.1h-2v-4h2v4zm0-8h-2v-4h2v4zm0-8.1h-2v-4h2v4zm0-8.1h-2v-4h2v4zm0-8.1h-2v-4h2v4zm0-8.1h-2v-4h2v4zm0-8.1h-2v-4h2v4zm0-8.1h-2v-4h2v4zm0-8h-2v-4h2v4zm.1-8.1h-2v-4h2v4zm0-8.1h-2v-4h2v4zm0-8.1h-2v-4h2v4zm0-8.1h-2v-4h2v4zm0-8.1h-2v-4h2v4zm0-8.1h-2v-4h2v4z"/></g><g id="XMLID_198_"><path id="XMLID_199_" class="st25" d="M464.6 239.6h2v2h-2z"/></g></g><g id="XMLID_174_"><g id="XMLID_195_"><path id="XMLID_196_" class="st25" d="M518.8 208.1h2v2h-2z"/></g><g id="XMLID_177_"><path id="XMLID_178_" class="st25" d="M518.7 204.1v-4h2v4h-2zm0-8.1v-4h2v4h-2zm0-8.1v-4h2v4h-2zm0-8v-4h2v4h-2zm0-8.1v-4h2v4h-2zm0-8.1v-4h2v4h-2zm0-8v-4h2v4h-2zm0-8.1v-4h2v4h-2zm0-8.1v-4h2v4h-2zm0-8.1v-4h2v4h-2zm0-8v-4h2v4h-2zm0-8.1v-4h2v4h-2zm0-8.1v-4h2v4h-2zm0-8v-4h2v4h-2zm0-8.1v-4h2v4h-2zm0-8.1v-4h2v4h-2z"/></g><g id="XMLID_175_"><path id="XMLID_176_" class="st25" d="M518.7 72.9h2v2h-2z"/></g></g><g id="XMLID_164_"><g id="XMLID_172_"><path id="XMLID_173_" class="st25" d="M401.6 174.3h2v2h-2z"/></g><g id="XMLID_167_"><path id="XMLID_168_" class="st25" d="M403.5 199.3h-2v-3.8h2v3.8zm0-7.7h-2v-3.8h2v3.8zm0-7.7h-2v-3.8h2v3.8z"/></g><g id="XMLID_165_"><path id="XMLID_166_" class="st25" d="M401.5 203.1h2v2h-2z"/></g></g><g id="XMLID_154_"><g id="XMLID_162_"><path id="XMLID_163_" class="st25" d="M455.6 143.1h2v2h-2z"/></g><g id="XMLID_157_"><path id="XMLID_158_" class="st25" d="M455.6 167.9v-3.8h2v3.8h-2zm0-7.6v-3.8h2v3.8h-2zm0-7.6v-3.8h2v3.8h-2z"/></g><g id="XMLID_155_"><path id="XMLID_156_" class="st25" d="M455.6 171.7h2v2h-2z"/></g></g><g id="XMLID_144_"><g id="XMLID_152_"><path id="XMLID_153_" class="st25" d="M346.7 142.6h2v2h-2z"/></g><g id="XMLID_147_"><path id="XMLID_148_" class="st25" d="M348.7 167.5h-2v-3.8h2v3.8zm0-7.6h-2v-3.8h2v3.8zm0-7.6h-2v-3.8h2v3.8z"/></g><g id="XMLID_145_"><path id="XMLID_146_" class="st25" d="M346.7 171.3h2v2h-2z"/></g></g><g id="XMLID_131_"><g id="XMLID_142_"><path id="XMLID_143_" class="st25" d="M336.8 109.3h2v2h-2z"/></g><g id="XMLID_134_"><path id="XMLID_135_" class="st25" d="M338.8 161.1h-2V157h2v4.1zm0-8.3h-2v-4.1h2v4.1zm0-8.3h-2v-4.1h2v4.1zm0-8.3h-2v-4.1h2v4.1zm0-8.3h-2v-4.1h2v4.1zm0-8.3h-2v-4.1h2v4.1z"/></g><g id="XMLID_132_"><path id="XMLID_133_" class="st25" d="M336.8 165.2h2v2h-2z"/></g></g><g id="XMLID_105_"><g id="XMLID_116_"><path id="XMLID_117_" class="st25" d="M252.1 60.2h2v2h-2z"/></g><g id="XMLID_108_"><path id="XMLID_109_" class="st25" d="M254 112h-2v-4.1h2v4.1zm0-8.3h-2v-4.1h2v4.1zm0-8.3h-2v-4.1h2v4.1zm0-8.3h-2V83h2v4.1zm0-8.3h-2v-4.1h2v4.1zm.1-8.3h-2v-4.1h2v4.1z"/></g><g id="XMLID_106_"><path id="XMLID_107_" class="st25" d="M252 116.1h2v2h-2z"/></g></g><g id="XMLID_98_"><g id="XMLID_103_"><path id="XMLID_104_" class="st25" d="M418.9 254.7h2v2h-2z"/></g><g id="XMLID_101_"><path id="XMLID_102_" transform="rotate(-90.16 419.972 261.493)" class="st25" d="M418.4 260.5h3.2v2h-3.2z"/></g><g id="XMLID_99_"><path id="XMLID_100_" transform="rotate(-90.166 419.946 267.249)" class="st25" d="M418.9 266.3h2v2h-2z"/></g></g><g id="XMLID_91_"><g id="XMLID_96_"><path id="XMLID_97_" class="st25" d="M447.7 237.8h2v2h-2z"/></g><g id="XMLID_94_"><path id="XMLID_95_" transform="rotate(-90.138 448.644 244.619)" class="st25" d="M447 243.6h3.2v2H447z"/></g><g id="XMLID_92_"><path id="XMLID_93_" class="st25" d="M447.7 249.4h2v2h-2z"/></g></g><g id="XMLID_84_"><g id="XMLID_89_"><path id="XMLID_90_" class="st25" d="M389.4 237.3h2v2h-2z"/></g><g id="XMLID_87_"><path id="XMLID_88_" class="st25" d="M389.4 242.5h2v3.2h-2z"/></g><g id="XMLID_85_"><path id="XMLID_86_" transform="rotate(-180 390.402 249.927)" class="st25" d="M389.4 248.9h2v2h-2z"/></g></g><g id="XMLID_21_"><g id="XMLID_42_"><path id="XMLID_43_" class="st25" d="M409.8 72.5h2v2h-2z"/></g><g id="XMLID_24_"><path id="XMLID_25_" class="st25" d="M411.8 203.7h-2v-4h2v4zm0-8.1h-2v-4h2v4zm0-8.1h-2v-4h2v4zm0-8h-2v-4h2v4zm0-8.1h-2v-4h2v4zm0-8.1h-2v-4h2v4zm0-8.1h-2v-4h2v4zm0-8h-2v-4h2v4zm0-8.1h-2v-4h2v4zm0-8.1h-2v-4h2v4zm0-8h-2v-4h2v4zm0-8.1h-2v-4h2v4zm0-8.1h-2v-4h2v4zm0-8h-2v-4h2v4zm0-8.1h-2v-4h2v4zm0-8.1h-2v-4h2v4z"/></g><g id="XMLID_22_"><path id="XMLID_23_" class="st25" d="M409.8 207.7h2v2h-2z"/></g></g><g id="XMLID_1_"><g id="XMLID_14_"><path id="XMLID_15_" class="st25" d="M404.7 203.4h2v2h-2z"/></g><g id="XMLID_4_"><path id="XMLID_5_" class="st25" d="M404.7 270.2v-4h2v4h-2zm0-8.1v-4h2v4h-2zm0-8.1v-4h2v4h-2zm0-8.1v-4h2v4h-2zm0-8.1v-4h2v4h-2zm0-8.1v-4h2v4h-2zm0-8.1v-4h2v4h-2zm0-8.1v-4h2v4h-2z"/></g><g id="XMLID_2_"><path id="XMLID_3_" class="st25" d="M404.7 274.2h2v2h-2z"/></g></g></g><path class="st4" d="M71.1 212l-12.3-7.4c-4.2-2.5-10.6-2.8-14.3-.6l-11 6.4c-3.7 2.2-3.3 6 .9 8.5l12.3 7.4c4.2 2.5 10.6 2.8 14.3.6l11-6.4c3.6-2.2 3.2-6-.9-8.5zm-12.6 13.4c-2.5 1.5-6.9 1.3-9.7-.4l-12.3-7.4c-2.8-1.7-3.1-4.3-.6-5.8l11-6.4c2.5-1.5 6.9-1.3 9.7.4l12.3 7.4c2.8 1.7 3.1 4.3.6 5.8l-11 6.4z"/><path class="st4" d="M59 211.7c-3.9-2.4-9.9-2.6-13.4-.6s-3.1 5.6.8 8c3.9 2.4 9.9 2.6 13.4.6s3.1-5.6-.8-8zm-10.5 6.1c-2.6-1.5-2.8-3.9-.5-5.2 2.3-1.3 6.2-1.2 8.8.4s2.8 3.9.5 5.2c-2.3 1.3-6.2 1.2-8.8-.4zm19.7-2.7c-.5-.3-1.1-.5-1.7-.5-.6 0-1.2.1-1.7.3-.4.2-.6.6-.6 1s.3.8.8 1c.5.3 1.1.5 1.7.5.6 0 1.2-.1 1.6-.3.4-.2.6-.6.6-1 .1-.3-.2-.7-.7-1zm358.4 5.7l-2.8-1.8 1.4-1.2c.5-.4 1.1-.2 1.4 0 .3.2 1.9 1.3 1.9 1.3l2.1-1.9-2.6-1.8c-2.7-2-4.9-1-6.1-.1l-1.6 1.3-1.6-1.1-2.7 2 1.6 1.1c-3.7 2.6-8.5 5.7-8.5 5.7l3.9 2.3s4.7-3.1 8.2-5.6l2.6 1.6 2.8-1.8zm-223-116.6c-1.3-.3-2.4-.7-3.4-1.3 1.7.2 3.7-.1 5.6-.8-1.6-.2-3-.5-4.2-1.1.6-1.4.5-2.8-.6-3.8-2.2-1.9-7.1-1.5-10.9.8-.5.3-1 .7-1.5 1-3-3-3.1-7.1-.8-11.3-1.4.3-2.8.9-4 1.6-2.4 1.5-3.9 3.3-4.1 5-.6-.6-.9-1.3-.9-2 0 0-.1 0-.1.1-3.4 2-4.9 4.9-3.7 6.8-.5-.2-.9-.4-1.3-.7-.3-.2-.5-.5-.6-.7-2.3 2.1-2.9 4.5-1.2 6-3.2 0-6-.8-7.9-2.4-.3-.3-.6-.6-.8-.9-.3 2.7.7 5.1 2.9 7 7.2 6.2 21.8 3.2 31-2.3l.9-.6c1.8.2 3.7 0 5.6-.4z"/></svg>