<?xml version="1.0" encoding="utf-8"?>
<!-- Generator: Adobe Illustrator 19.0.0, SVG Export Plug-In . SVG Version: 6.00 Build 0)  -->
<svg version="1.1" id="Capa_1" xmlns="http://www.w3.org/2000/svg" xmlns:xlink="http://www.w3.org/1999/xlink" x="0px" y="0px"
	 viewBox="0 0 395 347.3" style="enable-background:new 0 0 395 347.3;" xml:space="preserve">
<style type="text/css">
	.st0{fill:#54A9BF;}
	.st1{fill:#E3E2E1;}
	.st2{fill:#FEFEFE;}
</style>
<g id="cursor">
	<path class="st0" d="M78.4,310.9l3.2-5c0.2-0.3,0.3-0.7,0.2-1c-0.1-0.4-0.3-0.7-0.6-0.9l-0.7-0.4l3-4.6l7.4-1.6
		c0.6-0.1,1-0.6,1.1-1.2l2.3-25.1c0-0.5-0.2-1-0.6-1.3c-0.4-0.3-1-0.3-1.4,0l-21.9,12.4c-0.5,0.3-0.8,0.9-0.7,1.5l1.6,7.4l-3,4.6
		l-0.7-0.4c-0.3-0.2-0.7-0.3-1-0.2c-0.4,0.1-0.7,0.3-0.9,0.6l-3.2,5c-0.2,0.3-0.3,0.7-0.2,1c0.1,0.3,0.3,0.7,0.6,0.9l13.5,8.7
		C77.2,311.7,78,311.5,78.4,310.9L78.4,310.9z M74.2,291.1l-1.5-7l16.2-9.1l-6.1,9.4c-0.7-0.2-1.4-0.2-2.1-0.1
		c-1.2,0.3-2.2,0.9-2.8,2c-0.7,1-0.9,2.3-0.6,3.4c0.2,1.1,0.9,2.2,2,2.8c2.1,1.4,4.9,0.8,6.2-1.3c1.1-1.7,0.9-3.8-0.3-5.3l6.1-9.4
		l-1.7,18.5l-7,1.5c-0.4,0.1-0.7,0.3-0.9,0.6l-3.3,5.1l-7.6-4.9l3.3-5.1C74.2,291.8,74.3,291.4,74.2,291.1L74.2,291.1z M83.4,288.3
		c0.1,0.4,0,0.9-0.2,1.3c-0.5,0.8-1.6,1.1-2.5,0.5c-0.8-0.5-1.1-1.6-0.5-2.5c0.5-0.8,1.6-1.1,2.5-0.5
		C83,287.5,83.3,287.9,83.4,288.3L83.4,288.3z M65.7,301l1.7-2.7l11.2,7.2l-1.7,2.7L65.7,301z M65.7,301"/>
</g>
<g id="lgo">
	<path class="st1" d="M206.4,76.9h0.2c6.1,0,11.9-2.5,16.2-6.8c4.3-4.4,6.7-10.1,6.6-16.3C229.3,41.2,219,31,206.3,31
		c-6.1,0-11.9,2.5-16.2,6.8c-4.3,4.4-6.7,10.1-6.6,16.3C183.6,66.7,193.9,76.9,206.4,76.9z M194.6,42.3c3.1-3.2,7.3-4.9,11.8-4.9
		c9.1,0,16.5,7.4,16.6,16.5c0,4.4-1.7,8.6-4.8,11.8c-3.1,3.2-7.3,4.9-11.7,4.9l-0.1,3.2v-3.2c-9.1,0-16.5-7.4-16.6-16.5
		C189.8,49.6,191.5,45.4,194.6,42.3z"/>
	<path class="st1" d="M195.7,123.1c33.4,14.8,45,38.8,48.9,56.3c5.9,26.3-1.8,56.5-19.5,77l4.8,4.2c19-21.9,27.2-54.3,20.9-82.5
		c-4.2-18.9-16.8-44.8-52.6-60.7c-60.2-26.8-56.2-72.6-56-74.5l-6.3-0.7c-0.1,0.5-1.4,13.4,5.4,29.9
		C147.6,87.1,162,108.2,195.7,123.1z"/>
	<path class="st1" d="M225.3,112.2l2.7,5.8c0.6-0.3,57.9-27.8,45.3-77.1l-6.2,1.6C278.4,86.7,225.8,112,225.3,112.2z"/>
	<path class="st1" d="M100.7,257c-27.3-24.6-41-65.5-40.7-121.7c7.2,8.2,18.5,16.4,21.7,18c10.5,5.4,21.9,5.2,32.9,4.9
		c13.2-0.3,25.7-0.6,34.9,9.4l4.7-4.3c-11.1-12.2-25.7-11.8-39.7-11.5c-10.2,0.3-20.7,0.5-29.8-4.2c-7-3.6-24.5-18.9-24.4-23.9
		l-6.3-0.2c-2.4,64.2,11.9,110.8,42.6,138.3c25.7,23,55.8,26.5,71.7,26.5c6.4,0,10.5-0.6,11-0.6l-0.9-6.3
		C177.8,281.4,134.4,287.3,100.7,257z"/>
	<path class="st1" d="M363.7,121.1l-6.3,0.2c0.2,5.1-17.4,20.3-24.4,23.9c-9.1,4.7-19.6,4.4-29.8,4.2c-14-0.3-28.6-0.7-39.7,11.5
		l4.7,4.3c9.2-10.1,21.7-9.8,34.9-9.4c11,0.3,22.4,0.5,32.9-4.9c3.2-1.6,14.5-9.8,21.6-18c-0.2,45.9-11.6,129.7-90.9,145.4
		c-33.5,6.7-69.1-9.8-88.4-41c-17.2-27.8-13.6-64.6,9.2-93.7l-5-3.9c-24.4,31.3-28.2,70.9-9.6,100.9c17.6,28.4,47.9,45.4,78.8,45.4
		c5.4,0,10.8-0.5,16.2-1.6C359.3,266.5,365.4,164.2,363.7,121.1z"/>
	<path class="st1" d="M90.2,88.4c18.4,2.7,23.7,15,23.9,15.5l5.9-2.4c-0.3-0.7-6.7-16.2-28.9-19.4c-17.5-2.6-17-21.2-17-22l-6.3-0.3
		C67.5,68.5,71.7,85.7,90.2,88.4z"/>
	<path class="st1" d="M321.8,88.4c18.6-2.7,22.8-19.8,22.4-28.5l-6.3,0.3c0,0.8,0.6,19.4-17,22c-22.2,3.3-28.6,18.8-28.9,19.4
		l5.9,2.3C297.9,103.7,303.2,91.1,321.8,88.4z"/>
</g>
<g>
	<circle class="st2" cx="100" cy="262.5" r="4.6"/>
	<path class="st1" d="M93.9,260c-0.9,2.6-0.2,5.5,2.1,7.3c2.3,1.8,5.3,1.8,7.6,0.3l0.5-0.4l8.8,7l9.2,7.2l-0.8,1
		c-0.5,0.7-0.4,1.6,0.3,2.2l4.4,3.4c0.7,0.5,1.6,0.4,2.2-0.3l3.4-4.4c0.5-0.7,0.4-1.6-0.3-2.2l-4.4-3.4c-0.7-0.5-1.6-0.4-2.2,0.3
		l-0.8,1l-18.2-14.2c1.1-2.6,0.4-5.8-2-7.6c-2.3-1.8-5.6-1.8-7.8-0.1L78,242.9l0.8-1c0.5-0.7,0.4-1.6-0.3-2.2l-4.4-3.4
		c-0.7-0.5-1.6-0.4-2.2,0.3l-3.4,4.4c-0.5,0.7-0.4,1.6,0.3,2.2l4.4,3.4c0.7,0.5,1.6,0.4,2.2-0.3l0.8-1l9.2,7.2l8.9,6.9L93.9,260z
		 M102,259.6c1.5,1.1,1.7,3.3,0.6,4.7c-1.1,1.5-3.3,1.7-4.7,0.6c-1.5-1.1-1.7-3.3-0.6-4.7C98.5,258.7,100.6,258.4,102,259.6
		L102,259.6z"/>
</g>
</svg>
