<?xml version="1.0" encoding="utf-8"?>
<!-- Generator: Adobe Illustrator 19.0.0, SVG Export Plug-In . SVG Version: 6.00 Build 0)  -->
<svg version="1.1" id="Capa_1" xmlns="http://www.w3.org/2000/svg" xmlns:xlink="http://www.w3.org/1999/xlink" x="0px" y="0px"
	 viewBox="105 78.9 806 647" style="enable-background:new 105 78.9 806 647;" xml:space="preserve">
<style type="text/css">
	.st0{enable-background:new    ;}
	.st1{clip-path:url(#SVGID_2_);enable-background:new    ;}
	.st2{fill:#7E8F9A;}
	.st3{clip-path:url(#SVGID_4_);enable-background:new    ;}
	.st4{clip-path:url(#SVGID_6_);enable-background:new    ;}
	.st5{fill:#3E4950;}
	.st6{fill:#BFDEDA;}
	.st7{fill:#77B5AB;}
	.st8{fill:#5D6E79;}
	.st9{fill:#4D5A64;}
	.st10{fill:#FFFFFF;}
	.st11{fill:#73C5D8;}
	.st12{fill:#60AABF;}
	.st13{fill:#5596A5;}
	.st14{fill:#E6F7FA;}
	.st15{fill:#E58967;}
	.st16{fill:#E16F47;}
	.st17{fill:#D55227;}
	.st18{fill:#F1C93E;}
	.st19{fill:#F4D45A;}
	.st20{fill:#ECB22A;}
	.st21{fill:#8DB14C;}
	.st22{fill:#AACB6C;}
	.st23{fill:#7A9E43;}
	.st24{clip-path:url(#SVGID_8_);enable-background:new    ;}
	.st25{fill:#95A2AC;}
	.st26{clip-path:url(#SVGID_10_);enable-background:new    ;}
</style>
<g id="OBJECTS">
</g>
<g>
	<g>
		<g>
			<g class="st0">
				<g>
					<defs>
						<path id="SVGID_1_" d="M620.3,688.4l-16.9,9.8c2.8-1.7,4.6-5.2,4.6-10.2l16.9-9.8C624.9,683.2,623.1,686.7,620.3,688.4z"/>
					</defs>
					<use xlink:href="#SVGID_1_"  style="overflow:visible;fill:#7E8F9A;"/>
					<clipPath id="SVGID_2_">
						<use xlink:href="#SVGID_1_"  style="overflow:visible;"/>
					</clipPath>
					<g class="st1">
						<path class="st2" d="M608,688l16.9-9.8c0,0,0,0,0,0L608,688C608,688.1,608,688,608,688"/>
						<path class="st2" d="M608,688.1l16.9-9.8c0,0.3,0,0.5,0,0.8l-16.9,9.8C608,688.6,608,688.3,608,688.1"/>
						<path class="st2" d="M608,688.8l16.9-9.8c0,0.3,0,0.5,0,0.7l-16.9,9.8C608,689.3,608,689.1,608,688.8"/>
						<path class="st2" d="M608,689.6l16.9-9.8c0,0.3,0,0.5-0.1,0.8l-16.9,9.8C607.9,690.1,607.9,689.8,608,689.6"/>
						<path class="st2" d="M607.9,690.3l16.9-9.8c0,0.3-0.1,0.5-0.1,0.8l-16.9,9.8C607.8,690.8,607.8,690.6,607.9,690.3"/>
						<path class="st2" d="M607.8,691.1l16.9-9.8c0,0.3-0.1,0.5-0.2,0.8l-16.9,9.8C607.7,691.6,607.7,691.4,607.8,691.1"/>
						<path class="st2" d="M607.6,691.9l16.9-9.8c-0.1,0.3-0.1,0.5-0.2,0.8l-16.9,9.8C607.5,692.4,607.5,692.1,607.6,691.9"/>
						<path class="st2" d="M607.4,692.7l16.9-9.8c-0.1,0.3-0.2,0.6-0.3,0.8l-16.9,9.8C607.2,693.2,607.3,693,607.4,692.7"/>
						<path class="st2" d="M607.1,693.5l16.9-9.8c-0.1,0.3-0.2,0.6-0.4,0.9l-16.9,9.8C606.9,694.1,607,693.8,607.1,693.5"/>
						<path class="st2" d="M606.7,694.4l16.9-9.8c-0.2,0.4-0.4,0.7-0.6,1.1l-16.9,9.8C606.4,695.2,606.6,694.8,606.7,694.4"/>
						<path class="st2" d="M606.1,695.5l16.9-9.8c-0.7,1.1-1.7,2-2.7,2.7l-16.9,9.8C604.5,697.5,605.4,696.6,606.1,695.5"/>
					</g>
				</g>
				<g>
					<defs>
						<path id="SVGID_3_" d="M386.1,115.3l16.9-9.8c2.9-1.7,6.9-1.4,11.3,1.1l-16.9,9.8C393,113.9,389,113.6,386.1,115.3z"/>
					</defs>
					<use xlink:href="#SVGID_3_"  style="overflow:visible;fill:#7E8F9A;"/>
					<clipPath id="SVGID_4_">
						<use xlink:href="#SVGID_3_"  style="overflow:visible;"/>
					</clipPath>
					<g class="st3">
						<path class="st2" d="M386.1,115.3l16.9-9.8c0.4-0.2,0.8-0.4,1.3-0.6l-16.9,9.8C387,114.9,386.5,115.1,386.1,115.3"/>
						<path class="st2" d="M387.4,114.7l16.9-9.8c0.4-0.1,0.7-0.2,1.1-0.3l-16.9,9.8C388.1,114.5,387.8,114.6,387.4,114.7"/>
						<path class="st2" d="M388.5,114.4l16.9-9.8c0.3-0.1,0.6-0.1,0.9-0.1l-16.9,9.8C389.1,114.3,388.8,114.3,388.5,114.4"/>
						<path class="st2" d="M389.4,114.3l16.9-9.8c0.3,0,0.5,0,0.8,0l-16.9,9.8C390,114.2,389.7,114.2,389.4,114.3"/>
						<path class="st2" d="M390.3,114.2l16.9-9.8c0.2,0,0.5,0,0.7,0l-16.9,9.8C390.7,114.2,390.5,114.2,390.3,114.2"/>
						<path class="st2" d="M391,114.3l16.9-9.8c0.2,0,0.5,0,0.7,0.1l-16.9,9.8C391.5,114.3,391.2,114.3,391,114.3"/>
						<path class="st2" d="M391.7,114.3l16.9-9.8c0.2,0,0.5,0.1,0.7,0.1l-16.9,9.8C392.2,114.4,391.9,114.4,391.7,114.3"/>
						<path class="st2" d="M392.4,114.4l16.9-9.8c0.2,0,0.4,0.1,0.6,0.1l-16.9,9.8C392.8,114.5,392.6,114.5,392.4,114.4"/>
						<path class="st2" d="M393,114.6l16.9-9.8c0.2,0.1,0.4,0.1,0.7,0.2l-16.9,9.8C393.5,114.7,393.3,114.6,393,114.6"/>
						<path class="st2" d="M393.7,114.8l16.9-9.8c0.2,0.1,0.4,0.1,0.6,0.2l-16.9,9.8C394.1,114.9,393.9,114.8,393.7,114.8"/>
						<path class="st2" d="M394.3,115l16.9-9.8c0.2,0.1,0.4,0.2,0.6,0.2l-16.9,9.8C394.8,115.1,394.5,115,394.3,115"/>
						<path class="st2" d="M395,115.2l16.9-9.8c0.2,0.1,0.4,0.2,0.6,0.3l-16.9,9.8C395.4,115.4,395.2,115.3,395,115.2"/>
						<path class="st2" d="M395.6,115.5l16.9-9.8c0.2,0.1,0.4,0.2,0.6,0.3l-16.9,9.8C396,115.7,395.8,115.6,395.6,115.5"/>
						<path class="st2" d="M396.2,115.8l16.9-9.8c0.2,0.1,0.4,0.2,0.6,0.3l-16.9,9.8C396.7,116,396.5,115.9,396.2,115.8"/>
						<path class="st2" d="M396.9,116.1l16.9-9.8c0.2,0.1,0.3,0.2,0.5,0.3l-16.9,9.8C397.2,116.3,397.1,116.2,396.9,116.1"/>
					</g>
				</g>
				<g>
					<polygon class="st2" points="609.2,256.9 626.1,247.1 624.9,678.2 608,688 					"/>
				</g>
				<g>
					<polygon class="st2" points="397.4,116.4 414.3,106.6 610.3,219.8 593.5,229.6 					"/>
				</g>
				<g>
					<defs>
						<path id="SVGID_5_" d="M593.5,229.6l16.9-9.8c8.7,5,15.8,17.3,15.8,27.3l-16.9,9.8C609.3,246.9,602.2,234.6,593.5,229.6z"/>
					</defs>
					<use xlink:href="#SVGID_5_"  style="overflow:visible;fill:#7E8F9A;"/>
					<clipPath id="SVGID_6_">
						<use xlink:href="#SVGID_5_"  style="overflow:visible;"/>
					</clipPath>
					<g class="st4">
						<path class="st2" d="M593.5,229.6l16.9-9.8c0.1,0,0.1,0.1,0.2,0.1l-16.9,9.8C593.6,229.7,593.5,229.6,593.5,229.6"/>
						<path class="st2" d="M593.6,229.7l16.9-9.8c0.2,0.1,0.4,0.3,0.7,0.4l-16.9,9.8C594.1,230,593.8,229.8,593.6,229.7"/>
						<path class="st2" d="M594.3,230.1l16.9-9.8c0.2,0.1,0.4,0.3,0.7,0.4l-16.9,9.8C594.7,230.4,594.5,230.2,594.3,230.1"/>
						<path class="st2" d="M595,230.5l16.9-9.8c0.2,0.2,0.5,0.3,0.7,0.5l-16.9,9.8C595.4,230.9,595.2,230.7,595,230.5"/>
						<path class="st2" d="M595.6,231l16.9-9.8c0.2,0.2,0.5,0.3,0.7,0.5l-16.9,9.8C596.1,231.4,595.9,231.2,595.6,231"/>
						<path class="st2" d="M596.3,231.6l16.9-9.8c0.2,0.2,0.5,0.4,0.7,0.6l-16.9,9.8C596.8,231.9,596.6,231.8,596.3,231.6"/>
						<path class="st2" d="M597,232.1l16.9-9.8c0.2,0.2,0.5,0.4,0.7,0.6l-16.9,9.8C597.5,232.5,597.3,232.3,597,232.1"/>
						<path class="st2" d="M597.8,232.8l16.9-9.8c0.2,0.2,0.5,0.4,0.7,0.6l-16.9,9.8C598.2,233.2,598,233,597.8,232.8"/>
						<path class="st2" d="M598.4,233.4l16.9-9.8c0.2,0.2,0.4,0.4,0.7,0.7l-16.9,9.8C598.9,233.8,598.7,233.6,598.4,233.4"/>
						<path class="st2" d="M599.1,234.1l16.9-9.8c0.2,0.2,0.4,0.4,0.6,0.7l-16.9,9.8C599.5,234.5,599.3,234.3,599.1,234.1"/>
						<path class="st2" d="M599.8,234.7l16.9-9.8c0.2,0.2,0.4,0.5,0.6,0.7l-16.9,9.8C600.2,235.2,600,235,599.8,234.7"/>
						<path class="st2" d="M600.4,235.4l16.9-9.8c0.2,0.2,0.4,0.5,0.6,0.7l-16.9,9.8C600.8,235.9,600.6,235.7,600.4,235.4"/>
						<path class="st2" d="M601,236.1l16.9-9.8c0.2,0.2,0.4,0.5,0.6,0.8l-16.9,9.8C601.4,236.6,601.2,236.4,601,236.1"/>
						<path class="st2" d="M601.6,236.9l16.9-9.8c0.2,0.3,0.5,0.6,0.7,0.9l-16.9,9.8C602.1,237.5,601.8,237.2,601.6,236.9"/>
						<path class="st2" d="M602.3,237.8l16.9-9.8c0.3,0.5,0.7,0.9,1,1.4l-16.9,9.8C603,238.8,602.6,238.3,602.3,237.8"/>
						<path class="st2" d="M603.3,239.2l16.9-9.8c0.4,0.6,0.8,1.2,1.2,1.9l-16.9,9.8C604.1,240.5,603.7,239.9,603.3,239.2"/>
						<path class="st2" d="M604.5,241.1l16.9-9.8c0.3,0.5,0.5,0.9,0.8,1.4l-16.9,9.8C605,242,604.7,241.6,604.5,241.1"/>
						<path class="st2" d="M605.3,242.5l16.9-9.8c0.2,0.3,0.3,0.6,0.5,0.9l-16.9,9.8C605.6,243.1,605.4,242.8,605.3,242.5"/>
						<path class="st2" d="M605.7,243.5l16.9-9.8c0.1,0.3,0.3,0.6,0.4,0.8l-16.9,9.8C606,244,605.9,243.7,605.7,243.5"/>
						<path class="st2" d="M606.2,244.3l16.9-9.8c0.1,0.3,0.2,0.5,0.3,0.8l-16.9,9.8C606.4,244.8,606.3,244.5,606.2,244.3"/>
						<path class="st2" d="M606.5,245.1l16.9-9.8c0.1,0.3,0.2,0.5,0.3,0.8l-16.9,9.8C606.7,245.6,606.6,245.3,606.5,245.1"/>
						<path class="st2" d="M606.8,245.8l16.9-9.8c0.1,0.3,0.2,0.5,0.3,0.8l-16.9,9.8C607,246.3,606.9,246.1,606.8,245.8"/>
						<path class="st2" d="M607.1,246.6l16.9-9.8c0.1,0.3,0.2,0.5,0.3,0.8l-16.9,9.8C607.3,247.1,607.2,246.8,607.1,246.6"/>
						<path class="st2" d="M607.4,247.4l16.9-9.8c0.1,0.3,0.2,0.5,0.3,0.8l-16.9,9.8C607.6,247.9,607.5,247.6,607.4,247.4"/>
						<path class="st2" d="M607.7,248.2l16.9-9.8c0.1,0.3,0.2,0.5,0.3,0.8L608,249C607.9,248.7,607.8,248.4,607.7,248.2"/>
						<path class="st2" d="M608,249l16.9-9.8c0.1,0.3,0.2,0.6,0.2,0.8l-16.9,9.8C608.1,249.5,608.1,249.3,608,249"/>
						<path class="st2" d="M608.2,249.8l16.9-9.8c0.1,0.3,0.2,0.6,0.2,0.8l-16.9,9.8C608.4,250.4,608.3,250.1,608.2,249.8"/>
						<path class="st2" d="M608.4,250.7l16.9-9.8c0.1,0.3,0.1,0.6,0.2,0.8l-16.9,9.8C608.6,251.2,608.5,250.9,608.4,250.7"/>
						<path class="st2" d="M608.6,251.5l16.9-9.8c0.1,0.3,0.1,0.6,0.2,0.8l-16.9,9.8C608.7,252,608.7,251.8,608.6,251.5"/>
						<path class="st2" d="M608.8,252.3l16.9-9.8c0.1,0.3,0.1,0.5,0.1,0.8l-16.9,9.8C608.9,252.8,608.8,252.6,608.8,252.3"/>
						<path class="st2" d="M608.9,253.1l16.9-9.8c0,0.3,0.1,0.5,0.1,0.8l-16.9,9.8C609,253.6,609,253.4,608.9,253.1"/>
						<path class="st2" d="M609,253.9l16.9-9.8c0,0.3,0.1,0.5,0.1,0.8l-16.9,9.8C609.1,254.4,609.1,254.2,609,253.9"/>
						<path class="st2" d="M609.1,254.7l16.9-9.8c0,0.3,0,0.5,0.1,0.8l-16.9,9.8C609.2,255.2,609.2,254.9,609.1,254.7"/>
						<path class="st2" d="M609.2,255.4l16.9-9.8c0,0.3,0,0.5,0,0.8l-16.9,9.8C609.2,256,609.2,255.7,609.2,255.4"/>
						<path class="st2" d="M609.2,256.2l16.9-9.8c0,0.2,0,0.5,0,0.7l-16.9,9.8C609.2,256.7,609.2,256.5,609.2,256.2"/>
					</g>
				</g>
				<g>
					<path class="st5" d="M593.5,229.6c8.7,5,15.8,17.3,15.8,27.3L608,688c0,10-7.1,14.1-15.9,9L396.1,583.9
						c-8.7-5-15.8-17.3-15.8-27.3l1.2-431.1c0-10,7.1-14.1,15.9-9L593.5,229.6z"/>
				</g>
			</g>
		</g>
		<g>
			<polygon class="st6" points="590.2,266.4 589.2,623.5 397.7,513 398.7,155.8 			"/>
		</g>
		<polygon class="st7" points="576.1,312.7 576.2,278.6 412.6,184.2 412.5,218.2 		"/>
		<g>
			<g>
				<g class="st0">
					<g>
						<polygon class="st2" points="560.6,521.7 570.5,516 570.6,471.6 560.8,477.3 						"/>
					</g>
					<g>
						<polygon class="st8" points="560.8,477.3 570.6,471.6 531.9,449.3 522.1,455 						"/>
					</g>
					<g>
						<polygon class="st9" points="522.1,455 522,499.4 560.6,521.7 560.8,477.3 						"/>
					</g>
				</g>
			</g>
			<g>
				<path class="st10" d="M548.3,488.9c0,6.2-7.6,15.3-8,15.8c-0.4-0.9-7.9-18.8-7.9-25c0-6.2,3.6-8.2,8-5.7
					C544.8,476.6,548.3,482.7,548.3,488.9z M540.3,488.5c2.2,1.3,4,0.3,4.1-2.3c0-2.6-1.8-5.7-4-7c-2.2-1.3-4-0.3-4.1,2.3
					C536.3,484.1,538.1,487.3,540.3,488.5"/>
			</g>
		</g>
		<g>
			<g>
				<g class="st0">
					<g>
						<polygon class="st11" points="560.6,458.7 570.5,453 570.6,408.6 560.8,414.3 						"/>
					</g>
					<g>
						<polygon class="st12" points="560.8,414.3 570.6,408.6 531.9,386.3 522.1,392 						"/>
					</g>
					<g>
						<polygon class="st13" points="522.1,392 522,436.4 560.6,458.7 560.8,414.3 						"/>
					</g>
				</g>
			</g>
			<g>
				<path class="st10" d="M548.3,425.9c0,6.2-7.6,15.3-8,15.8c-0.4-0.9-7.9-18.8-7.9-25c0-6.2,3.6-8.2,8-5.7
					C544.8,413.6,548.3,419.7,548.3,425.9z M540.3,425.5c2.2,1.3,4,0.3,4.1-2.3c0-2.6-1.8-5.7-4-7c-2.2-1.3-4-0.3-4.1,2.3
					C536.3,421.1,538.1,424.2,540.3,425.5"/>
			</g>
		</g>
		<g>
			<path class="st8" d="M532.1,210.2c1.7,1,3.1,3.4,3.1,5.3c0,2-1.4,2.7-3.1,1.8l-66.5-38.4c-1.7-1-3.1-3.4-3.1-5.3
				c0-2,1.4-2.8,3.1-1.8L532.1,210.2z"/>
		</g>
		<g>
			<g class="st0">
				<g>
					<polygon class="st14" points="571.5,333.3 571.4,382.2 528.9,357.6 529,308.7 					"/>
				</g>
			</g>
		</g>
		<g>
			<g>
				<g class="st0">
					<g>
						<polygon class="st2" points="481.6,366.7 486.2,364 485.8,519.2 481.1,521.9 						"/>
					</g>
					<g>
						<polygon class="st8" points="284.4,252.8 289,250.1 486.2,364 481.6,366.7 						"/>
					</g>
					<g>
						<polygon class="st9" points="481.6,366.7 481.1,521.9 283.9,408 284.4,252.8 						"/>
					</g>
				</g>
			</g>
			<g>
				<g class="st0">
					<g>
						<polygon class="st15" points="495.5,486.6 498.7,484.8 498.6,516.3 495.4,518.2 						"/>
					</g>
					<g>
						<polygon class="st16" points="273.7,358.6 276.9,356.7 498.7,484.8 495.5,486.6 						"/>
					</g>
					<g>
						<polygon class="st17" points="495.5,486.6 495.4,518.2 273.6,390.1 273.7,358.6 						"/>
					</g>
				</g>
			</g>
			<g>
				<g>
					<polygon class="st10" points="378.3,351 397.1,372.4 378.3,372.1 					"/>
				</g>
				<g>
					<path class="st10" d="M384.8,335.4c14.3,8.3,25.9,28.4,25.9,44.8c0,16.5-11.7,23.1-26.1,14.9c-14.3-8.3-25.9-28.4-25.9-44.8
						C358.8,333.8,370.5,327.2,384.8,335.4z M384.6,392.5c13.1,7.5,23.7,1.5,23.8-13.6c0-15-10.6-33.4-23.6-40.9
						c-13.1-7.6-23.7-1.5-23.8,13.6C360.9,366.6,371.5,385,384.6,392.5"/>
				</g>
			</g>
			<g>
				<polygon class="st10" points="289.1,374.2 300.8,388.2 289,388.7 				"/>
			</g>
			<g>
				<path class="st10" d="M454.1,472.3l25.6,14.8l0,11.7L454.1,484L454.1,472.3z M477.6,495.7l0-8l-15.8-9.1l0,8L477.6,495.7"/>
			</g>
			<g>
				<g>
					<polygon class="st10" points="313.1,390 313.1,404.6 310.4,403 310.4,388.5 					"/>
				</g>
				<g>
					<polygon class="st10" points="320.4,394.2 320.4,408.8 317.6,407.2 317.7,392.7 					"/>
				</g>
			</g>
			<g>
				<g>
					<polygon class="st10" points="419.6,455.8 419.6,462 415.8,459.8 415.8,453.7 					"/>
				</g>
				<g>
					<polygon class="st10" points="424.7,453 424.7,470.2 419.6,462 419.6,455.8 					"/>
				</g>
			</g>
			<g>
				<g>
					<path class="st10" d="M435.4,457.6c4.4,7.7,4.4,16-0.1,18.5l-0.8-1.4c4-2.3,4-9.7,0-16.6L435.4,457.6z"/>
				</g>
				<g>
					<path class="st10" d="M433.3,458.8c1.6,2.8,2.5,5.7,2.5,8.4c0,2.6-0.9,4.6-2.5,5.5l-0.8-1.4c1.4-0.8,2.2-2.5,2.2-4.7
						c0-2.3-0.8-4.8-2.1-7.2L433.3,458.8z"/>
				</g>
				<g>
					<path class="st10" d="M431.1,460c2.1,3.7,2.1,7.7,0,8.9l-0.8-1.4c1.7-1,1.7-4.1,0-7L431.1,460z"/>
				</g>
			</g>
		</g>
		<g>
			<g>
				<g class="st0">
					<g>
						<polygon class="st18" points="450.7,272 459.9,266.6 459.8,315.5 450.5,320.9 						"/>
					</g>
					<g>
						<polygon class="st19" points="408.1,247.4 417.4,242 459.9,266.6 450.7,272 						"/>
					</g>
					<g>
						<polygon class="st20" points="450.7,272 450.5,320.9 408,296.3 408.1,247.4 						"/>
					</g>
				</g>
			</g>
			<path class="st10" d="M443.6,281.6c0,0-0.4-0.1-0.9-0.1c-0.5-0.1-1.2-0.1-1.9-0.1c-0.3-0.7-0.7-1.3-1.1-2
				c-0.4-0.7-0.9-1.3-1.3-1.9c0.3-0.5,0.6-1.1,0.8-1.5c0.2-0.4,0.4-0.7,0.4-0.7c0.1-0.1,0.1-0.3,0-0.5c-0.1-0.2-0.2-0.4-0.4-0.6
				c0,0-0.1-0.1-0.2-0.2c-0.1-0.1-0.3-0.2-0.4-0.4c-0.2-0.2-0.4-0.3-0.6-0.5c-0.2-0.2-0.5-0.4-0.7-0.6c-0.3-0.2-0.5-0.4-0.8-0.5
				c-0.2-0.2-0.5-0.3-0.7-0.4c-0.2-0.1-0.4-0.2-0.5-0.3c-0.1,0-0.1-0.1-0.1-0.1c0,0,0,0,0,0c-0.2-0.1-0.5-0.2-0.7-0.2
				c-0.2,0-0.3,0.1-0.4,0.2c0,0-0.2,0.3-0.5,0.6c-0.3,0.4-0.6,0.9-0.9,1.4c-1.3-0.6-2.7-1-4.1-1.1c-0.3-0.7-0.5-1.4-0.8-1.9
				c-0.2-0.5-0.4-0.9-0.4-0.9c-0.1-0.2-0.2-0.3-0.4-0.4c-0.1-0.1-0.2-0.1-0.3-0.1c-0.1,0-0.2,0-0.3,0c0,0-0.1,0-0.2,0
				c-0.1,0-0.3,0-0.5,0c-0.2,0-0.4,0-0.7,0.1c-0.1,0-0.3,0-0.4,0.1c-0.1,0-0.3,0.1-0.4,0.1c-0.5,0.1-1,0.3-1.4,0.4
				c-0.2,0.1-0.3,0.1-0.4,0.2c-0.1,0-0.2,0.1-0.2,0.1c-0.2,0.1-0.4,0.2-0.4,0.4c-0.1,0.2-0.1,0.3,0,0.5c0,0,0.1,0.4,0.3,0.9
				c0.2,0.5,0.4,1.2,0.7,1.9c-1.1,0.6-2,1.5-2.7,2.5c-0.7-0.3-1.3-0.6-1.8-0.9c-0.5-0.2-0.9-0.4-0.9-0.4c-0.2-0.1-0.3-0.1-0.5,0
				c-0.1,0-0.2,0.1-0.2,0.2c-0.1,0.1-0.1,0.2-0.2,0.3c0,0,0,0.1-0.1,0.2c-0.1,0.1-0.1,0.3-0.2,0.4c0,0.1-0.1,0.2-0.1,0.3
				c0,0.1-0.1,0.2-0.1,0.3c0,0.1-0.1,0.2-0.1,0.4c0,0.1-0.1,0.3-0.1,0.4c-0.1,0.3-0.1,0.5-0.2,0.8c-0.1,0.2-0.1,0.5-0.1,0.7
				c0,0.2-0.1,0.4-0.1,0.5c0,0.1,0,0.2,0,0.2c-0.1,0.5,0.2,1,0.5,1.1c0,0,0.3,0.2,0.8,0.5c0.3,0.1,0.5,0.3,0.9,0.5
				c0.3,0.2,0.6,0.3,0.9,0.5c0,1.4,0.3,2.8,0.7,4.2c-0.3,0.1-0.5,0.3-0.8,0.4c-0.3,0.1-0.5,0.3-0.7,0.4c-0.4,0.2-0.7,0.4-0.7,0.4
				c-0.1,0.1-0.2,0.2-0.3,0.4c0,0.2,0,0.4,0.1,0.7c0,0,0.1,0.3,0.3,0.7c0.1,0.2,0.2,0.5,0.4,0.7c0.1,0.3,0.3,0.5,0.5,0.8
				c0.2,0.3,0.3,0.5,0.5,0.8c0.2,0.2,0.3,0.5,0.5,0.7c0.3,0.4,0.5,0.6,0.5,0.6c0.2,0.2,0.4,0.4,0.6,0.5c0.2,0.1,0.4,0.1,0.5,0
				c0,0,0.3-0.1,0.8-0.3c0.2-0.1,0.5-0.2,0.8-0.3c0.3-0.1,0.5-0.3,0.8-0.4c1.1,1.1,2.3,2,3.6,2.7c0,0.3,0,0.7,0,1c0,0.3,0,0.6,0,0.9
				c0,0.5,0,0.9,0,0.9c0,0.3,0.3,0.7,0.8,1c0,0,0.1,0,0.2,0.1c0.1,0,0.3,0.1,0.5,0.2c0.2,0.1,0.5,0.2,0.7,0.3
				c0.3,0.1,0.6,0.2,0.8,0.3c0.1,0,0.3,0.1,0.4,0.1c0.1,0,0.3,0.1,0.4,0.1c0.1,0,0.3,0.1,0.4,0.1c0.1,0,0.2,0,0.3,0.1
				c0.2,0,0.4,0.1,0.5,0.1c0.1,0,0.2,0,0.2,0c0.1,0,0.2,0,0.3,0c0.1,0,0.2-0.1,0.3-0.1c0.2-0.1,0.2-0.2,0.2-0.4c0,0,0.1-0.3,0.1-0.9
				c0.1-0.5,0.1-1.2,0.1-1.8c1.3,0,2.6-0.3,3.7-0.8c0.5,0.6,1,1.1,1.4,1.5c0.4,0.4,0.7,0.7,0.7,0.7c0.1,0.1,0.3,0.2,0.5,0.3
				c0.2,0,0.4,0,0.6-0.1c0,0,0.1,0,0.1-0.1c0.1-0.1,0.2-0.1,0.4-0.3c0.3-0.2,0.7-0.5,1.1-0.9c0.1-0.1,0.2-0.2,0.3-0.3
				c0.1-0.1,0.2-0.2,0.3-0.3c0.2-0.2,0.3-0.3,0.4-0.5c0.1-0.1,0.2-0.3,0.3-0.4c0.1-0.1,0.1-0.1,0.1-0.1c0.1-0.1,0.1-0.2,0.1-0.3
				c0-0.1,0-0.2,0-0.3c0-0.2-0.1-0.4-0.2-0.5c0,0-0.2-0.3-0.6-0.8c-0.4-0.4-0.9-1-1.4-1.6c0.6-1.1,0.9-2.4,1.1-3.7
				c0.7,0,1.3,0.1,1.8,0c0.5,0,0.9,0,0.9,0c0.2,0,0.3-0.1,0.4-0.2c0.1-0.1,0.2-0.4,0.2-0.6c0,0,0,0,0-0.1c0,0,0-0.1,0-0.1
				c0-0.1,0-0.3,0-0.5c0-0.2,0-0.5-0.1-0.8c0-0.3-0.1-0.6-0.1-0.9c-0.1-0.3-0.1-0.6-0.2-0.9c-0.1-0.3-0.1-0.5-0.2-0.8
				c-0.1-0.2-0.1-0.4-0.2-0.5c0-0.1-0.1-0.2-0.1-0.2c-0.1-0.2-0.2-0.5-0.4-0.6C443.9,281.7,443.7,281.6,443.6,281.6z M434.8,292
				c-3.6,1.8-8.8-0.1-11.4-4.4c-2.7-4.3-1.9-9.2,1.8-11c3.6-1.8,8.8,0.1,11.4,4.4C439.3,285.2,438.5,290.2,434.8,292z"/>
		</g>
		<g>
			<g>
				<g class="st0">
					<g>
						<polygon class="st21" points="509.7,305.4 519,300 518.8,348.8 509.6,354.2 						"/>
					</g>
					<g>
						<polygon class="st22" points="467.2,280.8 476.4,275.4 519,300 509.7,305.4 						"/>
					</g>
					<g>
						<polygon class="st23" points="509.7,305.4 509.6,354.2 467,329.7 467.2,280.8 						"/>
					</g>
				</g>
			</g>
			<path class="st10" d="M476.5,309.4c0,2.4,0.4,4.9,1.3,7.5c2.4,6.5,7.7,14,7.7,14s-3.4-10.1,1.1-6.8c0.8,0.6,1.7,0.9,2.6,1.2
				c7,2.7,12.7-0.1,12.8-6.2c0-6.1-5.7-13.3-12.7-16C482.2,300.5,476.5,303.3,476.5,309.4z M493,316.7c0-1.1,0.9-1.6,1.9-1.2
				c1.1,0.4,1.9,1.6,1.9,2.7c0,1.1-0.9,1.6-1.9,1.2C493.8,319,493,317.8,493,316.7z M487.3,314.5c0-1.1,0.9-1.6,1.9-1.2
				c1.1,0.4,1.9,1.6,1.9,2.7c0,1.1-0.9,1.6-1.9,1.2C488.2,316.8,487.3,315.6,487.3,314.5z M481.7,312.4c0-1.1,0.9-1.6,1.9-1.2
				c1.1,0.4,1.9,1.6,1.9,2.7c0,1.1-0.9,1.6-1.9,1.2C482.6,314.6,481.7,313.4,481.7,312.4z"/>
		</g>
		<g>
			<g>
				<polygon class="st10" points="520.6,254.8 520.6,272.7 518.6,271.6 518.7,256.1 515.2,255.3 515.3,253.7 518.7,253.7 				"/>
			</g>
			<g>
				<path class="st10" d="M529.5,259.6c3.1,1.8,4.4,5.2,4.4,7.8c0,4.6-5.7,6.3-7.2,6.6l7.1,4.1l0,2.2l-10.7-6.2l0-2
					c2.2-0.5,8.8-2.1,8.8-5.9c0-1.7-0.8-3.5-2.7-4.6l-6.2-3.6l0-1.7C525.1,257.3,527,258.2,529.5,259.6z"/>
			</g>
			<g>
				<path class="st10" d="M538.4,269.9c0.4,0.2,0.5,0.5,0.5,0.9l0,1.6c0,0.4-0.2,0.4-0.5,0.3l-1.3-0.8c-0.3-0.2-0.5-0.5-0.5-0.9
					l0-1.6c0-0.4,0.2-0.5,0.5-0.3L538.4,269.9z"/>
			</g>
			<g>
				<path class="st10" d="M538.4,280.2c0.4,0.2,0.5,0.5,0.5,0.9l0,1.6c0,0.4-0.2,0.4-0.5,0.3l-1.3-0.8c-0.3-0.2-0.5-0.5-0.5-0.9
					l0-1.6c0-0.4,0.2-0.5,0.5-0.3L538.4,280.2z"/>
			</g>
			<g>
				<path class="st10" d="M546.4,269.6c0.5,0.3,1.1,0.6,1.6,1c2.3,1.4,3.7,3.9,3.7,6.3l0,1.6c0,1.8-0.6,2.6-1.5,2.5
					c0.9,1.2,1.5,2.5,1.5,4.4l0,1.3c0,2.7-1.3,3.5-3.9,2c-0.4-0.2-0.8-0.4-1.2-0.7c-2-1.1-3.8-2.2-5.4-3.8l0-1.5l6.1,3.5
					c1.2,0.7,2.3,1.1,2.3-0.8l0-1.3c0-1.8-1-2.9-2.1-3.6l-4.9-3l0-1.8l4.9,2.6c1.5,0.8,2.2,0.5,2.2-1l0-1.5c0-1.5-1.1-2.7-2.2-3.3
					l-6.4-3.7l0-1.5C542.7,267.5,544.5,268.5,546.4,269.6z"/>
			</g>
			<g>
				<path class="st10" d="M561.8,278.6c2.7,1.5,3.6,4,3.6,6.2l0,9.8c0,2.9-1.5,3.2-3.6,2l-3.5-2c-2.1-1.2-3.7-3.3-3.7-6.2l0-9.7
					c0-2.7,1.6-3.2,3.7-2L561.8,278.6z M563.4,293.2l0-9.5c0-1.1-0.4-2.3-1.8-3.1l-3.2-1.8c-1.4-0.8-1.9-0.1-1.9,0.9l0,9.5
					c0,1.6,1,2.6,2,3.2l3.1,1.8C562.8,294.9,563.4,294.5,563.4,293.2"/>
			</g>
		</g>
		<g>
			<g>
				<g class="st0">
					<g>
						<polygon class="st18" points="699.4,407.1 704.4,404.2 704.2,459.3 699.3,462.2 						"/>
					</g>
					<g>
						<polygon class="st19" points="528.2,308.2 533.1,305.3 704.4,404.2 699.4,407.1 						"/>
					</g>
					<g>
						<polygon class="st20" points="699.4,407.1 699.3,462.2 528,363.3 528.2,308.2 						"/>
					</g>
				</g>
			</g>
			<g>
				<g>
					<path class="st10" d="M635.1,383.4l0,5.6c0,4.4-1.8,3.4-3.2,2.6c-0.1,0-0.2-0.1-0.2-0.1c-1.5-0.9-3-1.8-3-6.2l0-5.6l1.1,0.6
						l0,5.6c0,3.2,0.8,3.7,2.2,4.5c1.2,0.7,2.1,1.1,2.1-2l0-5.6L635.1,383.4z"/>
				</g>
				<g>
					<path class="st10" d="M638.9,385.5c0.8,0.5,2.5,1.7,3,2.1l0,1c-0.8-0.5-2.8-1.8-3-1.8c-0.1,0-0.2-0.1-0.2-0.1
						c-0.7-0.4-1.2-0.5-1.2,0.6l0,0.8c0,1.1,0.4,1.5,1.1,1.9l1.6,0.9c1.6,0.9,1.9,2.4,1.9,3.5l0,0.9c0,2-1.2,1.7-2.4,1
						c-0.8-0.5-2.4-1.6-3.1-2.1l0-1c0.5,0.3,1.9,1.2,3,1.9c0.5,0.3,1.4,0.8,1.4-0.3l0-0.8c0-0.7-0.2-1.3-0.9-1.8l-1.6-0.9
						c-2-1.1-2.1-2.6-2.1-3.7l0-0.9C636.5,384.6,637.5,384.7,638.9,385.5C638.9,385.4,638.9,385.4,638.9,385.5z"/>
				</g>
				<g>
					<path class="st10" d="M645.1,389.1C645.1,389.1,645.2,389.2,645.1,389.1c0.3,0.2,3.7,2.3,3.9,2.4l0,1l-3.7-2.1
						c-0.6-0.4-0.6,0-0.6,0.4l0,2.4l3.8,2.3l0,1l-3.8-2.1l0,2.4c0,0.7,0.4,0.9,0.7,1.1c0,0,0,0,0,0l3.5,2l0,1
						c-0.2-0.1-3.5-1.8-3.7-1.9c-0.1,0-0.1-0.1-0.2-0.1c-0.7-0.4-1.5-1.2-1.5-2.7l0-6.4C643.6,388.7,644.3,388.7,645.1,389.1z"/>
				</g>
				<g>
					<path class="st10" d="M654.5,400.5l1.8,5.1l-1.2-0.7l-1.7-5l-2.1-1.4l0,4.2l-1.1-0.6l0-10l3.7,2.2c1.2,0.7,2.1,1.9,2.1,4.2
						C656,401,654.9,400.6,654.5,400.5z M651.2,397.4l2.6,1.5c0.6,0.3,1,0.6,1-1.1c0-1.6-0.5-2.1-1-2.4l-2.6-1.5L651.2,397.4"/>
				</g>
				<g>
					<polygon class="st10" points="663.9,400 663.9,410 662.8,409.4 658.5,399.2 658.5,406.9 657.4,406.2 657.4,396.2 658.5,396.9 
						662.8,407 662.8,399.4 					"/>
				</g>
				<g>
					<path class="st10" d="M669.4,403.1l3,11.7l-1.2-0.7l-0.7-3l-3.3-1.9l-0.7,2.2l-1.3-0.7l3.2-8.2L669.4,403.1z M667.4,408.2
						l2.6,1.5l-1.3-5.1L667.4,408.2"/>
				</g>
				<g>
					<polygon class="st10" points="681,409.8 681.7,420.2 680.6,419.6 680,411.5 678,418.1 676.9,417.5 674.8,408.5 674.3,416 
						673.2,415.4 673.9,405.7 675.4,406.6 677.4,415.7 679.5,409 					"/>
				</g>
				<g>
					<path class="st10" d="M684.4,411.8C684.5,411.8,684.5,411.9,684.4,411.8c0.3,0.2,3.7,2.3,3.9,2.4l0,1l-3.7-2.1
						c-0.6-0.4-0.6,0-0.6,0.4l0,2.4l3.8,2.3l0,1l-3.8-2.1l0,2.4c0,0.7,0.4,0.9,0.7,1.1c0,0,0,0,0,0l3.5,2l0,1
						c-0.2-0.1-3.5-1.8-3.7-1.9c-0.1,0-0.1-0.1-0.2-0.1c-0.7-0.4-1.5-1.2-1.5-2.7l0-6.4C682.9,411.4,683.7,411.4,684.4,411.8z"/>
				</g>
			</g>
			<g>
				<g>
					<path class="st10" d="M632.3,403c1,0.6,2.2,1.7,2.2,4.2c0,2.8-1.2,2.4-2.1,1.9c0,0-0.1,0-0.1,0c-0.5-0.3-2.5-1.7-2.5-1.7l0,4.2
						l-1.1-0.6l0-10L632.3,403z M632.2,407.8c0.6,0.3,1.1,0.4,1.1-1.2c0-1.6-0.7-2.1-1.1-2.4l-2.5-1.4l0,3.6L632.2,407.8"/>
				</g>
				<g>
					<path class="st10" d="M638.7,406.7l3,11.7l-1.2-0.7l-0.7-3l-3.3-1.9l-0.7,2.2l-1.3-0.7l3.2-8.2L638.7,406.7z M636.7,411.7
						l2.6,1.5l-1.3-5.1L636.7,411.7"/>
				</g>
				<g>
					<path class="st10" d="M644.6,410c0.8,0.5,2.5,1.7,3,2.1l0,1c-0.8-0.5-2.8-1.8-3-1.8c-0.1-0.1-0.2-0.1-0.2-0.1
						c-0.7-0.4-1.1-0.5-1.1,0.6l0,0.8c0,1.1,0.4,1.5,1.1,1.9l1.6,0.9c1.6,0.9,1.9,2.4,1.9,3.5l0,0.9c0,2-1.2,1.7-2.4,1
						c-0.8-0.5-2.4-1.6-3.1-2.1l0-1c0.5,0.3,1.9,1.2,3,1.9c0.5,0.3,1.4,0.8,1.4-0.3l0-0.8c0-0.7-0.2-1.3-0.9-1.8l-1.6-0.9
						c-2-1.1-2.1-2.6-2.1-3.7l0-0.9C642.2,409.1,643.2,409.2,644.6,410C644.6,410,644.6,410,644.6,410z"/>
				</g>
				<g>
					<path class="st10" d="M651.4,413.9c0.8,0.5,2.5,1.7,3,2.1l0,1c-0.8-0.5-2.8-1.8-3-1.8c-0.1-0.1-0.2-0.1-0.2-0.1
						c-0.7-0.4-1.1-0.5-1.1,0.6l0,0.8c0,1.1,0.4,1.5,1.1,1.9l1.6,0.9c1.6,0.9,1.9,2.4,1.9,3.5l0,0.9c0,2-1.2,1.7-2.4,1
						c-0.8-0.5-2.4-1.6-3.1-2.1l0-1c0.5,0.3,1.9,1.2,3,1.9c0.5,0.3,1.4,0.8,1.4-0.3l0-0.8c0-0.7-0.2-1.3-0.9-1.8l-1.6-0.9
						c-2-1.1-2.1-2.6-2.1-3.7l0-0.9C649,413,650,413.1,651.4,413.9C651.4,413.9,651.4,413.9,651.4,413.9z"/>
				</g>
				<g>
					<polygon class="st10" points="666.6,422.8 663.9,431.3 662.8,430.6 661.3,424.9 659.9,429 658.8,428.3 655.8,416.6 657,417.3 
						659.4,426.6 661.4,419.8 662.6,420.5 661.8,423.1 663.3,429 665.4,422.1 					"/>
				</g>
				<g>
					<path class="st10" d="M670.6,425c2.1,1.2,3.4,2.4,3.4,7.1c0,4.4-1.3,4.3-3.4,3c-2.1-1.2-3.4-2.4-3.4-6.9
						C667.2,423.5,668.6,423.9,670.6,425z M670.5,433.9c1.7,1,2.3,0.8,2.3-2.4c0-3.8-0.8-4.4-2.3-5.2c-1.5-0.9-2.3-1.3-2.3,2.6
						C668.2,432.1,668.8,432.9,670.5,433.9"/>
				</g>
				<g>
					<path class="st10" d="M679.5,436.2l1.8,5.1l-1.2-0.7l-1.7-5l-2.1-1.4l0,4.2l-1.1-0.6l0-10l3.7,2.2c1.2,0.7,2.1,2,2.1,4.2
						C680.9,436.7,679.8,436.3,679.5,436.2z M676.2,433.1l2.6,1.5c0.6,0.3,1,0.5,1-1.1c0-1.6-0.5-2.1-1-2.4l-2.6-1.5L676.2,433.1"/>
				</g>
				<g>
					<path class="st10" d="M685.8,433.9c2.6,1.5,3.1,4.6,3.1,6.8c0,2.5-0.8,4.5-3.1,3.2l-3.4-1.9l0-10L685.8,433.9z M685.7,442.6
						c1.4,0.8,2-0.5,2-2.6c0-2.9-0.7-4.3-2-5l-2.2-1.3l0,7.6L685.7,442.6"/>
				</g>
			</g>
			<g>
				<g>
					<path class="st10" d="M612.6,367c1.7,1,3.1,3.4,3.1,5.4c0,2-1.4,2.8-3.2,1.8c-1.7-1-3.1-3.4-3.1-5.4
						C609.4,366.8,610.8,366,612.6,367z"/>
				</g>
				<g>
					<path class="st10" d="M615.5,375.3c1.4,0.8,2.6,2.8,2.6,4.5l0,4.4l-1.9-1.1l0-2.4c0-0.2-0.1-0.4-0.3-0.5
						c-0.2-0.1-0.3,0-0.3,0.2l0,2.4l-6.1-3.5l0-2.4c0-0.2-0.1-0.4-0.3-0.5c-0.2-0.1-0.3,0-0.3,0.2l0,2.4l-1.9-1.1l0-4.4
						c0-1.6,1.2-2.3,2.6-1.5l0.1,0c0.7,1.3,1.7,2.5,2.9,3.2C613.7,375.8,614.7,375.8,615.5,375.3L615.5,375.3z"/>
				</g>
			</g>
			<g>
				<g class="st0">
					<g>
						<path class="st10" d="M616.1,393.3l1.8,1l0,9.5l-10.7-6.2l0-9.5l1.8,1l1.4,0.8l4.3,2.5L616.1,393.3z M612.5,399.3
							c0.8,0.4,1.4,0.1,1.4-0.8c0-0.7-0.4-1.5-0.9-2.1l0-2.8l-0.9-0.5l0,2.8c-0.5-0.1-0.9,0.3-0.9,1
							C611.1,397.8,611.7,398.9,612.5,399.3"/>
					</g>
					<g>
						<path class="st10" d="M612.5,387.2c1.9,1.1,3.5,3.9,3.5,6.1l-1.4-0.8c0-1.3-0.9-3-2.1-3.7c-1.2-0.7-2.1-0.1-2.1,1.2l-1.4-0.8
							C609,387,610.6,386.1,612.5,387.2z"/>
					</g>
				</g>
			</g>
			<polygon class="st19" points="599.7,360.4 537,324.2 536.9,356.8 599.7,393 			"/>
			<g>
				<g>
					<path class="st10" d="M544.3,336.2l0,13.8c0,1.2,0.6,1.6,1.2,1.9c0,0,0,0,0.1,0l5.9,3.4l0,2.1l-6.2-3.6c-1.4-0.8-2.8-2-2.8-4.7
						l0-14L544.3,336.2z"/>
				</g>
				<g>
					<path class="st10" d="M558.5,344.3c3.5,2,5.8,4.1,5.7,12.1c0,7.5-2.2,7.3-5.8,5.2c-3.6-2.1-5.8-4.1-5.8-11.8
						C552.7,341.7,555.1,342.3,558.5,344.3z M558.5,359.5c2.9,1.7,3.9,1.3,3.9-4.2c0-6.5-1.3-7.4-3.9-8.9c-2.6-1.5-3.9-2.1-4,4.4
						C554.5,356.4,555.5,357.7,558.5,359.5"/>
				</g>
				<g>
					<path class="st10" d="M570.5,351.1c1.4,0.8,3.7,2.4,5.3,3.7l0,1.7c-0.1-0.1-3-2.1-5.1-3.3c-2.6-1.5-3.1,0.3-3.1,4.8
						c0,5,0.7,7,3.1,8.4c1.5,0.9,3.4,1,3.5,1l0-4.2l-3-1.8l0-1.4c0.8,0.2,1.9,0.5,3.5,1.5c0.4,0.2,0.9,0.5,1.4,0.9l0,9.2l-1.4-0.8
						l-0.4-1.4c-0.7,0.1-1.9,0.1-3.7-0.9c0,0-0.1-0.1-0.1-0.1c-4.1-2.3-4.7-6.6-4.7-11.4C565.8,352.3,566.5,348.8,570.5,351.1z"/>
				</g>
				<g>
					<polygon class="st10" points="580.5,357.1 580.5,374.1 578.6,373.1 578.7,356 					"/>
				</g>
				<g>
					<polygon class="st10" points="594.3,365 594.2,382.1 592.4,381 585,363.7 585,376.7 583.1,375.7 583.2,358.6 585.1,359.7 
						592.4,377 592.4,364 					"/>
				</g>
			</g>
		</g>
	</g>
	<g>
		<g class="st0">
			<g class="st0">
				<defs>
					<path id="SVGID_7_" class="st0" d="M466.5,577.2l4.1-2.4c3.1-1.8,7.4-1.5,12.1,1.2l-4.1,2.4
						C473.8,575.7,469.6,575.4,466.5,577.2z"/>
				</defs>
				<use xlink:href="#SVGID_7_"  style="overflow:visible;fill:#95A2AC;"/>
				<clipPath id="SVGID_8_">
					<use xlink:href="#SVGID_7_"  style="overflow:visible;"/>
				</clipPath>
				<g class="st24">
					<path class="st25" d="M466.5,577.2l4.1-2.4c0.4-0.3,0.9-0.5,1.4-0.6l-4.1,2.4C467.4,576.7,466.9,576.9,466.5,577.2"/>
					<path class="st25" d="M467.8,576.6l4.1-2.4c0.4-0.1,0.8-0.2,1.2-0.3l-4.1,2.4C468.6,576.3,468.2,576.4,467.8,576.6"/>
					<path class="st25" d="M469,576.2l4.1-2.4c0.3-0.1,0.6-0.1,1-0.1l-4.1,2.4C469.7,576.1,469.4,576.2,469,576.2"/>
					<path class="st25" d="M470,576.1l4.1-2.4c0.3,0,0.6,0,0.9,0l-4.1,2.4C470.6,576,470.3,576.1,470,576.1"/>
					<path class="st25" d="M470.9,576l4.1-2.4c0.3,0,0.5,0,0.8,0l-4.1,2.4C471.4,576.1,471.2,576,470.9,576"/>
					<path class="st25" d="M471.7,576.1l4.1-2.4c0.2,0,0.5,0,0.8,0.1l-4.1,2.4C472.2,576.1,471.9,576.1,471.7,576.1"/>
					<path class="st25" d="M472.5,576.2l4.1-2.4c0.2,0,0.5,0.1,0.7,0.1l-4.1,2.4C472.9,576.2,472.7,576.2,472.5,576.2"/>
					<path class="st25" d="M473.2,576.3l4.1-2.4c0.2,0,0.5,0.1,0.7,0.2l-4.1,2.4C473.7,576.4,473.4,576.3,473.2,576.3"/>
					<path class="st25" d="M473.9,576.4l4.1-2.4c0.2,0.1,0.5,0.1,0.7,0.2l-4.1,2.4C474.4,576.6,474.1,576.5,473.9,576.4"/>
					<path class="st25" d="M474.6,576.6l4.1-2.4c0.2,0.1,0.5,0.1,0.7,0.2l-4.1,2.4C475.1,576.8,474.8,576.7,474.6,576.6"/>
					<path class="st25" d="M475.3,576.8l4.1-2.4c0.2,0.1,0.5,0.2,0.7,0.3l-4.1,2.4C475.7,577,475.5,576.9,475.3,576.8"/>
					<path class="st25" d="M476,577.1l4.1-2.4c0.2,0.1,0.5,0.2,0.7,0.3l-4.1,2.4C476.4,577.3,476.2,577.2,476,577.1"/>
					<path class="st25" d="M476.6,577.4l4.1-2.4c0.2,0.1,0.5,0.2,0.7,0.3l-4.1,2.4C477.1,577.6,476.9,577.5,476.6,577.4"/>
					<path class="st25" d="M477.3,577.7l4.1-2.4c0.2,0.1,0.5,0.2,0.7,0.4l-4.1,2.4C477.8,578,477.6,577.8,477.3,577.7"/>
					<path class="st25" d="M478,578.1l4.1-2.4c0.2,0.1,0.4,0.2,0.5,0.3l-4.1,2.4C478.4,578.3,478.2,578.2,478,578.1"/>
				</g>
			</g>
			<g class="st0">
				<defs>
					<path id="SVGID_9_" class="st0" d="M494.7,616.3l-4.1,2.4c3.1-1.8,5-5.6,5-10.9c0-10.8-7.6-24-17-29.4l4.1-2.4
						c9.4,5.4,17,18.6,17,29.4C499.6,610.8,497.7,614.5,494.7,616.3z"/>
				</defs>
				<use xlink:href="#SVGID_9_"  style="overflow:visible;fill:#95A2AC;"/>
				<clipPath id="SVGID_10_">
					<use xlink:href="#SVGID_9_"  style="overflow:visible;"/>
				</clipPath>
				<g class="st26">
					<path class="st25" d="M478.6,578.4l4.1-2.4c0.1,0,0.1,0.1,0.2,0.1l-4.1,2.4C478.7,578.4,478.6,578.4,478.6,578.4"/>
					<path class="st25" d="M478.7,578.5l4.1-2.4c0.2,0.1,0.5,0.3,0.7,0.4l-4.1,2.4C479.2,578.8,479,578.6,478.7,578.5"/>
					<path class="st25" d="M479.5,578.9l4.1-2.4c0.2,0.2,0.5,0.3,0.7,0.5l-4.1,2.4C479.9,579.2,479.7,579.1,479.5,578.9"/>
					<path class="st25" d="M480.2,579.4l4.1-2.4c0.2,0.2,0.5,0.3,0.7,0.5l-4.1,2.4C480.7,579.7,480.4,579.6,480.2,579.4"/>
					<path class="st25" d="M480.9,579.9l4.1-2.4c0.3,0.2,0.5,0.4,0.7,0.6l-4.1,2.4C481.4,580.3,481.2,580.1,480.9,579.9"/>
					<path class="st25" d="M481.7,580.5l4.1-2.4c0.3,0.2,0.5,0.4,0.8,0.6l-4.1,2.4C482.2,580.9,481.9,580.7,481.7,580.5"/>
					<path class="st25" d="M482.4,581.1l4.1-2.4c0.3,0.2,0.5,0.4,0.8,0.7l-4.1,2.4C482.9,581.5,482.7,581.3,482.4,581.1"/>
					<path class="st25" d="M483.2,581.8l4.1-2.4c0.3,0.2,0.5,0.5,0.7,0.7l-4.1,2.4C483.7,582.2,483.4,582,483.2,581.8"/>
					<path class="st25" d="M483.9,582.5l4.1-2.4c0.2,0.2,0.5,0.5,0.7,0.7l-4.1,2.4C484.4,582.9,484.2,582.7,483.9,582.5"/>
					<path class="st25" d="M484.7,583.2l4.1-2.4c0.2,0.2,0.5,0.5,0.7,0.7l-4.1,2.4C485.1,583.7,484.9,583.4,484.7,583.2"/>
					<path class="st25" d="M485.4,583.9l4.1-2.4c0.2,0.2,0.4,0.5,0.7,0.7l-4.1,2.4C485.8,584.4,485.6,584.2,485.4,583.9"/>
					<path class="st25" d="M486,584.6l4.1-2.4c0.2,0.3,0.4,0.5,0.7,0.8l-4.1,2.4C486.5,585.2,486.2,584.9,486,584.6"/>
					<path class="st25" d="M486.7,585.4l4.1-2.4c0.2,0.3,0.4,0.5,0.7,0.8l-4.1,2.4C487.1,586,486.9,585.7,486.7,585.4"/>
					<path class="st25" d="M487.3,586.2l4.1-2.4c0.3,0.3,0.5,0.7,0.8,1l-4.1,2.4C487.8,586.9,487.6,586.6,487.3,586.2"/>
					<path class="st25" d="M488.1,587.2l4.1-2.4c0.4,0.5,0.7,1,1.1,1.5l-4.1,2.4C488.8,588.2,488.5,587.7,488.1,587.2"/>
					<path class="st25" d="M489.2,588.8l4.1-2.4c0.4,0.7,0.9,1.3,1.3,2l-4.1,2.4C490,590.1,489.6,589.4,489.2,588.8"/>
					<path class="st25" d="M490.4,590.8l4.1-2.4c0.3,0.5,0.6,1,0.8,1.5l-4.1,2.4C491,591.8,490.7,591.3,490.4,590.8"/>
					<path class="st25" d="M491.3,592.3l4.1-2.4c0.2,0.3,0.4,0.7,0.5,1l-4.1,2.4C491.6,592.9,491.4,592.6,491.3,592.3"/>
					<path class="st25" d="M491.8,593.3l4.1-2.4c0.1,0.3,0.3,0.6,0.4,0.9l-4.1,2.4C492.1,593.9,491.9,593.6,491.8,593.3"/>
					<path class="st25" d="M492.2,594.2l4.1-2.4c0.1,0.3,0.3,0.5,0.4,0.8l-4.1,2.4C492.5,594.7,492.4,594.5,492.2,594.2"/>
					<path class="st25" d="M492.6,595l4.1-2.4c0.1,0.3,0.2,0.5,0.3,0.8l-4.1,2.4C492.8,595.5,492.7,595.3,492.6,595"/>
					<path class="st25" d="M493,595.8l4.1-2.4c0.1,0.3,0.2,0.6,0.3,0.8l-4.1,2.4C493.2,596.4,493.1,596.1,493,595.8"/>
					<path class="st25" d="M493.3,596.6l4.1-2.4c0.1,0.3,0.2,0.6,0.3,0.8l-4.1,2.4C493.5,597.2,493.4,596.9,493.3,596.6"/>
					<path class="st25" d="M493.6,597.5l4.1-2.4c0.1,0.3,0.2,0.6,0.3,0.9l-4.1,2.4C493.8,598.1,493.7,597.8,493.6,597.5"/>
					<path class="st25" d="M493.9,598.3l4.1-2.4c0.1,0.3,0.2,0.6,0.3,0.9l-4.1,2.4C494.1,598.9,494,598.6,493.9,598.3"/>
					<path class="st25" d="M494.2,599.2l4.1-2.4c0.1,0.3,0.2,0.6,0.3,0.9l-4.1,2.4C494.4,599.8,494.3,599.5,494.2,599.2"/>
					<path class="st25" d="M494.4,600.1l4.1-2.4c0.1,0.3,0.2,0.6,0.2,0.9l-4.1,2.4C494.6,600.7,494.5,600.4,494.4,600.1"/>
					<path class="st25" d="M494.7,601l4.1-2.4c0.1,0.3,0.1,0.6,0.2,0.9l-4.1,2.4C494.8,601.6,494.8,601.3,494.7,601"/>
					<path class="st25" d="M494.9,601.9l4.1-2.4c0.1,0.3,0.1,0.6,0.2,0.9l-4.1,2.4C495,602.5,495,602.2,494.9,601.9"/>
					<path class="st25" d="M495.1,602.8l4.1-2.4c0.1,0.3,0.1,0.6,0.1,0.9l-4.1,2.4C495.2,603.4,495.1,603.1,495.1,602.8"/>
					<path class="st25" d="M495.2,603.7l4.1-2.4c0,0.3,0.1,0.6,0.1,0.9l-4.1,2.4C495.3,604.2,495.3,604,495.2,603.7"/>
					<path class="st25" d="M495.3,604.5l4.1-2.4c0,0.3,0.1,0.6,0.1,0.8l-4.1,2.4C495.4,605.1,495.4,604.8,495.3,604.5"/>
					<path class="st25" d="M495.4,605.4l4.1-2.4c0,0.3,0,0.6,0.1,0.8l-4.1,2.4C495.5,605.9,495.5,605.6,495.4,605.4"/>
					<path class="st25" d="M495.5,606.2l4.1-2.4c0,0.3,0,0.5,0,0.8l-4.1,2.4C495.5,606.7,495.5,606.5,495.5,606.2"/>
					<path class="st25" d="M495.5,607l4.1-2.4c0,0.3,0,0.5,0,0.8c0,0,0,0,0,0l-4.1,2.4c0,0,0,0,0,0
						C495.5,607.5,495.5,607.3,495.5,607"/>
					<path class="st25" d="M495.5,607.8l4.1-2.4c0,0.3,0,0.6,0,0.8l-4.1,2.4C495.5,608.4,495.5,608.1,495.5,607.8"/>
					<path class="st25" d="M495.5,608.6l4.1-2.4c0,0.3,0,0.5,0,0.8l-4.1,2.4C495.5,609.2,495.5,608.9,495.5,608.6"/>
					<path class="st25" d="M495.5,609.4l4.1-2.4c0,0.3-0.1,0.6-0.1,0.8l-4.1,2.4C495.4,610,495.5,609.7,495.5,609.4"/>
					<path class="st25" d="M495.4,610.3l4.1-2.4c0,0.3-0.1,0.5-0.1,0.8l-4.1,2.4C495.3,610.8,495.4,610.5,495.4,610.3"/>
					<path class="st25" d="M495.3,611.1l4.1-2.4c0,0.3-0.1,0.6-0.2,0.8l-4.1,2.4C495.2,611.6,495.2,611.4,495.3,611.1"/>
					<path class="st25" d="M495.1,611.9l4.1-2.4c-0.1,0.3-0.1,0.6-0.2,0.9l-4.1,2.4C495,612.5,495,612.2,495.1,611.9"/>
					<path class="st25" d="M494.9,612.8l4.1-2.4c-0.1,0.3-0.2,0.6-0.3,0.9l-4.1,2.4C494.7,613.4,494.8,613.1,494.9,612.8"/>
					<path class="st25" d="M494.6,613.7l4.1-2.4c-0.1,0.3-0.3,0.7-0.4,1l-4.1,2.4C494.3,614.3,494.5,614,494.6,613.7"/>
					<path class="st25" d="M494.2,614.6l4.1-2.4c-0.2,0.4-0.4,0.8-0.6,1.2l-4.1,2.4C493.8,615.4,494,615.1,494.2,614.6"/>
					<path class="st25" d="M493.5,615.8l4.1-2.4c-0.8,1.2-1.8,2.2-2.9,2.9l-4.1,2.4C491.7,618,492.7,617,493.5,615.8"/>
				</g>
			</g>
			<g>
				<path class="st8" d="M478.6,578.4c9.4,5.4,17,18.6,17,29.4c0,10.8-7.7,15.2-17.1,9.7c-9.4-5.4-17-18.6-17-29.4
					C461.5,577.3,469.2,573,478.6,578.4z"/>
			</g>
		</g>
	</g>
</g>
</svg>
