<?xml version="1.0" encoding="utf-8"?>
<!-- Generator: Adobe Illustrator 19.0.0, SVG Export Plug-In . SVG Version: 6.00 Build 0)  -->
<svg version="1.1" id="Capa_2" xmlns="http://www.w3.org/2000/svg" xmlns:xlink="http://www.w3.org/1999/xlink" x="0px" y="0px"
	 viewBox="132 93.9 860 654" style="enable-background:new 132 93.9 860 654;" xml:space="preserve">
<style type="text/css">
	.st0{enable-background:new    ;}
	.st1{fill:#D5E5EF;}
	.st2{fill:#FFFFFF;}
	.st3{fill:#A5CDD6;}
	.st4{fill:#EBF1F8;}
	.st5{fill:#6CB1C6;}
	.st6{fill:#B1D1E0;}
	.st7{fill:#70B3C2;}
	.st8{fill:#E9F2F8;}
	.st9{fill:#D5E5F0;}
	.st10{fill:#3A3A3A;}
	.st11{fill:#233B51;}
	.st12{fill:#5A99A7;}
	.st13{fill:#9BC2A9;}
	.st14{fill:#588F8E;}
	.st15{fill:#F5EDDE;}
	.st16{fill:#80A08F;}
	.st17{fill:#F1E2CC;}
	.st18{opacity:0.61;fill:#E0E0E0;}
</style>
<g id="XMLID_442_">
	<g id="XMLID_427_">
		<g id="XMLID_439_" class="st0">
			<path id="XMLID_447_" class="st1" d="M888.9,366.7L505.4,589.3c-8.5,4.9-22.2,4.9-30.8,0l-263-151.8c-4.3-2.5-6.4-5.7-6.4-9
				l-0.1,21.9c0,3.2,2.1,6.5,6.4,9l263,151.8c8.5,4.9,22.3,4.9,30.8,0l383.6-222.6c4.2-2.4,6.3-5.6,6.3-8.9l0.1-21.9
				C895.2,361,893.1,364.2,888.9,366.7z"/>
			<g id="XMLID_440_">
				<path id="XMLID_441_" class="st2" d="M888.8,348.8c8.5,4.9,8.6,12.9,0.1,17.8L505.4,589.3c-8.5,4.9-22.2,4.9-30.8,0l-263-151.8
					c-8.5-4.9-8.6-12.9-0.1-17.8L595,197c8.5-4.9,22.2-4.9,30.8,0L888.8,348.8z"/>
			</g>
		</g>
	</g>
	<g id="XMLID_438_">
		<path id="XMLID_523_" class="st1" d="M861.8,361.2c-0.8,1.9-2.5,3.7-5.1,5.2L507.2,569.3c-7.5,4.4-19.8,4.4-27.4,0L246.2,434.4
			c-2.6-1.5-4.3-3.3-5.1-5.3c-1.6-3.7,0.1-7.7,5.1-10.6l349.4-202.8c7.5-4.4,19.8-4.4,27.3,0l233.7,134.9
			C861.6,353.4,863.3,357.5,861.8,361.2z"/>
	</g>
	<g id="XMLID_479_">
		<path id="XMLID_515_" class="st3" d="M861.8,361.2c-0.8,1.9-2.5,3.7-5.1,5.2L507.2,569.3c-7.5,4.4-19.8,4.4-27.4,0L246.2,434.4
			c-2.6-1.5-4.3-3.3-5.1-5.3c0.8-1.9,2.5-3.7,5.1-5.2L595.6,221c7.5-4.4,19.8-4.4,27.3,0l233.7,134.9
			C859.2,357.4,860.9,359.3,861.8,361.2z"/>
	</g>
	<g id="XMLID_444_">
		<g id="XMLID_443_">
			<path id="XMLID_456_" class="st4" d="M823.5,416.6c0,3.1-2.1,6.8-4.8,8.3c-2.3,1.3-4.2,0.6-4.7-1.5c-0.1-0.4-0.1-0.8-0.1-1.2
				c0-3,2.1-6.8,4.8-8.3c0.3-0.2,0.6-0.3,0.9-0.4C821.7,412.6,823.5,413.9,823.5,416.6z"/>
		</g>
		<g id="XMLID_445_">
			<path id="XMLID_454_" class="st5" d="M819.6,414.7c0,3.1-2.1,6.8-4.8,8.3c-0.3,0.2-0.6,0.3-0.8,0.4c-0.1-0.4-0.1-0.8-0.1-1.2
				c0-3,2.1-6.8,4.8-8.3c0.3-0.2,0.6-0.3,0.9-0.4C819.6,413.8,819.6,414.3,819.6,414.7z"/>
		</g>
	</g>
	<g id="XMLID_448_">
		<g id="XMLID_446_">
			<g id="XMLID_449_" class="st0">
				<g id="XMLID_455_">
					<polygon id="XMLID_457_" class="st5" points="779.1,446.6 776,444.8 776,439 779,440.7 					"/>
				</g>
				<g id="XMLID_452_">
					<polygon id="XMLID_453_" class="st2" points="779,440.7 776,439 800.7,424.7 803.7,426.5 					"/>
				</g>
				<g id="XMLID_450_">
					<polygon id="XMLID_451_" class="st4" points="803.7,426.5 803.7,432.3 779.1,446.6 779,440.7 					"/>
				</g>
			</g>
		</g>
		<g id="XMLID_458_">
			<g id="XMLID_459_" class="st0">
				<g id="XMLID_465_">
					<polygon id="XMLID_466_" class="st5" points="751.3,462.6 748.3,460.8 748.3,455 751.3,456.7 					"/>
				</g>
				<g id="XMLID_463_">
					<polygon id="XMLID_464_" class="st2" points="751.3,456.7 748.3,455 773,440.7 776,442.5 					"/>
				</g>
				<g id="XMLID_460_">
					<polygon id="XMLID_461_" class="st4" points="776,442.5 776,448.3 751.3,462.6 751.3,456.7 					"/>
				</g>
			</g>
		</g>
	</g>
	<g id="XMLID_467_">
		<g id="XMLID_468_">
			<g id="XMLID_469_">
				<g id="XMLID_471_" class="st0">
					<g id="XMLID_472_">
						<polygon id="XMLID_473_" class="st6" points="320.6,510.8 320.6,516.6 358.8,538.7 358.8,532.8 						"/>
					</g>
				</g>
			</g>
		</g>
		<polygon id="XMLID_474_" class="st5" points="320.6,516.6 325.6,513.7 320.6,510.8 		"/>
	</g>
	<g id="XMLID_556_">
		<polygon id="XMLID_557_" class="st7" points="831,359.1 617.4,483.3 402.5,359.1 616.1,235 		"/>
	</g>
</g>
<g id="XMLID_1158_">
	<g id="XMLID_1159_">
		<g id="XMLID_1160_" class="st0">
			<g id="XMLID_1165_">
				<polygon id="XMLID_1166_" class="st8" points="743.8,305.1 743.8,351.6 637.7,413 637.7,366.5 				"/>
			</g>
			<g id="XMLID_1163_">
				<polygon id="XMLID_1164_" class="st9" points="637.7,366.5 637.7,413 553.2,364.2 553.2,317.6 				"/>
			</g>
			<g id="XMLID_1161_">
				<polygon id="XMLID_1162_" class="st2" points="743.8,305.1 637.7,366.5 553,317.6 659,256.2 				"/>
			</g>
		</g>
	</g>
</g>
<g id="XMLID_565_">
	<g id="XMLID_568_">
		<g id="XMLID_569_" class="st0">
			<g id="XMLID_574_">
				<polygon id="XMLID_575_" class="st8" points="746.5,293.2 746.5,303.4 637.8,366.6 637.8,356.4 				"/>
			</g>
			<g id="XMLID_572_">
				<polygon id="XMLID_573_" class="st9" points="637.8,356.4 637.8,366.6 550.2,316.2 550.2,305.9 				"/>
			</g>
			<g id="XMLID_570_">
				<polygon id="XMLID_571_" class="st2" points="746.5,293.2 637.7,356.4 550.2,305.9 659.2,242.7 				"/>
			</g>
		</g>
	</g>
</g>
<g id="XMLID_555_">
	<polygon id="XMLID_585_" class="st10" points="736.2,293.2 637.6,350.3 560.7,305.9 659.2,248.8 	"/>
</g>
<g id="XMLID_1_">
	<g id="XMLID_4_">
		<path id="XMLID_5_" class="st11" d="M585.2,351.4c0,5.4,3.9,12.2,8.5,14.9c3.2,2,6.1,1.5,7.6-0.7c0.7-1,1.2-2.4,1.2-4.1
			c0-5.4-3.9-12.2-8.5-14.9c-1.5-1-2.7-1.2-3.9-1.2C587.2,345.3,585.2,347.5,585.2,351.4z"/>
	</g>
	<g id="XMLID_2_">
		<path id="XMLID_3_" class="st12" d="M588.9,349.4c0,5.4,3.9,12,8.5,14.9c1.5,0.7,2.7,1.2,3.9,1.2c0.7-1,1.2-2.4,1.2-4.1
			c0-5.4-3.9-12.2-8.5-14.9c-1.5-1-2.7-1.2-3.9-1.2C589.4,346.3,588.9,347.7,588.9,349.4z"/>
	</g>
</g>
<g id="_x30_RiqJS.tif">
	<g>
		<path class="st13" d="M393.1,433.2c-0.2-13,0.6-26,4.5-38.5c1.4-4.6,3.5-8.9,5.7-13.1c3-5.7,5.8-11.5,7.4-17.7
			c2-7.3,2.9-14.8,3.3-22.4c0.2-5.1,0.3-10.1,0.5-15.2c1.1,0.1,1,1,1,1.7c0.1,2.1,1.3,3.4,3.1,4.1c5.3,2.1,10.5,2.2,15.2-1.7
			c0.3-0.3,0.7-0.6,1.2-0.5c0.9,2.5,0.7,5.2,0.8,7.8c0.2,6.9,0.9,13.7,2.1,20.5c1.6,9,5.4,17.1,9.6,25.1c4.8,9.1,7.3,18.9,8.4,29.2
			c1.5,13.6,0.7,27.2,0.9,40.9c0.1,11.1-0.2,22.3,0.1,33.4c0.2,6.2-2.5,10.5-7.4,13.9c-5.4,3.7-11.4,5.4-17.8,6.3
			c-8.3,1.1-16.5,0.3-24.3-2.7c-4.4-1.7-8.5-4-11.5-7.8c-1.8-2.3-2.9-4.8-2.9-7.7c0-3.2,0-6.4,0-9.6c0.2,0,0.4-0.1,0.4,0
			c1.2,2.5,3.1,4.6,4.2,7.1c-0.5,5.8,3,8.9,7.5,11.3c4.7,2.6,9.9,3.7,15.3,4.1c7.1,0.5,14.1-0.2,20.7-2.9c1.8-0.8,3.5-1.7,5.1-2.9
			c3.2-2.3,4.9-5.3,4.9-9.4c-0.1-19.3,0.1-38.7-0.1-58c-0.1-9.7-0.7-19.4-3.3-28.8c-1.5-5.4-3.7-10.6-6.3-15.5
			c-2.6-4.7-4.9-9.6-6.6-14.7c-0.6-3.4-2.7-5.3-5.9-6.1c-3.1-0.8-6.3-0.9-9.4,0c-3,0.9-5,2.7-5.6,5.9c-1.6,4.7-3.6,9.3-6.1,13.7
			c-5.1,9.1-8,18.9-9.2,29.2c-0.9,7.9-0.9,15.8-0.9,23.8c0,1.1,0.1,2.3-0.3,3.4c-0.7,0.9-1.2,0.2-1.6-0.3
			C394.4,437.3,393.1,435.5,393.1,433.2z"/>
		<path class="st14" d="M434.9,329.9c-3.9,5.3-14,5-18.4,1.6c-1.1-0.8-2.2-1-2.1-2.3c0-0.6,0.1-2,0.1-2.9c0-8.6,0-19.6,0-28.2
			c0.2,0,1.1,2,1.2,2.1c4.4,4.4,10.8,1.3,15.1,3.2c-2,0.3-3.5,0.9-5.2,0.8c-1.7-0.1-3.5,0-5.2-0.6c-1.5-0.5-2.9-1.2-4.2-2.2
			c-1.8-1.5-2.2-3.1-1.2-5.1c3.5-4.9,12.9-5.5,18.2-1.8c1.7,1.2,2,2.9,2,5.1c0.3,7.5,0.1,15,0.1,22.5
			C435.4,324.7,436,327.4,434.9,329.9z"/>
		<path class="st15" d="M397.1,486c-1.7-2.1-3.1-4.3-4.1-6.8c-0.2-2.6,0.3-5.2-0.6-7.8c-0.4-1.2,0.7-2.5,0.6-4
			c-0.3-3.6,0-7.3-0.2-10.9c-0.2-2.9,0.4-5.8,0.1-8.6c-0.4-3.5,0.1-7,0.1-10.4c0-1.4-1.4-2.8,0-4.3c1.1,2.3,2,4.7,4,6.4
			c1.8,0.9,3.5,1.9,4.6,3.7c1.9,2.8,2.1,5.8,0.6,8.8c-0.3,0.6-0.2,1.1,0.1,1.7c1.3,2.2,1.1,4.5,0.2,6.8c-0.4,0.9-0.6,1.6-0.1,2.6
			c1.2,2,1,4.2,0.1,6.3c-0.5,1.1-0.5,2,0.1,3.2c1,1.9,0.8,4-0.1,5.9c-0.5,1.1-0.5,2,0.1,3.2c1.2,2.2,0.6,5.2-1.2,7.1
			C399.2,489.2,398.1,487.6,397.1,486z"/>
		<path class="st14" d="M401.3,443.1c-1.3-1.3-3-2.1-4.2-3.5c0-5.9-0.2-11.8,0.1-17.7c0.6-14.3,3.3-28,10.8-40.5
			c2.3-3.9,3.8-8.2,5.5-12.4c0.7-0.2,0.9,0.4,1.3,0.8c1.9,2.5,4.6,3.6,7.7,3.7c2.2,0.1,4.4,0.2,6.5-0.4c1.8-0.5,3.3-1.4,4.6-2.8
			c0.5-0.5,0.8-1.3,1.8-1.1c1.8,5.3,4.2,10.3,6.9,15.3c3.9,7.2,6.5,14.7,7.7,22.8c2.9,19.9,1.5,39.9,1.8,59.9
			c0.1,6.7-0.1,13.4,0.1,20c0.1,4.2-1.8,7.1-5,9.4c-5.6,3.9-11.9,5.6-18.7,6c-6.9,0.5-13.7-0.3-20.2-2.7c-2.9-1.1-5.6-2.7-7.9-4.8
			c-2.7-2.4-3.2-5.5-2.9-8.9c1.4,1,2.4,2.3,4,2.9c0.6-0.1,1.2,0.2,1.7,0.5c11.3,6,23.2,6.3,35.4,3.5c2.1-0.5,2.8-1.6,2.8-3.7
			c-0.1-13.1,0-26.2,0-39.3c0-2.5-0.2-2.6-2.7-2c-11.1,2.7-22.1,2.4-32.8-2.1C404,445.2,402.3,444.7,401.3,443.1z"/>
		<path class="st16" d="M435.3,369.1c-4.1,5.5-9.8,5.6-15.7,4.5c-2.8-0.5-4.7-2.2-6.1-4.6c0.2-3.6,2.6-5.2,5.6-6.2
			c3.9-1.2,7.9-1.1,11.7,0.5C433.3,364.4,434.9,366.3,435.3,369.1z"/>
		<path class="st17" d="M401.3,443.1c5,2.5,10.2,4.4,15.8,5.2c7.6,1.1,15.1,0.7,22.4-1.5c1.8-0.5,2.3-0.2,2.2,1.7
			c-0.1,13.9-0.1,27.9,0,41.8c0,1.5-0.3,2.4-1.9,2.8c-11.6,3-23.1,2.9-34.4-1.8c-1.5-0.6-3-1.4-4.3-2.5c1.6-2.6,2.6-5.3,0.1-8
			c-0.5-0.5,0.1-1,0.3-1.4c1.2-2.6,2.1-5.2-0.3-7.7c-0.5-0.5,0.1-1,0.3-1.4c1.2-2.6,2.1-5.2-0.3-7.7c-0.5-0.5,0.1-1,0.3-1.4
			c1.2-2.6,2.1-5.2-0.3-7.7c-0.5-0.5,0.1-1,0.3-1.4c1.2-2.7,2.2-5.4-0.4-8C401,444.1,401.2,443.5,401.3,443.1z"/>
		<path class="st14" d="M434.9,329.9c-3.9,5.3-14,4.7-18.4,1.6c-1.1-0.8-2.2-1-2.1-2.3"/>
		<path class="st14" d="M434.9,330.1c-3.9,5.3-14,4.7-18.4,1.6c-1.1-0.8-2.2-1-2.1-2.3"/>
	</g>
</g>
<path class="st18" d="M438.6,315.9c0,2.6,0.6,5.3-0.5,7.9c0.9,2.5,0.7,5.2,0.8,7.8c0.2,6.9,0.9,13.7,2.1,20.5
	c1.6,9,5.4,17.1,9.6,25.1c4.8,9.1,7.3,18.9,8.4,29.2c1.5,13.6,0.7,27.2,0.9,40.9c0.1,11.1-0.2,22.3,0.1,33.4c0,1.4-0.1,2.6-0.3,3.8
	l118.7-114.7l-2.8-20.5l-137-51.4C438.7,303.9,438.6,309.9,438.6,315.9z"/>
</svg>
