<?xml version="1.0" encoding="utf-8"?>
<!-- Generator: Adobe Illustrator 19.0.0, SVG Export Plug-In . SVG Version: 6.00 Build 0)  -->
<svg version="1.1" id="DESIGNED_BY_FREEPIK" xmlns="http://www.w3.org/2000/svg" xmlns:xlink="http://www.w3.org/1999/xlink"
	 x="0px" y="0px" viewBox="0 0 765 540.9" style="enable-background:new 0 0 765 540.9;" xml:space="preserve">
<style type="text/css">
	.st0{fill:#007785;}
	.st1{enable-background:new    ;}
	.st2{clip-path:url(#SVGID_2_);}
	.st3{clip-path:url(#SVGID_4_);}
	.st4{fill:#D2D2D2;}
	.st5{clip-path:url(#SVGID_6_);}
	.st6{fill:#EA5642;}
	.st7{clip-path:url(#SVGID_8_);}
	.st8{fill:#4C4C4C;}
	.st9{fill:#00D4DA;}
	.st10{fill:#FFFFFF;}
	.st11{clip-path:url(#SVGID_10_);}
	.st12{fill:#C04935;}
	.st13{clip-path:url(#SVGID_12_);}
	.st14{clip-path:url(#SVGID_14_);}
	.st15{fill:#FA6248;}
	.st16{clip-path:url(#SVGID_16_);}
	.st17{fill:#E4E4E4;}
	.st18{fill:#C0C0C0;}
	.st19{fill:#C9C9C9;}
	.st20{clip-path:url(#SVGID_18_);}
	.st21{fill:#FFC101;}
	.st22{clip-path:url(#SVGID_20_);}
	.st23{clip-path:url(#SVGID_22_);}
	.st24{clip-path:url(#SVGID_24_);}
	.st25{fill:#009AAE;}
	.st26{fill:#E7E7E7;}
	.st27{fill:#E85B42;}
	.st28{clip-path:url(#SVGID_26_);}
</style>
<polygon class="st0" points="647.6,203.8 641.9,210.8 648.9,207.3 650.4,205.4 "/>
<g>
	<g>
		<g class="st1">
			<g>
				<defs>
					<polygon id="SVGID_1_" points="593.6,175.4 593.8,107.2 664.7,148.2 664.5,216.4 					"/>
				</defs>
				<clipPath id="SVGID_2_">
					<use xlink:href="#SVGID_1_"  style="overflow:visible;"/>
				</clipPath>
				<g class="st2">
					<g>
						<g>
							<g>
								<path class="st0" d="M661.9,146.5l-65.3-37.7c-1.6-0.9-2.8-0.2-2.8,1.6l-0.1,51.5c0,1.8,1.3,4,2.8,4.9l46.8,27l5.7,13.5
									l5.7-6.9l7,4.1c1.6,0.9,2.8,0.2,2.8-1.6l0.1-51.5C664.7,149.6,663.4,147.4,661.9,146.5"/>
							</g>
						</g>
					</g>
				</g>
			</g>
		</g>
	</g>
</g>
<g>
	<g>
		<g class="st1">
			<g>
				<defs>
					<polygon id="SVGID_3_" points="99.5,378.8 310.9,255.9 577,409.5 365.5,532.4 					"/>
				</defs>
				<clipPath id="SVGID_4_">
					<use xlink:href="#SVGID_3_"  style="overflow:visible;"/>
				</clipPath>
				<g class="st3">
					<g>
						<g>
							<g>
								<path class="st4" d="M566.3,403.4L321.6,262.1c-5.9-3.4-15.4-3.4-21.2,0L110.1,372.7c-5.8,3.4-5.8,8.9,0.1,12.3l244.7,141.3
									c5.9,3.4,15.4,3.4,21.2,0l190.3-110.6C572.2,412.3,572.2,406.8,566.3,403.4"/>
							</g>
						</g>
					</g>
				</g>
			</g>
		</g>
	</g>
</g>
<g>
	<g>
		<g class="st1">
			<g>
				<defs>
					<polygon id="SVGID_5_" points="116.5,226.6 116.8,120.2 163,146.8 162.7,253.3 					"/>
				</defs>
				<clipPath id="SVGID_6_">
					<use xlink:href="#SVGID_5_"  style="overflow:visible;"/>
				</clipPath>
				<g class="st5">
					<g>
						<g>
							<g>
								<path class="st6" d="M126.7,146.8l0-17.6l26.2,15.2l-0.1,17.6L126.7,146.8 M155.9,142.7l-2.8-1.6L126.8,126l-2.8-1.6l0,3.3
									l-0.1,17.6l-7.1-4.1l-0.2,85.6l46.1,26.6l0.2-85.6l-7.1-4.1l0-17.6L155.9,142.7"/>
							</g>
						</g>
					</g>
				</g>
			</g>
		</g>
	</g>
</g>
<g>
	<g>
		<g class="st1">
			<g>
				<defs>
					<polygon id="SVGID_7_" points="314.6,251.6 315.2,7.1 581.3,160.7 580.6,405.2 					"/>
				</defs>
				<clipPath id="SVGID_8_">
					<use xlink:href="#SVGID_7_"  style="overflow:visible;"/>
				</clipPath>
				<g class="st7">
					<g>
						<g>
							<g>
								<path class="st8" d="M326.6,247.5L327.2,25l242.1,139.8l-0.6,222.5L326.6,247.5 M570.6,154.5L325.9,13.2
									c-5.9-3.4-10.7-0.7-10.7,6.1l-0.6,220.1c0,6.8,4.7,15,10.6,18.4l244.8,141.3c5.9,3.4,10.7,0.7,10.7-6.1l0.6-220.1
									C581.3,166.2,576.5,157.9,570.6,154.5"/>
								<path class="st9" d="M332.8,240.5L333,159l73.2,42.3l-0.2,81.5L332.8,240.5 M410.6,285.4l0.2-81.5l73.2,42.3l-0.2,81.5
									L410.6,285.4 M488.7,330.5L489,249l73.2,42.3l-0.2,81.5L488.7,330.5 M333.1,148.8l0-8.2L562.2,273l0,8.2L333.1,148.8
									 M333.1,134.5l0-8.2l229.1,132.3l0,8.1L333.1,134.5 M333.2,117.1l0.2-81.5l152.5,88.1l-0.2,81.5L333.2,117.1 M492.8,209.3
									l0.2-81.5l69.5,40.1l-0.2,81.5L492.8,209.3 M569.3,164.8L327.2,25l-0.6,222.5l242.1,139.8L569.3,164.8"/>
								<polyline class="st10" points="485.9,123.7 333.4,35.6 333.2,117.1 485.7,205.2 485.9,123.7 								"/>
								<polyline class="st10" points="406.2,201.3 333,159 332.8,240.5 406,282.8 406.2,201.3 								"/>
								<polyline class="st10" points="484,246.1 410.8,203.9 410.6,285.4 483.7,327.7 484,246.1 								"/>
								<polyline class="st10" points="562.2,291.3 489,249 488.7,330.5 561.9,372.8 562.2,291.3 								"/>
								<polyline class="st10" points="562.5,167.9 493,127.8 492.8,209.3 562.3,249.4 562.5,167.9 								"/>
								<polyline class="st10" points="562.3,258.7 333.1,126.4 333.1,134.5 562.2,266.8 562.3,258.7 								"/>
								<polyline class="st10" points="562.2,273 333.1,140.7 333.1,148.8 562.2,281.1 562.2,273 								"/>
							</g>
						</g>
					</g>
				</g>
			</g>
		</g>
	</g>
</g>
<g>
	<g>
		<g class="st1">
			<g>
				<defs>
					<polygon id="SVGID_9_" points="146,263.2 145.8,177.6 163.5,167.4 163.7,253 					"/>
				</defs>
				<clipPath id="SVGID_10_">
					<use xlink:href="#SVGID_9_"  style="overflow:visible;"/>
				</clipPath>
				<g class="st11">
					<g>
						<g>
							<g>
								<polyline class="st12" points="163.5,167.4 145.8,177.6 146,263.2 163.7,253 163.5,167.4 								"/>
							</g>
						</g>
					</g>
				</g>
			</g>
		</g>
	</g>
</g>
<g>
	<g>
		<g class="st1">
			<g>
				<defs>
					<polygon id="SVGID_11_" points="100.4,236.6 100.1,151 117.9,140.8 118.1,226.4 					"/>
				</defs>
				<clipPath id="SVGID_12_">
					<use xlink:href="#SVGID_11_"  style="overflow:visible;"/>
				</clipPath>
				<g class="st13">
					<g>
						<g>
							<g>
								<polyline class="st12" points="117.9,140.8 100.1,151 100.4,236.6 118.1,226.4 117.9,140.8 								"/>
							</g>
						</g>
					</g>
				</g>
			</g>
		</g>
	</g>
</g>
<g>
	<g>
		<g class="st1">
			<g>
				<defs>
					<polygon id="SVGID_13_" points="100,236.6 100.3,130.2 146.5,156.8 146.2,263.2 					"/>
				</defs>
				<clipPath id="SVGID_14_">
					<use xlink:href="#SVGID_13_"  style="overflow:visible;"/>
				</clipPath>
				<g class="st14">
					<g>
						<g>
							<g>
								<path class="st15" d="M129.5,198.9l-1.3,7.8l5.4,9.2l-7.5-3.1l-3.4,5.9l-3.3-9.7l-7.5-5.6l5.4-2.9l-1.3-9.3l6.7,7.9
									L129.5,198.9 M110.2,156.8l0-17.6l26.2,15.2l-0.1,17.6L110.2,156.8 M139.4,152.7l-2.8-1.6L110.3,136l-2.8-1.6l0,3.3
									l-0.1,17.6l-7.1-4.1l-0.2,85.6l46.1,26.6l0.2-85.6l-7.1-4.1l0.1-17.6L139.4,152.7"/>
								<polyline class="st10" points="129.5,198.9 122.8,199.1 116.1,191.1 117.3,200.5 111.9,203.4 119.4,209 122.7,218.7 
									126.1,212.9 133.6,215.9 128.2,206.7 129.5,198.9 								"/>
							</g>
						</g>
					</g>
				</g>
			</g>
		</g>
	</g>
</g>
<g>
	<g>
		<g class="st1">
			<g>
				<defs>
					<polygon id="SVGID_15_" points="98.5,371.4 310,248.6 576,402.2 364.5,525 					"/>
				</defs>
				<clipPath id="SVGID_16_">
					<use xlink:href="#SVGID_15_"  style="overflow:visible;"/>
				</clipPath>
				<g class="st16">
					<g>
						<g>
							<g>
								<path class="st17" d="M212.7,408.7c-1.1-0.6-1.1-1.6,0-2.3l51.4-29.9c1.1-0.6,2.8-0.6,3.9,0l87.8,50.7
									c1.1,0.6,1.1,1.6,0,2.3l-51.4,29.9c-1.1,0.6-2.8,0.6-3.9,0L212.7,408.7 M217.3,314.3c-0.8-0.4-0.8-1.2,0-1.6l11.3-6.6
									c0.8-0.5,2-0.4,2.8,0l29.3,16.9c0.8,0.5,0.8,1.2,0,1.6l-11.3,6.6c-0.8,0.5-2,0.5-2.8,0L217.3,314.3 M255.1,336.2
									c-0.8-0.4-0.8-1.2,0-1.6l11.3-6.6c0.8-0.5,2-0.5,2.8,0l11.4,6.6c0.8,0.5,0.8,1.2,0,1.6l-11.3,6.6c-0.8,0.5-2,0.5-2.8,0
									L255.1,336.2 M273.1,346.6c-0.8-0.5-0.8-1.2,0-1.6l11.3-6.6c0.8-0.5,2-0.5,2.8,0l11.4,6.6c0.8,0.5,0.8,1.2,0,1.6l-11.3,6.6
									c-0.8,0.5-2,0.5-2.8,0L273.1,346.6 M291.1,356.9c-0.8-0.5-0.8-1.2,0-1.6l11.3-6.6c0.8-0.5,2-0.5,2.8,0l11.4,6.6
									c0.8,0.5,0.8,1.2,0,1.6l-11.3,6.6c-0.8,0.5-2,0.4-2.8,0L291.1,356.9 M309,367.3c-0.8-0.5-0.8-1.2,0-1.6l11.3-6.6
									c0.8-0.5,2-0.5,2.8,0l63.4,36.6c0.8,0.4,0.8,1.2,0,1.6l-11.3,6.6c-0.8,0.5-2,0.5-2.8,0L309,367.3 M379,407.7
									c-0.8-0.5-0.8-1.2,0-1.6l11.3-6.6c0.8-0.5,2-0.5,2.8,0l11.4,6.6c0.8,0.4,0.8,1.2,0,1.6l-11.3,6.6c-0.8,0.5-2,0.4-2.8,0
									L379,407.7 M397,418.1c-0.8-0.5-0.8-1.2,0-1.6l11.3-6.6c0.8-0.5,2-0.4,2.8,0l11.3,6.5c0.8,0.5,0.8,1.2,0,1.6l-11.3,6.6
									c-0.8,0.5-2,0.5-2.8,0L397,418.1 M415,428.5c-0.8-0.4-0.8-1.2,0-1.6l11.3-6.6c0.8-0.5,2-0.5,2.8,0l11.4,6.6
									c0.8,0.5,0.8,1.2,0,1.6l-11.3,6.6c-0.8,0.5-2,0.5-2.8,0L415,428.5 M432.9,438.9c-0.8-0.5-0.8-1.2,0-1.6l11.3-6.6
									c0.8-0.5,2-0.4,2.8,0l29.3,16.9c0.8,0.5,0.8,1.2,0,1.6l-11.3,6.6c-0.8,0.5-2,0.5-2.8,0L432.9,438.9 M237.4,302.6
									c-0.8-0.5-0.8-1.2,0-1.6l11.3-6.6c0.8-0.5,2-0.4,2.8,0l29.3,16.9c0.8,0.5,0.8,1.2,0,1.6l-11.3,6.6c-0.8,0.5-2,0.5-2.8,0
									L237.4,302.6 M275.3,324.5c-0.8-0.4-0.8-1.2,0-1.6l11.3-6.6c0.8-0.5,2-0.5,2.8,0l11.4,6.6c0.8,0.5,0.8,1.2,0,1.6l-11.3,6.6
									c-0.8,0.5-2,0.5-2.8,0L275.3,324.5 M293.2,334.9c-0.8-0.5-0.8-1.2,0-1.6l11.3-6.6c0.8-0.5,2-0.5,2.8,0l11.4,6.6
									c0.8,0.5,0.8,1.2,0,1.6l-11.3,6.6c-0.8,0.5-2,0.5-2.8,0L293.2,334.9 M311.2,345.2c-0.8-0.5-0.8-1.2,0-1.6l11.3-6.6
									c0.8-0.5,2-0.5,2.8,0l11.4,6.6c0.8,0.5,0.8,1.2,0,1.6l-11.3,6.6c-0.8,0.5-2,0.4-2.8,0L311.2,345.2 M329.2,355.6
									c-0.8-0.5-0.8-1.2,0-1.6l11.3-6.6c0.8-0.5,2-0.5,2.8,0l11.4,6.6c0.8,0.4,0.8,1.2,0,1.6l-11.3,6.6c-0.8,0.5-2,0.4-2.8,0
									L329.2,355.6 M346,365.3c-0.8-0.5-0.8-1.2,0-1.6l11.3-6.6c0.8-0.4,2-0.4,2.8,0l11.4,6.6c0.8,0.5,0.8,1.2,0,1.6l-11.3,6.6
									c-0.8,0.5-2,0.5-2.8,0L346,365.3 M363.2,375.3c-0.8-0.5-0.8-1.2,0-1.6l11.3-6.6c0.8-0.5,2-0.5,2.8,0l11.4,6.6
									c0.8,0.5,0.8,1.2,0,1.6l-11.3,6.6c-0.8,0.5-2,0.5-2.8,0L363.2,375.3 M381.2,385.6c-0.8-0.5-0.8-1.2,0-1.6l11.3-6.6
									c0.8-0.5,2-0.5,2.8,0l11.4,6.6c0.8,0.4,0.8,1.2,0,1.6l-11.3,6.6c-0.8,0.5-2,0.5-2.8,0L381.2,385.6 M399.2,396
									c-0.8-0.5-0.8-1.2,0-1.6l11.3-6.6c0.8-0.4,2-0.5,2.8,0l11.4,6.6c0.8,0.4,0.8,1.2,0,1.6l-11.3,6.6c-0.8,0.5-2,0.5-2.8,0
									L399.2,396 M417.2,406.4c-0.8-0.5-0.8-1.2,0-1.6l11.3-6.6c0.8-0.5,2-0.4,2.8,0l11.3,6.5c0.8,0.5,0.8,1.2,0,1.6l-11.3,6.6
									c-0.8,0.5-2,0.4-2.8,0L417.2,406.4 M435.1,416.8c-0.8-0.4-0.8-1.2,0-1.6l11.3-6.6c0.8-0.5,2-0.5,2.8,0l11.4,6.6
									c0.8,0.5,0.8,1.2,0,1.6l-11.3,6.6c-0.8,0.5-2,0.5-2.8,0L435.1,416.8 M453.1,427.1c-0.8-0.5-0.8-1.2,0-1.6l11.3-6.6
									c0.8-0.5,2-0.4,2.8,0l29.3,16.9c0.8,0.5,0.8,1.2,0,1.6l-11.3,6.6c-0.8,0.5-2,0.5-2.8,0L453.1,427.1 M256.4,291.6
									c-0.8-0.4-0.8-1.2,0-1.6l11.3-6.6c0.8-0.5,2-0.4,2.8,0l29.3,16.9c0.8,0.5,0.8,1.2,0,1.6l-11.3,6.6c-0.8,0.5-2,0.5-2.8,0
									L256.4,291.6 M294.2,313.5c-0.8-0.4-0.8-1.2,0-1.6l11.3-6.6c0.8-0.5,2-0.4,2.8,0l11.4,6.6c0.8,0.5,0.8,1.2,0,1.6l-11.3,6.6
									c-0.8,0.5-2,0.5-2.8,0L294.2,313.5 M312.2,323.8c-0.8-0.5-0.8-1.2,0-1.6l11.3-6.6c0.8-0.5,2-0.5,2.8,0l11.4,6.6
									c0.8,0.5,0.8,1.2,0,1.6l-11.3,6.6c-0.8,0.4-2,0.5-2.8,0L312.2,323.8 M330.1,334.2c-0.8-0.5-0.8-1.2,0-1.6l11.3-6.6
									c0.8-0.5,2-0.5,2.8,0l11.4,6.6c0.8,0.5,0.8,1.2,0,1.6l-11.3,6.6c-0.8,0.5-2,0.5-2.8,0L330.1,334.2 M348.1,344.6
									c-0.8-0.5-0.8-1.2,0-1.6l11.3-6.6c0.8-0.5,2-0.5,2.8,0l11.4,6.6c0.8,0.4,0.8,1.2,0,1.6l-11.3,6.6c-0.8,0.5-2,0.5-2.8,0
									L348.1,344.6 M364.9,354.3c-0.8-0.4-0.8-1.2,0-1.6l11.3-6.6c0.8-0.5,2-0.4,2.8,0l11.4,6.6c0.8,0.5,0.8,1.2,0,1.6l-11.3,6.6
									c-0.8,0.4-2,0.5-2.8,0L364.9,354.3 M382.2,364.3c-0.8-0.5-0.8-1.2,0-1.6l11.3-6.6c0.8-0.5,2-0.5,2.8,0l11.4,6.6
									c0.8,0.5,0.8,1.2,0,1.6l-11.3,6.6c-0.8,0.5-2,0.5-2.8,0L382.2,364.3 M400.1,374.6c-0.8-0.5-0.8-1.2,0-1.6l11.3-6.6
									c0.8-0.5,2-0.5,2.8,0l11.4,6.6c0.8,0.4,0.8,1.2,0,1.6l-11.3,6.6c-0.8,0.4-2,0.4-2.8,0L400.1,374.6 M418.1,385
									c-0.8-0.5-0.8-1.2,0-1.6l11.3-6.6c0.8-0.5,2-0.5,2.8,0l11.4,6.6c0.8,0.5,0.8,1.2,0,1.6l-11.3,6.6c-0.8,0.4-2,0.4-2.8,0
									L418.1,385 M436.1,395.4c-0.8-0.5-0.8-1.2,0-1.6l11.3-6.6c0.8-0.5,2-0.5,2.8,0l11.3,6.5c0.8,0.5,0.8,1.2,0,1.6l-11.3,6.6
									c-0.8,0.5-2,0.5-2.8,0L436.1,395.4 M454.1,405.8c-0.8-0.4-0.8-1.2,0-1.6l11.3-6.6c0.8-0.5,2-0.4,2.8,0l11.4,6.6
									c0.8,0.5,0.8,1.2,0,1.6l-11.3,6.6c-0.8,0.5-2,0.5-2.8,0L454.1,405.8 M472,416.1c-0.8-0.5-0.8-1.2,0-1.6l11.3-6.6
									c0.8-0.5,2-0.4,2.8,0l29.3,16.9c0.8,0.5,0.8,1.2,0,1.6l-11.3,6.6c-0.8,0.5-2,0.5-2.8,0L472,416.1 M275.9,280.3
									c-0.8-0.4-0.8-1.2,0-1.6l11.3-6.6c0.8-0.5,2-0.4,2.8,0l11.4,6.6c0.8,0.5,0.8,1.2,0,1.6l-11.3,6.6c-0.8,0.5-2,0.5-2.8,0
									L275.9,280.3 M293.8,290.7c-0.8-0.5-0.8-1.2,0-1.6l11.3-6.6c0.8-0.5,2-0.5,2.8,0l11.4,6.6c0.8,0.5,0.8,1.2,0,1.6l-11.3,6.6
									c-0.8,0.4-2,0.5-2.8,0L293.8,290.7 M313.7,302.1c-0.8-0.4-0.8-1.2,0-1.6l11.3-6.6c0.8-0.5,2-0.4,2.8,0l11.4,6.6
									c0.8,0.5,0.8,1.2,0,1.6l-11.3,6.6c-0.8,0.4-2,0.5-2.8,0L313.7,302.1 M331.7,312.5c-0.8-0.5-0.8-1.2,0-1.6l11.3-6.6
									c0.8-0.5,2-0.5,2.8,0l11.4,6.6c0.8,0.5,0.8,1.2,0,1.6l-11.3,6.6c-0.8,0.5-2,0.5-2.8,0L331.7,312.5 M349.6,322.9
									c-0.8-0.5-0.8-1.2,0-1.6l11.3-6.6c0.8-0.5,2-0.5,2.8,0l11.4,6.6c0.8,0.4,0.8,1.2,0,1.6l-11.3,6.6c-0.8,0.4-2,0.5-2.8,0
									L349.6,322.9 M367.6,333.3c-0.8-0.5-0.8-1.2,0-1.6l11.3-6.6c0.8-0.5,2-0.5,2.8,0l11.4,6.6c0.8,0.5,0.8,1.2,0,1.6l-11.3,6.6
									c-0.8,0.4-2,0.4-2.8,0L367.6,333.3 M384.4,343c-0.8-0.5-0.8-1.2,0-1.6l11.3-6.6c0.8-0.5,2-0.5,2.8,0l11.4,6.6
									c0.8,0.5,0.8,1.2,0,1.6l-11.3,6.6c-0.8,0.4-2,0.5-2.8,0L384.4,343 M401.7,352.9c-0.8-0.5-0.8-1.2,0-1.6l11.3-6.6
									c0.8-0.5,2-0.5,2.8,0l11.4,6.6c0.8,0.5,0.8,1.2,0,1.6l-11.3,6.6c-0.8,0.4-2,0.5-2.8,0L401.7,352.9 M419.6,363.3
									c-0.8-0.5-0.8-1.2,0-1.6l11.3-6.6c0.8-0.5,2-0.5,2.8,0l11.4,6.6c0.8,0.5,0.8,1.2,0,1.6l-11.3,6.6c-0.8,0.5-2,0.5-2.8,0
									L419.6,363.3 M437.6,373.7c-0.8-0.5-0.8-1.2,0-1.6l11.3-6.6c0.8-0.5,2-0.5,2.8,0l11.4,6.6c0.8,0.4,0.8,1.2,0,1.6l-11.3,6.6
									c-0.8,0.5-2,0.5-2.8,0L437.6,373.7 M455.6,384.1c-0.8-0.5-0.8-1.2,0-1.6l11.3-6.6c0.8-0.5,2-0.4,2.8,0l11.3,6.6
									c0.8,0.5,0.8,1.2,0,1.6l-11.3,6.6c-0.8,0.4-2,0.4-2.8,0L455.6,384.1 M473.6,394.4c-0.8-0.4-0.8-1.2,0-1.6l11.3-6.6
									c0.8-0.5,2-0.4,2.8,0l11.4,6.6c0.8,0.5,0.8,1.2,0,1.6l-11.3,6.6c-0.8,0.4-2,0.5-2.8,0L473.6,394.4 M491.5,404.8
									c-0.8-0.4-0.8-1.2,0-1.6l11.3-6.6c0.8-0.5,2-0.5,2.8,0l11.4,6.6c0.8,0.5,0.8,1.2,0,1.6l-11.3,6.6c-0.8,0.5-2,0.5-2.8,0
									L491.5,404.8 M509.5,415.2c-0.8-0.5-0.8-1.2,0-1.6l11.3-6.6c0.8-0.5,2-0.5,2.8,0l11.4,6.6c0.8,0.5,0.8,1.2,0,1.6l-11.3,6.6
									c-0.8,0.4-2,0.5-2.8,0L509.5,415.2 M301,265.7c-0.8-0.4-0.8-1.2,0-1.6l4.2-2.5c0.8-0.5,2-0.5,2.8,0l245.5,141.7
									c0.8,0.5,0.8,1.2,0,1.6l-4.2,2.5c-0.8,0.5-2,0.5-2.8,0L301,265.7 M565.3,396L320.6,254.7c-5.9-3.4-15.4-3.4-21.2,0
									L109.1,365.3c-5.8,3.4-5.8,8.9,0.1,12.3l244.7,141.3c5.9,3.4,15.4,3.4,21.2,0l190.3-110.6
									C571.2,404.9,571.2,399.4,565.3,396"/>
								<path class="st18" d="M553.5,403.3L308,261.6c-0.8-0.5-2-0.5-2.8,0l-4.2,2.5c-0.8,0.5-0.8,1.2,0,1.6l245.5,141.7
									c0.8,0.5,2.1,0.5,2.8,0l4.2-2.5C554.2,404.5,554.2,403.8,553.5,403.3"/>
								<path class="st8" d="M301.3,278.7l-11.4-6.6c-0.8-0.4-2-0.5-2.8,0l-11.3,6.6c-0.8,0.4-0.8,1.2,0,1.6l11.4,6.6
									c0.8,0.5,2.1,0.5,2.8,0l11.3-6.6C302.1,279.8,302.1,279.1,301.3,278.7"/>
								<path class="st8" d="M319.3,289l-11.4-6.6c-0.8-0.5-2-0.5-2.8,0l-11.3,6.6c-0.8,0.4-0.8,1.2,0,1.6l11.4,6.6
									c0.8,0.5,2.1,0.4,2.8,0l11.3-6.6C320.1,290.2,320.1,289.5,319.3,289"/>
								<path class="st8" d="M339.1,300.5l-11.4-6.6c-0.8-0.4-2-0.5-2.8,0l-11.3,6.6c-0.8,0.5-0.8,1.2,0,1.6l11.4,6.6
									c0.8,0.5,2.1,0.4,2.8,0l11.3-6.6C339.9,301.7,339.9,301,339.1,300.5"/>
								<path class="st8" d="M357.1,310.9l-11.4-6.6c-0.8-0.5-2-0.5-2.8,0l-11.3,6.6c-0.8,0.4-0.8,1.2,0,1.6l11.4,6.6
									c0.8,0.5,2.1,0.5,2.8,0l11.3-6.6C357.9,312.1,357.9,311.3,357.1,310.9"/>
								<path class="st8" d="M375.1,321.3l-11.4-6.6c-0.8-0.5-2-0.5-2.8,0l-11.3,6.6c-0.8,0.4-0.8,1.2,0,1.6l11.4,6.6
									c0.8,0.5,2.1,0.4,2.8,0l11.3-6.6C375.9,322.4,375.9,321.7,375.1,321.3"/>
								<path class="st8" d="M393.1,331.6l-11.4-6.6c-0.8-0.5-2-0.5-2.8,0l-11.3,6.6c-0.8,0.4-0.8,1.2,0,1.6l11.4,6.6
									c0.8,0.4,2.1,0.4,2.8,0l11.3-6.6C393.9,332.8,393.8,332.1,393.1,331.6"/>
								<path class="st8" d="M409.9,341.3l-11.4-6.6c-0.8-0.5-2-0.5-2.8,0l-11.3,6.6c-0.8,0.4-0.8,1.2,0,1.6l11.4,6.6
									c0.8,0.5,2.1,0.4,2.8,0l11.3-6.6C410.6,342.5,410.6,341.8,409.9,341.3"/>
								<path class="st8" d="M427.1,351.3l-11.4-6.6c-0.8-0.5-2-0.5-2.8,0l-11.3,6.6c-0.8,0.4-0.8,1.2,0,1.6l11.4,6.6
									c0.8,0.5,2.1,0.4,2.8,0l11.3-6.6C427.9,352.5,427.9,351.7,427.1,351.3"/>
								<path class="st8" d="M445.1,361.7l-11.4-6.6c-0.8-0.5-2-0.5-2.8,0l-11.3,6.6c-0.8,0.5-0.8,1.2,0,1.6l11.4,6.6
									c0.8,0.4,2.1,0.4,2.8,0l11.3-6.6C445.9,362.8,445.9,362.1,445.1,361.7"/>
								<path class="st8" d="M463.1,372l-11.4-6.6c-0.8-0.5-2-0.5-2.8,0l-11.3,6.6c-0.8,0.4-0.8,1.2,0,1.6l11.4,6.6
									c0.8,0.5,2.1,0.5,2.8,0l11.3-6.6C463.9,373.2,463.8,372.5,463.1,372"/>
								<path class="st8" d="M481,382.4l-11.3-6.6c-0.8-0.5-2.1-0.5-2.8,0l-11.3,6.6c-0.8,0.4-0.8,1.2,0,1.6l11.3,6.5
									c0.8,0.5,2.1,0.5,2.8,0l11.3-6.6C481.8,383.6,481.8,382.9,481,382.4"/>
								<path class="st8" d="M499,392.8l-11.4-6.6c-0.8-0.4-2-0.5-2.8,0l-11.3,6.6c-0.8,0.5-0.8,1.2,0,1.6l11.4,6.6
									c0.8,0.5,2.1,0.4,2.8,0l11.3-6.6C499.8,394,499.8,393.2,499,392.8"/>
								<path class="st8" d="M517,403.2l-11.4-6.6c-0.8-0.5-2-0.5-2.8,0l-11.3,6.6c-0.8,0.4-0.8,1.2,0,1.6l11.4,6.6
									c0.8,0.5,2.1,0.5,2.8,0l11.3-6.6C517.8,404.4,517.8,403.6,517,403.2"/>
								<path class="st8" d="M534.9,413.5l-11.4-6.6c-0.8-0.5-2-0.5-2.8,0l-11.3,6.6c-0.8,0.4-0.8,1.2,0,1.6l11.4,6.6
									c0.8,0.5,2.1,0.4,2.8,0l11.3-6.6C535.7,414.7,535.7,414,534.9,413.5"/>
								<path class="st8" d="M319.7,311.8l-11.4-6.6c-0.8-0.4-2-0.5-2.8,0l-11.3,6.6c-0.8,0.4-0.8,1.2,0,1.6l11.4,6.6
									c0.8,0.5,2.1,0.5,2.8,0l11.3-6.6C320.4,313,320.4,312.3,319.7,311.8"/>
								<path class="st8" d="M337.6,322.2l-11.4-6.6c-0.8-0.5-2-0.5-2.8,0l-11.3,6.6c-0.8,0.4-0.8,1.2,0,1.6l11.4,6.6
									c0.8,0.5,2.1,0.4,2.8,0l11.3-6.6C338.4,323.4,338.4,322.7,337.6,322.2"/>
								<path class="st8" d="M355.6,332.6l-11.4-6.6c-0.8-0.5-2-0.5-2.8,0l-11.3,6.6c-0.8,0.5-0.8,1.2,0,1.6l11.4,6.6
									c0.8,0.5,2.1,0.5,2.8,0l11.3-6.6C356.4,333.8,356.4,333,355.6,332.6"/>
								<path class="st8" d="M373.6,343l-11.4-6.6c-0.8-0.5-2-0.5-2.8,0l-11.3,6.6c-0.8,0.4-0.8,1.2,0,1.6l11.4,6.6
									c0.8,0.5,2.1,0.5,2.8,0l11.3-6.6C374.4,344.1,374.3,343.4,373.6,343"/>
								<path class="st8" d="M390.4,352.7l-11.4-6.6c-0.8-0.4-2-0.5-2.8,0l-11.3,6.6c-0.8,0.5-0.8,1.2,0,1.6l11.4,6.6
									c0.8,0.5,2.1,0.4,2.8,0l11.3-6.6C391.1,353.8,391.1,353.1,390.4,352.7"/>
								<path class="st8" d="M407.6,362.6l-11.4-6.6c-0.8-0.5-2-0.5-2.8,0l-11.3,6.6c-0.8,0.4-0.8,1.2,0,1.6l11.4,6.6
									c0.8,0.5,2.1,0.5,2.8,0l11.3-6.6C408.4,363.8,408.4,363.1,407.6,362.6"/>
								<path class="st8" d="M425.6,373l-11.4-6.6c-0.8-0.5-2-0.5-2.8,0l-11.3,6.6c-0.8,0.4-0.8,1.2,0,1.6l11.4,6.6
									c0.8,0.4,2.1,0.4,2.8,0l11.3-6.6C426.4,374.2,426.4,373.4,425.6,373"/>
								<path class="st8" d="M443.6,383.4l-11.4-6.6c-0.8-0.5-2-0.5-2.8,0l-11.3,6.6c-0.8,0.5-0.8,1.2,0,1.6l11.4,6.6
									c0.8,0.4,2.1,0.4,2.8,0l11.3-6.6C444.4,384.6,444.3,383.8,443.6,383.4"/>
								<path class="st8" d="M461.5,393.7l-11.3-6.5c-0.8-0.5-2.1-0.5-2.8,0l-11.3,6.6c-0.8,0.5-0.8,1.2,0,1.6l11.3,6.6
									c0.8,0.5,2.1,0.5,2.8,0l11.3-6.6C462.3,394.9,462.3,394.2,461.5,393.7"/>
								<path class="st8" d="M479.5,404.1l-11.4-6.6c-0.8-0.4-2-0.5-2.8,0l-11.3,6.6c-0.8,0.4-0.8,1.2,0,1.6l11.4,6.6
									c0.8,0.5,2.1,0.5,2.8,0l11.3-6.6C480.3,405.3,480.3,404.6,479.5,404.1"/>
								<path class="st8" d="M299.8,300.4l-29.3-16.9c-0.8-0.4-2-0.5-2.8,0l-11.3,6.6c-0.8,0.5-0.8,1.2,0,1.6l29.3,16.9
									c0.8,0.5,2.1,0.5,2.8,0l11.3-6.6C300.6,301.5,300.6,300.8,299.8,300.4"/>
								<path class="st8" d="M515.4,424.9l-29.3-16.9c-0.8-0.4-2-0.5-2.8,0l-11.3,6.6c-0.8,0.4-0.8,1.2,0,1.6l29.3,16.9
									c0.8,0.5,2.1,0.4,2.8,0l11.3-6.6C516.2,426.1,516.2,425.3,515.4,424.9"/>
								<path class="st8" d="M300.7,322.8l-11.4-6.6c-0.8-0.5-2.1-0.5-2.8,0l-11.3,6.6c-0.8,0.5-0.8,1.2,0,1.6l11.4,6.6
									c0.8,0.5,2,0.5,2.8,0l11.3-6.6C301.5,324,301.5,323.3,300.7,322.8"/>
								<path class="st8" d="M318.7,333.2l-11.4-6.6c-0.8-0.5-2.1-0.4-2.8,0l-11.3,6.6c-0.8,0.5-0.8,1.2,0,1.6l11.4,6.6
									c0.8,0.5,2,0.5,2.8,0l11.3-6.6C319.5,334.4,319.5,333.7,318.7,333.2"/>
								<path class="st8" d="M336.7,343.6l-11.4-6.6c-0.8-0.5-2.1-0.5-2.8,0l-11.3,6.6c-0.8,0.5-0.8,1.2,0,1.6l11.4,6.6
									c0.8,0.4,2,0.5,2.8,0l11.3-6.6C337.4,344.8,337.4,344,336.7,343.6"/>
								<path class="st8" d="M354.6,354l-11.4-6.6c-0.8-0.5-2.1-0.5-2.8,0l-11.3,6.6c-0.8,0.5-0.8,1.2,0,1.6l11.4,6.6
									c0.8,0.4,2,0.5,2.8,0l11.3-6.6C355.4,355.2,355.4,354.4,354.6,354"/>
								<path class="st8" d="M371.4,363.7l-11.4-6.6c-0.8-0.4-2.1-0.4-2.8,0l-11.3,6.6c-0.8,0.5-0.8,1.2,0,1.6l11.4,6.6
									c0.8,0.5,2,0.5,2.8,0l11.3-6.6C372.2,364.8,372.2,364.1,371.4,363.7"/>
								<path class="st8" d="M388.7,373.6l-11.4-6.6c-0.8-0.5-2.1-0.5-2.8,0l-11.3,6.6c-0.8,0.5-0.8,1.2,0,1.6l11.4,6.6
									c0.8,0.5,2,0.5,2.8,0l11.3-6.6C389.5,374.8,389.5,374.1,388.7,373.6"/>
								<path class="st8" d="M406.7,384l-11.4-6.6c-0.8-0.5-2.1-0.4-2.8,0l-11.3,6.6c-0.8,0.5-0.8,1.2,0,1.6l11.4,6.6
									c0.8,0.4,2,0.5,2.8,0l11.3-6.6C407.4,385.2,407.4,384.5,406.7,384"/>
								<path class="st8" d="M424.6,394.4l-11.4-6.6c-0.8-0.5-2.1-0.4-2.8,0l-11.3,6.6c-0.8,0.5-0.8,1.2,0,1.6l11.4,6.6
									c0.8,0.5,2,0.5,2.8,0l11.3-6.6C425.4,395.6,425.4,394.8,424.6,394.4"/>
								<path class="st8" d="M442.6,404.8l-11.3-6.5c-0.8-0.5-2.1-0.5-2.8,0l-11.3,6.6c-0.8,0.5-0.8,1.2,0,1.6l11.3,6.5
									c0.8,0.5,2.1,0.5,2.8,0l11.3-6.6C443.4,405.9,443.4,405.2,442.6,404.8"/>
								<path class="st8" d="M460.6,415.1l-11.4-6.6c-0.8-0.5-2.1-0.5-2.8,0l-11.3,6.6c-0.8,0.5-0.8,1.2,0,1.6l11.4,6.6
									c0.8,0.5,2,0.5,2.8,0l11.3-6.6C461.3,416.3,461.3,415.6,460.6,415.1"/>
								<path class="st8" d="M280.8,311.4l-29.3-16.9c-0.8-0.4-2.1-0.5-2.8,0l-11.3,6.6c-0.8,0.5-0.8,1.2,0,1.6l29.3,16.9
									c0.8,0.5,2,0.5,2.8,0l11.3-6.6C281.6,312.6,281.6,311.8,280.8,311.4"/>
								<path class="st8" d="M496.5,435.9L467.2,419c-0.8-0.4-2.1-0.5-2.8,0l-11.3,6.6c-0.8,0.5-0.8,1.2,0,1.6l29.3,16.9
									c0.8,0.5,2,0.5,2.8,0l11.3-6.6C497.3,437.1,497.3,436.3,496.5,435.9"/>
								<path class="st8" d="M280.6,334.6l-11.4-6.6c-0.8-0.5-2-0.5-2.8,0l-11.3,6.6c-0.8,0.5-0.8,1.2,0,1.6l11.4,6.6
									c0.8,0.5,2,0.5,2.8,0l11.3-6.6C281.3,335.7,281.3,335,280.6,334.6"/>
								<path class="st8" d="M298.5,344.9l-11.4-6.6c-0.8-0.5-2-0.5-2.8,0l-11.3,6.6c-0.8,0.5-0.8,1.2,0,1.6l11.4,6.6
									c0.8,0.5,2,0.5,2.8,0l11.3-6.6C299.3,346.1,299.3,345.4,298.5,344.9"/>
								<path class="st8" d="M316.5,355.3l-11.4-6.6c-0.8-0.5-2-0.5-2.8,0l-11.3,6.6c-0.8,0.5-0.8,1.2,0,1.6l11.4,6.6
									c0.8,0.4,2,0.5,2.8,0l11.3-6.6C317.3,356.5,317.3,355.8,316.5,355.3"/>
								<path class="st8" d="M404.5,406.1l-11.4-6.6c-0.8-0.5-2-0.5-2.8,0l-11.3,6.6c-0.8,0.5-0.8,1.2,0,1.6l11.4,6.6
									c0.8,0.4,2,0.5,2.8,0l11.3-6.6C405.3,407.3,405.2,406.5,404.5,406.1"/>
								<path class="st8" d="M422.4,416.5l-11.3-6.5c-0.8-0.5-2.1-0.5-2.8,0l-11.3,6.6c-0.8,0.5-0.8,1.2,0,1.6l11.3,6.6
									c0.8,0.5,2.1,0.5,2.8,0l11.3-6.6C423.2,417.7,423.2,416.9,422.4,416.5"/>
								<path class="st8" d="M440.4,426.8l-11.4-6.6c-0.8-0.5-2-0.5-2.8,0l-11.3,6.6c-0.8,0.5-0.8,1.2,0,1.6l11.4,6.6
									c0.8,0.5,2,0.5,2.8,0l11.3-6.6C441.2,428,441.2,427.3,440.4,426.8"/>
								<path class="st8" d="M260.7,323.1l-29.3-16.9c-0.8-0.4-2-0.5-2.8,0l-11.3,6.6c-0.8,0.5-0.8,1.2,0,1.6l29.3,16.9
									c0.8,0.5,2,0.5,2.8,0l11.3-6.6C261.5,324.3,261.5,323.5,260.7,323.1"/>
								<path class="st8" d="M476.4,447.6L447,430.7c-0.8-0.4-2-0.5-2.8,0l-11.3,6.6c-0.8,0.5-0.8,1.2,0,1.6l29.3,16.9
									c0.8,0.5,2,0.5,2.8,0l11.3-6.6C477.1,448.8,477.1,448.1,476.4,447.6"/>
								<path class="st8" d="M386.5,395.7l-63.4-36.6c-0.8-0.5-2-0.5-2.8,0l-11.3,6.6c-0.8,0.5-0.8,1.2,0,1.6l63.4,36.6
									c0.8,0.5,2,0.5,2.8,0l11.3-6.6C387.3,396.9,387.3,396.2,386.5,395.7"/>
								<path class="st19" d="M355.8,427.2L268,376.5c-1.1-0.6-2.8-0.6-3.9,0l-51.4,29.9c-1.1,0.6-1.1,1.6,0,2.3l87.8,50.7
									c1.1,0.6,2.8,0.6,3.9,0l51.4-29.9C356.9,428.9,356.9,427.8,355.8,427.2"/>
							</g>
						</g>
					</g>
				</g>
			</g>
		</g>
	</g>
</g>
<g>
	<g>
		<g class="st1">
			<g>
				<defs>
					<polygon id="SVGID_17_" points="607,298.7 607,282.6 621.1,290.7 621,306.8 					"/>
				</defs>
				<clipPath id="SVGID_18_">
					<use xlink:href="#SVGID_17_"  style="overflow:visible;"/>
				</clipPath>
				<g class="st20">
					<g>
						<g>
							<g>
								<path class="st21" d="M614,286.6c-1.2-0.7-2.1-0.1-2.1,1.2l0,3.2l-2.8-1.6c-1.2-0.7-2.1-0.1-2.1,1.2c0,1.3,0.9,3,2.1,3.6
									l2.8,1.6l0,3.2c0,1.3,0.9,3,2.1,3.6c1.2,0.7,2.1,0.1,2.1-1.2l0-3.2l2.8,1.6c1.2,0.7,2.1,0.1,2.1-1.2c0-1.3-0.9-3-2.1-3.6
									l-2.8-1.6l0-3.2C616.2,288.9,615.2,287.3,614,286.6"/>
							</g>
						</g>
					</g>
				</g>
			</g>
		</g>
	</g>
</g>
<g>
	<g>
		<g class="st1">
			<g>
				<defs>
					<polygon id="SVGID_19_" points="671.2,264.7 671.3,248.6 685.3,256.7 685.3,272.8 					"/>
				</defs>
				<clipPath id="SVGID_20_">
					<use xlink:href="#SVGID_19_"  style="overflow:visible;"/>
				</clipPath>
				<g class="st22">
					<g>
						<g>
							<g>
								<path class="st21" d="M678.3,252.6c-1.2-0.7-2.1-0.1-2.1,1.2l0,3.2l-2.8-1.6c-1.2-0.7-2.1-0.1-2.1,1.2c0,1.3,0.9,3,2.1,3.6
									l2.8,1.6l0,3.2c0,1.3,0.9,3,2.1,3.6c1.2,0.7,2.1,0.1,2.1-1.2l0-3.2l2.8,1.6c1.2,0.7,2.1,0.1,2.1-1.2c0-1.3-0.9-3-2.1-3.6
									l-2.8-1.6l0-3.2C680.4,254.9,679.5,253.3,678.3,252.6"/>
							</g>
						</g>
					</g>
				</g>
			</g>
		</g>
	</g>
</g>
<g>
	<g>
		<g class="st1">
			<g>
				<defs>
					<polygon id="SVGID_21_" points="661.3,334.5 661.4,318.4 675.4,326.5 675.4,342.6 					"/>
				</defs>
				<clipPath id="SVGID_22_">
					<use xlink:href="#SVGID_21_"  style="overflow:visible;"/>
				</clipPath>
				<g class="st23">
					<g>
						<g>
							<g>
								<path class="st21" d="M668.4,322.4c-1.2-0.7-2.1-0.1-2.1,1.2l0,3.2l-2.8-1.6c-1.2-0.7-2.1-0.1-2.1,1.2c0,1.3,0.9,3,2.1,3.6
									l2.8,1.6l0,3.2c0,1.3,0.9,3,2.1,3.6c1.2,0.7,2.1,0.1,2.1-1.2l0-3.2l2.8,1.6c1.2,0.7,2.1,0.1,2.1-1.2c0-1.3-0.9-3-2.1-3.6
									l-2.8-1.6l0-3.2C670.5,324.7,669.6,323.1,668.4,322.4"/>
							</g>
						</g>
					</g>
				</g>
			</g>
		</g>
	</g>
</g>
<g>
	<g>
		<g class="st1">
			<g>
				<defs>
					<polygon id="SVGID_23_" points="586.6,178.8 586.7,110.6 657.7,151.6 657.5,219.8 					"/>
				</defs>
				<clipPath id="SVGID_24_">
					<use xlink:href="#SVGID_23_"  style="overflow:visible;"/>
				</clipPath>
				<g class="st24">
					<g>
						<g>
							<g>
								<path class="st25" d="M599,161.6l0-4.9l46.1,26.6l0,4.9L599,161.6 M599.1,149.2l0-4.9l46.1,26.6l0,4.9L599.1,149.2
									 M599.1,136.9l0-4.9l46.1,26.6l0,4.9L599.1,136.9 M654.9,149.9l-65.3-37.7c-1.6-0.9-2.8-0.2-2.8,1.6l-0.1,51.5
									c0,1.8,1.3,4,2.8,4.9l46.8,27l5.7,13.5l5.7-6.9l7,4.1c1.6,0.9,2.8,0.2,2.8-1.6l0.1-51.5C657.7,153,656.4,150.8,654.9,149.9"
									/>
								<polyline class="st10" points="645.2,158.6 599.1,132 599.1,136.9 645.2,163.5 645.2,158.6 								"/>
								<polyline class="st10" points="645.2,171 599.1,144.3 599.1,149.2 645.2,175.8 645.2,171 								"/>
								<polyline class="st10" points="645.2,183.3 599.1,156.7 599,161.6 645.2,188.2 645.2,183.3 								"/>
							</g>
						</g>
					</g>
				</g>
			</g>
		</g>
	</g>
</g>
<path class="st0" d="M587.9,111.9c0,0,6.4-3.2,6.9-3.4c0.8-0.6,4.2,1.7,4.2,1.7l-3.8,5.2c0,0-5-2.9-5.9-3.4
	C588.5,111.7,587.9,111.9,587.9,111.9z"/>
<path class="st0" d="M657.6,201.8l7-3c0,0-0.4,5.4-0.5,5.7c-0.2,0.4-7.6,3.8-7.6,3.8s1.1-0.4,1.2-1.6
	C657.5,205.4,657.6,201.8,657.6,201.8z"/>
<g>
	<g>
		<polygon class="st10" points="331.6,81.6 312.1,70.8 346.3,35.8 364.9,46.5 		"/>
		<path class="st26" d="M312.1,70.8c0,0,0.7,19.3,9.6,21.3c9.3,2.1,9.8-10.5,9.8-10.5l0,0L312.1,70.8z"/>
	</g>
	<g>
		<polygon class="st15" points="350.3,92.2 330.9,81.5 365,46.5 383.7,57.2 		"/>
		<path class="st27" d="M330.9,81.5c0,0,0.7,19.3,9.6,21.3c9.3,2.1,9.8-10.5,9.8-10.5l0,0L330.9,81.5z"/>
	</g>
	<g>
		<polygon class="st15" points="313.2,70.8 293.7,60 327.8,25 346.5,35.8 		"/>
		<path class="st27" d="M293.7,60c0,0,0.7,19.3,9.6,21.3c9.3,2.1,9.8-10.5,9.8-10.5l0,0L293.7,60z"/>
	</g>
	<g>
		<polygon class="st10" points="368.8,103.1 349.4,92.3 383.5,57.3 402.2,68.1 		"/>
		<path class="st26" d="M349.4,92.3c0,0,0.7,19.3,9.6,21.3c9.3,2.1,9.8-10.5,9.8-10.5l0,0L349.4,92.3z"/>
	</g>
	<g>
		<polygon class="st15" points="387.6,114 368.1,103.2 402.3,68.2 420.9,79 		"/>
		<path class="st27" d="M368.1,103.2c0,0,0.7,19.3,9.6,21.3c9.3,2.1,9.8-10.5,9.8-10.5l0,0L368.1,103.2z"/>
	</g>
	<g>
		<polygon class="st10" points="406.2,124.9 386.7,114.1 420.9,79.1 439.5,89.8 		"/>
		<path class="st26" d="M386.7,114.1c0,0,0.7,19.3,9.6,21.3c9.3,2.1,9.8-10.5,9.8-10.5l0,0L386.7,114.1z"/>
	</g>
	<g>
		<polygon class="st15" points="424.6,135.5 405.1,124.7 439.3,89.7 457.9,100.5 		"/>
		<path class="st27" d="M405.1,124.7c0,0,0.7,19.3,9.6,21.3c9.3,2.1,9.8-10.5,9.8-10.5l0,0L405.1,124.7z"/>
	</g>
	<g>
		<polygon class="st10" points="443.3,146.3 423.9,135.5 458,100.5 476.6,111.2 		"/>
		<path class="st26" d="M423.9,135.5c0,0,0.7,19.3,9.6,21.3c9.3,2.1,9.8-10.5,9.8-10.5l0,0L423.9,135.5z"/>
	</g>
	<g>
		<polygon class="st15" points="461.6,157 442.2,146.2 476.3,111.2 495,121.9 		"/>
		<path class="st27" d="M442.2,146.2c0,0,0.7,19.3,9.6,21.3c9.3,2.1,9.8-10.5,9.8-10.5l0,0L442.2,146.2z"/>
	</g>
	<g>
		<polygon class="st10" points="480.4,167.7 460.9,157 495.1,122 513.7,132.7 		"/>
		<path class="st26" d="M460.9,157c0,0,0.7,19.3,9.6,21.3c9.3,2.1,9.8-10.5,9.8-10.5l0,0L460.9,157z"/>
	</g>
	<g>
		<polygon class="st15" points="499.1,178.5 479.7,167.7 513.8,132.7 532.4,143.4 		"/>
		<path class="st27" d="M479.7,167.7c0,0,0.7,19.3,9.6,21.3c9.3,2.1,9.8-10.5,9.8-10.5l0,0L479.7,167.7z"/>
	</g>
	<g>
		<polygon class="st10" points="517.8,189.2 498.4,178.5 532.5,143.4 551.1,154.2 		"/>
		<path class="st26" d="M498.4,178.5c0,0,0.7,19.3,9.6,21.3c9.3,2.1,9.8-10.5,9.8-10.5l0,0L498.4,178.5z"/>
	</g>
	<g>
		<polygon class="st15" points="536.2,200 516.8,189.2 550.9,154.2 569.5,165 		"/>
		<path class="st27" d="M516.8,189.2c0,0,0.7,19.3,9.6,21.3c9.3,2.1,9.8-10.5,9.8-10.5l0,0L516.8,189.2z"/>
	</g>
</g>
<g>
	<g>
		<g class="st1">
			<g>
				<defs>
					<polygon id="SVGID_25_" points="526.6,410.2 526.8,314.3 611.7,363.4 611.5,459.3 					"/>
				</defs>
				<clipPath id="SVGID_26_">
					<use xlink:href="#SVGID_25_"  style="overflow:visible;"/>
				</clipPath>
				<g class="st28">
					<g>
						<g>
							<g>
								<path class="st15" d="M544.4,367.9l-0.9-0.5l0,4.4l0.3,0.2c1.1,0.6,1.9,1.1,2.4,1.4c0.5,0.3,0.9,0.4,1.3,0.5
									c0.4,0,0.7-0.1,0.8-0.3c0.2-0.2,0.2-0.6,0.2-1c0-0.6-0.1-1-0.3-1.5c-0.2-0.4-0.5-0.8-1-1.2c-0.3-0.3-0.7-0.6-1.3-0.9
									C545.5,368.5,545,368.2,544.4,367.9 M543.9,360.8l-0.4-0.2l0,3.7l0.6,0.4c0.6,0.4,1.2,0.7,1.6,0.9c0.4,0.2,0.8,0.4,1,0.4
									c0.4,0,0.6-0.1,0.7-0.3s0.2-0.5,0.2-0.9c0-0.3-0.1-0.6-0.2-1c-0.1-0.4-0.3-0.7-0.7-1c-0.3-0.3-0.6-0.6-1.1-0.8
									S544.7,361.3,543.9,360.8 M539.6,372.7l0-17.6l5.9,3.4c1.2,0.7,2.1,1.3,2.7,1.7c0.6,0.4,1.1,1,1.7,1.6
									c0.6,0.7,1,1.4,1.3,2.1c0.3,0.7,0.4,1.5,0.4,2.2c0,0.9-0.2,1.5-0.6,1.9c-0.4,0.4-0.9,0.6-1.7,0.6v0.1c1,0.8,1.8,1.7,2.4,2.8
									c0.6,1.1,0.9,2.2,0.9,3.3c0,0.9-0.2,1.5-0.5,2c-0.3,0.5-0.7,0.8-1.2,1c-0.6,0.2-1.3,0.2-2,0c-0.7-0.2-1.6-0.6-2.8-1.3
									L539.6,372.7 M562.2,382.8c1,0.6,1.7,0.7,2.2,0.4c0.5-0.3,0.7-1.1,0.7-2.4l0-11l4,2.3l0,11.2c0,2.2-0.6,3.5-1.7,4
									c-1.2,0.5-2.9,0.1-5.1-1.2c-2.2-1.3-3.9-2.9-5.1-4.7s-1.7-3.8-1.7-6l0-11.2l4,2.3l0,11c0,1.2,0.2,2.3,0.7,3.1
									C560.5,381.5,561.2,382.2,562.2,382.8 M578.7,384.5l3.2-4.9l4.3,2.5l-5.7,7.5l0,6.8l-4-2.3l0-6.6l-5.7-14.3l4.5,2.6
									L578.7,384.5 M560.6,333.8c-18.6-10.8-33.8-2.1-33.8,19.3c-0.1,21.4,15,47.5,33.6,58.2c7.5,4.4,14.5,5.5,20.1,4l-3.8-12.9
									l10.5,9.2c4.4-4,7-10.7,7-19.5C594.3,370.7,579.2,344.6,560.6,333.8"/>
								<path class="st10" d="M543.5,371.7l0-4.4l0.9,0.5c0.6,0.3,1.2,0.7,1.7,1c0.5,0.3,1,0.6,1.3,0.9c0.5,0.4,0.8,0.8,1,1.2
									c0.2,0.4,0.3,0.9,0.3,1.5c0,0.4-0.1,0.8-0.2,1c-0.2,0.2-0.4,0.3-0.8,0.3c-0.4,0-0.8-0.2-1.3-0.5c-0.5-0.3-1.3-0.7-2.4-1.4
									L543.5,371.7 M543.5,364.3l0-3.7l0.4,0.2c0.8,0.5,1.4,0.8,1.8,1.1c0.4,0.3,0.8,0.5,1.1,0.8c0.3,0.3,0.5,0.7,0.7,1
									c0.1,0.4,0.2,0.7,0.2,1c0,0.4-0.1,0.7-0.2,0.9s-0.3,0.3-0.7,0.3c-0.2,0-0.6-0.1-1-0.4c-0.4-0.2-1-0.5-1.6-0.9L543.5,364.3
									 M545.6,358.5l-5.9-3.4l0,17.6l6.7,3.9c1.1,0.6,2,1.1,2.8,1.3c0.7,0.2,1.4,0.2,2,0c0.5-0.1,0.9-0.5,1.2-1
									c0.3-0.5,0.5-1.2,0.5-2c0-1.2-0.3-2.3-0.9-3.3c-0.6-1.1-1.4-2-2.4-2.8v-0.1c0.7,0,1.3-0.1,1.7-0.6c0.4-0.4,0.6-1.1,0.6-1.9
									c0-0.7-0.1-1.5-0.4-2.2c-0.3-0.7-0.7-1.4-1.3-2.1c-0.6-0.6-1.1-1.2-1.7-1.6C547.7,359.8,546.8,359.3,545.6,358.5"/>
								<path class="st10" d="M569.1,372.1l-4-2.3l0,11c0,1.3-0.2,2.1-0.7,2.4c-0.5,0.3-1.2,0.2-2.2-0.4c-1-0.6-1.7-1.3-2.2-2.1
									c-0.4-0.9-0.7-1.9-0.7-3.1l0-11l-4-2.3l0,11.2c0,2.2,0.6,4.2,1.7,6c1.1,1.8,2.8,3.4,5.1,4.7c2.2,1.3,3.9,1.7,5.1,1.2
									c1.2-0.5,1.7-1.8,1.7-4L569.1,372.1"/>
								<polyline class="st10" points="586.2,382 581.9,379.5 578.7,384.5 575.4,375.8 570.9,373.2 576.6,387.5 576.6,394.1 
									580.5,396.4 580.5,389.5 586.2,382 								"/>
								<polyline class="st10" points="576.7,402.4 580.5,415.3 588.1,441.4 591.6,433 605.1,455.6 611.5,451.6 597.8,428.7 
									606.1,428.3 587.2,411.6 576.7,402.4 								"/>
							</g>
						</g>
					</g>
				</g>
			</g>
		</g>
	</g>
</g>
</svg>
