<?xml version="1.0" encoding="utf-8"?>
<!-- Generator: Adobe Illustrator 19.0.0, SVG Export Plug-In . SVG Version: 6.00 Build 0)  -->
<svg version="1.1" id="Capa_1" xmlns="http://www.w3.org/2000/svg" xmlns:xlink="http://www.w3.org/1999/xlink" x="0px" y="0px"
	 viewBox="-46.4 0 721.5 550" style="enable-background:new -46.4 0 721.5 550;" xml:space="preserve">
<style type="text/css">
	.st0{fill:#D8D6D4;}
	.st1{enable-background:new    ;}
	.st2{clip-path:url(#SVGID_2_);}
	.st3{fill:#C4C4C4;}
	.st4{fill:#474747;}
	.st5{fill:#FFFFFF;}
	.st6{clip-path:url(#SVGID_4_);}
	.st7{fill:#808080;}
	.st8{fill:#FF8066;}
	.st9{fill:#FFB944;}
	.st10{fill:#D2D3D5;}
	.st11{fill:#B8DA1B;}
	.st12{fill:#00C4EF;}
	.st13{clip-path:url(#SVGID_6_);}
	.st14{fill:#333333;}
	.st15{fill:#E09717;}
	.st16{clip-path:url(#SVGID_8_);}
	.st17{fill:#1E1E1E;}
	.st18{fill:#686868;}
	.st19{fill:#282828;}
	.st20{fill:#C6C6C6;}
	.st21{fill:#E1E2E0;}
	.st22{fill:none;}
	.st23{clip-path:url(#SVGID_10_);}
	.st24{fill:#D2D3D1;}
	.st25{clip-path:url(#SVGID_12_);}
	.st26{fill:#EDEDED;}
</style>
<g id="OBJECTS">
</g>
<g id="DESIGNED_BY_FREEPIK">
	<g>
		<g>
			<g>
				<path class="st0" d="M141.8,529.1c-1.2,0.7-2.6,0.6-2.6,0.6s-0.8,0-2-0.6c0,0-119.5-68.9-120.2-69.4c-1.2-1-1.3-1.8-1.3-1.8
					s0,4.6,0,5.1c0,0.9,0.3,1.5,0.8,1.8c10.7,6.1,120.4,68.5,120.7,68.7c1.1,0.6,2,0.6,2,0.6s1.6,0,2.6-0.6
					c0.3-0.2,167.1-95.8,177-101.8c0.7-0.4,0.7-1.2,0.7-1.2l0-6L141.8,529.1z"/>
				<g>
					<g>
						<g class="st1">
							<g>
								<defs>
									<polygon id="SVGID_1_" points="13.6,457.9 195.9,352 321.6,424.6 139.3,530.5 									"/>
								</defs>
								<clipPath id="SVGID_2_">
									<use xlink:href="#SVGID_1_"  style="overflow:visible;"/>
								</clipPath>
								<g class="st2">
									<g>
										<g>
											<g>
												<path class="st3" d="M27.7,458.4c-1.9-1.1-1.9-2.8,0-3.9l163.7-95.1c1.9-1.1,4.9-1.1,6.8,0l110.8,64
													c1.9,1.1,1.9,2.8,0,3.9l-163.7,95.1c-1.9,1.1-4.9,1.1-6.8,0L27.7,458.4 M318,422.5l-118.5-68.4c-2-1.2-5.2-1.2-7.2,0
													L17.2,455.8c-2,1.2-2,3,0,4.2l118.5,68.4c2,1.2,5.2,1.2,7.2,0L318,426.7C320,425.5,320,423.7,318,422.5"/>
												<path class="st4" d="M33,456.9l162-94.1l108.7,62.8l-162,94.1L33,456.9 M308.9,423.3l-110.8-64c-1.9-1.1-4.9-1.1-6.8,0
													L27.7,454.5c-1.9,1.1-1.9,2.8,0,3.9l110.8,64c1.9,1.1,4.9,1.1,6.8,0L309,427.2C310.8,426.1,310.8,424.4,308.9,423.3"/>
												<polyline class="st5" points="303.7,425.5 195,362.8 33,456.9 141.7,519.7 303.7,425.5 												"/>
											</g>
										</g>
									</g>
								</g>
							</g>
						</g>
					</g>
				</g>
				<g>
					<g>
						<g class="st1">
							<g>
								<defs>
									<polygon id="SVGID_3_" points="46,457.9 193.5,372.2 287.4,426.4 139.9,512.1 									"/>
								</defs>
								<clipPath id="SVGID_4_">
									<use xlink:href="#SVGID_3_"  style="overflow:visible;"/>
								</clipPath>
								<g class="st6">
									<g>
										<g>
											<g>
												<polyline class="st7" points="105.9,429.8 100.1,426.5 46,457.9 51.8,461.3 105.9,429.8 												"/>
												<polyline class="st8" points="224.2,389.9 201.7,376.9 54.2,462.7 76.6,475.6 224.2,389.9 												"/>
												<polyline class="st9" points="148.4,463 126,450 79.3,477.1 101.7,490.1 148.4,463 												"/>
												<polyline class="st7" points="116,487.7 114,486.6 104.8,491.9 106.9,493.1 116,487.7 												"/>
												<polyline class="st10" points="138.7,478.3 136.7,477.1 108.1,493.7 110.1,494.9 138.7,478.3 												"/>
												<polyline class="st10" points="152,474.3 150,473.1 111.3,495.6 113.3,496.8 152,474.3 												"/>
												<polyline class="st10" points="151.5,478.3 149.5,477.1 114.5,497.4 116.5,498.6 151.5,478.3 												"/>
												<polyline class="st10" points="159.8,477.1 157.8,476 117.7,499.3 119.7,500.5 159.8,477.1 												"/>
												<polyline class="st10" points="167,476.7 165,475.5 120.9,501.1 122.9,502.3 167,476.7 												"/>
												<polyline class="st10" points="170.2,478.5 168.2,477.3 124.1,503 126.1,504.2 170.2,478.5 												"/>
												<polyline class="st10" points="134.3,505 132.3,503.8 128.9,505.8 130.9,507 134.3,505 												"/>
												<polyline class="st10" points="138.4,502.6 136.4,501.4 133,503.4 135,504.6 138.4,502.6 												"/>
												<polyline class="st10" points="142.5,500.2 140.5,499.1 137.1,501 139.1,502.2 142.5,500.2 												"/>
												<polyline class="st10" points="146.6,497.9 144.5,496.7 141.1,498.7 143.2,499.9 146.6,497.9 												"/>
												<polyline class="st10" points="154.7,493.1 152.7,492 149.3,493.9 151.3,495.1 154.7,493.1 												"/>
												<polyline class="st10" points="158.8,490.8 156.7,489.6 153.3,491.6 155.4,492.8 158.8,490.8 												"/>
												<polyline class="st10" points="162.8,488.4 160.8,487.2 157.4,489.2 159.4,490.4 162.8,488.4 												"/>
												<polyline class="st10" points="166.9,486 164.9,484.9 161.5,486.8 163.5,488 166.9,486 												"/>
												<polyline class="st10" points="171,483.7 169,482.5 165.6,484.5 167.6,485.6 171,483.7 												"/>
												<polyline class="st10" points="175.1,481.3 173,480.1 169.6,482.1 171.7,483.3 175.1,481.3 												"/>
												<polyline class="st10" points="143.9,509.7 141.9,508.6 137.8,510.9 139.9,512.1 143.9,509.7 												"/>
												<polyline class="st10" points="148.8,506.9 146.7,505.8 142.7,508.1 144.7,509.3 148.8,506.9 												"/>
												<polyline class="st10" points="153.4,504.2 151.4,503 147.3,505.4 149.4,506.6 153.4,504.2 												"/>
												<polyline class="st10" points="158.1,501.5 156.1,500.3 152,502.7 154.1,503.9 158.1,501.5 												"/>
												<polyline class="st10" points="162.8,498.8 160.8,497.6 156.7,500 158.7,501.1 162.8,498.8 												"/>
												<polyline class="st10" points="167.5,496 165.5,494.9 161.4,497.2 163.4,498.4 167.5,496 												"/>
												<polyline class="st10" points="172.2,493.3 170.1,492.2 166.1,494.5 168.1,495.7 172.2,493.3 												"/>
												<polyline class="st10" points="176.9,490.6 174.8,489.4 170.8,491.8 172.8,493 176.9,490.6 												"/>
												<polyline class="st10" points="181.5,487.9 179.5,486.7 175.4,489.1 177.5,490.2 181.5,487.9 												"/>
												<polyline class="st10" points="184,486.5 182,485.3 180,486.4 182,487.6 184,486.5 												"/>
												<polyline class="st10" points="141,506.1 139,504.9 133.2,508.3 135.3,509.5 141,506.1 												"/>
												<polyline class="st10" points="147.5,502.4 145.5,501.2 139.7,504.5 141.7,505.7 147.5,502.4 												"/>
												<polyline class="st10" points="153.9,498.6 151.9,497.4 146.1,500.8 148.1,502 153.9,498.6 												"/>
												<polyline class="st10" points="160.4,494.9 158.3,493.7 152.6,497.1 154.6,498.2 160.4,494.9 												"/>
												<polyline class="st10" points="166.8,491.1 164.8,490 159,493.3 161,494.5 166.8,491.1 												"/>
												<polyline class="st10" points="173.3,487.4 171.2,486.2 165.5,489.6 167.5,490.7 173.3,487.4 												"/>
												<polyline class="st10" points="179.4,483.8 177.4,482.6 171.9,485.8 173.9,487 179.4,483.8 												"/>
												<polyline class="st7" points="164.7,459.5 162.6,458.3 153.5,463.6 155.5,464.8 164.7,459.5 												"/>
												<polyline class="st10" points="187.3,450 185.3,448.9 156.7,465.5 158.7,466.7 187.3,450 												"/>
												<polyline class="st10" points="200.6,446 198.6,444.8 159.9,467.3 161.9,468.5 200.6,446 												"/>
												<polyline class="st10" points="200.1,450 198.1,448.8 163.1,469.2 165.1,470.4 200.1,450 												"/>
												<polyline class="st10" points="208.4,448.9 206.4,447.7 166.3,471 168.3,472.2 208.4,448.9 												"/>
												<polyline class="st10" points="215.7,448.4 213.6,447.2 169.5,472.9 171.5,474.1 215.7,448.4 												"/>
												<polyline class="st10" points="218.9,450.3 216.8,449.1 172.7,474.7 174.7,475.9 218.9,450.3 												"/>
												<polyline class="st10" points="183,476.7 180.9,475.5 177.5,477.5 179.6,478.7 183,476.7 												"/>
												<polyline class="st10" points="187,474.3 185,473.2 181.6,475.2 183.6,476.3 187,474.3 												"/>
												<polyline class="st10" points="191.1,472 189.1,470.8 185.7,472.8 187.7,474 191.1,472 												"/>
												<polyline class="st10" points="195.2,469.6 193.2,468.4 189.7,470.4 191.8,471.6 195.2,469.6 												"/>
												<polyline class="st10" points="203.3,464.9 201.3,463.7 197.9,465.7 199.9,466.9 203.3,464.9 												"/>
												<polyline class="st10" points="207.4,462.5 205.4,461.3 202,463.3 204,464.5 207.4,462.5 												"/>
												<polyline class="st10" points="211.5,460.1 209.4,459 206,461 208.1,462.1 211.5,460.1 												"/>
												<polyline class="st10" points="215.5,457.8 213.5,456.6 210.1,458.6 212.1,459.8 215.5,457.8 												"/>
												<polyline class="st10" points="219.6,455.4 217.6,454.2 214.2,456.2 216.2,457.4 219.6,455.4 												"/>
												<polyline class="st10" points="223.7,453 221.7,451.9 218.3,453.9 220.3,455 223.7,453 												"/>
												<polyline class="st10" points="192.6,481.5 190.5,480.3 186.5,482.7 188.5,483.8 192.6,481.5 												"/>
												<polyline class="st10" points="197.4,478.7 195.4,477.5 191.3,479.9 193.3,481 197.4,478.7 												"/>
												<polyline class="st10" points="202.1,476 200,474.8 196,477.1 198,478.3 202.1,476 												"/>
												<polyline class="st10" points="206.8,473.2 204.7,472.1 200.7,474.4 202.7,475.6 206.8,473.2 												"/>
												<polyline class="st10" points="211.4,470.5 209.4,469.3 205.3,471.7 207.4,472.9 211.4,470.5 												"/>
												<polyline class="st10" points="216.1,467.8 214.1,466.6 210,469 212,470.2 216.1,467.8 												"/>
												<polyline class="st10" points="220.8,465.1 218.8,463.9 214.7,466.3 216.7,467.4 220.8,465.1 												"/>
												<polyline class="st10" points="225.5,462.3 223.5,461.2 219.4,463.5 221.4,464.7 225.5,462.3 												"/>
												<polyline class="st10" points="230.2,459.6 228.1,458.5 224.1,460.8 226.1,462 230.2,459.6 												"/>
												<polyline class="st10" points="232.6,458.2 230.6,457 228.6,458.2 230.6,459.4 232.6,458.2 												"/>
												<polyline class="st10" points="189.7,477.8 187.6,476.7 181.9,480 183.9,481.2 189.7,477.8 												"/>
												<polyline class="st10" points="196.1,474.1 194.1,472.9 188.3,476.3 190.3,477.4 196.1,474.1 												"/>
												<polyline class="st10" points="202.6,470.3 200.5,469.2 194.8,472.5 196.8,473.7 202.6,470.3 												"/>
												<polyline class="st10" points="209,466.6 207,465.4 201.2,468.8 203.2,470 209,466.6 												"/>
												<polyline class="st10" points="215.4,462.9 213.4,461.7 207.6,465 209.7,466.2 215.4,462.9 												"/>
												<polyline class="st10" points="221.9,459.1 219.9,457.9 214.1,461.3 216.1,462.5 221.9,459.1 												"/>
												<polyline class="st10" points="228,455.5 226,454.4 220.5,457.6 222.6,458.7 228,455.5 												"/>
												<polyline class="st7" points="217.3,428.9 215.3,427.7 206.1,433 208.2,434.2 217.3,428.9 												"/>
												<polyline class="st10" points="240,419.4 237.9,418.3 209.3,434.9 211.4,436.1 240,419.4 												"/>
												<polyline class="st10" points="253.3,415.4 251.2,414.3 212.5,436.7 214.6,437.9 253.3,415.4 												"/>
												<polyline class="st10" points="252.8,419.4 250.8,418.2 215.7,438.6 217.8,439.8 252.8,419.4 												"/>
												<polyline class="st10" points="261.1,418.3 259.1,417.1 218.9,440.4 221,441.6 261.1,418.3 												"/>
												<polyline class="st10" points="268.3,417.8 266.3,416.6 222.2,442.3 224.2,443.5 268.3,417.8 												"/>
												<polyline class="st10" points="271.5,419.7 269.5,418.5 225.3,444.1 227.4,445.3 271.5,419.7 												"/>
												<polyline class="st10" points="235.6,446.1 233.6,444.9 230.2,446.9 232.2,448.1 235.6,446.1 												"/>
												<polyline class="st10" points="239.7,443.8 237.7,442.6 234.3,444.6 236.3,445.7 239.7,443.8 												"/>
												<polyline class="st10" points="243.8,441.4 241.7,440.2 238.3,442.2 240.4,443.4 243.8,441.4 												"/>
												<polyline class="st10" points="247.8,439 245.8,437.8 242.4,439.8 244.4,441 247.8,439 												"/>
												<polyline class="st10" points="256,434.3 253.9,433.1 250.5,435.1 252.6,436.3 256,434.3 												"/>
												<polyline class="st10" points="260,431.9 258,430.7 254.6,432.7 256.6,433.9 260,431.9 												"/>
												<polyline class="st10" points="264.1,429.5 262.1,428.4 258.7,430.4 260.7,431.5 264.1,429.5 												"/>
												<polyline class="st10" points="268.2,427.2 266.2,426 262.8,428 264.8,429.2 268.2,427.2 												"/>
												<polyline class="st10" points="272.3,424.8 270.2,423.6 266.8,425.6 268.9,426.8 272.3,424.8 												"/>
												<polyline class="st10" points="276.3,422.4 274.3,421.3 270.9,423.3 272.9,424.4 276.3,422.4 												"/>
												<polyline class="st10" points="245.2,450.9 243.2,449.7 239.1,452.1 241.1,453.2 245.2,450.9 												"/>
												<polyline class="st10" points="250,448.1 248,446.9 243.9,449.3 246,450.4 250,448.1 												"/>
												<polyline class="st10" points="254.7,445.4 252.7,444.2 248.6,446.5 250.7,447.7 254.7,445.4 												"/>
												<polyline class="st10" points="259.4,442.6 257.4,441.5 253.3,443.8 255.3,445 259.4,442.6 												"/>
												<polyline class="st10" points="264.1,439.9 262.1,438.7 258,441.1 260,442.3 264.1,439.9 												"/>
												<polyline class="st10" points="268.8,437.2 266.7,436 262.7,438.4 264.7,439.6 268.8,437.2 												"/>
												<polyline class="st10" points="273.5,434.5 271.4,433.3 267.3,435.7 269.4,436.8 273.5,434.5 												"/>
												<polyline class="st10" points="278.1,431.7 276.1,430.6 272,432.9 274.1,434.1 278.1,431.7 												"/>
												<polyline class="st10" points="282.8,429 280.8,427.9 276.7,430.2 278.7,431.4 282.8,429 												"/>
												<polyline class="st10" points="285.3,427.6 283.2,426.4 281.3,427.6 283.3,428.8 285.3,427.6 												"/>
												<polyline class="st10" points="242.3,447.2 240.3,446.1 234.5,449.4 236.5,450.6 242.3,447.2 												"/>
												<polyline class="st10" points="248.8,443.5 246.7,442.3 241,445.7 243,446.9 248.8,443.5 												"/>
												<polyline class="st10" points="255.2,439.8 253.2,438.6 247.4,441.9 249.4,443.1 255.2,439.8 												"/>
												<polyline class="st10" points="261.6,436 259.6,434.8 253.8,438.2 255.9,439.4 261.6,436 												"/>
												<polyline class="st10" points="268.1,432.3 266.1,431.1 260.3,434.4 262.3,435.6 268.1,432.3 												"/>
												<polyline class="st10" points="274.5,428.5 272.5,427.4 266.7,430.7 268.8,431.9 274.5,428.5 												"/>
												<polyline class="st10" points="280.7,424.9 278.7,423.8 273.2,427 275.2,428.1 280.7,424.9 												"/>
												<polyline class="st11" points="249.3,404.3 226.8,391.4 180.7,418.2 203.1,431.2 249.3,404.3 												"/>
												<polyline class="st12" points="200.4,432.7 178,419.8 128.8,448.3 151.3,461.3 200.4,432.7 												"/>
											</g>
										</g>
									</g>
								</g>
							</g>
						</g>
					</g>
				</g>
			</g>
		</g>
	</g>
	<g>
		<g>
			<g>
				<g>
					<g>
						<g class="st1">
							<g>
								<defs>
									<polygon id="SVGID_5_" points="225.3,352.6 278.1,321.9 385.4,383.9 332.5,414.6 									"/>
								</defs>
								<clipPath id="SVGID_6_">
									<use xlink:href="#SVGID_5_"  style="overflow:visible;"/>
								</clipPath>
								<g class="st13">
									<g>
										<g>
											<g>
												<path class="st14" d="M287,327c-4.7-2.7-12.4-2.7-17.2,0l-35.4,20.3c-4.8,2.7-4.8,7.2,0,10l89.2,52.2c0,0,0,0,0.1,0
													c4.7,2.7,12.4,2.7,17.2,0l35.4-20.3c4.8-2.7,4.8-7.2,0.1-10L287,327C287,327.1,287,327,287,327"/>
											</g>
										</g>
									</g>
								</g>
							</g>
						</g>
					</g>
				</g>
				<path class="st15" d="M264.1,385.3"/>
				<g>
					<g>
						<g class="st1">
							<g>
								<defs>
									<polygon id="SVGID_7_" points="225.1,348.2 278,317.4 385.2,379.4 332.4,410.1 									"/>
								</defs>
								<clipPath id="SVGID_8_">
									<use xlink:href="#SVGID_7_"  style="overflow:visible;"/>
								</clipPath>
								<g class="st16">
									<g>
										<g>
											<g>
												<path class="st4" d="M356,388.5c-2.4-1.4-6.2-1.4-8.6,0c-1.1,0.7-1.8,1.5-1.8,2.5c0,0.9,0.6,1.8,1.8,2.5l-0.3,0.2
													l0.4-0.2c2.4,1.4,6.2,1.4,8.6,0c1.1-0.7,1.8-1.5,1.8-2.5C357.8,390.1,357.1,389.2,356,388.5 M257.2,336.3
													c-0.3-0.2-0.3-0.4,0-0.6c0.3-0.2,0.8-0.2,1,0c0.3,0.2,0.3,0.4,0,0.6C257.9,336.5,257.5,336.5,257.2,336.3 M346.7,393.9
													c-1.3-0.8-2.1-1.8-2.1-2.9c0-1.1,0.7-2.1,2.1-2.9c2.8-1.6,7.2-1.6,10,0c1.4,0.8,2.1,1.8,2.1,2.9c0,1.1-0.8,2.1-2.1,2.9
													C353.9,395.5,349.4,395.5,346.7,393.9L346.7,393.9 M252.6,342.7C252.5,342.7,252.5,342.7,252.6,342.7
													c-1.4-0.8-1.4-2.1,0-2.9l11.7-6.7c1.4-0.8,3.6-0.8,4.9,0c0,0,0,0,0,0c1.4,0.8,1.3,2.1,0,2.9l-11.7,6.7
													C256.1,343.5,253.9,343.5,252.6,342.7 M320,401.1l-79.4-46.4l49.4-28.3l79.4,46.4L320,401.1 M286.8,322.6
													c-4.7-2.7-12.4-2.7-17.2,0l-35.4,20.3c-4.8,2.7-4.8,7.2-0.1,10l89.2,52.2c0,0,0,0,0,0c4.7,2.7,12.5,2.8,17.2,0
													l35.4-20.3c4.8-2.7,4.8-7.2,0.1-10L286.8,322.6C286.9,322.6,286.8,322.6,286.8,322.6"/>
												<path class="st5" d="M314.2,395.1l-1.8-1l23.7-13.6l1.7,1L314.2,395.1 M311,393.2l-1.8-1l26.8-15.4l1.8,1L311,393.2
													 M248.9,356.9l-2.9-1.7l27-15.5l2.9,1.7L248.9,356.9 M319.7,398.3l-1.8-1l29-16.7l1.8,1L319.7,398.3 M317,396.7l-1.8-1
													l32.1-18.4l1.8,1L317,396.7 M306.7,390.7l-12.4-7.2l44.8-25.7l12.4,7.3L306.7,390.7 M292.5,382.4l-12.4-7.3l44.8-25.7
													l12.4,7.2L292.5,382.4 M278.2,374l-12.4-7.2l44.8-25.7l12.4,7.2L278.2,374 M264.1,365.8l-12.4-7.3l44.8-25.7l12.4,7.3
													L264.1,365.8 M290,326.3l-49.4,28.3l79.4,46.4l49.4-28.3L290,326.3"/>
												<path class="st17" d="M347,393.7l0.3-0.2c-1.1-0.7-1.8-1.6-1.8-2.5c0-0.9,0.6-1.8,1.8-2.5c2.4-1.4,6.2-1.3,8.6,0
													c1.1,0.7,1.8,1.6,1.8,2.5c0,0.9-0.6,1.8-1.8,2.5c-2.4,1.4-6.2,1.4-8.6,0L347,393.7 M356.7,388.1c-2.8-1.6-7.2-1.6-10,0
													c-1.3,0.8-2.1,1.8-2.1,2.9c0,1.1,0.7,2.1,2.1,2.9l0,0c2.8,1.6,7.2,1.6,10,0c1.3-0.8,2.1-1.8,2.1-2.9
													C358.8,389.9,358,388.9,356.7,388.1"/>
												<path class="st18" d="M269.2,333.1c-1.4-0.8-3.6-0.8-4.9,0l-11.7,6.7c-1.4,0.8-1.4,2.1,0,2.9c0,0,0,0,0,0
													c1.4,0.8,3.6,0.8,4.9,0l11.7-6.7C270.5,335.2,270.6,333.9,269.2,333.1C269.2,333.1,269.2,333.1,269.2,333.1"/>
												<path class="st18" d="M258.2,335.7c-0.3-0.2-0.8-0.2-1,0c-0.3,0.2-0.3,0.4,0,0.6c0.3,0.2,0.8,0.2,1,0
													C258.5,336.2,258.5,335.9,258.2,335.7"/>
												<polyline class="st7" points="273,339.8 246.1,355.3 248.9,356.9 275.9,341.4 273,339.8 												"/>
												<polyline class="st8" points="296.4,332.8 251.7,358.5 264.1,365.8 308.8,340.1 296.4,332.8 												"/>
												<polyline class="st9" points="310.5,341.1 265.8,366.8 278.2,374 322.9,348.3 310.5,341.1 												"/>
												<polyline class="st12" points="324.9,349.4 280.1,375.1 292.5,382.4 337.3,356.7 324.9,349.4 												"/>
												<polyline class="st11" points="339.1,357.8 294.3,383.5 306.7,390.7 351.5,365 339.1,357.8 												"/>
												<polyline class="st7" points="336,376.8 309.2,392.2 311,393.2 337.8,377.8 336,376.8 												"/>
												<polyline class="st10" points="336.2,380.4 312.4,394 314.2,395.1 337.9,381.5 336.2,380.4 												"/>
												<polyline class="st10" points="347.3,377.3 315.2,395.7 317,396.7 349.1,378.3 347.3,377.3 												"/>
												<polyline class="st10" points="347,380.6 318,397.3 319.7,398.3 348.8,381.6 347,380.6 												"/>
											</g>
										</g>
									</g>
								</g>
							</g>
						</g>
					</g>
				</g>
				<path class="st14" d="M230.7,347.9c0.1-0.2-0.1,2.3,2.6,4.1c2.4,1.6,2.7,1.7,2.7,1.7l-0.2,4.3c0,0-2.1-1-3.2-2.1
					c-0.3-0.4-1.4-1.1-1.7-3.4C230.9,351.8,230.7,347.9,230.7,347.9z"/>
				<path class="st14" d="M379.6,379.3c-0.1-0.2,0,3-3,4.9l-2.8,1.7l0.7,4.4c0,0,2.3-1,3.5-2.1c0.4-0.4,1.5-1.2,1.9-3.6
					C379.9,383.8,379.6,379.3,379.6,379.3z"/>
				<path class="st19" d="M332.5,411.5c0,0,3.1,0,4.9-0.6c2.7-0.7,5.7-2.7,5.7-2.7s0.1-4.1,0-4.5c0,0-3.4,2-5.3,2.6
					c-2,0.6-4.6,0.7-4.6,0.7h-1.7c0,0-1.6-0.1-4-0.5c-2.3-0.4-5.9-2.7-5.9-2.7c-0.1,0.4-0.6,4-0.6,4s3.5,2.4,6.2,3
					c1.6,0.5,4.3,0.6,4.3,0.6H332.5z"/>
			</g>
		</g>
	</g>
	<g>
		<g>
			<g>
				<path class="st20" d="M447.7,324c-1.5-11.8-6.2-47.3-6.2-47.3l-33.2-20.3l6.3,46c0,0,0.2,5.8-2.2,6.8
					c-1.7,0.7-34.8,5.4-50.5,8.1c-3,0.5-3.9,1.2-4.4,2c-1.3,2,1.4,3.6,1.4,3.6l45.1,26c0,0,2.5,1.8,4.9,2.1c2.5,0.3,3.8-0.9,3.8-0.9
					c8.3-5.9,30.9-16.2,33.2-18.4C447.5,330.1,447.7,326.4,447.7,324L447.7,324z"/>
				<path class="st21" d="M446.7,323.3l-6.2-47.3l-33.2-20.3l6.3,46c0,0,0.2,5.8-2.2,6.8c-1.7,0.7-34.8,5.4-50.5,8.1
					c-3,0.5-3.9,1.2-4.4,2c-1.3,2,1.4,3.6,1.4,3.6l45.1,26c0,0,2.5,1.8,4.9,2.1c2.5,0.3,3.8-0.9,3.8-0.9
					c8.3-5.9,30.9-16.2,33.2-18.4C446.5,329.4,446.7,325.7,446.7,323.3L446.7,323.3z"/>
			</g>
		</g>
	</g>
	<polygon class="st22" points="413.6,301.7 407.3,255.7 447,278.7 446.5,320.8 	"/>
	<g>
		<g>
			<g class="st1">
				<g>
					<defs>
						<polygon id="SVGID_9_" points="305.7,212.8 306.3,16.9 557,161.6 556.4,357.5 						"/>
					</defs>
					<clipPath id="SVGID_10_">
						<use xlink:href="#SVGID_9_"  style="overflow:visible;"/>
					</clipPath>
					<g class="st23">
						<g>
							<g>
								<g>
									<path class="st24" d="M547,155.9L316.3,22.7c-5.5-3.2-10-0.6-10,5.7l-0.5,172.9c0,6.4,4.4,14.1,10,17.3l230.7,133.2
										c5.5,3.2,10,0.6,10-5.7l0.5-172.9C557,166.8,552.5,159.1,547,155.9"/>
								</g>
							</g>
						</g>
					</g>
				</g>
			</g>
		</g>
	</g>
	<g>
		<g>
			<g class="st1">
				<g>
					<defs>
						<polygon id="SVGID_11_" points="299.1,218.9 299.6,23 550.3,167.7 549.8,363.7 						"/>
					</defs>
					<clipPath id="SVGID_12_">
						<use xlink:href="#SVGID_11_"  style="overflow:visible;"/>
					</clipPath>
					<g class="st25">
						<g>
							<g>
								<g>
									<path class="st26" d="M301.9,179.8l0.4-141.9c0-6.2,4.4-8.7,9.8-5.6l225.7,130.3c5.4,3.1,9.8,10.7,9.8,16.9l-0.4,141.9
										L301.9,179.8 M540.3,162L309.6,28.8c-5.5-3.2-10-0.6-10,5.7l-0.5,172.9c0,6.4,4.4,14.1,10,17.3l230.7,133.2
										c5.5,3.2,10,0.6,10-5.7l0.5-172.9C550.3,172.9,545.8,165.2,540.3,162"/>
									<path class="st4" d="M310.5,180.1l0.4-137.7L539,174.1l-0.4,137.7L310.5,180.1 M537.8,162.6L312.1,32.3
										c-5.4-3.1-9.8-0.6-9.8,5.6l-0.4,141.9l245.3,141.6l0.4-141.9C547.6,173.3,543.2,165.8,537.8,162.6"/>
									<path class="st5" d="M316.4,176.9l0-3.4l59,34l0,3.4L316.4,176.9 M387.9,218.2l0-3.4l59,34l0,3.4L387.9,218.2 M465.2,262.8
										l0-3.4l59,34l0,3.4L465.2,262.8 M316.4,171.6l0-3.4l51.5,29.7l0,3.4L316.4,171.6 M387.9,212.8l0-3.4l51.5,29.7l0,3.4
										L387.9,212.8 M465.2,257.5l0-3.4l51.5,29.7l0,3.4L465.2,257.5 M316.4,166.2l0-3.4l56.8,32.8l0,3.4L316.4,166.2
										 M387.9,207.4l0-3.4l56.8,32.8l0,3.4L387.9,207.4 M465.2,252.1l0-3.4l56.8,32.8l0,3.4L465.2,252.1 M316.5,160.8l0-3.4
										l42,24.3l0,3.4L316.5,160.8 M387.9,202.1l0-3.4l42,24.3l0,3.4L387.9,202.1 M465.2,246.7l0-3.4l42,24.3l0,3.4L465.2,246.7
										 M316.5,155.4l0-3.4l13.5,7.8l0,3.4L316.5,155.4 M387.9,196.7l0-3.4l13.5,7.8l0,3.4L387.9,196.7 M465.3,241.3l0-3.4
										l13.5,7.8l0,3.4L465.3,241.3 M316.5,146.8l0.1-37.6l68.6,39.6l-0.1,37.6L316.5,146.8 M389.3,188.8l0.1-37.6l72.2,41.7
										l-0.1,37.6L389.3,188.8 M465.5,232.8l0.1-37.6l67.8,39.1l-0.1,37.6L465.5,232.8 M316.6,104.7l0.1-37.6l216.8,125.2
										l-0.1,37.6L316.6,104.7 M316.7,63l0-9.7l79.5,45.9l0,9.7L316.7,63 M539,174.1L310.9,42.4l-0.4,137.7l228.1,131.7L539,174.1
										"/>
									<polyline class="st7" points="396.2,99.2 316.8,53.3 316.7,63 396.2,108.9 396.2,99.2 									"/>
									<polyline class="st8" points="533.5,192.3 316.7,67.1 316.6,104.7 533.4,229.9 533.5,192.3 									"/>
									<polyline class="st9" points="385.2,148.8 316.6,109.2 316.5,146.8 385.1,186.4 385.2,148.8 									"/>
									<polyline class="st7" points="329.9,159.8 316.5,152 316.5,155.4 329.9,163.2 329.9,159.8 									"/>
									<polyline class="st10" points="358.5,181.7 316.5,157.4 316.5,160.8 358.5,185.1 358.5,181.7 									"/>
									<polyline class="st10" points="373.3,195.6 316.5,162.8 316.4,166.2 373.3,199 373.3,195.6 									"/>
									<polyline class="st10" points="367.9,197.9 316.4,168.2 316.4,171.6 367.9,201.3 367.9,197.9 									"/>
									<polyline class="st10" points="375.4,207.6 316.4,173.5 316.4,176.9 375.4,211 375.4,207.6 									"/>
									<polyline class="st7" points="401.4,201.1 387.9,193.3 387.9,196.7 401.4,204.5 401.4,201.1 									"/>
									<polyline class="st10" points="429.9,222.9 387.9,198.7 387.9,202.1 429.9,226.3 429.9,222.9 									"/>
									<polyline class="st10" points="444.7,236.9 387.9,204 387.9,207.4 444.7,240.3 444.7,236.9 									"/>
									<polyline class="st10" points="439.3,239.1 387.9,209.4 387.9,212.8 439.3,242.5 439.3,239.1 									"/>
									<polyline class="st10" points="446.8,248.8 387.9,214.8 387.9,218.2 446.8,252.2 446.8,248.8 									"/>
									<polyline class="st7" points="478.7,245.7 465.3,238 465.3,241.3 478.7,249.1 478.7,245.7 									"/>
									<polyline class="st10" points="507.3,267.6 465.3,243.3 465.2,246.7 507.3,271 507.3,267.6 									"/>
									<polyline class="st10" points="522.1,281.5 465.2,248.7 465.2,252.1 522.1,284.9 522.1,281.5 									"/>
									<polyline class="st10" points="516.7,283.8 465.2,254.1 465.2,257.5 516.7,287.2 516.7,283.8 									"/>
									<polyline class="st10" points="524.2,293.5 465.2,259.4 465.2,262.8 524.2,296.9 524.2,293.5 									"/>
									<polyline class="st11" points="533.4,234.3 465.6,195.2 465.5,232.8 533.3,271.9 533.4,234.3 									"/>
									<polyline class="st12" points="461.6,192.9 389.4,151.2 389.3,188.8 461.5,230.5 461.6,192.9 									"/>
								</g>
							</g>
						</g>
					</g>
				</g>
			</g>
		</g>
	</g>
	<g>
		<path class="st24" d="M302,28.5l5.6-5.1c0,0,1.4-1.6,3.5-2c1.6-0.2,2.8,0.2,3.7,0.6c1.5,0.6,9.9,5.6,9.9,5.6l-6.3,6.2L310,29
			c0,0-2.4-1.4-4.7-1.4C303.1,27.5,302,28.5,302,28.5z"/>
	</g>
	<path class="st24" d="M549.9,342.3l6.6-3.7v8.3c0,2.8-1.9,5.1-2.3,5.5c-0.4,0.4-5.6,4.6-5.6,4.6s0.7-0.8,1.1-3.5
		C549.9,350.9,549.9,342.3,549.9,342.3z"/>
</g>
</svg>
