<?xml version="1.0" encoding="utf-8"?>

<svg version="1.1" id="Capa_2" xmlns="http://www.w3.org/2000/svg" xmlns:xlink="http://www.w3.org/1999/xlink" x="0px" y="0px"
	 viewBox="0 0 287.4 117.7" style="enable-background:new 0 0 287.4 117.7;" xml:space="preserve">
<style type="text/css">
	.st0{fill:none;stroke:#879191;stroke-linecap:round;stroke-linejoin:round;stroke-miterlimit:10;}
	.st1{fill:#51A9BF;stroke:#000000;stroke-width:0.75;stroke-linecap:round;stroke-linejoin:round;stroke-miterlimit:10;}
	.st2{fill:#51A9BF;stroke:#000000;stroke-linecap:round;stroke-linejoin:round;stroke-miterlimit:10;}
	.st3{fill:#51A9BF;}
	.st4{fill:none;stroke:#262828;stroke-linecap:round;stroke-linejoin:round;stroke-miterlimit:10;}
	.st5{fill:none;stroke:#879191;stroke-width:1.5;stroke-linecap:round;stroke-linejoin:round;stroke-miterlimit:10;}
	.st6{fill:none;stroke:#ADBABA;stroke-linecap:round;stroke-linejoin:round;stroke-miterlimit:10;}
	.st7{fill:none;stroke:#ADBABA;stroke-width:1.5;stroke-linecap:round;stroke-linejoin:round;stroke-miterlimit:10;}
	.st8{fill:none;stroke:#879191;stroke-miterlimit:10;}
	.st9{fill:none;stroke:#0A0A0A;stroke-linecap:round;stroke-miterlimit:10;}
	.st10{fill:none;stroke:#879191;stroke-width:0.75;stroke-linecap:round;stroke-linejoin:round;stroke-miterlimit:10;}
	.st11{fill:#51A9BF;stroke:#262828;stroke-linecap:round;stroke-linejoin:round;stroke-miterlimit:10;}
	.st12{fill:none;stroke:#B2BFBF;stroke-width:1.5;stroke-miterlimit:10;}
	.st13{fill:#51A9BF;stroke:#262828;stroke-miterlimit:10;}
	.st14{fill:#879191;}
	.st15{fill:none;stroke:#0A0A0A;stroke-linecap:round;stroke-linejoin:round;stroke-miterlimit:10;}
	.st16{fill:#262828;}
</style>
<line class="st0" x1="86.2" y1="91.3" x2="93.2" y2="91.3"/>
<line class="st0" x1="86.2" y1="95" x2="95.3" y2="95"/>
<line class="st0" x1="86.2" y1="98.6" x2="95.3" y2="98.6"/>
<line class="st0" x1="86.2" y1="102.2" x2="95.3" y2="102.2"/>
<line class="st0" x1="86.2" y1="105.8" x2="95.3" y2="105.8"/>
<polygon class="st1" points="98.8,93.2 93.2,93.2 93.2,87.6 "/>
<rect x="180.1" y="63" class="st2" width="2.9" height="14.9"/>
<circle class="st3" cx="107" cy="38" r="13.2"/>
<circle class="st4" cx="107.2" cy="38" r="16.6"/>
<circle class="st4" cx="107" cy="38" r="11.6"/>
<line class="st4" x1="117.7" y1="50.9" x2="119.3" y2="52.4"/>
<line class="st4" x1="119.7" y1="48.9" x2="121.3" y2="50.4"/>
<path class="st4" d="M134.1,66.3c-0.9,0.9-2.3,0.9-3.2,0.1l-11-10.7c-0.9-0.9-0.9-2.3-0.1-3.2l1.1-1.1c0.9-0.9,2.3-0.9,3.2-0.1
	l11,10.7c0.9,0.9,0.9,2.3,0.1,3.2L134.1,66.3z"/>
<line class="st4" x1="120.8" y1="56.7" x2="125.2" y2="52.3"/>
<line class="st4" x1="129.1" y1="65" x2="133.5" y2="60.6"/>
<line class="st5" x1="133.9" y1="42.8" x2="133.9" y2="48.7"/>
<line class="st5" x1="136.8" y1="45.7" x2="131" y2="45.7"/>
<line class="st0" x1="146.4" y1="16.3" x2="142.2" y2="20.4"/>
<line class="st0" x1="146.4" y1="20.4" x2="142.3" y2="16.3"/>
<line class="st0" x1="157.8" y1="7.6" x2="153.6" y2="11.7"/>
<line class="st0" x1="157.7" y1="11.7" x2="153.6" y2="7.6"/>
<line class="st4" x1="198.6" y1="43.3" x2="194.4" y2="47.4"/>
<line class="st4" x1="198.6" y1="47.5" x2="194.5" y2="43.3"/>
<line class="st6" x1="206.2" y1="97" x2="202" y2="101.1"/>
<line class="st6" x1="206.2" y1="101.2" x2="202" y2="97"/>
<line class="st4" x1="167.6" y1="41.6" x2="167.6" y2="47.5"/>
<line class="st4" x1="170.6" y1="44.5" x2="164.7" y2="44.5"/>
<line class="st4" x1="157" y1="84.2" x2="157" y2="90.1"/>
<line class="st4" x1="159.9" y1="87.2" x2="154" y2="87.2"/>
<line class="st5" x1="95.8" y1="59.8" x2="95.8" y2="65.7"/>
<line class="st5" x1="98.8" y1="62.8" x2="92.9" y2="62.8"/>
<line class="st5" x1="113.9" y1="91.3" x2="113.9" y2="97.2"/>
<line class="st5" x1="116.8" y1="94.3" x2="111" y2="94.3"/>
<line class="st7" x1="23.4" y1="80.1" x2="23.4" y2="86"/>
<line class="st7" x1="26.4" y1="83" x2="20.5" y2="83"/>
<line class="st7" x1="69.3" y1="95" x2="69.3" y2="100.9"/>
<line class="st7" x1="72.3" y1="98" x2="66.4" y2="98"/>
<line class="st7" x1="92.7" y1="74.9" x2="88.5" y2="78.9"/>
<line class="st7" x1="92.6" y1="79" x2="88.6" y2="74.7"/>
<line class="st5" x1="29.2" y1="94.3" x2="25" y2="98.4"/>
<line class="st5" x1="29.2" y1="98.4" x2="25" y2="94.3"/>
<line class="st0" x1="48.3" y1="30.3" x2="48.3" y2="36.2"/>
<line class="st0" x1="51.3" y1="33.3" x2="45.4" y2="33.3"/>
<line class="st0" x1="117.3" y1="10.5" x2="117.3" y2="16.4"/>
<line class="st0" x1="120.3" y1="13.4" x2="114.4" y2="13.4"/>
<g class="giro">
	<line class="st8" x1="133.4" y1="24.6" x2="133.4" y2="26.5"/>
	<line class="st8" x1="135.2" y1="27" x2="136.7" y2="25.7"/>
	<line class="st8" x1="135.7" y1="28.9" x2="137.6" y2="28.8"/>
	<line class="st8" x1="133.4" y1="33" x2="133.4" y2="31"/>
	<line class="st8" x1="135.2" y1="30.6" x2="136.7" y2="31.8"/>
	<line class="st8" x1="131.8" y1="27" x2="130.4" y2="25.7"/>
	<line class="st8" x1="131.3" y1="28.9" x2="129.4" y2="28.8"/>
	<line class="st8" x1="131.8" y1="30.6" x2="130.4" y2="31.8"/>
</g>
<line class="st9" x1="183.5" y1="21.9" x2="185" y2="20.6"/>
<line class="st9" x1="183.5" y1="25.5" x2="185" y2="26.8"/>
<line class="st9" x1="180.2" y1="21.9" x2="178.7" y2="20.6"/>
<line class="st9" x1="180.2" y1="25.5" x2="178.7" y2="26.8"/>
<line class="st0" x1="121.9" y1="76.1" x2="123.4" y2="74.8"/>
<line class="st0" x1="121.9" y1="79.7" x2="123.4" y2="80.9"/>
<line class="st0" x1="118.6" y1="76.1" x2="117.1" y2="74.8"/>
<line class="st0" x1="118.6" y1="79.7" x2="117.1" y2="80.9"/>
<line class="st5" x1="68.2" y1="61" x2="69.6" y2="59.7"/>
<line class="st5" x1="68.2" y1="64.6" x2="69.6" y2="65.8"/>
<line class="st5" x1="64.8" y1="61" x2="63.3" y2="59.7"/>
<line class="st5" x1="64.8" y1="64.6" x2="63.3" y2="65.8"/>
<line class="st0" x1="45.9" y1="97" x2="47.3" y2="95.7"/>
<line class="st0" x1="45.9" y1="100.6" x2="47.3" y2="101.8"/>
<line class="st0" x1="42.5" y1="97" x2="41" y2="95.7"/>
<line class="st0" x1="42.5" y1="100.6" x2="41" y2="101.8"/>
<line class="st4" x1="215.6" y1="50.5" x2="217.1" y2="49.2"/>
<line class="st4" x1="215.6" y1="54.1" x2="217.1" y2="55.4"/>
<line class="st4" x1="212.2" y1="50.5" x2="210.8" y2="49.2"/>
<line class="st4" x1="212.2" y1="54.1" x2="210.8" y2="55.4"/>
<g>
	<line class="st0" x1="158" y1="18.3" x2="158" y2="20.3"/>
	<line class="st0" x1="159.8" y1="20.8" x2="161.3" y2="19.5"/>
	<line class="st0" x1="160.3" y1="22.6" x2="162.2" y2="22.6"/>
	<line class="st0" x1="158" y1="26.8" x2="158" y2="24.8"/>
	<line class="st0" x1="159.8" y1="24.3" x2="161.3" y2="25.6"/>
	<line class="st0" x1="156.4" y1="20.8" x2="154.9" y2="19.5"/>
	<line class="st0" x1="155.9" y1="22.6" x2="154" y2="22.6"/>
	<line class="st0" x1="156.4" y1="24.3" x2="154.9" y2="25.6"/>
</g>
<g>
	<line class="st4" x1="159.7" y1="62.3" x2="159.7" y2="64.3"/>
	<line class="st4" x1="161.5" y1="64.8" x2="163" y2="63.5"/>
	<line class="st4" x1="162" y1="66.6" x2="163.9" y2="66.6"/>
	<line class="st4" x1="159.7" y1="70.8" x2="159.7" y2="68.8"/>
	<line class="st4" x1="161.5" y1="68.3" x2="163" y2="69.6"/>
	<line class="st4" x1="158.1" y1="64.8" x2="156.6" y2="63.5"/>
	<line class="st4" x1="157.6" y1="66.6" x2="155.7" y2="66.6"/>
	<line class="st4" x1="158.1" y1="68.3" x2="156.6" y2="69.6"/>
</g>
<g>
	<line class="st0" x1="105.3" y1="73.6" x2="105.3" y2="75.5"/>
	<line class="st0" x1="107.1" y1="76" x2="108.6" y2="74.7"/>
	<line class="st0" x1="107.6" y1="77.9" x2="109.5" y2="77.9"/>
	<line class="st0" x1="105.3" y1="82" x2="105.3" y2="80.1"/>
	<line class="st0" x1="107.1" y1="79.6" x2="108.6" y2="80.9"/>
	<line class="st0" x1="103.7" y1="76" x2="102.3" y2="74.7"/>
	<line class="st0" x1="103.2" y1="77.9" x2="101.3" y2="77.9"/>
	<line class="st0" x1="103.7" y1="79.6" x2="102.3" y2="80.9"/>
</g>
<g>
	<line class="st0" x1="79.9" y1="37" x2="79.9" y2="38.9"/>
	<line class="st0" x1="81.7" y1="39.4" x2="83.2" y2="38.1"/>
	<line class="st0" x1="82.2" y1="41.3" x2="84.2" y2="41.2"/>
	<line class="st0" x1="79.9" y1="45.4" x2="79.9" y2="43.4"/>
	<line class="st0" x1="81.7" y1="43" x2="83.2" y2="44.2"/>
	<line class="st0" x1="78.4" y1="39.4" x2="76.9" y2="38.1"/>
	<line class="st0" x1="77.8" y1="41.3" x2="75.9" y2="41.2"/>
	<line class="st0" x1="78.4" y1="43" x2="76.9" y2="44.2"/>
</g>
<line class="st10" x1="145.1" y1="42.1" x2="154.5" y2="42.1"/>
<g>
	<line class="st10" x1="152.8" y1="40.3" x2="154.5" y2="42"/>
	<line class="st10" x1="152.8" y1="43.8" x2="154.5" y2="42.1"/>
</g>
<line class="st10" x1="154.5" y1="45.7" x2="145.1" y2="45.7"/>
<g>
	<line class="st10" x1="146.8" y1="43.9" x2="145.1" y2="45.6"/>
	<line class="st10" x1="146.8" y1="47.4" x2="145.1" y2="45.7"/>
</g>
<line class="st0" x1="154.9" y1="33.5" x2="184.3" y2="33.5"/>
<g>
	<path class="st6" d="M131.3,75.9c1.5,0,1.5,2,2.9,2c1.5,0,1.5-2,2.9-2c1.5,0,1.5,2,2.9,2c1.5,0,1.5-2,2.9-2c1.5,0,1.5,2,2.9,2
		c1.5,0,1.5-2,2.9-2c1.5,0,1.5,2,2.9,2c1.5,0,1.5-2,2.9-2c1.5,0,1.5,2,2.9,2c1.5,0,1.5-2,2.9-2"/>
</g>
<g>
	<path class="st0" d="M20.2,43.8c1.5,0,1.5,2,2.9,2c1.5,0,1.5-2,2.9-2c1.5,0,1.5,2,2.9,2s1.5-2,2.9-2c1.5,0,1.5,2,2.9,2
		c1.5,0,1.5-2,2.9-2c1.5,0,1.5,2,2.9,2c1.5,0,1.5-2,2.9-2c1.5,0,1.5,2,2.9,2c1.5,0,1.5-2,2.9-2"/>
</g>
<line class="st4" x1="193.2" y1="15.6" x2="193.2" y2="29.9"/>
<line class="st4" x1="193.2" y1="29.9" x2="215" y2="29.9"/>
<rect x="195.9" y="22.6" class="st4" width="4" height="7.3"/>
<rect x="202.7" y="19" class="st4" width="4" height="11"/>
<rect x="208.8" y="14.9" class="st11" width="4" height="15"/>
<circle class="st12" cx="131.8" cy="12.5" r="2.9"/>
<circle class="st0" cx="48.4" cy="21.3" r="2.9"/>
<circle class="st5" cx="80.1" cy="62.5" r="2.6"/>
<circle class="st5" cx="113.4" cy="107.2" r="2.6"/>
<circle class="st4" cx="135.8" cy="98.6" r="10.5"/>
<circle class="st4" cx="135.8" cy="98.6" r="7.9"/>
<path class="st4" d="M238.3,88.9c0,5.8-4.7,10.5-10.5,10.5c-5.8,0-10.5-4.7-10.5-10.5c0-5.8,4.7-10.5,10.5-10.5
	C233.6,78.3,238.3,83.1,238.3,88.9z"/>
<circle class="st13" cx="227.8" cy="88.9" r="7.9"/>
<circle class="st5" cx="56.6" cy="98" r="2.6"/>
<circle class="st4" cx="182" cy="45.5" r="2.6"/>
<rect x="60.5" y="11.7" transform="matrix(0.7 0.7141 -0.7141 0.7 28.2865 -40.434)" class="st6" width="3.5" height="3.5"/>
<rect x="24.2" y="51.6" transform="matrix(0.7 0.7141 -0.7141 0.7 45.8734 -2.4989)" class="st0" width="3.5" height="3.5"/>
<rect x="145.1" y="28.9" transform="matrix(0.6998 0.7143 -0.7143 0.6998 65.8826 -95.6397)" class="st6" width="3.4" height="3.4"/>
<rect x="168.9" y="22" transform="matrix(0.6998 0.7143 -0.7143 0.6998 68.0934 -114.7236)" class="st6" width="3.4" height="3.4"/>
<rect x="159" y="51.4" transform="matrix(0.6708 0.7416 -0.7416 0.6708 92.0778 -101.6353)" class="st6" width="3.1" height="3.1"/>
<rect x="167.6" y="85.6" transform="matrix(0.6708 0.7416 -0.7416 0.6708 120.3266 -96.7533)" class="st6" width="3.1" height="3.1"/>
<rect x="199.3" y="54.3" transform="matrix(0.6998 0.7143 -0.7143 0.6998 100.3142 -126.778)" class="st6" width="3.4" height="3.4"/>
<rect x="209.1" y="39.6" transform="matrix(0.6998 0.7143 -0.7143 0.6998 92.733 -138.1637)" class="st6" width="3.4" height="3.4"/>
<rect x="222" y="66.7" transform="matrix(0.6998 0.7143 -0.7143 0.6998 115.9462 -139.2303)" class="st6" width="3.4" height="3.4"/>
<line class="st6" x1="70.3" y1="21.3" x2="76.9" y2="21.3"/>
<line class="st0" x1="62.8" y1="41.3" x2="71.4" y2="41.3"/>
<line class="st0" x1="62.8" y1="44.9" x2="71.4" y2="44.9"/>
<line class="st0" x1="56.5" y1="41.3" x2="59.7" y2="41.3"/>
<line class="st0" x1="56.5" y1="44.9" x2="59.7" y2="44.9"/>
<line class="st0" x1="71" y1="51.7" x2="79.7" y2="51.7"/>
<line class="st0" x1="64.8" y1="51.7" x2="68" y2="51.7"/>
<line class="st6" x1="70.3" y1="27.7" x2="76.9" y2="27.7"/>
<line class="st6" x1="70.3" y1="31" x2="80.9" y2="31"/>
<line class="st6" x1="70.3" y1="24.3" x2="81.7" y2="24.3"/>
<circle class="st14" cx="76.9" cy="12.6" r="0.9"/>
<circle class="st14" cx="80.1" cy="12.6" r="0.9"/>
<circle class="st14" cx="83.3" cy="12.6" r="0.9"/>
<circle class="st14" cx="86.6" cy="12.6" r="0.9"/>
<circle class="st14" cx="89.8" cy="12.6" r="0.9"/>
<circle class="st14" cx="93" cy="12.6" r="0.9"/>
<circle class="st14" cx="96.3" cy="12.6" r="0.9"/>
<circle class="st14" cx="99.5" cy="12.6" r="0.9"/>
<circle class="st14" cx="102.8" cy="12.6" r="0.9"/>
<circle class="st14" cx="106" cy="12.6" r="0.9"/>
<rect x="170.6" y="63" class="st15" width="21.8" height="3.2"/>
<path class="st15" d="M191.3,66.4v9.7c0,1.1-0.9,2-2,2h-15.6c-1.1,0-2-0.9-2-2v-9.7"/>
<circle class="st16" cx="179.4" cy="88" r="0.9"/>
<circle class="st16" cx="182.6" cy="88" r="0.9"/>
<circle class="st16" cx="185.9" cy="88" r="0.9"/>
<circle class="st16" cx="189.1" cy="88" r="0.9"/>
<circle class="st16" cx="192.3" cy="88" r="0.9"/>
<circle class="st16" cx="195.6" cy="88" r="0.9"/>
<circle class="st16" cx="198.8" cy="88" r="0.9"/>
<circle class="st16" cx="202" cy="88" r="0.9"/>
<circle class="st16" cx="205.3" cy="88" r="0.9"/>
<circle class="st16" cx="208.5" cy="88" r="0.9"/>
<g>
	<line class="st7" x1="50.1" y1="7.6" x2="52.1" y2="9.5"/>
	<line class="st7" x1="56.1" y1="5.7" x2="52.1" y2="9.5"/>
</g>
<g>
	<line class="st6" x1="61.8" y1="22.4" x2="63.8" y2="24.3"/>
	<line class="st6" x1="67.7" y1="20.5" x2="63.8" y2="24.3"/>
</g>
<g>
	<line class="st6" x1="61.8" y1="28.8" x2="63.8" y2="30.8"/>
	<line class="st6" x1="67.7" y1="26.9" x2="63.8" y2="30.8"/>
</g>
<line class="st0" x1="15.5" y1="59.7" x2="22.1" y2="59.7"/>
<line class="st0" x1="15.5" y1="66.1" x2="22.1" y2="66.1"/>
<line class="st0" x1="15.5" y1="69.4" x2="26.2" y2="69.4"/>
<line class="st0" x1="15.5" y1="62.7" x2="27" y2="62.7"/>
<g>
	<line class="st0" x1="7" y1="60.7" x2="9" y2="62.7"/>
	<line class="st0" x1="13" y1="58.9" x2="9" y2="62.7"/>
</g>
<g>
	<line class="st0" x1="7" y1="67.2" x2="9" y2="69.2"/>
	<line class="st0" x1="13" y1="65.3" x2="9" y2="69.2"/>
</g>
<path class="st4" d="M56.9,71.5c0,1.1-0.9,1.9-1.9,1.9H36.8c-1.1,0-1.9-0.9-1.9-1.9V57.8c0-1.1,0.9-1.9,1.9-1.9H55
	c1.1,0,1.9,0.9,1.9,1.9V71.5z"/>
<rect x="34.9" y="58.9" class="st13" width="22" height="11.6"/>
<polygon class="st1" points="134,101.8 134,95 139.2,98.6 "/>
<polygon class="st15" points="98.4,109.2 82.7,109.2 82.7,87.6 93.6,87.6 98.4,92.8 "/>
<line class="st4" x1="43.1" y1="73.4" x2="43.1" y2="77.5"/>
<line class="st4" x1="49.2" y1="73.4" x2="49.2" y2="77.5"/>
<line class="st4" x1="37.7" y1="77.5" x2="54.1" y2="77.5"/>
<path class="st9" d="M181.3,62.8V58c-3.3-5.3-10.5,0.5-5.6,4.8L181.3,62.8z"/>
<path class="st9" d="M181.4,63h4.8c5.3-3.3-0.4-10.5-4.8-5L181.4,63z"/>
<path class="st4" d="M230.4,86.9c0,0,0-2.3-2.3-2.3c-1.5,0-2.2,1.8-2.1,2.6c0,0.8,0.6,2.2,2.2,2.2c2.1,0,2.2,2.1,2.2,2.1
	s0.1,2.3-2.2,2.3c-1.9,0-2.2-1.8-2.2-2.7"/>
<line class="st4" x1="228.2" y1="83.4" x2="228.2" y2="84.6"/>
<line class="st4" x1="228.2" y1="93.7" x2="228.2" y2="94.6"/>
<path class="st14" d="M282.3,65.6h-2.2v-2.2c0-0.4-0.3-0.8-0.8-0.8c-0.4,0-0.8,0.3-0.8,0.8v2.2h-2.2c-0.4,0-0.8,0.3-0.8,0.8
	c0,0.4,0.3,0.8,0.8,0.8h2.2v2.2c0,0.4,0.3,0.8,0.8,0.8c0.4,0,0.8-0.3,0.8-0.8v-2.2h2.2c0.4,0,0.8-0.3,0.8-0.8
	C283.1,66,282.8,65.6,282.3,65.6z"/>
</svg>
