<?xml version="1.0" encoding="utf-8"?>
<!-- Generator: Adobe Illustrator 19.0.0, SVG Export Plug-In . SVG Version: 6.00 Build 0)  -->
<svg version="1.1" id="Capa_2" xmlns="http://www.w3.org/2000/svg" xmlns:xlink="http://www.w3.org/1999/xlink" x="0px" y="0px"
	 viewBox="-141.2 362.2 246.8 117.7" style="enable-background:new -141.2 362.2 246.8 117.7;" xml:space="preserve">
<style type="text/css">
	.st0{fill:none;stroke:#262828;stroke-linecap:round;stroke-linejoin:round;stroke-miterlimit:10;}
	.st1{fill:#51A9BF;}
	.st2{fill:none;stroke:#879191;stroke-width:1.5;stroke-linecap:round;stroke-linejoin:round;stroke-miterlimit:10;}
	.st3{fill:none;stroke:#879191;stroke-linecap:round;stroke-linejoin:round;stroke-miterlimit:10;}
	.st4{fill:none;stroke:#ADBABA;stroke-linecap:round;stroke-linejoin:round;stroke-miterlimit:10;}
	.st5{fill:none;stroke:#ADBABA;stroke-width:1.5;stroke-linecap:round;stroke-linejoin:round;stroke-miterlimit:10;}
	.st6{fill:none;stroke:#879191;stroke-miterlimit:10;}
	.st7{fill:none;stroke:#0A0A0A;stroke-linecap:round;stroke-miterlimit:10;}
	.st8{fill:none;stroke:#879191;stroke-width:0.75;stroke-linecap:round;stroke-linejoin:round;stroke-miterlimit:10;}
	.st9{fill:#51A9BF;stroke:#262828;stroke-linecap:round;stroke-linejoin:round;stroke-miterlimit:10;}
	.st10{fill:none;stroke:#B2BFBF;stroke-width:1.5;stroke-miterlimit:10;}
	.st11{fill:#879191;}
	.st12{fill:#262828;}
	.st13{fill:#51A9BF;stroke:#000000;stroke-width:0.75;stroke-linecap:round;stroke-linejoin:round;stroke-miterlimit:10;}
	.st14{fill:none;stroke:#0A0A0A;stroke-linecap:round;stroke-linejoin:round;stroke-miterlimit:10;}
	.st15{fill:#51A9BF;stroke:#262828;stroke-miterlimit:10;}
	.st16{fill:#51A9BF;stroke:#000000;stroke-linecap:round;stroke-linejoin:round;stroke-miterlimit:10;}
</style>
<g id="lupa">
	<line class="st0" x1="-20.1" y1="412.2" x2="-18.5" y2="413.7"/>
	<g>
		<circle class="st1" cx="-32.8" cy="401.3" r="13.2"/>
		<circle class="st0" cx="-32.6" cy="401.3" r="16.6"/>
		<circle class="st0" cx="-32.8" cy="401.3" r="11.6"/>
		<line class="st0" x1="-22.1" y1="414.2" x2="-20.5" y2="415.7"/>
		<path class="st0" d="M-5.7,429.6c-0.9,0.9-2.3,0.9-3.2,0.1l-11-10.7c-0.9-0.9-0.9-2.3-0.1-3.2l1.1-1.1c0.9-0.9,2.3-0.9,3.2-0.1
			l11,10.7c0.9,0.9,0.9,2.3,0.1,3.2L-5.7,429.6z"/>
		<line class="st0" x1="-19" y1="420" x2="-14.6" y2="415.6"/>
		<line class="st0" x1="-10.5" y1="428.1" x2="-6.3" y2="423.9"/>
	</g>
</g>
<line class="st2" x1="-5.9" y1="406.1" x2="-5.9" y2="412"/>
<line class="st2" x1="-3" y1="409" x2="-8.8" y2="409"/>
<line class="st3" x1="6.6" y1="379.6" x2="2.4" y2="383.7"/>
<line class="st3" x1="6.6" y1="383.7" x2="2.5" y2="379.6"/>
<line class="st3" x1="18" y1="370.9" x2="13.8" y2="375"/>
<g id="cruz">
	<line class="st3" x1="17.9" y1="375" x2="13.8" y2="370.9"/>
</g>
<line class="st0" x1="58.8" y1="406.6" x2="54.6" y2="410.7"/>
<line class="st0" x1="58.8" y1="410.8" x2="54.7" y2="406.6"/>
<line class="st4" x1="66.4" y1="460.3" x2="62.2" y2="464.4"/>
<line class="st4" x1="66.4" y1="464.5" x2="62.2" y2="460.3"/>
<line class="st0" x1="27.8" y1="404.9" x2="27.8" y2="410.8"/>
<line class="st0" x1="30.8" y1="407.8" x2="24.9" y2="407.8"/>
<line class="st0" x1="17.2" y1="447.5" x2="17.2" y2="453.4"/>
<line class="st0" x1="20.1" y1="450.5" x2="14.2" y2="450.5"/>
<line class="st2" x1="-44" y1="423.1" x2="-44" y2="429"/>
<line class="st2" x1="-41" y1="426.1" x2="-46.9" y2="426.1"/>
<line class="st2" x1="-25.9" y1="454.6" x2="-25.9" y2="460.5"/>
<line class="st2" x1="-23" y1="457.6" x2="-28.8" y2="457.6"/>
<line class="st5" x1="-116.4" y1="443.4" x2="-116.4" y2="449.3"/>
<line class="st5" x1="-113.4" y1="446.3" x2="-119.3" y2="446.3"/>
<line class="st5" x1="-70.5" y1="458.3" x2="-70.5" y2="464.2"/>
<line class="st5" x1="-67.5" y1="461.3" x2="-73.4" y2="461.3"/>
<line class="st5" x1="-47.1" y1="438.2" x2="-51.3" y2="442.2"/>
<line class="st5" x1="-47.2" y1="442.3" x2="-51.2" y2="438"/>
<line class="st2" x1="-110.6" y1="457.6" x2="-114.8" y2="461.7"/>
<line class="st2" x1="-110.6" y1="461.7" x2="-114.8" y2="457.6"/>
<line class="st3" x1="-91.5" y1="393.6" x2="-91.5" y2="399.5"/>
<line class="st3" x1="-88.5" y1="396.6" x2="-94.4" y2="396.6"/>
<line class="st3" x1="-22.5" y1="373.8" x2="-22.5" y2="379.7"/>
<line class="st3" x1="-19.5" y1="376.7" x2="-25.4" y2="376.7"/>
<g>
	<line class="st6" x1="-6.4" y1="387.9" x2="-6.4" y2="389.8"/>
	<line class="st6" x1="-4.6" y1="390.3" x2="-3.1" y2="389"/>
	<line class="st6" x1="-4.1" y1="392.2" x2="-2.2" y2="392.1"/>
	<line class="st6" x1="-6.4" y1="396.3" x2="-6.4" y2="394.3"/>
	<line class="st6" x1="-4.6" y1="393.9" x2="-3.1" y2="395.1"/>
	<line class="st6" x1="-8" y1="390.3" x2="-9.4" y2="389"/>
	<line class="st6" x1="-8.5" y1="392.2" x2="-10.4" y2="392.1"/>
	<line class="st6" x1="-8" y1="393.9" x2="-9.4" y2="395.1"/>
</g>
<line class="st7" x1="43.7" y1="385.2" x2="45.2" y2="383.9"/>
<line class="st7" x1="43.7" y1="388.8" x2="45.2" y2="390.1"/>
<line class="st7" x1="40.4" y1="385.2" x2="38.9" y2="383.9"/>
<line class="st7" x1="40.4" y1="388.8" x2="38.9" y2="390.1"/>
<line class="st3" x1="-17.9" y1="439.4" x2="-16.4" y2="438.1"/>
<line class="st3" x1="-17.9" y1="443" x2="-16.4" y2="444.2"/>
<line class="st3" x1="-21.2" y1="439.4" x2="-22.7" y2="438.1"/>
<line class="st3" x1="-21.2" y1="443" x2="-22.7" y2="444.2"/>
<line class="st2" x1="-71.6" y1="424.3" x2="-70.2" y2="423"/>
<line class="st2" x1="-71.6" y1="427.9" x2="-70.2" y2="429.1"/>
<line class="st2" x1="-75" y1="424.3" x2="-76.5" y2="423"/>
<line class="st2" x1="-75" y1="427.9" x2="-76.5" y2="429.1"/>
<line class="st3" x1="-93.9" y1="460.3" x2="-92.5" y2="459"/>
<line class="st3" x1="-93.9" y1="463.9" x2="-92.5" y2="465.1"/>
<line class="st3" x1="-97.3" y1="460.3" x2="-98.8" y2="459"/>
<line class="st3" x1="-97.3" y1="463.9" x2="-98.8" y2="465.1"/>
<g id="giro">
	<line class="st0" x1="75.8" y1="413.8" x2="77.3" y2="412.5"/>
	<line class="st0" x1="75.8" y1="417.4" x2="77.3" y2="418.7"/>
	<line class="st0" x1="72.4" y1="413.8" x2="71" y2="412.5"/>
	<line class="st0" x1="72.4" y1="417.4" x2="71" y2="418.7"/>
</g>
<g>
	<line class="st3" x1="18.2" y1="381.6" x2="18.2" y2="383.6"/>
	<line class="st3" x1="20" y1="384.1" x2="21.5" y2="382.8"/>
	<line class="st3" x1="20.5" y1="385.9" x2="22.4" y2="385.9"/>
	<line class="st3" x1="18.2" y1="390.1" x2="18.2" y2="388.1"/>
	<line class="st3" x1="20" y1="387.6" x2="21.5" y2="388.9"/>
	<line class="st3" x1="16.6" y1="384.1" x2="15.1" y2="382.8"/>
	<line class="st3" x1="16.1" y1="385.9" x2="14.2" y2="385.9"/>
	<line class="st3" x1="16.6" y1="387.6" x2="15.1" y2="388.9"/>
</g>
<g>
	<line class="st0" x1="19.9" y1="425.6" x2="19.9" y2="427.6"/>
	<line class="st0" x1="21.7" y1="428.1" x2="23.2" y2="426.8"/>
	<line class="st0" x1="22.2" y1="429.9" x2="24.1" y2="429.9"/>
	<line class="st0" x1="19.9" y1="434.1" x2="19.9" y2="432.1"/>
	<line class="st0" x1="21.7" y1="431.6" x2="23.2" y2="432.9"/>
	<line class="st0" x1="18.3" y1="428.1" x2="16.8" y2="426.8"/>
	<line class="st0" x1="17.8" y1="429.9" x2="15.9" y2="429.9"/>
	<line class="st0" x1="18.3" y1="431.6" x2="16.8" y2="432.9"/>
</g>
<g>
	<line class="st3" x1="-34.5" y1="436.9" x2="-34.5" y2="438.8"/>
	<line class="st3" x1="-32.7" y1="439.3" x2="-31.2" y2="438"/>
	<line class="st3" x1="-32.2" y1="441.2" x2="-30.3" y2="441.2"/>
	<line class="st3" x1="-34.5" y1="445.3" x2="-34.5" y2="443.4"/>
	<line class="st3" x1="-32.7" y1="442.9" x2="-31.2" y2="444.2"/>
	<line class="st3" x1="-36.1" y1="439.3" x2="-37.5" y2="438"/>
	<line class="st3" x1="-36.6" y1="441.2" x2="-38.5" y2="441.2"/>
	<line class="st3" x1="-36.1" y1="442.9" x2="-37.5" y2="444.2"/>
</g>
<g>
	<line class="st3" x1="-59.9" y1="400.3" x2="-59.9" y2="402.2"/>
	<line class="st3" x1="-58.1" y1="402.7" x2="-56.6" y2="401.4"/>
	<line class="st3" x1="-57.6" y1="404.6" x2="-55.6" y2="404.5"/>
	<line class="st3" x1="-59.9" y1="408.7" x2="-59.9" y2="406.7"/>
	<line class="st3" x1="-58.1" y1="406.3" x2="-56.6" y2="407.5"/>
	<line class="st3" x1="-61.4" y1="402.7" x2="-62.9" y2="401.4"/>
	<line class="st3" x1="-62" y1="404.6" x2="-63.9" y2="404.5"/>
	<line class="st3" x1="-61.4" y1="406.3" x2="-62.9" y2="407.5"/>
</g>
<line class="st8" x1="5.3" y1="405.4" x2="14.7" y2="405.4"/>
<g>
	<line class="st8" x1="13" y1="403.6" x2="14.7" y2="405.3"/>
	<line class="st8" x1="13" y1="407.1" x2="14.7" y2="405.4"/>
</g>
<line class="st8" x1="14.7" y1="409" x2="5.3" y2="409"/>
<g>
	<line class="st8" x1="7" y1="407.2" x2="5.3" y2="408.9"/>
	<line class="st8" x1="7" y1="410.7" x2="5.3" y2="409"/>
</g>
<line class="st3" x1="15.1" y1="396.8" x2="44.5" y2="396.8"/>
<g id="lineas">
	<g>
		<path class="st4" d="M-8.5,439.2c1.5,0,1.5,2,2.9,2c1.5,0,1.5-2,2.9-2c1.5,0,1.5,2,2.9,2c1.5,0,1.5-2,2.9-2c1.5,0,1.5,2,2.9,2
			c1.5,0,1.5-2,2.9-2c1.5,0,1.5,2,2.9,2c1.5,0,1.5-2,2.9-2c1.5,0,1.5,2,2.9,2c1.5,0,1.5-2,2.9-2"/>
	</g>
	<g>
		<path class="st3" d="M-119.6,407.1c1.5,0,1.5,2,2.9,2c1.5,0,1.5-2,2.9-2c1.5,0,1.5,2,2.9,2s1.5-2,2.9-2c1.5,0,1.5,2,2.9,2
			c1.5,0,1.5-2,2.9-2c1.5,0,1.5,2,2.9,2c1.5,0,1.5-2,2.9-2c1.5,0,1.5,2,2.9,2c1.5,0,1.5-2,2.9-2"/>
	</g>
</g>
<g id="grafico">
	<line class="st0" x1="53.4" y1="378.9" x2="53.4" y2="393.2"/>
	<line class="st0" x1="53.4" y1="393.2" x2="75.2" y2="393.2"/>
	<rect x="56.1" y="385.9" class="st0" width="4" height="7.3"/>
	<rect x="62.9" y="382.3" class="st0" width="4" height="10.9"/>
	<rect x="69" y="378.2" class="st9" width="4" height="15"/>
</g>
<circle class="st10" cx="-8" cy="375.8" r="2.9"/>
<g id="circulo">
	<circle class="st3" cx="-91.4" cy="384.6" r="2.9"/>
</g>
<circle class="st2" cx="-59.7" cy="425.8" r="2.6"/>
<circle class="st2" cx="-26.4" cy="470.5" r="2.6"/>
<circle class="st2" cx="-83.2" cy="461.3" r="2.6"/>
<circle class="st0" cx="42.2" cy="408.8" r="2.6"/>
<rect x="-79.3" y="375" transform="matrix(0.7 0.7141 -0.7141 0.7 245.7482 168.3904)" class="st4" width="3.5" height="3.5"/>
<rect x="-115.7" y="414.9" transform="matrix(0.7 0.7141 -0.7141 0.7 263.3793 206.3431)" class="st3" width="3.5" height="3.5"/>
<rect x="5.2" y="392.2" transform="matrix(0.6998 0.7143 -0.7143 0.6998 283.437 113.3348)" class="st4" width="3.4" height="3.4"/>
<rect x="29" y="385.3" transform="matrix(0.6998 0.7143 -0.7143 0.6998 285.6354 94.2553)" class="st4" width="3.4" height="3.4"/>
<rect x="19.1" y="414.6" transform="matrix(0.6708 0.7416 -0.7416 0.6708 315.4566 121.6892)" class="st4" width="3.1" height="3.1"/>
<rect x="27.8" y="448.9" transform="matrix(0.6708 0.7416 -0.7416 0.6708 343.7131 126.5166)" class="st4" width="3.1" height="3.1"/>
<rect x="59.4" y="417.5" transform="matrix(0.6998 0.7143 -0.7143 0.6998 317.8214 82.1765)" class="st4" width="3.4" height="3.4"/>
<rect x="69.2" y="402.9" transform="matrix(0.6998 0.7143 -0.7143 0.6998 310.2668 70.8141)" class="st4" width="3.4" height="3.4"/>
<rect id="cuadrado" x="82.1" y="430" transform="matrix(0.6998 0.7143 -0.7143 0.6998 333.5649 69.7357)" class="st4" width="3.4" height="3.4"/>
<line class="st4" x1="-69.5" y1="384.6" x2="-62.9" y2="384.6"/>
<line class="st3" x1="-77" y1="404.6" x2="-68.4" y2="404.6"/>
<line class="st3" x1="-77" y1="408.2" x2="-68.4" y2="408.2"/>
<line class="st3" x1="-83.3" y1="404.6" x2="-80.1" y2="404.6"/>
<line class="st3" x1="-83.3" y1="408.2" x2="-80.1" y2="408.2"/>
<line class="st3" x1="-68.8" y1="415" x2="-60.1" y2="415"/>
<line class="st3" x1="-75" y1="415" x2="-71.8" y2="415"/>
<line class="st4" x1="-69.5" y1="391" x2="-62.9" y2="391"/>
<line class="st4" x1="-69.5" y1="394.3" x2="-58.9" y2="394.3"/>
<line class="st4" x1="-69.5" y1="387.6" x2="-58.1" y2="387.6"/>
<g id="puntos">
	<circle class="st11" cx="-62.9" cy="375.9" r="0.9"/>
	<circle class="st11" cx="-59.7" cy="375.9" r="0.9"/>
	<circle class="st11" cx="-56.5" cy="375.9" r="0.9"/>
	<circle class="st11" cx="-53.2" cy="375.9" r="0.9"/>
	<circle class="st11" cx="-50" cy="375.9" r="0.9"/>
	<circle class="st11" cx="-46.8" cy="375.9" r="0.9"/>
	<circle class="st11" cx="-43.5" cy="375.9" r="0.9"/>
	<circle class="st11" cx="-40.3" cy="375.9" r="0.9"/>
	<circle class="st11" cx="-37" cy="375.9" r="0.9"/>
	<circle class="st11" cx="-33.8" cy="375.9" r="0.9"/>
</g>
<circle class="st12" cx="39.6" cy="451.3" r="0.9"/>
<circle class="st12" cx="42.8" cy="451.3" r="0.9"/>
<circle class="st12" cx="46.1" cy="451.3" r="0.9"/>
<circle class="st12" cx="49.3" cy="451.3" r="0.9"/>
<circle class="st12" cx="52.5" cy="451.3" r="0.9"/>
<circle class="st12" cx="55.8" cy="451.3" r="0.9"/>
<circle class="st12" cx="59" cy="451.3" r="0.9"/>
<circle class="st12" cx="62.2" cy="451.3" r="0.9"/>
<circle class="st12" cx="65.5" cy="451.3" r="0.9"/>
<circle class="st12" cx="68.7" cy="451.3" r="0.9"/>
<g>
	<line class="st5" x1="-89.7" y1="370.9" x2="-87.7" y2="372.8"/>
	<line class="st5" x1="-83.7" y1="369" x2="-87.7" y2="372.8"/>
</g>
<g>
	<line class="st4" x1="-78" y1="385.7" x2="-76" y2="387.6"/>
	<line class="st4" x1="-72.1" y1="383.8" x2="-76" y2="387.6"/>
</g>
<g>
	<line class="st4" x1="-78" y1="392.1" x2="-76" y2="394.1"/>
	<line class="st4" x1="-72.1" y1="390.2" x2="-76" y2="394.1"/>
</g>
<line class="st3" x1="-124.3" y1="423" x2="-117.7" y2="423"/>
<line class="st3" x1="-124.3" y1="429.4" x2="-117.7" y2="429.4"/>
<line class="st3" x1="-124.3" y1="432.7" x2="-113.6" y2="432.7"/>
<line class="st3" x1="-124.3" y1="426" x2="-112.8" y2="426"/>
<g>
	<line class="st3" x1="-132.8" y1="424" x2="-130.8" y2="426"/>
	<line class="st3" x1="-126.8" y1="422.2" x2="-130.8" y2="426"/>
</g>
<g>
	<line class="st3" x1="-132.8" y1="430.5" x2="-130.8" y2="432.5"/>
	<line class="st3" x1="-126.8" y1="428.6" x2="-130.8" y2="432.5"/>
</g>
<g id="play">
	<circle class="st0" cx="-4" cy="461.9" r="10.5"/>
	<circle class="st0" cx="-4" cy="461.9" r="7.9"/>
	<polygon class="st13" points="-5.8,465.1 -5.8,458.3 -0.6,461.9 	"/>
</g>
<g id="hoja">
	<g id="lineas_1_">
		<line class="st3" x1="-53.6" y1="454.6" x2="-46.6" y2="454.6"/>
		<line class="st3" x1="-53.6" y1="458.3" x2="-44.5" y2="458.3"/>
		<line class="st3" x1="-53.6" y1="461.9" x2="-44.5" y2="461.9"/>
		<line class="st3" x1="-53.6" y1="465.5" x2="-44.5" y2="465.5"/>
		<line class="st3" x1="-53.6" y1="469.1" x2="-44.5" y2="469.1"/>
	</g>
	<polygon class="st13" points="-41.4,456.3 -46.6,456.3 -46.6,450.9 	"/>
	<polygon class="st14" points="-41.4,472.5 -57.1,472.5 -57.1,450.9 -46.2,450.9 -41.4,456.1 	"/>
</g>
<g id="pc">
	<path class="st0" d="M-82.9,434.8c0,1.1-0.9,1.9-1.9,1.9H-103c-1.1,0-1.9-0.9-1.9-1.9v-13.7c0-1.1,0.9-1.9,1.9-1.9h18.2
		c1.1,0,1.9,0.9,1.9,1.9V434.8z"/>
	<rect x="-104.9" y="422.2" class="st15" width="22" height="11.6"/>
	<line class="st0" x1="-96.7" y1="436.7" x2="-96.7" y2="440.8"/>
	<line class="st0" x1="-90.6" y1="436.7" x2="-90.6" y2="440.8"/>
	<line class="st0" x1="-102.1" y1="440.8" x2="-85.7" y2="440.8"/>
</g>
<g id="regalo">
	<rect x="40.3" y="426.3" class="st16" width="2.9" height="14.9"/>
	<rect x="30.8" y="426.3" class="st14" width="21.8" height="3.2"/>
	<path class="st14" d="M51.5,429.7v9.7c0,1.1-0.9,2-2,2H33.9c-1.1,0-2-0.9-2-2v-9.7"/>
	<path class="st7" d="M41.5,426.1v-4.8c-3.3-5.3-10.5,0.5-5.6,4.8H41.5z"/>
	<path class="st7" d="M41.6,426.3h4.8c5.3-3.3-0.4-10.5-4.8-5C41.6,421.3,41.6,426.3,41.6,426.3z"/>
</g>
<g id="pesos">
	<path class="st0" d="M98.5,452.2c0,5.8-4.7,10.5-10.5,10.5s-10.5-4.7-10.5-10.5s4.7-10.5,10.5-10.5
		C93.8,441.6,98.5,446.4,98.5,452.2z"/>
	<circle class="st15" cx="88" cy="452.2" r="7.9"/>
	<path class="st0" d="M90.6,450.2c0,0,0-2.3-2.3-2.3c-1.5,0-2.2,1.8-2.1,2.6c0,0.8,0.6,2.2,2.2,2.2c2.1,0,2.2,2.1,2.2,2.1
		s0.1,2.3-2.2,2.3c-1.9,0-2.2-1.8-2.2-2.7"/>
	<line class="st0" x1="88.4" y1="446.7" x2="88.4" y2="447.9"/>
	<line class="st0" x1="88.4" y1="457" x2="88.4" y2="457.9"/>
</g>
</svg>
