<?xml version="1.0" encoding="utf-8"?>
<!-- Generator: Adobe Illustrator 19.0.0, SVG Export Plug-In . SVG Version: 6.00 Build 0)  -->
<svg version="1.1" id="Capa_1" xmlns="http://www.w3.org/2000/svg" xmlns:xlink="http://www.w3.org/1999/xlink" x="0px" y="0px"
	 viewBox="-140 0 806 499.9" style="enable-background:new -140 0 806 499.9;" xml:space="preserve">
	 <mask id="mask">
	   <circle r="10" cx="100" cy="100"
	          class="c-mask-circle"/>
	 </mask>

	 <clipPath id="clip-path">
	   <circle r="10" cx="100" cy="100"
	          class="c-cp-circle"/>
	 </clipPath>
<style type="text/css">
	.st0{fill:#EDEDED;}
	.st1{enable-background:new    ;}
	.st2{fill:#92A4B0;}
	.st3{fill:#D5D7CD;}
	.st4{fill:#FFFFFF;}
	.st5{fill:url(#XMLID_7_);}
	.st6{fill:#415460;}
	.st7{fill:#2F3154;}
	.st8{fill:#3E6985;}
	.st9{fill:#617C8C;}
	.st10{fill:#DEDEDE;}
	.st11{fill:#B4B7DE;}
	.st12{fill:#D7D8DE;}
	.st13{fill:#D64128;}
	.st14{fill:#F26B54;}
	.st15{fill:#E8533A;}
	.st16{fill:url(#XMLID_8_);}
	.st17{fill:#1B9971;}
	.st18{fill:#60D4AF;}
	.st19{fill:#36C295;}
	.st20{fill:url(#XMLID_9_);}
	.st21{fill:#DE2A48;}
	.st22{fill:#FF617B;}
	.st23{fill:#DE3551;}
	.st24{fill:url(#XMLID_10_);}
	.st25{fill:#F9FF3D;}
	.st26{fill:#F29B06;}
	.st27{fill:#FFD006;}
	.st28{fill:#FFB406;}
	.st29{fill:url(#XMLID_11_);}
	.st30{fill:#329FBA;}
	.st31{fill:#5BCACC;}
	.st32{fill:#45BACC;}
	.st33{fill:url(#XMLID_12_);}
	.st34{fill:#3382E0;}
	.st35{fill:#60BCF5;}
	.st36{fill:#35A4E8;}
	.st37{fill:url(#XMLID_13_);}
	.st38{fill:url(#XMLID_26_);}
	.st39{fill:#3B5998;}
	.st40{fill:#274A87;}
</style>
<g id="OBJECTS">
</g>
<g>
	<g>
		<g id="XMLID_470_">
			<path id="XMLID_578_" class="st0" d="M585.5,203.7L197.8,429c-19.4,11.2-50.9,11.2-70.3,0L-58,321.9
				c-9.8-5.7-14.7-13.1-14.7-20.5l-0.1,36.4c0,7.4,4.9,14.9,14.7,20.5l185.5,107.1c19.5,11.2,51,11.2,70.3,0l387.7-225.3
				c9.6-5.6,14.4-12.9,14.5-20.2l0.1-36.4C600,190.8,595.1,198.1,585.5,203.7z"/>
			<g id="XMLID_559_">
				<g id="XMLID_574_" class="st1">
					<path id="XMLID_577_" class="st2" d="M585.5,196.6L197.8,421.9c-19.4,11.2-50.9,11.2-70.3,0L-58,314.8
						c-9.8-5.7-14.7-13.1-14.7-20.5l-0.1,36.4c0,7.4,4.9,14.9,14.7,20.5l185.5,107.1c19.5,11.2,51,11.2,70.3,0L585.4,233
						c9.6-5.6,14.4-12.9,14.5-20.2l0.1-36.4C600,183.7,595.1,191,585.5,196.6z"/>
					<g id="XMLID_575_">
						<path id="XMLID_576_" class="st3" d="M585.3,155.8c19.5,11.2,19.6,29.5,0.2,40.7L197.8,421.9c-19.4,11.2-50.9,11.2-70.3,0
							L-58,314.8c-19.5-11.2-19.6-29.5-0.2-40.7L329.5,48.8c19.4-11.3,50.9-11.2,70.3,0L585.3,155.8z"/>
					</g>
				</g>
			</g>
			<g id="XMLID_555_">
				<path id="XMLID_557_" class="st4" d="M574.4,157.2c18.6,10.7,18.7,28.1,0.2,38.9L198.9,414.5c-18.5,10.7-48.5,10.7-67.1,0
					l-177-102.2c-18.6-10.7-18.7-28.1-0.2-38.9L330.3,55.1c18.5-10.7,48.5-10.7,67.1,0L574.4,157.2z"/>
			</g>
			
				<linearGradient id="XMLID_7_" gradientUnits="userSpaceOnUse" x1="596.1541" y1="302.7797" x2="744.9861" y2="44.995" gradientTransform="matrix(1 0 0 -1 -400 441.89)">
				<stop  offset="0" style="stop-color:#FFFFFF;stop-opacity:0"/>
				<stop  offset="0.4525" style="stop-color:#FDFEFF;stop-opacity:0.4525"/>
				<stop  offset="0.6155" style="stop-color:#F6F9FD;stop-opacity:0.6155"/>
				<stop  offset="0.7317" style="stop-color:#EBF0FA;stop-opacity:0.7317"/>
				<stop  offset="0.8256" style="stop-color:#DAE4F6;stop-opacity:0.8256"/>
				<stop  offset="0.9061" style="stop-color:#C4D4F1;stop-opacity:0.9061"/>
				<stop  offset="0.976" style="stop-color:#A9C0EB;stop-opacity:0.976"/>
				<stop  offset="1" style="stop-color:#9EB8E8"/>
			</linearGradient>
			<path id="XMLID_554_" class="st5" d="M585.5,196.6L197.8,421.9c-19.4,11.2-50.9,11.2-70.3,0L-58,314.8
				c-9.8-5.7-14.7-13.1-14.7-20.5l-0.1,36.4c0,7.4,4.9,14.9,14.7,20.5l185.5,107.1c19.5,11.2,51,11.2,70.3,0L585.4,233
				c9.6-5.6,14.4-12.9,14.5-20.2l0.1-36.4C600,183.7,595.1,191,585.5,196.6z"/>
			<g id="XMLID_550_">
				<polygon id="XMLID_553_" class="st6" points="562,197.4 219.4,396.1 -14.1,261.2 328.4,62.5 				"/>
				<g id="XMLID_551_">
					<polygon id="XMLID_552_" class="st7" points="562,197.4 541.8,209.2 308.1,74.3 328.4,62.5 					"/>
				</g>
			</g>
			<g id="XMLID_520_">
				<g id="XMLID_548_">
					<path id="XMLID_549_" class="st8" d="M552.9,235.6c0,4.4-3.1,9.8-6.9,12l-60.4,34.9c-2.8,1.6-5.3,1.1-6.4-1
						c-0.4-0.8-0.6-1.8-0.6-2.9c0-4.4,3.1-9.8,7-12.1l60.4-34.9c1-0.6,1.9-0.8,2.7-0.9C551.1,230.4,552.9,232.3,552.9,235.6z"/>
				</g>
				<g id="XMLID_521_">
					<path id="XMLID_539_" class="st9" d="M549.3,233.6c0,4.4-3.1,9.8-6.9,12l-60.4,34.9c-1,0.6-1.9,0.9-2.8,0.9
						c-0.4-0.8-0.6-1.8-0.6-2.9c0-4.4,3.1-9.8,7-12.1l60.4-34.9c1-0.6,1.9-0.8,2.7-0.9C549,231.4,549.3,232.4,549.3,233.6z"/>
				</g>
			</g>
			<g id="XMLID_514_">
				<g id="XMLID_518_">
					<path id="XMLID_519_" class="st10" d="M489.9,131.7c-0.2,0.4-0.7,0.8-1.2,1.1c-2.1,1.2-5.4,1.2-7.5,0l-41.4-23.9
						c-0.6-0.3-1-0.7-1.2-1.1c-0.7-1.1-0.3-2.4,1.2-3.3c2.1-1.2,5.5-1.2,7.5,0l41.4,23.9C490.2,129.3,490.6,130.6,489.9,131.7z"/>
				</g>
				<g id="XMLID_516_">
					<path id="XMLID_517_" class="st11" d="M489.9,131.7c-0.2,0.4-0.7,0.8-1.2,1.1c-2.1,1.2-5.4,1.2-7.5,0l-41.4-23.9
						c-0.6-0.3-1-0.7-1.2-1.1c0.2-0.4,0.6-0.8,1.2-1.1c2.1-1.2,5.5-1.2,7.5,0l41.4,23.9C489.2,130.9,489.7,131.3,489.9,131.7z"/>
				</g>
			</g>
			<g id="XMLID_505_">
				<g id="XMLID_510_">
					<path id="XMLID_513_" class="st12" d="M96.5,340.5c4.4,2.5,4.4,6.6,0.1,9.1L80,359.3c-4.3,2.5-11.4,2.5-15.8,0l-16.6-9.6
						c-4.4-2.5-4.4-6.6-0.1-9.1l16.5-9.6c4.3-2.5,11.4-2.5,15.8,0L96.5,340.5z"/>
					<g id="XMLID_511_">
						<path id="XMLID_512_" class="st11" d="M91.8,341.4c3.5,2,3.6,5.3,0.1,7.4l-13.3,7.7c-3.5,2-9.2,2-12.7,0l-13.4-7.7
							c-3.5-2-3.5-5.3,0-7.4l13.3-7.7c3.5-2,9.2-2,12.7,0L91.8,341.4z"/>
					</g>
				</g>
				<g id="XMLID_508_">
					<path id="XMLID_509_" class="st10" d="M158.2,389.8c2.4,1.4,2.4,3.7,0,5.1c-2.4,1.4-6.3,1.4-8.7,0l-24.8-14.3
						c-2.4-1.4-2.4-3.7,0-5.1c2.4-1.4,6.3-1.4,8.7,0L158.2,389.8z"/>
				</g>
				<g id="XMLID_506_">
					<path id="XMLID_507_" class="st10" d="M18.9,309.4c2.4,1.4,2.4,3.7,0,5.1c-2.4,1.4-6.3,1.4-8.7,0l-24.8-14.3
						c-2.4-1.4-2.4-3.7,0-5.1c2.4-1.4,6.3-1.4,8.7,0L18.9,309.4z"/>
				</g>
			</g>
			<g id="XMLID_500_">
				<g id="XMLID_503_">
					<path id="XMLID_504_" class="st8" d="M14.3,375.1c0,2.4,1.7,5.4,3.9,6.7l33.5,19.4c1.6,0.9,2.9,0.6,3.5-0.6
						c0.2-0.4,0.3-1,0.3-1.6c0-2.5-1.7-5.5-3.9-6.7l-33.5-19.4c-0.5-0.3-1.1-0.5-1.5-0.5C15.2,372.3,14.3,373.3,14.3,375.1z"/>
				</g>
				<g id="XMLID_501_">
					<path id="XMLID_502_" class="st9" d="M16.3,374.1c0,2.5,1.7,5.4,3.9,6.7l33.5,19.4c0.5,0.3,1.1,0.5,1.5,0.5
						c0.2-0.4,0.3-1,0.3-1.6c0-2.5-1.7-5.5-3.9-6.7l-33.5-19.4c-0.5-0.3-1.1-0.5-1.5-0.5C16.4,372.8,16.3,373.4,16.3,374.1z"/>
				</g>
			</g>
			<g id="XMLID_494_">
				<g id="XMLID_498_">
					<path id="XMLID_499_" class="st8" d="M69.6,406.7c0,0.9-0.2,1.6-0.5,2.1c-0.7,1.1-2.2,1.4-3.9,0.4c-2.4-1.4-4.4-4.8-4.4-7.6
						c0-1.9,0.9-3,2.2-3.1c0.6,0,1.4,0.1,2.2,0.6C67.6,400.6,69.6,404,69.6,406.7z"/>
				</g>
				<g id="XMLID_496_">
					<path id="XMLID_497_" class="st9" d="M69.6,406.7c0,0.9-0.2,1.6-0.5,2.1c-0.6,0.1-1.4-0.1-2.2-0.6c-2.4-1.4-4.4-4.8-4.4-7.6
						c0-0.9,0.2-1.6,0.6-2.1c0.6,0,1.4,0.1,2.2,0.6C67.6,400.6,69.6,404,69.6,406.7z"/>
				</g>
			</g>
			<polygon id="XMLID_493_" class="st7" points="163.2,297.4 120.3,322.3 59.8,287.3 103,262.7 			"/>
			<polygon id="XMLID_492_" class="st7" points="392.4,135.5 337.8,167.2 253,118.1 307.9,86.7 			"/>
			<polygon id="XMLID_491_" class="st7" points="96.2,258.8 53.4,283.7 9.9,258.5 53.1,233.8 			"/>
			<polygon id="XMLID_488_" class="st7" points="265.5,356.5 222.6,381.4 179.2,356.2 222.3,331.6 			"/>
			<polygon id="XMLID_487_" class="st7" points="519.8,210.1 465.6,241.6 410.8,209.7 465.3,178.6 			"/>
			<polygon id="XMLID_485_" class="st7" points="456.6,173.7 402.5,205.1 347.7,173.3 402.2,142.2 			"/>
			<polygon id="XMLID_484_" class="st7" points="337.4,187.2 308.7,204 206.7,144.9 235.8,128.5 			"/>
			<polygon id="XMLID_483_" class="st7" points="405.7,276.2 285.7,345.8 72.5,222.4 192.9,153.3 			"/>
			<polygon id="XMLID_481_" class="st7" points="448.7,251.4 420,268.3 390.4,250.9 419.5,234.6 			"/>
			<polygon id="XMLID_478_" class="st7" points="411,229.7 382.3,246.5 352.7,229.2 381.9,212.8 			"/>
			<polygon id="XMLID_477_" class="st7" points="374.7,208.7 346,225.5 316.4,208.2 345.6,191.8 			"/>
			<polygon id="XMLID_476_" class="st7" points="215.1,326.8 172.5,351.6 128.8,326.1 171.8,301.7 			"/>
		</g>
		<g id="XMLID_450_">
			<g id="XMLID_462_">
				<g id="XMLID_464_">
					<polygon id="XMLID_467_" class="st13" points="519.8,56.3 465.6,87.8 465.7,104.2 519.7,72.9 					"/>
					<polygon id="XMLID_466_" class="st14" points="519.8,56.3 465.6,87.8 410.8,55.9 465.3,24.8 					"/>
					<polygon id="XMLID_465_" class="st15" points="410.8,55.9 465.6,87.8 465.7,104.2 410.8,72.5 					"/>
				</g>
				
					<linearGradient id="XMLID_8_" gradientUnits="userSpaceOnUse" x1="889.115" y1="367.8643" x2="896.2983" y2="355.4225" gradientTransform="matrix(1 0 0 -1 -400 441.89)">
					<stop  offset="0" style="stop-color:#FFFFFF;stop-opacity:0"/>
					<stop  offset="0.1003" style="stop-color:#FEF9F8;stop-opacity:0.1003"/>
					<stop  offset="0.2423" style="stop-color:#FAE9E6;stop-opacity:0.2423"/>
					<stop  offset="0.4092" style="stop-color:#F4CEC7;stop-opacity:0.4092"/>
					<stop  offset="0.5949" style="stop-color:#ECA89D;stop-opacity:0.5949"/>
					<stop  offset="0.7963" style="stop-color:#E27867;stop-opacity:0.7963"/>
					<stop  offset="1" style="stop-color:#D64128"/>
				</linearGradient>
				<polygon id="XMLID_463_" class="st16" points="519.8,56.3 465.6,87.8 465.7,104.2 519.7,72.9 				"/>
			</g>
			<g id="XMLID_451_">
				<g id="XMLID_452_" class="st1">
					<g id="XMLID_460_">
						<path id="XMLID_461_" class="st4" d="M470.6,50.3c2.2,1.3,2.2,3.3,0,4.6c-2.2,1.3-5.7,1.3-7.9,0s-2.2-3.3,0-4.6
							C464.9,49,468.5,49,470.6,50.3z"/>
					</g>
					<g id="XMLID_453_">
						<path id="XMLID_457_" class="st4" d="M482.9,59.5c-3.3,2.5-8.1,4.1-13.6,4.5l-21.6,1.5c-0.9,0.1-1.8-0.1-2.4-0.5
							c-0.6-0.4-1-0.9-0.9-1.4l2.5-12.5c0.6-3.2,3.4-6,7.8-7.9s9.8-2.7,15.2-2.2c4.3,0.4,8.2,1.6,11.1,3.3c2.9,1.7,5,3.9,5.7,6.4
							C487.5,53.9,486.2,57,482.9,59.5z M468.6,60.7c3.9-0.3,7.3-1.4,9.6-3.2c2.3-1.8,3.3-4,2.7-6.2c-0.5-1.8-1.9-3.4-4-4.6
							s-4.8-2-7.9-2.3c-3.8-0.3-7.7,0.2-10.8,1.6c-3.1,1.4-5,3.3-5.5,5.6l-2.1,10.4L468.6,60.7"/>
					</g>
				</g>
			</g>
		</g>
		<g id="XMLID_422_">
			<g id="XMLID_442_">
				<g id="XMLID_444_">
					<polygon id="XMLID_449_" class="st17" points="391.9,61.5 337.8,92.9 337.8,109.3 391.9,78.1 					"/>
					<polygon id="XMLID_447_" class="st18" points="391.9,61.5 337.8,92.9 253,43.6 307.5,12.5 					"/>
					<polygon id="XMLID_445_" class="st19" points="253,43.6 337.8,92.9 337.8,109.3 253.1,60.2 					"/>
				</g>
				
					<linearGradient id="XMLID_9_" gradientUnits="userSpaceOnUse" x1="761.2956" y1="362.7016" x2="768.4786" y2="350.2602" gradientTransform="matrix(1 0 0 -1 -400 441.89)">
					<stop  offset="0" style="stop-color:#FFFFFF;stop-opacity:0"/>
					<stop  offset="9.280000e-02" style="stop-color:#F8FDFC;stop-opacity:9.280000e-02"/>
					<stop  offset="0.2242" style="stop-color:#E6F7F5;stop-opacity:0.2242"/>
					<stop  offset="0.3785" style="stop-color:#C7EEE8;stop-opacity:0.3785"/>
					<stop  offset="0.5504" style="stop-color:#9DE1D7;stop-opacity:0.5504"/>
					<stop  offset="0.7367" style="stop-color:#67D0C1;stop-opacity:0.7367"/>
					<stop  offset="0.9322" style="stop-color:#25BCA6;stop-opacity:0.9322"/>
					<stop  offset="1" style="stop-color:#0DB59C"/>
				</linearGradient>
				<polygon id="XMLID_443_" class="st20" points="391.9,61.5 337.8,92.9 337.8,109.3 391.9,78.1 				"/>
			</g>
			<g id="XMLID_423_">
				<g id="XMLID_436_">
					<path id="XMLID_441_" class="st4" d="M326,49.4c4.6,2.7,6.5,6.6,4.8,10.2c-0.4,0.9-2,1.4-3.5,1.2c-0.5-0.1-0.9-0.2-1.3-0.4
						c-0.7-0.4-1-1-0.8-1.6c1.1-2.5-0.1-5.2-3.3-7.1c-3.2-1.8-7.8-2.6-12.2-1.9c-1,0.2-2.1,0-2.8-0.4c-0.3-0.2-0.6-0.5-0.7-0.7
						c-0.4-0.9,0.5-1.8,2-2C314.6,45.6,321.4,46.7,326,49.4z"/>
				</g>
				<g id="XMLID_434_">
					<path id="XMLID_435_" class="st4" d="M315.5,55.5c2,1.1,2,3,0,4.1c-2,1.1-5.1,1.1-7.1,0c-2-1.1-2-3,0-4.1
						C310.4,54.3,313.6,54.3,315.5,55.5z"/>
				</g>
				<g id="XMLID_432_">
					<path id="XMLID_433_" class="st4" d="M336.4,43.3c7.4,4.3,10.3,10.5,7.7,16.4c-0.4,0.9-2,1.4-3.5,1.2c-0.5-0.1-0.9-0.2-1.3-0.4
						c-0.7-0.4-1-1-0.8-1.6c2.1-4.7-0.2-9.7-6.2-13.2c-5.9-3.4-14.6-4.8-22.7-3.5c-1,0.2-2.1,0-2.8-0.4c-0.3-0.2-0.6-0.5-0.7-0.7
						c-0.4-0.9,0.5-1.8,2-2C318.2,37.4,329,39.1,336.4,43.3z"/>
				</g>
			</g>
		</g>
		<g id="XMLID_374_">
			<g id="XMLID_382_">
				<g id="XMLID_384_">
					<polygon id="XMLID_387_" class="st21" points="215.1,248.5 172.5,273.3 172.6,289.7 215.1,265.1 					"/>
					<polygon id="XMLID_386_" class="st22" points="215.1,248.5 172.5,273.3 128.8,247.9 171.8,223.5 					"/>
					<polygon id="XMLID_385_" class="st23" points="128.8,247.9 172.5,273.3 172.6,289.7 128.9,264.5 					"/>
				</g>
				
					<linearGradient id="XMLID_10_" gradientUnits="userSpaceOnUse" x1="590.2476" y1="179.0288" x2="597.4306" y2="166.5874" gradientTransform="matrix(1 0 0 -1 -400 441.89)">
					<stop  offset="0" style="stop-color:#FFFFFF;stop-opacity:0"/>
					<stop  offset="0.1009" style="stop-color:#FEF8F9;stop-opacity:0.1009"/>
					<stop  offset="0.2438" style="stop-color:#FBE6E9;stop-opacity:0.2438"/>
					<stop  offset="0.4117" style="stop-color:#F6C7CF;stop-opacity:0.4117"/>
					<stop  offset="0.5986" style="stop-color:#F09DAB;stop-opacity:0.5986"/>
					<stop  offset="0.7993" style="stop-color:#E7677D;stop-opacity:0.7993"/>
					<stop  offset="1" style="stop-color:#DE2A48"/>
				</linearGradient>
				<polygon id="XMLID_383_" class="st24" points="215.1,248.5 172.5,273.3 172.6,289.7 215.1,265.1 				"/>
			</g>
			<g id="XMLID_375_">
				<g id="XMLID_378_">
					<path id="XMLID_379_" class="st4" d="M190.1,249.7c0.9,0.5,0.9,1.4,0,1.9l-15,8.7c-0.9,0.5-2.4,0.5-3.3,0l-23-13.3
						c-0.9-0.5-0.9-1.4,0-1.9l15-8.7c0.9-0.5,2.4-0.5,3.3,0l5.4,3.1l2.7-1.6c0.4-0.3,1-0.4,1.7-0.4c0.6,0,1.2,0.1,1.7,0.4l8.8,5.1
						c0.9,0.5,0.9,1.4,0,1.9l-2.8,1.6L190.1,249.7z M173.5,257.4l11.6-6.8l-5.5-3.2c-0.9-0.5-0.9-1.4,0-1.9l2.8-1.6l-5.4-3.1
						l-2.7,1.6c-0.4,0.3-1,0.4-1.7,0.4c-0.6,0-1.2-0.1-1.7-0.4l-5.5-3.2l-11.6,6.8L173.5,257.4"/>
				</g>
				<g id="XMLID_376_">
					<path id="XMLID_377_" class="st4" d="M172.9,246.4c1.7,1,1.7,2.6,0,3.5c-1.7,1-4.4,1-6.1,0c-1.7-1-1.7-2.6,0-3.5
						C168.5,245.4,171.2,245.4,172.9,246.4z"/>
				</g>
			</g>
		</g>
		<g id="XMLID_255_">
			<g id="XMLID_267_">
				<rect id="XMLID_268_" x="214.1" y="324.8" class="st25" width="2" height="2"/>
			</g>
			<g id="XMLID_258_">
				<path id="XMLID_259_" class="st25" d="M214.1,320.9l0-3.8l2,0l0,3.8L214.1,320.9z M214.1,313.2l0-3.8l2,0l0,3.8L214.1,313.2z
					 M214.1,305.6l0-3.8l2,0l0,3.8L214.1,305.6z M214.1,297.9l0-3.8h2l0,3.8L214.1,297.9z M214.1,290.2l0-3.8h2l0,3.8H214.1z
					 M214.1,282.5l0-3.8l2,0l0,3.8L214.1,282.5z M214.1,274.8l0-3.8l2,0l0,3.8L214.1,274.8z"/>
			</g>
			<g id="XMLID_256_">
				<rect id="XMLID_257_" x="214.1" y="265.1" class="st25" width="2" height="2"/>
			</g>
		</g>
		<g id="XMLID_242_">
			<g id="XMLID_249_">
				<g id="XMLID_251_">
					<polygon id="XMLID_254_" class="st26" points="265.2,296.7 222.7,321.5 222.7,337.9 265.2,313.3 					"/>
					<polygon id="XMLID_253_" class="st27" points="265.2,296.7 222.7,321.5 179,296.1 221.9,271.7 					"/>
					<polygon id="XMLID_252_" class="st28" points="179,296.1 222.7,321.5 222.7,337.9 179,312.7 					"/>
				</g>
				
					<linearGradient id="XMLID_11_" gradientUnits="userSpaceOnUse" x1="640.3949" y1="130.81" x2="647.5782" y2="118.368" gradientTransform="matrix(1 0 0 -1 -400 441.89)">
					<stop  offset="0" style="stop-color:#FFFFFF;stop-opacity:0"/>
					<stop  offset="0.1003" style="stop-color:#FEF9F8;stop-opacity:0.1003"/>
					<stop  offset="0.2423" style="stop-color:#FAE9E6;stop-opacity:0.2423"/>
					<stop  offset="0.4092" style="stop-color:#F4CEC7;stop-opacity:0.4092"/>
					<stop  offset="0.5949" style="stop-color:#ECA89D;stop-opacity:0.5949"/>
					<stop  offset="0.7963" style="stop-color:#E27867;stop-opacity:0.7963"/>
					<stop  offset="1" style="stop-color:#D64128"/>
				</linearGradient>
				<polygon id="XMLID_250_" class="st29" points="265.2,296.7 222.7,321.5 222.7,337.9 265.2,313.3 				"/>
			</g>
			<g id="XMLID_243_">
				<path id="XMLID_244_" class="st4" d="M243.8,297.6c0.8,0.5,0.8,1.2,0,1.6l-15.5,9c-0.8,0.5-2,0.5-2.8,0l-23.8-13.8
					c-0.8-0.5-0.8-1.2,0-1.6l15.5-9c0.8-0.5,2-0.5,2.8,0L243.8,297.6z M236.3,300.4l3.3-1.9l-21-12.1l-3.3,1.9l1.3,11.4L236.3,300.4
					 M226.9,305.8l6.2-3.6l-13.4-0.5L226.9,305.8 M205.9,293.7l7.1,4.1l-0.9-7.7L205.9,293.7"/>
			</g>
		</g>
		<g id="XMLID_220_">
			<g id="XMLID_221_">
				<g id="XMLID_223_">
					<polygon id="XMLID_226_" class="st30" points="96.2,215.4 53.7,240.2 53.7,256.6 96.2,232 					"/>
					<polygon id="XMLID_225_" class="st31" points="96.2,215.4 53.7,240.2 10,214.8 52.9,190.4 					"/>
					<polygon id="XMLID_224_" class="st32" points="10,214.8 53.7,240.2 53.7,256.6 10,231.4 					"/>
				</g>
				
					<linearGradient id="XMLID_12_" gradientUnits="userSpaceOnUse" x1="471.3527" y1="212.1289" x2="478.5365" y2="199.6861" gradientTransform="matrix(1 0 0 -1 -400 441.89)">
					<stop  offset="0" style="stop-color:#FFFFFF;stop-opacity:0"/>
					<stop  offset="0.1035" style="stop-color:#F8FCFD;stop-opacity:0.1035"/>
					<stop  offset="0.25" style="stop-color:#E6F3F7;stop-opacity:0.25"/>
					<stop  offset="0.4222" style="stop-color:#C7E5EC;stop-opacity:0.4222"/>
					<stop  offset="0.6138" style="stop-color:#9DD1DE;stop-opacity:0.6138"/>
					<stop  offset="0.8188" style="stop-color:#68B8CC;stop-opacity:0.8188"/>
					<stop  offset="1" style="stop-color:#329FBA"/>
				</linearGradient>
				<polygon id="XMLID_222_" class="st33" points="96.2,215.4 53.7,240.2 53.7,256.6 96.2,232 				"/>
			</g>
		</g>
		<g id="XMLID_118_">
			<g id="XMLID_129_">
				
					<rect id="XMLID_130_" x="390.9" y="78.1" transform="matrix(-9.299598e-03 -1 1 -9.299598e-03 316.4219 471.7654)" class="st25" width="2" height="2"/>
			</g>
			<g id="XMLID_121_">
				<path id="XMLID_122_" class="st25" d="M391.4,129.4l0-4.1l2,0l0,4.1L391.4,129.4z M391.3,121.2l0-4.1l2,0l0,4.1L391.3,121.2z
					 M391.2,113l0-4.1l2,0l0,4.1L391.2,113z M391.2,104.8l0-4.1l2,0l0,4.1L391.2,104.8z M391.1,96.6l0-4.1l2,0l0,4.1L391.1,96.6z
					 M391,88.3l0-4.1l2,0l0,4.1L391,88.3z"/>
			</g>
			<g id="XMLID_119_">
				
					<rect id="XMLID_120_" x="391.4" y="133.6" transform="matrix(-9.299598e-03 -1 1 -9.299598e-03 261.5205 528.2415)" class="st25" width="2" height="2"/>
			</g>
		</g>
		<g id="XMLID_78_">
			<g id="XMLID_80_">
				<polygon id="XMLID_83_" class="st34" points="405.7,186.8 285.7,256.6 285.7,273 405.7,203.4 				"/>
				<polygon id="XMLID_82_" class="st35" points="405.7,186.8 285.7,256.6 72.5,133.3 192.8,63.9 				"/>
				<polygon id="XMLID_81_" class="st36" points="72.5,133.3 285.7,256.6 285.7,273 72.5,150 				"/>
			</g>
			
				<linearGradient id="XMLID_13_" gradientUnits="userSpaceOnUse" x1="742.0554" y1="218.3305" x2="749.3658" y2="205.6685" gradientTransform="matrix(1 0 0 -1 -400 441.89)">
				<stop  offset="0" style="stop-color:#FFFFFF;stop-opacity:0"/>
				<stop  offset="0.1" style="stop-color:#F8FCFE;stop-opacity:0.1"/>
				<stop  offset="0.2416" style="stop-color:#E6F5FC;stop-opacity:0.2416"/>
				<stop  offset="0.4079" style="stop-color:#C7E9F7;stop-opacity:0.4079"/>
				<stop  offset="0.5931" style="stop-color:#9DD8F1;stop-opacity:0.5931"/>
				<stop  offset="0.7938" style="stop-color:#67C3EA;stop-opacity:0.7938"/>
				<stop  offset="1" style="stop-color:#27AAE1"/>
			</linearGradient>
			<polygon id="XMLID_79_" class="st37" points="405.7,186.8 285.7,256.6 285.7,273 405.7,203.4 			"/>
		</g>
		<polygon id="XMLID_77_" class="st4" points="318.4,237.6 318,237.8 104.9,114.7 105.1,114.5 		"/>
		<g id="XMLID_58_">
			<g id="XMLID_75_">
				<polygon id="XMLID_76_" class="st4" points="316.2,204 305.4,206.7 300.2,209.7 299.8,209.5 305,206.5 309.6,200.2 310.1,200.5 
					305.8,206.3 315.7,203.8 				"/>
			</g>
			<g id="XMLID_73_">
				<polygon id="XMLID_74_" class="st4" points="301.2,195.4 288.3,202.9 287.8,202.6 295.5,192.8 283.2,199.9 282.8,199.7 
					295.7,192.2 296.3,192.5 288.7,202.2 300.8,195.2 				"/>
			</g>
			<g id="XMLID_71_">
				<polygon id="XMLID_72_" class="st4" points="308.2,199.4 295.3,206.9 294.8,206.6 302.5,196.8 290.2,204 289.8,203.7 
					302.7,196.2 303.3,196.6 295.8,206.2 307.8,199.2 				"/>
			</g>
			<g id="XMLID_69_">
				<polygon id="XMLID_70_" class="st4" points="354.3,181.7 352.3,182.9 311,195.8 308.8,194.5 350,181.6 337.5,174.4 339.6,173.2 
									"/>
			</g>
			<g id="XMLID_67_">
				<path id="XMLID_68_" class="st4" d="M294.2,191.3l-9.7,5.6c-1.8,1-4,1.5-6,0.4c-2-1.1-1.2-2.4,0.6-3.5l9.7-5.6l0.4,0.2l-9.7,5.7
					c-1.5,0.9-2.3,2-0.6,3c1.7,1,3.6,0.5,5.2-0.4l9.7-5.7L294.2,191.3z"/>
			</g>
			<g id="XMLID_65_">
				<path id="XMLID_66_" class="st4" d="M329,166.8c5.3,3,3.6,6.3-1.3,9.2c-9.7,5.6-25.3,0.5-35.4,6.2l-0.4,0.2l12.1,7l-2,1.2
					l-14.3-8.3l1.6-1c11.9-6.9,26.8-1.2,36.1-6.6c3.9-2.3,5.3-4.6,1.5-6.9c-3.7-2.1-8-1.3-11.6,0.8l-2.3,1.3l-2.1-1.2l2.2-1.3
					C317.9,164.8,323.8,163.8,329,166.8z"/>
			</g>
			<g id="XMLID_61_">
				<path id="XMLID_62_" class="st4" d="M365.2,184.6c1.9,1.1,1.9,2.9,0,4c-1.9,1.1-4.9,1.1-6.8,0c-1.9-1.1-1.9-2.9,0-4
					C360.2,183.5,363.3,183.5,365.2,184.6z M359.8,187.7c1.1,0.6,2.8,0.6,3.9,0s1-1.6,0-2.2c-1.1-0.6-2.8-0.6-3.9,0
					C358.8,186.1,358.8,187.1,359.8,187.7"/>
			</g>
			<g id="XMLID_59_">
				<path id="XMLID_60_" class="st4" d="M284.8,185.8c2,1.1,1.3,2.4-0.5,3.4l-0.2,0.1l-0.4-0.2l0.3-0.1c1.5-0.9,2.3-2,0.6-2.9
					c-1.7-1-3.6-0.6-5.1,0.3c-3.3,1.9,1.8,4.7-1.7,6.8c-1.8,1-4,1.4-5.9,0.3c-2-1.1-1.3-2.4,0.5-3.4l0.6-0.4l0.4,0.2l-0.6,0.4
					c-1.6,0.9-2.2,2-0.5,3c1.7,1,3.6,0.6,5.1-0.3c3.3-1.9-1.8-4.7,1.7-6.8C280.8,185,282.9,184.7,284.8,185.8z"/>
			</g>
		</g>
		<g id="XMLID_44_">
			<g id="XMLID_52_">
				<g id="XMLID_54_">
					<polygon id="XMLID_57_" class="st13" points="456.6,126.4 402.5,157.9 402.6,174.3 456.6,143.1 					"/>
					<polygon id="XMLID_56_" class="st14" points="456.6,126.4 402.5,157.9 347.7,126 402.2,95 					"/>
					<polygon id="XMLID_55_" class="st15" points="347.7,126 402.5,157.9 402.6,174.3 347.7,142.6 					"/>
				</g>
				
					<linearGradient id="XMLID_26_" gradientUnits="userSpaceOnUse" x1="826.0043" y1="297.7557" x2="833.1879" y2="285.3134" gradientTransform="matrix(1 0 0 -1 -400 441.89)">
					<stop  offset="0" style="stop-color:#FFFFFF;stop-opacity:0"/>
					<stop  offset="0.1003" style="stop-color:#FEF9F8;stop-opacity:0.1003"/>
					<stop  offset="0.2423" style="stop-color:#FAE9E6;stop-opacity:0.2423"/>
					<stop  offset="0.4092" style="stop-color:#F4CEC7;stop-opacity:0.4092"/>
					<stop  offset="0.5949" style="stop-color:#ECA89D;stop-opacity:0.5949"/>
					<stop  offset="0.7963" style="stop-color:#E27867;stop-opacity:0.7963"/>
					<stop  offset="1" style="stop-color:#D64128"/>
				</linearGradient>
				<polygon id="XMLID_53_" class="st38" points="456.6,126.4 402.5,157.9 402.6,174.3 456.6,143.1 				"/>
			</g>
			<g id="XMLID_45_">
				<g id="XMLID_48_">
					<path id="XMLID_49_" class="st4" d="M419.4,115c9.6,5.5,9.6,14.5,0.1,20.1c-9.5,5.5-25.1,5.5-34.6,0
						c-9.6-5.5-9.6-14.5-0.1-20.1C394.3,109.4,409.8,109.4,419.4,115z M388.9,132.7c7.4,4.2,19.3,4.2,26.6,0
						c7.3-4.2,7.3-11.2-0.1-15.4c-7.4-4.2-19.3-4.2-26.6,0C381.5,121.6,381.5,128.5,388.9,132.7"/>
				</g>
				<g id="XMLID_46_">
					<path id="XMLID_47_" class="st4" d="M405.1,119.3c0.2,0.1,0.4,0.3,0.5,0.5l3.5,7.8c0.4,0.9-1,1.7-2.5,1.4l-13.4-2
						c-0.4-0.1-0.7-0.2-0.9-0.3c-0.8-0.4-0.9-1.2,0-1.7l9.9-5.7C403.1,118.8,404.4,118.9,405.1,119.3z"/>
				</g>
			</g>
		</g>
		<g id="XMLID_16_">
			<g id="XMLID_17_">
				<polygon id="XMLID_20_" class="st39" points="448.7,221.2 419.9,238.3 419.9,254.7 448.7,237.8 				"/>
				<polygon id="XMLID_19_" class="st39" points="448.7,221.2 419.9,238.3 390.4,220.7 419.5,204 				"/>
				<polygon id="XMLID_18_" class="st40" points="390.4,220.7 419.9,238.3 419.9,254.7 390.4,237.3 				"/>
			</g>
		</g>
		<g id="patas">
			<g id="XMLID_357_">
				<g id="XMLID_372_">
					<rect id="XMLID_373_" x="284.7" y="343.8" class="st25" width="2" height="2"/>
				</g>
				<g id="XMLID_360_">
					<path id="XMLID_361_" class="st25" d="M286.7,339.7h-2v-4.1h2V339.7z M286.7,331.6h-2v-4.1h2V331.6z M286.7,323.5h-2v-4.1h2
						V323.5z M286.7,315.4h-2v-4.1h2V315.4z M286.7,307.3h-2v-4.1h2V307.3z M286.7,299.2h-2v-4.1h2V299.2z M286.7,291h-2V287h2V291z
						 M286.7,282.9h-2v-4.1h2V282.9z M286.7,274.8h-2v-4.1h2V274.8z M286.7,266.7h-2v-4.1h2V266.7z"/>
				</g>
				<g id="XMLID_358_">
					<rect id="XMLID_359_" x="284.7" y="256.6" class="st25" width="2" height="2"/>
				</g>
			</g>
			<g id="XMLID_348_">
				<g id="XMLID_355_">
					
						<rect id="XMLID_356_" x="52.7" y="256.5" transform="matrix(-0.9999 -1.170037e-02 1.170037e-02 -0.9999 104.3261 515.6814)" class="st25" width="2" height="2"/>
				</g>
				<g id="XMLID_351_">
					<path id="XMLID_352_" class="st25" d="M54.4,277.1l-2,0l0.1-4.6l2,0L54.4,277.1z M54.6,267.8l-2,0l0.1-4.6l2,0L54.6,267.8z"/>
				</g>
				<g id="XMLID_349_">
					
						<rect id="XMLID_350_" x="52.4" y="281.7" transform="matrix(-0.9999 -1.170037e-02 1.170037e-02 -0.9999 103.443 565.9387)" class="st25" width="2" height="2"/>
				</g>
			</g>
			<g id="XMLID_339_">
				<g id="XMLID_346_">
					<rect id="XMLID_347_" x="9" y="231.4" class="st25" width="2" height="2"/>
				</g>
				<g id="XMLID_342_">
					<path id="XMLID_343_" class="st25" d="M10.9,251.8l-2,0l0-4.6l2,0L10.9,251.8z M11,242.6l-2,0l0-4.6l2,0L11,242.6z"/>
				</g>
				<g id="XMLID_340_">
					<rect id="XMLID_341_" x="8.9" y="256.5" class="st25" width="2" height="2"/>
				</g>
			</g>
			<g id="XMLID_330_">
				<g id="XMLID_337_">
					<rect id="XMLID_338_" x="95.2" y="232" class="st25" width="2" height="2"/>
				</g>
				<g id="XMLID_333_">
					<path id="XMLID_334_" class="st25" d="M95.2,252.2l0-4.6l2,0l0,4.6L95.2,252.2z M95.2,243.1l0-4.6l2,0l0,4.6L95.2,243.1z"/>
				</g>
				<g id="XMLID_331_">
					<rect id="XMLID_332_" x="95.2" y="256.8" class="st25" width="2" height="2"/>
				</g>
			</g>
			<g id="XMLID_319_">
				<g id="XMLID_328_">
					<rect id="XMLID_329_" x="221.6" y="379.4" class="st25" width="2" height="2"/>
				</g>
				<g id="XMLID_322_">
					<path id="XMLID_323_" class="st25" d="M223.6,375l-2,0l0-4.4l2,0L223.6,375z M223.7,366.2l-2,0l0-4.4l2,0L223.7,366.2z
						 M223.7,357.4l-2,0l0-4.4l2,0L223.7,357.4z M223.7,348.7l-2,0l0-4.4l2,0L223.7,348.7z"/>
				</g>
				<g id="XMLID_320_">
					<rect id="XMLID_321_" x="221.7" y="337.9" class="st25" width="2" height="2"/>
				</g>
			</g>
			<g id="XMLID_308_">
				<g id="XMLID_317_">
					
						<rect id="XMLID_318_" x="264.4" y="354.5" transform="matrix(-6.299875e-03 -1 1 -6.299875e-03 -88.356 623.1559)" class="st25" width="2" height="2"/>
				</g>
				<g id="XMLID_311_">
					<path id="XMLID_312_" class="st25" d="M264.4,350.2l0-4.4l2,0l0,4.3L264.4,350.2z M264.4,341.4l0-4.4l2,0l0,4.4L264.4,341.4z
						 M264.3,332.7l0-4.4l2,0l0,4.4L264.3,332.7z M264.3,324l0-4.4l2,0l0,4.4L264.3,324z"/>
				</g>
				<g id="XMLID_309_">
					
						<rect id="XMLID_310_" x="264.2" y="313.3" transform="matrix(-6.299875e-03 -1 1 -6.299875e-03 -47.4544 581.4919)" class="st25" width="2" height="2"/>
				</g>
			</g>
			<g id="XMLID_297_">
				<g id="XMLID_306_">
					
						<rect id="XMLID_307_" x="178.2" y="354.2" transform="matrix(-3.399980e-03 -1 1 -3.399980e-03 -175.3812 535.5425)" class="st25" width="2" height="2"/>
				</g>
				<g id="XMLID_300_">
					<path id="XMLID_301_" class="st25" d="M178.2,349.8l0-4.4l2,0l0,4.4L178.2,349.8z M178.1,341l0-4.4l2,0l0,4.4L178.1,341z
						 M178.1,332.2l0-4.4l2,0l0,4.4L178.1,332.2z M178.1,323.5l0-4.4l2,0l0,4.4L178.1,323.5z"/>
				</g>
				<g id="XMLID_298_">
					
						<rect id="XMLID_299_" x="178" y="312.7" transform="matrix(-3.399980e-03 -1 1 -3.399980e-03 -134.0491 493.7658)" class="st25" width="2" height="2"/>
				</g>
			</g>
			<g id="XMLID_283_">
				<g id="XMLID_295_">
					<rect id="XMLID_296_" x="171.5" y="349.6" class="st25" width="2" height="2"/>
				</g>
				<g id="XMLID_286_">
					<path id="XMLID_287_" class="st25" d="M173.5,345.7l-2,0l0-3.9l2,0L173.5,345.7z M173.6,338l-2,0l0-3.9l2,0L173.6,338z
						 M173.6,330.3l-2,0l0-3.9l2,0L173.6,330.3z M173.6,322.5l-2,0l0-3.9l2,0L173.6,322.5z M173.6,314.8l-2,0l0-3.9l2,0L173.6,314.8
						z M173.6,307.1l-2,0l0-3.9l2,0L173.6,307.1z M173.6,299.4l-2,0l0-3.9l2,0L173.6,299.4z"/>
				</g>
				<g id="XMLID_284_">
					<rect id="XMLID_285_" x="171.6" y="289.7" class="st25" width="2" height="2"/>
				</g>
			</g>
			<g id="XMLID_269_">
				<g id="XMLID_281_">
					<rect id="XMLID_282_" x="127.9" y="264.5" class="st25" width="2" height="2"/>
				</g>
				<g id="XMLID_272_">
					<path id="XMLID_273_" class="st25" d="M129.8,320.3l-2,0l0-3.8h2L129.8,320.3z M129.9,312.6l-2,0l0-3.8l2,0L129.9,312.6z
						 M129.9,304.9l-2,0l0-3.8l2,0L129.9,304.9z M129.9,297.2l-2,0l0-3.8h2L129.9,297.2z M129.9,289.5h-2l0-3.8h2L129.9,289.5z
						 M129.9,281.8h-2l0-3.8l2,0L129.9,281.8z M129.9,274.2l-2,0l0-3.8l2,0L129.9,274.2z"/>
				</g>
				<g id="XMLID_270_">
					<rect id="XMLID_271_" x="127.8" y="324.1" class="st25" width="2" height="2"/>
				</g>
			</g>
			<g id="XMLID_227_">
				<g id="XMLID_240_">
					<rect id="XMLID_241_" x="71.5" y="150" class="st25" width="2" height="2"/>
				</g>
				<g id="XMLID_230_">
					<path id="XMLID_231_" class="st25" d="M73.5,216.4l-2,0l0-4l2,0L73.5,216.4z M73.5,208.3l-2,0l0-4l2,0L73.5,208.3z M73.5,200.3
						l-2,0l0-4l2,0L73.5,200.3z M73.5,192.2l-2,0l0-4l2,0L73.5,192.2z M73.5,184.2l-2,0l0-4l2,0L73.5,184.2z M73.5,176.1l-2,0l0-4
						l2,0L73.5,176.1z M73.5,168.1l-2,0l0-4l2,0L73.5,168.1z M73.5,160l-2,0l0-4l2,0L73.5,160z"/>
				</g>
				<g id="XMLID_228_">
					<rect id="XMLID_229_" x="71.5" y="220.4" class="st25" width="2" height="2"/>
				</g>
			</g>
			<g id="XMLID_197_">
				<g id="XMLID_218_">
					<rect id="XMLID_219_" x="464.7" y="104.2" class="st25" width="2" height="2"/>
				</g>
				<g id="XMLID_200_">
					<path id="XMLID_201_" class="st25" d="M466.6,235.5h-2l0-4h2L466.6,235.5z M466.6,227.4h-2l0-4h2L466.6,227.4z M466.6,219.4h-2
						l0-4h2L466.6,219.4z M466.6,211.3h-2l0-4h2L466.6,211.3z M466.6,203.2h-2l0-4h2L466.6,203.2z M466.6,195.1h-2l0-4h2
						L466.6,195.1z M466.6,187h-2l0-4h2L466.6,187z M466.6,178.9h-2l0-4h2L466.6,178.9z M466.6,170.8l-2,0l0-4h2L466.6,170.8z
						 M466.6,162.8h-2l0-4l2,0L466.6,162.8z M466.7,154.7h-2l0-4h2L466.7,154.7z M466.7,146.6l-2,0l0-4h2L466.7,146.6z M466.7,138.5
						h-2l0-4l2,0L466.7,138.5z M466.7,130.4h-2l0-4h2L466.7,130.4z M466.7,122.3l-2,0l0-4h2L466.7,122.3z M466.7,114.2h-2l0-4l2,0
						L466.7,114.2z"/>
				</g>
				<g id="XMLID_198_">
					<rect id="XMLID_199_" x="464.6" y="239.6" class="st25" width="2" height="2"/>
				</g>
			</g>
			<g id="XMLID_174_">
				<g id="XMLID_195_">
					<rect id="XMLID_196_" x="518.8" y="208.1" class="st25" width="2" height="2"/>
				</g>
				<g id="XMLID_177_">
					<path id="XMLID_178_" class="st25" d="M518.7,204.1l0-4l2,0l0,4H518.7z M518.7,196l0-4l2,0l0,4H518.7z M518.7,187.9l0-4h2l0,4
						H518.7z M518.7,179.9l0-4l2,0l0,4H518.7z M518.7,171.8l0-4h2l0,4H518.7z M518.7,163.7l0-4h2l0,4H518.7z M518.7,155.7l0-4h2l0,4
						H518.7z M518.7,147.6l0-4h2l0,4H518.7z M518.7,139.5l0-4h2l0,4H518.7z M518.7,131.4l0-4h2l0,4H518.7z M518.7,123.4l0-4h2l0,4
						L518.7,123.4z M518.7,115.3l0-4h2l0,4H518.7z M518.7,107.2l0-4h2l0,4L518.7,107.2z M518.7,99.2l0-4h2l0,4H518.7z M518.7,91.1
						l0-4h2l0,4L518.7,91.1z M518.7,83l0-4h2l0,4L518.7,83z"/>
				</g>
				<g id="XMLID_175_">
					<rect id="XMLID_176_" x="518.7" y="72.9" class="st25" width="2" height="2"/>
				</g>
			</g>
			<g id="XMLID_164_">
				<g id="XMLID_172_">
					<rect id="XMLID_173_" x="401.6" y="174.3" class="st25" width="2" height="2"/>
				</g>
				<g id="XMLID_167_">
					<path id="XMLID_168_" class="st25" d="M403.5,199.3l-2,0l0-3.8l2,0L403.5,199.3z M403.5,191.6l-2,0l0-3.8l2,0L403.5,191.6z
						 M403.5,183.9l-2,0l0-3.8l2,0L403.5,183.9z"/>
				</g>
				<g id="XMLID_165_">
					<rect id="XMLID_166_" x="401.5" y="203.1" class="st25" width="2" height="2"/>
				</g>
			</g>
			<g id="XMLID_154_">
				<g id="XMLID_162_">
					<rect id="XMLID_163_" x="455.6" y="143.1" class="st25" width="2" height="2"/>
				</g>
				<g id="XMLID_157_">
					<path id="XMLID_158_" class="st25" d="M455.6,167.9l0-3.8l2,0l0,3.8L455.6,167.9z M455.6,160.3l0-3.8l2,0l0,3.8L455.6,160.3z
						 M455.6,152.7l0-3.8l2,0l0,3.8L455.6,152.7z"/>
				</g>
				<g id="XMLID_155_">
					<rect id="XMLID_156_" x="455.6" y="171.7" class="st25" width="2" height="2"/>
				</g>
			</g>
			<g id="XMLID_144_">
				<g id="XMLID_152_">
					<rect id="XMLID_153_" x="346.7" y="142.6" class="st25" width="2" height="2"/>
				</g>
				<g id="XMLID_147_">
					<path id="XMLID_148_" class="st25" d="M348.7,167.5l-2,0l0-3.8l2,0L348.7,167.5z M348.7,159.9l-2,0l0-3.8l2,0L348.7,159.9z
						 M348.7,152.3l-2,0l0-3.8l2,0L348.7,152.3z"/>
				</g>
				<g id="XMLID_145_">
					<rect id="XMLID_146_" x="346.7" y="171.3" class="st25" width="2" height="2"/>
				</g>
			</g>
			<g id="XMLID_131_">
				<g id="XMLID_142_">
					<rect id="XMLID_143_" x="336.8" y="109.3" class="st25" width="2" height="2"/>
				</g>
				<g id="XMLID_134_">
					<path id="XMLID_135_" class="st25" d="M338.8,161.1h-2v-4.1h2V161.1z M338.8,152.8h-2v-4.1h2V152.8z M338.8,144.5h-2v-4.1h2
						V144.5z M338.8,136.2h-2v-4.1h2V136.2z M338.8,127.9h-2v-4.1h2V127.9z M338.8,119.6h-2v-4.1h2V119.6z"/>
				</g>
				<g id="XMLID_132_">
					<rect id="XMLID_133_" x="336.8" y="165.2" class="st25" width="2" height="2"/>
				</g>
			</g>
			<g id="XMLID_105_">
				<g id="XMLID_116_">
					<rect id="XMLID_117_" x="252.1" y="60.2" class="st25" width="2" height="2"/>
				</g>
				<g id="XMLID_108_">
					<path id="XMLID_109_" class="st25" d="M254,112l-2,0l0-4.1l2,0L254,112z M254,103.7l-2,0l0-4.1l2,0L254,103.7z M254,95.4l-2,0
						l0-4.1l2,0L254,95.4z M254,87.1l-2,0l0-4.1l2,0L254,87.1z M254,78.8l-2,0l0-4.1l2,0L254,78.8z M254.1,70.5l-2,0l0-4.1l2,0
						L254.1,70.5z"/>
				</g>
				<g id="XMLID_106_">
					<rect id="XMLID_107_" x="252" y="116.1" class="st25" width="2" height="2"/>
				</g>
			</g>
			<g id="XMLID_98_">
				<g id="XMLID_103_">
					<rect id="XMLID_104_" x="418.9" y="254.7" class="st25" width="2" height="2"/>
				</g>
				<g id="XMLID_101_">
					
						<rect id="XMLID_102_" x="418.4" y="260.5" transform="matrix(-2.799989e-03 -1 1 -2.799989e-03 159.6551 682.1979)" class="st25" width="3.2" height="2"/>
				</g>
				<g id="XMLID_99_">
					
						<rect id="XMLID_100_" x="418.9" y="266.3" transform="matrix(-2.899988e-03 -1 1 -2.899988e-03 153.9151 687.9705)" class="st25" width="2" height="2"/>
				</g>
			</g>
			<g id="XMLID_91_">
				<g id="XMLID_96_">
					<rect id="XMLID_97_" x="447.7" y="237.8" class="st25" width="2" height="2"/>
				</g>
				<g id="XMLID_94_">
					
						<rect id="XMLID_95_" x="447" y="243.6" transform="matrix(-2.399993e-03 -1 1 -2.399993e-03 205.1017 693.8495)" class="st25" width="3.2" height="2"/>
				</g>
				<g id="XMLID_92_">
					<rect id="XMLID_93_" x="447.7" y="249.4" class="st25" width="2" height="2"/>
				</g>
			</g>
			<g id="XMLID_84_">
				<g id="XMLID_89_">
					<rect id="XMLID_90_" x="389.4" y="237.3" class="st25" width="2" height="2"/>
				</g>
				<g id="XMLID_87_">
					<rect id="XMLID_88_" x="389.4" y="242.5" class="st25" width="2" height="3.2"/>
				</g>
				<g id="XMLID_85_">
					
						<rect id="XMLID_86_" x="389.4" y="248.9" transform="matrix(-1 -2.899988e-03 2.899988e-03 -1 780.0804 500.9873)" class="st25" width="2" height="2"/>
				</g>
			</g>
			<g id="XMLID_21_">
				<g id="XMLID_42_">
					<rect id="XMLID_43_" x="409.8" y="72.5" class="st25" width="2" height="2"/>
				</g>
				<g id="XMLID_24_">
					<path id="XMLID_25_" class="st25" d="M411.8,203.7h-2l0-4l2,0L411.8,203.7z M411.8,195.6h-2l0-4l2,0L411.8,195.6z M411.8,187.5
						h-2l0-4h2L411.8,187.5z M411.8,179.5h-2l0-4l2,0L411.8,179.5z M411.8,171.4h-2l0-4h2L411.8,171.4z M411.8,163.3h-2l0-4h2
						L411.8,163.3z M411.8,155.2h-2l0-4h2L411.8,155.2z M411.8,147.2h-2l0-4h2L411.8,147.2z M411.8,139.1h-2l0-4h2L411.8,139.1z
						 M411.8,131h-2l0-4h2L411.8,131z M411.8,123h-2l0-4h2L411.8,123z M411.8,114.9h-2l0-4h2L411.8,114.9z M411.8,106.8l-2,0l0-4h2
						L411.8,106.8z M411.8,98.8h-2l0-4h2L411.8,98.8z M411.8,90.7l-2,0l0-4h2L411.8,90.7z M411.8,82.6l-2,0l0-4h2L411.8,82.6z"/>
				</g>
				<g id="XMLID_22_">
					<rect id="XMLID_23_" x="409.8" y="207.7" class="st25" width="2" height="2"/>
				</g>
			</g>
			<g id="XMLID_1_">
				<g id="XMLID_14_">
					<rect id="XMLID_15_" x="404.7" y="203.4" class="st25" width="2" height="2"/>
				</g>
				<g id="XMLID_4_">
					<path id="XMLID_5_" class="st25" d="M404.7,270.2l0-4l2,0l0,4L404.7,270.2z M404.7,262.1l0-4h2l0,4H404.7z M404.7,254l0-4l2,0
						l0,4L404.7,254z M404.7,245.9l0-4l2,0l0,4L404.7,245.9z M404.7,237.8l0-4l2,0l0,4L404.7,237.8z M404.7,229.7l0-4l2,0l0,4
						L404.7,229.7z M404.7,221.6l0-4h2l0,4H404.7z M404.7,213.5l0-4l2,0l0,4L404.7,213.5z"/>
				</g>
				<g id="XMLID_2_">
					<rect id="XMLID_3_" x="404.7" y="274.2" class="st25" width="2" height="2"/>
				</g>
			</g>
		</g>
		<g>
			<path class="st4" d="M71.1,212l-12.3-7.4c-4.2-2.5-10.6-2.8-14.3-0.6l-11,6.4c-3.7,2.2-3.3,6,0.9,8.5l12.3,7.4
				c4.2,2.5,10.6,2.8,14.3,0.6l11-6.4C75.6,218.3,75.2,214.5,71.1,212L71.1,212z M58.5,225.4c-2.5,1.5-6.9,1.3-9.7-0.4l-12.3-7.4
				c-2.8-1.7-3.1-4.3-0.6-5.8l11-6.4c2.5-1.5,6.9-1.3,9.7,0.4l12.3,7.4c2.8,1.7,3.1,4.3,0.6,5.8L58.5,225.4z"/>
			<path class="st4" d="M59,211.7c-3.9-2.4-9.9-2.6-13.4-0.6c-3.5,2-3.1,5.6,0.8,8c3.9,2.4,9.9,2.6,13.4,0.6S62.9,214.1,59,211.7
				L59,211.7z M48.5,217.8c-2.6-1.5-2.8-3.9-0.5-5.2c2.3-1.3,6.2-1.2,8.8,0.4s2.8,3.9,0.5,5.2C55,219.5,51.1,219.4,48.5,217.8
				L48.5,217.8z"/>
			<path class="st4" d="M68.2,215.1c-0.5-0.3-1.1-0.5-1.7-0.5c-0.6,0-1.2,0.1-1.7,0.3c-0.4,0.2-0.6,0.6-0.6,1c0,0.4,0.3,0.8,0.8,1
				c0.5,0.3,1.1,0.5,1.7,0.5c0.6,0,1.2-0.1,1.6-0.3c0.4-0.2,0.6-0.6,0.6-1C69,215.8,68.7,215.4,68.2,215.1L68.2,215.1z"/>
		</g>
		<g>
			<path class="st4" d="M426.6,220.8l-2.8-1.8l1.4-1.2c0.5-0.4,1.1-0.2,1.4,0c0.3,0.2,1.9,1.3,1.9,1.3l2.1-1.9l-2.6-1.8
				c-2.7-2-4.9-1-6.1-0.1l-1.6,1.3l-1.6-1.1l-2.7,2l1.6,1.1c-3.7,2.6-8.5,5.7-8.5,5.7l3.9,2.3c0,0,4.7-3.1,8.2-5.6l2.6,1.6
				L426.6,220.8z"/>
		</g>
		<path class="st4" d="M203.6,104.2c-1.3-0.3-2.4-0.7-3.4-1.3c1.7,0.2,3.7-0.1,5.6-0.8c-1.6-0.2-3-0.5-4.2-1.1
			c0.6-1.4,0.5-2.8-0.6-3.8c-2.2-1.9-7.1-1.5-10.9,0.8c-0.5,0.3-1,0.7-1.5,1c-3-3-3.1-7.1-0.8-11.3c-1.4,0.3-2.8,0.9-4,1.6
			c-2.4,1.5-3.9,3.3-4.1,5c-0.6-0.6-0.9-1.3-0.9-2c0,0-0.1,0-0.1,0.1c-3.4,2-4.9,4.9-3.7,6.8c-0.5-0.2-0.9-0.4-1.3-0.7
			c-0.3-0.2-0.5-0.5-0.6-0.7c-2.3,2.1-2.9,4.5-1.2,6c-3.2,0-6-0.8-7.9-2.4c-0.3-0.3-0.6-0.6-0.8-0.9c-0.3,2.7,0.7,5.1,2.9,7
			c7.2,6.2,21.8,3.2,31-2.3c0.3-0.2,0.6-0.4,0.9-0.6C199.8,104.8,201.7,104.6,203.6,104.2z"/>
	</g>
</g>
</svg>
