<?xml version="1.0" encoding="utf-8"?>
<!-- Generator: Adobe Illustrator 16.0.0, SVG Export Plug-In . SVG Version: 6.00 Build 0)  -->
<!DOCTYPE svg PUBLIC "-//W3C//DTD SVG 1.1//EN" "http://www.w3.org/Graphics/SVG/1.1/DTD/svg11.dtd">
<svg version="1.1" id="DESIGNED_BY_FREEPIK" xmlns="http://www.w3.org/2000/svg" xmlns:xlink="http://www.w3.org/1999/xlink"
	 x="0px" y="0px" width="auto" height="auto" viewBox="0 0 800 800" enable-background="new 0 0 800 800" xml:space="preserve">
<polygon fill="#007785" points="641.719,313.989 636.031,321.005 643.047,317.567 644.562,315.63 "/>
<g>
	<g>
		<g enable-background="new    ">
			<defs>
				<polygon id="SVGID_1_" enable-background="new    " points="587.701,285.646 587.895,217.424 658.836,258.381 658.643,326.604
									"/>
			</defs>
			<clipPath id="SVGID_2_">
				<use xlink:href="#SVGID_1_"  overflow="visible"/>
			</clipPath>
			<g clip-path="url(#SVGID_2_)">
				<g>
					<g>
						<g>
							<path fill="#007785" d="M656,256.744l-65.264-37.68c-1.57-0.907-2.846-0.181-2.85,1.617l-0.146,51.465
								c-0.006,1.806,1.262,3.999,2.832,4.906l46.812,27.027l5.672,13.525l5.73-6.942l7.049,4.069
								c1.564,0.903,2.839,0.177,2.844-1.629l0.146-51.465C658.831,259.841,657.564,257.647,656,256.744"/>
						</g>
					</g>
				</g>
			</g>
		</g>
	</g>
</g>
<g>
	<g>
		<g enable-background="new    ">
			<defs>
				<polygon id="SVGID_3_" enable-background="new    " points="47.243,509.977 258.679,387.104 524.709,540.695 313.272,663.569
									"/>
			</defs>
			<clipPath id="SVGID_4_">
				<use xlink:href="#SVGID_3_"  overflow="visible"/>
			</clipPath>
			<g clip-path="url(#SVGID_4_)">
				<g>
					<g>
						<g>
							<path fill="#D2D2D2" d="M514.065,534.551L269.322,393.248c-5.874-3.391-15.376-3.395-21.211-0.003L57.816,503.832
								c-5.842,3.396-5.805,8.898,0.069,12.29l244.744,141.303c5.88,3.395,15.375,3.395,21.217-0.001l190.295-110.587
								C519.977,543.446,519.945,537.946,514.065,534.551"/>
						</g>
					</g>
				</g>
			</g>
		</g>
	</g>
</g>
<g>
	<g>
		<g enable-background="new    ">
			<defs>
				<polygon id="SVGID_5_" enable-background="new    " points="64.271,357.805 64.571,251.392 110.681,278.015 110.381,384.428
									"/>
			</defs>
			<clipPath id="SVGID_6_">
				<use xlink:href="#SVGID_5_"  overflow="visible"/>
			</clipPath>
			<g clip-path="url(#SVGID_6_)">
				<g>
					<g>
						<g>
							<path fill="#EA5642" d="M74.447,277.941l0.049-17.557l26.247,15.154l-0.05,17.557L74.447,277.941 M103.587,273.919
								l-2.834-1.637l-26.247-15.154l-2.842-1.641l-0.009,3.257l-0.05,17.557l-7.093-4.096l-0.242,85.6l46.11,26.623l0.242-85.6
								l-7.094-4.095l0.05-17.558L103.587,273.919"/>
						</g>
					</g>
				</g>
			</g>
		</g>
	</g>
</g>
<g>
	<g>
		<g enable-background="new    ">
			<defs>
				<polygon id="SVGID_7_" enable-background="new    " points="262.287,382.814 262.98,138.268 529.004,291.856 528.311,536.402
									"/>
			</defs>
			<clipPath id="SVGID_8_">
				<use xlink:href="#SVGID_7_"  overflow="visible"/>
			</clipPath>
			<g clip-path="url(#SVGID_8_)">
				<g>
					<g>
						<g>
							<path fill="#4C4C4C" d="M274.29,378.722l0.631-222.537l242.081,139.765l-0.631,222.537L274.29,378.722 M518.367,285.716
								l-244.75-141.307c-5.874-3.392-10.652-0.668-10.671,6.082l-0.624,220.094c-0.019,6.757,4.728,14.979,10.602,18.37
								l244.75,141.307c5.873,3.391,10.652,0.668,10.671-6.089l0.624-220.094C528.988,297.329,524.24,289.106,518.367,285.716"/>
							<path fill="#00D4DA" d="M280.532,371.686l0.231-81.517l73.194,42.259l-0.231,81.516L280.532,371.686 M358.291,416.579
								l0.231-81.516l73.188,42.254l-0.23,81.517L358.291,416.579 M436.477,461.721l0.232-81.517l73.193,42.259l-0.231,81.516
								L436.477,461.721 M280.792,280.008l0.023-8.157l229.138,132.293l-0.022,8.158L280.792,280.008 M280.833,265.718l0.023-8.151
								L509.994,389.86l-0.023,8.15L280.833,265.718 M280.881,248.322l0.231-81.515l152.523,88.06l-0.231,81.514L280.881,248.322
								 M440.492,340.473l0.23-81.515l69.529,40.143l-0.231,81.515L440.492,340.473 M517.001,295.949L274.92,156.185l-0.631,222.537
								L516.37,518.486L517.001,295.949"/>
							<polyline fill="#FFFFFF" points="433.636,254.867 281.113,166.808 280.881,248.322 433.404,336.381 433.636,254.867
								"/>
							<polyline fill="#FFFFFF" points="353.957,332.428 280.763,290.169 280.532,371.686 353.726,413.943 353.957,332.428
								"/>
							<polyline fill="#FFFFFF" points="431.709,377.317 358.521,335.063 358.291,416.579 431.479,458.834 431.709,377.317
								"/>
							<polyline fill="#FFFFFF" points="509.902,422.463 436.709,380.204 436.477,461.721 509.671,503.979 509.902,422.463
								"/>
							<polyline fill="#FFFFFF" points="510.252,299.101 440.723,258.958 440.492,340.473 510.021,380.615 510.252,299.101
								"/>
							<polyline fill="#FFFFFF" points="509.994,389.86 280.855,257.566 280.833,265.718 509.971,398.011 509.994,389.86 							"/>
							<polyline fill="#FFFFFF" points="509.953,404.144 280.815,271.851 280.792,280.008 509.931,412.302 509.953,404.144
								"/>
						</g>
					</g>
				</g>
			</g>
		</g>
	</g>
</g>
<g>
	<g>
		<g enable-background="new    ">
			<defs>
				<polygon id="SVGID_9_" enable-background="new    " points="93.732,394.389 93.489,308.793 111.226,298.553 111.469,384.148
									"/>
			</defs>
			<clipPath id="SVGID_10_">
				<use xlink:href="#SVGID_9_"  overflow="visible"/>
			</clipPath>
			<g clip-path="url(#SVGID_10_)">
				<g>
					<g>
						<g>
							<polyline fill="#C04935" points="111.226,298.553 93.489,308.793 93.732,394.389 111.469,384.148 111.226,298.553 							"/>
						</g>
					</g>
				</g>
			</g>
		</g>
	</g>
</g>
<g>
	<g>
		<g enable-background="new    ">
			<defs>
				<polygon id="SVGID_11_" enable-background="new    " points="48.102,367.767 47.859,282.172 65.596,271.932 65.838,357.526
					"/>
			</defs>
			<clipPath id="SVGID_12_">
				<use xlink:href="#SVGID_11_"  overflow="visible"/>
			</clipPath>
			<g clip-path="url(#SVGID_12_)">
				<g>
					<g>
						<g>
							<polyline fill="#C04935" points="65.596,271.932 47.859,282.172 48.102,367.767 65.838,357.526 65.596,271.932 							"/>
						</g>
					</g>
				</g>
			</g>
		</g>
	</g>
</g>
<g>
	<g>
		<g enable-background="new    ">
			<defs>
				<polygon id="SVGID_13_" enable-background="new    " points="47.773,367.801 48.075,261.394 94.185,288.016 93.883,394.423
					"/>
			</defs>
			<clipPath id="SVGID_14_">
				<use xlink:href="#SVGID_13_"  overflow="visible"/>
			</clipPath>
			<g clip-path="url(#SVGID_14_)">
				<g>
					<g>
						<g>
							<path fill="#FA6248" d="M77.215,330.061l-1.308,7.836l5.41,9.207l-7.499-3.072l-3.375,5.871l-3.33-9.742l-7.499-5.586
								l5.445-2.941l-1.26-9.317l6.699,7.925L77.215,330.061 M57.944,287.938l0.05-17.556l26.248,15.154l-0.05,17.556
								L57.944,287.938 M87.091,283.92l-2.841-1.641l-26.247-15.153l-2.835-1.637l-0.009,3.257l-0.05,17.556l-7.093-4.095
								l-0.243,85.594l46.11,26.622l0.243-85.595l-7.093-4.096l0.05-17.555L87.091,283.92"/>
							<polyline fill="#FFFFFF" points="77.215,330.061 70.5,330.24 63.8,322.315 65.06,331.633 59.615,334.574 67.114,340.16
								70.443,349.902 73.818,344.031 81.317,347.104 75.907,337.896 77.215,330.061 							"/>
						</g>
					</g>
				</g>
			</g>
		</g>
	</g>
</g>
<g>
	<g>
		<g enable-background="new    ">
			<defs>
				<polygon id="SVGID_15_" enable-background="new    " points="46.24,502.622 257.683,379.745 523.713,533.337 312.27,656.214
									"/>
			</defs>
			<clipPath id="SVGID_16_">
				<use xlink:href="#SVGID_15_"  overflow="visible"/>
			</clipPath>
			<g clip-path="url(#SVGID_16_)">
				<g>
					<g>
						<g>
							<path fill="#E4E4E4" d="M160.441,539.859c-1.085-0.627-1.092-1.644-0.014-2.271l51.406-29.874
								c1.078-0.626,2.834-0.626,3.92,0.001l87.764,50.67c1.085,0.627,1.084,1.641,0.006,2.267l-51.405,29.874
								c-1.079,0.627-2.828,0.63-3.913,0.003L160.441,539.859 M165,445.521c-0.778-0.449-0.79-1.183-0.009-1.637l11.278-6.554
								c0.78-0.453,2.047-0.449,2.826,0l29.325,16.931c0.786,0.453,0.789,1.184,0.009,1.637l-11.278,6.555
								c-0.78,0.453-2.04,0.453-2.826,0L165,445.521 M202.836,467.366c-0.779-0.449-0.79-1.183-0.01-1.637l11.278-6.554
								c0.78-0.453,2.047-0.45,2.826,0l11.352,6.554c0.785,0.453,0.789,1.184,0.009,1.637l-11.278,6.554
								c-0.781,0.454-2.04,0.454-2.826,0L202.836,467.366 M220.809,477.743c-0.785-0.454-0.79-1.184-0.009-1.637l11.278-6.555
								c0.78-0.453,2.041-0.453,2.826,0l11.352,6.554c0.786,0.454,0.789,1.184,0.009,1.637l-11.278,6.555
								c-0.78,0.453-2.04,0.453-2.826,0L220.809,477.743 M238.782,488.119c-0.785-0.453-0.79-1.183-0.009-1.637l11.278-6.554
								c0.78-0.453,2.041-0.453,2.826,0l11.352,6.554c0.779,0.45,0.789,1.184,0.009,1.637l-11.278,6.555
								c-0.781,0.453-2.047,0.449-2.826,0L238.782,488.119 M256.754,498.496c-0.785-0.453-0.789-1.183-0.009-1.637l11.278-6.554
								c0.78-0.453,2.04-0.454,2.825-0.001l63.375,36.59c0.778,0.449,0.789,1.184,0.009,1.637l-11.278,6.554
								c-0.78,0.454-2.046,0.45-2.825,0L256.754,498.496 M326.75,538.908c-0.786-0.454-0.79-1.184-0.009-1.637l11.278-6.555
								c0.78-0.453,2.041-0.453,2.826,0l11.352,6.555c0.779,0.449,0.789,1.184,0.009,1.637l-11.278,6.554
								c-0.78,0.454-2.047,0.449-2.826,0L326.75,538.908 M344.723,549.284c-0.785-0.453-0.796-1.187-0.016-1.641l11.278-6.554
								c0.78-0.453,2.047-0.449,2.832,0.004l11.346,6.55c0.786,0.454,0.795,1.188,0.016,1.641l-11.278,6.554
								c-0.78,0.454-2.046,0.45-2.832-0.003L344.723,549.284 M362.689,559.657c-0.779-0.449-0.79-1.183-0.009-1.637l11.278-6.554
								c0.78-0.453,2.047-0.45,2.826,0l11.352,6.554c0.786,0.453,0.789,1.184,0.009,1.637l-11.278,6.554
								c-0.78,0.454-2.04,0.454-2.826,0L362.689,559.657 M380.662,570.034c-0.779-0.45-0.79-1.184-0.009-1.637l11.278-6.555
								c0.78-0.453,2.047-0.449,2.826,0l29.325,16.931c0.786,0.454,0.788,1.184,0.009,1.637l-11.277,6.555
								c-0.781,0.453-2.041,0.453-2.826,0L380.662,570.034 M185.159,433.808c-0.778-0.45-0.789-1.184-0.009-1.637l11.278-6.555
								c0.774-0.45,2.047-0.449,2.826,0l29.325,16.931c0.786,0.454,0.784,1.187,0.009,1.637l-11.278,6.555
								c-0.78,0.453-2.04,0.453-2.825,0L185.159,433.808 M222.995,455.651c-0.779-0.449-0.789-1.184-0.01-1.637l11.278-6.554
								c0.774-0.45,2.047-0.45,2.826,0l11.352,6.554c0.786,0.454,0.783,1.187,0.009,1.637l-11.278,6.554
								c-0.78,0.453-2.04,0.454-2.826,0L222.995,455.651 M240.967,466.028c-0.785-0.453-0.789-1.184-0.009-1.637l11.278-6.554
								c0.774-0.45,2.041-0.454,2.826-0.001l11.352,6.555c0.786,0.453,0.784,1.187,0.009,1.637l-11.278,6.554
								c-0.78,0.453-2.04,0.454-2.826,0L240.967,466.028 M258.94,476.404c-0.785-0.453-0.789-1.184-0.009-1.637l11.278-6.554
								c0.774-0.45,2.041-0.453,2.826,0l11.352,6.554c0.779,0.45,0.784,1.188,0.009,1.637l-11.278,6.555
								c-0.78,0.453-2.047,0.449-2.826,0L258.94,476.404 M276.913,486.781c-0.785-0.453-0.789-1.184-0.009-1.637l11.278-6.554
								c0.774-0.45,2.04-0.453,2.825,0l11.352,6.554c0.779,0.449,0.784,1.187,0.009,1.637l-11.278,6.555
								c-0.78,0.453-2.047,0.449-2.826,0L276.913,486.781 M293.698,496.473c-0.779-0.45-0.789-1.184-0.009-1.637l11.278-6.555
								c0.774-0.449,2.047-0.449,2.826,0l11.352,6.555c0.786,0.453,0.784,1.187,0.009,1.637l-11.278,6.554
								c-0.78,0.453-2.04,0.454-2.826,0L293.698,496.473 M310.962,506.439c-0.786-0.453-0.789-1.184-0.009-1.637l11.278-6.554
								c0.774-0.45,2.041-0.453,2.826,0l11.352,6.554c0.786,0.454,0.783,1.187,0.009,1.637l-11.278,6.555
								c-0.78,0.453-2.04,0.453-2.826,0L310.962,506.439 M328.935,516.816c-0.785-0.453-0.789-1.184-0.009-1.637l11.278-6.554
								c0.774-0.45,2.04-0.454,2.825-0.001l11.353,6.555c0.779,0.449,0.783,1.187,0.009,1.637l-11.278,6.554
								c-0.78,0.453-2.046,0.45-2.825,0.001L328.935,516.816 M346.908,527.193c-0.786-0.453-0.789-1.184-0.009-1.637l11.278-6.555
								c0.774-0.449,2.041-0.453,2.826,0l11.352,6.555c0.779,0.449,0.784,1.187,0.009,1.637l-11.278,6.554
								c-0.78,0.453-2.047,0.45-2.825,0L346.908,527.193 M364.881,537.57c-0.785-0.454-0.795-1.188-0.016-1.641l11.278-6.555
								c0.774-0.45,2.047-0.449,2.833,0.004l11.345,6.55c0.786,0.454,0.79,1.19,0.016,1.641l-11.278,6.555
								c-0.78,0.453-2.047,0.449-2.833-0.004L364.881,537.57 M382.847,547.942c-0.779-0.449-0.789-1.184-0.009-1.637l11.278-6.554
								c0.774-0.45,2.047-0.45,2.826,0l11.351,6.554c0.786,0.454,0.784,1.187,0.01,1.637l-11.278,6.554
								c-0.78,0.453-2.04,0.454-2.826,0L382.847,547.942 M400.82,558.319c-0.779-0.45-0.789-1.184-0.009-1.637l11.278-6.555
								c0.774-0.45,2.047-0.449,2.825,0l29.325,16.931c0.786,0.454,0.783,1.188,0.009,1.637l-11.277,6.555
								c-0.78,0.453-2.041,0.453-2.826,0L400.82,558.319 M204.1,422.8c-0.779-0.449-0.783-1.187-0.009-1.637l11.278-6.554
								c0.78-0.454,2.047-0.449,2.825,0l29.325,16.931c0.785,0.453,0.79,1.183,0.009,1.637l-11.278,6.554
								c-0.774,0.45-2.04,0.454-2.826,0L204.1,422.8 M241.935,444.645c-0.779-0.449-0.783-1.188-0.009-1.637l11.278-6.555
								c0.78-0.453,2.047-0.449,2.826,0l11.352,6.555c0.786,0.453,0.79,1.183,0.009,1.637l-11.278,6.554
								c-0.774,0.45-2.04,0.454-2.826,0L241.935,444.645 M259.908,455.021c-0.785-0.454-0.783-1.188-0.009-1.637l11.278-6.555
								c0.781-0.453,2.041-0.453,2.826,0l11.352,6.554c0.786,0.454,0.79,1.184,0.009,1.637l-11.278,6.555
								c-0.773,0.449-2.04,0.453-2.826,0L259.908,455.021 M277.88,465.397c-0.785-0.453-0.783-1.187-0.009-1.637l11.278-6.554
								c0.781-0.454,2.041-0.453,2.826,0l11.352,6.554c0.779,0.45,0.79,1.183,0.009,1.637l-11.278,6.554
								c-0.773,0.45-2.046,0.45-2.826,0L277.88,465.397 M295.854,475.774c-0.785-0.453-0.783-1.188-0.009-1.637l11.278-6.554
								c0.781-0.454,2.041-0.454,2.825-0.001l11.353,6.555c0.778,0.449,0.79,1.183,0.009,1.637l-11.278,6.554
								c-0.773,0.45-2.047,0.45-2.826,0L295.854,475.774 M312.639,485.465c-0.779-0.449-0.783-1.187-0.009-1.637l11.278-6.554
								c0.78-0.454,2.047-0.449,2.826,0l11.352,6.554c0.785,0.454,0.79,1.184,0.009,1.637l-11.278,6.555
								c-0.774,0.449-2.04,0.453-2.826,0L312.639,485.465 M329.903,495.433c-0.785-0.453-0.783-1.188-0.009-1.637l11.278-6.554
								c0.78-0.454,2.04-0.454,2.826,0l11.352,6.554c0.786,0.453,0.79,1.183,0.009,1.637l-11.278,6.554
								c-0.774,0.45-2.04,0.454-2.826,0L329.903,495.433 M347.875,505.81c-0.785-0.454-0.782-1.188-0.009-1.637l11.278-6.554
								c0.78-0.454,2.04-0.454,2.825-0.001l11.352,6.555c0.779,0.449,0.79,1.183,0.009,1.636l-11.278,6.555
								c-0.773,0.449-2.047,0.449-2.825,0L347.875,505.81 M365.849,516.186c-0.785-0.453-0.783-1.187-0.009-1.637l11.278-6.554
								c0.78-0.453,2.041-0.453,2.826,0l11.352,6.554c0.778,0.45,0.79,1.184,0.009,1.637l-11.278,6.555
								c-0.774,0.449-2.047,0.449-2.826,0L365.849,516.186 M383.822,526.562c-0.786-0.453-0.79-1.19-0.016-1.641l11.278-6.554
								c0.78-0.454,2.047-0.45,2.832,0.004l11.346,6.55c0.785,0.453,0.796,1.188,0.016,1.641l-11.278,6.554
								c-0.773,0.45-2.046,0.45-2.832-0.003L383.822,526.562 M401.787,536.936c-0.777-0.449-0.782-1.188-0.009-1.637l11.278-6.555
								c0.781-0.453,2.047-0.449,2.826,0l11.352,6.555c0.785,0.453,0.789,1.183,0.01,1.637l-11.279,6.554
								c-0.773,0.45-2.039,0.454-2.825,0L401.787,536.936 M419.761,547.312c-0.778-0.45-0.783-1.188-0.009-1.637l11.277-6.555
								c0.781-0.453,2.047-0.449,2.826,0l29.324,16.931c0.785,0.454,0.789,1.183,0.01,1.637l-11.279,6.554
								c-0.773,0.45-2.039,0.454-2.824,0.001L419.761,547.312 M223.599,411.469c-0.779-0.449-0.783-1.188-0.009-1.637l11.278-6.555
								c0.78-0.453,2.047-0.449,2.825,0l11.352,6.555c0.786,0.453,0.79,1.183,0.009,1.637l-11.278,6.554
								c-0.773,0.45-2.04,0.454-2.825,0L223.599,411.469 M241.571,421.846c-0.785-0.454-0.783-1.188-0.009-1.637l11.278-6.555
								c0.78-0.453,2.04-0.453,2.826,0l11.352,6.554c0.786,0.454,0.79,1.184,0.009,1.637l-11.278,6.555
								c-0.773,0.449-2.04,0.453-2.825,0L241.571,421.846 M261.434,433.312c-0.779-0.449-0.783-1.187-0.009-1.637l11.278-6.554
								c0.781-0.454,2.047-0.449,2.826,0l11.352,6.554c0.786,0.454,0.79,1.184,0.009,1.637l-11.278,6.555
								c-0.773,0.449-2.04,0.453-2.826,0L261.434,433.312 M279.407,443.689c-0.785-0.453-0.783-1.188-0.009-1.637l11.278-6.554
								c0.78-0.454,2.04-0.454,2.826,0l11.352,6.554c0.786,0.453,0.79,1.184,0.009,1.637l-11.278,6.554
								c-0.774,0.45-2.04,0.454-2.826,0L279.407,443.689 M297.379,454.066c-0.785-0.453-0.783-1.188-0.009-1.637l11.278-6.555
								c0.781-0.453,2.041-0.453,2.826,0l11.352,6.555c0.779,0.449,0.79,1.183,0.009,1.637l-11.278,6.554
								c-0.773,0.449-2.047,0.45-2.826,0L297.379,454.066 M315.352,464.442c-0.785-0.453-0.782-1.187-0.009-1.636l11.278-6.555
								c0.78-0.453,2.041-0.453,2.825,0l11.353,6.554c0.778,0.45,0.79,1.184,0.009,1.637l-11.278,6.555
								c-0.774,0.449-2.047,0.449-2.826,0L315.352,464.442 M332.138,474.134c-0.779-0.45-0.783-1.188-0.009-1.637l11.278-6.554
								c0.78-0.454,2.047-0.45,2.826,0l11.352,6.554c0.786,0.453,0.79,1.183,0.009,1.637l-11.278,6.554
								c-0.773,0.449-2.04,0.454-2.825,0L332.138,474.134 M349.402,484.102c-0.785-0.454-0.783-1.188-0.009-1.637l11.278-6.555
								c0.781-0.453,2.041-0.453,2.826,0l11.352,6.554c0.786,0.454,0.79,1.184,0.009,1.637l-11.278,6.555
								c-0.773,0.449-2.04,0.453-2.826,0L349.402,484.102 M367.375,494.478c-0.785-0.453-0.782-1.187-0.009-1.637l11.278-6.554
								c0.78-0.453,2.04-0.453,2.825,0l11.352,6.554c0.779,0.45,0.79,1.183,0.009,1.637l-11.278,6.554
								c-0.774,0.45-2.047,0.45-2.826,0.001L367.375,494.478 M385.348,504.854c-0.785-0.453-0.783-1.188-0.009-1.637l11.278-6.554
								c0.78-0.454,2.04-0.454,2.826,0l11.352,6.554c0.778,0.449,0.79,1.183,0.009,1.637l-11.277,6.554
								c-0.774,0.45-2.047,0.45-2.826,0L385.348,504.854 M403.32,515.231c-0.785-0.454-0.789-1.191-0.016-1.641l11.277-6.555
								c0.781-0.453,2.048-0.449,2.833,0.004l11.345,6.551c0.786,0.453,0.797,1.187,0.016,1.64l-11.277,6.555
								c-0.773,0.449-2.047,0.449-2.832-0.004L403.32,515.231 M421.287,525.604c-0.779-0.449-0.783-1.187-0.01-1.637l11.278-6.554
								c0.78-0.454,2.047-0.449,2.825,0l11.352,6.554c0.786,0.454,0.791,1.184,0.01,1.637l-11.277,6.555
								c-0.774,0.449-2.041,0.453-2.826,0L421.287,525.604 M439.26,535.98c-0.779-0.449-0.783-1.188-0.01-1.637l11.278-6.554
								c0.78-0.454,2.047-0.45,2.825,0l11.353,6.554c0.786,0.453,0.79,1.184,0.009,1.637l-11.277,6.554
								c-0.773,0.45-2.041,0.454-2.826,0L439.26,535.98 M457.232,546.357c-0.785-0.454-0.783-1.188-0.01-1.637l11.279-6.555
								c0.78-0.453,2.039-0.453,2.824,0l11.354,6.555c0.785,0.453,0.789,1.183,0.008,1.637l-11.277,6.554
								c-0.773,0.449-2.041,0.453-2.826,0L457.232,546.357 M248.686,396.889c-0.778-0.449-0.783-1.187-0.009-1.637l4.23-2.458
								c0.78-0.453,2.047-0.45,2.826,0l245.458,141.715c0.779,0.45,0.789,1.184,0.01,1.637l-4.231,2.459
								c-0.774,0.45-2.046,0.45-2.825,0L248.686,396.889 M513.07,527.192L268.327,385.89c-5.88-3.395-15.381-3.392-21.217,0
								L56.814,496.477c-5.836,3.392-5.811,8.896,0.069,12.29l244.743,141.303c5.88,3.396,15.381,3.392,21.217,0l190.295-110.587
								C518.975,536.091,518.949,530.587,513.07,527.192"/>
							<path fill="#C0C0C0" d="M501.191,534.509L255.733,392.794c-0.779-0.45-2.046-0.453-2.826,0l-4.23,2.458
								c-0.774,0.45-0.77,1.188,0.009,1.637l245.458,141.716c0.779,0.45,2.051,0.45,2.825,0l4.231-2.459
								C501.98,535.692,501.971,534.959,501.191,534.509"/>
							<path fill="#4C4C4C" d="M249.045,409.832l-11.352-6.555c-0.778-0.449-2.045-0.453-2.825,0l-11.278,6.555
								c-0.773,0.449-0.77,1.188,0.009,1.637l11.352,6.554c0.785,0.454,2.052,0.45,2.825,0l11.278-6.554
								C249.834,411.015,249.831,410.285,249.045,409.832"/>
							<path fill="#4C4C4C" d="M267.018,420.208l-11.352-6.554c-0.786-0.453-2.045-0.453-2.826,0l-11.278,6.555
								c-0.773,0.449-0.776,1.183,0.009,1.637l11.352,6.554c0.786,0.453,2.052,0.449,2.825,0l11.278-6.555
								C267.808,421.392,267.803,420.662,267.018,420.208"/>
							<path fill="#4C4C4C" d="M286.88,431.676l-11.352-6.554c-0.778-0.449-2.045-0.454-2.826,0l-11.278,6.554
								c-0.774,0.45-0.77,1.188,0.009,1.637l11.352,6.555c0.786,0.453,2.052,0.449,2.826,0l11.278-6.555
								C287.67,432.859,287.666,432.13,286.88,431.676"/>
							<path fill="#4C4C4C" d="M304.853,442.053l-11.352-6.554c-0.786-0.454-2.045-0.454-2.826,0l-11.278,6.554
								c-0.773,0.449-0.776,1.184,0.009,1.637l11.352,6.554c0.786,0.454,2.052,0.45,2.826,0l11.278-6.554
								C305.643,443.236,305.639,442.506,304.853,442.053"/>
							<path fill="#4C4C4C" d="M322.826,452.43l-11.352-6.555c-0.785-0.453-2.045-0.453-2.826,0l-11.278,6.555
								c-0.773,0.449-0.775,1.184,0.009,1.637l11.352,6.554c0.779,0.45,2.052,0.449,2.826,0l11.278-6.554
								C323.616,453.612,323.605,452.879,322.826,452.43"/>
							<path fill="#4C4C4C" d="M340.799,462.806l-11.353-6.554c-0.785-0.453-2.045-0.453-2.825,0l-11.278,6.555
								c-0.773,0.449-0.776,1.183,0.009,1.636l11.353,6.555c0.779,0.449,2.052,0.449,2.826,0l11.278-6.555
								C341.589,463.989,341.578,463.256,340.799,462.806"/>
							<path fill="#4C4C4C" d="M357.584,472.497l-11.352-6.554c-0.779-0.45-2.045-0.454-2.826,0l-11.278,6.554
								c-0.773,0.449-0.77,1.187,0.009,1.637l11.352,6.554c0.786,0.454,2.052,0.449,2.825,0l11.278-6.554
								C358.374,473.68,358.37,472.95,357.584,472.497"/>
							<path fill="#4C4C4C" d="M374.848,482.464l-11.352-6.554c-0.785-0.453-2.045-0.453-2.826,0l-11.278,6.555
								c-0.774,0.449-0.776,1.183,0.009,1.637l11.352,6.554c0.786,0.453,2.052,0.449,2.826,0l11.278-6.555
								C375.638,483.647,375.634,482.918,374.848,482.464"/>
							<path fill="#4C4C4C" d="M392.821,492.841l-11.352-6.554c-0.785-0.453-2.045-0.453-2.825,0l-11.278,6.554
								c-0.773,0.45-0.776,1.184,0.009,1.637l11.352,6.555c0.779,0.449,2.052,0.449,2.826-0.001l11.278-6.554
								C393.611,494.023,393.6,493.291,392.821,492.841"/>
							<path fill="#4C4C4C" d="M410.794,503.218l-11.352-6.554c-0.786-0.454-2.045-0.454-2.826,0l-11.278,6.554
								c-0.773,0.449-0.776,1.184,0.009,1.637l11.352,6.554c0.778,0.45,2.052,0.45,2.826,0l11.277-6.554
								C411.584,504.4,411.572,503.667,410.794,503.218"/>
							<path fill="#4C4C4C" d="M428.76,513.591l-11.345-6.551c-0.785-0.453-2.052-0.457-2.833-0.004l-11.277,6.555
								c-0.773,0.449-0.77,1.187,0.016,1.641l11.346,6.55c0.785,0.453,2.059,0.453,2.832,0.004l11.277-6.555
								C429.557,514.777,429.546,514.044,428.76,513.591"/>
							<path fill="#4C4C4C" d="M446.732,523.967l-11.352-6.554c-0.778-0.449-2.045-0.454-2.825,0l-11.278,6.554
								c-0.773,0.45-0.77,1.188,0.01,1.637l11.352,6.555c0.785,0.453,2.052,0.449,2.826,0l11.277-6.555
								C447.523,525.15,447.519,524.421,446.732,523.967"/>
							<path fill="#4C4C4C" d="M464.706,534.344l-11.353-6.554c-0.778-0.45-2.045-0.454-2.825,0l-11.278,6.554
								c-0.773,0.449-0.77,1.188,0.01,1.637l11.352,6.554c0.785,0.454,2.053,0.45,2.826,0l11.277-6.554
								C465.496,535.527,465.492,534.797,464.706,534.344"/>
							<path fill="#4C4C4C" d="M482.68,544.721l-11.354-6.555c-0.785-0.453-2.044-0.453-2.824,0l-11.279,6.555
								c-0.773,0.449-0.775,1.183,0.01,1.637l11.352,6.554c0.785,0.453,2.053,0.449,2.826,0l11.277-6.554
								C483.469,545.903,483.465,545.174,482.68,544.721"/>
							<path fill="#4C4C4C" d="M267.381,443.008l-11.352-6.555c-0.779-0.449-2.045-0.453-2.826,0l-11.278,6.555
								c-0.773,0.449-0.77,1.188,0.009,1.637l11.352,6.554c0.786,0.454,2.052,0.45,2.826,0l11.278-6.554
								C268.171,444.19,268.167,443.461,267.381,443.008"/>
							<path fill="#4C4C4C" d="M285.354,453.384l-11.352-6.554c-0.785-0.453-2.045-0.453-2.826,0l-11.278,6.555
								c-0.773,0.449-0.776,1.183,0.009,1.637l11.352,6.554c0.786,0.453,2.052,0.449,2.826,0l11.278-6.555
								C286.144,454.567,286.14,453.838,285.354,453.384"/>
							<path fill="#4C4C4C" d="M303.327,463.761l-11.352-6.554c-0.785-0.453-2.045-0.454-2.826,0l-11.278,6.554
								c-0.774,0.45-0.776,1.184,0.009,1.637l11.352,6.554c0.779,0.45,2.052,0.45,2.826,0l11.278-6.554
								C304.117,464.943,304.106,464.211,303.327,463.761"/>
							<path fill="#4C4C4C" d="M321.3,474.138l-11.353-6.555c-0.785-0.453-2.044-0.453-2.825,0.001l-11.278,6.554
								c-0.774,0.449-0.776,1.184,0.009,1.637l11.352,6.554c0.779,0.45,2.052,0.45,2.826,0l11.278-6.554
								C322.09,475.32,322.079,474.587,321.3,474.138"/>
							<path fill="#4C4C4C" d="M338.085,483.828l-11.352-6.554c-0.779-0.449-2.045-0.454-2.826,0l-11.278,6.554
								c-0.773,0.45-0.77,1.188,0.009,1.637l11.352,6.555c0.786,0.453,2.052,0.449,2.826,0l11.278-6.555
								C338.875,485.012,338.871,484.282,338.085,483.828"/>
							<path fill="#4C4C4C" d="M355.349,493.796l-11.352-6.554c-0.786-0.454-2.045-0.454-2.826,0l-11.278,6.554
								c-0.773,0.449-0.776,1.184,0.009,1.637l11.352,6.554c0.786,0.454,2.052,0.45,2.826,0l11.278-6.554
								C356.139,494.979,356.135,494.249,355.349,493.796"/>
							<path fill="#4C4C4C" d="M373.322,504.173l-11.352-6.555c-0.785-0.453-2.045-0.453-2.825,0.001l-11.278,6.554
								c-0.773,0.449-0.776,1.183,0.009,1.637l11.353,6.554c0.778,0.449,2.052,0.449,2.825,0l11.278-6.555
								C374.112,505.355,374.101,504.622,373.322,504.173"/>
							<path fill="#4C4C4C" d="M391.295,514.549l-11.352-6.554c-0.785-0.453-2.045-0.453-2.826,0l-11.278,6.554
								c-0.773,0.45-0.776,1.184,0.009,1.637l11.352,6.555c0.779,0.449,2.052,0.449,2.826,0l11.278-6.555
								C392.085,515.732,392.074,514.999,391.295,514.549"/>
							<path fill="#4C4C4C" d="M409.262,524.922l-11.346-6.55c-0.785-0.454-2.052-0.458-2.832-0.004l-11.278,6.554
								c-0.773,0.45-0.77,1.188,0.016,1.641l11.345,6.551c0.786,0.453,2.059,0.453,2.832,0.003l11.278-6.554
								C410.058,526.109,410.047,525.375,409.262,524.922"/>
							<path fill="#4C4C4C" d="M427.234,535.299l-11.352-6.555c-0.779-0.449-2.045-0.453-2.826,0l-11.278,6.555
								c-0.773,0.449-0.769,1.188,0.009,1.637l11.353,6.554c0.786,0.454,2.052,0.45,2.825,0l11.279-6.554
								C428.023,536.481,428.02,535.752,427.234,535.299"/>
							<path fill="#4C4C4C" d="M247.519,431.54l-29.325-16.931c-0.778-0.449-2.045-0.454-2.825,0l-11.278,6.554
								c-0.773,0.45-0.77,1.188,0.009,1.637l29.325,16.931c0.786,0.454,2.052,0.45,2.826,0l11.278-6.554
								C248.309,432.723,248.304,431.993,247.519,431.54"/>
							<path fill="#4C4C4C" d="M463.18,556.052l-29.324-16.931c-0.779-0.449-2.045-0.453-2.826,0l-11.277,6.555
								c-0.774,0.449-0.77,1.187,0.009,1.637l29.325,16.931c0.785,0.453,2.051,0.449,2.824-0.001l11.279-6.554
								C463.969,557.234,463.965,556.506,463.18,556.052"/>
							<path fill="#4C4C4C" d="M248.441,454.015l-11.352-6.554c-0.779-0.45-2.051-0.45-2.826,0l-11.278,6.554
								c-0.779,0.453-0.769,1.188,0.01,1.637l11.352,6.554c0.786,0.454,2.046,0.453,2.826,0l11.278-6.554
								C249.224,455.201,249.227,454.469,248.441,454.015"/>
							<path fill="#4C4C4C" d="M266.414,464.392l-11.352-6.555c-0.785-0.453-2.051-0.449-2.826,0.001l-11.278,6.554
								c-0.78,0.453-0.776,1.184,0.009,1.637l11.352,6.554c0.786,0.454,2.046,0.453,2.826,0l11.278-6.554
								C267.197,465.578,267.199,464.845,266.414,464.392"/>
							<path fill="#4C4C4C" d="M284.386,474.768l-11.352-6.554c-0.785-0.453-2.052-0.45-2.826,0l-11.278,6.554
								c-0.78,0.453-0.776,1.184,0.009,1.637l11.352,6.555c0.779,0.449,2.045,0.453,2.826,0l11.278-6.555
								C285.17,475.955,285.166,475.218,284.386,474.768"/>
							<path fill="#4C4C4C" d="M302.359,485.145l-11.352-6.554c-0.785-0.453-2.051-0.45-2.825,0l-11.278,6.554
								c-0.78,0.453-0.776,1.184,0.009,1.637l11.353,6.555c0.778,0.449,2.046,0.453,2.826,0l11.278-6.555
								C303.143,486.331,303.138,485.594,302.359,485.145"/>
							<path fill="#4C4C4C" d="M319.145,494.836l-11.352-6.555c-0.778-0.449-2.051-0.449-2.826,0l-11.278,6.555
								c-0.78,0.453-0.77,1.187,0.009,1.637l11.352,6.554c0.786,0.454,2.046,0.453,2.826,0l11.278-6.554
								C319.928,496.022,319.93,495.289,319.145,494.836"/>
							<path fill="#4C4C4C" d="M336.409,504.803l-11.352-6.554c-0.785-0.453-2.051-0.45-2.826,0l-11.278,6.554
								c-0.78,0.453-0.776,1.184,0.009,1.637l11.352,6.555c0.786,0.453,2.046,0.453,2.826,0l11.278-6.555
								C337.192,505.989,337.194,505.257,336.409,504.803"/>
							<path fill="#4C4C4C" d="M354.382,515.18l-11.353-6.555c-0.785-0.453-2.051-0.449-2.825,0.001l-11.278,6.554
								c-0.78,0.453-0.776,1.184,0.009,1.637l11.352,6.555c0.779,0.449,2.045,0.452,2.825-0.001l11.278-6.554
								C355.165,516.366,355.161,515.629,354.382,515.18"/>
							<path fill="#4C4C4C" d="M372.354,525.557l-11.352-6.555c-0.785-0.453-2.051-0.449-2.826,0l-11.278,6.555
								c-0.78,0.453-0.776,1.184,0.009,1.637l11.352,6.554c0.778,0.45,2.045,0.453,2.825,0l11.278-6.554
								C373.138,526.743,373.133,526.006,372.354,525.557"/>
							<path fill="#4C4C4C" d="M390.321,535.929l-11.345-6.55c-0.786-0.453-2.058-0.454-2.833-0.004l-11.278,6.555
								c-0.78,0.453-0.77,1.187,0.016,1.641l11.345,6.55c0.786,0.453,2.053,0.457,2.833,0.004l11.278-6.555
								C391.111,537.119,391.106,536.383,390.321,535.929"/>
							<path fill="#4C4C4C" d="M408.293,546.306l-11.351-6.554c-0.779-0.45-2.052-0.45-2.826,0l-11.278,6.554
								c-0.78,0.453-0.77,1.188,0.009,1.637l11.352,6.554c0.786,0.454,2.046,0.453,2.826,0l11.278-6.554
								C409.077,547.492,409.079,546.76,408.293,546.306"/>
							<path fill="#4C4C4C" d="M228.578,442.547l-29.325-16.931c-0.778-0.449-2.051-0.45-2.826,0l-11.278,6.555
								c-0.78,0.453-0.77,1.187,0.009,1.637l29.325,16.931c0.785,0.453,2.045,0.453,2.825,0l11.278-6.555
								C229.362,443.733,229.364,443.001,228.578,442.547"/>
							<path fill="#4C4C4C" d="M444.239,567.059l-29.325-16.931c-0.778-0.449-2.051-0.45-2.825,0l-11.278,6.555
								c-0.78,0.453-0.77,1.187,0.009,1.637l29.325,16.931c0.785,0.453,2.046,0.453,2.826,0l11.277-6.555
								C445.022,568.246,445.025,567.513,444.239,567.059"/>
							<path fill="#4C4C4C" d="M228.283,465.729l-11.352-6.554c-0.779-0.45-2.046-0.453-2.826,0l-11.278,6.554
								c-0.78,0.454-0.77,1.188,0.01,1.637l11.352,6.554c0.786,0.454,2.045,0.454,2.826,0l11.278-6.554
								C229.072,466.913,229.068,466.183,228.283,465.729"/>
							<path fill="#4C4C4C" d="M246.255,476.105l-11.352-6.554c-0.785-0.453-2.045-0.453-2.826,0l-11.278,6.555
								c-0.781,0.453-0.776,1.183,0.009,1.637l11.352,6.554c0.786,0.453,2.045,0.453,2.826,0l11.278-6.555
								C247.044,477.289,247.041,476.56,246.255,476.105"/>
							<path fill="#4C4C4C" d="M264.228,486.482l-11.352-6.554c-0.785-0.453-2.046-0.453-2.826,0l-11.278,6.554
								c-0.781,0.454-0.776,1.184,0.009,1.637l11.352,6.555c0.779,0.449,2.045,0.453,2.826,0l11.278-6.555
								C265.017,487.666,265.007,486.933,264.228,486.482"/>
							<path fill="#4C4C4C" d="M352.196,537.271l-11.352-6.555c-0.785-0.453-2.046-0.453-2.826,0l-11.278,6.555
								c-0.781,0.453-0.776,1.183,0.009,1.637l11.352,6.554c0.779,0.449,2.045,0.454,2.826,0l11.278-6.554
								C352.985,538.455,352.975,537.721,352.196,537.271"/>
							<path fill="#4C4C4C" d="M370.163,547.644l-11.346-6.55c-0.785-0.453-2.052-0.457-2.832-0.004l-11.278,6.554
								c-0.78,0.454-0.769,1.188,0.016,1.641l11.345,6.551c0.786,0.453,2.052,0.457,2.832,0.003l11.278-6.554
								C370.958,548.831,370.948,548.098,370.163,547.644"/>
							<path fill="#4C4C4C" d="M388.135,558.021l-11.352-6.554c-0.778-0.45-2.046-0.453-2.826,0l-11.278,6.554
								c-0.781,0.454-0.77,1.188,0.009,1.637l11.352,6.554c0.786,0.454,2.045,0.454,2.826,0l11.278-6.554
								C388.924,559.204,388.921,558.474,388.135,558.021"/>
							<path fill="#4C4C4C" d="M208.42,454.262l-29.325-16.931c-0.779-0.449-2.046-0.453-2.826,0l-11.278,6.554
								c-0.781,0.454-0.77,1.188,0.009,1.637l29.325,16.932c0.786,0.453,2.045,0.453,2.826,0l11.278-6.555
								C209.209,455.445,209.206,454.715,208.42,454.262"/>
							<path fill="#4C4C4C" d="M424.081,578.773l-29.325-16.931c-0.779-0.449-2.046-0.453-2.826,0l-11.278,6.555
								c-0.781,0.453-0.77,1.187,0.009,1.637l29.325,16.931c0.785,0.453,2.045,0.453,2.826,0l11.277-6.555
								C424.869,579.957,424.867,579.228,424.081,578.773"/>
							<path fill="#4C4C4C" d="M334.224,526.895l-63.375-36.59c-0.785-0.453-2.045-0.452-2.825,0.001l-11.278,6.554
								c-0.78,0.454-0.776,1.184,0.009,1.637l63.375,36.589c0.779,0.45,2.045,0.454,2.825,0l11.278-6.554
								C335.012,528.078,335.002,527.344,334.224,526.895"/>
							<path fill="#C9C9C9" d="M303.517,558.386l-87.764-50.67c-1.085-0.627-2.842-0.627-3.92-0.001l-51.406,29.874
								c-1.078,0.627-1.072,1.644,0.014,2.271l87.764,50.67c1.085,0.627,2.834,0.624,3.913-0.003l51.405-29.874
								C304.601,560.026,304.602,559.013,303.517,558.386"/>
						</g>
					</g>
				</g>
			</g>
		</g>
	</g>
</g>
<g>
	<g>
		<g enable-background="new    ">
			<defs>
				<polygon id="SVGID_17_" enable-background="new    " points="680.309,233.173 680.354,217.025 694.406,225.139 694.361,241.286
									"/>
			</defs>
			<clipPath id="SVGID_18_">
				<use xlink:href="#SVGID_17_"  overflow="visible"/>
			</clipPath>
			<g clip-path="url(#SVGID_18_)">
				<g>
					<g>
						<g>
							<path fill="#FFC101" d="M687.377,221.08c-1.162-0.671-2.109-0.131-2.113,1.205l-0.01,3.228l-2.809-1.621
								c-1.162-0.671-2.11-0.131-2.113,1.204c-0.004,1.342,0.938,2.974,2.1,3.645l2.809,1.622l-0.009,3.228
								c-0.003,1.336,0.938,2.967,2.101,3.638c1.168,0.675,2.116,0.135,2.12-1.201l0.009-3.228l2.81,1.622
								c1.161,0.67,2.11,0.13,2.113-1.212c0.004-1.335-0.938-2.967-2.1-3.638l-2.81-1.621l0.01-3.229
								C689.488,223.386,688.546,221.755,687.377,221.08"/>
						</g>
					</g>
				</g>
			</g>
		</g>
	</g>
</g>
<g>
	<g>
		<g enable-background="new    ">
			<defs>
				<polygon id="SVGID_19_" enable-background="new    " points="744.568,199.171 744.614,183.023 758.667,191.137 758.621,207.284
									"/>
			</defs>
			<clipPath id="SVGID_20_">
				<use xlink:href="#SVGID_19_"  overflow="visible"/>
			</clipPath>
			<g clip-path="url(#SVGID_20_)">
				<g>
					<g>
						<g>
							<path fill="#FFC101" d="M751.638,187.078c-1.163-0.671-2.11-0.131-2.114,1.204l-0.01,3.229l-2.809-1.622
								c-1.162-0.67-2.109-0.13-2.113,1.212c-0.004,1.335,0.938,2.967,2.1,3.638l2.809,1.621l-0.008,3.229
								c-0.004,1.336,0.938,2.967,2.1,3.638c1.168,0.675,2.116,0.135,2.12-1.201l0.009-3.228l2.81,1.621
								c1.162,0.671,2.11,0.131,2.114-1.204c0.004-1.342-0.938-2.974-2.101-3.645l-2.81-1.622l0.01-3.229
								C753.748,189.384,752.806,187.753,751.638,187.078"/>
						</g>
					</g>
				</g>
			</g>
		</g>
	</g>
</g>
<g>
	<g>
		<g enable-background="new    ">
			<defs>
				<polygon id="SVGID_21_" enable-background="new    " points="734.66,268.975 734.705,252.827 748.758,260.94 748.713,277.088
									"/>
			</defs>
			<clipPath id="SVGID_22_">
				<use xlink:href="#SVGID_21_"  overflow="visible"/>
			</clipPath>
			<g clip-path="url(#SVGID_22_)">
				<g>
					<g>
						<g>
							<path fill="#FFC101" d="M741.734,256.886c-1.162-0.671-2.109-0.138-2.113,1.205l-0.01,3.228l-2.814-1.625
								c-1.162-0.672-2.111-0.131-2.114,1.204c-0.004,1.336,0.938,2.966,2.101,3.637l2.814,1.626l-0.009,3.229
								c-0.004,1.343,0.938,2.974,2.101,3.645s2.109,0.131,2.113-1.212l0.01-3.229l2.809,1.622c1.169,0.675,2.11,0.132,2.113-1.204
								c0.004-1.335-0.931-2.963-2.1-3.638l-2.809-1.622l0.009-3.228C743.838,259.181,742.896,257.557,741.734,256.886"/>
						</g>
					</g>
				</g>
			</g>
		</g>
	</g>
</g>
<g>
	<g>
		<g enable-background="new    ">
			<defs>
				<polygon id="SVGID_23_" enable-background="new    " points="580.699,289.058 580.893,220.835 651.834,261.793 651.641,330.015
									"/>
			</defs>
			<clipPath id="SVGID_24_">
				<use xlink:href="#SVGID_23_"  overflow="visible"/>
			</clipPath>
			<g clip-path="url(#SVGID_24_)">
				<g>
					<g>
						<g>
							<path fill="#009AAE" d="M593.188,271.781l0.014-4.886l46.109,26.621l-0.014,4.887L593.188,271.781 M593.223,259.449
								l0.014-4.894l46.109,26.622l-0.014,4.893L593.223,259.449 M593.258,247.109l0.014-4.895l46.109,26.622l-0.014,4.894
								L593.258,247.109 M648.998,260.156l-65.264-37.681c-1.57-0.907-2.846-0.181-2.85,1.624l-0.146,51.465
								c-0.006,1.798,1.262,3.991,2.832,4.898l46.812,27.027l5.672,13.526l5.73-6.943l7.049,4.069
								c1.564,0.903,2.839,0.177,2.844-1.62l0.146-51.466C651.829,263.252,650.562,261.059,648.998,260.156"/>
							<polyline fill="#FFFFFF" points="639.381,268.837 593.271,242.215 593.258,247.109 639.367,273.73 639.381,268.837
								"/>
							<polyline fill="#FFFFFF" points="639.346,281.178 593.236,254.556 593.223,259.449 639.332,286.07 639.346,281.178
								"/>
							<polyline fill="#FFFFFF" points="639.311,293.517 593.201,266.896 593.188,271.781 639.297,298.403 639.311,293.517
								"/>
						</g>
					</g>
				</g>
			</g>
		</g>
	</g>
</g>
<path fill="#007785" d="M582,222.152c0,0,6.379-3.193,6.922-3.402c0.75-0.625,4.166,1.667,4.166,1.667l-3.838,5.246
	c0,0-4.993-2.94-5.912-3.384C582.641,221.942,582,222.152,582,222.152z"/>
<path fill="#007785" d="M651.713,312l6.959-2.958c0,0-0.368,5.407-0.547,5.682c-0.234,0.359-7.62,3.776-7.62,3.776
	s1.137-0.354,1.151-1.589C651.67,315.677,651.713,312,651.713,312z"/>
<g>
	<g>
		<polygon fill="#FFFFFF" points="279.338,212.757 259.879,201.973 294.027,166.965 312.646,177.707 		"/>
		<path fill="#E7E7E7" d="M259.879,201.973c0,0,0.67,19.307,9.617,21.318c9.272,2.086,9.842-10.534,9.842-10.534l0,0
			L259.879,201.973z"/>
	</g>
	<g>
		<polygon fill="#FA6248" points="298.08,223.419 278.623,212.637 312.771,177.629 331.389,188.372 		"/>
		<path fill="#E85B42" d="M278.623,212.637c0,0,0.669,19.306,9.616,21.319c9.272,2.086,9.841-10.537,9.841-10.537l0,0
			L278.623,212.637z"/>
	</g>
	<g>
		<polygon fill="#FA6248" points="260.882,201.989 241.424,191.205 275.572,156.198 294.191,166.939 		"/>
		<path fill="#E85B42" d="M241.424,191.205c0,0,0.67,19.306,9.616,21.319c9.273,2.086,9.842-10.535,9.842-10.535l0,0
			L241.424,191.205z"/>
	</g>
	<g>
		<polygon fill="#FFFFFF" points="316.574,234.307 297.116,223.523 331.264,188.514 349.883,199.256 		"/>
		<path fill="#E7E7E7" d="M297.116,223.523c0,0,0.671,19.306,9.617,21.318c9.273,2.086,9.842-10.535,9.842-10.535l0,0
			L297.116,223.523z"/>
	</g>
	<g>
		<polygon fill="#FA6248" points="335.318,245.189 315.861,234.406 350.008,199.398 368.627,210.141 		"/>
		<path fill="#E85B42" d="M315.861,234.406c0,0,0.669,19.307,9.616,21.319c9.273,2.086,9.841-10.536,9.841-10.536l0,0
			L315.861,234.406z"/>
	</g>
	<g>
		<polygon fill="#FFFFFF" points="353.895,256.04 334.437,245.258 368.584,210.25 387.204,220.99 		"/>
		<path fill="#E7E7E7" d="M334.437,245.258c0,0,0.67,19.305,9.616,21.318c9.273,2.085,9.842-10.536,9.842-10.536l0,0
			L334.437,245.258z"/>
	</g>
	<g>
		<polygon fill="#FA6248" points="372.306,266.699 352.847,255.914 386.995,220.908 405.615,231.649 		"/>
		<path fill="#E85B42" d="M352.847,255.914c0,0,0.671,19.307,9.617,21.319c9.272,2.087,9.841-10.534,9.841-10.534l0,0
			L352.847,255.914z"/>
	</g>
	<g>
		<polygon fill="#FFFFFF" points="391.049,277.465 371.592,266.683 405.739,231.675 424.359,242.417 		"/>
		<path fill="#E7E7E7" d="M371.592,266.683c0,0,0.669,19.306,9.615,21.319c9.273,2.085,9.842-10.537,9.842-10.537l0,0
			L371.592,266.683z"/>
	</g>
	<g>
		<polygon fill="#FA6248" points="409.377,288.149 389.918,277.365 424.065,242.357 442.686,253.1 		"/>
		<path fill="#E85B42" d="M389.918,277.365c0,0,0.671,19.308,9.616,21.319c9.272,2.086,9.843-10.535,9.843-10.535l0,0
			L389.918,277.365z"/>
	</g>
	<g>
		<polygon fill="#FFFFFF" points="428.119,298.917 408.662,288.134 442.81,253.127 461.429,263.869 		"/>
		<path fill="#E7E7E7" d="M408.662,288.134c0,0,0.67,19.308,9.615,21.32c9.273,2.085,9.842-10.537,9.842-10.537l0,0L408.662,288.134
			z"/>
	</g>
	<g>
		<polygon fill="#FA6248" points="446.863,309.631 427.405,298.849 461.553,263.841 480.172,274.583 		"/>
		<path fill="#E85B42" d="M427.405,298.849c0,0,0.671,19.307,9.616,21.32c9.273,2.083,9.842-10.538,9.842-10.538l0,0
			L427.405,298.849z"/>
	</g>
	<g>
		<polygon fill="#FFFFFF" points="465.552,320.41 446.094,309.625 480.241,274.616 498.86,285.36 		"/>
		<path fill="#E7E7E7" d="M446.094,309.625c0,0,0.67,19.307,9.617,21.319c9.271,2.087,9.841-10.534,9.841-10.534l0,0
			L446.094,309.625z"/>
	</g>
	<g>
		<polygon fill="#FA6248" points="483.951,331.191 464.493,320.409 498.641,285.4 517.261,296.142 		"/>
		<path fill="#E85B42" d="M464.493,320.409c0,0,0.671,19.305,9.616,21.318c9.273,2.085,9.842-10.536,9.842-10.536l0,0
			L464.493,320.409z"/>
	</g>
</g>
<g>
	<g>
		<g enable-background="new    ">
			<defs>
				<polygon id="SVGID_25_" enable-background="new    " points="474.289,541.419 474.561,445.517 559.471,494.539 559.199,590.441
									"/>
			</defs>
			<clipPath id="SVGID_26_">
				<use xlink:href="#SVGID_25_"  overflow="visible"/>
			</clipPath>
			<g clip-path="url(#SVGID_26_)">
				<g>
					<g>
						<g>
							<path fill="#FA6248" d="M492.098,499.035l-0.861-0.498l-0.013,4.38l0.287,0.165c1.11,0.642,1.903,1.099,2.382,1.361
								c0.479,0.27,0.92,0.42,1.328,0.466c0.41,0.037,0.691-0.064,0.846-0.306c0.154-0.234,0.232-0.564,0.232-0.99
								c0.002-0.564-0.086-1.042-0.276-1.461c-0.185-0.407-0.503-0.819-0.956-1.228c-0.307-0.279-0.734-0.585-1.27-0.902
								C493.254,499.702,492.691,499.378,492.098,499.035 M491.625,491.994l-0.369-0.214l-0.012,3.72l0.62,0.357
								c0.626,0.361,1.155,0.652,1.597,0.885c0.434,0.229,0.785,0.351,1.035,0.362c0.357,0.023,0.594-0.075,0.703-0.299
								s0.168-0.527,0.169-0.901c0.001-0.294-0.062-0.624-0.188-0.984c-0.127-0.366-0.35-0.716-0.676-1.043
								c-0.287-0.291-0.645-0.563-1.072-0.825S492.404,492.444,491.625,491.994 M487.288,503.878l0.05-17.593l5.943,3.432
								c1.232,0.711,2.14,1.279,2.707,1.703c0.574,0.426,1.143,0.968,1.703,1.614c0.58,0.673,1.014,1.379,1.299,2.116
								c0.279,0.728,0.418,1.462,0.416,2.195c-0.002,0.852-0.196,1.489-0.588,1.917c-0.397,0.417-0.947,0.606-1.664,0.561v0.095
								c1.002,0.807,1.792,1.732,2.377,2.791c0.586,1.058,0.877,2.167,0.873,3.341c-0.002,0.851-0.158,1.525-0.453,2.023
								c-0.303,0.495-0.713,0.816-1.236,0.954c-0.603,0.174-1.268,0.165-1.989-0.039c-0.722-0.189-1.642-0.609-2.753-1.251
								L487.288,503.878 M509.93,513.952c0.983,0.567,1.706,0.698,2.168,0.392c0.455-0.318,0.687-1.103,0.689-2.371l0.031-10.977
								l3.965,2.289l-0.031,11.226c-0.006,2.171-0.586,3.505-1.738,4.001c-1.158,0.491-2.852,0.094-5.093-1.199
								c-2.241-1.294-3.938-2.854-5.084-4.677c-1.146-1.823-1.71-3.809-1.704-5.98l0.033-11.232l3.965,2.289l-0.031,10.976
								c-0.004,1.219,0.217,2.256,0.662,3.116C508.207,512.656,508.928,513.373,509.93,513.952 M526.393,515.631l3.212-4.943
								l4.341,2.506l-5.674,7.527l-0.02,6.808l-3.952-2.282l0.019-6.595l-5.702-14.309l4.495,2.596L526.393,515.631
								 M508.297,464.994c-18.637-10.76-33.785-2.119-33.846,19.296c-0.061,21.408,14.99,47.483,33.627,58.244
								c7.536,4.351,14.504,5.527,20.134,3.97l-3.782-12.923l10.486,9.212c4.372-4.015,6.982-10.688,7.008-19.547
								C541.984,501.83,526.928,475.751,508.297,464.994"/>
							<path fill="#FFFFFF" d="M491.224,502.917l0.013-4.38l0.861,0.498c0.594,0.343,1.156,0.667,1.699,0.987
								c0.535,0.317,0.963,0.623,1.27,0.902c0.453,0.408,0.771,0.82,0.956,1.228c0.19,0.419,0.278,0.896,0.276,1.461
								c0,0.426-0.078,0.756-0.232,0.99c-0.154,0.241-0.436,0.343-0.846,0.306c-0.408-0.046-0.85-0.196-1.328-0.466
								c-0.479-0.263-1.271-0.72-2.382-1.361L491.224,502.917 M491.244,495.5l0.012-3.72l0.369,0.214
								c0.779,0.45,1.379,0.796,1.807,1.058s0.785,0.534,1.072,0.825c0.326,0.327,0.549,0.677,0.676,1.043
								c0.127,0.36,0.189,0.69,0.188,0.984c-0.001,0.374-0.06,0.678-0.169,0.901s-0.346,0.322-0.703,0.299
								c-0.25-0.012-0.602-0.134-1.035-0.362c-0.441-0.232-0.971-0.523-1.597-0.885L491.244,495.5 M493.281,489.717l-5.943-3.432
								l-0.05,17.593l6.685,3.859c1.111,0.642,2.031,1.062,2.753,1.251c0.722,0.204,1.387,0.213,1.989,0.039
								c0.523-0.138,0.934-0.459,1.236-0.954c0.295-0.498,0.451-1.173,0.453-2.023c0.004-1.174-0.287-2.283-0.873-3.341
								c-0.585-1.059-1.375-1.984-2.377-2.791v-0.095c0.717,0.046,1.267-0.144,1.664-0.561c0.392-0.428,0.586-1.065,0.588-1.917
								c0.002-0.733-0.137-1.468-0.416-2.195c-0.285-0.737-0.719-1.443-1.299-2.116c-0.561-0.646-1.129-1.188-1.703-1.614
								C495.421,490.996,494.514,490.428,493.281,489.717"/>
							<path fill="#FFFFFF" d="M516.783,503.285l-3.965-2.289l-0.031,10.977c-0.003,1.269-0.234,2.053-0.689,2.371
								c-0.462,0.307-1.185,0.176-2.168-0.392c-1.002-0.579-1.723-1.296-2.168-2.148c-0.445-0.86-0.666-1.897-0.662-3.116
								l0.031-10.976l-3.965-2.289l-0.033,11.232c-0.006,2.172,0.559,4.157,1.704,5.98c1.146,1.822,2.843,3.383,5.084,4.677
								c2.241,1.293,3.935,1.69,5.093,1.199c1.152-0.496,1.732-1.83,1.738-4.001L516.783,503.285"/>
							<polyline fill="#FFFFFF" points="533.945,513.193 529.604,510.688 526.393,515.631 523.111,506.938 518.616,504.343
								524.318,518.651 524.3,525.246 528.252,527.528 528.271,520.721 533.945,513.193 							"/>
							<polyline fill="#FFFFFF" points="524.43,533.581 528.212,546.504 535.85,572.604 539.365,564.184 552.833,586.766
								559.221,582.76 545.555,559.836 553.851,559.43 534.916,542.793 524.43,533.581 							"/>
						</g>
					</g>
				</g>
			</g>
		</g>
	</g>
</g>
</svg>
