<?xml version="1.0" encoding="utf-8"?>
<!-- Generator: Adobe Illustrator 16.0.0, SVG Export Plug-In . SVG Version: 6.00 Build 0)  -->
<!DOCTYPE svg PUBLIC "-//W3C//DTD SVG 1.1//EN" "http://www.w3.org/Graphics/SVG/1.1/DTD/svg11.dtd">
<svg version="1.1" id="Capa_2" xmlns="http://www.w3.org/2000/svg" xmlns:xlink="http://www.w3.org/1999/xlink" x="0px" y="0px"
	 width="208px" height="208px" viewBox="0 0 208 208" enable-background="new 0 0 208 208" xml:space="preserve">
<g>
	<rect x="102.625" y="112.843" fill="#FFFFFF" width="2.584" height="12.198"/>
	<path fill="#FFFFFF" d="M96.418,115.794c0.091,0.369,0.837,3.674-0.932,6.046c-0.846,1.134-2.09,1.814-3.705,2.031v1.17h8.895
		v-12.198h-5.524C95.729,113.896,96.208,114.938,96.418,115.794z"/>
	<path fill="#FFFFFF" d="M91.782,122.312c1.088-0.19,1.93-0.645,2.482-1.385c1.097-1.471,0.94-3.689,0.674-4.77
		c-0.226-0.917-0.836-2.125-1.536-3.315c-0.307-0.521-0.629-1.037-0.947-1.524c-0.52-0.8-1.022-1.521-1.398-2.047
		c-0.337,0.529-0.784,1.25-1.249,2.047c-0.285,0.488-0.576,1.004-0.853,1.524c-0.637,1.194-1.2,2.405-1.433,3.321
		c-0.321,1.262-0.574,3.772,0.52,5.18c0.493,0.634,1.231,0.967,2.215,1.045v-6.412h1.525V122.312z"/>
	<rect x="105.166" y="82.958" fill="#FFFFFF" width="10.419" height="0.575"/>
	<rect x="93.137" y="82.958" fill="#FFFFFF" width="10.504" height="0.575"/>
	<path fill="#FFFFFF" d="M0,0v208h208V0H0z M127.21,112.843h-20.055v12.198h19.292v1.524H81.552v-1.524h8.705v-1.132
		c-1.475-0.091-2.635-0.622-3.418-1.63c-1.792-2.305-0.901-6.07-0.793-6.491c0.216-0.849,0.665-1.891,1.194-2.945h-6.45v-29.31
		h10.822v-0.575h-10.06v-1.524h44.896v1.524h-9.338v0.575h10.101V112.843z"/>
	<path fill="#FFFFFF" d="M117.11,86.837h1.016v1.525h-3.558v-1.525h1.017v-1.778h-10.419v1.778h1.016v1.525h-3.558v-1.525h1.017
		v-1.778H93.137v1.778h1.017v1.525h-3.558v-1.525h1.017v-1.778h-9.297v26.26h5.736c1.11-1.984,2.252-3.691,2.335-3.815l0.595-0.885
		l0.645,0.85c0.094,0.124,1.396,1.846,2.635,3.851h31.424v-26.26h-8.576V86.837z M87.292,110.132h-1.102
		c-1.261,0-2.287-1.003-2.287-2.235V89.072c0-1.232,1.026-2.235,2.287-2.235h2.457v1.525h-2.457c-0.42,0-0.762,0.318-0.762,0.71
		v18.824c0,0.392,0.342,0.711,0.762,0.711h1.102V110.132z M88.817,106.912h-1.355v-1.355h1.355V106.912z M88.817,91.326h-1.355
		v-1.355h1.355V91.326z M120.159,86.837h2.076c1.261,0,2.287,1.003,2.287,2.235v18.824c0,1.232-1.026,2.235-2.287,2.235h-26.98
		v-1.524h26.98c0.42,0,0.762-0.319,0.762-0.711V89.072c0-0.392-0.342-0.71-0.762-0.71h-2.076V86.837z M119.905,89.971h1.355v1.355
		h-1.355V89.971z M119.905,105.557h1.355v1.355h-1.355V105.557z"/>
</g>
</svg>
