<?xml version="1.0" encoding="utf-8"?>
<!-- Generator: Adobe Illustrator 16.0.0, SVG Export Plug-In . SVG Version: 6.00 Build 0)  -->
<!DOCTYPE svg PUBLIC "-//W3C//DTD SVG 1.1//EN" "http://www.w3.org/Graphics/SVG/1.1/DTD/svg11.dtd">
<svg version="1.1" id="Capa_1" xmlns="http://www.w3.org/2000/svg" xmlns:xlink="http://www.w3.org/1999/xlink" x="0px" y="0px"
	 width="auto" height="auto" viewBox="0 0 230.892 230.621" enable-background="new 0 0 230.892 230.621"
	 xml:space="preserve">
<path fill="#FFFFFF" d="M230.79,230.426l-22.463-164.17l-38.306,38.845L116.237,0L63.124,106.066L22.296,66.771l-0.201-0.341
	l-0.018,0.13l-0.344,2.51L0,228.548l85.14-51.392l30.397,51.817l30.238-51.653l85.034,53.25l0.082,0.051L230.79,230.426z
	 M116.257,4.428l52.268,102.139l-33.497,32.778l-18.517,18.089l-51.742-50.186L116.257,4.428z M23.253,71.66l31.049,52.928
	l-0.125,0.238L18.003,193.29L2.586,222.704L23.253,71.66z M84.128,175.431l-79.76,48.232l51.399-96.571l0.001-0.003l16.272,27.738
	L84.13,175.43L84.128,175.431z M115.535,225.019L26.19,73.38l90.338,86.864l86.445-84.591L115.535,225.019z M146.786,175.594
	l27.961-47.765l24.03,45.129l26.972,52.083L146.786,175.594z M176.292,125.19l30.711-52.459l20.081,150.537L176.292,125.19z"/>
</svg>
