<?xml version="1.0" encoding="utf-8"?>
<!-- Generator: Adobe Illustrator 16.0.0, SVG Export Plug-In . SVG Version: 6.00 Build 0)  -->
<!DOCTYPE svg PUBLIC "-//W3C//DTD SVG 1.1//EN" "http://www.w3.org/Graphics/SVG/1.1/DTD/svg11.dtd">
<svg version="1.1" id="Capa_1" xmlns="http://www.w3.org/2000/svg" xmlns:xlink="http://www.w3.org/1999/xlink" x="0px" y="0px"
	 width="auto" height="138.47px" viewBox="0 0 138.47 138.47" enable-background="new 0 0 138.47 138.47" xml:space="preserve">
<g>
	<g>
		<path fill="#FFFFFF" d="M69.235,138.47C31.059,138.47,0,107.41,0,69.235C0,31.059,31.059,0,69.235,0
			c38.176,0,69.234,31.059,69.234,69.235C138.47,107.41,107.411,138.47,69.235,138.47z M69.235,7C34.918,7,7,34.918,7,69.235
			s27.918,62.235,62.235,62.235c34.316,0,62.234-27.918,62.234-62.235C131.47,34.919,103.552,7,69.235,7z"/>
	</g>
	<g>
		<path fill="#FFFFFF" d="M44.076,74.055c-0.003,0-0.004,0-0.009,0l-0.598-1.279c0,0-3.314-7.081-3.304-7.087L29.582,42.981
			c-0.198-0.396-0.593-0.658-1.12-0.658H27.41c-0.725,0-1.119,0.461-1.186,0.989L18.39,87.551c-0.131,0.923,0.396,1.514,1.251,1.514
			h5.926c0.593,0,1.119-0.523,1.185-0.985l3.819-24.952c0.065,0,0.196,0,0.196,0L42.42,89.001c0.197,0.396,0.526,0.724,1.119,0.724
			h1.185c0.593,0,0.988-0.328,1.119-0.724l2.569-5.771L44.076,74.055z"/>
		<path fill="#FFFFFF" d="M69.875,87.551l-7.77-44.239c-0.064-0.528-0.461-0.989-1.185-0.989h-1.053
			c-0.593,0-0.922,0.263-1.12,0.658L48.56,64.835l4.241,8.538l4.562-10.246c0,0,0.132,0,0.196,0l3.886,24.952
			c0.131,0.462,0.657,0.985,1.25,0.985h5.99C69.545,89.064,70.073,88.474,69.875,87.551z"/>
	</g>
	<g>
		<path fill="#FFFFFF" d="M99.122,65.07c-0.001-0.004,0-0.007-0.001-0.008l-1.185-0.559c0,0-6.559-3.084-6.564-3.073l-21.026-9.856
			c-0.365-0.184-0.606-0.552-0.607-1.041l0.003-0.975c0.001-0.67,0.428-1.036,0.917-1.097l41.021-7.175
			c0.855-0.119,1.402,0.372,1.401,1.164l-0.012,5.492c-0.002,0.549-0.489,1.035-0.918,1.095l-23.136,3.49
			c-0.002,0.062-0.002,0.186-0.002,0.186l23.961,10.852c0.363,0.184,0.67,0.49,0.668,1.039l-0.002,1.099
			c-0.002,0.549-0.305,0.914-0.676,1.035l-5.352,2.368L99.122,65.07z"/>
		<path fill="#FFFFFF" d="M111.581,89.01l-40.995-7.288c-0.487-0.062-0.913-0.43-0.915-1.1l0.006-0.979
			c0-0.55,0.247-0.854,0.611-1.035l20.273-9.397l7.904,3.948l-9.502,4.205c0,0-0.004,0.125,0,0.185l23.118,3.651
			c0.429,0.123,0.915,0.611,0.912,1.16l-0.012,5.556C112.984,88.708,112.435,89.195,111.581,89.01z"/>
	</g>
</g>
</svg>
