<?xml version="1.0" encoding="utf-8"?>
<!-- Generator: Adobe Illustrator 16.0.0, SVG Export Plug-In . SVG Version: 6.00 Build 0)  -->
<!DOCTYPE svg PUBLIC "-//W3C//DTD SVG 1.1//EN" "http://www.w3.org/Graphics/SVG/1.1/DTD/svg11.dtd">
<svg version="1.1" id="Capa_1" xmlns="http://www.w3.org/2000/svg" xmlns:xlink="http://www.w3.org/1999/xlink" x="0px" y="0px"
	 width="auto" height="auto" viewBox="0 0 945.316 260.852" enable-background="new 0 0 945.316 260.852"
	 xml:space="preserve">
<path fill="#FFFFFF" stroke="#FFFFFF" stroke-miterlimit="10" d="M230.79,230.426l-22.463-164.17l-38.306,38.845L116.237,0
	L63.124,106.066L22.296,66.771l-0.201-0.341l-0.018,0.13l-0.344,2.51L0,228.548l85.14-51.392l30.397,51.817l30.238-51.653
	l85.034,53.25l0.082,0.051L230.79,230.426z M116.257,4.428l52.268,102.139l-33.497,32.778l-18.517,18.089l-51.742-50.186
	L116.257,4.428z M23.253,71.66l31.049,52.928l-0.125,0.238L18.003,193.29L2.586,222.704L23.253,71.66z M84.128,175.431
	l-79.76,48.232l51.399-96.571l0.001-0.003l16.272,27.738L84.13,175.43L84.128,175.431z M115.535,225.019L26.19,73.38l90.338,86.864
	l86.445-84.591L115.535,225.019z M146.786,175.594l27.961-47.765l24.03,45.129l26.972,52.083L146.786,175.594z M176.292,125.19
	l30.711-52.459l20.081,150.537L176.292,125.19z"/>
<g>
	<path fill="#FFFFFF" stroke="#FFFFFF" stroke-miterlimit="10" d="M343.188,107.968l-37.225,51.823
		c-0.438,0.438-1.022,0.729-1.605,0.729h-0.293c-0.729,0-1.313-0.291-1.605-0.729l-37.371-51.97v92.99
		c0,1.022-0.73,1.897-1.752,1.897s-1.897-0.875-1.897-1.897v-98.245c0-0.876,0.876-1.897,1.897-1.897c0.146,0,0.292,0,0.438,0.146
		c0.438,0,0.877,0.291,1.314,0.584l39.123,54.305l39.123-54.305c0.291-0.293,0.729-0.584,1.168-0.584
		c0.146-0.146,0.291-0.146,0.438-0.146c1.168,0,1.897,1.021,1.897,1.897v98.245c0,1.022-0.729,1.897-1.897,1.897
		c-0.876,0-1.752-0.875-1.752-1.897V107.968z"/>
	<path fill="#FFFFFF" stroke="#FFFFFF" stroke-miterlimit="10" d="M438.95,133.077v67.734c0,1.168-0.729,1.897-1.751,1.897
		c-1.168,0-1.897-0.729-1.897-1.897v-17.81c-5.548,11.679-16.934,19.707-30.072,19.707c-18.686,0-33.722-16.203-33.722-35.765
		s15.036-35.766,33.722-35.766c13.139,0,24.524,8.176,30.072,19.707v-17.809c0-0.877,0.729-1.898,1.897-1.898
		C438.221,131.179,438.95,132.2,438.95,133.077z M435.302,166.944c0-17.664-13.576-31.971-30.072-31.971
		s-30.072,14.307-30.072,31.971c0,17.81,13.576,32.116,30.072,32.116S435.302,184.754,435.302,166.944z"/>
	<path fill="#FFFFFF" stroke="#FFFFFF" stroke-miterlimit="10" d="M465.81,102.421c0-1.021,0.73-1.898,1.898-1.898
		c0.875,0,1.75,0.877,1.75,1.898v75.764l47.006-47.006c0.73-0.73,1.752-0.73,2.629,0c0.729,0.73,0.729,1.898,0,2.628l-29.635,29.634
		l29.635,36.058c0.729,1.021,0.438,2.043-0.293,2.773c-0.291,0.292-0.73,0.438-1.021,0.438c-0.584,0-1.168-0.146-1.459-0.729
		l-29.635-35.766l-16.787,16.788c-0.146,0.146-0.293,0.292-0.439,0.292v17.518c0,1.022-0.875,1.897-1.75,1.897
		c-1.168,0-1.898-0.875-1.898-1.897V102.421z"/>
	<path fill="#FFFFFF" stroke="#FFFFFF" stroke-miterlimit="10" d="M535.005,166.944c0.291-19.854,15.619-35.766,34.742-35.766
		c18.248,0,32.992,14.452,34.307,32.992v0.146v0.292v0.146c-0.146,0.875-0.877,1.752-1.752,1.752h-63.648v0.438
		c0,17.518,13.869,31.97,31.094,32.116c10.803,0,20.293-5.84,25.693-14.599c0.584-0.876,1.605-0.876,2.627-0.438
		c0.73,0.438,1.023,1.606,0.439,2.482c-6.133,9.488-16.789,16.203-28.76,16.203C550.624,202.418,535.296,186.506,535.005,166.944z
		 M538.8,163.003h61.604c-1.896-15.912-15.035-28.029-30.656-28.029C553.837,134.974,540.698,147.091,538.8,163.003z"/>
	<path fill="#FFFFFF" stroke="#FFFFFF" stroke-miterlimit="10" d="M708.575,107.968l-37.225,51.823
		c-0.438,0.438-1.021,0.729-1.605,0.729h-0.293c-0.73,0-1.314-0.291-1.605-0.729l-37.371-51.97v92.99
		c0,1.022-0.73,1.897-1.752,1.897s-1.898-0.875-1.898-1.897v-98.245c0-0.876,0.877-1.897,1.898-1.897c0.146,0,0.293,0,0.438,0.146
		c0.439,0,0.877,0.291,1.314,0.584l39.123,54.305l39.123-54.305c0.291-0.293,0.73-0.584,1.168-0.584
		c0.145-0.146,0.291-0.146,0.438-0.146c1.168,0,1.898,1.021,1.898,1.897v98.245c0,1.022-0.73,1.897-1.898,1.897
		c-0.875,0-1.752-0.875-1.752-1.897V107.968z"/>
	<path fill="#FFFFFF" stroke="#FFFFFF" stroke-miterlimit="10" d="M804.337,133.077v67.734c0,1.168-0.729,1.897-1.752,1.897
		c-1.168,0-1.896-0.729-1.896-1.897v-17.81c-5.547,11.679-16.934,19.707-30.072,19.707c-18.686,0-33.723-16.203-33.723-35.765
		s15.037-35.766,33.723-35.766c13.139,0,24.525,8.176,30.072,19.707v-17.809c0-0.877,0.729-1.898,1.896-1.898
		C803.608,131.179,804.337,132.2,804.337,133.077z M800.688,166.944c0-17.664-13.576-31.971-30.072-31.971
		s-30.072,14.307-30.072,31.971c0,17.81,13.576,32.116,30.072,32.116S800.688,184.754,800.688,166.944z"/>
	<path fill="#FFFFFF" stroke="#FFFFFF" stroke-miterlimit="10" d="M831.343,167.382c-0.146-0.291-0.146-0.438,0-0.875v-33.43
		c0-1.022,0.875-1.898,1.752-1.898c1.168,0,1.752,0.876,1.752,1.898v24.232c1.168-2.628,2.627-5.547,4.525-8.467
		c5.547-8.321,14.744-17.664,28.467-17.664c1.166,0,1.896,0.876,1.896,1.898c0,1.021-0.73,1.896-1.896,1.896
		c-9.051,0-15.912,4.381-20.73,9.781c-5.109,5.84-8.613,13.139-10.51,17.664c-1.168,3.211-1.752,4.963-1.752,4.963v33.43
		c0,1.168-0.584,1.897-1.752,1.897c-0.877,0-1.752-0.729-1.752-1.897V167.382z"/>
	<path fill="#FFFFFF" stroke="#FFFFFF" stroke-miterlimit="10" d="M891.485,102.421c0-1.021,0.73-1.898,1.898-1.898
		c0.875,0,1.752,0.877,1.752,1.898v75.764l47.006-47.006c0.73-0.73,1.752-0.73,2.627,0c0.73,0.73,0.73,1.898,0,2.628l-29.633,29.634
		l29.633,36.058c0.73,1.021,0.438,2.043-0.291,2.773c-0.293,0.292-0.73,0.438-1.023,0.438c-0.582,0-1.166-0.146-1.459-0.729
		l-29.635-35.766l-16.787,16.788c-0.146,0.146-0.291,0.292-0.438,0.292v17.518c0,1.022-0.877,1.897-1.752,1.897
		c-1.168,0-1.898-0.875-1.898-1.897V102.421z"/>
</g>
<g>
	<path fill="#FFFFFF" stroke="#FFFFFF" stroke-miterlimit="10" d="M337.394,225.29c3.268,0,6.307,1.14,8.625,2.926
		c0.228,0.19,0.303,0.493,0.151,0.684c-0.228,0.228-0.532,0.267-0.722,0.076c-2.204-1.71-4.978-2.698-8.055-2.698
		c-7.029,0-12.805,5.586-12.805,12.463c0,6.953,5.775,12.538,12.805,12.538c3.039,0,5.812-0.987,8.017-2.698
		c0.228-0.151,0.532-0.151,0.722,0.076c0.189,0.19,0.114,0.494-0.113,0.684c-2.395,1.787-5.357,2.926-8.625,2.926
		c-7.6-0.037-13.793-6.078-13.793-13.525C323.601,231.369,329.794,225.29,337.394,225.29z"/>
	<path fill="#FFFFFF" stroke="#FFFFFF" stroke-miterlimit="10" d="M353.696,243.071c-0.037-0.075-0.037-0.114,0-0.228v-8.701
		c0-0.266,0.229-0.494,0.457-0.494c0.304,0,0.455,0.229,0.455,0.494v6.307c0.305-0.684,0.684-1.443,1.178-2.203
		c1.444-2.166,3.838-4.598,7.41-4.598c0.303,0,0.493,0.229,0.493,0.494s-0.19,0.494-0.493,0.494c-2.356,0-4.143,1.14-5.396,2.545
		c-1.329,1.521-2.241,3.42-2.734,4.598c-0.305,0.836-0.457,1.292-0.457,1.292v8.7c0,0.305-0.151,0.494-0.455,0.494
		c-0.229,0-0.457-0.189-0.457-0.494V243.071z"/>
	<path fill="#FFFFFF" stroke="#FFFFFF" stroke-miterlimit="10" d="M367.111,242.957c0.076-5.167,4.065-9.309,9.042-9.309
		c4.75,0,8.588,3.762,8.93,8.588v0.037v0.076v0.038c-0.038,0.228-0.229,0.456-0.456,0.456h-16.565v0.113
		c0,4.56,3.609,8.321,8.092,8.359c2.812,0,5.281-1.52,6.688-3.8c0.152-0.228,0.418-0.228,0.684-0.114
		c0.19,0.114,0.267,0.418,0.115,0.646c-1.597,2.47-4.37,4.217-7.486,4.217C371.177,252.189,367.188,248.049,367.111,242.957z
		 M368.099,241.932h16.034c-0.493-4.142-3.913-7.295-7.979-7.295C372.013,234.637,368.593,237.79,368.099,241.932z"/>
	<path fill="#FFFFFF" stroke="#FFFFFF" stroke-miterlimit="10" d="M407.122,234.143v17.629c0,0.305-0.189,0.494-0.455,0.494
		c-0.305,0-0.494-0.189-0.494-0.494v-4.635c-1.443,3.039-4.408,5.129-7.827,5.129c-4.863,0-8.776-4.217-8.776-9.309
		c0-5.091,3.913-9.309,8.776-9.309c3.419,0,6.384,2.128,7.827,5.13v-4.636c0-0.228,0.189-0.494,0.494-0.494
		C406.933,233.648,407.122,233.915,407.122,234.143z M406.173,242.957c0-4.597-3.533-8.32-7.827-8.32s-7.827,3.724-7.827,8.32
		c0,4.636,3.533,8.359,7.827,8.359S406.173,247.593,406.173,242.957z"/>
	<path fill="#FFFFFF" stroke="#FFFFFF" stroke-miterlimit="10" d="M421.336,234.143c0,0.266-0.228,0.456-0.494,0.456h-3.04v14.817
		c0,1.064,0.875,1.938,1.938,1.938c0.266,0,0.493,0.191,0.493,0.457s-0.228,0.494-0.493,0.494c-1.596,0-2.888-1.293-2.888-2.889
		v-14.817h-3.191c-0.266,0-0.494-0.19-0.494-0.456s0.229-0.494,0.494-0.494h3.191v-7.446c0-0.267,0.189-0.494,0.456-0.494
		c0.266,0,0.493,0.228,0.493,0.494v7.446h3.04C421.108,233.648,421.336,233.877,421.336,234.143z"/>
	<path fill="#FFFFFF" stroke="#FFFFFF" stroke-miterlimit="10" d="M430.343,228.14c0-0.304,0.189-0.493,0.494-0.493
		c0.228,0,0.455,0.189,0.455,0.493v0.912c0,0.228-0.228,0.456-0.455,0.456c-0.305,0-0.494-0.229-0.494-0.456V228.14z
		 M430.343,234.105c0-0.305,0.189-0.457,0.494-0.457c0.228,0,0.455,0.152,0.455,0.457v17.666c0,0.267-0.228,0.494-0.455,0.494
		c-0.305,0-0.494-0.228-0.494-0.494V234.105z"/>
	<path fill="#FFFFFF" stroke="#FFFFFF" stroke-miterlimit="10" d="M455.04,241.172c0-3.686-2.963-6.573-6.535-6.573
		c-3.571,0-6.572,2.888-6.572,6.573v10.6c0,0.115-0.039,0.229-0.115,0.305c-0.075,0.113-0.189,0.189-0.342,0.189h-0.076h-0.075
		c-0.038-0.037-0.076-0.037-0.114-0.076c-0.037,0-0.076-0.037-0.113-0.075c-0.039-0.038-0.039-0.038-0.039-0.076
		c-0.037-0.038-0.075-0.114-0.075-0.19v-0.076v-10.6v-0.305v-6.762c0-0.305,0.228-0.457,0.493-0.457
		c0.267,0,0.457,0.152,0.457,0.457v3.419c1.291-2.317,3.761-3.876,6.572-3.876c4.104,0,7.484,3.344,7.484,7.523v10.6
		c0,0.267-0.227,0.494-0.494,0.494c-0.303,0-0.455-0.228-0.455-0.494V241.172z"/>
	<path fill="#FFFFFF" stroke="#FFFFFF" stroke-miterlimit="10" d="M480.575,234.143v17.06c0,4.863-3.914,8.815-8.777,8.815
		c-1.406,0-2.658-0.343-3.875-0.912c-0.229-0.152-0.305-0.418-0.189-0.646c0.113-0.228,0.379-0.304,0.645-0.228
		c1.064,0.532,2.168,0.835,3.42,0.835c4.332-0.075,7.828-3.533,7.828-7.864v-4.065c-1.406,3.002-4.408,5.129-7.828,5.129
		c-4.863,0-8.775-4.217-8.775-9.309c0-5.129,3.912-9.309,8.775-9.309c3.42,0,6.422,2.128,7.828,5.092v-4.598
		c0-0.266,0.227-0.494,0.455-0.494C480.386,233.648,480.575,233.877,480.575,234.143z M471.798,234.599
		c-4.293,0-7.826,3.724-7.826,8.358c0,4.636,3.533,8.321,7.826,8.321s7.828-3.686,7.828-8.321
		C479.626,238.322,476.091,234.599,471.798,234.599z"/>
	<path fill="#FFFFFF" stroke="#FFFFFF" stroke-miterlimit="10" d="M510.366,252.152c-0.074-0.038-0.113-0.114-0.15-0.189
		l-10.754-25.57c-0.113-0.229,0-0.533,0.229-0.608c0.266-0.114,0.531,0,0.684,0.228l10.297,24.507l10.334-24.507
		c0.076-0.228,0.381-0.342,0.609-0.228c0.266,0.075,0.342,0.38,0.266,0.608l-10.754,25.57c0,0.037-0.037,0.037-0.037,0.037
		c-0.037,0.114-0.113,0.189-0.229,0.229h-0.037c-0.039,0.037-0.115,0.037-0.152,0.037h-0.037h-0.076
		c-0.039-0.037-0.076-0.037-0.076-0.037C510.442,252.229,510.405,252.189,510.366,252.152z"/>
	<path fill="#FFFFFF" stroke="#FFFFFF" stroke-miterlimit="10" d="M528.532,228.14c0-0.304,0.189-0.493,0.494-0.493
		c0.229,0,0.457,0.189,0.457,0.493v0.912c0,0.228-0.229,0.456-0.457,0.456c-0.305,0-0.494-0.229-0.494-0.456V228.14z
		 M528.532,234.105c0-0.305,0.189-0.457,0.494-0.457c0.229,0,0.457,0.152,0.457,0.457v17.666c0,0.267-0.229,0.494-0.457,0.494
		c-0.305,0-0.494-0.228-0.494-0.494V234.105z"/>
	<path fill="#FFFFFF" stroke="#FFFFFF" stroke-miterlimit="10" d="M539.21,243.071c-0.037-0.075-0.037-0.114,0-0.228v-8.701
		c0-0.266,0.229-0.494,0.457-0.494c0.303,0,0.455,0.229,0.455,0.494v6.307c0.305-0.684,0.684-1.443,1.178-2.203
		c1.443-2.166,3.838-4.598,7.41-4.598c0.303,0,0.492,0.229,0.492,0.494s-0.189,0.494-0.492,0.494c-2.357,0-4.143,1.14-5.396,2.545
		c-1.33,1.521-2.242,3.42-2.734,4.598c-0.305,0.836-0.457,1.292-0.457,1.292v8.7c0,0.305-0.152,0.494-0.455,0.494
		c-0.229,0-0.457-0.189-0.457-0.494V243.071z"/>
	<path fill="#FFFFFF" stroke="#FFFFFF" stroke-miterlimit="10" d="M562.085,234.143c0,0.266-0.227,0.456-0.494,0.456h-3.039v14.817
		c0,1.064,0.875,1.938,1.938,1.938c0.266,0,0.494,0.191,0.494,0.457s-0.229,0.494-0.494,0.494c-1.596,0-2.887-1.293-2.887-2.889
		v-14.817h-3.191c-0.266,0-0.494-0.19-0.494-0.456s0.229-0.494,0.494-0.494h3.191v-7.446c0-0.267,0.189-0.494,0.455-0.494
		s0.494,0.228,0.494,0.494v7.446h3.039C561.858,233.648,562.085,233.877,562.085,234.143z"/>
	<path fill="#FFFFFF" stroke="#FFFFFF" stroke-miterlimit="10" d="M570.675,234.143c0-0.266,0.189-0.494,0.494-0.494
		c0.227,0,0.455,0.229,0.455,0.494v10.601c0,3.647,2.926,6.573,6.498,6.573c3.609,0,6.533-2.926,6.533-6.573v-10.601
		c0-0.266,0.268-0.494,0.494-0.494c0.268,0,0.494,0.229,0.494,0.494v10.601c0,4.179-3.381,7.522-7.521,7.522
		c-4.104,0-7.447-3.344-7.447-7.522V234.143z"/>
	<path fill="#FFFFFF" stroke="#FFFFFF" stroke-miterlimit="10" d="M609.888,234.143v17.629c0,0.305-0.189,0.494-0.457,0.494
		c-0.303,0-0.492-0.189-0.492-0.494v-4.635c-1.445,3.039-4.408,5.129-7.828,5.129c-4.863,0-8.775-4.217-8.775-9.309
		c0-5.091,3.912-9.309,8.775-9.309c3.42,0,6.383,2.128,7.828,5.13v-4.636c0-0.228,0.189-0.494,0.492-0.494
		C609.698,233.648,609.888,233.915,609.888,234.143z M608.938,242.957c0-4.597-3.535-8.32-7.828-8.32s-7.826,3.724-7.826,8.32
		c0,4.636,3.533,8.359,7.826,8.359S608.938,247.593,608.938,242.957z"/>
	<path fill="#FFFFFF" stroke="#FFFFFF" stroke-miterlimit="10" d="M618.667,226.164c0-0.266,0.189-0.494,0.494-0.494
		c0.266,0,0.455,0.229,0.455,0.494v25.607c0,0.267-0.189,0.494-0.455,0.494c-0.305,0-0.494-0.228-0.494-0.494V226.164z"/>
	<path fill="#FFFFFF" stroke="#FFFFFF" stroke-miterlimit="10" d="M640.212,252.266h-0.076c-0.303,0-0.455-0.228-0.455-0.494
		v-25.607c0-0.229,0.152-0.456,0.455-0.494h0.039h0.037h14.096c0.266,0,0.457,0.229,0.457,0.494s-0.191,0.456-0.457,0.456H640.63
		v11.854h12.045c0.266,0,0.455,0.228,0.455,0.455c0,0.305-0.189,0.494-0.455,0.494H640.63v11.893h13.678
		c0.266,0,0.457,0.189,0.457,0.455c0,0.267-0.191,0.494-0.457,0.494h-14.057H640.212z"/>
	<path fill="#FFFFFF" stroke="#FFFFFF" stroke-miterlimit="10" d="M660.96,251.506l6.23-8.549l-6.23-8.51
		c-0.152-0.19-0.113-0.494,0.076-0.646c0.266-0.152,0.531-0.076,0.684,0.114l6.08,8.282l5.965-8.282
		c0.189-0.19,0.494-0.267,0.684-0.114c0.229,0.152,0.305,0.456,0.152,0.646l-6.193,8.51l6.193,8.549
		c0.152,0.229,0.076,0.532-0.152,0.646c-0.039,0.113-0.152,0.113-0.229,0.113c-0.189,0-0.342-0.037-0.455-0.189l-5.965-8.283
		l-6.08,8.283c-0.113,0.152-0.229,0.189-0.379,0.189c-0.115,0-0.191,0-0.305-0.113C660.847,252.038,660.808,251.734,660.96,251.506z
		"/>
	<path fill="#FFFFFF" stroke="#FFFFFF" stroke-miterlimit="10" d="M683.456,243.224v-0.38v-0.381v-8.32
		c0-0.304,0.189-0.494,0.494-0.494c0.266,0,0.455,0.19,0.455,0.494v4.598c1.443-3.039,4.484-5.092,7.941-5.092
		c5.016,0,8.967,4.104,8.967,9.195c0,5.091-3.951,9.232-8.967,9.232c-3.457,0-6.498-2.09-7.941-5.053v12.879
		c0,0.305-0.189,0.494-0.455,0.494c-0.305,0-0.494-0.189-0.494-0.494V243.224z M684.405,242.844c0,4.559,3.609,8.244,7.941,8.244
		c4.369,0,7.979-3.686,7.979-8.244c0-4.521-3.609-8.245-7.979-8.245c-4.217,0-7.789,3.534-7.941,7.903V242.844z"/>
	<path fill="#FFFFFF" stroke="#FFFFFF" stroke-miterlimit="10" d="M706.825,242.957c0.076-5.167,4.066-9.309,9.043-9.309
		c4.75,0,8.586,3.762,8.928,8.588v0.037v0.076v0.038c-0.037,0.228-0.227,0.456-0.455,0.456h-16.566v0.113
		c0,4.56,3.611,8.321,8.094,8.359c2.812,0,5.281-1.52,6.688-3.8c0.152-0.228,0.418-0.228,0.684-0.114
		c0.189,0.114,0.266,0.418,0.113,0.646c-1.596,2.47-4.369,4.217-7.484,4.217C710.892,252.189,706.901,248.049,706.825,242.957z
		 M707.813,241.932h16.033c-0.494-4.142-3.914-7.295-7.979-7.295C711.728,234.637,708.308,237.79,707.813,241.932z"/>
	<path fill="#FFFFFF" stroke="#FFFFFF" stroke-miterlimit="10" d="M730.538,243.071c-0.039-0.075-0.039-0.114,0-0.228v-8.701
		c0-0.266,0.229-0.494,0.455-0.494c0.305,0,0.457,0.229,0.457,0.494v6.307c0.303-0.684,0.684-1.443,1.178-2.203
		c1.443-2.166,3.838-4.598,7.408-4.598c0.305,0,0.494,0.229,0.494,0.494s-0.189,0.494-0.494,0.494c-2.355,0-4.141,1.14-5.395,2.545
		c-1.33,1.521-2.242,3.42-2.736,4.598c-0.303,0.836-0.455,1.292-0.455,1.292v8.7c0,0.305-0.152,0.494-0.457,0.494
		c-0.227,0-0.455-0.189-0.455-0.494V243.071z"/>
	<path fill="#FFFFFF" stroke="#FFFFFF" stroke-miterlimit="10" d="M747.22,228.14c0-0.304,0.189-0.493,0.494-0.493
		c0.227,0,0.455,0.189,0.455,0.493v0.912c0,0.228-0.229,0.456-0.455,0.456c-0.305,0-0.494-0.229-0.494-0.456V228.14z
		 M747.22,234.105c0-0.305,0.189-0.457,0.494-0.457c0.227,0,0.455,0.152,0.455,0.457v17.666c0,0.267-0.229,0.494-0.455,0.494
		c-0.305,0-0.494-0.228-0.494-0.494V234.105z"/>
	<path fill="#FFFFFF" stroke="#FFFFFF" stroke-miterlimit="10" d="M756.53,242.957c0.074-5.167,4.064-9.309,9.041-9.309
		c4.75,0,8.588,3.762,8.93,8.588v0.037v0.076v0.038c-0.039,0.228-0.229,0.456-0.457,0.456h-16.564v0.113
		c0,4.56,3.609,8.321,8.092,8.359c2.812,0,5.281-1.52,6.688-3.8c0.152-0.228,0.418-0.228,0.684-0.114
		c0.191,0.114,0.266,0.418,0.115,0.646c-1.596,2.47-4.369,4.217-7.486,4.217C760.595,252.189,756.604,248.049,756.53,242.957z
		 M757.517,241.932h16.035c-0.494-4.142-3.914-7.295-7.98-7.295C761.431,234.637,758.011,237.79,757.517,241.932z"/>
	<path fill="#FFFFFF" stroke="#FFFFFF" stroke-miterlimit="10" d="M795.06,241.172c0-3.686-2.965-6.573-6.535-6.573
		c-3.572,0-6.574,2.888-6.574,6.573v10.6c0,0.115-0.037,0.229-0.113,0.305c-0.076,0.113-0.189,0.189-0.342,0.189h-0.076h-0.076
		c-0.037-0.037-0.076-0.037-0.113-0.076c-0.039,0-0.076-0.037-0.115-0.075c-0.037-0.038-0.037-0.038-0.037-0.076
		c-0.039-0.038-0.076-0.114-0.076-0.19v-0.076v-10.6v-0.305v-6.762c0-0.305,0.229-0.457,0.494-0.457s0.455,0.152,0.455,0.457v3.419
		c1.293-2.317,3.762-3.876,6.574-3.876c4.104,0,7.484,3.344,7.484,7.523v10.6c0,0.267-0.229,0.494-0.494,0.494
		c-0.305,0-0.455-0.228-0.455-0.494V241.172z"/>
	<path fill="#FFFFFF" stroke="#FFFFFF" stroke-miterlimit="10" d="M812.54,233.648c2.203,0,4.293,0.723,5.926,2.014
		c0.191,0.19,0.191,0.494,0.039,0.723c-0.152,0.189-0.418,0.189-0.646,0.037c-1.482-1.139-3.344-1.823-5.318-1.823
		c-4.826,0-8.625,3.762-8.625,8.358c0,4.598,3.799,8.359,8.625,8.359c1.975,0,3.836-0.723,5.318-1.861
		c0.189-0.115,0.494-0.076,0.646,0.113c0.152,0.229,0.152,0.494-0.039,0.684c-1.633,1.254-3.723,2.014-5.926,2.014
		c-5.281-0.037-9.574-4.217-9.574-9.309C802.966,237.828,807.259,233.648,812.54,233.648z"/>
	<path fill="#FFFFFF" stroke="#FFFFFF" stroke-miterlimit="10" d="M824.093,242.957c0.076-5.167,4.066-9.309,9.043-9.309
		c4.75,0,8.586,3.762,8.928,8.588v0.037v0.076v0.038c-0.037,0.228-0.227,0.456-0.455,0.456h-16.566v0.113
		c0,4.56,3.609,8.321,8.094,8.359c2.811,0,5.281-1.52,6.688-3.8c0.15-0.228,0.418-0.228,0.684-0.114
		c0.189,0.114,0.266,0.418,0.113,0.646c-1.596,2.47-4.369,4.217-7.484,4.217C828.159,252.189,824.169,248.049,824.093,242.957z
		 M825.081,241.932h16.033c-0.494-4.142-3.914-7.295-7.979-7.295C828.993,234.637,825.575,237.79,825.081,241.932z"/>
	<path fill="#FFFFFF" stroke="#FFFFFF" stroke-miterlimit="10" d="M847.12,248.998c0.152-0.266,0.457-0.303,0.684-0.076
		c1.369,1.103,3.686,2.395,6.156,2.395c1.633,0,3.039-0.494,4.104-1.254c1.062-0.76,1.672-1.785,1.672-2.888
		c-0.039-1.063-0.533-1.899-1.559-2.622c-1.064-0.684-2.508-1.178-4.293-1.52h-0.115c-1.709-0.266-3.229-0.722-4.33-1.52
		c-1.102-0.722-1.861-1.824-1.861-3.153c0.037-2.698,2.924-4.712,6.344-4.712c2.355,0,4.18,1.178,5.623,2.166
		c0.229,0.152,0.268,0.456,0.152,0.646c-0.152,0.228-0.455,0.303-0.684,0.151c-1.443-0.95-3.039-2.014-5.092-2.014
		c-1.557,0-2.926,0.456-3.875,1.178s-1.482,1.597-1.482,2.584s0.457,1.71,1.406,2.355s2.355,1.103,4.027,1.444h0.039
		c1.861,0.379,3.457,0.797,4.672,1.596c1.178,0.797,1.977,1.975,1.977,3.419c-0.039,2.926-3.115,5.091-6.725,5.091
		c-2.812,0-5.281-1.443-6.764-2.659C846.968,249.455,846.968,249.188,847.12,248.998z"/>
</g>
</svg>
