<?xml version="1.0" encoding="utf-8"?>
<!-- Generator: Adobe Illustrator 16.0.0, SVG Export Plug-In . SVG Version: 6.00 Build 0)  -->
<!DOCTYPE svg PUBLIC "-//W3C//DTD SVG 1.1//EN" "http://www.w3.org/Graphics/SVG/1.1/DTD/svg11.dtd">
<svg version="1.1" id="Capa_1" xmlns="http://www.w3.org/2000/svg" xmlns:xlink="http://www.w3.org/1999/xlink" x="0px" y="0px"
	 width="auto" height="auto" viewBox="0 0 954 261" enable-background="new 0 0 954 261" xml:space="preserve">
<g>
	<path fill="#FFFFFF" d="M346.659,108.758l-37.225,51.823c-0.438,0.438-1.022,0.729-1.605,0.729h-0.293
		c-0.729,0-1.313-0.291-1.605-0.729l-37.371-51.97v92.99c0,1.022-0.73,1.897-1.752,1.897s-1.897-0.875-1.897-1.897v-98.245
		c0-0.876,0.876-1.897,1.897-1.897c0.146,0,0.292,0,0.438,0.146c0.438,0,0.877,0.291,1.314,0.584l39.123,54.305l39.123-54.305
		c0.291-0.293,0.729-0.584,1.168-0.584c0.146-0.146,0.291-0.146,0.438-0.146c1.168,0,1.897,1.021,1.897,1.897v98.245
		c0,1.022-0.729,1.897-1.897,1.897c-0.876,0-1.752-0.875-1.752-1.897V108.758z"/>
	<path fill="#FFFFFF" d="M442.421,133.867v67.734c0,1.168-0.729,1.897-1.751,1.897c-1.168,0-1.897-0.729-1.897-1.897v-17.81
		c-5.548,11.679-16.934,19.707-30.072,19.707c-18.686,0-33.722-16.203-33.722-35.765s15.036-35.766,33.722-35.766
		c13.139,0,24.524,8.176,30.072,19.707v-17.809c0-0.877,0.729-1.898,1.897-1.898C441.691,131.969,442.421,132.99,442.421,133.867z
		 M438.772,167.734c0-17.664-13.576-31.971-30.072-31.971s-30.072,14.307-30.072,31.971c0,17.81,13.576,32.116,30.072,32.116
		S438.772,185.544,438.772,167.734z"/>
	<path fill="#FFFFFF" d="M469.28,103.211c0-1.021,0.73-1.898,1.898-1.898c0.875,0,1.751,0.877,1.751,1.898v75.764l47.005-47.006
		c0.73-0.73,1.752-0.73,2.629,0c0.729,0.73,0.729,1.898,0,2.628l-29.635,29.634l29.635,36.058c0.729,1.021,0.438,2.043-0.293,2.773
		c-0.291,0.292-0.73,0.438-1.021,0.438c-0.584,0-1.168-0.146-1.459-0.729l-29.635-35.766l-16.787,16.788
		c-0.146,0.146-0.293,0.292-0.438,0.292v17.518c0,1.022-0.876,1.897-1.751,1.897c-1.168,0-1.898-0.875-1.898-1.897V103.211z"/>
	<path fill="#FFFFFF" d="M538.476,167.734c0.291-19.854,15.619-35.766,34.742-35.766c18.248,0,32.992,14.452,34.307,32.992v0.146
		v0.292v0.146c-0.146,0.875-0.877,1.752-1.752,1.752h-63.648v0.438c0,17.518,13.869,31.97,31.094,32.116
		c10.803,0,20.293-5.84,25.693-14.599c0.584-0.876,1.605-0.876,2.627-0.438c0.73,0.438,1.023,1.606,0.439,2.482
		c-6.133,9.488-16.789,16.203-28.76,16.203C554.095,203.208,538.767,187.296,538.476,167.734z M542.271,163.793h61.604
		c-1.896-15.912-15.035-28.029-30.656-28.029C557.308,135.764,544.169,147.881,542.271,163.793z"/>
	<path fill="#FFFFFF" d="M712.046,108.758l-37.225,51.823c-0.438,0.438-1.021,0.729-1.605,0.729h-0.293
		c-0.73,0-1.314-0.291-1.605-0.729l-37.371-51.97v92.99c0,1.022-0.73,1.897-1.752,1.897s-1.898-0.875-1.898-1.897v-98.245
		c0-0.876,0.877-1.897,1.898-1.897c0.146,0,0.293,0,0.438,0.146c0.439,0,0.877,0.291,1.314,0.584l39.123,54.305l39.123-54.305
		c0.291-0.293,0.73-0.584,1.168-0.584c0.145-0.146,0.291-0.146,0.438-0.146c1.168,0,1.898,1.021,1.898,1.897v98.245
		c0,1.022-0.73,1.897-1.898,1.897c-0.875,0-1.752-0.875-1.752-1.897V108.758z"/>
	<path fill="#FFFFFF" d="M807.808,133.867v67.734c0,1.168-0.729,1.897-1.752,1.897c-1.168,0-1.896-0.729-1.896-1.897v-17.81
		c-5.547,11.679-16.934,19.707-30.072,19.707c-18.686,0-33.723-16.203-33.723-35.765s15.037-35.766,33.723-35.766
		c13.139,0,24.525,8.176,30.072,19.707v-17.809c0-0.877,0.729-1.898,1.896-1.898C807.079,131.969,807.808,132.99,807.808,133.867z
		 M804.159,167.734c0-17.664-13.576-31.971-30.072-31.971s-30.072,14.307-30.072,31.971c0,17.81,13.576,32.116,30.072,32.116
		S804.159,185.544,804.159,167.734z"/>
	<path fill="#FFFFFF" d="M834.813,168.172c-0.146-0.291-0.146-0.438,0-0.875v-33.43c0-1.022,0.875-1.898,1.752-1.898
		c1.168,0,1.752,0.876,1.752,1.898V158.1c1.168-2.628,2.627-5.547,4.525-8.467c5.547-8.321,14.744-17.664,28.467-17.664
		c1.166,0,1.896,0.876,1.896,1.898c0,1.021-0.73,1.896-1.896,1.896c-9.051,0-15.912,4.381-20.73,9.781
		c-5.109,5.84-8.613,13.139-10.51,17.664c-1.168,3.211-1.752,4.963-1.752,4.963v33.43c0,1.168-0.584,1.897-1.752,1.897
		c-0.877,0-1.752-0.729-1.752-1.897V168.172z"/>
	<path fill="#FFFFFF" d="M894.956,103.211c0-1.021,0.73-1.898,1.898-1.898c0.875,0,1.752,0.877,1.752,1.898v75.764l47.006-47.006
		c0.73-0.73,1.752-0.73,2.627,0c0.73,0.73,0.73,1.898,0,2.628l-29.633,29.634l29.633,36.058c0.73,1.021,0.438,2.043-0.291,2.773
		c-0.293,0.292-0.73,0.438-1.023,0.438c-0.582,0-1.166-0.146-1.459-0.729l-29.635-35.766l-16.787,16.788
		c-0.146,0.146-0.291,0.292-0.438,0.292v17.518c0,1.022-0.877,1.897-1.752,1.897c-1.168,0-1.898-0.875-1.898-1.897V103.211z"/>
</g>
<g>
	<path fill="#FFFFFF" d="M404.267,223.766l-9.184,12.751c-0.205,0.328-0.533,0.451-0.82,0.451h-0.082
		c-0.369,0-0.656-0.123-0.861-0.451l-9.184-12.71v23.575c0,0.532-0.451,0.983-0.984,0.983c-0.574,0-1.025-0.451-1.025-0.983v-26.568
		c0-0.328,0.164-0.615,0.41-0.778c0-0.041,0.041-0.041,0.082-0.082c0.451-0.287,1.066-0.205,1.394,0.245l10.209,14.146
		l10.168-14.146c0.287-0.45,0.943-0.532,1.394-0.245c0.123,0.123,0.205,0.204,0.287,0.327c0.082,0.164,0.164,0.369,0.164,0.533
		v26.568c0,0.532-0.451,0.983-0.984,0.983c-0.574,0-0.984-0.451-0.984-0.983V223.766z"/>
	<path fill="#FFFFFF" d="M433.13,229.26v18.122c0,0.532-0.451,0.983-0.984,0.983s-0.984-0.451-0.984-0.983v-2.993
		c-1.722,2.378-4.469,3.977-7.544,3.977c-5.289,0-9.512-4.551-9.512-10.045s4.223-10.045,9.512-10.045
		c3.075,0,5.822,1.559,7.544,3.936v-2.951c0-0.574,0.451-0.984,0.984-0.984S433.13,228.686,433.13,229.26z M431.162,238.32
		c0-4.51-3.403-8.117-7.544-8.117c-4.1,0-7.544,3.607-7.544,8.117s3.444,8.077,7.544,8.077
		C427.759,246.397,431.162,242.83,431.162,238.32z"/>
	<path fill="#FFFFFF" d="M441.657,229.301c0-0.574,0.451-0.984,1.025-0.984c0.492,0,0.943,0.41,0.943,0.984v4.428
		c0.082-0.164,0.164-0.328,0.287-0.492c1.517-2.378,4.182-4.92,8.036-4.92c0.533,0,0.984,0.41,0.984,0.984
		c0,0.533-0.451,0.984-0.984,0.984c-2.624,0-4.428,1.476-5.822,3.279c-1.353,1.805-2.132,3.854-2.419,4.674
		c-0.082,0.164-0.082,0.246-0.082,0.328v8.815c0,0.573-0.451,0.983-0.943,0.983c-0.574,0-1.025-0.41-1.025-0.983V229.301z"/>
	<path fill="#FFFFFF" d="M459.656,220.649c0-0.532,0.451-0.983,0.984-0.983c0.574,0,1.025,0.451,1.025,0.983v19.312l11.89-11.85
		c0.41-0.41,0.984-0.41,1.394,0c0.41,0.369,0.41,0.984,0,1.395l-7.749,7.748l7.79,9.472c0.369,0.451,0.328,1.024-0.082,1.435
		c-0.204,0.164-0.45,0.205-0.655,0.205c-0.287,0-0.615-0.082-0.779-0.369l-7.709-9.307l-4.099,4.1v4.593
		c0,0.532-0.451,0.983-1.025,0.983c-0.533,0-0.984-0.451-0.984-0.983V220.649z"/>
	<path fill="#FFFFFF" d="M480.156,238.361c0-5.576,4.347-10.086,9.759-10.086c5.166,0,9.266,4.1,9.676,9.348v0.041v0.123
		c0,0.533-0.451,0.902-0.984,0.902h-16.482c0.205,4.387,3.649,7.708,7.791,7.708c2.664,0,5.125-1.394,6.478-3.649
		c0.287-0.491,0.901-0.573,1.312-0.327c0.451,0.327,0.615,0.901,0.328,1.394c-1.722,2.747-4.715,4.551-8.117,4.551
		C484.503,248.365,480.156,243.855,480.156,238.361z M482.247,236.763h15.211c-0.655-3.772-3.854-6.519-7.543-6.519
		C486.143,230.244,482.985,232.949,482.247,236.763z"/>
	<path fill="#FFFFFF" d="M511.932,229.26c0,0.492-0.492,0.984-0.984,0.984h-2.583v14.637c0,0.984,0.984,1.477,1.477,1.477
		s1.025,0.532,1.025,1.024c0,0.491-0.533,0.983-1.025,0.983c-2.01,0-3.526-1.476-3.526-3.484v-14.637h-2.501
		c-0.984,0-0.984-0.492-0.984-0.984s0-0.984,0.984-0.984h2.501v-7.462c0-0.492,0.492-0.983,0.983-0.983
		c0.533,0,1.066,0.491,1.066,0.983v7.462h2.583C511.439,228.275,511.932,228.768,511.932,229.26z"/>
	<path fill="#FFFFFF" d="M521.361,222.699c0-0.533,0.451-0.984,0.983-0.984c0.574,0,1.025,0.451,1.025,0.984v0.943
		c0,0.574-0.451,1.066-1.025,1.066c-0.532,0-0.983-0.492-0.983-1.066V222.699z M521.361,229.26c0-0.574,0.451-0.984,0.983-0.984
		c0.574,0,1.025,0.41,1.025,0.984v18.122c0,0.532-0.451,0.983-1.025,0.983c-0.532,0-0.983-0.451-0.983-0.983V229.26z"/>
	<path fill="#FFFFFF" d="M547.19,236.476c0-3.403-2.746-6.19-6.19-6.19c-3.403,0-6.149,2.787-6.231,6.19v10.906v0.164
		c-0.041,0.164-0.082,0.327-0.205,0.45c-0.164,0.246-0.451,0.369-0.738,0.369h-0.246c-0.287-0.082-0.533-0.287-0.656-0.533
		c-0.041-0.041-0.041-0.082-0.041-0.122c0-0.041-0.041-0.082-0.041-0.082v-0.246v-10.906v-0.328v-6.847
		c0-0.533,0.41-0.984,0.984-0.984c0.533,0,0.943,0.451,0.943,0.984v1.927c1.476-1.763,3.73-2.911,6.231-2.911
		c4.51,0,8.159,3.689,8.159,8.159v10.906c0,0.573-0.451,0.983-0.984,0.983s-0.984-0.41-0.984-0.983V236.476z"/>
	<path fill="#FFFFFF" d="M575.522,246.767c0,5.207-4.224,9.431-9.472,9.431c-1.476,0-2.87-0.369-4.183-0.943
		c-0.41-0.287-0.655-0.861-0.41-1.312c0.246-0.533,0.82-0.738,1.312-0.451c1.025,0.492,2.051,0.738,3.28,0.738
		c4.183,0,7.503-3.32,7.503-7.462v-2.46c-1.681,2.419-4.428,3.936-7.503,3.936c-5.248,0-9.431-4.469-9.431-10.004
		c0-5.412,4.183-9.963,9.431-9.963c3.075,0,5.822,1.559,7.503,3.936v-2.951c0-0.533,0.451-0.984,1.025-0.984
		c0.492,0,0.943,0.451,0.943,0.984V246.767z M573.554,238.238c0-4.469-3.361-7.994-7.503-7.994c-4.101,0-7.462,3.525-7.462,7.994
		c0,4.51,3.361,8.078,7.462,8.078C570.192,246.316,573.554,242.748,573.554,238.238z"/>
	<path fill="#FFFFFF" d="M610.083,220.649c0-0.532,0.451-0.983,0.984-0.983h0.123h7.994c4.51,0,8.16,3.689,8.16,8.199
		s-3.65,8.159-8.16,8.159l-7.093,0.082v11.275c0,0.532-0.45,0.983-1.024,0.983c-0.533,0-0.984-0.451-0.984-0.983V220.649z
		 M619.185,234.098c3.403-0.041,6.191-2.829,6.191-6.232c0-3.402-2.788-6.191-6.191-6.191h-7.093v12.424H619.185z"/>
	<path fill="#FFFFFF" d="M633.329,229.219c0-0.574,0.451-0.984,0.984-0.984s0.984,0.41,0.984,0.984v10.947
		c0,3.443,2.746,6.191,6.149,6.231c3.444-0.04,6.231-2.788,6.231-6.231v-10.947c0-0.574,0.492-0.984,0.984-0.984
		c0.574,0,1.025,0.41,1.025,0.984v10.947c0,4.51-3.648,8.199-8.241,8.199c-4.51,0-8.118-3.689-8.118-8.199V229.219z"/>
	<path fill="#FFFFFF" d="M658.872,238.771v-0.41v-0.41v-17.302c0-0.532,0.451-0.983,0.984-0.983c0.574,0,1.025,0.451,1.025,0.983
		v11.562c1.762-2.377,4.551-3.936,7.707-3.936c5.412,0,9.717,4.51,9.717,10.086c0,5.494-4.305,10.004-9.717,10.004
		c-3.156,0-5.945-1.517-7.707-3.895v2.911c0,0.532-0.451,0.983-1.025,0.983c-0.533,0-0.984-0.451-0.984-0.983V238.771z
		 M660.882,238.361c0,4.428,3.484,7.996,7.707,7.996c4.264,0,7.709-3.568,7.709-7.996c0-4.469-3.445-8.076-7.709-8.076
		c-4.141,0-7.544,3.443-7.707,7.748V238.361z"/>
	<path fill="#FFFFFF" d="M686.219,220.649c0-0.532,0.451-0.983,0.983-0.983c0.574,0,1.025,0.451,1.025,0.983v26.732
		c0,0.532-0.451,0.983-1.025,0.983c-0.532,0-0.983-0.451-0.983-0.983V220.649z"/>
	<path fill="#FFFFFF" d="M696.181,222.699c0-0.533,0.451-0.984,0.984-0.984c0.574,0,1.025,0.451,1.025,0.984v0.943
		c0,0.574-0.451,1.066-1.025,1.066c-0.533,0-0.984-0.492-0.984-1.066V222.699z M696.181,229.26c0-0.574,0.451-0.984,0.984-0.984
		c0.574,0,1.025,0.41,1.025,0.984v18.122c0,0.532-0.451,0.983-1.025,0.983c-0.533,0-0.984-0.451-0.984-0.983V229.26z"/>
	<path fill="#FFFFFF" d="M706.226,238.279c0-5.576,4.592-10.004,10.332-10.004c2.378,0,4.633,0.82,6.396,2.215
		c0.41,0.286,0.492,0.901,0.123,1.353c-0.328,0.368-0.902,0.491-1.354,0.163c-1.436-1.147-3.238-1.803-5.166-1.803
		c-4.674,0-8.363,3.648-8.363,8.076c0,4.51,3.689,8.118,8.363,8.118c1.928,0,3.73-0.655,5.166-1.763
		c0.451-0.328,1.025-0.205,1.354,0.164c0.369,0.451,0.287,1.066-0.205,1.436c-1.682,1.312-3.937,2.131-6.314,2.131
		C710.817,248.365,706.226,243.938,706.226,238.279z"/>
	<path fill="#FFFFFF" d="M731.112,222.699c0-0.533,0.451-0.984,0.984-0.984c0.574,0,1.025,0.451,1.025,0.984v0.943
		c0,0.574-0.451,1.066-1.025,1.066c-0.533,0-0.984-0.492-0.984-1.066V222.699z M731.112,229.26c0-0.574,0.451-0.984,0.984-0.984
		c0.574,0,1.025,0.41,1.025,0.984v18.122c0,0.532-0.451,0.983-1.025,0.983c-0.533,0-0.984-0.451-0.984-0.983V229.26z"/>
	<path fill="#FFFFFF" d="M758.665,244.471c-1.764,2.378-4.552,3.895-7.709,3.895c-5.412,0-9.717-4.51-9.717-10.004
		c0-5.576,4.305-10.086,9.717-10.086c3.157,0,5.945,1.559,7.709,3.936v-11.562c0-0.532,0.45-0.983,1.024-0.983
		c0.533,0,0.983,0.451,0.983,0.983v17.302v0.41v9.021c0,0.532-0.45,0.983-0.983,0.983c-0.574,0-1.024-0.451-1.024-0.983V244.471z
		 M758.665,238.689v-0.656c-0.164-4.305-3.567-7.748-7.709-7.748c-4.223,0-7.707,3.607-7.707,8.076c0,4.428,3.484,7.996,7.707,7.996
		C755.098,246.357,758.501,242.953,758.665,238.689z"/>
	<path fill="#FFFFFF" d="M786.503,229.26v18.122c0,0.532-0.451,0.983-0.984,0.983s-0.983-0.451-0.983-0.983v-2.993
		c-1.722,2.378-4.47,3.977-7.544,3.977c-5.289,0-9.512-4.551-9.512-10.045s4.223-10.045,9.512-10.045
		c3.074,0,5.822,1.559,7.544,3.936v-2.951c0-0.574,0.45-0.984,0.983-0.984S786.503,228.686,786.503,229.26z M784.535,238.32
		c0-4.51-3.403-8.117-7.544-8.117c-4.1,0-7.545,3.607-7.545,8.117s3.445,8.077,7.545,8.077
		C781.132,246.397,784.535,242.83,784.535,238.32z"/>
	<path fill="#FFFFFF" d="M811.103,244.471c-1.764,2.378-4.551,3.895-7.708,3.895c-5.412,0-9.718-4.51-9.718-10.004
		c0-5.576,4.306-10.086,9.718-10.086c3.157,0,5.944,1.559,7.708,3.936v-11.562c0-0.532,0.451-0.983,1.025-0.983
		c0.533,0,0.983,0.451,0.983,0.983v17.302v0.41v9.021c0,0.532-0.45,0.983-0.983,0.983c-0.574,0-1.025-0.451-1.025-0.983V244.471z
		 M811.103,238.689v-0.656c-0.164-4.305-3.566-7.748-7.708-7.748c-4.224,0-7.708,3.607-7.708,8.076c0,4.428,3.484,7.996,7.708,7.996
		C807.536,246.357,810.938,242.953,811.103,238.689z"/>
</g>
<line fill="#FFFFFF" x1="592.364" y1="219.666" x2="592.364" y2="250.666"/>
<path fill="#FFFFFF" d="M234.79,232.426l-22.463-164.17l-38.306,38.845L120.237,2L67.124,108.066L26.296,68.771l-0.201-0.341
	l-0.018,0.13l-0.344,2.51L4,230.548l85.14-51.392l30.397,51.817l30.238-51.653l85.034,53.25l0.082,0.051L234.79,232.426z
	 M120.257,6.428l52.268,102.139l-33.497,32.778l-18.517,18.089l-51.742-50.186L120.257,6.428z M27.252,73.66l31.049,52.928
	l-0.125,0.238L22.003,195.29L6.586,224.704L27.252,73.66z M88.128,177.431l-79.76,48.232l51.399-96.571l0.001-0.003l16.272,27.738
	L88.13,177.43L88.128,177.431z M119.535,227.019L30.19,75.38l90.338,86.864l86.445-84.591L119.535,227.019z M150.786,177.594
	l27.961-47.765l24.03,45.129l26.972,52.083L150.786,177.594z M180.292,127.19l30.711-52.459l20.082,150.537L180.292,127.19z"/>
</svg>
