<?xml version="1.0" encoding="utf-8"?>
<!-- Generator: Adobe Illustrator 16.0.0, SVG Export Plug-In . SVG Version: 6.00 Build 0)  -->
<!DOCTYPE svg PUBLIC "-//W3C//DTD SVG 1.1//EN" "http://www.w3.org/Graphics/SVG/1.1/DTD/svg11.dtd">
<svg version="1.1" id="Capa_1" xmlns="http://www.w3.org/2000/svg" xmlns:xlink="http://www.w3.org/1999/xlink" x="0px" y="0px"
	 width="326px" height="257px" viewBox="0 0 326 257" enable-background="new 0 0 326 257" xml:space="preserve">
<g>
	<path fill="#FFFFFF" d="M160.076,169.671c-38.176,0-69.235-31.059-69.235-69.235s31.059-69.235,69.235-69.235
		c38.176,0,69.234,31.059,69.234,69.235S198.252,169.671,160.076,169.671z M160.076,38.201c-34.317,0-62.235,27.918-62.235,62.235
		c0,34.317,27.918,62.235,62.235,62.235c34.316,0,62.234-27.918,62.234-62.235C222.311,66.12,194.393,38.201,160.076,38.201z"/>
</g>
<g>
	<path fill="#FFFFFF" d="M134.917,105.256c-0.003,0-0.004,0-0.009,0l-0.598-1.28c0,0-3.314-7.08-3.304-7.087l-10.583-22.707
		c-0.198-0.396-0.593-0.658-1.12-0.658h-1.052c-0.725,0-1.119,0.461-1.186,0.989l-7.834,44.239
		c-0.131,0.923,0.396,1.514,1.251,1.514h5.926c0.593,0,1.119-0.524,1.185-0.986l3.819-24.952c0.065,0,0.196,0,0.196,0l11.653,25.874
		c0.197,0.395,0.526,0.724,1.119,0.724h1.185c0.593,0,0.988-0.329,1.119-0.724l2.569-5.77L134.917,105.256z"/>
	<path fill="#FFFFFF" d="M160.716,118.752l-7.77-44.239c-0.064-0.528-0.461-0.989-1.185-0.989h-1.053
		c-0.593,0-0.922,0.263-1.12,0.658l-10.187,21.854l4.241,8.538l4.562-10.246c0,0,0.132,0,0.196,0l3.886,24.952
		c0.131,0.462,0.657,0.986,1.25,0.986h5.99C160.386,120.266,160.914,119.675,160.716,118.752z"/>
</g>
<g>
	<path fill="#FFFFFF" d="M189.963,96.271c-0.001-0.004,0-0.007-0.001-0.008l-1.185-0.559c0,0-6.558-3.084-6.564-3.073l-21.026-9.856
		c-0.365-0.184-0.606-0.552-0.607-1.041l0.003-0.975c0.001-0.67,0.428-1.036,0.917-1.097l41.021-7.175
		c0.856-0.119,1.403,0.372,1.402,1.164l-0.012,5.492c-0.002,0.549-0.489,1.035-0.918,1.095l-23.135,3.49
		c-0.002,0.062-0.002,0.186-0.002,0.186l23.96,10.852c0.364,0.184,0.671,0.49,0.669,1.039l-0.002,1.099
		c-0.003,0.549-0.306,0.914-0.676,1.035l-5.352,2.368L189.963,96.271z"/>
	<path fill="#FFFFFF" d="M202.422,120.211l-40.995-7.288c-0.487-0.062-0.913-0.43-0.915-1.1l0.006-0.979
		c0-0.55,0.247-0.854,0.611-1.035l20.273-9.398l7.905,3.948l-9.503,4.206c0,0-0.003,0.124,0,0.184l23.119,3.651
		c0.428,0.123,0.915,0.612,0.912,1.161l-0.012,5.555C203.825,119.909,203.276,120.396,202.422,120.211z"/>
</g>
<g>
	<path fill="#FFFFFF" d="M59.223,218.673l16.88-36.526c0.163-0.326,0.435-0.599,0.923-0.599h0.542c0.543,0,0.761,0.272,0.922,0.599
		l16.718,36.526c0.326,0.705-0.108,1.411-0.923,1.411h-4.723c-0.813,0-1.193-0.325-1.574-1.085l-2.658-5.863H69.101l-2.659,5.863
		c-0.218,0.542-0.706,1.085-1.573,1.085h-4.724C59.332,220.084,58.897,219.378,59.223,218.673z M82.67,207.111l-5.428-11.939H77.08
		l-5.319,11.939H82.67z"/>
	<path fill="#FFFFFF" d="M99.982,183.395c0-0.705,0.542-1.303,1.304-1.303h4.775c0.706,0,1.302,0.598,1.302,1.303v14.653
		l13.679-15.414c0.217-0.271,0.542-0.542,1.032-0.542h5.427c1.03,0,1.574,1.141,0.868,1.953l-14.166,15.957l15.196,18.184
		c0.543,0.705,0.109,1.898-0.977,1.898h-5.917c-0.542,0-0.868-0.217-0.978-0.38l-14.167-17.478v16.555
		c0,0.705-0.596,1.303-1.302,1.303h-4.775c-0.761,0-1.304-0.598-1.304-1.303v-35.387H99.982z"/>
	<path fill="#FFFFFF" d="M134.825,183.123c0-0.543,0.434-1.031,1.03-1.031h22.091c0.598,0,1.031,0.488,1.031,1.031v4.45
		c0,0.543-0.434,1.03-1.031,1.03h-16.064v8.901h13.405c0.543,0,1.031,0.487,1.031,1.03v4.505c0,0.599-0.488,1.031-1.031,1.031
		h-13.405v9.499h16.064c0.598,0,1.031,0.488,1.031,1.031v4.45c0,0.542-0.434,1.03-1.031,1.03h-22.091c-0.597,0-1.03-0.488-1.03-1.03
		V183.123z"/>
	<path fill="#FFFFFF" d="M209.122,218.673l16.879-36.526c0.163-0.326,0.436-0.599,0.923-0.599h0.543c0.543,0,0.76,0.272,0.924,0.599
		l16.717,36.526c0.325,0.705-0.108,1.411-0.924,1.411h-4.722c-0.814,0-1.194-0.325-1.573-1.085l-2.66-5.863H219l-2.659,5.863
		c-0.218,0.542-0.706,1.085-1.574,1.085h-4.722C209.23,220.084,208.797,219.378,209.122,218.673z M232.569,207.111l-5.427-11.939
		h-0.164l-5.317,11.939H232.569z"/>
	<path fill="#FFFFFF" d="M249.881,183.123c0-0.543,0.434-1.031,1.03-1.031h15.523c6.512,0,11.832,5.21,11.832,11.669
		c0,4.992-3.312,9.063-8.033,10.964l7.437,13.786c0.379,0.704,0,1.573-0.924,1.573h-5.699c-0.488,0-0.758-0.271-0.867-0.488
		l-7.219-14.383h-6.024v13.842c0,0.541-0.486,1.029-1.032,1.029h-4.992c-0.598,0-1.03-0.488-1.03-1.029L249.881,183.123
		L249.881,183.123z M265.838,199.405c2.877,0,5.373-2.497,5.373-5.536c0-2.877-2.496-5.266-5.373-5.266h-8.848v10.802H265.838z"/>
	<path fill="#FFFFFF" d="M285.699,183.395c0-0.705,0.543-1.303,1.303-1.303h4.776c0.705,0,1.304,0.598,1.304,1.303v14.653
		l13.676-15.414c0.219-0.271,0.543-0.542,1.03-0.542h5.431c1.028,0,1.572,1.141,0.867,1.953l-14.166,15.957l15.196,18.184
		c0.543,0.705,0.109,1.898-0.979,1.898h-5.914c-0.543,0-0.869-0.217-0.979-0.38l-14.163-17.478v16.555
		c0,0.705-0.599,1.303-1.304,1.303h-4.776c-0.76,0-1.304-0.598-1.304-1.303v-35.387H285.699z"/>
	<g>
		<path fill="#FFFFFF" d="M35.344,207.71c-0.015,0-0.031,0-0.053,0l-5.785-12.412l-0.89-1.891l0.007-0.003l-5.273-11.312
			c-0.163-0.326-0.488-0.544-0.922-0.544H21.56c-0.597,0-0.923,0.381-0.977,0.815l-6.459,36.473c-0.108,0.76,0.326,1.248,1.03,1.248
			h4.886c0.488,0,0.923-0.434,0.977-0.814l3.148-20.568c0.054,0,0.163,0,0.163,0l9.605,21.329c0.163,0.325,0.436,0.598,0.924,0.598
			h0.978c0.488,0,0.813-0.271,0.922-0.598l2.131-4.786L35.344,207.71z"/>
		<path fill="#FFFFFF" d="M56.566,218.836l-6.403-36.473c-0.055-0.436-0.38-0.815-0.978-0.815h-0.869
			c-0.487,0-0.76,0.218-0.922,0.544l-8.347,17.907l3.405,7.239l3.802-8.538c0,0,0.108,0,0.163,0l3.202,20.569
			c0.107,0.381,0.543,0.813,1.03,0.813h4.939C56.295,220.084,56.729,219.596,56.566,218.836z"/>
	</g>
	<g>
		<path fill="#FFFFFF" d="M185.242,207.71c-0.015,0-0.029,0-0.054,0l-5.784-12.412l-0.89-1.891l0.006-0.003l-5.271-11.312
			c-0.163-0.326-0.488-0.544-0.923-0.544h-0.868c-0.598,0-0.923,0.381-0.979,0.815l-6.458,36.473
			c-0.107,0.76,0.325,1.248,1.03,1.248h4.885c0.489,0,0.924-0.434,0.979-0.814l3.146-20.568c0.056,0,0.164,0,0.164,0l9.605,21.329
			c0.164,0.325,0.436,0.598,0.924,0.598h0.977c0.488,0,0.814-0.271,0.923-0.598l2.132-4.786L185.242,207.71z"/>
		<path fill="#FFFFFF" d="M206.466,218.836l-6.404-36.473c-0.054-0.436-0.381-0.815-0.978-0.815h-0.868
			c-0.489,0-0.76,0.218-0.923,0.544l-8.349,17.907l3.406,7.239l3.803-8.538c0,0,0.108,0,0.162,0l3.201,20.569
			c0.109,0.381,0.544,0.813,1.032,0.813h4.938C206.194,220.084,206.629,219.596,206.466,218.836z"/>
	</g>
</g>
</svg>
