<?xml version="1.0" encoding="utf-8"?>
<!-- Generator: Adobe Illustrator 16.0.0, SVG Export Plug-In . SVG Version: 6.00 Build 0)  -->
<!DOCTYPE svg PUBLIC "-//W3C//DTD SVG 1.1//EN" "http://www.w3.org/Graphics/SVG/1.1/DTD/svg11.dtd">
<svg version="1.1" id="Capa_1" xmlns="http://www.w3.org/2000/svg" xmlns:xlink="http://www.w3.org/1999/xlink" x="0px" y="0px"
	 width="700px" height="192.017px" viewBox="0 0 700 192.017" enable-background="new 0 0 700 192.017" xml:space="preserve">
<path fill="#000010" stroke="#191919" stroke-miterlimit="10" d="M156.533,49.506l-28.502,28.162L88.797,1L49.886,78.704
	L20.457,50.379l-1.113-1.071l-0.23,1.683L3,168.726l62.907-37.97L88.224,168.8l22.133-37.971l63.009,38.626L156.533,49.506z
	 M170.198,163.449l-37.459-71.02l22.815-39.143L170.198,163.449z M88.812,4.25l38.123,74.5l-37.996,37.542L51.012,79.734
	L88.812,4.25z M20.316,53.04l22.946,39.119l-7.416,13.89l-30.61,57.334L20.316,53.04z M5.858,165.334l35.208-65.945l3.067-5.745
	l11.62,19.804l9.411,16.041L5.858,165.334z M88.219,165.891l-21.056-35.894l0.001-0.001l-9.726-16.577L23.204,55.061l65.241,62.793
	l0.508,0.49l0.973-0.961l62.651-61.903l-3.61,6.194l-17.036,29.226v0l-0.836,1.435l-0.035,0.06v0l-7.985,13.698L88.219,165.891z
	 M111.097,129.56l20.771-35.635l19.616,37.19l18.086,34.291L111.097,129.56z"/>
<g>
	<path fill="#000010" stroke="#191919" stroke-miterlimit="10" d="M255.176,79.963l-27.328,38.045
		c-0.322,0.322-0.75,0.536-1.178,0.536h-0.215c-0.536,0-0.964-0.214-1.179-0.536l-27.435-38.152v68.267
		c0,0.751-0.536,1.393-1.286,1.393s-1.393-0.642-1.393-1.393V75.998c0-0.643,0.643-1.393,1.393-1.393c0.107,0,0.214,0,0.321,0.107
		c0.322,0,0.644,0.214,0.965,0.429l28.721,39.867l28.722-39.867c0.213-0.215,0.536-0.429,0.857-0.429
		c0.107-0.107,0.213-0.107,0.321-0.107c0.857,0,1.393,0.75,1.393,1.393v72.125c0,0.751-0.536,1.393-1.393,1.393
		c-0.643,0-1.286-0.642-1.286-1.393V79.963z"/>
	<path fill="#000010" stroke="#191919" stroke-miterlimit="10" d="M325.478,98.396v49.726c0,0.857-0.535,1.393-1.285,1.393
		c-0.857,0-1.393-0.536-1.393-1.393v-13.074c-4.073,8.574-12.432,14.467-22.077,14.467c-13.717,0-24.756-11.895-24.756-26.256
		s11.039-26.257,24.756-26.257c9.646,0,18.004,6.002,22.077,14.468V98.396c0-0.644,0.536-1.394,1.393-1.394
		C324.942,97.002,325.478,97.752,325.478,98.396z M322.799,123.259c0-12.968-9.967-23.471-22.077-23.471
		s-22.077,10.503-22.077,23.471c0,13.075,9.966,23.578,22.077,23.578S322.799,136.334,322.799,123.259z"/>
	<path fill="#000010" stroke="#191919" stroke-miterlimit="10" d="M345.196,75.891c0-0.75,0.537-1.394,1.394-1.394
		c0.642,0,1.285,0.644,1.285,1.394v55.621l34.508-34.509c0.536-0.536,1.286-0.536,1.93,0c0.535,0.537,0.535,1.394,0,1.93
		l-21.756,21.755l21.756,26.471c0.535,0.75,0.321,1.5-0.215,2.036c-0.214,0.214-0.536,0.321-0.75,0.321
		c-0.429,0-0.857-0.107-1.071-0.536l-21.755-26.256l-12.324,12.325c-0.108,0.107-0.215,0.214-0.322,0.214v12.86
		c0,0.751-0.643,1.393-1.285,1.393c-0.857,0-1.394-0.642-1.394-1.393V75.891z"/>
	<path fill="#000010" stroke="#191919" stroke-miterlimit="10" d="M395.994,123.259c0.214-14.575,11.467-26.257,25.506-26.257
		c13.396,0,24.221,10.61,25.186,24.221v0.107v0.214v0.107c-0.107,0.643-0.645,1.286-1.286,1.286h-46.727v0.321
		c0,12.86,10.182,23.47,22.827,23.578c7.931,0,14.897-4.287,18.862-10.717c0.429-0.643,1.179-0.643,1.929-0.322
		c0.536,0.322,0.751,1.18,0.322,1.823c-4.502,6.965-12.325,11.895-21.113,11.895C407.461,149.302,396.208,137.62,395.994,123.259z
		 M398.78,120.366h45.226c-1.393-11.682-11.038-20.577-22.506-20.577C409.819,99.789,400.174,108.684,398.78,120.366z"/>
	<path fill="#000010" stroke="#191919" stroke-miterlimit="10" d="M523.418,79.963l-27.328,38.045
		c-0.321,0.322-0.75,0.536-1.179,0.536h-0.215c-0.536,0-0.965-0.214-1.179-0.536l-27.436-38.152v68.267
		c0,0.751-0.536,1.393-1.286,1.393s-1.394-0.642-1.394-1.393V75.998c0-0.643,0.644-1.393,1.394-1.393c0.107,0,0.216,0,0.321,0.107
		c0.323,0,0.644,0.214,0.965,0.429l28.722,39.867l28.722-39.867c0.214-0.215,0.536-0.429,0.857-0.429
		c0.106-0.107,0.214-0.107,0.321-0.107c0.857,0,1.394,0.75,1.394,1.393v72.125c0,0.751-0.536,1.393-1.394,1.393
		c-0.643,0-1.286-0.642-1.286-1.393V79.963z"/>
	<path fill="#000010" stroke="#191919" stroke-miterlimit="10" d="M593.72,98.396v49.726c0,0.857-0.535,1.393-1.286,1.393
		c-0.857,0-1.393-0.536-1.393-1.393v-13.074c-4.072,8.574-12.432,14.467-22.077,14.467c-13.718,0-24.757-11.895-24.757-26.256
		s11.039-26.257,24.757-26.257c9.646,0,18.005,6.002,22.077,14.468V98.396c0-0.644,0.535-1.394,1.393-1.394
		C593.185,97.002,593.72,97.752,593.72,98.396z M591.041,123.259c0-12.968-9.967-23.471-22.077-23.471s-22.077,10.503-22.077,23.471
		c0,13.075,9.967,23.578,22.077,23.578S591.041,136.334,591.041,123.259z"/>
	<path fill="#000010" stroke="#191919" stroke-miterlimit="10" d="M613.545,123.581c-0.107-0.214-0.107-0.321,0-0.643V98.396
		c0-0.751,0.643-1.394,1.286-1.394c0.857,0,1.286,0.643,1.286,1.394v17.79c0.857-1.929,1.929-4.072,3.322-6.216
		c4.072-6.109,10.824-12.968,20.898-12.968c0.856,0,1.393,0.643,1.393,1.394c0,0.75-0.536,1.392-1.393,1.392
		c-6.645,0-11.682,3.216-15.219,7.181c-3.751,4.287-6.323,9.646-7.716,12.968c-0.857,2.357-1.286,3.644-1.286,3.644v24.542
		c0,0.857-0.429,1.393-1.286,1.393c-0.644,0-1.286-0.536-1.286-1.393V123.581z"/>
	<path fill="#000010" stroke="#191919" stroke-miterlimit="10" d="M657.697,75.891c0-0.75,0.537-1.394,1.395-1.394
		c0.642,0,1.286,0.644,1.286,1.394v55.621l34.508-34.509c0.536-0.536,1.286-0.536,1.929,0c0.536,0.537,0.536,1.394,0,1.93
		l-21.754,21.755l21.754,26.471c0.536,0.75,0.321,1.5-0.214,2.036c-0.215,0.214-0.536,0.321-0.751,0.321
		c-0.428,0-0.856-0.107-1.071-0.536l-21.756-26.256l-12.323,12.325c-0.108,0.107-0.214,0.214-0.321,0.214v12.86
		c0,0.751-0.645,1.393-1.286,1.393c-0.857,0-1.395-0.642-1.395-1.393V75.891z"/>
</g>
<g>
	<path fill="#000010" stroke="#191919" stroke-miterlimit="10" d="M297.467,164.394l-6.743,9.361
		c-0.15,0.241-0.391,0.331-0.602,0.331h-0.06c-0.271,0-0.482-0.09-0.632-0.331l-6.743-9.331v17.307c0,0.391-0.331,0.722-0.722,0.722
		c-0.422,0-0.752-0.332-0.752-0.722v-19.505c0-0.241,0.121-0.452,0.301-0.571c0-0.03,0.03-0.03,0.06-0.06
		c0.331-0.211,0.783-0.15,1.023,0.18l7.496,10.385l7.464-10.385c0.211-0.33,0.692-0.391,1.023-0.18c0.09,0.09,0.15,0.15,0.21,0.24
		c0.061,0.12,0.121,0.271,0.121,0.391v19.505c0,0.391-0.331,0.722-0.723,0.722c-0.421,0-0.722-0.332-0.722-0.722V164.394z"/>
	<path fill="#000010" stroke="#191919" stroke-miterlimit="10" d="M318.657,168.427v13.304c0,0.391-0.331,0.722-0.723,0.722
		c-0.391,0-0.722-0.332-0.722-0.722v-2.197c-1.264,1.746-3.282,2.919-5.539,2.919c-3.883,0-6.983-3.341-6.983-7.375
		s3.101-7.375,6.983-7.375c2.257,0,4.274,1.145,5.539,2.89v-2.167c0-0.421,0.331-0.723,0.722-0.723
		C318.326,167.704,318.657,168.005,318.657,168.427z M317.212,175.079c0-3.311-2.499-5.959-5.539-5.959
		c-3.01,0-5.538,2.648-5.538,5.959s2.528,5.93,5.538,5.93C314.714,181.008,317.212,178.389,317.212,175.079z"/>
	<path fill="#000010" stroke="#191919" stroke-miterlimit="10" d="M324.917,168.457c0-0.421,0.331-0.723,0.753-0.723
		c0.361,0,0.692,0.301,0.692,0.723v3.25c0.061-0.12,0.12-0.241,0.21-0.361c1.114-1.746,3.071-3.612,5.9-3.612
		c0.391,0,0.723,0.301,0.723,0.723c0,0.392-0.332,0.723-0.723,0.723c-1.926,0-3.25,1.083-4.274,2.408
		c-0.993,1.325-1.565,2.829-1.775,3.431c-0.061,0.12-0.061,0.181-0.061,0.241v6.472c0,0.421-0.331,0.722-0.692,0.722
		c-0.422,0-0.753-0.301-0.753-0.722V168.457z"/>
	<path fill="#000010" stroke="#191919" stroke-miterlimit="10" d="M338.131,162.106c0-0.391,0.331-0.722,0.722-0.722
		c0.422,0,0.753,0.332,0.753,0.722v14.177l8.729-8.699c0.301-0.301,0.723-0.301,1.023,0c0.301,0.271,0.301,0.723,0,1.023
		l-5.689,5.688l5.719,6.953c0.271,0.332,0.241,0.752-0.06,1.053c-0.15,0.121-0.331,0.151-0.481,0.151
		c-0.211,0-0.452-0.061-0.572-0.271l-5.659-6.833l-3.01,3.01v3.372c0,0.391-0.331,0.722-0.753,0.722
		c-0.391,0-0.722-0.332-0.722-0.722V162.106z"/>
	<path fill="#000010" stroke="#191919" stroke-miterlimit="10" d="M353.181,175.109c0-4.094,3.19-7.405,7.164-7.405
		c3.792,0,6.802,3.01,7.104,6.863v0.03v0.09c0,0.392-0.331,0.663-0.723,0.663h-12.101c0.15,3.22,2.679,5.659,5.72,5.659
		c1.956,0,3.763-1.023,4.755-2.679c0.211-0.36,0.662-0.421,0.963-0.24c0.332,0.24,0.452,0.662,0.241,1.023
		c-1.264,2.017-3.461,3.341-5.959,3.341C356.371,182.453,353.181,179.142,353.181,175.109z M354.715,173.935h11.167
		c-0.48-2.77-2.829-4.786-5.537-4.786C357.575,169.149,355.258,171.136,354.715,173.935z"/>
	<path fill="#000010" stroke="#191919" stroke-miterlimit="10" d="M376.508,168.427c0,0.361-0.361,0.723-0.723,0.723h-1.896v10.746
		c0,0.723,0.723,1.084,1.084,1.084s0.753,0.391,0.753,0.752c0,0.361-0.392,0.722-0.753,0.722c-1.476,0-2.589-1.083-2.589-2.558
		v-10.746h-1.836c-0.723,0-0.723-0.361-0.723-0.723s0-0.723,0.723-0.723h1.836v-5.478c0-0.361,0.361-0.722,0.722-0.722
		c0.392,0,0.783,0.36,0.783,0.722v5.478h1.896C376.146,167.704,376.508,168.065,376.508,168.427z"/>
	<path fill="#000010" stroke="#191919" stroke-miterlimit="10" d="M383.431,163.611c0-0.392,0.331-0.723,0.722-0.723
		c0.422,0,0.753,0.331,0.753,0.723v0.692c0,0.421-0.331,0.783-0.753,0.783c-0.391,0-0.722-0.361-0.722-0.783V163.611z
		 M383.431,168.427c0-0.421,0.331-0.723,0.722-0.723c0.422,0,0.753,0.301,0.753,0.723v13.304c0,0.391-0.331,0.722-0.753,0.722
		c-0.391,0-0.722-0.332-0.722-0.722V168.427z"/>
	<path fill="#000010" stroke="#191919" stroke-miterlimit="10" d="M402.393,173.724c0-2.498-2.017-4.544-4.545-4.544
		c-2.498,0-4.515,2.046-4.574,4.544v8.007v0.121c-0.03,0.12-0.061,0.24-0.151,0.331c-0.12,0.181-0.331,0.271-0.542,0.271h-0.181
		c-0.21-0.061-0.392-0.211-0.481-0.392c-0.03-0.03-0.03-0.06-0.03-0.09s-0.03-0.06-0.03-0.06v-0.181v-8.007v-0.241v-5.026
		c0-0.392,0.302-0.723,0.723-0.723c0.392,0,0.693,0.331,0.693,0.723v1.415c1.083-1.294,2.738-2.137,4.574-2.137
		c3.311,0,5.99,2.708,5.99,5.99v8.007c0,0.421-0.332,0.722-0.723,0.722c-0.392,0-0.723-0.301-0.723-0.722V173.724z"/>
	<path fill="#000010" stroke="#191919" stroke-miterlimit="10" d="M423.191,181.279c0,3.823-3.101,6.923-6.953,6.923
		c-1.083,0-2.107-0.271-3.07-0.692c-0.302-0.211-0.481-0.632-0.302-0.964c0.181-0.391,0.603-0.542,0.964-0.331
		c0.753,0.361,1.506,0.542,2.408,0.542c3.07,0,5.508-2.438,5.508-5.478v-1.806c-1.233,1.776-3.25,2.89-5.508,2.89
		c-3.853,0-6.924-3.281-6.924-7.344c0-3.973,3.071-7.314,6.924-7.314c2.258,0,4.274,1.145,5.508,2.89v-2.167
		c0-0.391,0.331-0.723,0.753-0.723c0.361,0,0.692,0.332,0.692,0.723V181.279z M421.746,175.019c0-3.281-2.468-5.869-5.508-5.869
		c-3.011,0-5.479,2.588-5.479,5.869c0,3.311,2.468,5.93,5.479,5.93C419.278,180.949,421.746,178.329,421.746,175.019z"/>
	<path fill="#000010" stroke="#191919" stroke-miterlimit="10" d="M448.563,162.106c0-0.391,0.331-0.722,0.723-0.722h0.091h5.868
		c3.311,0,5.991,2.708,5.991,6.02c0,3.311-2.681,5.99-5.991,5.99l-5.207,0.06v8.278c0,0.391-0.33,0.722-0.752,0.722
		c-0.392,0-0.723-0.332-0.723-0.722V162.106z M455.245,171.979c2.499-0.03,4.546-2.077,4.546-4.575c0-2.498-2.047-4.545-4.546-4.545
		h-5.207v9.121H455.245z"/>
	<path fill="#000010" stroke="#191919" stroke-miterlimit="10" d="M465.629,168.397c0-0.422,0.332-0.723,0.723-0.723
		c0.392,0,0.723,0.301,0.723,0.723v8.037c0,2.528,2.017,4.545,4.515,4.575c2.528-0.029,4.575-2.047,4.575-4.575v-8.037
		c0-0.422,0.361-0.723,0.723-0.723c0.421,0,0.753,0.301,0.753,0.723v8.037c0,3.311-2.679,6.02-6.051,6.02
		c-3.311,0-5.96-2.709-5.96-6.02V168.397z"/>
	<path fill="#000010" stroke="#191919" stroke-miterlimit="10" d="M484.381,175.41v-0.301v-0.301v-12.702
		c0-0.391,0.332-0.722,0.723-0.722c0.422,0,0.753,0.332,0.753,0.722v8.488c1.294-1.745,3.341-2.89,5.658-2.89
		c3.973,0,7.134,3.311,7.134,7.405c0,4.033-3.161,7.344-7.134,7.344c-2.317,0-4.364-1.114-5.658-2.859v2.137
		c0,0.391-0.331,0.722-0.753,0.722c-0.391,0-0.723-0.332-0.723-0.722V175.41z M485.856,175.109c0,3.25,2.559,5.87,5.658,5.87
		c3.13,0,5.659-2.62,5.659-5.87c0-3.281-2.529-5.929-5.659-5.929c-3.04,0-5.538,2.528-5.658,5.688V175.109z"/>
	<path fill="#000010" stroke="#191919" stroke-miterlimit="10" d="M504.457,162.106c0-0.391,0.331-0.722,0.722-0.722
		c0.422,0,0.753,0.332,0.753,0.722v19.625c0,0.391-0.331,0.722-0.753,0.722c-0.391,0-0.722-0.332-0.722-0.722V162.106z"/>
	<path fill="#000010" stroke="#191919" stroke-miterlimit="10" d="M511.771,163.611c0-0.392,0.331-0.723,0.723-0.723
		c0.422,0,0.753,0.331,0.753,0.723v0.692c0,0.421-0.331,0.783-0.753,0.783c-0.392,0-0.723-0.361-0.723-0.783V163.611z
		 M511.771,168.427c0-0.421,0.331-0.723,0.723-0.723c0.422,0,0.753,0.301,0.753,0.723v13.304c0,0.391-0.331,0.722-0.753,0.722
		c-0.392,0-0.723-0.332-0.723-0.722V168.427z"/>
	<path fill="#000010" stroke="#191919" stroke-miterlimit="10" d="M519.145,175.048c0-4.093,3.371-7.344,7.585-7.344
		c1.746,0,3.401,0.603,4.696,1.626c0.301,0.21,0.361,0.662,0.09,0.993c-0.24,0.271-0.662,0.361-0.993,0.12
		c-1.054-0.842-2.377-1.323-3.793-1.323c-3.431,0-6.14,2.678-6.14,5.929c0,3.311,2.709,5.96,6.14,5.96
		c1.416,0,2.739-0.481,3.793-1.294c0.331-0.241,0.753-0.151,0.993,0.12c0.271,0.332,0.211,0.783-0.15,1.054
		c-1.234,0.963-2.89,1.564-4.636,1.564C522.516,182.453,519.145,179.202,519.145,175.048z"/>
	<path fill="#000010" stroke="#191919" stroke-miterlimit="10" d="M537.415,163.611c0-0.392,0.331-0.723,0.723-0.723
		c0.422,0,0.753,0.331,0.753,0.723v0.692c0,0.421-0.331,0.783-0.753,0.783c-0.392,0-0.723-0.361-0.723-0.783V163.611z
		 M537.415,168.427c0-0.421,0.331-0.723,0.723-0.723c0.422,0,0.753,0.301,0.753,0.723v13.304c0,0.391-0.331,0.722-0.753,0.722
		c-0.392,0-0.723-0.332-0.723-0.722V168.427z"/>
	<path fill="#000010" stroke="#191919" stroke-miterlimit="10" d="M557.643,179.594c-1.295,1.746-3.342,2.859-5.66,2.859
		c-3.973,0-7.133-3.311-7.133-7.344c0-4.094,3.16-7.405,7.133-7.405c2.318,0,4.365,1.145,5.66,2.89v-8.488
		c0-0.391,0.33-0.722,0.752-0.722c0.392,0,0.722,0.332,0.722,0.722v12.702v0.301v6.622c0,0.391-0.33,0.722-0.722,0.722
		c-0.422,0-0.752-0.332-0.752-0.722V179.594z M557.643,175.35v-0.482c-0.121-3.16-2.619-5.688-5.66-5.688
		c-3.1,0-5.657,2.648-5.657,5.929c0,3.25,2.558,5.87,5.657,5.87C555.023,180.979,557.521,178.479,557.643,175.35z"/>
	<path fill="#000010" stroke="#191919" stroke-miterlimit="10" d="M578.079,168.427v13.304c0,0.391-0.331,0.722-0.723,0.722
		s-0.722-0.332-0.722-0.722v-2.197c-1.265,1.746-3.282,2.919-5.539,2.919c-3.883,0-6.982-3.341-6.982-7.375s3.1-7.375,6.982-7.375
		c2.257,0,4.274,1.145,5.539,2.89v-2.167c0-0.421,0.33-0.723,0.722-0.723S578.079,168.005,578.079,168.427z M576.635,175.079
		c0-3.311-2.499-5.959-5.539-5.959c-3.01,0-5.539,2.648-5.539,5.959s2.529,5.93,5.539,5.93
		C574.136,181.008,576.635,178.389,576.635,175.079z"/>
	<path fill="#000010" stroke="#191919" stroke-miterlimit="10" d="M596.139,179.594c-1.295,1.746-3.342,2.859-5.659,2.859
		c-3.974,0-7.134-3.311-7.134-7.344c0-4.094,3.16-7.405,7.134-7.405c2.317,0,4.364,1.145,5.659,2.89v-8.488
		c0-0.391,0.331-0.722,0.752-0.722c0.392,0,0.723,0.332,0.723,0.722v12.702v0.301v6.622c0,0.391-0.331,0.722-0.723,0.722
		c-0.421,0-0.752-0.332-0.752-0.722V179.594z M596.139,175.35v-0.482c-0.121-3.16-2.619-5.688-5.659-5.688
		c-3.101,0-5.658,2.648-5.658,5.929c0,3.25,2.558,5.87,5.658,5.87C593.52,180.979,596.018,178.479,596.139,175.35z"/>
</g>
<rect x="434.821" y="161.384" fill="#000010" stroke="#191919" stroke-miterlimit="10" width="1.469" height="22.758"/>
</svg>
