<?xml version="1.0" encoding="utf-8"?>
<!-- Generator: Adobe Illustrator 16.0.0, SVG Export Plug-In . SVG Version: 6.00 Build 0)  -->
<!DOCTYPE svg PUBLIC "-//W3C//DTD SVG 1.1//EN" "http://www.w3.org/Graphics/SVG/1.1/DTD/svg11.dtd">
<svg version="1.1" id="DESIGNED_BY_FREEPIK" xmlns="http://www.w3.org/2000/svg" xmlns:xlink="http://www.w3.org/1999/xlink"
	 x="0px" y="0px" width="208px" height="208px" viewBox="0 0 208 208" enable-background="new 0 0 208 208" xml:space="preserve">
<path fill="#FFFFFF" d="M120.34,87.767H87.662c-0.055,0-0.098,0.043-0.098,0.096v26.17c0,0.053,0.043,0.096,0.098,0.096h7.645v3.763
	l4.404-3.763h20.629c0.053,0,0.096-0.043,0.096-0.096v-26.17C120.436,87.81,120.393,87.767,120.34,87.767z M113.078,105.168H95.471
	v-2h17.607V105.168z M113.078,98.523H95.471v-2h17.607V98.523z"/>
<path fill="#FFFFFF" d="M0,0v208h208V0H0z M122.436,114.034c0,1.156-0.939,2.096-2.096,2.096h-19.891l-7.143,6.103v-6.103h-5.645
	c-1.156,0-2.098-0.94-2.098-2.096v-26.17c0-1.156,0.941-2.096,2.098-2.096h32.678c1.156,0,2.096,0.94,2.096,2.096V114.034z"/>
</svg>
