<?xml version="1.0" encoding="utf-8"?>
<!-- Generator: Adobe Illustrator 16.0.0, SVG Export Plug-In . SVG Version: 6.00 Build 0)  -->
<!DOCTYPE svg PUBLIC "-//W3C//DTD SVG 1.1//EN" "http://www.w3.org/Graphics/SVG/1.1/DTD/svg11.dtd">
<svg version="1.1" xmlns="http://www.w3.org/2000/svg" xmlns:xlink="http://www.w3.org/1999/xlink" x="0px" y="0px" width="auto"
	 height="auto" viewBox="0 0 800 800" enable-background="new 0 0 800 800" xml:space="preserve">
<g id="OBJECTS">
</g>
<g id="DESIGNED_BY_FREEPIK">
	<g>
		<g id="XMLID_470_">
			<path id="XMLID_578_" fill="#EDEDED" d="M721.928,360.504l-387.73,225.324c-19.354,11.248-50.859,11.248-70.34,0L78.4,478.754
				c-9.804-5.66-14.699-13.092-14.678-20.514l-0.104,36.389c-0.021,7.422,4.875,14.855,14.678,20.514l185.457,107.074
				c19.48,11.248,50.986,11.248,70.34,0l387.73-225.324c9.62-5.591,14.433-12.904,14.454-20.229l0.103-36.389
				C736.36,347.6,731.547,354.914,721.928,360.504z"/>
			<g id="XMLID_559_">
				<g id="XMLID_574_" enable-background="new    ">
					<path id="XMLID_577_" fill="#92A4B0" d="M721.928,353.417L334.197,578.74c-19.354,11.248-50.859,11.248-70.34,0.002
						L78.4,471.668c-9.804-5.66-14.699-13.094-14.678-20.514l-0.104,36.389c-0.021,7.422,4.875,14.854,14.678,20.514
						l185.457,107.074c19.48,11.246,50.986,11.246,70.34,0l387.73-225.325c9.62-5.591,14.433-12.905,14.454-20.229l0.103-36.389
						C736.36,340.513,731.547,347.827,721.928,353.417z"/>
					<g id="XMLID_575_">
						<path id="XMLID_576_" fill="#D5D7CD" d="M721.698,312.674c19.48,11.247,19.598,29.488,0.229,40.743L334.197,578.74
							c-19.354,11.248-50.859,11.248-70.34,0.002L78.4,471.668c-19.48-11.248-19.584-29.496-0.23-40.744L465.901,205.6
							c19.368-11.255,50.858-11.248,70.339,0L721.698,312.674z"/>
					</g>
				</g>
			</g>
			<g id="XMLID_555_">
				<path id="XMLID_557_" fill="#FFFFFF" d="M710.843,314.08c18.589,10.732,18.7,28.138,0.219,38.878l-375.784,218.36
					c-18.468,10.732-48.531,10.732-67.119,0L91.188,469.145c-18.589-10.732-18.687-28.146-0.219-38.879l375.783-218.358
					c18.481-10.74,48.531-10.732,67.12,0L710.843,314.08z"/>
			</g>
			<linearGradient id="XMLID_389_" gradientUnits="userSpaceOnUse" x1="332.561" y1="295.9404" x2="481.3931" y2="553.7251">
				<stop  offset="0" style="stop-color:#FFFFFF;stop-opacity:0"/>
				<stop  offset="0.4525" style="stop-color:#FDFEFF;stop-opacity:0.4525"/>
				<stop  offset="0.6155" style="stop-color:#F6F9FD;stop-opacity:0.6155"/>
				<stop  offset="0.7317" style="stop-color:#EBF0FA;stop-opacity:0.7317"/>
				<stop  offset="0.8256" style="stop-color:#DAE4F6;stop-opacity:0.8256"/>
				<stop  offset="0.9061" style="stop-color:#C4D4F1;stop-opacity:0.9061"/>
				<stop  offset="0.976" style="stop-color:#A9C0EB;stop-opacity:0.976"/>
				<stop  offset="1" style="stop-color:#9EB8E8"/>
			</linearGradient>
			<path id="XMLID_554_" fill="url(#XMLID_389_)" d="M721.928,353.417L334.197,578.74c-19.354,11.248-50.859,11.248-70.34,0.002
				L78.4,471.668c-9.804-5.66-14.699-13.094-14.678-20.514l-0.104,36.389c-0.021,7.422,4.875,14.854,14.678,20.514l185.457,107.074
				c19.48,11.246,50.986,11.246,70.34,0l387.73-225.325c9.62-5.591,14.433-12.905,14.454-20.229l0.103-36.389
				C736.36,340.513,731.547,347.827,721.928,353.417z"/>
			<g id="XMLID_550_">
				<polygon id="XMLID_553_" fill="#415460" points="698.431,354.234 355.854,552.941 122.261,418.076 464.837,219.369 				"/>
				<g id="XMLID_551_">
					<polygon id="XMLID_552_" fill="#2F3154" points="698.431,354.234 678.176,365.982 444.489,231.171 464.837,219.369 					"/>
				</g>
			</g>
			<g id="XMLID_520_">
				<g id="XMLID_548_">
					<path id="XMLID_549_" fill="#3E6985" d="M689.312,392.42c0.022,4.397-3.08,9.799-6.942,12.008l-60.42,34.887
						c-2.835,1.629-5.268,1.115-6.384-1.027c-0.401-0.781-0.625-1.764-0.625-2.924c0-4.441,3.103-9.844,6.964-12.053l60.421-34.909
						c0.96-0.558,1.896-0.848,2.723-0.915C687.548,387.264,689.312,389.094,689.312,392.42z"/>
				</g>
				<g id="XMLID_521_">
					<path id="XMLID_539_" fill="#617C8C" d="M685.695,390.456c0,4.419-3.08,9.799-6.941,12.031l-60.421,34.885
						c-0.981,0.559-1.919,0.871-2.768,0.916c-0.401-0.781-0.625-1.764-0.625-2.924c0-4.441,3.103-9.844,6.964-12.053l60.421-34.909
						c0.96-0.558,1.896-0.848,2.723-0.915C685.45,388.268,685.695,389.272,685.695,390.456z"/>
				</g>
			</g>
			<g id="XMLID_514_">
				<g id="XMLID_518_">
					<path id="XMLID_519_" fill="#DEDEDE" d="M626.32,288.522c-0.25,0.4-0.66,0.78-1.221,1.1c-2.069,1.21-5.439,1.21-7.529,0
						l-41.391-23.89c-0.56-0.33-0.97-0.71-1.229-1.11c-0.71-1.09-0.3-2.38,1.21-3.26c2.08-1.2,5.45-1.2,7.54,0l41.39,23.9
						C626.61,286.143,627.03,287.423,626.32,288.522z"/>
				</g>
				<g id="XMLID_516_">
					<path id="XMLID_517_" fill="#B4B7DE" d="M626.32,288.522c-0.25,0.4-0.66,0.78-1.221,1.1c-2.069,1.21-5.439,1.21-7.529,0
						l-41.391-23.89c-0.56-0.33-0.97-0.71-1.229-1.11c0.25-0.41,0.649-0.79,1.21-1.11c2.08-1.21,5.45-1.21,7.54,0l41.39,23.89
						C625.65,287.733,626.06,288.113,626.32,288.522z"/>
				</g>
			</g>
			<g id="XMLID_505_">
				<g id="XMLID_510_">
					<path id="XMLID_513_" fill="#D7D8DE" d="M232.9,497.34c4.375,2.525,4.412,6.615,0.066,9.141l-16.522,9.602
						c-4.347,2.525-11.406,2.518-15.781-0.008l-16.63-9.602c-4.361-2.518-4.398-6.607-0.052-9.133l16.522-9.602
						c4.346-2.525,11.406-2.518,15.767,0L232.9,497.34z"/>
					<g id="XMLID_511_">
						<path id="XMLID_512_" fill="#B4B7DE" d="M228.16,498.227c3.526,2.035,3.557,5.332,0.053,7.367l-13.315,7.738
							c-3.503,2.035-9.192,2.029-12.719-0.006l-13.403-7.738c-3.515-2.029-3.545-5.326-0.041-7.361l13.316-7.738
							c3.502-2.035,9.191-2.029,12.707,0L228.16,498.227z"/>
					</g>
				</g>
				<g id="XMLID_508_">
					<path id="XMLID_509_" fill="#DEDEDE" d="M294.649,546.676c2.42,1.398,2.438,3.664,0.035,5.062
						c-2.404,1.396-6.317,1.393-8.737-0.004l-24.812-14.324c-2.419-1.398-2.438-3.664-0.034-5.062
						c2.403-1.396,6.317-1.393,8.737,0.004L294.649,546.676z"/>
				</g>
				<g id="XMLID_506_">
					<path id="XMLID_507_" fill="#DEDEDE" d="M155.32,466.234c2.42,1.396,2.439,3.664,0.035,5.062
						c-2.404,1.396-6.318,1.393-8.738-0.004l-24.811-14.326c-2.42-1.396-2.438-3.664-0.035-5.061
						c2.404-1.396,6.318-1.393,8.738,0.004L155.32,466.234z"/>
				</g>
			</g>
			<g id="XMLID_500_">
				<g id="XMLID_503_">
					<path id="XMLID_504_" fill="#3E6985" d="M150.66,531.977c-0.014,2.438,1.708,5.436,3.85,6.66l33.518,19.354
						c1.573,0.904,2.923,0.619,3.542-0.57c0.223-0.434,0.347-0.979,0.347-1.621c0-2.465-1.721-5.461-3.863-6.688l-33.518-19.365
						c-0.532-0.309-1.053-0.471-1.511-0.508C151.638,529.115,150.66,530.131,150.66,531.977z"/>
				</g>
				<g id="XMLID_501_">
					<path id="XMLID_502_" fill="#617C8C" d="M152.666,530.887c0,2.451,1.708,5.436,3.85,6.674l33.518,19.352
						c0.545,0.311,1.065,0.484,1.536,0.508c0.223-0.434,0.347-0.979,0.347-1.621c0-2.465-1.721-5.461-3.863-6.688l-33.518-19.365
						c-0.532-0.309-1.053-0.471-1.511-0.508C152.802,529.672,152.666,530.23,152.666,530.887z"/>
				</g>
			</g>
			<g id="XMLID_494_">
				<g id="XMLID_498_">
					<path id="XMLID_499_" fill="#3E6985" d="M205.96,563.572c0,0.869-0.2,1.57-0.54,2.09c-0.74,1.141-2.18,1.369-3.85,0.41
						c-2.41-1.391-4.36-4.77-4.35-7.551c0-1.859,0.889-2.979,2.209-3.09c0.641-0.049,1.381,0.141,2.17,0.59
						C204.02,557.422,205.971,560.803,205.96,563.572z"/>
				</g>
				<g id="XMLID_496_">
					<path id="XMLID_497_" fill="#617C8C" d="M205.96,563.572c0,0.869-0.2,1.57-0.54,2.09c-0.641,0.061-1.391-0.131-2.18-0.59
						c-2.41-1.391-4.37-4.77-4.36-7.551c0-0.869,0.2-1.568,0.55-2.09c0.641-0.049,1.381,0.141,2.17,0.59
						C204.02,557.422,205.971,560.803,205.96,563.572z"/>
				</g>
			</g>
			<polygon id="XMLID_493_" fill="#2F3154" points="299.59,454.266 256.729,479.172 196.25,444.102 239.393,419.484 			"/>
			<polygon id="XMLID_492_" fill="#2F3154" points="528.853,292.372 474.249,324.059 389.431,274.935 444.314,243.538 			"/>
			<polygon id="XMLID_491_" fill="#2F3154" points="232.632,415.607 189.77,440.514 146.338,415.283 189.479,390.667 			"/>
			<polygon id="XMLID_488_" fill="#2F3154" points="401.885,513.326 359.023,538.232 315.59,513.002 358.732,488.385 			"/>
			<polygon id="XMLID_487_" fill="#2F3154" points="656.157,366.949 602.036,398.398 547.194,366.541 601.668,335.457 			"/>
			<polygon id="XMLID_485_" fill="#2F3154" points="593.046,330.511 538.925,361.961 484.084,330.104 538.558,299.02 			"/>
			<polygon id="XMLID_484_" fill="#2F3154" points="473.853,344.037 445.134,360.866 343.102,301.718 372.252,285.338 			"/>
			<polygon id="XMLID_483_" fill="#2F3154" points="542.117,433.072 422.139,502.59 208.866,379.219 329.277,310.149 			"/>
			<polygon id="XMLID_481_" fill="#2F3154" points="585.093,408.262 556.375,425.09 526.793,407.771 555.943,391.392 			"/>
			<polygon id="XMLID_478_" fill="#2F3154" points="547.454,386.531 518.736,403.359 489.155,386.042 518.306,369.662 			"/>
			<polygon id="XMLID_477_" fill="#2F3154" points="511.112,365.549 482.395,382.377 452.812,365.06 481.963,348.679 			"/>
			<polygon id="XMLID_476_" fill="#2F3154" points="351.507,483.609 308.95,508.381 265.251,482.957 308.16,458.551 			"/>
		</g>
		<g id="XMLID_450_">
			<g id="XMLID_462_">
				<g id="XMLID_464_">
					<polygon id="XMLID_467_" fill="#D64128" points="656.157,213.168 602.036,244.618 602.068,260.985 656.124,229.776 					"/>
					<polygon id="XMLID_466_" fill="#F26B54" points="656.157,213.168 602.036,244.618 547.194,212.76 601.668,181.676 					"/>
					<polygon id="XMLID_465_" fill="#E8533A" points="547.194,212.76 602.036,244.618 602.068,260.985 547.228,229.368 					"/>
				</g>
				<linearGradient id="XMLID_390_" gradientUnits="userSpaceOnUse" x1="625.5215" y1="230.8555" x2="632.7046" y2="243.297">
					<stop  offset="0" style="stop-color:#FFFFFF;stop-opacity:0"/>
					<stop  offset="0.1003" style="stop-color:#FEF9F8;stop-opacity:0.1003"/>
					<stop  offset="0.2423" style="stop-color:#FAE9E6;stop-opacity:0.2423"/>
					<stop  offset="0.4092" style="stop-color:#F4CEC7;stop-opacity:0.4092"/>
					<stop  offset="0.5949" style="stop-color:#ECA89D;stop-opacity:0.5949"/>
					<stop  offset="0.7963" style="stop-color:#E27867;stop-opacity:0.7963"/>
					<stop  offset="1" style="stop-color:#D64128"/>
				</linearGradient>
				<polygon id="XMLID_463_" fill="url(#XMLID_390_)" points="656.157,213.168 602.036,244.618 602.068,260.985 656.124,229.776
									"/>
			</g>
			<g id="XMLID_451_">
				<g id="XMLID_452_" enable-background="new    ">
					<g id="XMLID_460_">
						<path id="XMLID_461_" fill="#FFFFFF" d="M607.033,207.135c2.176,1.256,2.183,3.294,0.021,4.551
							c-2.161,1.256-5.675,1.256-7.851,0s-2.192-3.294-0.03-4.551C601.334,205.879,604.857,205.879,607.033,207.135z"/>
					</g>
					<g id="XMLID_453_">
						<path id="XMLID_457_" fill="#FFFFFF" d="M619.293,216.361c-3.312,2.54-8.146,4.146-13.606,4.521l-21.597,1.487
							c-0.895,0.062-1.79-0.12-2.429-0.488c-0.64-0.369-0.956-0.888-0.852-1.406l2.492-12.517c0.629-3.164,3.386-5.969,7.76-7.896
							c4.374-1.927,9.775-2.719,15.217-2.228c4.34,0.391,8.198,1.561,11.145,3.262c2.946,1.701,4.979,3.933,5.671,6.447
							C623.954,210.69,622.609,213.824,619.293,216.361z M604.974,217.495c3.858-0.266,7.272-1.4,9.618-3.194
							c2.342-1.796,3.294-4.01,2.682-6.235c-0.482-1.777-1.92-3.354-4.002-4.556s-4.809-2.029-7.883-2.306
							c-3.844-0.348-7.663,0.211-10.752,1.577c-3.089,1.359-5.04,3.343-5.486,5.579l-2.063,10.368L604.974,217.495"/>
					</g>
				</g>
			</g>
		</g>
		<g id="XMLID_422_">
			<g id="XMLID_442_">
				<g id="XMLID_444_">
					<polygon id="XMLID_449_" fill="#1B9971" points="528.337,218.331 474.216,249.78 474.249,266.147 528.305,234.938 					"/>
					<polygon id="XMLID_447_" fill="#60D4AF" points="528.337,218.331 474.216,249.78 389.431,200.43 443.904,169.347 					"/>
					<polygon id="XMLID_445_" fill="#36C295" points="389.431,200.43 474.216,249.78 474.249,266.147 389.463,217.038 					"/>
				</g>
				<linearGradient id="XMLID_391_" gradientUnits="userSpaceOnUse" x1="497.7012" y1="236.0186" x2="504.8843" y2="248.4601">
					<stop  offset="0" style="stop-color:#FFFFFF;stop-opacity:0"/>
					<stop  offset="0.0928" style="stop-color:#F8FDFC;stop-opacity:0.0928"/>
					<stop  offset="0.2242" style="stop-color:#E6F7F5;stop-opacity:0.2242"/>
					<stop  offset="0.3785" style="stop-color:#C7EEE8;stop-opacity:0.3785"/>
					<stop  offset="0.5504" style="stop-color:#9DE1D7;stop-opacity:0.5504"/>
					<stop  offset="0.7367" style="stop-color:#67D0C1;stop-opacity:0.7367"/>
					<stop  offset="0.9322" style="stop-color:#25BCA6;stop-opacity:0.9322"/>
					<stop  offset="1" style="stop-color:#0DB59C"/>
				</linearGradient>
				<polygon id="XMLID_443_" fill="url(#XMLID_391_)" points="528.337,218.331 474.216,249.78 474.249,266.147 528.305,234.938
					"/>
			</g>
			<g id="XMLID_423_">
				<g id="XMLID_436_">
					<path id="XMLID_441_" fill="#FFFFFF" d="M462.434,206.188c4.621,2.668,6.457,6.595,4.796,10.25
						c-0.405,0.887-1.97,1.415-3.501,1.177c-0.502-0.079-0.94-0.227-1.288-0.427c-0.699-0.404-1.017-1.008-0.751-1.602
						c1.143-2.518-0.116-5.217-3.293-7.052c-3.172-1.831-7.842-2.554-12.185-1.884c-1.022,0.157-2.065-0.028-2.767-0.433
						c-0.345-0.199-0.606-0.451-0.743-0.742c-0.416-0.887,0.49-1.794,2.021-2.032C451.027,202.47,457.816,203.523,462.434,206.188z"
						/>
				</g>
				<g id="XMLID_434_">
					<path id="XMLID_435_" fill="#FFFFFF" d="M451.943,212.285c1.966,1.135,1.976,2.971,0.027,4.104
						c-1.952,1.135-5.123,1.135-7.089,0c-1.961-1.132-1.976-2.972-0.023-4.106C446.807,211.15,449.982,211.152,451.943,212.285z"/>
				</g>
				<g id="XMLID_432_">
					<path id="XMLID_433_" fill="#FFFFFF" d="M472.778,200.176c7.373,4.257,10.306,10.527,7.655,16.362
						c-0.405,0.887-1.97,1.415-3.502,1.177c-0.501-0.08-0.939-0.227-1.287-0.428c-0.699-0.404-1.021-1.011-0.751-1.602
						c2.133-4.697-0.224-9.741-6.152-13.164c-5.924-3.42-14.643-4.771-22.745-3.521c-1.022,0.158-2.067-0.026-2.769-0.431
						c-0.345-0.199-0.606-0.452-0.742-0.743c-0.41-0.884,0.491-1.794,2.021-2.032C454.575,194.244,465.41,195.922,472.778,200.176z"
						/>
				</g>
			</g>
		</g>
		<g id="XMLID_374_">
			<g id="XMLID_382_">
				<g id="XMLID_384_">
					<polygon id="XMLID_387_" fill="#DE2A48" points="351.507,405.342 308.95,430.113 308.982,446.48 351.475,421.949 					"/>
					<polygon id="XMLID_386_" fill="#FF617B" points="351.507,405.342 308.95,430.113 265.251,404.689 308.16,380.283 					"/>
					<polygon id="XMLID_385_" fill="#DE3551" points="265.251,404.689 308.95,430.113 308.982,446.48 265.283,421.297 					"/>
				</g>
				<linearGradient id="XMLID_392_" gradientUnits="userSpaceOnUse" x1="326.6543" y1="419.6914" x2="333.8374" y2="432.1329">
					<stop  offset="0" style="stop-color:#FFFFFF;stop-opacity:0"/>
					<stop  offset="0.1009" style="stop-color:#FEF8F9;stop-opacity:0.1009"/>
					<stop  offset="0.2438" style="stop-color:#FBE6E9;stop-opacity:0.2438"/>
					<stop  offset="0.4117" style="stop-color:#F6C7CF;stop-opacity:0.4117"/>
					<stop  offset="0.5986" style="stop-color:#F09DAB;stop-opacity:0.5986"/>
					<stop  offset="0.7993" style="stop-color:#E7677D;stop-opacity:0.7993"/>
					<stop  offset="1" style="stop-color:#DE2A48"/>
				</linearGradient>
				<polygon id="XMLID_383_" fill="url(#XMLID_392_)" points="351.507,405.342 308.95,430.113 308.982,446.48 351.475,421.949
					"/>
			</g>
			<g id="XMLID_375_">
				<g id="XMLID_378_">
					<path id="XMLID_379_" fill="#FFFFFF" d="M326.519,406.527c0.923,0.533,0.923,1.398,0.006,1.932l-14.958,8.693
						c-0.923,0.537-2.414,0.537-3.337,0.004l-23.011-13.287c-0.924-0.533-0.934-1.398-0.012-1.936l14.959-8.692
						c0.918-0.533,2.418-0.533,3.342,0l5.436,3.138l2.652-1.611c0.438-0.267,1.043-0.42,1.678-0.423
						c0.631-0.006,1.246,0.136,1.698,0.397l8.813,5.088c0.923,0.533,0.923,1.4,0.006,1.933l-2.753,1.6L326.519,406.527z
						 M309.879,414.256l11.638-6.764l-5.476-3.162c-0.924-0.533-0.928-1.396-0.011-1.93l2.757-1.601l-5.43-3.136l-2.652,1.616
						c-0.439,0.268-1.038,0.418-1.679,0.424c-0.636,0.002-1.246-0.143-1.692-0.4l-5.48-3.164l-11.639,6.763L309.879,414.256"/>
				</g>
				<g id="XMLID_376_">
					<path id="XMLID_377_" fill="#FFFFFF" d="M309.297,403.203c1.695,0.98,1.705,2.568,0.02,3.547c-1.686,0.98-4.427,0.98-6.123,0
						c-1.696-0.979-1.705-2.566-0.02-3.547C304.859,402.225,307.6,402.225,309.297,403.203z"/>
				</g>
			</g>
		</g>
		<g id="XMLID_357_">
			<g id="XMLID_372_">
				<rect id="XMLID_373_" x="421.139" y="500.59" fill="#F9FF3D" width="2" height="2"/>
			</g>
			<g id="XMLID_360_">
				<path id="XMLID_361_" fill="#F9FF3D" d="M423.139,496.537h-2v-4.055h2V496.537z M423.139,488.426h-2v-4.055h2V488.426z
					 M423.139,480.316h-2v-4.055h2V480.316z M423.139,472.207h-2v-4.055h2V472.207z M423.139,464.098h-2v-4.057h2V464.098z
					 M423.139,455.986h-2v-4.055h2V455.986z M423.139,447.877h-2v-4.055h2V447.877z M423.139,439.768h-2v-4.057h2V439.768z
					 M423.139,431.656h-2v-4.055h2V431.656z M423.139,423.547h-2v-4.055h2V423.547z"/>
			</g>
			<g id="XMLID_358_">
				<rect id="XMLID_359_" x="421.139" y="413.436" fill="#F9FF3D" width="2" height="2"/>
			</g>
		</g>
		<g id="XMLID_348_">
			<g id="XMLID_355_">

					<rect id="XMLID_356_" x="189.076" y="413.383" transform="matrix(0.9999 0.0117 -0.0117 0.9999 4.8687 -2.1989)" fill="#F9FF3D" width="2" height="1.998"/>
			</g>
			<g id="XMLID_351_">
				<path id="XMLID_352_" fill="#F9FF3D" d="M190.848,433.898l-2-0.023l0.055-4.625l2,0.023L190.848,433.898z M190.957,424.646
					l-2-0.023l0.054-4.627l2,0.023L190.957,424.646z"/>
			</g>
			<g id="XMLID_349_">

					<rect id="XMLID_350_" x="188.781" y="438.514" transform="matrix(0.9999 0.0117 -0.0117 0.9999 5.1632 -2.1937)" fill="#F9FF3D" width="2" height="2"/>
			</g>
		</g>
		<g id="XMLID_339_">
			<g id="XMLID_346_">
				<rect id="XMLID_347_" x="145.387" y="388.198" fill="#F9FF3D" width="2" height="2"/>
			</g>
			<g id="XMLID_342_">
				<path id="XMLID_343_" fill="#F9FF3D" d="M147.35,408.67l-2-0.004l0.01-4.619l2,0.004L147.35,408.67z M147.367,399.434l-2-0.004
					l0.01-4.617l2,0.004L147.367,399.434z"/>
			</g>
			<g id="XMLID_340_">
				<rect id="XMLID_341_" x="145.34" y="413.283" fill="#F9FF3D" width="2" height="2"/>
			</g>
		</g>
		<g id="XMLID_330_">
			<g id="XMLID_337_">
				<rect id="XMLID_338_" x="231.582" y="388.85" fill="#F9FF3D" width="2" height="2"/>
			</g>
			<g id="XMLID_333_">
				<path id="XMLID_334_" fill="#F9FF3D" d="M231.619,409.059l-0.009-4.553l2-0.004l0.009,4.553L231.619,409.059z M231.602,399.956
					l-0.01-4.552l2-0.004l0.01,4.552L231.602,399.956z"/>
			</g>
			<g id="XMLID_331_">
				<rect id="XMLID_332_" x="231.63" y="413.607" fill="#F9FF3D" width="2" height="2"/>
			</g>
		</g>
		<g id="XMLID_319_">
			<g id="XMLID_328_">
				<rect id="XMLID_329_" x="358.025" y="536.232" fill="#F9FF3D" width="2" height="2"/>
			</g>
			<g id="XMLID_322_">
				<path id="XMLID_323_" fill="#F9FF3D" d="M360.039,531.844l-2-0.006l0.01-4.393l2,0.004L360.039,531.844z M360.061,523.057
					l-2-0.004l0.011-4.393l2,0.006L360.061,523.057z M360.082,514.273l-2-0.004l0.011-4.395l2,0.006L360.082,514.273z
					 M360.104,505.488l-2-0.006l0.012-4.393l2,0.006L360.104,505.488z"/>
			</g>
			<g id="XMLID_320_">
				<rect id="XMLID_321_" x="358.128" y="494.701" fill="#F9FF3D" width="2" height="2"/>
			</g>
		</g>
		<g id="XMLID_308_">
			<g id="XMLID_317_">

					<rect id="XMLID_318_" x="400.878" y="511.325" transform="matrix(0.0063 1 -1 0.0063 911.6423 107.2029)" fill="#F9FF3D" width="2" height="2"/>
			</g>
			<g id="XMLID_311_">
				<path id="XMLID_312_" fill="#F9FF3D" d="M400.846,506.98l-0.026-4.35l2-0.012l0.026,4.35L400.846,506.98z M400.793,498.279
					l-0.027-4.352l2-0.012l0.027,4.352L400.793,498.279z M400.739,489.578l-0.026-4.352l2-0.012l0.026,4.352L400.739,489.578z
					 M400.687,480.877l-0.026-4.352l2-0.012l0.026,4.352L400.687,480.877z"/>
			</g>
			<g id="XMLID_309_">

					<rect id="XMLID_310_" x="400.627" y="470.169" transform="matrix(0.0063 1 -1 0.0063 870.2375 66.5588)" fill="#F9FF3D" width="2" height="2"/>
			</g>
		</g>
		<g id="XMLID_297_">
			<g id="XMLID_306_">

					<rect id="XMLID_307_" x="314.586" y="511.002" transform="matrix(0.0034 1 -1 0.0034 826.5067 194.6674)" fill="#F9FF3D" width="2" height="2"/>
			</g>
			<g id="XMLID_300_">
				<path id="XMLID_301_" fill="#F9FF3D" d="M314.566,506.619l-0.016-4.387l2-0.008l0.016,4.387L314.566,506.619z M314.535,497.846
					l-0.017-4.389l2-0.008l0.017,4.389L314.535,497.846z M314.502,489.07l-0.016-4.389l2-0.006l0.016,4.387L314.502,489.07z
					 M314.471,480.295l-0.017-4.387l2-0.008l0.017,4.387L314.471,480.295z"/>
			</g>
			<g id="XMLID_298_">

					<rect id="XMLID_299_" x="314.435" y="469.517" transform="matrix(0.0034 1 -1 0.0034 784.8708 153.4752)" fill="#F9FF3D" width="2" height="2"/>
			</g>
		</g>
		<g id="XMLID_283_">
			<g id="XMLID_295_">
				<rect id="XMLID_296_" x="307.951" y="506.382" fill="#F9FF3D" width="2" height="2"/>
			</g>
			<g id="XMLID_286_">
				<path id="XMLID_287_" fill="#F9FF3D" d="M309.953,502.523l-2-0.004l0.002-3.859l2,0.002L309.953,502.523z M309.957,494.803
					l-2-0.002l0.002-3.859l2,0.002L309.957,494.803z M309.961,487.082l-2-0.002l0.002-3.859l2,0.002L309.961,487.082z
					 M309.965,479.363l-2-0.002l0.002-3.861l2,0.002L309.965,479.363z M309.969,471.643l-2-0.002l0.002-3.859l2,0.002
					L309.969,471.643z M309.973,463.922l-2-0.002l0.003-3.859l2,0.002L309.973,463.922z M309.978,456.203l-2-0.002l0.002-3.861
					l2,0.002L309.978,456.203z"/>
			</g>
			<g id="XMLID_284_">
				<rect id="XMLID_285_" x="307.982" y="446.481" fill="#F9FF3D" width="2" height="2"/>
			</g>
		</g>
		<g id="XMLID_269_">
			<g id="XMLID_281_">
				<rect id="XMLID_282_" x="264.283" y="421.297" fill="#F9FF3D" width="2" height="2"/>
			</g>
			<g id="XMLID_272_">
				<path id="XMLID_273_" fill="#F9FF3D" d="M266.254,477.115l-2-0.002l0.002-3.844h2L266.254,477.115z M266.258,469.428l-2-0.002
					l0.002-3.846l2,0.002L266.258,469.428z M266.262,461.738l-2-0.002l0.002-3.844l2,0.002L266.262,461.738z M266.266,454.051
					l-2-0.002l0.002-3.844h2L266.266,454.051z M266.27,446.361h-2l0.002-3.844h2L266.27,446.361z M266.274,438.674h-2l0.002-3.846
					l2,0.002L266.274,438.674z M266.278,430.986l-2-0.002l0.002-3.844l2,0.002L266.278,430.986z"/>
			</g>
			<g id="XMLID_270_">
				<rect id="XMLID_271_" x="264.251" y="480.957" fill="#F9FF3D" width="2" height="2"/>
			</g>
		</g>
		<g id="XMLID_255_">
			<g id="XMLID_267_">
				<rect id="XMLID_268_" x="350.506" y="481.61" fill="#F9FF3D" width="2" height="2"/>
			</g>
			<g id="XMLID_258_">
				<path id="XMLID_259_" fill="#F9FF3D" d="M350.504,477.768l-0.002-3.844l2-0.002l0.002,3.844L350.504,477.768z M350.5,470.078
					l-0.002-3.844l2-0.002l0.002,3.844L350.5,470.078z M350.495,462.391l-0.002-3.844l2-0.002l0.002,3.844L350.495,462.391z
					 M350.491,454.703l-0.002-3.846h2l0.002,3.844L350.491,454.703z M350.487,447.014l-0.002-3.844h2l0.002,3.844H350.487z
					 M350.483,439.326l-0.003-3.844l2-0.002l0.003,3.844L350.483,439.326z M350.479,431.639l-0.002-3.844l2-0.002l0.002,3.844
					L350.479,431.639z"/>
			</g>
			<g id="XMLID_256_">
				<rect id="XMLID_257_" x="350.474" y="421.949" fill="#F9FF3D" width="2" height="2"/>
			</g>
		</g>
		<g id="XMLID_242_">
			<g id="XMLID_249_">
				<g id="XMLID_251_">
					<polygon id="XMLID_254_" fill="#F29B06" points="401.654,453.561 359.098,478.334 359.131,494.701 401.622,470.168 					"/>
					<polygon id="XMLID_253_" fill="#FFD006" points="401.654,453.561 359.098,478.334 315.398,452.908 358.309,428.502 					"/>
					<polygon id="XMLID_252_" fill="#FFB406" points="315.398,452.908 359.098,478.334 359.131,494.701 315.432,469.516 					"/>
				</g>
				<linearGradient id="XMLID_393_" gradientUnits="userSpaceOnUse" x1="376.8008" y1="467.9102" x2="383.9844" y2="480.3525">
					<stop  offset="0" style="stop-color:#FFFFFF;stop-opacity:0"/>
					<stop  offset="0.1003" style="stop-color:#FEF9F8;stop-opacity:0.1003"/>
					<stop  offset="0.2423" style="stop-color:#FAE9E6;stop-opacity:0.2423"/>
					<stop  offset="0.4092" style="stop-color:#F4CEC7;stop-opacity:0.4092"/>
					<stop  offset="0.5949" style="stop-color:#ECA89D;stop-opacity:0.5949"/>
					<stop  offset="0.7963" style="stop-color:#E27867;stop-opacity:0.7963"/>
					<stop  offset="1" style="stop-color:#D64128"/>
				</linearGradient>
				<polygon id="XMLID_250_" fill="url(#XMLID_393_)" points="401.654,453.561 359.098,478.334 359.131,494.701 401.622,470.168
									"/>
			</g>
			<g id="XMLID_243_">
				<path id="XMLID_244_" fill="#FFFFFF" d="M380.206,454.473c0.786,0.453,0.79,1.184,0.014,1.637l-15.496,9.004
					c-0.776,0.453-2.04,0.453-2.825-0.002l-23.848-13.768c-0.781-0.451-0.785-1.184-0.009-1.635l15.496-9.006
					c0.776-0.451,2.039-0.451,2.821,0L380.206,454.473z M372.668,457.213l3.307-1.922l-21.012-12.131l-3.307,1.922l1.289,11.422
					L372.668,457.213 M363.295,462.66l6.244-3.629l-13.363-0.48L363.295,462.66 M342.283,450.529l7.118,4.109l-0.874-7.738
					L342.283,450.529"/>
			</g>
		</g>
		<g id="XMLID_227_">
			<g id="XMLID_240_">
				<rect id="XMLID_241_" x="207.898" y="306.788" fill="#F9FF3D" width="2" height="2"/>
			</g>
			<g id="XMLID_230_">
				<path id="XMLID_231_" fill="#F9FF3D" d="M209.869,373.194l-2-0.001l0.002-4.025l2,0.001L209.869,373.194z M209.872,365.144
					l-2-0.001l0.002-4.025l2,0.001L209.872,365.144z M209.876,357.093l-2-0.001l0.002-4.025l2,0.001L209.876,357.093z
					 M209.879,349.042l-2-0.001l0.002-4.025l2,0.001L209.879,349.042z M209.883,340.991l-2-0.001l0.002-4.025l2,0.001
					L209.883,340.991z M209.887,332.94l-2-0.001l0.002-4.025l2,0.001L209.887,332.94z M209.891,324.89l-2-0.001l0.002-4.025l2,0.001
					L209.891,324.89z M209.895,316.839l-2-0.001l0.002-4.025l2,0.001L209.895,316.839z"/>
			</g>
			<g id="XMLID_228_">
				<rect id="XMLID_229_" x="207.867" y="377.219" fill="#F9FF3D" width="2" height="2"/>
			</g>
		</g>
		<g id="XMLID_220_">
			<g id="XMLID_221_">
				<g id="XMLID_223_">
					<polygon id="XMLID_226_" fill="#329FBA" points="232.612,372.242 190.057,397.015 190.089,413.383 232.58,388.85 					"/>
					<polygon id="XMLID_225_" fill="#5BCACC" points="232.612,372.242 190.057,397.015 146.357,371.59 189.266,347.183 					"/>
					<polygon id="XMLID_224_" fill="#45BACC" points="146.357,371.59 190.057,397.015 190.089,413.383 146.39,388.198 					"/>
				</g>
				<linearGradient id="XMLID_394_" gradientUnits="userSpaceOnUse" x1="207.7598" y1="386.5923" x2="214.9429" y2="399.0338">
					<stop  offset="0" style="stop-color:#FFFFFF;stop-opacity:0"/>
					<stop  offset="0.1035" style="stop-color:#F8FCFD;stop-opacity:0.1035"/>
					<stop  offset="0.25" style="stop-color:#E6F3F7;stop-opacity:0.25"/>
					<stop  offset="0.4222" style="stop-color:#C7E5EC;stop-opacity:0.4222"/>
					<stop  offset="0.6138" style="stop-color:#9DD1DE;stop-opacity:0.6138"/>
					<stop  offset="0.8188" style="stop-color:#68B8CC;stop-opacity:0.8188"/>
					<stop  offset="1" style="stop-color:#329FBA"/>
				</linearGradient>
				<polygon id="XMLID_222_" fill="url(#XMLID_394_)" points="232.612,372.242 190.057,397.015 190.089,413.383 232.58,388.85
					"/>
			</g>
		</g>
		<g id="XMLID_197_">
			<g id="XMLID_218_">
				<rect id="XMLID_219_" x="601.068" y="260.985" fill="#F9FF3D" width="2" height="2"/>
			</g>
			<g id="XMLID_200_">
				<path id="XMLID_201_" fill="#F9FF3D" d="M603.037,392.355l-2,0l0.001-4.042l2,0L603.037,392.355z M603.039,384.27h-2
					l0.001-4.043l2,0L603.039,384.27z M603.041,376.185l-2,0l0.001-4.043h2L603.041,376.185z M603.043,368.098l-2,0l0.001-4.042l2,0
					L603.043,368.098z M603.045,360.013h-2l0.001-4.043l2,0L603.045,360.013z M603.047,351.928l-2,0l0.001-4.043h2L603.047,351.928z
					 M603.049,343.841l-2,0l0.001-4.042l2,0L603.049,343.841z M603.051,335.756h-2l0.001-4.043h2L603.051,335.756z M603.053,327.67
					l-2-0.001l0.001-4.042h2L603.053,327.67z M603.055,319.584h-2l0.001-4.043l2,0.001L603.055,319.584z M603.057,311.499h-2
					l0.001-4.043h2L603.057,311.499z M603.059,303.414l-2-0.001l0.001-4.042h2L603.059,303.414z M603.061,295.328h-2l0.001-4.043
					l2,0.001L603.061,295.328z M603.062,287.242h-2l0.001-4.043h2L603.062,287.242z M603.064,279.157l-2-0.001l0.001-4.042l2,0
					L603.064,279.157z M603.066,271.071h-2l0.001-4.043l2,0.001L603.066,271.071z"/>
			</g>
			<g id="XMLID_198_">
				<rect id="XMLID_199_" x="601.036" y="396.398" fill="#F9FF3D" width="2" height="2"/>
			</g>
		</g>
		<g id="XMLID_174_">
			<g id="XMLID_195_">
				<rect id="XMLID_196_" x="655.157" y="364.949" fill="#F9FF3D" width="2" height="2"/>
			</g>
			<g id="XMLID_177_">
				<path id="XMLID_178_" fill="#F9FF3D" d="M655.155,360.913l-0.001-4.035l2-0.001l0.001,4.036H655.155z M655.153,352.842
					l-0.001-4.035l2-0.001l0.001,4.036H655.153z M655.151,344.771l-0.001-4.036l2,0l0.001,4.036H655.151z M655.149,336.7
					l-0.001-4.035l2-0.001l0.001,4.036H655.149z M655.147,328.629l-0.001-4.036l2,0l0.001,4.036H655.147z M655.146,320.558
					l-0.001-4.036l2,0l0.001,4.036H655.146z M655.144,312.487l-0.001-4.036l2,0l0.001,4.036H655.144z M655.142,304.416l-0.001-4.036
					l2,0l0.001,4.036L655.142,304.416z M655.14,296.345l-0.001-4.036l2,0l0.001,4.036L655.14,296.345z M655.138,288.274
					l-0.001-4.036h2l0.001,4.036L655.138,288.274z M655.136,280.203l-0.001-4.036h2l0.001,4.035L655.136,280.203z M655.134,272.132
					l-0.001-4.036h2l0.001,4.036L655.134,272.132z M655.132,264.061l-0.001-4.036h2l0.001,4.035L655.132,264.061z M655.13,255.99
					l-0.001-4.036h2l0.001,4.036L655.13,255.99z M655.128,247.918l-0.001-4.036h2l0.001,4.035L655.128,247.918z M655.126,239.848
					l-0.001-4.036h2l0.001,4.035L655.126,239.848z"/>
			</g>
			<g id="XMLID_175_">
				<rect id="XMLID_176_" x="655.125" y="229.776" fill="#F9FF3D" width="2" height="2"/>
			</g>
		</g>
		<g id="XMLID_164_">
			<g id="XMLID_172_">
				<rect id="XMLID_173_" x="537.956" y="331.094" fill="#F9FF3D" width="2" height="2"/>
			</g>
			<g id="XMLID_167_">
				<path id="XMLID_168_" fill="#F9FF3D" d="M539.931,356.124l-2-0.002l0.004-3.838l2,0.002L539.931,356.124z M539.938,348.448
					l-2-0.003l0.005-3.838l2,0.003L539.938,348.448z M539.947,340.771l-2-0.002l0.004-3.838l2,0.002L539.947,340.771z"/>
			</g>
			<g id="XMLID_165_">
				<rect id="XMLID_166_" x="537.926" y="359.961" fill="#F9FF3D" width="2" height="2"/>
			</g>
		</g>
		<g id="XMLID_154_">
			<g id="XMLID_162_">
				<rect id="XMLID_163_" x="592.014" y="299.885" fill="#F9FF3D" width="2" height="2"/>
			</g>
			<g id="XMLID_157_">
				<path id="XMLID_158_" fill="#F9FF3D" d="M592.04,324.708l-0.004-3.804l2-0.002l0.004,3.804L592.04,324.708z M592.032,317.102
					l-0.005-3.804l2-0.003l0.005,3.804L592.032,317.102z M592.023,309.493l-0.004-3.804l2-0.002l0.004,3.804L592.023,309.493z"/>
			</g>
			<g id="XMLID_155_">
				<rect id="XMLID_156_" x="592.045" y="328.511" fill="#F9FF3D" width="2" height="2"/>
			</g>
		</g>
		<g id="XMLID_144_">
			<g id="XMLID_152_">
				<rect id="XMLID_153_" x="483.115" y="299.477" fill="#F9FF3D" width="2" height="2"/>
			</g>
			<g id="XMLID_147_">
				<path id="XMLID_148_" fill="#F9FF3D" d="M485.09,324.3l-2-0.002l0.004-3.804l2,0.002L485.09,324.3z M485.098,316.693l-2-0.002
					l0.004-3.804l2,0.002L485.098,316.693z M485.105,309.085l-2-0.002l0.004-3.804l2,0.002L485.105,309.085z"/>
			</g>
			<g id="XMLID_145_">
				<rect id="XMLID_146_" x="483.084" y="328.104" fill="#F9FF3D" width="2" height="2"/>
			</g>
		</g>
		<g id="XMLID_131_">
			<g id="XMLID_142_">
				<rect id="XMLID_143_" x="473.249" y="266.147" fill="#F9FF3D" width="2" height="2"/>
			</g>
			<g id="XMLID_134_">
				<path id="XMLID_135_" fill="#F9FF3D" d="M475.249,317.912h-2v-4.147h2V317.912z M475.249,309.618h-2v-4.147h2V309.618z
					 M475.249,301.324h-2v-4.147h2V301.324z M475.249,293.03h-2v-4.147h2V293.03z M475.249,284.735h-2v-4.147h2V284.735z
					 M475.249,276.441h-2v-4.147h2V276.441z"/>
			</g>
			<g id="XMLID_132_">
				<rect id="XMLID_133_" x="473.249" y="322.059" fill="#F9FF3D" width="2" height="2"/>
			</g>
		</g>
		<g id="XMLID_118_">
			<g id="XMLID_129_">

					<rect id="XMLID_130_" x="527.314" y="234.938" transform="matrix(0.0093 1 -1 0.0093 759.3407 -294.542)" fill="#F9FF3D" width="2" height="2"/>
			</g>
			<g id="XMLID_121_">
				<path id="XMLID_122_" fill="#F9FF3D" d="M527.794,286.271l-0.039-4.11l2-0.019l0.039,4.11L527.794,286.271z M527.716,278.051
					l-0.04-4.11l2-0.02l0.04,4.11L527.716,278.051z M527.637,269.83l-0.039-4.11l2-0.019l0.039,4.11L527.637,269.83z
					 M527.559,261.609l-0.039-4.11l2-0.019l0.039,4.11L527.559,261.609z M527.48,253.389l-0.04-4.11l2-0.02l0.04,4.11
					L527.48,253.389z M527.401,245.168l-0.039-4.11l2-0.019l0.039,4.11L527.401,245.168z"/>
			</g>
			<g id="XMLID_119_">

					<rect id="XMLID_120_" x="527.843" y="290.372" transform="matrix(0.0093 1 -1 0.0093 815.2958 -240.1519)" fill="#F9FF3D" width="2" height="2"/>
			</g>
		</g>
		<g id="XMLID_105_">
			<g id="XMLID_116_">
				<rect id="XMLID_117_" x="388.462" y="217.038" fill="#F9FF3D" width="2" height="2"/>
			</g>
			<g id="XMLID_108_">
				<path id="XMLID_109_" fill="#F9FF3D" d="M390.434,268.79l-2-0.001l0.002-4.146l2,0.001L390.434,268.79z M390.438,260.498
					l-2-0.001l0.003-4.146l2,0.001L390.438,260.498z M390.443,252.206l-2-0.001l0.002-4.146l2,0.001L390.443,252.206z
					 M390.447,243.914l-2-0.001l0.003-4.146l2,0.001L390.447,243.914z M390.453,235.622l-2-0.001l0.002-4.146l2,0.001
					L390.453,235.622z M390.457,227.331l-2-0.001l0.002-4.146l2,0.001L390.457,227.331z"/>
			</g>
			<g id="XMLID_106_">
				<rect id="XMLID_107_" x="388.431" y="272.935" fill="#F9FF3D" width="2" height="2"/>
			</g>
		</g>
		<g id="XMLID_98_">
			<g id="XMLID_103_">
				<rect id="XMLID_104_" x="555.338" y="411.517" fill="#F9FF3D" width="2" height="2"/>
			</g>
			<g id="XMLID_101_">

					<rect id="XMLID_102_" x="554.759" y="417.304" transform="matrix(0.0028 1 -1 0.0028 973.1249 -139.2011)" fill="#F9FF3D" width="3.191" height="2"/>
			</g>
			<g id="XMLID_99_">

					<rect id="XMLID_100_" x="555.371" y="423.091" transform="matrix(0.0029 1 -1 0.0029 978.8301 -133.5203)" fill="#F9FF3D" width="2" height="2"/>
			</g>
		</g>
		<g id="XMLID_91_">
			<g id="XMLID_96_">
				<rect id="XMLID_97_" x="584.062" y="394.667" fill="#F9FF3D" width="2" height="2"/>
			</g>
			<g id="XMLID_94_">

					<rect id="XMLID_95_" x="583.477" y="400.465" transform="matrix(0.0024 1 -1 0.0024 985.1107 -184.5903)" fill="#F9FF3D" width="3.199" height="2"/>
			</g>
			<g id="XMLID_92_">
				<rect id="XMLID_93_" x="584.09" y="406.262" fill="#F9FF3D" width="2" height="2"/>
			</g>
		</g>
		<g id="XMLID_84_">
			<g id="XMLID_89_">
				<rect id="XMLID_90_" x="525.823" y="394.125" fill="#F9FF3D" width="2" height="2"/>
			</g>
			<g id="XMLID_87_">
				<rect id="XMLID_88_" x="525.809" y="399.341" fill="#F9FF3D" width="2" height="3.215"/>
			</g>
			<g id="XMLID_85_">

					<rect id="XMLID_86_" x="525.795" y="405.772" transform="matrix(1 0.0029 -0.0029 1 1.194 -1.5416)" fill="#F9FF3D" width="2" height="2"/>
			</g>
		</g>
		<g id="XMLID_78_">
			<g id="XMLID_80_">
				<polygon id="XMLID_83_" fill="#3382E0" points="542.117,343.638 422.084,413.436 422.116,429.803 542.085,360.246 				"/>
				<polygon id="XMLID_82_" fill="#60BCF5" points="542.117,343.638 422.084,413.436 208.866,290.18 329.254,220.747 				"/>
				<polygon id="XMLID_81_" fill="#35A4E8" points="208.866,290.18 422.116,413.436 422.116,429.803 208.898,306.788 				"/>
			</g>
			<linearGradient id="XMLID_395_" gradientUnits="userSpaceOnUse" x1="478.4619" y1="380.3896" x2="485.7725" y2="393.0519">
				<stop  offset="0" style="stop-color:#FFFFFF;stop-opacity:0"/>
				<stop  offset="0.1" style="stop-color:#F8FCFE;stop-opacity:0.1"/>
				<stop  offset="0.2416" style="stop-color:#E6F5FC;stop-opacity:0.2416"/>
				<stop  offset="0.4079" style="stop-color:#C7E9F7;stop-opacity:0.4079"/>
				<stop  offset="0.5931" style="stop-color:#9DD8F1;stop-opacity:0.5931"/>
				<stop  offset="0.7938" style="stop-color:#67C3EA;stop-opacity:0.7938"/>
				<stop  offset="1" style="stop-color:#27AAE1"/>
			</linearGradient>
			<polygon id="XMLID_79_" fill="url(#XMLID_395_)" points="542.117,343.638 422.116,413.436 422.116,429.803 542.117,360.246
				"/>
		</g>
		<polygon id="XMLID_77_" fill="#FFFFFF" points="454.783,394.43 454.381,394.664 241.289,271.48 241.551,271.311 		"/>
		<g id="XMLID_58_">
			<g id="XMLID_75_">
				<polygon id="XMLID_76_" fill="#FFFFFF" points="452.569,360.843 441.792,363.532 436.57,366.567 436.16,366.33 441.382,363.295
					446.05,357.079 446.46,357.315 442.158,363.101 452.14,360.594 				"/>
			</g>
			<g id="XMLID_73_">
				<polygon id="XMLID_74_" fill="#FFFFFF" points="437.621,352.212 424.707,359.717 424.203,359.426 431.886,349.582
					419.559,356.745 419.169,356.52 432.083,349.015 432.661,349.349 425.146,359.011 437.231,351.987 				"/>
			</g>
			<g id="XMLID_71_">
				<polygon id="XMLID_72_" fill="#FFFFFF" points="444.639,356.264 431.724,363.769 431.22,363.478 438.909,353.637 426.582,360.8
					426.192,360.575 439.107,353.07 439.679,353.4 432.162,363.062 444.249,356.039 				"/>
			</g>
			<g id="XMLID_69_">
				<polygon id="XMLID_70_" fill="#FFFFFF" points="490.698,338.521 488.675,339.697 447.452,352.612 445.174,351.296
					486.356,338.413 473.915,331.23 475.985,330.027 				"/>
			</g>
			<g id="XMLID_67_">
				<path id="XMLID_68_" fill="#FFFFFF" d="M430.618,348.169l-9.723,5.65c-1.77,1.029-3.991,1.502-5.961,0.365
					c-1.989-1.148-1.179-2.437,0.591-3.465l9.723-5.65l0.409,0.237l-9.742,5.662c-1.549,0.9-2.34,2.006-0.613,3.003
					c1.728,0.998,3.635,0.536,5.184-0.365l9.743-5.662L430.618,348.169z"/>
			</g>
			<g id="XMLID_65_">
				<path id="XMLID_66_" fill="#FFFFFF" d="M465.432,323.655c5.275,3.046,3.646,6.345-1.255,9.193
					c-9.716,5.646-25.328,0.532-35.386,6.205l-0.387,0.225l12.104,6.989l-2.017,1.172l-14.33-8.273l1.637-0.951
					c11.879-6.904,26.817-1.227,36.053-6.593c3.899-2.267,5.327-4.614,1.455-6.85c-3.724-2.149-7.966-1.257-11.571,0.838
					l-2.311,1.343l-2.131-1.23l2.163-1.257C454.318,321.641,460.202,320.636,465.432,323.655z"/>
			</g>
			<g id="XMLID_61_">
				<path id="XMLID_62_" fill="#FFFFFF" d="M501.574,341.451c1.889,1.09,1.899,2.868,0.022,3.958c-1.883,1.095-4.944,1.091-6.833,0
					c-1.896-1.094-1.912-2.868-0.029-3.962C496.61,340.357,499.679,340.357,501.574,341.451z M496.246,344.548
					c1.062,0.613,2.797,0.617,3.858,0s1.05-1.622-0.013-2.235c-1.068-0.617-2.797-0.617-3.858,0
					C495.172,342.93,495.177,343.931,496.246,344.548"/>
			</g>
			<g id="XMLID_59_">
				<path id="XMLID_60_" fill="#FFFFFF" d="M421.201,342.624c1.969,1.137,1.259,2.391-0.517,3.423l-0.234,0.136l-0.41-0.237
					l0.254-0.147c1.536-0.893,2.254-1.971,0.56-2.949c-1.707-0.986-3.561-0.578-5.09,0.311c-3.306,1.921,1.769,4.742-1.737,6.779
					c-1.789,1.04-3.958,1.436-5.94,0.291c-1.97-1.137-1.293-2.394,0.496-3.434l0.628-0.365l0.39,0.225l-0.647,0.377
					c-1.569,0.912-2.192,1.983-0.479,2.972c1.707,0.986,3.554,0.621,5.123-0.291c3.266-1.897-1.822-4.711,1.737-6.779
					C417.217,341.84,419.312,341.549,421.201,342.624z"/>
			</g>
		</g>
		<g id="XMLID_44_">
			<g id="XMLID_52_">
				<g id="XMLID_54_">
					<polygon id="XMLID_57_" fill="#D64128" points="593.046,283.277 538.925,314.727 538.958,331.094 593.014,299.885 					"/>
					<polygon id="XMLID_56_" fill="#F26B54" points="593.046,283.277 538.925,314.727 484.084,282.869 538.558,251.785 					"/>
					<polygon id="XMLID_55_" fill="#E8533A" points="484.084,282.869 538.925,314.727 538.958,331.094 484.116,299.477 					"/>
				</g>
				<linearGradient id="XMLID_396_" gradientUnits="userSpaceOnUse" x1="562.4102" y1="300.9658" x2="569.5928" y2="313.4065">
					<stop  offset="0" style="stop-color:#FFFFFF;stop-opacity:0"/>
					<stop  offset="0.1003" style="stop-color:#FEF9F8;stop-opacity:0.1003"/>
					<stop  offset="0.2423" style="stop-color:#FAE9E6;stop-opacity:0.2423"/>
					<stop  offset="0.4092" style="stop-color:#F4CEC7;stop-opacity:0.4092"/>
					<stop  offset="0.5949" style="stop-color:#ECA89D;stop-opacity:0.5949"/>
					<stop  offset="0.7963" style="stop-color:#E27867;stop-opacity:0.7963"/>
					<stop  offset="1" style="stop-color:#D64128"/>
				</linearGradient>
				<polygon id="XMLID_53_" fill="url(#XMLID_396_)" points="593.046,283.277 538.925,314.727 538.958,331.094 593.014,299.885
					"/>
			</g>
			<g id="XMLID_45_">
				<g id="XMLID_48_">
					<path id="XMLID_49_" fill="#FFFFFF" d="M555.823,271.808c9.583,5.533,9.634,14.532,0.113,20.065
						c-9.516,5.53-25.052,5.53-34.635-0.003c-9.577-5.53-9.628-14.529-0.113-20.059C530.71,266.278,546.246,266.278,555.823,271.808
						z M525.307,289.542c7.361,4.25,19.291,4.25,26.599,0.003c7.314-4.25,7.275-11.16-0.087-15.411
						c-7.355-4.247-19.285-4.247-26.599,0.004C517.911,278.385,517.95,285.295,525.307,289.542"/>
				</g>
				<g id="XMLID_46_">
					<path id="XMLID_47_" fill="#FFFFFF" d="M541.53,276.153c0.245,0.142,0.435,0.323,0.532,0.54l3.54,7.769
						c0.403,0.88-0.969,1.678-2.49,1.447l-13.429-2.021c-0.372-0.057-0.685-0.166-0.93-0.307c-0.761-0.439-0.86-1.192-0.015-1.684
						l9.89-5.747C539.469,275.661,540.771,275.714,541.53,276.153z"/>
				</g>
			</g>
		</g>
		<g id="XMLID_21_">
			<g id="XMLID_42_">
				<rect id="XMLID_43_" x="546.227" y="229.368" fill="#F9FF3D" width="2" height="2"/>
			</g>
			<g id="XMLID_24_">
				<path id="XMLID_25_" fill="#F9FF3D" d="M548.195,360.505h-2l0.001-4.036l2,0.001L548.195,360.505z M548.197,352.434h-2
					l0.001-4.036l2,0.001L548.197,352.434z M548.199,344.363h-2l0.001-4.036l2,0L548.199,344.363z M548.201,336.292h-2l0.001-4.036
					l2,0.001L548.201,336.292z M548.203,328.221h-2l0.001-4.036l2,0L548.203,328.221z M548.205,320.149h-2l0.001-4.036l2,0
					L548.205,320.149z M548.207,312.079h-2l0.001-4.036l2,0L548.207,312.079z M548.209,304.008l-2,0l0.001-4.036l2,0
					L548.209,304.008z M548.211,295.937l-2,0l0.001-4.036l2,0L548.211,295.937z M548.213,287.866l-2,0l0.001-4.036h2
					L548.213,287.866z M548.215,279.795l-2,0l0.001-4.036h2L548.215,279.795z M548.217,271.724l-2,0l0.001-4.036h2L548.217,271.724z
					 M548.219,263.652l-2-0.001l0.001-4.035h2L548.219,263.652z M548.221,255.582l-2,0l0.001-4.036h2L548.221,255.582z
					 M548.223,247.51l-2-0.001l0.001-4.035h2L548.223,247.51z M548.225,239.439l-2-0.001l0.001-4.035h2L548.225,239.439z"/>
			</g>
			<g id="XMLID_22_">
				<rect id="XMLID_23_" x="546.195" y="364.541" fill="#F9FF3D" width="2" height="2"/>
			</g>
		</g>
		<g id="XMLID_16_">
			<g id="XMLID_17_">
				<polygon id="XMLID_20_" fill="#3B5998" points="585.093,378.06 556.303,395.149 556.336,411.516 585.06,394.667 				"/>
				<polygon id="XMLID_19_" fill="#3B5998" points="585.093,378.06 556.303,395.149 526.793,377.518 555.936,360.794 				"/>
				<polygon id="XMLID_18_" fill="#274A87" points="526.793,377.518 556.303,395.149 556.336,411.516 526.825,394.125 				"/>
			</g>
		</g>
		<g id="XMLID_1_">
			<g id="XMLID_14_">
				<rect id="XMLID_15_" x="541.085" y="360.246" fill="#F9FF3D" width="2" height="2"/>
			</g>
			<g id="XMLID_4_">
				<path id="XMLID_5_" fill="#F9FF3D" d="M541.114,427.025l-0.002-4.049l2-0.002l0.002,4.049L541.114,427.025z M541.11,418.926
					l-0.001-4.047h2l0.001,4.047H541.11z M541.107,410.83l-0.002-4.049l2-0.002l0.002,4.049L541.107,410.83z M541.104,402.732
					l-0.002-4.048l2-0.001l0.002,4.047L541.104,402.732z M541.101,394.635l-0.002-4.049l2-0.001l0.002,4.049L541.101,394.635z
					 M541.097,386.538l-0.002-4.049l2-0.001l0.002,4.049L541.097,386.538z M541.093,378.44l-0.001-4.049h2l0.001,4.049H541.093z
					 M541.09,370.343l-0.002-4.049l2-0.001l0.002,4.049L541.09,370.343z"/>
			</g>
			<g id="XMLID_2_">
				<rect id="XMLID_3_" x="541.117" y="431.073" fill="#F9FF3D" width="2" height="2"/>
			</g>
		</g>
		<g>
			<path fill="#FFFFFF" d="M207.457,368.806l-12.34-7.437c-4.191-2.525-10.627-2.808-14.348-0.63l-10.951,6.411
				c-3.721,2.178-3.336,6.003,0.855,8.529l12.341,7.436c4.19,2.525,10.628,2.808,14.347,0.63l10.951-6.412
				C212.033,375.157,211.648,371.331,207.457,368.806L207.457,368.806z M194.917,382.273c-2.524,1.478-6.89,1.286-9.734-0.428
				l-12.341-7.437c-2.844-1.714-3.104-4.309-0.58-5.786l10.951-6.412c2.525-1.478,6.891-1.286,9.735,0.428l12.341,7.437
				c2.844,1.713,3.104,4.309,0.58,5.787L194.917,382.273z M194.917,382.273"/>
			<path fill="#FFFFFF" d="M195.363,368.556c-3.914-2.358-9.922-2.623-13.395-0.59c-3.474,2.033-3.116,5.606,0.798,7.963
				c3.913,2.358,9.923,2.623,13.396,0.589S199.276,370.913,195.363,368.556L195.363,368.556z M184.936,374.659
				c-2.564-1.545-2.801-3.887-0.523-5.221c2.276-1.333,6.217-1.16,8.783,0.387s2.801,3.888,0.523,5.222
				C191.441,376.379,187.502,376.205,184.936,374.659L184.936,374.659z M184.936,374.659"/>
			<path fill="#FFFFFF" d="M204.597,371.934c-0.471-0.284-1.102-0.463-1.73-0.49c-0.63-0.029-1.233,0.095-1.651,0.342
				c-0.418,0.244-0.637,0.6-0.599,0.975c0.036,0.373,0.329,0.751,0.801,1.035c0.472,0.285,1.103,0.463,1.732,0.491
				c0.63,0.028,1.231-0.097,1.649-0.342c0.419-0.245,0.639-0.601,0.6-0.974C205.363,372.596,205.069,372.219,204.597,371.934
				L204.597,371.934z M204.597,371.934"/>
		</g>
		<g>
			<path fill="#FFFFFF" d="M562.961,377.636l-2.798-1.825l1.406-1.163c0.514-0.435,1.065-0.235,1.374-0.022
				c0.31,0.212,1.933,1.3,1.933,1.3l2.065-1.874l-2.554-1.822c-2.686-2.026-4.943-1.05-6.058-0.124l-1.62,1.299l-1.554-1.146
				l-2.709,2.03l1.611,1.132c-3.673,2.588-8.52,5.682-8.52,5.682l3.936,2.331c0,0,4.69-3.104,8.158-5.636l2.553,1.6L562.961,377.636
				z"/>
		</g>
		<path fill="#FFFFFF" d="M340.012,261.04c-1.259-0.269-2.391-0.691-3.352-1.271c1.674,0.177,3.666-0.111,5.594-0.837
			c-1.561-0.169-2.98-0.54-4.188-1.117c0.645-1.425,0.476-2.807-0.65-3.772c-2.165-1.854-7.051-1.484-10.914,0.825
			c-0.546,0.327-1.046,0.676-1.49,1.04c-2.967-2.965-3.069-7.104-0.771-11.291c-1.37,0.329-2.765,0.881-4.047,1.649
			c-2.428,1.451-3.876,3.323-4.077,4.974c-0.607-0.572-0.896-1.279-0.901-2.044c-0.028,0.017-0.059,0.035-0.088,0.053
			c-3.389,2.026-4.864,4.874-3.714,6.794c-0.488-0.187-0.92-0.433-1.278-0.738c-0.252-0.217-0.454-0.453-0.61-0.708
			c-2.279,2.089-2.855,4.539-1.197,6.041c-3.217-0.027-6.024-0.805-7.861-2.379c-0.315-0.271-0.595-0.558-0.836-0.859
			c-0.251,2.673,0.652,5.13,2.864,7.026c7.208,6.176,21.806,3.18,31.048-2.347c0.303-0.181,0.602-0.365,0.895-0.552
			C336.188,261.596,338.084,261.428,340.012,261.04z"/>
	</g>
</g>
</svg>
