<?xml version="1.0" encoding="utf-8"?>
<!-- Generator: Adobe Illustrator 16.0.0, SVG Export Plug-In . SVG Version: 6.00 Build 0)  -->
<!DOCTYPE svg PUBLIC "-//W3C//DTD SVG 1.1//EN" "http://www.w3.org/Graphics/SVG/1.1/DTD/svg11.dtd">
<svg version="1.1" id="Capa_2" xmlns="http://www.w3.org/2000/svg" xmlns:xlink="http://www.w3.org/1999/xlink" x="0px" y="0px"
	 width="208px" height="208px" viewBox="0 0 208 208" enable-background="new 0 0 208 208" xml:space="preserve">
<g>
	<polygon fill="#FFFFFF" points="123.282,81.667 111.257,90.221 111.257,95.493 123.352,87.042 	"/>
	<path fill="#FFFFFF" d="M98.768,107.012c0,0.016,0.005,0.031,0.005,0.047c0,1.243-1.008,2.25-2.25,2.25s-2.25-1.007-2.25-2.25
		c0-1.242,1.008-2.25,2.25-2.25c0.365,0,0.706,0.096,1.012,0.25l6.042-4.183c-1.723-1.963-4.243-3.21-7.054-3.21
		c-5.18,0-9.394,4.214-9.394,9.393c0,5.18,4.214,9.394,9.394,9.394s9.394-4.214,9.394-9.394c0-1.523-0.372-2.958-1.019-4.231
		L98.768,107.012z"/>
	<polygon fill="#FFFFFF" points="112.744,97.51 117.669,99.395 129.956,91.222 124.961,89.234 	"/>
	<path fill="#FFFFFF" d="M0,0v208h208V0H0z M96.49,129.48c-12.107,0-21.958-9.85-21.958-21.958s9.851-21.958,21.958-21.958
		c4.183,0,8.096,1.175,11.427,3.213l-0.871,1.813c-3.063-1.917-6.683-3.026-10.556-3.026c-11.005,0-19.958,8.953-19.958,19.958
		s8.953,19.958,19.958,19.958s19.958-8.953,19.958-19.958c0-1.479-0.162-2.923-0.47-4.312l1.959-0.41
		c0.335,1.521,0.511,3.101,0.511,4.722C118.448,119.63,108.598,129.48,96.49,129.48z M117.937,101.786l-7.376-2.822l-3.994,2.726
		c0.859,1.601,1.35,3.429,1.35,5.37c0,6.282-5.111,11.394-11.394,11.394s-11.394-5.111-11.394-11.394s5.111-11.393,11.394-11.393
		c3.492,0,6.618,1.583,8.71,4.064l3.886-2.69v-7.922l16.248-11.56l0.125,9.585l9.047,3.6L117.937,101.786z"/>
</g>
</svg>
